<?xml version="1.0" encoding="UTF-8"?><svg xmlns="http://www.w3.org/2000/svg" viewBox="0 0 228.59 108.08"><defs><style>.d{mix-blend-mode:overlay;}.d,.e,.f{fill:#4d8a62;}.g{isolation:isolate;}.h{fill:#264c29;stroke-width:.58px;}.h,.i,.f,.j,.k{stroke:#000;stroke-miterlimit:10;}.i{fill:#e5ae13;}.e{mix-blend-mode:screen;opacity:.45;}.f{stroke-width:.87px;}.j{stroke-width:.29px;}.j,.k{fill:none;}.k{stroke-width:.3px;}</style></defs><g class="g"><g id="a"/><g id="b"><g id="c"><g><g><path class="h" d="M227.34,43.67s0,.01,0,.01c-.01,11.24-10.79,21.41-28.22,28.75l-1.55-4.28-2.16-5.98-.75-2.07-.68-1.9-.69-1.91-1.9-5.25-31.92,4.79-2.04,.31-10.41-9.4-5.37-4.85,9.04-3.66,7.5-3.03,1.77-14.27,1.21-9.72,9.17-4.66c6.99,1.31,13.54,2.97,19.53,4.92,3.01,.98,5.87,2.03,8.58,3.16,3.11,1.28,6.01,2.65,8.68,4.1,2.98,1.62,5.67,3.33,8.05,5.13,2.41,1.82,4.49,3.73,6.22,5.71,2.64,3.01,4.46,6.2,5.33,9.51,.4,1.51,.61,3.04,.61,4.59Z"/><path class="f" d="M228.15,38.4c0,.93-.07,1.85-.22,2.76-.04,.28-.09,.57-.16,.85-.11,.56-.25,1.11-.43,1.66,0,.01,0,.01,0,.01-2.94,9.61-13.82,18.17-29.77,24.47l-2.16-5.98-.75-2.07-.68-1.9-.69-1.91-1.9-5.25-31.92,4.79-2.04,.31-10.41-9.4-5.37-4.85,9.04-3.66,7.5-3.03,1.77-14.27,1.21-9.72,9.17-4.66,1.96-1,1.24-.63,1.31-.66,1.39-.71,.15-.08,1.07-.54,.54-.27c29.89,6.92,50.15,20.34,50.15,35.74Z"/><path class="i" d="M170.04,31.88c0,4.19-3.75,8.01-9.92,10.88-3.63,1.69-8.08,3.06-13.1,3.98l-5.37-4.85,9.04-3.66,7.5-3.03,1.77-14.27c6.26,2.88,10.08,6.73,10.08,10.95Z"/><path class="d" d="M227.93,41.16c-.03,.34-.06,.69-.1,1.03l-.06-.18c-.31-1-.65-1.97-1.04-2.93-1.37-3.45-3.17-6.61-5.33-9.51-4.22-5.69-9.78-10.37-16.03-14.23-.02,0-.04-.02-.06-.03-6.31-3.88-13.32-6.91-20.37-9.27-.16-.06-.32-.11-.49-.16-2.69-.9-5.39-1.7-8.06-2.41l1.07-.54c29.22,6.82,51.69,20.4,50.47,38.23Z"/><path class="j" d="M211.75,34.69c0,8.22-6.93,15.74-18.46,21.6l-1.9-5.25-31.92,4.79-2.04,.31-10.41-9.4-5.37-4.85,9.04-3.66,7.5-3.03,1.77-14.27,1.21-9.72,9.17-4.66,1.96-1c6.5,1.62,12.41,3.61,17.57,5.92,13.56,6.06,21.88,14.23,21.88,23.22Z"/><path class="j" d="M214.01,35.2c0,8.79-7.55,16.83-20.03,23l-.69-1.91-1.9-5.25-31.92,4.79-2.04,.31-10.41-9.4-5.37-4.85,9.04-3.66,7.5-3.03,1.77-14.27,1.21-9.72,9.17-4.66,1.96-1,1.24-.63c9.79,2.47,18.27,5.78,24.91,9.71,9.79,5.77,15.56,12.88,15.56,20.57Z"/><path class="j" d="M216.84,35.62c0,9.42-8.4,18.02-22.18,24.48l-.68-1.9-.69-1.91-1.9-5.25-31.92,4.79-2.04,.31-10.41-9.4-5.37-4.85,9.04-3.66,7.5-3.03,1.77-14.27,1.21-9.72,9.17-4.66,1.96-1,1.24-.63,1.31-.66c13.67,3.44,24.89,8.46,32.28,14.47,6.2,5.05,9.71,10.8,9.71,16.89Z"/><path class="k" d="M219.93,36.1c0,10.11-9.32,19.3-24.52,26.07l-.75-2.07-.68-1.9-.69-1.91-1.9-5.25-31.92,4.79-2.04,.31-10.41-9.4-5.37-4.85,9.04-3.66,7.5-3.03,1.77-14.27,1.21-9.72,9.17-4.66,1.96-1,1.24-.63,1.31-.66,1.39-.71c2.85,.71,5.59,1.49,8.21,2.33,.17,.05,.33,.1,.49,.16,7.96,2.57,14.85,5.71,20.37,9.27,.02,.01,.04,.03,.06,.03,4.06,2.64,7.38,5.49,9.81,8.52,3.08,3.84,4.75,7.95,4.75,12.24Z"/></g><polygon points="160.12 42.76 157.69 49.84 159.47 55.83 157.43 56.14 147.02 46.74 141.65 41.89 150.69 38.23 150.74 40.48 161.17 39.7 160.12 42.76"/></g><g><g><path class="h" d="M188.86,91.69l1.55,4.28c-17.3,7.31-41.16,11.82-67.51,11.82-1.82,0-3.62-.02-5.41-.06l5.33-5.04,5.75-5.43,1.99-1.87,1.81-1.71,2.08-1.97,5.33-5.03-2.46-4.26-6.42-11.13-2.35-4.08,4.39-1.78,5.37,4.85,10.41,9.4,2.04-.31,31.92-4.79,1.9,5.25,.68,1.9,.69,1.91,.75,2.07,2.16,5.98Z"/><path class="f" d="M186.7,85.71l2.16,5.98c-17.25,6.83-40.45,11-65.96,11h-.08l5.75-5.43,1.99-1.87,1.81-1.71,2.08-1.97,5.33-5.03-2.46-4.26-6.42-11.13-2.35-4.08,4.39-1.78,5.37,4.85,10.41,9.4,2.04-.31,31.92-4.79,1.9,5.25,.68,1.9,.69,1.91,.75,2.07Z"/><path class="i" d="M138.31,70.28c-2.36,.44-4.83,.78-7.41,1.01l-2.35-4.08,4.39-1.78,5.37,4.85Z"/><path class="j" d="M134.45,91.71l5.33-5.03-2.46-4.26-6.42-11.13-2.35-4.08,4.39-1.78,5.37,4.85,10.41,9.4,2.04-.31,31.92-4.79,1.9,5.25c-12.37,6.29-30.05,10.66-50.13,11.88Z"/><path class="j" d="M134.45,91.71l5.33-5.03-2.46-4.26-6.42-11.13-2.35-4.08,4.39-1.78,5.37,4.85,10.41,9.4,2.04-.31,31.92-4.79,1.9,5.25,.68,1.9c-13.17,6.5-31.82,10.92-52.89,11.95l2.08-1.97Z"/><path class="j" d="M134.45,91.71l5.33-5.03-2.46-4.26-6.42-11.13-2.35-4.08,4.39-1.78,5.37,4.85,10.41,9.4,2.04-.31,31.92-4.79,1.9,5.25,.68,1.9,.69,1.91c-13.98,6.55-33.49,10.92-55.39,11.75l1.81-1.71,2.08-1.97Z"/><path class="k" d="M134.45,91.71l5.33-5.03-2.46-4.26-6.42-11.13-2.35-4.08,4.39-1.78,5.37,4.85,10.41,9.4,2.04-.31,31.92-4.79,1.9,5.25,.68,1.9,.69,1.91,.75,2.07c-14.85,6.62-35.32,10.94-58.13,11.55l1.99-1.87,1.81-1.71,2.08-1.97Z"/></g><polygon points="151.81 82.91 140.63 78.23 137.32 82.42 130.9 71.29 128.55 67.21 132.94 65.43 138.31 70.28 148.72 79.68 150.76 79.37 151.81 82.91"/></g><g><g><path class="h" d="M138.2,9.34l-9.17,4.66-1.21,9.72-1.77,14.27-7.51,3.04-9.03,3.65-7.97-7.2-8.18-1.79-30.01-6.58-9.56-2.09-8.69-13.96c15.44-4.53,34.17-7.18,54.37-7.18,13.79,0,26.89,1.23,38.73,3.46Z"/><path class="f" d="M144.09,6.34l-1.38,.71-1.3,.65-1.25,.64-1.96,1-9.17,4.66-1.21,9.72-1.77,14.27-7.51,3.04-9.03,3.65-7.97-7.2-8.18-1.79-30.01-6.58-9.56-2.09-8.69-13.96c-1.35,.39,.94-.53-.36-.1,1.21-.54-1.15,.27,.14-.25l-.54-.86-.53-.87-.07-.11-.63-1.01-.69-1.11-.23-.36C58.21,3.39,78.02,.44,99.47,.44c16.81,0,32.62,1.81,46.38,5.01l-.54,.27-1.07,.55"/><path class="i" d="M127.82,23.72l-1.77,14.27-7.51,3.04-9.03,3.65-7.97-7.2-8.18-1.79-30.01-6.58c5.38-6.22,19.52-10.66,36.12-10.66,11.23,0,21.33,2.03,28.35,5.27Z"/><path class="e" d="M83.7,1.46c-2.41,.29-4.83,.63-7.24,1.02-8.88,1.41-17.68,3.47-25.76,6.08-.02,0-.03,0-.04,0-2.35,.76-4.64,1.56-6.85,2.41l-.07-.11-.63-1.01-.69-1.11c11.94-3.69,26-6.25,41.28-7.29Z"/><path class="d" d="M119.16,1.61c9,.79,17.85,2.18,26.15,4.11l-1.07,.55c-9.32-2.48-18.21-3.89-25.08-4.66Z"/><path class="j" d="M140.16,8.34l-1.96,1-9.17,4.66-1.21,9.72-1.77,14.27-7.51,3.04-9.03,3.65-7.97-7.2-8.18-1.79-30.01-6.58-9.56-2.09-8.69-13.96c-1.35,.39-1.51,.17-.22-.35C59.19,7.09,78.38,3.66,99.47,3.66c14.85,0,28.77,1.7,40.69,4.68Z"/><path class="j" d="M141.41,7.7l-1.25,.64-1.96,1-9.17,4.66-1.21,9.72-1.77,14.27-7.51,3.04-9.03,3.65-7.97-7.2-8.18-1.79-30.01-6.58-9.56-2.09-8.69-13.96c-1.35,.39-1.51,.17-.22-.35l-.54-.86C58.94,6.23,78.26,2.81,99.47,2.81c15.31,0,29.65,1.79,41.94,4.89Z"/><path class="j" d="M142.71,7.05l-1.3,.65-1.25,.64-1.96,1-9.17,4.66-1.21,9.72-1.77,14.27-7.51,3.04-9.03,3.65-7.97-7.2-8.18-1.79-30.01-6.58-9.56-2.09-8.69-13.96c.15-.24,.12,.06-.22-.35l-.54-.86-.53-.87-.07-.11c2.21-.81,4.52-1.58,6.92-2.3,.01,0,.02,0,.04,0,13.82-4.12,30.63-6.54,48.77-6.54,15.79,0,30.57,1.83,43.24,5.03Z"/><path class="k" d="M144.09,6.34l-1.38,.71-1.3,.65-1.25,.64-1.96,1-9.17,4.66-1.21,9.72-1.77,14.27-7.51,3.04-9.03,3.65-7.97-7.2-8.18-1.79-30.01-6.58-9.56-2.09-8.69-13.96c0-.13,0-.1-.22-.35l-.54-.86-.53-.87-.07-.11-.63-1.01c9.61-3.41,20.94-5.96,33.35-7.38,7.33-.85,15.05-1.3,23.01-1.3,16.28,0,31.53,1.88,44.62,5.16Z"/></g><polygon points="118.54 41.03 109.51 44.68 101.54 37.48 93.36 35.69 92.93 29.44 104.51 36.03 118.3 29.44 118.54 41.03"/></g><g><g><path class="h" d="M113.86,86.39l-5.33,5.03-2.09,1.98-1.8,1.7-1.99,1.87-5.75,5.43-5.33,5.04C41.23,106.25,1.26,88.57,1.25,66.93c0,0-.01,0,0-.01,0-.55,.03-1.1,.08-1.64,.61-6.58,4.92-12.76,12.08-18.17,2.36-1.78,5.04-3.49,7.99-5.09,.02-.02,.04-.04,.06-.04,2.68-1.46,5.59-2.83,8.71-4.12,2.7-1.11,5.55-2.16,8.55-3.14,1.27-.41,2.57-.82,3.89-1.2l8.69,13.96,9.56,2.09,30.01,6.58,8.18,1.79,7.97,7.2-4.4,1.78,2.35,4.08,6.43,11.13,2.46,4.26Z"/><path class="f" d="M41.32,31.44l.53,.87,.55,.87,.21,.34,8.69,13.96,9.56,2.09,30.01,6.58,8.18,1.79,7.97,7.2-4.4,1.78,2.35,4.08,6.43,11.13,2.46,4.26-5.33,5.03-2.09,1.98-1.8,1.7-1.99,1.87-5.75,5.43c-49.05-.02-89.53-15.47-95.65-35.47,0,0-.01,0,0-.01-.54-1.72-.81-3.48-.81-5.27,0-13.45,15.44-25.38,39.26-32.8l.23,.36,.69,1.11,.63,1.01"/><path class="i" d="M102.62,66.92l2.35,4.08c-2.58,.23-5.25,.35-7.99,.35s-5.23-.11-7.73-.33c-17.52-1.51-30.7-8.05-30.7-15.89,0-1.95,.82-3.83,2.31-5.56l30.01,6.58,8.18,1.79,7.97,7.2-4.4,1.78Z"/><path class="e" d="M41.32,31.44c-7.45,2.86-14.03,6.22-19.15,9.99-.12,.09-.24,.18-.36,.27-.12,.1-.24,.19-.35,.28-.02,0-.04,.02-.06,.04-15.63,12-16.37,28.04,16.56,45.38,7.68,4.05,17.21,8.16,28.81,12.32C31.23,94.82,4.87,81.44,1.33,65.28c-.27-1.22-.41-2.47-.41-3.72,0-13.27,15.35-25.04,39.01-32.35l.69,1.11,.63,1.01"/><path class="d" d="M193.29,64.41c-.03,.34-.06,.69-.1,1.03l-.06-.18c.07-.28,.12-.57,.16-.85Z"/><path class="j" d="M113.86,86.39l-5.33,5.03c-3.77,.23-7.63,.35-11.55,.35-44.26,0-80.14-15.14-80.14-33.83,0-8.99,8.32-17.16,21.88-23.22,1.19-.53,2.41-1.05,3.68-1.54l.21,.34,8.69,13.96,9.56,2.09,30.01,6.58,8.18,1.79,7.97,7.2-4.4,1.78,2.35,4.08,6.43,11.13,2.46,4.26Z"/><path class="j" d="M113.86,86.39l-5.33,5.03-2.09,1.98c-3.1,.15-6.26,.23-9.46,.23-45.51,0-82.39-15.75-82.39-35.18,0-7.69,5.78-14.81,15.58-20.59,3.43-2.02,7.34-3.88,11.68-5.55l.55,.87,.21,.34,8.69,13.96,9.56,2.09,30.01,6.58,8.18,1.79,7.97,7.2-4.4,1.78,2.35,4.08,6.43,11.13,2.46,4.26Z"/><path class="j" d="M41.32,31.44l.53,.87,.55,.87,.21,.34,8.69,13.96,9.56,2.09,30.01,6.58,8.18,1.79,7.97,7.2-4.4,1.78,2.35,4.08,6.43,11.13,2.46,4.26-5.33,5.03-2.09,1.98-1.8,1.7c-2.52,.1-5.08,.15-7.66,.15-47.07,0-85.23-16.29-85.23-36.38,0-6.09,3.51-11.84,9.71-16.89,.11-.09,.23-.18,.35-.28,.12-.09,.24-.18,.36-.27,4.92-3.84,11.4-7.26,19.08-10.1"/><path class="k" d="M41.32,31.44l.53,.87,.55,.87,.21,.34,8.69,13.96,9.56,2.09,30.01,6.58,8.18,1.79,7.97,7.2-4.4,1.78,2.35,4.08,6.43,11.13,2.46,4.26-5.33,5.03-2.09,1.98-1.8,1.7-1.99,1.87c-1.87,.05-3.77,.08-5.67,.08-22.69,0-43.38-3.65-59.02-9.65-17.99-6.91-29.3-16.92-29.3-28.05,0-4.29,1.67-8.4,4.75-12.24,5.32-6.62,14.84-12.42,27.21-16.79l.63,1.01"/></g><polygon points="111.4 82.13 108.03 86.39 106.87 77.11 96.1 85.2 95.01 76.28 86.38 75.99 89.25 71.02 91.31 67.44 82.32 66.1 91.17 60.55 90.87 56.15 99.05 57.94 107.02 65.14 102.62 66.92 104.97 71 111.4 82.13"/></g></g></g></g></svg>