<?xml version="1.0" encoding="UTF-8"?><svg xmlns="http://www.w3.org/2000/svg" viewBox="0 0 217.1 124.93"><defs><style>.d{mix-blend-mode:overlay;}.d,.e,.f{fill:#4d8a62;}.g{isolation:isolate;}.h{fill:#264c29;stroke-width:.58px;}.h,.f,.i,.j,.k{stroke:#000;stroke-miterlimit:10;}.e{mix-blend-mode:screen;opacity:.45;}.f{stroke-width:.87px;}.i{stroke-width:.29px;}.i,.j{fill:none;}.j{stroke-width:.3px;}.k{fill:#f9061d;stroke-width:1.16px;}</style></defs><g class="g"><g id="a"/><g id="b"><g id="c"><g><g><path class="h" d="M89.96,65.47l3.22,7.77-11.87,3.02-12.35,3.14-4.88,1.24-3.08,13.85h-.01l-4.75,.86-4.2,.76-4.49,.8-2.4,.44-4.12,.74,.4,2.66,.09,.57,.78,5.23C17.49,99.22,1.26,87.04,1.25,73.25c0,0-.01,0,0-.01,0-.5,.02-1,.07-1.5,.56-6.64,4.89-12.86,12.09-18.31,2.38-1.8,5.07-3.51,8.04-5.13l.12-.06c2.64-1.43,5.5-2.78,8.55-4.04,1.4-.58,2.84-1.14,4.32-1.68,1.37-.51-.78,.52,.66,.05-1.39,.62,.83-.24-.44,.42l2.1,4.46,11.32,3.04,14.35,3.84,13.39,3.59,14.14,7.55Z"/><path class="f" d="M89.96,65.47l3.22,7.77-11.87,3.02-12.35,3.14-4.88,1.24-3.08,13.85h-.01l-4.75,.86-4.2,.76-4.49,.8-2.4,.44-4.12,.74,.4,2.66,.09,.57C19.9,94.91,4.8,84.85,1.25,73.25c0,0-.01,0,0-.01-.54-1.72-.81-3.48-.81-5.27,0-11.98,12.26-22.76,31.76-30.21l.19,.4,.7,1.47,.56,1.2,.1,.21,.44,.94,.25,.54c1.37-.51-.78,.52,.66,.05-1.39,.62,.83-.24-.44,.42l2.1,4.46,11.32,3.04,14.35,3.84,13.39,3.59,14.14,7.55Z"/><path class="e" d="M41.03,98.09l.4,2.66C19.22,94.16,4,83.71,1.32,71.74c-.29-1.25-.43-2.52-.43-3.8,0-11.81,12.15-22.43,31.5-29.78l.7,1.47,.56,1.2,.1,.21c-4.63,2.18-8.76,4.59-12.18,7.2-.17,.13-.34,.26-.51,.38-.04,.03-.08,.07-.12,.1-15.13,11.91-15.63,27.71,16.47,44.78,2.39,1.28,4.97,2.56,7.74,3.85l-4.12,.74Z"/><path class="k" d="M93.18,73.24l-11.87,3.02c-8.62-1.62-15.56-4.55-19.43-8.17-.02-.04-.05-.06-.08-.09-2.1-2-3.26-4.22-3.26-6.55,0-2.55,1.4-4.97,3.89-7.12l13.39,3.59,14.14,7.55,3.22,7.77Z"/><path class="i" d="M89.96,65.47l3.22,7.77-11.87,3.02-12.35,3.14-4.88,1.24-3.08,13.85h-.01c-26.19-5.56-44.15-17.01-44.15-30.23,0-8.06,6.67-15.46,17.82-21.27l2.1,4.46,11.32,3.04,14.35,3.84,13.39,3.59,14.14,7.55Z"/><path class="i" d="M89.96,65.47l3.22,7.77-11.87,3.02-12.35,3.14-4.88,1.24-3.08,13.85h-.01l-4.75,.86c-24.88-6.05-41.66-17.48-41.66-30.58,0-7.68,5.76-14.79,15.54-20.57,1.29-.76,2.64-1.5,4.07-2.22l.25,.54c1.37-.51-.78,.52,.66,.05-1.39,.62,.83-.24-.44,.42l2.1,4.46,11.32,3.04,14.35,3.84,13.39,3.59,14.14,7.55Z"/><path class="i" d="M89.96,65.47l3.22,7.77-11.87,3.02-12.35,3.14-4.88,1.24-3.08,13.85h-.01l-4.75,.86-4.2,.76c-24.2-6.42-40.3-17.87-40.3-30.93,0-5.93,3.32-11.52,9.2-16.46,.04-.03,.08-.07,.12-.1,.13-.11,.26-.21,.39-.32,3.33-2.71,7.44-5.21,12.2-7.47l.1,.21,.44,.94,.25,.54c1.37-.51-.78,.52,.66,.05-1.39,.62,.83-.24-.44,.42l2.1,4.46,11.32,3.04,14.35,3.84,13.39,3.59,14.14,7.55Z"/><path class="j" d="M89.96,65.47l3.22,7.77-11.87,3.02-12.35,3.14-4.88,1.24-3.08,13.85h-.01l-4.75,.86-4.2,.76-4.49,.8c-3.58-1.02-6.96-2.17-10.14-3.41-17.67-6.89-28.75-16.81-28.75-27.83,0-4.29,1.67-8.4,4.75-12.24,4.18-5.21,10.96-9.9,19.68-13.8l.56,1.2,.1,.21,.44,.94,.25,.54c1.37-.51-.78,.52,.66,.05-1.39,.62,.83-.24-.44,.42l2.1,4.46,11.32,3.04,14.35,3.84,13.39,3.59,14.14,7.55Z"/></g><polygon points="89.96 65.47 93.18 73.24 81.31 76.26 68.96 79.4 69.41 76.82 53.58 80.61 61.88 68.09 61.96 67.97 61.8 68 39.54 72.69 57.92 60.9 48.08 50.49 62.43 54.33 75.82 57.92 89.96 65.47"/></g><g><g><path class="h" d="M216.81,84.07c0,2.88-.71,5.69-2.07,8.4-9.13,18.37-47.59,32.17-93.66,32.17-20.32,0-39.17-2.68-54.67-7.27l-.78-5.21-.09-.59-.4-2.66,4.13-.74c-2.77-1.29,2.54,.96,.14-.32,3.18,1.25-1.32-1.14,2.26-.11l4.49-.81,4.19-.75,4.76-.86,3.08-13.85,4.88-1.24,12.35-3.15,11.87-3.02-3.22-7.77,20.83,11.12c4.29-.7,8.21-1.71,11.59-2.97l-6.61,5.63,9.81,5.23,32.45-13.04,14.22,4.46,2.31,.72,2.67,.84,2.92,.91,8.33,2.61c1.98-2.48,3.41-5.06,4.22-7.73Z"/><path class="f" d="M212.59,91.8c-12.86,16.13-48.97,27.75-91.51,27.75-20.63,0-39.76-2.73-55.45-7.39l-.09-.59-.4-2.66,4.13-.74c-2.77-1.29,2.54,.96,.14-.32,3.18,1.25-1.32-1.14,2.26-.11l4.49-.81,4.19-.75,4.76-.86,3.08-13.85,4.88-1.24,12.35-3.15,11.87-3.02-3.22-7.77,20.83,11.12c4.29-.7,8.21-1.71,11.59-2.97l-6.61,5.63,9.81,5.23,32.45-13.04,14.22,4.46,2.31,.72,2.67,.84,2.92,.91,8.33,2.61Z"/><path class="e" d="M90.85,116.92c-9.12-1.26-17.63-3.07-25.31-5.35l-.4-2.66,4.13-.74c6.21,2.89,13.38,5.81,21.58,8.75Z"/><path class="k" d="M134.9,87.41c-4.29,.7-8.95,1.08-13.82,1.08-5.58,0-10.88-.5-15.66-1.41l11.87-3.02-3.22-7.77,20.83,11.12Z"/><path class="i" d="M196.36,86.72c-11.24,12.95-40.7,22.19-75.28,22.19-12.94,0-25.16-1.3-35.97-3.59l3.08-13.85,4.88-1.24,12.35-3.15,11.87-3.02-3.22-7.77,20.83,11.12c4.29-.7,8.21-1.71,11.59-2.97l-6.61,5.63,9.81,5.23,32.45-13.04,14.22,4.46Z"/><path class="i" d="M198.67,87.44c-11.39,13.6-41.82,23.33-77.59,23.33-14.82,0-28.72-1.67-40.73-4.59l4.76-.86,3.08-13.85,4.88-1.24,12.35-3.15,11.87-3.02-3.22-7.77,20.83,11.12c4.29-.7,8.21-1.71,11.59-2.97l-6.61,5.63,9.81,5.23,32.45-13.04,14.22,4.46,2.31,.72Z"/><path class="i" d="M201.34,88.28c-11.79,14.05-43.28,24.11-80.26,24.11-16.48,0-31.88-2-44.92-5.46l4.19-.75,4.76-.86,3.08-13.85,4.88-1.24,12.35-3.15,11.87-3.02-3.22-7.77,20.83,11.12c4.29-.7,8.21-1.71,11.59-2.97l-6.61,5.63,9.81,5.23,32.45-13.04,14.22,4.46,2.31,.72,2.67,.84Z"/><path class="j" d="M204.26,89.19c-12.21,14.57-44.84,25-83.18,25-18.31,0-35.31-2.38-49.41-6.45l4.49-.81,4.19-.75,4.76-.86,3.08-13.85,4.88-1.24,12.35-3.15,11.87-3.02-3.22-7.77,20.83,11.12c4.29-.7,8.21-1.71,11.59-2.97l-6.61,5.63,9.81,5.23,32.45-13.04,14.22,4.46,2.31,.72,2.67,.84,2.92,.91Z"/></g><path d="M139.48,90.41l2.5,10.48-15.01-6.39-14.81,9.7v-13.02l-20.68,8.17,1.59-9.12,12.35-3.15,11.87-3.02-3.22-7.77,20.83,11.12c4.29-.7,8.21-1.71,11.59-2.97l-6.61,5.63-.4,.34Z"/></g><g><g><path class="h" d="M206.1,62.35h0c0,2.89-.71,5.7-2.06,8.42l-2.16-.68-8.34-2.61-2.91-.91-2.67-.84-2.31-.73-14.22-4.45-32.45,13.04-9.81-5.24-4.98-2.65-20.83-11.12-2.91-7.04,13.69-4.17,19.14-5.83,5.7-1.74,2.32-11.87c9.94,1.44,19.14,3.55,27.3,6.21,3,.98,5.86,2.03,8.56,3.15,3.13,1.28,6.04,2.66,8.73,4.12,2.96,1.61,5.64,3.31,8,5.1,3.12,2.35,5.7,4.85,7.67,7.47,1.7,2.24,2.94,4.56,3.69,6.95,.56,1.77,.85,3.58,.85,5.42Z"/><path class="f" d="M142.34,18.62c37.61,5.57,64.57,20.69,64.57,38.46,0,1.16-.12,2.31-.35,3.45v.02c-.12,.61-.27,1.2-.46,1.8h0c-.81,2.68-2.24,5.26-4.22,7.74l-8.34-2.61-2.91-.91-2.67-.84-2.31-.73-14.22-4.45-32.45,13.04-9.81-5.24-4.98-2.65-20.83-11.12-2.91-7.04,13.69-4.17,19.14-5.83,5.7-1.74,2.32-11.87,.33-1.71,.17-.86,.17-.87,.18-.9,.12-.62,.06-.32"/><path class="k" d="M148.8,50.56c0,4.85-5.04,9.2-13.03,12.17-3.38,1.26-7.29,2.27-11.58,2.97l-20.83-11.12-2.91-7.04,13.69-4.17,19.14-5.83c9.42,2.95,15.52,7.69,15.52,13.02Z"/><path class="i" d="M190.5,53.38c0,4.08-1.71,7.99-4.85,11.62l-14.22-4.45-32.45,13.04-9.81-5.24-4.98-2.65-20.83-11.12-2.91-7.04,13.69-4.17,19.14-5.83,5.7-1.74,2.32-11.87,.33-1.71c10.26,1.84,19.43,4.55,26.97,7.92,13.57,6.06,21.9,14.23,21.9,23.24Z"/><path class="i" d="M192.76,53.88c0,4.16-1.69,8.15-4.8,11.85l-2.31-.73-14.22-4.45-32.45,13.04-9.81-5.24-4.98-2.65-20.83-11.12-2.91-7.04,13.69-4.17,19.14-5.83,5.7-1.74,2.32-11.87,.33-1.71,.17-.86c14.23,2.51,26.45,6.67,35.36,11.93,9.82,5.78,15.6,12.9,15.6,20.59Z"/><path class="i" d="M195.6,54.3c0,4.31-1.75,8.44-4.97,12.27l-2.67-.84-2.31-.73-14.22-4.45-32.45,13.04-9.81-5.24-4.98-2.65-20.83-11.12-2.91-7.04,13.69-4.17,19.14-5.83,5.7-1.74,2.32-11.87,.33-1.71,.17-.86,.17-.87c18.94,3.23,34.52,9.28,43.92,16.92,6.2,5.05,9.71,10.8,9.71,16.89Z"/><path class="j" d="M198.68,54.78c0,4.46-1.81,8.73-5.14,12.7l-2.91-.91-2.67-.84-2.31-.73-14.22-4.45-32.45,13.04-9.81-5.24-4.98-2.65-20.83-11.12-2.91-7.04,13.69-4.17,19.14-5.83,5.7-1.74,2.32-11.87,.33-1.71,.17-.86,.17-.87,.18-.9c24.21,3.99,43.27,12.41,51.74,22.92,3.11,3.85,4.79,7.97,4.79,12.27Z"/><path class="d" d="M206.56,60.53c-.39-1.24-.82-2.44-1.31-3.6-1.01-2.46-2.25-4.78-3.69-6.95-12.41-18.88-39.15-27.35-59.29-31.01l.06-.32c36.21,5.48,66.72,20.79,64.23,41.88Z"/></g><polygon points="138.98 60 135.77 62.73 129.17 68.35 124.19 65.7 103.36 54.58 100.45 47.54 114.14 43.37 114.98 44.96 131.83 41.13 129.27 55.77 138.98 60"/></g><g><g><path class="h" d="M93.47,5.88c10.82,0,21.23,.76,30.93,2.16l-2.32,11.86-5.7,1.74-19.14,5.83-13.69,4.18,2.91,7.04-14.14-7.55-13.4-3.59-14.33-3.84-11.34-3.04-2.1-4.46-.22-.47c1.36-.5,2.76-.98,4.19-1.45,16.15-5.28,36.38-8.41,58.35-8.41Z"/><path class="f" d="M116.87,1.65c2.91,.3,5.77,.66,8.57,1.08v.03l-.07,.32-.12,.61-.18,.91-.17,.86-.17,.86-.33,1.72-2.32,11.86-5.7,1.74-19.14,5.83-13.69,4.18,2.91,7.04-14.14-7.55-13.4-3.59-14.33-3.84-11.34-3.04-2.1-4.46-.22-.47c-1.48,.54,1.39-.24,0,.34,1.28-.76-1.67-.16-.25-.87l-.45-.95-.09-.2-.56-1.21-.69-1.47-.2-.41C45.81,4.43,68.54,.44,93.47,.44c6.74,0,13.32,.29,19.67,.85,.62,.05,1.24,.11,1.87,.17,.62,.06,1.24,.12,1.86,.19Z"/><path class="e" d="M77.68,1.51c-2.07,.25-4.14,.53-6.21,.85-.03,0-.05,0-.07,.01-8.57,1.33-17.09,3.25-24.98,5.69-.09,.03-.18,.05-.26,.08-5.72,1.78-11.1,3.83-15.93,6.12l-.09-.2-.56-1.21-.69-1.47C42.26,6.3,59.07,2.79,77.68,1.51Z"/><path class="k" d="M97.24,27.47l-13.69,4.18,2.91,7.04-14.14-7.55-13.4-3.59c3.86-3.33,10.34-6.02,18.31-7.59,4.29-.85,9.03-1.37,14.01-1.49,.42-.01,.83-.02,1.25-.02,.32-.01,.65-.01,.98-.01,8.59,0,16.52,1.19,22.91,3.2l-19.14,5.83Z"/><path class="i" d="M124.73,6.32l-.33,1.72-2.32,11.86-5.7,1.74-19.14,5.83-13.69,4.18,2.91,7.04-14.14-7.55-13.4-3.59-14.33-3.84-11.34-3.04-2.1-4.46c1.26-.66,2.59-1.3,3.97-1.92C49.74,7.74,70.47,3.65,93.47,3.65c11.09,0,21.66,.95,31.26,2.67Z"/><path class="i" d="M124.9,5.46l-.17,.86-.33,1.72-2.32,11.86-5.7,1.74-19.14,5.83-13.69,4.18,2.91,7.04-14.14-7.55-13.4-3.59-14.33-3.84-11.34-3.04-2.1-4.46-.22-.47c-1.48,.54,1.39-.24,0,.34,1.28-.76-1.67-.16-.25-.87C45.79,7.62,68.32,2.81,93.47,2.81c11.13,0,21.75,.94,31.43,2.65Z"/><path class="i" d="M125.07,4.6l-.17,.86-.17,.86-.33,1.72-2.32,11.86-5.7,1.74-19.14,5.83-13.69,4.18,2.91,7.04-14.14-7.55-13.4-3.59-14.33-3.84-11.34-3.04-2.1-4.46-.22-.47c-1.48,.54,1.39-.24,0,.34,1.28-.76-1.67-.16-.25-.87l-.45-.95-.09-.2c4.74-2.25,10.12-4.24,16.02-5.92,.08-.03,.17-.05,.26-.08,13.48-3.82,29.66-6.04,47.05-6.04,11.17,0,21.83,.92,31.6,2.58Z"/><path class="j" d="M125.25,3.69l-.18,.91-.17,.86-.17,.86-.33,1.72-2.32,11.86-5.7,1.74-19.14,5.83-13.69,4.18,2.91,7.04-14.14-7.55-13.4-3.59-14.33-3.84-11.34-3.04-2.1-4.46-.22-.47c-1.48,.54,1.39-.24,0,.34,1.28-.76-1.67-.16-.25-.87l-.45-.95-.09-.2-.56-1.21c11.2-5.01,25.61-8.7,41.82-10.48,.02-.01,.04-.01,.07-.01,7.03-.77,14.4-1.18,22-1.18,11.2,0,21.92,.89,31.78,2.51Z"/><path class="d" d="M116.87,1.65c2.88,.31,5.74,.68,8.56,1.11l-.06,.32c-4.48-.81-8.63-1.39-12.23-1.79,.62,.05,1.24,.11,1.87,.17,.62,.06,1.24,.12,1.86,.19Z"/></g><polygon points="83.3 31.65 86.21 38.69 72.07 31.14 58.67 27.55 44.34 23.71 38.85 17.9 61.57 22.43 76.38 15.79 76.98 19.96 77.88 26.25 90.99 18.47 91.95 17.9 92.24 18.45 96.99 27.47 83.3 31.65"/></g></g></g></g></svg>