<?xml version="1.0" encoding="UTF-8"?><svg xmlns="http://www.w3.org/2000/svg" viewBox="0 0 156.03 273.75"><defs><style>.e,.f,.g{fill:#e5ae13;}.h{fill:#fff;}.f,.i,.j,.k{mix-blend-mode:multiply;}.l{isolation:isolate;}.g,.m{mix-blend-mode:screen;}.n,.i{opacity:.3;}.m,.o,.k{fill:#4d8a62;}.j{opacity:.39;}</style></defs><g class="l"><g id="a"/><g id="b"><g id="c"><g><path id="d" class="h" d="M28.66,198.07c.58-1.9,8.85-33.02,10.89-36.77-13.93-12.2-73.67-72.2-2.38-59.23,0,0,33.02-37.45,17.02-98.04,0,0,24.17,19.4,29.28,35.4,0,0,35.74,7.66,34.89,62.64,0,0,5.62-18.04,5.62-22.13v-14.81s5.96,1.02,8.17-1.02c2.21-2.04,7.83,.68,7.83,.68,0,0,2.72,3.06,6.47,2.89,3.74-.17,4.6,3.4,4.6,3.4,0,0,2.72,4.43,4.6,2.21s-2.55,19.74-26.04,30.98l-8.51,4.6s4.17,46.38-41.28,76.77c0,0-12.26,13.02-15.83,23.74,0,0,9.45,45.19-9.96,61.02,0,0-13.59,6.1-32.43,1.53,0,0-18.89-3.83-18.89-26.3s19.15-34.72,19.15-34.72c0,0,4.59-5.6,6.81-12.85Z"/><path d="M90.67,92.03C91.32,56.55,59.28-.31,54.2,4.03c16,60.6-17.02,98.04-17.02,98.04l53.49-10.04Z"/><path class="e" d="M118.37,102.07s5.62-18.04,5.62-22.13v-14.81s5.96,1.02,8.17-1.02c2.21-2.04,7.83,.68,7.83,.68,0,0,2.72,3.06,6.47,2.89,3.74-.17,4.6,3.4,4.6,3.4,0,0,2.72,4.43,4.6,2.21s-2.55,19.74-26.04,30.98l-8.51,4.6"/><g class="i"/><path class="e" d="M59.96,244.54l49.85,29.1s-.98-13.89-41.29-44.16"/><path class="g" d="M102.46,260.51c-6.88-8.48-21.53-23.43-36.18-31.19l-1.78,7.17c12.03,4.29,24.71,10.52,37.96,24.02Z"/><g><path class="e" d="M65.42,216.91l48.85-10.33s-2.81,29.33-49.63,29.33"/><path class="f" d="M64.65,230.38l.48-13.41,49.15-10.39c-17.78,12.68-42.81,21.39-49.63,23.8Z"/></g><path class="o" d="M21.6,271.95s-18.89-3.83-18.89-26.3,19.15-34.72,19.15-34.72c0,0,4.59-5.6,6.81-12.85l35.32,11.32s9.45,45.19-9.96,61.02c-9.52,4.31-20.6,4.03-32.43,1.53,0,0-18.89-3.83-18.89-26.3s19.15-34.72,19.15-34.72"/><path d="M37.17,102.1c-13.96-16.25,6.3-57.15-2.03-102.1-1.76,5.78-81.01,103.66,4.41,161.31C-9,110.81,28.3,50.66,32.63,26.16c3.78,26.94-12,68.08,4.54,75.94Z"/><path d="M67.86,201.33c.86-1.42,1.77-2.82,2.7-4.16,4.46-6.43,9.25-11.52,9.25-11.52-16.72-12.64-24.13-15.7-40.26-24.34-.97,1.79-3.37,9.81-5.67,17.92"/><path class="h" d="M19.26,254.08c0-7.68,7.49-13.91,16.72-13.91,22.18,.71,22.17,27.1,0,27.81-9.24,0-16.72-6.23-16.72-13.91Z"/><ellipse cx="34.49" cy="254.08" rx="4.51" ry="6.43"/><path class="f" d="M129.43,78.33c.09-.26,1.99-13.72,1.99-13.72l3.2-1.25-5.19,14.96Z"/><path class="f" d="M134.62,79.95l6.53-14.1s1.31,1.11,2.63,1.44-9.16,12.66-9.16,12.66Z"/><path class="f" d="M149.65,69.35s.79,1.66,1.3,1.9-11.44,15.24-11.44,15.24l10.14-17.14Z"/><path class="h" d="M39.56,161.31C-9.43,113.41,27.85,52.91,32.63,26.16c4.74,20.12-10.94,63.5,4.54,75.94"/><path class="j" d="M90.67,92.03C64.4,100.64-3.96,172.42,32.63,26.16c7.89,23.25-13.13,57.98,4.54,75.91,10.26-5.95,31.59-7.53,53.49-10.04Z"/><path d="M52.35,256.58c-9.84,2.09-23.72,1.14-33.1-2.51-2.04,14.71,28.27,22.18,33.1,2.51Z"/><path class="m" d="M32.02,199.15l-6.79,14.7s-23.42,15.07-19.02,46.4c-2.07-3.67-3.5-8.43-3.5-14.6,0-22.47,19.15-34.72,19.15-34.72,0,0,4.59-5.6,6.81-12.85l3.35,1.07Z"/><path class="k" d="M58.18,207.53l5.8,1.86s9.45,45.19-9.96,61.02l-1.05,.46c12.52-24.07,5.74-60.68,5.21-63.34Z"/><path class="f" d="M121.1,108.88l-.62-1.54c20.95-10.83,28.25-27.41,30.71-36.02,.59,.88,2.83,3.88,4.44,1.98,1.87-2.21-2.55,19.75-26.03,30.99l-8.51,4.6Z"/><path class="n" d="M99.05,168.34c9.3-24.35,23.84-71.83,7.08-95.89-28.75-32.81-27.79-36.98-28.75-44.63,2.62,3.72,4.78,7.53,5.94,11.17,0,0,35.74,7.66,34.89,62.64l2.72,6.81s2.85,31.74-21.89,59.9Z"/></g></g></g></g></svg>