<?xml version="1.0" encoding="UTF-8"?><svg xmlns="http://www.w3.org/2000/svg" viewBox="0 0 324.32 221.75"><defs><style>.e,.f,.g{fill:#e5ae13;}.h{fill:#fff;}.f,.i,.j{mix-blend-mode:multiply;}.k{isolation:isolate;}.g,.l{mix-blend-mode:screen;}.m{opacity:.3;}.l,.n,.j{fill:#4d8a62;}.i{opacity:.39;}</style></defs><g class="k"><g id="a"/><g id="b"><g id="c"><g><path id="d" class="h" d="M130.04,94.39c1.9,.58,33.02,8.85,36.77,10.89,0,0-1.7-62.64-36.77-105.19,0,0,77.96-6.81,96,102.81,0,0,37.45,33.02,98.04,17.02,0,0-19.4,24.17-35.4,29.28,0,0-7.66,35.74-62.64,34.89,0,0,18.04,5.62,22.13,5.62h14.81s-1.02,5.96,1.02,8.17-.68,7.83-.68,7.83c0,0-3.06,2.72-2.89,6.47,.17,3.74-3.4,4.6-3.4,4.6,0,0-4.43,2.72-2.21,4.6s-19.74-2.55-30.98-26.04l-4.6-8.51s-46.38,4.17-76.77-41.28c0,0-13.02-12.26-23.74-15.83,0,0-45.19,9.45-61.02-9.96L0,118.35s6.13-26.17,56.17-31.02c0,0,3.83-18.89,26.3-18.89s34.72,19.15,34.72,19.15c0,0,5.6,4.59,12.85,6.81Z"/><path class="i" d="M236.09,156.39S211.55,43.79,152.32,7.02c0,0,40.6,8.92,54.72,45.62,8,18.7,14.96,36.18,19,50.26,5.95,10.26,7.53,31.59,10.04,53.49Z"/><path d="M236.09,156.39c35.48,.66,92.34-31.39,88-36.47-60.6,16-98.04-17.02-98.04-17.02l10.04,53.49Z"/><path class="e" d="M226.04,184.09s18.04,5.62,22.13,5.62h14.81s-1.02,5.96,1.02,8.17-.68,7.83-.68,7.83c0,0-3.06,2.72-2.89,6.47,.17,3.74-3.4,4.6-3.4,4.6,0,0-4.43,2.72-2.21,4.6s-19.74-2.55-30.98-26.04l-4.6-8.51"/><path class="n" d="M56.17,87.32s3.83-18.89,26.3-18.89,34.72,19.15,34.72,19.15c0,0,5.6,4.59,12.85,6.81l-11.32,35.32s-45.19,9.45-61.02-9.96l-1.53-32.43s3.83-18.89,26.3-18.89,34.72,19.15,34.72,19.15"/><path class="e" d="M57.7,119.75L0,118.35s6.13-26.17,56.17-31.02"/><path d="M166.81,105.28S165.11,42.64,130.04,.09c0,0,77.85-7.03,96,102.81-7.6-21.33-30.07-89.92-73.87-91.91,22.41,32.89,21.45,63.83,14.64,94.3Z"/><path d="M126.79,133.59c1.42,.86,2.82,1.77,4.16,2.7,6.43,4.46,11.52,9.25,11.52,9.25,12.64-16.72,15.7-24.13,24.34-40.26-1.79-.97-9.81-3.37-17.92-5.67"/><path class="h" d="M98.81,93.01c0,10.96-7.49,19.85-16.72,19.85-22.18-1.02-22.17-38.69,0-39.7,9.24,0,16.72,8.89,16.72,19.85Z"/><ellipse cx="75.03" cy="85.11" rx="4.51" ry="6.43"/><path class="f" d="M249.79,195.15c.26,.09,13.72,1.99,13.72,1.99l1.25,3.2-14.96-5.19Z"/><path class="f" d="M248.17,200.35l14.1,6.53s-1.11,1.31-1.44,2.63-12.66-9.16-12.66-9.16Z"/><path class="f" d="M258.77,215.38s-1.66,.79-1.9,1.3-15.24-11.44-15.24-11.44l17.14,10.14Z"/><path class="g" d="M12.61,101.9c10.63-8.4,26.8-12.95,43.56-14.58l.21,4.42c-12.78,0-26.75,1.88-43.77,10.15Z"/><path class="f" d="M56.96,104.12l.74,15.63L.33,118.35c19.97-8.83,49.46-13.25,56.63-14.24Z"/><path class="m" d="M159.33,164.93c24.35,9.3,71.83,23.84,95.89,7.08,32.81-28.75,36.98-27.79,44.63-28.75-3.72,2.62-7.53,4.78-11.17,5.94,0,0-7.66,35.74-62.64,34.89l-6.81,2.72s-31.74,2.85-59.9-21.89Z"/><path class="l" d="M128.97,97.74l-14.7-6.79s-15.07-23.42-46.4-19.02c3.67-2.07,8.43-3.5,14.6-3.5,22.47,0,34.72,19.15,34.72,19.15,0,0,5.6,4.59,12.85,6.81l-1.07,3.35Z"/><path class="j" d="M120.58,123.9l-1.86,5.8s-45.19,9.45-61.02-9.96l-.04-.84c24.07,12.52,60.26,5.53,62.92,4.99Z"/><path class="f" d="M219.23,186.81l1.73-.65c10.65,21.04,27.3,28.24,35.88,30.78-.88,.59-3.84,2.73-2.01,4.43,2.03,1.89-20.36-3.14-31.05-26.13l-4.55-8.43Z"/></g></g></g></g></svg>