<?xml version="1.0" encoding="UTF-8"?><svg xmlns="http://www.w3.org/2000/svg" width="1920" height="1080" viewBox="0 0 1920 1080"><defs><style>.g,.h,.i{fill:#e5ae13;}.j,.k,.l,.m{fill:#fff;}.h,.n,.o,.p,.q,.r{mix-blend-mode:multiply;}.k,.s,.t,.l,.u,.m{stroke:#000;stroke-miterlimit:10;}.k,.s,.t,.u,.m{stroke-linecap:round;}.k,.t{stroke-width:.93px;}.v{fill:#b2b2b2;}.w{isolation:isolate;}.x{opacity:.2;}.y{fill:#634428;}.i,.a`{mix-blend-mode:screen;}.aa{fill:#281909;}.ab{fill:#37230e;}.s,.t,.ac,.u{fill:none;}.s,.l{stroke-width:.89px;}.n,.ad{fill:#c79a54;}.ae{fill:#ca9911;}.af,.o{opacity:.3;}.a`,.ag,.q{fill:#4d8a62;}.p{opacity:.39;}.ah{fill:#8e6131;}.u{stroke-width:.89px;}.ai{fill:#ccc;}.aj{fill:#7a7a7a;}.r{fill:#d8d8d8;}.m{stroke-width:.93px;}.ak{fill:#eee;}.al{mix-blend-mode:darken;}.am{fill:#ffca91;}</style></defs><g class="w"><g id="a"><path class="y" d="M1367.2,591.6c-94.7-121.8-103.8-229,0-316.8l-26-22.5c-82.9,0-144.7-50.6-110.3-144l-11.2-20.3s-213-34.4-255.9-41v-1.1c-.1,0-1.5,.2-3.7,.5-2.3-.3-3.6-.5-3.7-.5v1.1c-42.9,6.7-255.9,41-255.9,41l-11.2,20.4c34.4,93.4-27.4,144-110.3,144l-26,22.5c103.8,87.8,94.7,195,0,316.8-60.4,81.5-42.5,202.3,0,281,98,152.1,394.2,111.5,407,158.3v3.2c0-.8,.1-1.6,.2-2.4,.2,.8,.2,1.6,.2,2.4v-3.2c12.8-46.8,308.9-6.2,407-158.3,42.3-78.8,60.2-199.6-.2-281.1Z"/><g><path class="ab" d="M1023.43,985.85c26.8-4,60-7.6,95.3-13.3V93.15c-31.4-5.1-66.1-10.6-95.3-15.3V985.85h0Z"/><path class="ab" d="M1139.43,969.05c31.8-5.9,64.6-13.7,95.3-25.4V234.15c-24-23.2-32.7-59.3-15.1-107l-10.7-19.5s-30.1-4.9-69.4-11.2V969.05h-.1Z"/><path class="ab" d="M781.93,969.05c34.1,6.3,67.1,10.2,95.3,14V81.15c-31.1,5-65.8,10.6-95.3,15.3V969.05Z"/><path class="ab" d="M1349.93,589.35c-90.6-116.5-99.3-219,0-303l-24.9-21.5c-26.3,0-50.4-5.4-69.6-15.8V934.85c38.2-17.4,71.9-41.8,94.5-76.9,40.7-75.1,57.8-190.6,0-268.6Z"/><path class="ab" d="M665.93,248.95V935.15c30,13.6,62.8,23,95.3,29.9V99.75c-28.9,4.7-49.1,7.9-49.1,7.9l-10.7,19.5c21.9,59.5,3,100.8-35.5,121.8Z"/><path class="ab" d="M1002.73,74.55c-17.1-2.7-30.8-4.9-38.7-6.1v-1.1c-.1,0-1.4,.2-3.6,.5-2.2-.3-3.4-.5-3.6-.5v1.1c-10.7,1.7-32.6,5.1-59,9.4V985.95c34.9,5.3,59,11.2,62.3,23.6v3.1c0-.8,.1-1.6,.2-2.3,.1,.7,.2,1.5,.2,2.3v-3.1c2.7-9.8,18.3-15.6,42-20.2V74.55h.2Z"/><path class="ab" d="M645.23,257.75c-14.9,4.7-31.6,7.2-49.3,7.2l-24.9,21.5c99.3,84,90.6,186.5,0,303-57.8,77.9-40.6,193.5,0,268.7,18.5,28.7,44.4,50.2,74.2,66.7V257.75Z"/></g><g><path class="aa" d="M592.3,636c-27.8,39.4-38.9,90.3-29.8,137.5,2.3,11.3,6.4,22.5,14.8,30.5,4,3.8,8.9,6.7,14,7.9,9.7,2.4,21.8-1.6,24.8-11.8,2.1-6.6-.2-14.7-7.1-17.3-6.9-2.7-15.2-.6-21.3,3.5-5.9,3.7-11.5-4.8-5.7-8.7,6.1-3.8,12.9-5.9,20.1-5.9,12-.1,22.6,7.9,23.7,20.2,.7,7.4-1.7,14.9-6.9,20.3-13.2,13.1-34.7,9.7-46.6-3.1-9.2-9.3-13.7-22-15.8-34.5-8-48.8,4.8-100.4,34.3-139.8,.3-.4,.9-.5,1.4-.2,.3,.3,.4,.9,.1,1.4h0Z"/><path class="aa" d="M695.5,932.8c1.4-2.2,3.2-4.4,4.6-6.5,.8-1.2,3.6-5.3,4.4-6.6,1.7-2.8,4-6.3,5.6-9,55.5-94.2,28.5-207.9,9.5-308.9-13.9-71-29.5-143.2-23.9-216,3-43.6,13.8-88.1,37.5-125.1,.3-.5,1-.7,1.5-.3,.4,.3,.6,.8,.4,1.3-4.6,13.7-8.8,27.4-12.3,41.2-12.2,48.3-16.1,98.3-14,148,2.4,63.9,14.7,129.2,26.1,192.1,12.2,70.9,24.9,145.3,4.9,216.1-6.5,22.9-16,45.2-30,64.5-3,4.1-7.1,9-10.6,12.7-1.9,2.1-5.6-.5-3.7-3.5h0Z"/><path class="aa" d="M827.9,123.5c14.1,56.8,23.9,119.5,28.2,177.9,2.2,30,1.8,60,2.4,90,.2,54.6-.9,110.8-9.1,164.9-1.9,15-4.8,29.8-10.3,44-.5,1.4-2.1,2.1-3.5,1.5-1.1-.4-1.7-1.5-1.7-2.6-.1-15.2,2.8-29.7,5.1-44.5,10.4-63.5,18.4-128.8,16-193.2-1.6-28.8-4.4-60.5-7.6-89.3-4.4-37.2-12.2-81.1-20.7-117.6,0,0-7.2-29-7.2-29.1-1.1-5.2,6.7-7.7,8.4-2h0Z"/><path class="aa" d="M805.9,746.6c1.4,7.2,2.4,14.3,3.6,21.4,1.8,10.5,4,20.8,6.1,31.2,5,24.3,11,48.5,22.1,70.9,6.4,12.8,14.3,25.1,24.8,35,1.1,1,1.1,2.7,.1,3.7-1.1,1.2-3.1,1.1-4.1-.3-8.7-11.9-17.8-23.3-26-35.5-14.6-21.3-26.5-45.5-31.7-71-2-11.1-2.6-22.3-2.1-33.6,.6-7.5,1.5-14.9,3.4-22.1,.4-1.9,3.5-1.8,3.8,.3h0Z"/><path class="aa" d="M924.9,975.7c14.1-12.7,26.8-27.2,35.8-43.9,9.1-16.7,14.6-34.9,18.5-53.5,4.6-20.9,7-42.5,6.5-64.1-.7-35.9-7.7-71.4-14.8-106.6-10.2-50.4-21.5-101.6-28.6-152.6-1.6-12.8-2.9-26.7-3.5-39.6-5.4-119.7,43.5-236.9,24.9-356.6-1.2-7-2.9-15.8-4.6-22.8-4.5-18.5-10.8-36.5-19.6-53.2-1.4-2.7-.4-6,2.3-7.4,2.8-1.5,6.4-.2,7.6,2.8,14.7,36.4,20.9,75.3,21.6,114.2,.8,38.6-3.4,77.1-9.1,115.2-11.6,76-28.5,152.4-19.8,229.4,7.1,76.8,37.5,149.1,44.8,226.5,2.3,21.6,3.2,43.5,2.4,65.2-1,24.2-3,48.6-9.6,72-6.5,22.3-17.9,43.3-34.1,60.1l-2.6,2.6-2.6,2.6-2.7,2.5c-3.5,3.4-7.4,6.3-11.1,9.4-.6,.5-1.4,.4-1.9-.2-.5-.7-.4-1.5,.2-2h0Z"/><path class="aa" d="M1037.3,84.3c19.7,20.5,35.5,45,44,72.3,11.4,36.2,12.1,74.7,9.9,112.3-3.1,46.9-12.1,93.2-18.1,139.5-6.1,46.4-11.6,92.8-14.1,139.5-4.9,102.7,2.6,206.3,25.1,306.6,8.2,36.4,18.6,72.4,31,107.5,1,2.8-.5,5.9-3.3,6.9-2.9,1-6.1-.6-7-3.5-11.2-35.9-20.5-72.5-27.9-109.4-7.3-36.7-12.9-74.3-16.6-111.5-3.8-37.3-5.8-74.9-6.3-112.4-.4-75,2-150.3,11.4-224.8,12-104,55.3-236.9-31.9-319.4-1.1-1-1.1-2.7-.1-3.7,1.2-1,2.9-1,3.9,.1h0Z"/><path class="aa" d="M1018.7,91c28.9,48.5,37.2,106.3,36.4,162-.3,27.9-2.9,55.7-5.8,83.4-7.2,64.1-13.6,128.7-15.7,193.2-3,110.7,7.1,221.8,28.6,330.4,7.3,36.2,15.9,72.1,25.8,107.7,.7,2.5-.8,5-3.2,5.7-2.5,.7-5-.8-5.7-3.2-4.5-18-8.8-36.1-12.8-54.3-28.2-126.7-40.8-256.7-39.4-386.4,.1-64.7,4.1-129.9,12.2-194.2,5.4-45.6,11.1-91.6,6.9-137.5-2.5-27.3-8.2-54.5-19.2-79.8-3.6-8.4-7.9-16.5-12.6-24.3-.8-1.2-.4-2.9,.9-3.6,1.3-.8,2.9-.3,3.6,.9h0Z"/><path class="aa" d="M1195.6,108.9c2.6,18.8,2.2,40.4,1.4,59.5-.9,18.3-3.1,41-5.4,59.2-2.6,19.4-5.6,39.4-8.9,58.7-8.1,45.2-20.1,90.6-34.9,134-.5,1.4-2,2.1-3.3,1.7-1.4-.5-2.1-2-1.7-3.3,10-24.4,18.3-49.4,25.1-74.9,9.9-37.8,17-77.6,19.7-116.5,1.8-28.5,2.1-60,1.9-88.6,.2-9.9,.1-19.7,.9-29.6,.2-3.1,4.7-3.4,5.2-.2h0Z"/><path class="aa" d="M1222.2,221c6.8,54.1-9,107.9-27.3,158.2-14.5,39.2-29.3,79.2-35,120.8-3.9,26.4-3.3,53.2-.8,79.6,6.8,60.6,19.4,120.7,27.8,181.2,4.4,28.9,16.3,107.9,20.8,136.2,2.4,15.1,4.8,30.2,7.5,45.3,.1,.8-.4,1.5-1.1,1.6-.8,.1-1.5-.4-1.6-1.2-2.4-15.1-5-30.2-7.6-45.3-4.9-27.9-19.2-106.5-24.5-135.6-10.2-60.5-23.1-120.4-27.4-181.8-1.7-26.9-.9-54,3.7-80.6,2.8-17,6.9-33.9,11.6-50.5,8.5-30.1,19-63.5,27.8-93.6,5.4-18.2,10.7-36.5,14.5-55.1,2.3-11,4.2-22.4,5.4-33.6,1.6-15,2.1-30.2,1.1-45.3-.1-1.5,1-2.7,2.5-2.8,1.2,.2,2.4,1.2,2.6,2.5h0Z"/><path class="aa" d="M1357.2,635.7c-8.4,9.1-13.1,21.6-15.2,33.8-4.9,27.3,2.3,56.5,5.1,83.7,1.2,11.4,1.8,23,.6,34.5-.8,7.8-2.4,15.6-5,23.2-.9,2.8-3.9,4.3-6.6,3.3-3.1-1-4.5-4.7-2.9-7.5,3.4-6.2,5.8-13,7.3-20.1,1.9-8.8,2.3-18.3,2.1-27.5-.2-9-1.3-19-2.4-27.9-3.4-26.2-7.6-53.5-.9-79.7,1.9-7.7,5-15.2,9.2-22.3,4.4-6.7,13.8,.2,8.7,6.5h0Z"/><path class="aa" d="M1304.7,578.4c-14.5,19.2-20.7,43.4-21.8,67.2-2,50.2,17.9,97.1,26.8,146,4.5,24.7,6.4,50.3,1.4,75.1-.1,.5-.6,.9-1.2,.8-.5-.1-.9-.6-.8-1.2,1-6.1,1.6-12.3,1.9-18.5,.5-12.4-.5-24.8-2.3-37.1-9.4-61.7-42.2-120.8-33.9-184.7,2.5-19.4,8.9-38.5,20.3-54.7,4.8-6.3,14.2,.5,9.6,7.1h0Z"/></g><rect class="ac" x="805.8" y="594" width="308.4" height="71"/><rect class="ac" x="758.9" y="757.5" width="402.3" height="71"/><g><path class="am" d="M710,359.34h-7.7l-6.89-18.81h-1.69v-5.85h12.67v5.85h-1.83l2.88,10.53,3.66-10.53h-1.81v-5.85h10.65v5.85h-1.81l3.71,10.53,2.92-10.53h-1.76v-5.85h9.86v5.85h-1.69l-6.96,18.81h-7.59l-3.3-9.42-3.32,9.42Z"/><path class="am" d="M748.34,359.13h-13.46v-5.36h2.23v-13.73h-2.23v-5.36h11.07v9.46c2.36-1.58,4.67-2.37,6.94-2.37,2,0,3.59,.58,4.76,1.74,1.17,1.17,1.76,3.24,1.76,6.21v4.06h2v5.36h-10.85v-6.98c0-2.12-.12-3.45-.37-3.99-.26-.54-.8-.81-1.62-.81s-1.73,.3-2.64,.9v5.52h2.39v5.36Z"/><path class="am" d="M770.93,346.84l-6.93-.7c.76-1.68,1.99-2.85,3.69-3.53,1.68-.68,4.15-1.02,7.42-1.02,1.21,0,2.29,.04,3.24,.11s1.81,.19,2.56,.34c1.56,.29,2.71,.74,3.46,1.35,.75,.62,1.27,1.29,1.56,2,.3,.74,.46,1.89,.46,3.45v4.92h2.18v5.36h-11.02v-1.16c-1.52,.98-3.56,1.48-6.12,1.48-2.4,0-4.21-.53-5.43-1.58-1.23-1.05-1.85-2.3-1.85-3.74,0-1.59,.76-2.9,2.27-3.92,1.5-1.02,3.46-1.53,5.87-1.53,2.2,0,3.96,.29,5.26,.86v-.51c0-1.05-.08-1.79-.23-2.21-.16-.45-.53-.83-1.09-1.14-.59-.3-1.27-.46-2.04-.46-1.42,0-2.51,.54-3.27,1.63Zm6.63,7.93v-3.11c-.79-.42-1.62-.63-2.5-.63-.77,0-1.39,.21-1.85,.63-.46,.43-.69,.98-.69,1.65s.23,1.25,.7,1.69c.48,.45,1.03,.67,1.65,.67,1.1,0,1.99-.3,2.67-.9Z"/><path class="am" d="M804.73,352.91v5.24c-.57,.39-1.41,.73-2.5,1.02-1.15,.3-2.25,.46-3.3,.46-1.32,0-2.46-.22-3.41-.65-.97-.45-1.71-1.04-2.2-1.79-.27-.43-.47-.83-.6-1.19s-.22-.76-.28-1.2c-.08-.77-.12-2.27-.12-4.48v-2.87h-2.18v-5.36h2.18v-2.62l8.84-4.2v6.82h3.57v5.36h-3.57v3.3c0,1.08,.1,1.8,.3,2.16,.19,.36,.59,.54,1.2,.54,.57,0,1.27-.18,2.07-.54Z"/><path class="am" d="M830.22,352.91v5.24c-.57,.39-1.41,.73-2.5,1.02-1.15,.3-2.25,.46-3.3,.46-1.32,0-2.46-.22-3.41-.65-.97-.45-1.71-1.04-2.2-1.79-.27-.43-.47-.83-.6-1.19s-.22-.76-.28-1.2c-.08-.77-.12-2.27-.12-4.48v-2.87h-2.18v-5.36h2.18v-2.62l8.84-4.2v6.82h3.57v5.36h-3.57v3.3c0,1.08,.1,1.8,.3,2.16,.19,.36,.59,.54,1.2,.54,.57,0,1.27-.18,2.07-.54Z"/><path class="am" d="M845.83,359.13h-13.46v-5.36h2.23v-13.73h-2.23v-5.36h11.07v9.46c2.36-1.58,4.67-2.37,6.94-2.37,2,0,3.59,.58,4.76,1.74,1.17,1.17,1.76,3.24,1.76,6.21v4.06h2v5.36h-10.85v-6.98c0-2.12-.12-3.45-.37-3.99-.26-.54-.8-.81-1.62-.81s-1.73,.3-2.64,.9v5.52h2.39v5.36Z"/><path class="am" d="M875.92,353.73l7.29,.9c-.33,.76-.79,1.44-1.37,2.05s-1.3,1.13-2.14,1.57c-1.7,.91-3.73,1.37-6.1,1.37-3.97,0-6.96-.83-8.96-2.48-2-1.64-3.01-3.79-3.01-6.45s.99-4.77,2.97-6.5c1.96-1.73,4.61-2.6,7.96-2.6s5.85,.82,7.88,2.46c1.99,1.63,3.05,4.11,3.18,7.44h-13.43c.04,2.77,1.07,4.15,3.09,4.15,1.22,0,2.1-.63,2.64-1.9Zm-5.62-4.46h4.97c.02-.35,.04-.55,.04-.6,0-.93-.23-1.69-.7-2.3-.47-.6-1.09-.9-1.86-.9s-1.41,.33-1.83,.98c-.42,.67-.63,1.49-.63,2.46,0,.13,0,.25,.02,.35Z"/><path class="am" d="M907.42,359.13h-11.37v-5.85h1.92v-12.74h-1.92v-5.85h11.71c2.67,0,4.85,.16,6.54,.49,1.7,.33,3.3,1,4.8,2.02,1.49,1.03,2.66,2.43,3.52,4.18,.42,.84,.74,1.75,.97,2.71s.33,1.97,.33,3.02c0,2.12-.45,4.05-1.35,5.8-.89,1.73-2.02,3.06-3.39,3.99-1.34,.93-2.8,1.53-4.39,1.81-1.58,.28-4.03,.42-7.35,.42Zm0-18.6v12.74h.9c2.23,0,3.67-.59,4.34-1.78,.66-1.18,.98-2.67,.98-4.46,0-1.08-.14-2.14-.42-3.2-.29-1.05-.81-1.87-1.55-2.44-.73-.57-2.03-.86-3.9-.86h-.35Z"/><path class="am" d="M927,340.57h5.34l1.37-6.56h3.8l-1.39,6.56h5.78l1.39-6.56h3.78l-1.37,6.56h2.74v3.8h-3.53l-1.02,4.83h4.55v3.8h-5.34l-1.37,6.54h-3.8l1.37-6.54h-5.78l-1.37,6.54h-3.8l1.37-6.54h-2.72v-3.8h3.53l1-4.83h-4.54v-3.8Zm13.1,8.63l1.02-4.83h-5.78l-1.02,4.83h5.78Z"/><path class="am" d="M966.7,352.13l6.59,1.48c-.55,1.9-1.73,3.38-3.55,4.43-1.84,1.05-4.11,1.58-6.82,1.58-3.59,0-6.41-.81-8.47-2.43s-3.09-3.79-3.09-6.5,.96-4.76,2.88-6.43c1.91-1.66,4.31-2.5,7.19-2.5,2.44,0,4.32,.49,5.64,1.46v-1.14h5.4v7.28h-5.4c-.67-1.95-1.8-2.92-3.39-2.92-1.08,0-1.91,.42-2.5,1.25-.59,.86-.88,1.89-.88,3.11,0,1.32,.32,2.37,.95,3.13,.62,.76,1.43,1.14,2.43,1.14,1.64,0,2.65-.98,3.02-2.94Z"/><path class="am" d="M986.42,359.13h-11.02v-5.36h2.18v-13.73h-2.21v-5.36h11.06v17.03l5.55-5.43h-3.11v-4.2h10.9v4.62h-1.99l-3.2,3.13,3.85,3.94h1.39v5.36h-6.35l-7.05-7.42v7.42Z"/><path class="am" d="M1022.1,366.95h-7.45v-5.19h2.87l.86-1.74-6.54-12.59h-1.32v-5.36h11.62v5.36h-1.88l2.97,6.7,2.74-6.7h-1.65v-5.36h8.81v5.36h-1.71l-9.32,19.51Z"/><path class="am" d="M1034.6,350.52c0-2.51,1.05-4.62,3.16-6.35s4.96-2.58,8.54-2.58,6.54,.83,8.81,2.5,3.39,3.83,3.39,6.5-1.08,4.73-3.23,6.45-5,2.58-8.54,2.58c-3.82,0-6.8-.86-8.93-2.58-2.13-1.71-3.2-3.88-3.2-6.52Zm8.95,.04c0,2.72,.97,4.08,2.92,4.08,2.06,0,3.09-1.37,3.09-4.11,0-1.25-.25-2.23-.76-2.92-.52-.69-1.24-1.04-2.18-1.04s-1.67,.34-2.23,1.02-.84,1.67-.84,2.97Z"/><path class="am" d="M1062.94,347.44h-2.06v-5.36h10.9v8.12c0,1.37,.13,2.29,.39,2.76,.25,.48,.77,.72,1.58,.72,.98,0,1.9-.26,2.74-.79v-5.45h-2.34v-5.36h11.18v11.69h2.06v5.36h-10.9v-2.16c-2.33,1.65-4.72,2.48-7.15,2.48-1.75,0-3.25-.56-4.5-1.67-1.27-1.11-1.9-3.21-1.9-6.29v-4.04Z"/><path class="am" d="M1125.16,353.77v5.36h-11.06v-1.14c-1.64,.97-3.54,1.46-5.7,1.46-2.4,0-4.53-.73-6.38-2.2s-2.78-3.56-2.78-6.29c0-2.94,.86-5.21,2.57-6.82,1.71-1.58,4-2.37,6.87-2.37,2.11,0,3.91,.47,5.41,1.41v-3.13h-2.18v-5.36h11.02v19.09h2.21Zm-11-3.23c0-1.07-.25-1.96-.74-2.67-.49-.7-1.22-1.05-2.2-1.05-2,0-3.01,1.29-3.01,3.88,0,1.07,.25,1.95,.74,2.64,.48,.7,1.21,1.05,2.2,1.05,.89,0,1.62-.31,2.18-.93,.55-.62,.83-1.59,.83-2.92Z"/><path class="am" d="M1127.97,350.52c0-2.51,1.05-4.62,3.16-6.35s4.96-2.58,8.54-2.58,6.54,.83,8.81,2.5,3.39,3.83,3.39,6.5-1.08,4.73-3.23,6.45-5,2.58-8.54,2.58c-3.82,0-6.8-.86-8.93-2.58-2.13-1.71-3.2-3.88-3.2-6.52Zm8.95,.04c0,2.72,.97,4.08,2.92,4.08,2.06,0,3.09-1.37,3.09-4.11,0-1.25-.25-2.23-.76-2.92-.52-.69-1.24-1.04-2.18-1.04s-1.67,.34-2.23,1.02-.84,1.67-.84,2.97Z"/><path class="am" d="M1166.77,359.13h-12.08v-5.36h1.76v-6.33h-1.76v-5.36h10.6v11.69h1.48v5.36Zm-11.06-21.87c0-.93,.47-1.67,1.42-2.23,.94-.56,2.1-.84,3.48-.84s2.56,.29,3.43,.88c.86,.6,1.28,1.32,1.28,2.18,0,.93-.45,1.66-1.34,2.2-.9,.55-2.04,.83-3.41,.83s-2.55-.25-3.48-.76c-.93-.49-1.39-1.24-1.39-2.25Z"/><path class="am" d="M1182.77,359.13h-13.5v-5.36h2.2v-6.33h-2.2v-5.36h11.04v2.16c2.17-1.65,4.49-2.48,6.98-2.48,2.18,0,3.82,.6,4.92,1.81,1.09,1.21,1.63,3.15,1.63,5.82v4.38h2.02v5.36h-10.86v-7.58c0-1.65-.14-2.74-.42-3.27-.3-.52-.88-.77-1.74-.77-.79,0-1.63,.3-2.53,.9v5.36h2.46v5.36Z"/><path class="am" d="M1199.92,365.44l2.43-4.32c1.37,.57,3.21,.86,5.52,.86,1.52,0,2.71-.22,3.57-.65,.87-.42,1.42-.92,1.67-1.49,.23-.57,.35-1.39,.35-2.44-1.77,.89-3.74,1.34-5.92,1.34-2.54,0-4.69-.73-6.43-2.18-1.77-1.44-2.65-3.44-2.65-5.99,0-2.7,.92-4.83,2.76-6.42,1.83-1.58,4.04-2.37,6.64-2.37,2.13,0,4,.47,5.61,1.41v-1.09h10.93v5.36h-2.13v9.35c0,2.09-.19,3.69-.56,4.82-.39,1.12-1.08,2.09-2.07,2.88-1,.83-2.24,1.43-3.74,1.79-1.49,.39-3.46,.58-5.92,.58-1.1,0-2.08-.04-2.94-.11s-1.85-.19-2.96-.35c-1.9-.3-3.28-.63-4.13-.97Zm7.47-14.73c0,1.04,.26,1.91,.79,2.6,.53,.7,1.28,1.05,2.25,1.05,1.03,0,1.8-.36,2.3-1.07,.5-.69,.76-1.56,.76-2.62,0-1.15-.27-2.08-.81-2.79-.55-.73-1.29-1.09-2.21-1.09-1,0-1.76,.38-2.29,1.14-.53,.75-.79,1.68-.79,2.78Z"/><path class="am" d="M1236.92,359.13h-8.77v-6.4h8.77v6.4Zm-1.41-9.83h-5.99l-1.23-7.61v-7.01h8.49v6.87l-1.27,7.75Z"/><path class="am" d="M723.41,445.53h-11.37v-5.85h1.92v-12.74h-1.92v-5.85h11.71c2.67,0,4.85,.16,6.54,.49,1.7,.33,3.3,1,4.8,2.02,1.49,1.03,2.66,2.43,3.52,4.18,.42,.84,.74,1.75,.97,2.71s.33,1.97,.33,3.02c0,2.12-.45,4.05-1.35,5.8-.89,1.73-2.02,3.06-3.39,3.99-1.34,.93-2.8,1.53-4.39,1.81-1.58,.28-4.03,.42-7.35,.42Zm0-18.6v12.74h.9c2.23,0,3.67-.59,4.34-1.78,.66-1.18,.98-2.67,.98-4.46,0-1.08-.14-2.14-.42-3.2-.29-1.05-.81-1.87-1.55-2.44-.73-.57-2.03-.86-3.9-.86h-.35Z"/><path class="am" d="M743.24,436.92c0-2.51,1.05-4.62,3.16-6.35s4.96-2.58,8.54-2.58,6.54,.83,8.81,2.5,3.39,3.83,3.39,6.5-1.08,4.73-3.23,6.45-5,2.58-8.54,2.58c-3.82,0-6.8-.86-8.93-2.58-2.13-1.71-3.2-3.88-3.2-6.52Zm8.95,.04c0,2.72,.97,4.08,2.92,4.08,2.06,0,3.09-1.37,3.09-4.11,0-1.25-.25-2.23-.76-2.92-.52-.69-1.24-1.04-2.18-1.04s-1.67,.34-2.23,1.02-.84,1.67-.84,2.97Z"/><path class="am" d="M792.43,445.53h-13.5v-5.36h2.2v-6.33h-2.2v-5.36h11.04v2.16c2.17-1.65,4.49-2.48,6.98-2.48,2.18,0,3.82,.6,4.92,1.81,1.09,1.21,1.63,3.15,1.63,5.82v4.38h2.02v5.36h-10.86v-7.58c0-1.65-.14-2.74-.42-3.27-.3-.52-.88-.77-1.74-.77-.79,0-1.63,.3-2.53,.9v5.36h2.46v5.36Z"/><path class="am" d="M808.11,436.92c0-2.51,1.05-4.62,3.16-6.35s4.96-2.58,8.54-2.58,6.54,.83,8.81,2.5,3.39,3.83,3.39,6.5-1.08,4.73-3.23,6.45-5,2.58-8.54,2.58c-3.82,0-6.8-.86-8.93-2.58-2.13-1.71-3.2-3.88-3.2-6.52Zm8.95,.04c0,2.72,.97,4.08,2.92,4.08,2.06,0,3.09-1.37,3.09-4.11,0-1.25-.25-2.23-.76-2.92-.52-.69-1.24-1.04-2.18-1.04s-1.67,.34-2.23,1.02-.84,1.67-.84,2.97Z"/><path class="am" d="M848.71,439.31v5.24c-.57,.39-1.41,.73-2.5,1.02-1.15,.3-2.25,.46-3.3,.46-1.32,0-2.46-.22-3.41-.65-.97-.45-1.71-1.04-2.2-1.79-.27-.43-.47-.83-.6-1.19s-.22-.76-.28-1.2c-.08-.77-.12-2.27-.12-4.48v-2.87h-2.18v-5.36h2.18v-2.62l8.84-4.2v6.82h3.57v5.36h-3.57v3.3c0,1.08,.1,1.8,.3,2.16,.19,.36,.59,.54,1.2,.54,.57,0,1.27-.18,2.07-.54Z"/><path class="am" d="M866.64,445.74h-5.47v-5.41h5.12c1.31,1.38,2.75,2.07,4.31,2.07s2.36-.32,2.36-.97c0-.33-.17-.58-.51-.76-.35-.19-1.28-.46-2.79-.83-1.22-.33-2.57-.71-4.04-1.14-1.28-.36-2.29-.82-3.02-1.37-.76-.55-1.27-1.09-1.53-1.62-.28-.53-.42-1.22-.42-2.07,0-1.89,.67-3.28,2-4.17,1.32-.88,3.01-1.32,5.04-1.32s3.88,.4,5.31,1.2v-.88h5.4v4.96h-4.99c-1.24-1.18-2.72-1.78-4.43-1.78-1.35,0-2.02,.36-2.02,1.07,0,.34,.2,.56,.6,.67,.34,.11,1.46,.36,3.38,.76,2.17,.46,3.86,.91,5.08,1.37,1.21,.46,2.12,1.06,2.72,1.81,.6,.75,.9,1.67,.9,2.76,0,1.97-.73,3.42-2.2,4.36-1.45,.93-3.25,1.39-5.38,1.39s-3.92-.39-5.4-1.16v1.05Z"/><path class="am" d="M895.47,445.53h-13.46v-5.36h2.23v-13.73h-2.23v-5.36h11.07v9.46c2.36-1.58,4.67-2.37,6.94-2.37,2,0,3.59,.58,4.76,1.74,1.17,1.17,1.76,3.24,1.76,6.21v4.06h2v5.36h-10.85v-6.98c0-2.12-.12-3.45-.37-3.99-.26-.54-.8-.81-1.62-.81s-1.73,.3-2.64,.9v5.52h2.39v5.36Z"/><path class="am" d="M911.25,436.92c0-2.51,1.05-4.62,3.16-6.35s4.96-2.58,8.54-2.58,6.54,.83,8.81,2.5,3.39,3.83,3.39,6.5-1.08,4.73-3.23,6.45-5,2.58-8.54,2.58c-3.82,0-6.8-.86-8.93-2.58-2.13-1.71-3.2-3.88-3.2-6.52Zm8.95,.04c0,2.72,.97,4.08,2.92,4.08,2.06,0,3.09-1.37,3.09-4.11,0-1.25-.25-2.23-.76-2.92-.52-.69-1.24-1.04-2.18-1.04s-1.67,.34-2.23,1.02-.84,1.67-.84,2.97Z"/><path class="am" d="M938.25,436.92c0-2.51,1.05-4.62,3.16-6.35s4.96-2.58,8.54-2.58,6.54,.83,8.81,2.5c2.26,1.66,3.39,3.83,3.39,6.5s-1.08,4.73-3.23,6.45c-2.16,1.72-5,2.58-8.54,2.58-3.82,0-6.8-.86-8.93-2.58-2.13-1.71-3.2-3.88-3.2-6.52Zm8.95,.04c0,2.72,.97,4.08,2.92,4.08,2.06,0,3.09-1.37,3.09-4.11,0-1.25-.25-2.23-.76-2.92-.52-.69-1.24-1.04-2.18-1.04s-1.67,.34-2.23,1.02-.84,1.67-.84,2.97Z"/><path class="am" d="M978.86,439.31v5.24c-.57,.39-1.41,.73-2.5,1.02-1.15,.3-2.25,.46-3.3,.46-1.32,0-2.46-.22-3.41-.65-.97-.45-1.71-1.04-2.2-1.79-.27-.43-.47-.83-.6-1.19s-.22-.76-.28-1.2c-.08-.77-.12-2.27-.12-4.48v-2.87h-2.18v-5.36h2.18v-2.62l8.84-4.2v6.82h3.57v5.36h-3.57v3.3c0,1.08,.1,1.8,.3,2.16,.19,.36,.59,.54,1.2,.54,.57,0,1.27-.18,2.07-.54Z"/><path class="am" d="M1001.13,453.35h-7.45v-5.19h2.87l.86-1.74-6.54-12.59h-1.32v-5.36h11.62v5.36h-1.88l2.97,6.7,2.74-6.7h-1.65v-5.36h8.81v5.36h-1.71l-9.32,19.51Z"/><path class="am" d="M1013.63,436.92c0-2.51,1.05-4.62,3.16-6.35s4.96-2.58,8.54-2.58,6.54,.83,8.81,2.5,3.39,3.83,3.39,6.5-1.08,4.73-3.23,6.45-5,2.58-8.54,2.58c-3.82,0-6.8-.86-8.93-2.58-2.13-1.71-3.2-3.88-3.2-6.52Zm8.95,.04c0,2.72,.97,4.08,2.92,4.08,2.06,0,3.09-1.37,3.09-4.11,0-1.25-.25-2.23-.76-2.92-.52-.69-1.24-1.04-2.18-1.04s-1.67,.34-2.23,1.02-.84,1.67-.84,2.97Z"/><path class="am" d="M1041.96,433.84h-2.06v-5.36h10.9v8.12c0,1.37,.13,2.29,.39,2.76,.25,.48,.77,.72,1.58,.72,.98,0,1.9-.26,2.74-.79v-5.45h-2.34v-5.36h11.18v11.69h2.06v5.36h-10.9v-2.16c-2.33,1.65-4.72,2.48-7.15,2.48-1.75,0-3.25-.56-4.5-1.67-1.27-1.11-1.9-3.21-1.9-6.29v-4.04Z"/><path class="am" d="M1082.5,445.53h-13.75v-5.36h2.32v-6.33h-2.32v-5.36h10.58v4.27c.4-1.07,1.01-1.99,1.85-2.76,.8-.76,1.61-1.26,2.43-1.49,.79-.22,1.94-.33,3.46-.33v7.51c-.2-.01-.45-.02-.74-.02-1.8,0-3.15,.18-4.03,.54-.91,.38-1.54,.87-1.86,1.48-.34,.63-.52,1.46-.53,2.5h2.58v5.36Z"/><path class="am" d="M1123.7,440.17v5.36h-11.06v-1.14c-1.64,.97-3.54,1.46-5.7,1.46-2.4,0-4.53-.73-6.38-2.2s-2.78-3.56-2.78-6.29c0-2.94,.86-5.21,2.57-6.82,1.71-1.58,4-2.37,6.87-2.37,2.11,0,3.91,.47,5.41,1.41v-3.13h-2.18v-5.36h11.02v19.09h2.21Zm-11-3.23c0-1.07-.25-1.96-.74-2.67-.49-.7-1.22-1.05-2.2-1.05-2,0-3.01,1.29-3.01,3.88,0,1.07,.25,1.95,.74,2.64,.48,.7,1.21,1.05,2.2,1.05,.89,0,1.62-.31,2.18-.93,.55-.62,.83-1.59,.83-2.92Z"/><path class="am" d="M1126.52,436.92c0-2.51,1.05-4.62,3.16-6.35s4.96-2.58,8.54-2.58,6.54,.83,8.81,2.5,3.39,3.83,3.39,6.5-1.08,4.73-3.23,6.45-5,2.58-8.54,2.58c-3.82,0-6.8-.86-8.93-2.58-2.13-1.71-3.2-3.88-3.2-6.52Zm8.95,.04c0,2.72,.97,4.08,2.92,4.08,2.06,0,3.09-1.37,3.09-4.11,0-1.25-.25-2.23-.76-2.92-.52-.69-1.24-1.04-2.18-1.04s-1.67,.34-2.23,1.02-.84,1.67-.84,2.97Z"/><path class="am" d="M1154.64,451.84l2.43-4.32c1.37,.57,3.21,.86,5.52,.86,1.52,0,2.71-.22,3.57-.65,.87-.42,1.42-.92,1.67-1.49,.23-.57,.35-1.39,.35-2.44-1.77,.89-3.74,1.34-5.92,1.34-2.54,0-4.69-.73-6.43-2.18-1.77-1.44-2.65-3.44-2.65-5.99,0-2.7,.92-4.83,2.76-6.42,1.83-1.58,4.04-2.37,6.64-2.37,2.13,0,4,.47,5.61,1.41v-1.09h10.93v5.36h-2.13v9.35c0,2.09-.19,3.69-.56,4.82-.39,1.12-1.08,2.09-2.07,2.88-1,.83-2.24,1.43-3.74,1.79-1.49,.39-3.46,.58-5.92,.58-1.1,0-2.08-.04-2.94-.11s-1.85-.19-2.96-.35c-1.9-.3-3.28-.63-4.13-.97Zm7.47-14.73c0,1.04,.26,1.91,.79,2.6,.53,.7,1.28,1.05,2.25,1.05,1.03,0,1.8-.36,2.3-1.07,.5-.69,.76-1.56,.76-2.62,0-1.15-.27-2.08-.81-2.79-.55-.73-1.29-1.09-2.21-1.09-1,0-1.76,.38-2.29,1.14-.53,.75-.79,1.68-.79,2.78Z"/><path class="am" d="M1191.64,445.53h-8.77v-6.4h8.77v6.4Zm-1.41-9.83h-5.99l-1.23-7.61v-7.01h8.49v6.87l-1.27,7.75Z"/><path class="am" d="M1205.9,445.53h-8.77v-6.4h8.77v6.4Zm-1.41-9.83h-5.99l-1.23-7.61v-7.01h8.49v6.87l-1.27,7.75Z"/><path class="am" d="M1220.15,445.53h-8.77v-6.4h8.77v6.4Zm-1.41-9.83h-5.99l-1.23-7.61v-7.01h8.49v6.87l-1.27,7.75Z"/><path class="am" d="M840.41,488.73h-12.87v-5.85h1.85v-12.74h-1.88v-5.85h12.9v5.85h-1.56v3.73h5.66v-3.73h-1.58v-5.85h12.88v5.85h-1.85v12.74h1.85v5.85h-12.88v-5.85h1.58v-4.01h-5.66v4.01h1.56v5.85Z"/><path class="am" d="M873.28,483.33l7.29,.9c-.33,.76-.79,1.44-1.37,2.05s-1.3,1.13-2.14,1.57c-1.7,.91-3.73,1.37-6.1,1.37-3.97,0-6.96-.83-8.96-2.48-2-1.64-3.01-3.79-3.01-6.45s.99-4.77,2.97-6.5c1.96-1.73,4.61-2.6,7.96-2.6s5.85,.82,7.88,2.46c1.99,1.63,3.05,4.11,3.18,7.44h-13.43c.04,2.77,1.07,4.15,3.09,4.15,1.22,0,2.1-.63,2.64-1.9Zm-5.62-4.46h4.97c.02-.35,.04-.55,.04-.6,0-.93-.23-1.69-.7-2.3-.47-.6-1.09-.9-1.86-.9s-1.41,.33-1.83,.98c-.42,.67-.63,1.49-.63,2.46,0,.13,0,.25,.02,.35Z"/><path class="am" d="M908.5,481.73l6.59,1.48c-.55,1.9-1.73,3.38-3.55,4.43-1.84,1.05-4.11,1.58-6.82,1.58-3.59,0-6.41-.81-8.47-2.43s-3.09-3.79-3.09-6.5,.96-4.76,2.88-6.43c1.91-1.66,4.31-2.5,7.19-2.5,2.44,0,4.32,.49,5.64,1.46v-1.14h5.4v7.28h-5.4c-.67-1.95-1.8-2.92-3.39-2.92-1.08,0-1.91,.42-2.5,1.25-.59,.86-.88,1.89-.88,3.11,0,1.32,.32,2.37,.95,3.13,.62,.76,1.43,1.14,2.43,1.14,1.64,0,2.65-.98,3.02-2.94Z"/><path class="am" d="M917.87,480.12c0-2.51,1.05-4.62,3.16-6.35s4.96-2.58,8.54-2.58,6.54,.83,8.81,2.5,3.39,3.83,3.39,6.5-1.08,4.73-3.23,6.45-5,2.58-8.54,2.58c-3.82,0-6.8-.86-8.93-2.58-2.13-1.71-3.2-3.88-3.2-6.52Zm8.95,.04c0,2.72,.97,4.08,2.92,4.08,2.06,0,3.09-1.37,3.09-4.11,0-1.25-.25-2.23-.76-2.92-.52-.69-1.24-1.04-2.18-1.04s-1.67,.34-2.23,1.02-.84,1.67-.84,2.97Z"/><path class="am" d="M946.21,477.04h-2.06v-5.36h10.9v8.12c0,1.37,.13,2.29,.39,2.76,.25,.48,.77,.72,1.58,.72,.98,0,1.9-.26,2.74-.79v-5.45h-2.34v-5.36h11.18v11.69h2.06v5.36h-10.9v-2.16c-2.33,1.65-4.72,2.48-7.15,2.48-1.75,0-3.25-.56-4.5-1.67-1.27-1.11-1.9-3.21-1.9-6.29v-4.04Z"/><path class="am" d="M985.25,488.73h-12.22v-5.36h1.81v-13.73h-1.81v-5.36h10.65v19.09h1.56v5.36Z"/><path class="am" d="M1014.04,483.37v5.36h-11.06v-1.14c-1.64,.97-3.54,1.46-5.7,1.46-2.4,0-4.53-.73-6.38-2.2s-2.78-3.56-2.78-6.29c0-2.94,.86-5.21,2.57-6.82,1.71-1.58,4-2.37,6.87-2.37,2.11,0,3.91,.47,5.41,1.41v-3.13h-2.18v-5.36h11.02v19.09h2.21Zm-11-3.23c0-1.07-.25-1.96-.74-2.67-.49-.7-1.22-1.05-2.2-1.05-2,0-3.01,1.29-3.01,3.88,0,1.07,.25,1.95,.74,2.64,.48,.7,1.21,1.05,2.2,1.05,.89,0,1.62-.31,2.18-.93,.55-.62,.83-1.59,.83-2.92Z"/><path class="am" d="M1051.91,483.37v5.36h-11.06v-1.14c-1.64,.97-3.54,1.46-5.7,1.46-2.4,0-4.53-.73-6.38-2.2s-2.78-3.56-2.78-6.29c0-2.94,.86-5.21,2.57-6.82,1.71-1.58,4-2.37,6.87-2.37,2.11,0,3.91,.47,5.41,1.41v-3.13h-2.18v-5.36h11.02v19.09h2.21Zm-11-3.23c0-1.07-.25-1.96-.74-2.67-.49-.7-1.22-1.05-2.2-1.05-2,0-3.01,1.29-3.01,3.88,0,1.07,.25,1.95,.74,2.64,.48,.7,1.21,1.05,2.2,1.05,.89,0,1.62-.31,2.18-.93,.55-.62,.83-1.59,.83-2.92Z"/><path class="am" d="M1066.51,488.73h-12.08v-5.36h1.76v-6.33h-1.76v-5.36h10.6v11.69h1.48v5.36Zm-11.06-21.87c0-.93,.47-1.67,1.42-2.23,.94-.56,2.1-.84,3.48-.84s2.56,.29,3.43,.88c.86,.6,1.28,1.32,1.28,2.18,0,.93-.45,1.66-1.34,2.2-.9,.55-2.04,.83-3.41,.83s-2.55-.25-3.48-.76c-.93-.49-1.39-1.24-1.39-2.25Z"/><path class="am" d="M1083.63,483.33l7.29,.9c-.33,.76-.79,1.44-1.37,2.05s-1.3,1.13-2.14,1.57c-1.7,.91-3.73,1.37-6.1,1.37-3.97,0-6.96-.83-8.96-2.48-2-1.64-3.01-3.79-3.01-6.45s.99-4.77,2.97-6.5c1.96-1.73,4.61-2.6,7.96-2.6s5.85,.82,7.88,2.46c1.99,1.63,3.05,4.11,3.18,7.44h-13.43c.04,2.77,1.07,4.15,3.09,4.15,1.22,0,2.1-.63,2.64-1.9Zm-5.62-4.46h4.97c.02-.35,.04-.55,.04-.6,0-.93-.23-1.69-.7-2.3-.47-.6-1.09-.9-1.86-.9s-1.41,.33-1.83,.98c-.42,.67-.63,1.49-.63,2.46,0,.13,0,.25,.02,.35Z"/><path class="am" d="M1104.43,488.73h-8.77v-6.4h8.77v6.4Zm-1.41-9.83h-5.99l-1.23-7.61v-7.01h8.49v6.87l-1.27,7.75Z"/><path class="am" d="M624.14,575.13h-13.73v-5.85h2.11v-12.74h-2.81v4.45h-4.59v-10.3h24.24v10.3h-4.59v-4.45h-2.79v12.74h2.16v5.85Z"/><path class="am" d="M645.66,575.13h-13.75v-5.36h2.32v-6.33h-2.32v-5.36h10.58v4.27c.4-1.07,1.01-1.99,1.85-2.76,.8-.76,1.61-1.26,2.43-1.49,.79-.22,1.94-.33,3.46-.33v7.51c-.2-.01-.45-.02-.74-.02-1.8,0-3.15,.18-4.03,.54-.91,.38-1.54,.87-1.86,1.48-.34,.63-.52,1.46-.53,2.5h2.58v5.36Z"/><path class="am" d="M663.99,582.95h-7.45v-5.19h2.87l.86-1.74-6.54-12.59h-1.32v-5.36h11.62v5.36h-1.88l2.97,6.7,2.74-6.7h-1.65v-5.36h8.81v5.36h-1.71l-9.32,19.51Z"/><path class="am" d="M693.01,562.84l-6.93-.7c.76-1.68,1.99-2.85,3.69-3.53,1.68-.68,4.15-1.02,7.42-1.02,1.21,0,2.29,.04,3.24,.11s1.81,.19,2.56,.34c1.56,.29,2.71,.74,3.46,1.35,.75,.62,1.27,1.29,1.56,2,.3,.74,.46,1.89,.46,3.45v4.92h2.18v5.36h-11.02v-1.16c-1.52,.98-3.56,1.48-6.12,1.48-2.4,0-4.21-.53-5.43-1.58-1.23-1.05-1.85-2.3-1.85-3.74,0-1.59,.76-2.9,2.27-3.92,1.5-1.02,3.46-1.53,5.87-1.53,2.2,0,3.96,.29,5.26,.86v-.51c0-1.05-.08-1.79-.23-2.21-.16-.45-.53-.83-1.09-1.14-.59-.3-1.27-.46-2.04-.46-1.42,0-2.51,.54-3.27,1.63Zm6.63,7.93v-3.11c-.79-.42-1.62-.63-2.5-.63-.77,0-1.39,.21-1.85,.63-.46,.43-.69,.98-.69,1.65s.23,1.25,.7,1.69c.48,.45,1.03,.67,1.65,.67,1.1,0,1.99-.3,2.67-.9Z"/><path class="am" d="M713.97,581.44l2.43-4.32c1.37,.57,3.21,.86,5.52,.86,1.52,0,2.71-.22,3.57-.65,.87-.42,1.42-.92,1.67-1.49,.23-.57,.35-1.39,.35-2.44-1.77,.89-3.74,1.34-5.92,1.34-2.54,0-4.69-.73-6.43-2.18-1.77-1.44-2.65-3.44-2.65-5.99,0-2.7,.92-4.83,2.76-6.42,1.83-1.58,4.04-2.37,6.64-2.37,2.13,0,4,.47,5.61,1.41v-1.09h10.93v5.36h-2.13v9.35c0,2.09-.19,3.69-.56,4.82-.39,1.12-1.08,2.09-2.07,2.88-1,.83-2.24,1.43-3.74,1.79-1.49,.39-3.46,.58-5.92,.58-1.1,0-2.08-.04-2.94-.11s-1.85-.19-2.96-.35c-1.9-.3-3.28-.63-4.13-.97Zm7.47-14.73c0,1.04,.26,1.91,.79,2.6,.53,.7,1.28,1.05,2.25,1.05,1.03,0,1.8-.36,2.3-1.07,.5-.69,.76-1.56,.76-2.62,0-1.15-.27-2.08-.81-2.79-.55-.73-1.29-1.09-2.21-1.09-1,0-1.76,.38-2.29,1.14-.53,.75-.79,1.68-.79,2.78Z"/><path class="am" d="M747.8,562.84l-6.93-.7c.76-1.68,1.99-2.85,3.69-3.53,1.68-.68,4.15-1.02,7.42-1.02,1.21,0,2.29,.04,3.24,.11s1.81,.19,2.56,.34c1.56,.29,2.71,.74,3.46,1.35,.75,.62,1.27,1.29,1.56,2,.3,.74,.46,1.89,.46,3.45v4.92h2.18v5.36h-11.02v-1.16c-1.52,.98-3.56,1.48-6.12,1.48-2.4,0-4.21-.53-5.43-1.58-1.23-1.05-1.85-2.3-1.85-3.74,0-1.59,.76-2.9,2.27-3.92,1.5-1.02,3.46-1.53,5.87-1.53,2.2,0,3.96,.29,5.26,.86v-.51c0-1.05-.08-1.79-.23-2.21-.16-.45-.53-.83-1.09-1.14-.59-.3-1.27-.46-2.04-.46-1.42,0-2.51,.54-3.27,1.63Zm6.63,7.93v-3.11c-.79-.42-1.62-.63-2.5-.63-.77,0-1.39,.21-1.85,.63-.46,.43-.69,.98-.69,1.65s.23,1.25,.7,1.69c.48,.45,1.03,.67,1.65,.67,1.1,0,1.99-.3,2.67-.9Z"/><path class="am" d="M779.8,575.13h-12.08v-5.36h1.76v-6.33h-1.76v-5.36h10.6v11.69h1.48v5.36Zm-11.06-21.87c0-.93,.47-1.67,1.42-2.23,.94-.56,2.1-.84,3.48-.84s2.56,.29,3.43,.88c.86,.6,1.28,1.32,1.28,2.18,0,.93-.45,1.66-1.34,2.2-.9,.55-2.04,.83-3.41,.83s-2.55-.25-3.48-.76c-.93-.49-1.39-1.24-1.39-2.25Z"/><path class="am" d="M795.79,575.13h-13.5v-5.36h2.2v-6.33h-2.2v-5.36h11.04v2.16c2.17-1.65,4.49-2.48,6.98-2.48,2.18,0,3.82,.6,4.92,1.81,1.09,1.21,1.63,3.15,1.63,5.82v4.38h2.02v5.36h-10.86v-7.58c0-1.65-.14-2.74-.42-3.27-.3-.52-.88-.77-1.74-.77-.79,0-1.63,.3-2.53,.9v5.36h2.46v5.36Z"/><path class="am" d="M812.67,582.21v-3.43c.94,0,1.65-.14,2.14-.42,.49-.29,.8-.63,.91-1,.13-.39,.2-1.13,.21-2.23h-3.27v-6.4h8.77v5.47c0,1.97-.07,3.31-.21,4.03-.14,.74-.55,1.45-1.23,2.14-.67,.7-1.49,1.19-2.48,1.46-.95,.26-2.57,.39-4.85,.39Z"/><path class="am" d="M841.06,575.13h-11.07v-5.36h2.23v-13.73h-2.27v-5.36h11.11v8.49c1.5-.94,3.32-1.41,5.47-1.41,2.71,0,4.95,.77,6.71,2.32s2.65,3.65,2.65,6.31c0,1.31-.21,2.5-.64,3.57s-1.07,2.03-1.92,2.88c-1.7,1.73-3.83,2.6-6.4,2.6-2.27,0-4.23-.49-5.87-1.46v1.14Zm-.07-8.6c0,2.57,1.02,3.85,3.06,3.85,1.93,0,2.9-1.28,2.9-3.83,0-1.22-.27-2.15-.81-2.79-.54-.63-1.26-.95-2.16-.95-.96,0-1.7,.35-2.21,1.04-.52,.71-.77,1.61-.77,2.69Z"/><path class="am" d="M860.43,563.44h-2.06v-5.36h10.9v8.12c0,1.37,.13,2.29,.39,2.76,.25,.48,.77,.72,1.58,.72,.98,0,1.9-.26,2.74-.79v-5.45h-2.34v-5.36h11.18v11.69h2.06v5.36h-10.9v-2.16c-2.33,1.65-4.72,2.48-7.15,2.48-1.75,0-3.25-.56-4.5-1.67-1.27-1.11-1.9-3.21-1.9-6.29v-4.04Z"/><path class="am" d="M901.21,568.91v5.24c-.57,.39-1.41,.73-2.5,1.02-1.15,.3-2.25,.46-3.3,.46-1.32,0-2.46-.22-3.41-.65-.97-.45-1.71-1.04-2.2-1.79-.27-.43-.47-.83-.6-1.19s-.22-.76-.28-1.2c-.08-.77-.12-2.27-.12-4.48v-2.87h-2.18v-5.36h2.18v-2.62l8.84-4.2v6.82h3.57v5.36h-3.57v3.3c0,1.08,.1,1.8,.3,2.16,.19,.36,.59,.54,1.2,.54,.57,0,1.27-.18,2.07-.54Z"/><path class="am" d="M926.7,568.91v5.24c-.57,.39-1.41,.73-2.5,1.02-1.15,.3-2.25,.46-3.3,.46-1.32,0-2.46-.22-3.41-.65-.97-.45-1.71-1.04-2.2-1.79-.27-.43-.47-.83-.6-1.19s-.22-.76-.28-1.2c-.08-.77-.12-2.27-.12-4.48v-2.87h-2.18v-5.36h2.18v-2.62l8.84-4.2v6.82h3.57v5.36h-3.57v3.3c0,1.08,.1,1.8,.3,2.16,.19,.36,.59,.54,1.2,.54,.57,0,1.27-.18,2.07-.54Z"/><path class="am" d="M942.31,575.13h-13.46v-5.36h2.23v-13.73h-2.23v-5.36h11.07v9.46c2.36-1.58,4.67-2.37,6.94-2.37,2,0,3.59,.58,4.76,1.74,1.17,1.17,1.76,3.24,1.76,6.21v4.06h2v5.36h-10.85v-6.98c0-2.12-.12-3.45-.37-3.99-.26-.54-.8-.81-1.62-.81s-1.73,.3-2.64,.9v5.52h2.39v5.36Z"/><path class="am" d="M969.89,575.13h-12.08v-5.36h1.76v-6.33h-1.76v-5.36h10.6v11.69h1.48v5.36Zm-11.06-21.87c0-.93,.47-1.67,1.42-2.23,.94-.56,2.1-.84,3.48-.84s2.56,.29,3.43,.88c.86,.6,1.28,1.32,1.28,2.18,0,.93-.45,1.66-1.34,2.2-.9,.55-2.04,.83-3.41,.83s-2.55-.25-3.48-.76c-.93-.49-1.39-1.24-1.39-2.25Z"/><path class="am" d="M978.75,575.34h-5.47v-5.41h5.12c1.31,1.38,2.75,2.07,4.31,2.07s2.36-.32,2.36-.97c0-.33-.17-.58-.51-.76-.35-.19-1.28-.46-2.79-.83-1.22-.33-2.57-.71-4.04-1.14-1.28-.36-2.29-.82-3.02-1.37-.76-.55-1.27-1.09-1.53-1.62-.28-.53-.42-1.22-.42-2.07,0-1.89,.67-3.28,2-4.17,1.32-.88,3.01-1.32,5.04-1.32s3.88,.4,5.31,1.2v-.88h5.4v4.96h-4.99c-1.24-1.18-2.72-1.78-4.43-1.78-1.35,0-2.02,.36-2.02,1.07,0,.34,.2,.56,.6,.67,.34,.11,1.46,.36,3.38,.76,2.17,.46,3.86,.91,5.08,1.37,1.21,.46,2.12,1.06,2.72,1.81,.6,.75,.9,1.67,.9,2.76,0,1.97-.73,3.42-2.2,4.36-1.45,.93-3.25,1.39-5.38,1.39s-3.92-.39-5.4-1.16v1.05Z"/><path class="am" d="M1017.45,568.91v5.24c-.57,.39-1.41,.73-2.5,1.02-1.15,.3-2.25,.46-3.3,.46-1.32,0-2.46-.22-3.41-.65-.97-.45-1.71-1.04-2.2-1.79-.27-.43-.47-.83-.6-1.19s-.22-.76-.28-1.2c-.08-.77-.12-2.27-.12-4.48v-2.87h-2.18v-5.36h2.18v-2.62l8.84-4.2v6.82h3.57v5.36h-3.57v3.3c0,1.08,.1,1.8,.3,2.16,.19,.36,.59,.54,1.2,.54,.57,0,1.27-.18,2.07-.54Z"/><path class="am" d="M1032.13,575.13h-12.08v-5.36h1.76v-6.33h-1.76v-5.36h10.6v11.69h1.48v5.36Zm-11.06-21.87c0-.93,.47-1.67,1.42-2.23,.94-.56,2.1-.84,3.48-.84s2.56,.29,3.43,.88c.86,.6,1.28,1.32,1.28,2.18,0,.93-.45,1.66-1.34,2.2-.9,.55-2.04,.83-3.41,.83s-2.55-.25-3.48-.76c-.93-.49-1.39-1.24-1.39-2.25Z"/><path class="am" d="M1048.34,575.13h-13.36v-5.36h2.11v-6.33h-2.14v-5.36h11v2.34c.84-.71,1.95-1.34,3.32-1.86,1.36-.53,2.66-.79,3.9-.79,2.89,0,4.83,1.11,5.82,3.34,2.61-2.23,5.28-3.34,8-3.34,1.49,0,2.71,.32,3.67,.95,.98,.64,1.68,1.5,2.07,2.57,.41,1.1,.62,2.65,.62,4.64v3.85h2.25v5.36h-11.09v-7.33c0-1.91-.15-3.1-.44-3.57s-.82-.7-1.58-.7c-.96,0-1.93,.36-2.9,1.09v5.15h2.41v5.36h-11.25v-7.29c0-1.88-.13-3.06-.39-3.57-.26-.49-.78-.74-1.56-.74-.9,0-1.85,.36-2.85,1.09v5.15h2.39v5.36Z"/><path class="am" d="M1092.39,569.73l7.29,.9c-.33,.76-.79,1.44-1.37,2.05s-1.3,1.13-2.14,1.57c-1.7,.91-3.73,1.37-6.1,1.37-3.97,0-6.96-.83-8.96-2.48-2-1.64-3.01-3.79-3.01-6.45s.99-4.77,2.97-6.5c1.96-1.73,4.61-2.6,7.96-2.6s5.85,.82,7.88,2.46c1.99,1.63,3.05,4.11,3.18,7.44h-13.43c.04,2.77,1.07,4.15,3.09,4.15,1.22,0,2.1-.63,2.64-1.9Zm-5.62-4.46h4.97c.02-.35,.04-.55,.04-.6,0-.93-.23-1.69-.7-2.3-.47-.6-1.09-.9-1.86-.9s-1.41,.33-1.83,.98c-.42,.67-.63,1.49-.63,2.46,0,.13,0,.25,.02,.35Z"/><path class="am" d="M1122.69,575.13h-11.07v-5.36h2.23v-13.73h-2.27v-5.36h11.11v8.49c1.5-.94,3.32-1.41,5.47-1.41,2.71,0,4.95,.77,6.71,2.32s2.65,3.65,2.65,6.31c0,1.31-.21,2.5-.64,3.57s-1.07,2.03-1.92,2.88c-1.7,1.73-3.83,2.6-6.4,2.6-2.27,0-4.23-.49-5.87-1.46v1.14Zm-.07-8.6c0,2.57,1.02,3.85,3.06,3.85,1.93,0,2.9-1.28,2.9-3.83,0-1.22-.27-2.15-.81-2.79-.54-.63-1.26-.95-2.16-.95-.96,0-1.7,.35-2.21,1.04-.52,.71-.77,1.61-.77,2.69Z"/><path class="am" d="M1155.04,569.73l7.29,.9c-.33,.76-.79,1.44-1.37,2.05s-1.3,1.13-2.14,1.57c-1.7,.91-3.73,1.37-6.1,1.37-3.97,0-6.96-.83-8.96-2.48-2-1.64-3.01-3.79-3.01-6.45s.99-4.77,2.97-6.5c1.96-1.73,4.61-2.6,7.96-2.6s5.85,.82,7.88,2.46c1.99,1.63,3.05,4.11,3.18,7.44h-13.43c.04,2.77,1.07,4.15,3.09,4.15,1.22,0,2.1-.63,2.64-1.9Zm-5.62-4.46h4.97c.02-.35,.04-.55,.04-.6,0-.93-.23-1.69-.7-2.3-.47-.6-1.09-.9-1.86-.9s-1.41,.33-1.83,.98c-.42,.67-.63,1.49-.63,2.46,0,.13,0,.25,.02,.35Z"/><path class="am" d="M1190.26,568.13l6.59,1.48c-.55,1.9-1.73,3.38-3.55,4.43-1.84,1.05-4.11,1.58-6.82,1.58-3.59,0-6.41-.81-8.47-2.43s-3.09-3.79-3.09-6.5,.96-4.76,2.88-6.43c1.91-1.66,4.31-2.5,7.19-2.5,2.44,0,4.32,.49,5.64,1.46v-1.14h5.4v7.28h-5.4c-.67-1.95-1.8-2.92-3.39-2.92-1.08,0-1.91,.42-2.5,1.25-.59,.86-.88,1.89-.88,3.11,0,1.32,.32,2.37,.95,3.13,.62,.76,1.43,1.14,2.43,1.14,1.64,0,2.65-.98,3.02-2.94Z"/><path class="am" d="M1206.44,562.84l-6.93-.7c.76-1.68,1.99-2.85,3.69-3.53,1.68-.68,4.15-1.02,7.42-1.02,1.21,0,2.29,.04,3.24,.11s1.81,.19,2.56,.34c1.56,.29,2.71,.74,3.46,1.35,.75,.62,1.27,1.29,1.56,2,.3,.74,.46,1.89,.46,3.45v4.92h2.18v5.36h-11.02v-1.16c-1.52,.98-3.56,1.48-6.12,1.48-2.4,0-4.21-.53-5.43-1.58-1.23-1.05-1.85-2.3-1.85-3.74,0-1.59,.76-2.9,2.27-3.92,1.5-1.02,3.46-1.53,5.87-1.53,2.2,0,3.96,.29,5.26,.86v-.51c0-1.05-.08-1.79-.23-2.21-.16-.45-.53-.83-1.09-1.14-.59-.3-1.27-.46-2.04-.46-1.42,0-2.51,.54-3.27,1.63Zm6.63,7.93v-3.11c-.79-.42-1.62-.63-2.5-.63-.77,0-1.39,.21-1.85,.63-.46,.43-.69,.98-.69,1.65s.23,1.25,.7,1.69c.48,.45,1.03,.67,1.65,.67,1.1,0,1.99-.3,2.67-.9Z"/><path class="am" d="M1239.99,575.13h-13.75v-5.36h2.32v-6.33h-2.32v-5.36h10.58v4.27c.4-1.07,1.01-1.99,1.85-2.76,.8-.76,1.61-1.26,2.43-1.49,.79-.22,1.94-.33,3.46-.33v7.51c-.2-.01-.45-.02-.74-.02-1.8,0-3.15,.18-4.03,.54-.91,.38-1.54,.87-1.86,1.48-.34,.63-.52,1.46-.53,2.5h2.58v5.36Z"/><path class="am" d="M1260.45,569.73l7.29,.9c-.33,.76-.79,1.44-1.37,2.05s-1.3,1.13-2.14,1.57c-1.7,.91-3.73,1.37-6.1,1.37-3.97,0-6.96-.83-8.96-2.48-2-1.64-3.01-3.79-3.01-6.45s.99-4.77,2.97-6.5c1.96-1.73,4.61-2.6,7.96-2.6s5.85,.82,7.88,2.46c1.99,1.63,3.05,4.11,3.18,7.44h-13.43c.04,2.77,1.07,4.15,3.09,4.15,1.22,0,2.1-.63,2.64-1.9Zm-5.62-4.46h4.97c.02-.35,.04-.55,.04-.6,0-.93-.23-1.69-.7-2.3-.47-.6-1.09-.9-1.86-.9s-1.41,.33-1.83,.98c-.42,.67-.63,1.49-.63,2.46,0,.13,0,.25,.02,.35Z"/><path class="am" d="M1284.82,575.13h-13.8v-5.36h2.16v-6.33h-2.16v-5.36h2.16v-.4c0-1.78,.38-3.21,1.14-4.29,.75-1.05,1.75-1.85,2.99-2.39,1.23-.54,3.26-.81,6.08-.81,1.27,0,2.51,.02,3.74,.07v4.76c-.83-.08-1.56-.12-2.2-.12-.81,0-1.44,.11-1.88,.32-.46,.22-.76,.52-.9,.9-.15,.35-.23,1.01-.23,1.97h3.27v5.36h-3.27v6.33h2.88v5.36Z"/><path class="am" d="M1289.11,563.44h-2.06v-5.36h10.9v8.12c0,1.37,.13,2.29,.39,2.76,.25,.48,.77,.72,1.58,.72,.98,0,1.9-.26,2.74-.79v-5.45h-2.34v-5.36h11.18v11.69h2.06v5.36h-10.9v-2.16c-2.33,1.65-4.72,2.48-7.15,2.48-1.75,0-3.25-.56-4.5-1.67-1.27-1.11-1.9-3.21-1.9-6.29v-4.04Z"/><path class="am" d="M1328.15,575.13h-12.22v-5.36h1.81v-13.73h-1.81v-5.36h10.65v19.09h1.56v5.36Z"/></g><g><path class="am" d="M439.1,328.72l-60.34,10.32-4.4-25.73,9.27-1.59-9.58-56.01-12.36,2.11,3.34,19.55-20.16,3.45-7.74-45.27,106.54-18.22,7.74,45.27-20.16,3.45-3.34-19.55-12.28,2.1,9.58,56.01,9.5-1.62,4.4,25.73Z"/><path class="am" d="M531.81,312.87l-56.55,9.67-4.4-25.73,8.11-1.39-9.58-56.01-8.27,1.41-4.4-25.73,56.71-9.7,4.4,25.73-6.88,1.18,2.8,16.38,24.88-4.25-2.8-16.38-6.95,1.19-4.4-25.73,56.63-9.68,4.4,25.73-8.11,1.39,9.58,56.01,8.11-1.39,4.4,25.73-56.63,9.68-4.4-25.73,6.95-1.19-3.01-17.62-24.88,4.25,3.01,17.62,6.88-1.18,4.4,25.73Z"/><path class="am" d="M650.95,292.5l-42.57,7.28-4.4-25.73,8.19-1.4,10.59-59.46-8.65,1.48-4.4-25.73,77.26-13.21,4.4,25.73-8.65,1.48,30.13,52.5,7.88-1.35,4.4,25.73-56.09,9.59-4.03-23.56,9.43-1.61-6.41-12.82-27.5,4.7-2.4,14.33,8.81-1.51,4.03,23.56Zm-3.59-81.93l-5.04,31.48,19.24-3.29-14.2-28.19Z"/><path class="am" d="M808.56,265.56l-60.34,10.32-4.4-25.73,9.27-1.59-9.58-56.01-12.36,2.11,3.34,19.55-20.16,3.45-7.74-45.27,106.54-18.22,7.74,45.27-20.16,3.45-3.34-19.55-12.28,2.1,9.58,56.01,9.5-1.62,4.4,25.73Z"/><path class="am" d="M868.98,255.23l-24.18,4.13-5.89-34.46,24.18-4.13c4.49,8.88,10.72,12.64,18.71,11.27,5.77-.99,8.26-3.8,7.46-8.43-.41-2.42-1.76-4.26-4.04-5.51-2.46-1.38-7.43-3.02-14.92-4.92-9.43-2.47-16.46-4.79-21.07-6.97-4.31-1.97-8.23-5.03-11.75-9.2-3.51-4.12-5.75-8.96-6.7-14.52-1.71-9.99,.2-18.35,5.73-25.07,5.48-6.71,12.93-10.88,22.36-12.49,9.43-1.61,17.87-.3,25.32,3.94l-1.14-6.64,24.34-4.16,5.23,30.6-24.03,4.11c-4.38-7.94-10.31-11.28-17.77-10-5.25,.9-7.5,3.59-6.73,8.07,.37,2.16,1.39,3.66,3.07,4.48,1.64,.89,6.72,2.59,15.27,5.1,11.46,3.45,19.17,6.08,23.14,7.89,2.01,.88,4.13,2.22,6.38,4.04,2.25,1.82,4.18,3.75,5.8,5.81,3.7,4.56,6.05,9.78,7.05,15.65,1.54,9.01-.5,17.21-6.13,24.59-5.61,7.48-13.52,12.09-23.72,13.84-9.48,1.62-18.53,.28-27.17-4.02l1.2,7.03Z"/><path class="am" d="M1060.29,173.77l29.57,5.04c-.41,11.89-4.23,22.22-11.48,30.99-7.34,8.84-18.56,14.54-33.65,17.12-20.6,3.52-36.77,.75-48.5-8.33-11.77-9.01-18.98-21.25-21.62-36.7s-.05-29.6,7.83-42.13c7.88-12.53,19.59-20.13,35.15-22.79,12.62-2.16,23.43-.8,32.43,4.08l-1.23-7.19,25.8-4.41,6.71,39.25-26.81,4.58c-2.23-4.65-5.23-8.12-9.01-10.39-3.77-2.22-7.77-2.97-11.99-2.24-11.64,1.99-15.75,13-12.32,33.04,3.43,20.09,11.18,29.1,23.23,27.04,10.56-1.81,15.86-10.79,15.9-26.97Z"/><path class="am" d="M1168.28,204.05l-58.41,9.99-4.4-25.73,8.73-1.49-9.58-56.01-8.73,1.49-4.4-25.73,58.41-9.99c5.25-.9,10.14-1.64,14.65-2.23,4.51-.58,8.39-.98,11.64-1.2,3.25-.21,6.26-.26,9.04-.15,7.79,.31,14.49,2.74,20.09,7.3,5.67,4.65,9.14,10.68,10.41,18.1,.95,5.56,.37,10.86-1.74,15.88-2.12,4.97-5.34,8.92-9.67,11.83l19.03,22.03,7.73-1.32,4.4,25.73-38.71,6.62-30.91-39.88-13.21,2.26,3.1,18.16,8.11-1.39,4.4,25.73Zm-22.46-82.52l3.5,20.47,4.64-.79c6.08-1.04,10.17-1.92,12.27-2.65,2.26-.76,4.04-2.12,5.34-4.09,1.32-1.87,1.75-4.2,1.27-6.98s-1.65-4.86-3.53-6.23c-1.89-1.43-4.1-2.11-6.63-2.05-2.43,.05-6.79,.6-13.07,1.68l-3.79,.65Z"/><path class="am" d="M1233.81,108.72l-8.27,1.41-4.4-25.73,55.01-9.4,4.4,25.73-5.1,.87,6.2,36.23c1.48,8.65,3.31,14.41,5.5,17.27,2.18,2.81,5.4,3.85,9.68,3.12,3.55-.61,5.9-2.36,7.05-5.26,1.16-2.85,1.05-8.26-.31-16.25l-6.63-38.78-5.41,.92-4.4-25.73,40.41-6.91,4.4,25.73-8.5,1.45,6.66,38.94c1.7,9.94,1.65,18.33-.15,25.15-1.81,6.78-5.76,12.51-11.85,17.21-6.09,4.7-14.03,7.88-23.81,9.56-7.88,1.35-15.02,1.59-21.43,.72-6.5-.8-11.88-2.79-16.13-5.99-4.25-3.14-7.68-7.25-10.3-12.31-2.64-4.9-4.88-12.74-6.72-23.5l-5.89-34.46Z"/><path class="am" d="M1459.94,154.19l-102.52,17.53-4.4-25.73,8.34-1.43-9.58-56.01-8.5,1.45-4.4-25.73,102.68-17.55,5.88,34.38-28.2,4.82-1.48-8.65-24.41,4.17,2.83,16.53,21.25-3.63,3.74,21.86-21.25,3.63,3.01,17.62,24.41-4.17-1.48-8.65,28.2-4.82,5.88,34.38Z"/><path class="am" d="M1576.83,134.2l-102.29,17.49-4.4-25.73,9.66-1.65-9.58-56.01-9.66,1.65-4.4-25.73,61.42-10.5,4.4,25.73-10.2,1.74,9.58,56.01,25.42-4.35-2.95-17.23,25.65-4.39,7.34,42.96Z"/></g><g><path id="b" class="j" d="M219.6,134.37c-1.16,.35-20.11,5.39-22.39,6.63,0,0,1.04-38.15,22.39-64.07,0,0-47.48-4.15-58.47,62.62,0,0-22.81,20.11-59.71,10.37,0,0,11.82,14.72,21.56,17.83,0,0,4.67,21.77,38.15,21.25,0,0-10.99,3.42-13.48,3.42h-9.02s.62,3.63-.62,4.98,.41,4.77,.41,4.77c0,0,1.87,1.66,1.76,3.94-.1,2.28,2.07,2.8,2.07,2.8,0,0,2.7,1.66,1.35,2.8s12.03-1.56,18.87-15.86l2.8-5.18s28.25,2.54,46.76-25.14c0,0,7.93-7.46,14.46-9.64,0,0,27.52,5.75,37.17-6.06l35.14-.86s-3.73-15.94-34.21-18.89c0,0-2.33-11.51-16.02-11.51s-21.15,11.66-21.15,11.66c0,0-3.41,2.8-7.83,4.15Z"/><path class="p" d="M155.01,172.13s14.94-68.59,51.02-90.98c0,0-24.73,5.43-33.33,27.79-4.87,11.39-9.11,22.04-11.57,30.61-3.62,6.25-4.59,19.24-6.12,32.58Z"/><path d="M155.01,172.13c-21.61,.4-56.24-19.12-53.6-22.21,36.91,9.75,59.71-10.37,59.71-10.37l-6.12,32.58Z"/><path class="g" d="M161.13,189s-10.99,3.42-13.48,3.42h-9.02s.62,3.63-.62,4.98,.41,4.77,.41,4.77c0,0,1.87,1.66,1.76,3.94-.1,2.28,2.07,2.8,2.07,2.8,0,0,2.7,1.66,1.35,2.8s12.03-1.56,18.87-15.86l2.8-5.18"/><path class="ag" d="M264.59,130.07s-2.33-11.51-16.02-11.51-21.15,11.66-21.15,11.66c0,0-3.41,2.8-7.83,4.15l6.89,21.51s27.52,5.75,37.17-6.06l.93-19.75s-2.33-11.51-16.02-11.51-21.15,11.66-21.15,11.66"/><path class="g" d="M263.66,149.82l35.14-.86s-3.73-15.94-34.21-18.89"/><path d="M197.2,141s1.04-38.15,22.39-64.07c0,0-47.42-4.28-58.47,62.62,4.63-12.99,18.31-54.77,44.99-55.98-13.65,20.03-13.06,38.88-8.92,57.43Z"/><path d="M221.58,158.24c-.87,.52-1.72,1.08-2.53,1.64-3.92,2.72-7.02,5.63-7.02,5.63-7.7-10.19-9.56-14.7-14.82-24.52,1.09-.59,5.98-2.05,10.92-3.45"/><path class="j" d="M238.62,133.53c0,6.68,4.56,12.09,10.19,12.09,13.51-.62,13.5-23.56,0-24.18-5.63,0-10.19,5.41-10.19,12.09Z"/><ellipse cx="253.1" cy="128.72" rx="2.74" ry="3.92"/><path class="h" d="M146.66,195.74c-.16,.05-8.35,1.21-8.35,1.21l-.76,1.95,9.11-3.16Z"/><path class="h" d="M147.65,198.9l-8.59,3.98s.67,.8,.88,1.6,7.71-5.58,7.71-5.58Z"/><path class="h" d="M141.19,208.06s1.01,.48,1.16,.79,9.28-6.97,9.28-6.97l-10.44,6.18Z"/><path class="i" d="M291.12,138.95c-6.47-5.11-16.32-7.89-26.53-8.88l-.13,2.69c7.78,0,16.29,1.15,26.66,6.18Z"/><path class="h" d="M264.11,140.29l-.45,9.52,34.94-.85c-12.16-5.38-30.13-8.07-34.49-8.67Z"/><path class="af" d="M201.76,177.33c-14.83,5.66-43.75,14.52-58.4,4.31-19.98-17.51-22.52-16.93-27.18-17.51,2.27,1.6,4.59,2.91,6.81,3.62,0,0,4.67,21.77,38.15,21.25l4.15,1.66s19.33,1.74,36.48-13.33Z"/><path class="a`" d="M220.25,136.41l8.96-4.14s9.18-14.27,28.26-11.58c-2.23-1.26-5.13-2.13-8.89-2.13-13.68,0-21.15,11.66-21.15,11.66,0,0-3.41,2.8-7.83,4.15l.65,2.04Z"/><path class="q" d="M225.36,152.35l1.13,3.53s27.52,5.75,37.17-6.06l.02-.51c-14.66,7.62-36.7,3.37-38.32,3.04Z"/><path class="h" d="M165.27,190.66l-1.05-.4c-6.49,12.81-16.62,17.2-21.85,18.75,.54,.36,2.34,1.66,1.23,2.7-1.24,1.15,12.4-1.91,18.91-15.92l2.77-5.13Z"/></g><g><path id="c" class="j" d="M318.16,437.19c-1.16,.35-20.11,5.39-22.39,6.63,0,0,1.04-38.15,22.39-64.07,0,0-47.48-4.15-58.47,62.62,0,0-22.81,20.11-59.71,10.37,0,0,11.82,14.72,21.56,17.83,0,0,4.67,21.77,38.15,21.25,0,0-10.99,3.42-13.48,3.42h-9.02s.62,3.63-.62,4.98c-1.24,1.35,.41,4.77,.41,4.77,0,0,1.87,1.66,1.76,3.94-.1,2.28,2.07,2.8,2.07,2.8,0,0,2.7,1.66,1.35,2.8s12.03-1.56,18.87-15.86l2.8-5.18s28.25,2.54,46.76-25.14c0,0,7.93-7.46,14.46-9.64,0,0,27.52,5.75,37.17-6.06l35.14-.86s-3.73-15.94-34.21-18.89c0,0-2.33-11.51-16.02-11.51s-21.15,11.66-21.15,11.66c0,0-3.41,2.8-7.83,4.15Z"/><path class="p" d="M253.57,474.95s14.94-68.59,51.02-90.98c0,0-24.73,5.43-33.33,27.79-4.87,11.39-9.11,22.04-11.57,30.61-3.62,6.25-4.59,19.24-6.12,32.58Z"/><path d="M253.57,474.95c-21.61,.4-56.24-19.12-53.6-22.21,36.91,9.75,59.71-10.37,59.71-10.37l-6.12,32.58Z"/><path class="g" d="M259.69,491.82s-10.99,3.42-13.48,3.42h-9.02s.62,3.63-.62,4.98c-1.24,1.35,.41,4.77,.41,4.77,0,0,1.87,1.66,1.76,3.94-.1,2.28,2.07,2.8,2.07,2.8,0,0,2.7,1.66,1.35,2.8s12.03-1.56,18.87-15.86l2.8-5.18"/><path class="ag" d="M363.15,432.89s-2.33-11.51-16.02-11.51-21.15,11.66-21.15,11.66c0,0-3.41,2.8-7.83,4.15l6.89,21.51s27.52,5.75,37.17-6.06l.93-19.75s-2.33-11.51-16.02-11.51-21.15,11.66-21.15,11.66"/><path class="g" d="M362.22,452.64l35.14-.86s-3.73-15.94-34.21-18.89"/><path d="M295.77,443.82s1.04-38.15,22.39-64.07c0,0-47.42-4.28-58.47,62.62,4.63-12.99,18.31-54.77,44.99-55.98-13.65,20.03-13.06,38.88-8.92,57.43Z"/><path d="M320.14,461.06c-.87,.52-1.72,1.08-2.53,1.64-3.92,2.72-7.02,5.63-7.02,5.63-7.7-10.19-9.56-14.7-14.82-24.52,1.09-.59,5.98-2.05,10.92-3.45"/><path class="j" d="M337.18,436.35c0,6.68,4.56,12.09,10.19,12.09,13.51-.62,13.5-23.56,0-24.18-5.63,0-10.19,5.41-10.19,12.09Z"/><ellipse cx="351.67" cy="431.54" rx="2.74" ry="3.92"/><path class="h" d="M245.23,498.56c-.16,.05-8.35,1.21-8.35,1.21l-.76,1.95,9.11-3.16Z"/><path class="h" d="M246.21,501.73l-8.59,3.98s.67,.8,.88,1.6,7.71-5.58,7.71-5.58Z"/><path class="h" d="M239.76,510.88s1.01,.48,1.16,.79,9.28-6.97,9.28-6.97l-10.44,6.18Z"/><path class="i" d="M389.68,441.77c-6.47-5.11-16.32-7.89-26.53-8.88l-.13,2.69c7.78,0,16.29,1.15,26.66,6.18Z"/><path class="h" d="M362.67,443.12l-.45,9.52,34.94-.85c-12.16-5.38-30.13-8.07-34.49-8.67Z"/><path class="af" d="M300.32,480.15c-14.83,5.66-43.75,14.52-58.4,4.31-19.98-17.51-22.52-16.93-27.18-17.51,2.27,1.6,4.59,2.91,6.81,3.62,0,0,4.67,21.77,38.15,21.25l4.15,1.66s19.33,1.74,36.48-13.33Z"/><path class="a`" d="M318.81,439.23l8.96-4.14s9.18-14.27,28.26-11.58c-2.23-1.26-5.13-2.13-8.89-2.13-13.68,0-21.15,11.66-21.15,11.66,0,0-3.41,2.8-7.83,4.15l.65,2.04Z"/><path class="q" d="M323.92,455.17l1.13,3.53s27.52,5.75,37.17-6.06l.02-.51c-14.66,7.62-36.7,3.37-38.32,3.04Z"/><path class="h" d="M263.84,493.48l-1.05-.4c-6.49,12.81-16.62,17.2-21.85,18.75,.54,.36,2.34,1.66,1.23,2.7-1.24,1.15,12.4-1.91,18.91-15.92l2.77-5.13Z"/></g><g><path id="d" class="j" d="M1687.18,110.2c-1.16,.35-20.11,5.39-22.39,6.63,0,0,1.04-38.15,22.39-64.07,0,0-47.48-4.15-58.47,62.62,0,0-22.81,20.11-59.71,10.37,0,0,11.82,14.72,21.56,17.83,0,0,4.67,21.77,38.15,21.25,0,0-10.99,3.42-13.48,3.42h-9.02s.62,3.63-.62,4.98,.41,4.77,.41,4.77c0,0,1.87,1.66,1.76,3.94s2.07,2.8,2.07,2.8c0,0,2.7,1.66,1.35,2.8s12.03-1.56,18.87-15.86l2.8-5.18s28.25,2.54,46.76-25.14c0,0,7.93-7.46,14.46-9.64,0,0,27.52,5.75,37.17-6.06l35.14-.86s-3.73-15.94-34.21-18.89c0,0-2.33-11.51-16.02-11.51s-21.15,11.66-21.15,11.66c0,0-3.41,2.8-7.83,4.15Z"/><path class="p" d="M1622.59,147.97s14.94-68.59,51.02-90.98c0,0-24.73,5.43-33.33,27.79-4.87,11.39-9.11,22.04-11.57,30.61-3.62,6.25-4.59,19.24-6.12,32.58Z"/><path d="M1622.59,147.97c-21.61,.4-56.24-19.12-53.6-22.21,36.91,9.75,59.71-10.37,59.71-10.37l-6.12,32.58Z"/><path class="g" d="M1628.71,164.84s-10.99,3.42-13.48,3.42h-9.02s.62,3.63-.62,4.98,.41,4.77,.41,4.77c0,0,1.87,1.66,1.76,3.94s2.07,2.8,2.07,2.8c0,0,2.7,1.66,1.35,2.8s12.03-1.56,18.87-15.86l2.8-5.18"/><path class="ag" d="M1732.17,105.9s-2.33-11.51-16.02-11.51-21.15,11.66-21.15,11.66c0,0-3.41,2.8-7.83,4.15l6.89,21.51s27.52,5.75,37.17-6.06l.93-19.75s-2.33-11.51-16.02-11.51-21.15,11.66-21.15,11.66"/><path class="g" d="M1731.24,125.65l35.14-.86s-3.73-15.94-34.21-18.89"/><path d="M1664.78,116.84s1.04-38.15,22.39-64.07c0,0-47.42-4.28-58.47,62.62,4.63-12.99,18.31-54.77,44.99-55.98-13.65,20.03-13.06,38.88-8.92,57.43Z"/><path d="M1689.16,134.08c-.87,.52-1.72,1.08-2.53,1.64-3.92,2.72-7.02,5.63-7.02,5.63-7.7-10.19-9.56-14.7-14.82-24.52,1.09-.59,5.98-2.05,10.92-3.45"/><path class="j" d="M1706.2,109.36c0,6.68,4.56,12.09,10.19,12.09,13.51-.62,13.5-23.56,0-24.18-5.63,0-10.19,5.41-10.19,12.09Z"/><ellipse cx="1720.69" cy="104.55" rx="2.74" ry="3.92"/><path class="h" d="M1614.25,171.58c-.16,.05-8.35,1.21-8.35,1.21l-.76,1.95,9.11-3.16Z"/><path class="h" d="M1615.23,174.74l-8.59,3.98s.67,.8,.88,1.6,7.71-5.58,7.71-5.58Z"/><path class="h" d="M1608.78,183.89s1.01,.48,1.16,.79,9.28-6.97,9.28-6.97l-10.44,6.18Z"/><path class="i" d="M1758.7,114.78c-6.47-5.11-16.32-7.89-26.53-8.88l-.13,2.69c7.78,0,16.29,1.15,26.66,6.18Z"/><path class="h" d="M1731.69,116.13l-.45,9.52,34.94-.85c-12.16-5.38-30.13-8.07-34.49-8.67Z"/><path class="af" d="M1669.34,153.17c-14.83,5.66-43.75,14.52-58.4,4.31-19.98-17.51-22.52-16.93-27.18-17.51,2.27,1.6,4.59,2.91,6.81,3.62,0,0,4.67,21.77,38.15,21.25l4.15,1.66s19.33,1.74,36.48-13.33Z"/><path class="a`" d="M1687.83,112.24l8.96-4.14s9.18-14.27,28.26-11.58c-2.23-1.26-5.13-2.13-8.89-2.13-13.68,0-21.15,11.66-21.15,11.66,0,0-3.41,2.8-7.83,4.15l.65,2.04Z"/><path class="q" d="M1692.94,128.18l1.13,3.53s27.52,5.75,37.17-6.06l.02-.51c-14.66,7.62-36.7,3.37-38.32,3.04Z"/><path class="h" d="M1632.85,166.5l-1.05-.4c-6.49,12.81-16.62,17.2-21.85,18.75,.54,.36,2.34,1.66,1.23,2.7-1.24,1.15,12.4-1.91,18.91-15.92l2.77-5.13Z"/></g><g><path class="ae" d="M1359.81,256.08s-6.78,3.45-8.4,3.72l-5.87,1s.81,2.29,.15,3.31,.8,3.06,.8,3.06c0,0,1.4,.87,1.58,2.37,.19,1.5,1.66,1.59,1.66,1.59,0,0,1.94,.78,1.19,1.67s7.66-2.35,10.53-12.42l1.25-3.69"/><path class="j" d="M1360.66,208l5.5,18.25s2.42,21.77,19.79,40.04c0,0-12.28-2.16-17.18-6.82-12.72,5-48.47-9.81-27.02-52.27,0,0,1.8-6.96,.98-11.44l15.45,.86c.16,.78,2.47,9.65,2.47,11.37"/><path d="M1385.95,266.3c-15.2-21.81-17.49-41.94-25.45-58.92l-12.07,.34c-8.86,27.39,21.94,53.68,37.52,58.58Z"/><g class="o"/><path class="g" d="M1343.02,192.92l-23.34,4.72s.07-11.09,19.75-17.63"/><path class="ag" d="M1360,192.25s-1.42,2.45-1.73,5.27l-15.36-.8s-7.57-15.42-.95-22.94c4.79-6.12,21.59-6.72,23,4.16,1.07,8.25-4.97,14.31-4.97,14.31"/><path d="M1342.93,199.37c-.03,.67-.08,1.34-.15,1.99-.33,3.13-1.03,5.85-1.03,5.85,8.34,1.22,11.55,.87,18.91,.79,0-.82-.71-4.11-1.47-7.42"/><path class="j" d="M1349.82,172.52c4.52-.08,8.24,2.95,8.31,6.76-.26,9.16-15.8,9.42-16.38,.28-.07-3.81,3.55-6.96,8.07-7.04Z"/><ellipse cx="1346.34" cy="178.19" rx="2.62" ry="1.8" transform="translate(1061.68 1506.11) rotate(-85.44)"/><path class="h" d="M1351.18,261.99c-.1,.05-5.33,1.64-5.33,1.64l-.3,1.35,5.63-2.99Z"/><path class="o" d="M1339.98,210.94c-16.58,37.37,12.78,51.75,26.51,49.17-32.86-3.14-28.76-37.83-26.51-49.17Z"/><path class="h" d="M1352.13,264.02l-5.15,3.54s.53,.44,.75,.95,4.4-4.49,4.4-4.49Z"/><path class="h" d="M1348.94,270.7s.71,.2,.84,.39,5.27-5.57,5.27-5.57l-6.11,5.18Z"/><path class="g" d="M1364.23,258.03s-6,4.66-7.54,5.24l-5.58,2.09s1.23,2.1,.77,3.22c-.46,1.12,1.36,2.85,1.36,2.85,0,0,1.54,.59,2,2.03,.46,1.43,1.93,1.25,1.93,1.25,0,0,2.05,.4,1.48,1.42-.57,1.02,7.08-3.75,7.99-14.18l.53-3.85"/><path class="h" d="M1356.88,265.54c-.09,.07-4.93,2.61-4.93,2.61l-.04,1.38,4.96-3.99Z"/><path class="h" d="M1358.19,267.28l-4.39,4.45s.6,.34,.91,.79,3.48-5.24,3.48-5.24Z"/><path class="h" d="M1356.32,274.44s.74,.06,.9,.22,4.13-6.46,4.13-6.46l-5.02,6.24Z"/><path class="a`" d="M1356.98,197.45l1.32-6.04s7.54-7.68,3.1-19.6c1.33,.95,2.83,2.57,3.36,4.99,1.95,8.83-4.77,15.45-4.77,15.45,0,0-1.48,2.23-1.73,5.27l-1.3-.07Z"/><path class="i" d="M1323.56,189.5c4.19-4.61,9.34-7.2,15.78-9.49l-.08,1.76c-4.47,1.14-9.85,3.15-15.69,7.73Z"/><path class="h" d="M1339.78,187.21c.37,1.93,.96,3.95,1.7,6.05l-21.81,4.39c7.09-5.19,17.37-9.43,20.1-10.43Z"/><path class="q" d="M1339.46,179.47c-1.22,7.73,3.46,17.25,3.46,17.25l2.97,.15c-4.81-2.55-6.09-12.11-6.43-17.41Z"/><path class="h" d="M1367.18,258.09h-.67c-1.12,9.41-6.33,14.5-9.23,16.65,.41,.1,1.86,.52,1.37,1.39-.57,1.02,7.08-3.75,7.99-14.18l.53-3.85Z"/><path class="ae" d="M1359.45,255.25s-6.78,3.45-8.4,3.72l-5.87,1s.81,2.29,.15,3.31,.8,3.06,.8,3.06c0,0,1.4,.87,1.58,2.37s1.66,1.59,1.66,1.59c0,0,1.94,.78,1.19,1.67s7.66-2.35,10.53-12.42l1.25-3.69"/><path class="j" d="M1360.3,207.17l5.5,18.25s2.42,21.77,19.79,40.04c0,0-12.28-2.16-17.18-6.82-12.72,5-48.47-9.81-27.02-52.27,0,0,1.8-6.96,.98-11.44l15.45,.86c.16,.78,2.47,9.65,2.47,11.37"/><path d="M1385.59,265.47c-15.2-21.81-17.49-41.94-25.45-58.92l-12.07,.34c-8.86,27.39,21.94,53.68,37.52,58.58Z"/><g class="o"/><path class="g" d="M1342.66,192.09l-23.34,4.72s.07-11.09,19.75-17.63"/><path class="ag" d="M1359.64,191.42s-1.42,2.45-1.73,5.27l-15.36-.8s-7.57-15.42-.95-22.94c4.79-6.12,21.59-6.72,23,4.16,1.07,8.25-4.97,14.31-4.97,14.31"/><path d="M1342.57,198.54c-.03,.67-.08,1.34-.15,1.99-.33,3.13-1.03,5.85-1.03,5.85,8.34,1.22,11.55,.87,18.91,.79,0-.82-.71-4.11-1.47-7.42"/><path class="j" d="M1349.46,171.69c4.52-.08,8.24,2.95,8.31,6.76-.26,9.16-15.8,9.42-16.38,.28-.07-3.81,3.55-6.96,8.07-7.04Z"/><ellipse cx="1345.98" cy="177.36" rx="2.62" ry="1.8" transform="translate(1062.18 1504.98) rotate(-85.44)"/><path class="h" d="M1350.82,261.16c-.1,.05-5.33,1.64-5.33,1.64l-.3,1.35,5.63-2.99Z"/><path class="o" d="M1339.62,210.11c-16.58,37.37,12.78,51.75,26.51,49.17-32.86-3.14-28.76-37.83-26.51-49.17Z"/><path class="h" d="M1351.77,263.19l-5.15,3.54s.53,.44,.75,.95,4.4-4.49,4.4-4.49Z"/><path class="h" d="M1348.58,269.87s.71,.2,.84,.39,5.27-5.57,5.27-5.57l-6.11,5.18Z"/><path class="g" d="M1363.87,257.2s-6,4.66-7.54,5.24l-5.58,2.09s1.23,2.1,.77,3.22,1.36,2.85,1.36,2.85c0,0,1.54,.59,2,2.03s1.93,1.25,1.93,1.25c0,0,2.05,.4,1.48,1.42s7.08-3.75,7.99-14.18l.53-3.85"/><path class="h" d="M1356.51,264.71c-.09,.07-4.93,2.61-4.93,2.61l-.04,1.38,4.96-3.99Z"/><path class="h" d="M1357.83,266.45l-4.39,4.45s.6,.34,.91,.79,3.48-5.24,3.48-5.24Z"/><path class="h" d="M1355.96,273.6s.74,.06,.9,.22,4.13-6.46,4.13-6.46l-5.02,6.24Z"/><path class="a`" d="M1356.62,196.62l1.32-6.04s7.54-7.68,3.1-19.6c1.33,.95,2.83,2.57,3.36,4.99,1.95,8.83-4.77,15.45-4.77,15.45,0,0-1.48,2.23-1.73,5.27l-1.3-.07Z"/><path class="i" d="M1323.2,188.67c4.19-4.61,9.34-7.2,15.78-9.49l-.08,1.76c-4.47,1.14-9.85,3.15-15.69,7.73Z"/><path class="h" d="M1339.42,186.38c.37,1.93,.96,3.95,1.7,6.05l-21.81,4.39c7.09-5.19,17.37-9.43,20.1-10.43Z"/><path class="q" d="M1339.1,178.64c-1.22,7.73,3.46,17.25,3.46,17.25l2.97,.15c-4.81-2.55-6.09-12.11-6.43-17.41Z"/><path class="h" d="M1366.82,257.26h-.67c-1.12,9.41-6.33,14.5-9.23,16.65,.41,.1,1.86,.52,1.37,1.39-.57,1.02,7.08-3.75,7.99-14.18l.53-3.85Z"/></g><g><path class="j" d="M1529.78,837.46c10.55-5.32,22.57-9.63,35.93-13l-1.06-11.29-2.03-6.98-17.73,3.66c-9.77,2.88-13.7-10.37-3.46-13.46,36.49-16.7,91.66-20.24,161.12-13.69l36.81,6.1c13.89,2.84,10.45,19.69-3.45,16.84l-27.67-6.43s-3.6,15.5-4.62,18.1h0l23.09,2.78c13.66,2.19,9.41,19.39-4.25,17.2l-27.17-5.14c-64.67-11.1-162.73,18.75-162.73,18.75-10.24,3.78-13.24-9.53-2.77-13.44Z"/><path class="ai" d="M1618.9,834.38c-1.2-1.01-1.92-2.17-2.03-3.44-.49-5.45,10.24-10.88,23.98-12.13,13.74-1.25,25.27,2.16,25.77,7.61,.16,1.71-.8,3.42-2.6,5-14.83-.11-30.25,1.08-45.11,2.96Z"/><path class="r" d="M1525.67,850.55c84.63-43.06,190.44-19.89,206.67-15.94-2.17,2.11-5.55,3.38-9.89,2.68l-27.17-5.14c-64.67-11.1-162.73,18.75-162.73,18.75-2.94,1.09-5.28,.76-6.88-.35Z"/><path class="r" d="M1544.88,809.85c-3.41,1-6.11,.04-7.74-1.77,13.17-3.44,27.1-4.37,27.1-4.37l-5.69,3.32-13.67,2.82Z"/><path class="r" d="M1735.91,805.64l-25.83-6-3.29-2.74c13.44,.31,29.51,4.6,38.18,7.23-2.1,1.55-5.17,2.3-9.06,1.5Z"/><path class="aj" d="M1734.47,835.15s.06-.07,.09-.11c2.38-2.92,3.07-6.79,1.8-10.11-.79-2.08-3.07-5.73-9.36-6.74l-20.87-2.51c1.08-3.85,2.73-10.75,3.53-14.16l25.8,5.99c3.75,.77,7.11,.33,9.77-1.25,2.46-1.47,4.13-3.78,4.69-6.53,.56-2.74-.06-5.53-1.75-7.85-1.83-2.5-4.75-4.22-8.45-4.98l-37.01-6.13c-73.48-6.92-126.47-2.41-161.98,13.8-6.19,1.93-8.16,7.21-6.9,11.46,1.23,4.13,5.57,7.39,11.51,5.68l17.26-3.44,1.8,14.42c-12.92,3.36-25.34,7.94-35.4,13-6.56,2.5-8.79,8.51-7.16,12.9,1.35,3.63,5.37,6.31,11.32,4.14,2.67-.8,98.9-29.48,161.8-18.68l27.13,5.13c5.08,.82,9.56-.66,12.38-4.04Zm-27.68-38.25l-.44,1.88c-.99,4.27-3.74,15.81-4.54,17.84l-.91,2.32,25.56,3.08c3.17,.51,5.44,2.04,6.3,4.3,.78,2.03,.32,4.45-1.19,6.31-1.9,2.37-5.13,3.37-8.82,2.78l-27.11-5.13c-64.41-11.05-162.67,18.5-163.65,18.8l-.11,.04c-3.12,1.15-5.58,.44-6.43-1.85-.97-2.6,.45-6.29,5-7.99l.19-.08c10.25-5.16,22.2-9.49,35.53-12.85l1.6-.4-2.53-22.37-20.91,4.45c-3.74,1.1-6.11-.75-6.81-3.06-.73-2.45,.36-5.47,4.45-6.71l.25-.09c34.39-15.74,88.24-20.29,160.07-13.53l36.74,6.09c5.79,1.19,7.77,5.12,7.13,8.27-.34,1.67-1.37,3.08-2.89,3.99-1.83,1.09-4.24,1.36-6.98,.8l-29.5-6.85Z"/><g><path class="j" d="M1564.66,821.46c-9.18,4.24-13.67-11.59-1.64-11.48"/><path class="ai" d="M1563.18,810.65c-9.98,.38-5.72,8.18-5.72,8.18-1.97-6.6,5.91-6.78,5.91-6.78l-.19-1.39Z"/><path class="aj" d="M1560.16,809.13c.88-.21,1.84-.31,2.87-.3,.64,0,1.15,.53,1.14,1.16,0,.64-.53,1.14-1.16,1.14-2.96-.03-5.03,1.02-5.81,2.94-.75,1.85-.19,4.26,1.35,5.72,1.47,1.4,3.47,1.62,5.63,.62,.58-.27,1.26-.02,1.53,.56s.02,1.26-.56,1.53c-3.03,1.4-6.01,1.02-8.18-1.05-2.22-2.12-3-5.51-1.89-8.25,.84-2.08,2.64-3.49,5.09-4.07Z"/></g><g><path class="j" d="M1657.89,767.28c-.35-1.06-.95-2.56-1.95-4.19-1.32-2.16-2.78-3.66-6.12-6.54-5.29-4.56-5.35-4.03-7.58-6.28-2.54-2.56-4.02-4.82-5.79-7.54-2.75-4.21-4.26-6.52-5.28-10.05-.93-3.23-2.16-7.5-.11-11.79,1.82-3.8,5.19-5.5,6.37-6.1,6.93-3.76,12.56-1.88,14.77,6.22,1.43,4.52-.14,6.05,1.09,12.83,.4,2.22,.72,3.97,1.74,6.17,.88,1.91,1.73,2.94,5.99,7.84,4.5,5.18,5.09,5.8,6.31,7.34,2.32,2.92,3.97,5.44,4.96,7.03"/><path class="ak" d="M1667.72,756.83c-4.77-5.05-8.21-8.54-10.88-11.13-.65-.63-1.77-1.71-2.87-3.43-2.01-3.14-2.56-6.18-2.86-8.01-.14-.81-.08-.7-.48-8.3-.16-3.05-.25-4.61-.91-6.07-.24-.53-1.31-2.93-3.57-4.28-3.06-1.83-7.45-1.21-11.12,1.43l5.26-3.1,4.55-.64,4.43,1.55,2.46,4.66,1.05,4.69,.1,5.09,.33,4.19,2.19,7.53,12.35,15.15,.32,.57-.37,.09Z"/><path class="ai" d="M1655.6,760.47c-.15-.24,.72-1.1-1.07-3.59-.56-.56-1.91-2.26-4.64-4.33-3.11-2.36-5.72-4.86-6.5-5.64-4.58-4.56-6.11-9.83-6.87-11.51-1.2-2.65-2.44-6.53-1.55-10.51,1.52-6.78,10.59-9.79,12.11-10.7l-4.95-1.11-7.77,3.77-3.28,4.55-.71,5.95,.81,4.06,3.33,7.57,4.9,7.32,4.07,4.47,5.33,4.67,6.13,5.59,.66-.54Z"/><path class="aj" d="M1657.62,767.37c-1.07-2.51-2.5-4.83-4.4-6.69-1.91-1.87-4.09-3.58-6.2-5.31-1.59-1.33-3.39-2.45-4.92-3.9-2.58-2.41-4.65-5.32-6.55-8.26-1.5-2.31-3.11-4.6-4.31-7.24-.6-1.3-1.04-2.73-1.4-4.05-.79-2.76-1.32-5.76-.71-8.67,1.11-5.48,5.46-8.77,10.45-10.64,6.17-2.22,11.06,.49,13.19,6.54,.1,.32,.39,1.2,.49,1.54,.69,2.02,.75,4.46,.62,6.47-.14,2.72,.18,5.31,.71,7.99,.25,1.32,.58,2.58,1.07,3.78,.49,1.24,1.1,2.28,1.94,3.34,1.65,2.12,3.5,4.2,5.25,6.32l2.65,3.18c2.68,3.18,5.06,6.65,7.05,10.31l-.45,.28c-1.59-2.24-3.27-4.41-5.04-6.5-2.66-3.1-5.58-6.1-8.28-9.21-1.37-1.6-2.85-3.14-3.97-4.98-1.85-3.16-2.42-6.73-2.89-10.3-.38-2.68,.13-5.6-.28-8.19-1.24-6.22-4.46-10.91-11.31-8.48-5.78,2.2-9.93,6.16-9.2,12.77,.32,2.55,1.07,5.28,2.06,7.64,1.05,2.4,2.59,4.67,4.07,6.99,2.2,3.46,4.46,6.74,7.66,9.26,2.2,1.65,4.36,3.48,6.38,5.35,1.03,.94,2.03,1.92,2.97,2.98,1.9,2.15,3.2,4.77,3.9,7.48l-.54,.18h0Z"/><path class="aj" d="M1658.87,755.96c-8.74-7.19-15.75-16.58-20.13-27.14-.8-1.87,.08-4.04,1.96-4.82,1.87-.78,4.01,.1,4.79,1.97,1.33,5.25,3.06,10.44,5.65,15.34,2.43,4.73,5.49,9.19,9.06,13.29,.74,.87-.41,2.08-1.32,1.36h0Z"/><path class="j" d="M1688.5,754.17c14.05,5.27,18.05,17.47,14.44,29.03-4.24,11.22-11.41,19.15-21.52,23.78-15.19,8.28-45.57-14.93-36.39-36.23,4.36-9.82,15.91-26.55,43.47-16.59Z"/><path class="ai" d="M1702.7,769.18c-4.74-21.15-41.55-23.16-45.16-11.05,1.28-.79,30.37-12.52,44.87,11.19"/><path class="ak" d="M1701.44,783.42s-14.44,21.11-31.02,20.43c-16.59-.68-26.31-26.85-26.31-26.85,0,0-4.39,18.95,22.06,29,26.45,10.05,35.28-22.58,35.28-22.58Z"/><path class="aj" d="M1652.83,800.63c-7.68-7.01-14.09-18.67-9.02-30.41,4.8-10.82,17.05-27.45,45.14-17.3h.02c13.5,5.07,19.48,17.12,15.25,30.68l-.03,.07c-4.34,11.5-11.81,19.74-22.17,24.5-.2,.11-.39,.21-.59,.3-7.74,3.72-19.37,.56-28.59-7.85Zm28.03,5.14c9.72-4.46,16.72-12.19,20.82-23,3.75-12.09-1.6-22.82-13.64-27.34-26.05-9.41-37.36,5.91-41.78,15.86-4.5,10.44,1.37,20.99,8.38,27.37,8.51,7.76,19.5,10.78,26.15,7.15l.04-.02,.04-.02Z"/><ellipse cx="1688.52" cy="763.21" rx="2.34" ry="2.47" transform="translate(-163.98 806.12) rotate(-25.65)"/><ellipse cx="1684" cy="772.69" rx="2.47" ry="1.72" transform="translate(-20.27 1499.59) rotate(-47.75)"/><ellipse cx="1667.4" cy="781.61" rx="2.81" ry="2.97" transform="translate(-60.05 1419.61) rotate(-45.39)"/><path d="M1685.17,778.09c.06-.03,.11-.07,.15-.12,1.1-1.35,1.11-2.55,.86-3.39,.29,.06,.59,.08,.88,.04,.88-.12,1.71-.7,2.53-1.79,.15-.2,.11-.48-.09-.62-.2-.15-.48-.11-.62,.09-.67,.89-1.31,1.36-1.94,1.44-.5,.07-1-.1-1.55-.52l-.58,.67c.06,.06,1.46,1.5-.18,3.52-.15,.19-.13,.47,.07,.63,.14,.11,.32,.13,.47,.06Z"/><g id="e"><path class="j" d="M1651.72,771.13c-.23-.55-.92-1.23-2.42-2.58-1.97-1.78-3.9-2.85-8.13-4.75-6.69-3.01-6.59-2.46-9.52-4.06-3.33-1.82-5.49-3.66-8.1-5.86-4.03-3.42-6.25-5.3-8.33-8.55-1.91-2.98-4.42-6.91-3.64-11.85,.69-4.37,3.59-7.1,4.6-8.05,5.86-5.87,12.09-5.65,16.75,1.85,2.8,4.13,1.67,6.14,4.94,12.6,1.07,2.11,1.92,3.79,3.6,5.69,1.46,1.66,2.63,2.44,8.38,6.1,6.09,3.87,6.86,4.32,8.56,5.51,1.13,.8,3.56,2.62,4.47,3.37"/><path class="ai" d="M1652.04,771.13s1.23-3.67-12.44-10.82c-7.45-2.94-12.98-8.12-15.24-10.35-4.1-3.8-8.19-8.09-8.83-14.36-.52-7.62,7.98-13.46,7.98-13.46l-3.17,.42-6.47,6.58-1.83,4.62,.84,6.04,4.41,7.2,3.46,3.69,5.91,4.91,5.14,3.67,3.82,1.74,4.09,1.42,2.87,1.75,3.14,1.72,2.9,1.88,3.43,3.35Z"/><path class="aj" d="M1651.37,771.28c-.29-.52-.87-.97-1.33-1.39-1.53-1.38-3.18-2.55-5.05-3.45-3.74-1.8-7.65-3.33-11.57-4.74-4.02-1.64-7.51-4.37-10.72-7.12-2.13-1.81-4.35-3.58-6.31-5.79-3.67-4.49-7.22-10.21-5.87-16.27,1.06-5.34,6.8-11.35,12.31-12.38,5.8-1.07,10.24,3.99,12.51,8.72,.89,1.96,1.24,4.22,1.88,6.15,1.32,3.69,3.05,7.57,5.79,10.42,1.88,1.79,4.41,3.24,6.6,4.74,1.74,1.15,5.24,3.53,6.95,4.73,2.33,1.6,4.44,3.52,6.54,5.4,.13,.12,.14,.33,.02,.46-.11,.12-.28,.14-.41,.06-2.4-1.46-4.63-3.1-7.08-4.46-1.82-1.05-5.44-3.18-7.23-4.28-2.42-1.55-4.99-2.91-7.1-4.93-3.08-3.13-5.01-7.27-6.5-11.35-.85-2.5-1.13-4.93-2.51-7.12-1.9-3.18-4.96-6.73-9.04-5.96-2.51,.45-4.56,2.08-6.42,3.88-1.91,1.78-3.34,3.99-3.89,6.45-.94,3.9,.72,7.7,2.84,10.96,2.08,3.61,5.13,6.16,8.33,8.9,3.13,2.73,6.31,5.29,10.06,6.94,2.55,.99,5.25,2.13,7.73,3.35,3.22,1.49,6.41,3.3,8.81,5.98,.52,.56,1.04,1.05,1.37,1.8,.08,.2-.02,.42-.21,.5-.19,.08-.41-.01-.5-.2h0Z"/></g><path class="aj" d="M1647.41,760.33c-10.77-5.05-20.35-12.8-27.55-22.42-1.3-1.7-.97-4.13,.74-5.42,1.7-1.28,4.11-.94,5.39,.76,2.72,5,5.83,9.84,9.73,14.16,3.71,4.18,7.98,7.94,12.68,11.19,.99,.7,.12,2.23-.99,1.72h0Z"/><ellipse class="j" cx="1689.07" cy="762.6" rx=".7" ry="1.07" transform="translate(-40.07 1429.38) rotate(-45.39)"/><ellipse class="j" cx="1668.28" cy="780.51" rx=".7" ry="1.07" transform="translate(-59.01 1419.91) rotate(-45.39)"/></g></g><g><g><polygon class="ah" points="431.12 966.48 441.17 966.48 439.39 975.71 432.72 975.71 431.12 966.48"/><rect class="ad" x="424.65" y="882.1" width="23.06" height="6.81"/><path class="n" d="M447.71,888.57c-8.48-.31-16.35-.63-23.06-2.69v3.03h20.15l2.91-.06v-.29Z"/><path class="ad" d="M435.88,975.19s-.07,0-.1,0c-1.81-.05-3.26-1.51-3.31-3.32-.03-1.03,0-2.22,.05-3.57-.4-13.08-6.12-48.59-11.68-83.04-1.68-10.41-3.41-21.17-4.97-31.16l6.73-1.05c1.56,9.98,3.29,20.73,4.97,31.13,3.16,19.58,6.23,38.63,8.44,54.16,2.51-16.96,6.07-38,9.74-59.66,1.59-9.38,3.18-18.76,4.67-27.79l6.72,1.11c-1.5,9.03-3.09,18.42-4.68,27.81-6.14,36.26-12.47,73.67-13.14,88.7,.04,1.41,.02,2.61-.06,3.55-.15,1.77-1.63,3.12-3.39,3.12Z"/><path class="n" d="M421.09,853.28c3.9,26.93,9.53,55.95,14.91,84.91-2.21-15.5-5.27-34.49-8.42-54.01-1.68-10.4-3.41-21.15-4.97-31.13l-1.52,.24Z"/><path class="n" d="M457.16,852l-2.03-.34c-2.63,11.31-16.97,75.25-16.54,122.19,.39-.5,.64-1.11,.69-1.79,.08-.95,.1-2.14,.06-3.55,.67-15.02,7-52.43,13.14-88.7,1.59-9.39,3.18-18.78,4.68-27.81Z"/><path class="ah" d="M459.48,858.9h-47.54c-3.05,0-5.53-2.48-5.53-5.53s2.48-5.53,5.53-5.53h47.54c3.05,0,5.53,2.48,5.53,5.53s-2.48,5.53-5.53,5.53Z"/></g><g><polygon class="ah" points="584.63 958.98 595.97 958.98 593.97 969.41 586.43 969.41 584.63 958.98"/><rect class="ad" x="577.31" y="863.67" width="26.05" height="7.7"/><path class="n" d="M603.36,870.98c-9.58-.34-18.47-.71-26.05-3.04v3.43h22.76l3.29-.07v-.32Z"/><path class="ad" d="M590.01,968.82s-.08,0-.11,0c-2.04-.06-3.68-1.71-3.73-3.75-.03-1.16,0-2.51,.06-4.03-.45-14.78-6.92-54.89-13.19-93.8-1.89-11.76-3.85-23.91-5.62-35.2l7.6-1.19c1.76,11.27,3.72,23.42,5.61,35.17,3.56,22.12,7.03,43.64,9.53,61.18,2.84-19.16,6.86-42.92,11-67.39,1.79-10.6,3.59-21.19,5.28-31.39l7.59,1.26c-1.69,10.2-3.49,20.81-5.28,31.42-6.93,40.96-14.09,83.22-14.85,100.19,.04,1.6,.02,2.94-.07,4.01-.17,2-1.84,3.53-3.83,3.53Z"/><path class="n" d="M573.3,831.12c4.4,30.42,10.77,63.2,16.84,95.91-2.5-17.51-5.96-38.96-9.51-61.01-1.89-11.75-3.85-23.89-5.61-35.17l-1.72,.27Z"/><path class="n" d="M614.04,829.67l-2.29-.38c-2.97,12.77-19.17,85-18.69,138.02,.44-.57,.72-1.26,.78-2.02,.09-1.07,.11-2.41,.07-4.01,.76-16.97,7.91-59.22,14.85-100.19,1.8-10.61,3.59-21.21,5.28-31.42Z"/><path class="ah" d="M616.66,837.47h-53.7c-3.45,0-6.25-2.8-6.25-6.25s2.8-6.25,6.25-6.25h53.7c3.45,0,6.25,2.8,6.25,6.25s-2.8,6.25-6.25,6.25Z"/></g><path class="ak" d="M599.65,834.16s8.05,17.72-.87,22.93l.71,2.86s11.3-7.43,3.21-23.44l-.75-2.92-2.3,.57Z"/><path class="j" d="M511.73,885.77l-7.37,67.53,1.75,2.58,14.43,2.73,10.94,3.95,7.82,2.05,7.75,.53,5.39-2.28,3.65-4.56-.38-4.79-3.8-5.24-6.68-4.56-8.66-1.37,4.18-28.26,2.51-21.5,.91-15.04c-8.77,4.52-19.93,6.94-32.43,8.2Z"/><path class="j" d="M544.03,787.09c-8.42-3.17-17.49-5.91-24.68-6.44-5.41-1.22-20.15-1.22-35.64,2.24-6.37,0-61.07,21.31-63.03,45.31-6.82,22.14,2.05,24.27,2.05,24.27,0,0-8.03,14.58,5.07,22.22,13.1,7.63,14.41,5.35,23.07,3.53,8.66-1.82,6.55-18.8,6.55-18.8,10.25,4.71,6.52-5.17,6.52-5.17l-11.16-13.22,.84-5.54,18.72-9.46,2.51,.11-3.08,19.82-1.82,6.5-.99,16.29,.79,8.63,2.11,3.85,4.59,2.03,10.9,2.35,34.33,2.16,19.75-7.39,9.3-11.75,1.99-14.64-2.68-14.87-.57-11.62-5.46-40.42Z"/><polygon class="ak" points="540.87 881.48 534.02 940.12 537.11 939.61 544.17 879.16 540.87 881.48"/><path class="ak" d="M529.3,944.47s17.06,.53,20.37,6.63,2.57,9.05,2.57,9.05l-.1,1.25,3.26-.2-.24-11.3-9.22-6.6c-6.53,.11-12.67,.33-16.65,1.16Z"/><path class="ak" d="M511.86,885.23l-6.94,68.02,2.23,2.23,21.7,6,6.36,2.97,6.21-1.07s-13.03-6.63-22.44-7.87c-9.41-1.24-10.32-2.38-10.32-2.38-1.82-1.84,5.39-58.86,4.98-67.94l-1.78,.04Z"/><path class="ak" d="M476.04,820.39s3,14.33,1.15,21.96-4.38,20.85-4.38,20.85c0,0-1.64,10.02,2.73,15.7,4.37,5.67,19.56-.63,20.51-1.19,7.11-3.77,23.41-2.4,30.31-.95,0,0,16.08,1.14,25.19-12.99,0,0,.54,4.19-2.05,6.95-2.59,2.76-9.93,7.52-9.93,7.52,0,0-15.25,6.08-20.95,5.03-5.7-1.04-24.46-1.16-24.46-1.16,0,0-12.78,2.51-20.08,.69s-4.87-18.08-4.87-18.08l6.2-43.39"/><path class="aj" d="M546.02,968.29h-.13c-1.36-.04-13.38-.47-18.04-3.99-2.79-2.11-13.51-3.83-18.09-4.56-2.01-.32-3.08-.5-3.66-.65-2.93-.79-4.73-3.77-4.93-4.11l-.36-.63,7.21-68.89c.13-1.23,1.22-2.11,2.45-1.99,1.23,.13,2.12,1.23,1.99,2.45l-7.05,67.35c.46,.59,1.17,1.32,1.85,1.5,.38,.1,1.75,.32,3.21,.55,7.93,1.27,16.68,2.84,20.08,5.4,2.63,1.99,10.73,2.94,15.33,3.08,4.57-.47,8.29-2.99,9.08-6.16,.9-3.64-2.34-7.11-3.57-8.42-6.59-7.05-18.14-5.24-20.39-4.8-1.21,.23-2.38-.56-2.61-1.77-.23-1.21,.56-2.38,1.77-2.61,2.65-.51,16.3-2.63,24.5,6.14,1.51,1.62,6.12,6.55,4.64,12.54-1.26,5.09-6.54,8.93-13.12,9.55h-.13Z"/><path class="j" d="M505.88,885.74l-5.43,72.18-2.02,2.37-14.65,1.11-11.31,2.71-8,1.17-7.76-.33-5.11-2.86-3.12-4.93,.91-4.71,4.36-4.79,7.15-3.79,8.76-.4-1.01-28.55-.46-20.5,.77-15.05c8.21,5.46,24.53,6.14,36.93,6.37Z"/><path class="aj" d="M538.09,942.85c-.1,0-.21,0-.32-.02-1.22-.17-2.07-1.3-1.89-2.52,.07-.48,6.81-47.99,6.66-61.49-.01-1.23,.97-2.24,2.21-2.26,1.25-.02,2.24,.97,2.26,2.21,.15,13.84-6.43,60.2-6.71,62.17-.16,1.11-1.11,1.92-2.21,1.92Z"/><path class="ak" d="M505.77,884.96l-5.83,72.78-2.54,1.88-22.34,2.78-6.72,2.01-5.7-.27s13.56-6.36,23.05-6.22,10.56-.85,10.56-.85c2.07-1.56,6.86-63.2,8.58-72.12h.93Z"/><path class="aj" d="M510.35,886.67c-8.59,0-16.07-1.33-16.58-1.42-1.21-.22-2.02-1.38-1.8-2.59,.22-1.21,1.38-2.02,2.59-1.8,.2,.04,19.7,3.49,31-.84,1.15-.44,2.44,.13,2.88,1.28,.44,1.15-.13,2.44-1.28,2.88-4.96,1.9-11.13,2.48-16.81,2.48Z"/><path class="aj" d="M543.33,967.38c-1.21,0-2.21-.97-2.23-2.19-.05-2.53-1.75-5.5-2.41-6.43-.71-1.01-.46-2.4,.54-3.11,1.01-.71,2.4-.47,3.1,.54,.13,.18,3.13,4.48,3.22,8.91,.02,1.23-.95,2.25-2.19,2.28h-.05Z"/><path class="aj" d="M551.48,965.61s-.05,0-.07,0c-1.23-.04-2.2-1.07-2.16-2.3,.07-2.24-1.74-4.82-2.45-5.63-.81-.93-.71-2.34,.21-3.15,.92-.81,2.33-.72,3.14,.2,.38,.43,3.69,4.32,3.55,8.71-.04,1.21-1.03,2.16-2.23,2.16Z"/><path class="ak" d="M481.91,783.33s-43.74,25.12-48.91,31.5c-12.08,14.92-9.59,35.13-8.83,34.31l-3.34,1.33s-4.12-14.91,.66-24.36c4.79-9.46,4.33-9.17,4.33-9.17l6.1-7.01,21.42-13.27,26.97-13.99,1.6,.66Z"/><path class="ak" d="M424.97,852.72s-3.53,19.14,6.38,22.05v2.94s-12.76-4.48-8.77-21.97l.02-3.02h2.37Z"/><polygon class="ak" points="471.83 884.7 471.83 941.44 468.82 940.61 468.82 882.11 471.83 884.7"/><path class="ak" d="M475.78,945.75s-17.03-1.08-20.91,4.67c-3.87,5.75-3.42,8.77-3.42,8.77l-.02,1.26-3.23-.51,1.31-11.22,9.8-5.7,16.46,2.73Z"/><polygon class="ai" points="472.18 821.35 456.23 830.69 456.57 833.24 472.59 825.79 472.18 821.35"/><path class="aj" d="M463.15,968.3c-2.83,0-5.09-.17-5.63-.22l-.27-.04c-6.48-1.34-11.29-5.74-11.98-10.95-.81-6.12,4.32-10.51,6-11.95,9.11-7.79,22.45-4.18,25.03-3.38,1.18,.37,1.83,1.62,1.47,2.79-.37,1.18-1.62,1.83-2.79,1.47-2.19-.68-13.47-3.76-20.8,2.51-1.36,1.16-4.97,4.25-4.48,7.97,.43,3.24,3.85,6.16,8.34,7.13,4.58,.37,12.75,.33,15.58-1.35,3.66-2.18,12.53-2.76,20.55-3.14,1.47-.07,2.85-.13,3.24-.19,.72-.11,1.54-.8,2.07-1.35l6.11-72.09c.1-1.23,1.19-2.14,2.41-2.04,1.23,.1,2.14,1.18,2.04,2.41l-6.22,73.43-.38,.51c-.23,.31-2.36,3.08-5.35,3.54-.59,.09-1.68,.14-3.71,.24-4.63,.22-15.47,.73-18.48,2.52-3,1.78-8.51,2.17-12.74,2.17Z"/><path class="aj" d="M468.34,943.67c-1.19,0-2.18-.94-2.23-2.15-.07-1.94-1.8-47.66-.11-61.41,.15-1.22,1.27-2.09,2.49-1.94,1.22,.15,2.09,1.26,1.94,2.49-1.65,13.39,.13,60.22,.14,60.69,.05,1.23-.91,2.27-2.14,2.31-.03,0-.06,0-.09,0Z"/><path class="aj" d="M460.41,967.47c-.1,0-.2,0-.3-.02-1.22-.16-2.08-1.28-1.92-2.5,.58-4.39,4.04-8.33,4.19-8.5,.82-.92,2.23-1.01,3.15-.19,.92,.82,1.01,2.23,.19,3.15-.75,.85-2.77,3.62-3.1,6.13-.15,1.12-1.11,1.94-2.21,1.94Z"/><path class="aj" d="M452.52,964.81c-.06,0-.12,0-.18,0-1.23-.1-2.14-1.18-2.04-2.4,.35-4.38,4.08-7.88,4.5-8.26,.91-.83,2.32-.76,3.15,.15,.83,.91,.76,2.32-.15,3.15-.79,.73-2.88,3.09-3.06,5.32-.09,1.17-1.07,2.05-2.22,2.05Z"/><path class="ak" d="M493.33,837.69s38.11-2.92,46.24-.64c-4.83-7.69-39.44-7.62-46.24,.64Z"/><g><path class="ai" d="M472.49,846.39c1.65,.3,2.99,1.52,4.68,1.65,3.69,.28,6.66-4.41,10.31-6.01,6.94-2.75,11.44,5.3,6.45,11.59-1.43,1.69-3.44,2.8-4.59,4.71-1.47,2.45-1.11,5.39-1.13,8.13-.02,2.73-.93,6.15-3.38,7.17-3.12,1.3-5.67-2.4-8.88-1.99-3.11,.4-5.23,4.36-8.22,5.75"/><path class="v" d="M472.21,844.98c1.65,.3,2.99,1.52,4.68,1.65,3.69,.28,6.66-4.41,10.31-6.01,6.94-2.75,11.44,5.3,6.45,11.59-1.43,1.69-3.44,2.8-4.59,4.71-1.47,2.45-1.11,5.39-1.13,8.13s-.93,6.15-3.38,7.17c-3.12,1.3-5.67-2.4-8.88-1.99-3.11,.4-5.23,4.36-8.22,5.75"/></g><path class="aj" d="M473.64,886.01c-.33,0-.66-.07-.98-.23-1.37-.67-2.58-1.55-3.61-2.64-1.38-1.45-2.37-3.24-3.02-5.45-1.15-3.86-.75-7.16-.41-10.08l.06-.54c.49-4.2,.45-6.07,.41-7.72-.04-1.75-.07-3.26,.52-6.55,.64-3.53,1.39-5.96,2.12-8.31,.41-1.34,.84-2.72,1.25-4.3,1.52-5.91,2.11-12.28,1.76-18.92-.07-1.23,.88-2.28,2.11-2.35,1.24-.07,2.28,.88,2.35,2.11,.38,7.1-.26,13.92-1.89,20.27-.44,1.69-.88,3.13-1.31,4.52-.72,2.32-1.4,4.52-2,7.78-.52,2.84-.49,4.02-.45,5.65,.04,1.71,.09,3.83-.44,8.34l-.06,.55c-.31,2.61-.63,5.3,.25,8.28,.45,1.53,1.11,2.73,1.99,3.66,.66,.69,1.44,1.26,2.32,1.69,1.11,.54,1.57,1.88,1.03,2.98-.39,.79-1.18,1.25-2.01,1.25Z"/><g><path class="ai" d="M552,870.44c-2.89,1.07-6.29,2.1-8.9,.45-1.94-1.22-2.8-3.57-3.54-5.74l-3.88-11.49c-.86-2.56-1.74-5.26-1.25-7.91,.74-4.01,4.51-6.9,8.47-7.86,1.2-.29,3.48-.61,6.18-.89"/><path class="v" d="M551.23,868.02c-2.72,1-5.91,1.97-8.37,.42-1.83-1.15-2.64-3.35-3.33-5.4l-3.65-10.8c-.81-2.41-1.64-4.94-1.17-7.44,.7-3.77,4.24-6.48,7.96-7.39,1.2-.29,3.57-.62,6.33-.89,5.16,12.27,5.79,22.72,2.23,31.5Z"/></g><path class="aj" d="M539.57,881.13c-.94,0-1.81-.59-2.12-1.53-.39-1.17,.24-2.43,1.41-2.82,3.03-1.01,7.21-3.07,9.88-7.19,2.7-4.15,2.66-8.49,2.6-14.49-.06-6.08-1.33-11.15-2.1-14.17-.53-2.12-.97-3.47-1.4-4.77-.51-1.58-1-3.07-1.48-5.48-.82-4.18-1.1-8.47-.84-12.76,.08-1.23,1.14-2.17,2.37-2.09,1.23,.08,2.16,1.14,2.09,2.37-.25,3.91,.01,7.81,.76,11.62,.42,2.15,.83,3.39,1.34,4.96,.43,1.31,.91,2.8,1.48,5.06,.81,3.22,2.17,8.61,2.23,15.22,.06,6.27,.11,11.68-3.32,16.96-3.38,5.2-8.51,7.76-12.22,8.99-.23,.08-.47,.11-.7,.11Z"/><path class="aj" d="M455.09,837.72c-.84,0-1.65-.48-2.03-1.29-.52-1.12-.03-2.44,1.09-2.96l17.72-8.2c1.12-.52,2.44-.03,2.96,1.09,.52,1.12,.03,2.44-1.09,2.96l-17.72,8.2c-.3,.14-.62,.21-.94,.21Z"/><path class="aj" d="M443.46,883.49c-5.09,0-10.52-1.35-14.91-3.77l-.14-.08c-1.37-.76-3.08-1.7-4.83-3.52-4.83-5.01-5.59-11.72-5.37-16.47,.02-.5,.21-4.16,1-6.19-2.95-1.96-4.69-10.13-2.55-21.13,1.17-5.99,2.37-12.18,7.07-18.66,2.05-2.83,5.62-6.78,15.12-12.32,.7-.41,1.67-.98,2.84-1.68,9.75-5.79,32.58-19.34,44.41-22.41,1.19-.31,2.41,.41,2.72,1.6,.31,1.19-.41,2.41-1.6,2.72-11.22,2.91-34.49,16.72-43.25,21.92-1.18,.7-2.15,1.28-2.87,1.69-8.78,5.12-11.96,8.61-13.75,11.08-4.12,5.68-5.18,11.13-6.3,16.89-2,10.26-.1,15.43,.58,16.47,.85,.36,1.55,1.15,1.94,2.22,.44,1.2,.34,2.39-.24,3.26-.65,2.21-2.17,12.03,3.48,17.89,1.29,1.33,2.55,2.03,3.78,2.71l.14,.08c7.52,4.16,19.79,4.57,23.38-.87,1.53-2.32,2.16-6.49,1.47-9.69-.09-.4-.22-.93-.37-1.48-.76-2.97-1.26-4.93,.85-5.7,.64-.23,1.87-.39,2.95,1.19l.06,.09c.15,.2,.87,.64,1.86,.75,.51,.05,1.47,.06,2.19-.55,1.22-1.04,.79-3.21,.38-4.1-.32-.71-.82-1.13-.98-1.27-2.46-2.11-5.94-5.86-10.66-11.49l-.92-1.1,.62-1.3c1.7-3.54,.95-14.58,.09-20.71-.17-1.22,.68-2.35,1.9-2.52,1.23-.17,2.35,.68,2.52,1.9,.23,1.63,2.06,15.2,.05,21.86,4.09,4.83,7.21,8.18,9.3,9.97,.94,.81,1.66,1.75,2.15,2.82,1.26,2.79,1.31,6.9-1.55,9.34-1.49,1.27-3.48,1.83-5.61,1.59-.15-.02-.29-.04-.44-.06,.9,4.36,.03,9.65-2.14,12.93-2.77,4.21-8.32,6.09-14.35,6.09Zm-20.64-27.79h0Zm-2.94-3.36c-.16,.14-.28,.3-.36,.45,.11-.18,.23-.33,.36-.45Zm0,0h0Z"/><path class="aj" d="M433.43,879.94c-1.12,0-2.08-.84-2.21-1.97l-1.51-12.99c-.14-1.22,.73-2.33,1.96-2.47,1.23-.14,2.33,.73,2.47,1.96l1.51,12.99c.14,1.22-.73,2.33-1.96,2.47-.09,.01-.17,.01-.26,.01Z"/><path class="aj" d="M447.41,881.49c-1.08,0-2.04-.79-2.2-1.9l-2.21-14.53c-.18-1.22,.65-2.36,1.87-2.54,1.22-.19,2.36,.65,2.54,1.87l2.21,14.53c.18,1.22-.65,2.36-1.87,2.54-.11,.02-.23,.03-.34,.03Z"/><path class="aj" d="M422.58,853.89c-.9,0-1.75-.55-2.09-1.45-.43-1.15,.15-2.44,1.31-2.87l9.34-3.49c1.15-.43,2.44,.16,2.87,1.31,.43,1.15-.15,2.44-1.31,2.87l-9.34,3.49c-.26,.1-.52,.14-.78,.14Z"/><path class="j" d="M525.79,780.58c6.18-1.54,64.41,5.93,72.1,28.75,11.96,19.84,3.87,24.05,3.87,24.05,0,0,11.32,12.21,.45,22.78-10.87,10.57-12.69,8.68-21.54,9-8.84,.32-10.9-16.66-10.9-16.66-8.81,7.05-7.58-3.44-7.58-3.44l7.63-15.52-2.15-5.18-20.45-4.65-2.4,.72"/><path class="ak" d="M527.64,780.58s48.51,13.81,55.07,18.76c15.33,11.56,17.79,31.77,16.86,31.16l3.56,.48s.4-15.46-6.53-23.48c-6.93-8.02-6.42-7.85-6.42-7.85l-7.61-5.33-23.99-7.71-29.55-7.06-1.39,1.02Z"/><polygon class="ai" points="546.27 815.12 564 820.34 564.28 822.89 546.93 819.54 546.27 815.12"/><path class="aj" d="M566.8,826.88c.82-.2,1.48-.86,1.65-1.75,.23-1.21-.56-2.38-1.77-2.61l-19.17-3.68c-1.21-.23-2.38,.56-2.61,1.77-.23,1.21,.56,2.38,1.77,2.61l19.17,3.68c.33,.06,.65,.05,.96-.03Z"/><path class="aj" d="M589.14,868.48c4.94-1.23,9.88-3.85,13.56-7.27l.12-.11c1.15-1.07,2.58-2.39,3.84-4.58,3.48-6.03,2.59-12.72,1.23-17.28-.14-.48-1.21-3.99-2.46-5.77,2.38-2.61,2.11-10.96-2.63-21.12-2.58-5.53-5.24-11.24-11.36-16.4-2.67-2.25-7.09-5.22-17.64-8.3-.78-.23-1.85-.55-3.16-.94-10.86-3.26-36.29-10.9-48.51-11.02-1.23-.01-2.24,.98-2.25,2.21-.01,1.23,.98,2.24,2.21,2.25,11.59,.11,37.51,7.9,47.27,10.83,1.32,.4,2.4,.72,3.19,.95,9.75,2.84,13.68,5.47,16.02,7.43,5.37,4.52,7.71,9.55,10.19,14.87,4.42,9.47,3.82,14.95,3.41,16.13-.73,.55-1.23,1.49-1.35,2.63-.13,1.27,.25,2.4,1.02,3.1,1.16,1.99,5.01,11.15,.95,18.2-.93,1.6-1.99,2.59-3.01,3.54l-.12,.11c-6.29,5.85-18.1,9.22-22.89,4.8-2.05-1.88-3.67-5.78-3.77-9.05-.01-.41,0-.96,0-1.53,.02-3.07,.04-5.09-2.2-5.33-.68-.07-1.91,.08-2.58,1.87l-.04,.1c-.1,.23-.69,.83-1.63,1.17-.48,.18-1.41,.41-2.25,0-1.44-.72-1.54-2.93-1.36-3.89,.14-.76,.52-1.29,.64-1.47,1.87-2.64,4.35-7.12,7.57-13.73l.63-1.29-.92-1.11c-2.5-3.03-4.45-13.92-5.09-20.08-.13-1.23-1.22-2.12-2.45-1.99-1.23,.13-2.12,1.22-1.99,2.45,.17,1.64,1.67,15.25,5.23,21.23-2.8,5.67-5.02,9.68-6.62,11.92-.72,1.01-1.19,2.1-1.4,3.26-.55,3.01,.39,7.01,3.76,8.69,1.75,.87,3.82,.93,5.83,.18,.14-.05,.27-.11,.41-.16,.18,4.44,2.31,9.37,5.2,12.03,3.71,3.41,9.55,3.9,15.4,2.45Zm13.32-31.95h0Zm2.04-3.97c.19,.1,.34,.22,.46,.35-.15-.15-.3-.27-.46-.35Zm0,0h0Z"/><path class="aj" d="M598.02,862.62c1.08-.27,1.82-1.31,1.67-2.45l-1.67-12.97c-.16-1.22-1.28-2.09-2.5-1.93-1.22,.16-2.09,1.28-1.93,2.5l1.67,12.97c.16,1.22,1.28,2.09,2.5,1.93,.09-.01,.17-.03,.26-.05Z"/><path class="aj" d="M584.82,867.5c1.05-.26,1.78-1.26,1.68-2.37l-1.37-14.64c-.12-1.23-1.2-2.13-2.43-2.01-1.23,.11-2.13,1.2-2.01,2.43l1.37,14.64c.12,1.23,1.2,2.13,2.43,2.01,.11-.01,.23-.03,.33-.06Z"/><path class="aj" d="M602.26,834.72c.88-.22,1.57-.96,1.68-1.91,.14-1.22-.74-2.33-1.96-2.47l-9.91-1.13c-1.22-.14-2.33,.74-2.47,1.96-.14,1.22,.74,2.33,1.96,2.47l9.91,1.13c.27,.03,.54,.01,.79-.05Z"/><g><path class="k" d="M528.46,771.27l17.53,54.5,15.95,3.38,.39,3.14,44.98,4.94s6.91-13.17-12.05-41.59c0,0-30.35-14.63-66.8-24.37Z"/><path class="k" d="M562.12,830.63s23.73-1.2,46.04,3.76"/><path class="k" d="M562.47,829.04s33.24-4.81,46.06,.91"/><path class="k" d="M561.72,828.68s29.84-8.87,46.15-5.2"/><path class="t" d="M561.1,828.97s26.44-12.65,44.75-12.3"/><path class="t" d="M561.93,829.15s15.15-15.46,40.2-20.66"/><path class="t" d="M561.76,828.84s8.7-16.39,37.79-26.28"/><path class="t" d="M562.25,828.74s7.49-25.98,34.7-29.54"/><path class="t" d="M594.55,795.58s-25.87,5.18-32.78,32.78"/><path class="t" d="M532.05,772.25s14.13,25.59,16.19,53.99"/><path class="t" d="M536.12,773.13s14.14,23.6,15,53.73"/><path class="t" d="M539.22,774.33s19.19,33.86,14.5,53.08"/><path class="t" d="M542.59,779.28s19.21,19.76,13.11,48.54"/><path class="t" d="M547.18,776.82s16.9,26.64,11.16,50.72"/><path class="t" d="M552.89,778.42s13.46,21.75,6.8,49.45"/><path class="t" d="M559.33,780.97s9.22,22.06,1.06,47.86"/><path class="t" d="M561,828.52c9.7-24.47,3.52-45.66,3.52-45.66"/><path class="t" d="M569.77,784.85s-.39,28.17-8.41,43.59"/><path class="t" d="M588.19,792.43s-25.02,15.06-26.57,35.71"/></g><g><path class="k" d="M480.06,777.2l-6.37,56.89-14.96,6.48,.24,3.16-43.11,13.77s-9.38-11.54,3.56-43.16c0,0,26.85-20.36,60.64-37.14Z"/><path class="k" d="M458.84,842.06s-23.5,3.53-44.37,12.82"/><path class="k" d="M458.18,840.57s-33.53,1.88-44.97,10.03"/><path class="k" d="M458.84,840.07s-31.01-2.78-46.26,4.06"/><path class="t" d="M459.51,840.23s-28.42-7.16-46.3-3.18"/><path class="t" d="M458.73,840.57s-17.92-12.15-43.5-12.27"/><path class="t" d="M458.84,840.23s-11.78-14.33-42.25-18.26"/><path class="t" d="M458.34,840.23s-12.5-23.98-39.88-22.07"/><path class="t" d="M420.1,814.14s26.38-.05,38.63,25.62"/><path class="t" d="M476.73,778.88s-8.78,27.89-5.16,56.13"/><path class="t" d="M472.92,780.54s-9.17,25.94-4.05,55.64"/><path class="t" d="M470.11,782.34s-12.09,36.99-3.69,54.9"/><path class="t" d="M467.79,787.86s-14.9,23.17-3.22,50.18"/><path class="t" d="M462.81,786.35s-11.28,29.46-.88,51.93"/><path class="t" d="M457.53,789.05s-8.87,23.99,3.15,49.81"/><path class="t" d="M451.72,792.83s-4.66,23.45,8.45,47.12"/><path class="t" d="M459.51,839.76c-14.36-22.06-12.51-44.05-12.51-44.05"/><path class="t" d="M442.26,798.7s5.97,27.53,16.89,41.06"/><path class="t" d="M425.71,809.79s27.51,9.8,33.13,29.73"/></g><path class="x" d="M528.46,771.27l2.03,6.32c27.48,4.98,62.37,21.66,62.37,21.66,9.53,18.99,10.72,31.37,10.45,37.55l4,.44s6.91-13.17-12.05-41.59c0,0-30.35-14.63-66.8-24.37Z"/><path class="x" d="M480.21,777.04l-.7,6.6c-25.89,10.47-56.66,33.9-56.66,33.9-5.46,20.53-4.12,32.89-2.59,38.89l-3.83,1.24s-9.44-11.49,3.34-43.17c0,0,26.74-20.5,60.44-37.45Z"/><g><g><path class="j" d="M542.09,588.68s1.31-9.22,13.48-18.21c0,0,.9,17.54,2.22,21.56s1.65,8.5,5.45,12.73c3.79,4.23,17.35,1.83,17.35,1.83,0,0,13.51-3.97,17.39-14.45,3.88-10.48,2.87-18.84,2.87-18.84,0,0-2.54-14.13-6.01-17.57-3.46-3.45-2.83-8.14-13.22-15.05-10.39-6.91-20.72-8.56-20.72-8.56,0,0-8.36-1.94-16.91,3.04-8.55,4.98-9.27,6.77-12.9,12.17-3.63,5.4-5.35,21.53-5.35,21.53"/><path class="ai" d="M592.45,599.93c-2.74,5.96-13.72,7.58-22.78,7.95s-12.31-12.29-12.31-12.29l-.34-14.26s-.91-13.56-5.24-22.79-12.42-12.49-12.42-12.49c0,0,11.62-2.43,17.43,15.69,0,0,6.21,15.1,6.56,27.5,.54,7.61,3.05,10.34,5.29,11.53,2.24,1.19,16.19,6.03,28.72-7.19l-4.91,6.36Z"/><path class="ai" d="M535.71,576.08c-5.74-7.54,.66-27.27,3.02-28.03,8.86,5.4,13.12,13.55,14.41,23.47l-9.34,11.34-6.61-3.82-1.48-2.96Z"/><path class="aj" d="M574.2,610.16c-5.15,0-10.4-1.36-14.12-5.11-4.31-4.34-5.48-10.64-6.05-13.67-.6-3.23-.57-5.7-.55-7.18v-.33c.06-5.78-.63-20.2-8.36-29.28-2.93-3.44-6.92-6.1-11.84-7.9-.09-.03-.18-.07-.26-.11-5.63,8.47-5.5,17.93-5.28,21,.09,1.27-.86,2.37-2.12,2.46-1.27,.09-2.36-.86-2.46-2.12-.3-4.12-.44-18.41,10.31-29.08,6.79-6.74,14.78-8.87,18.94-9.55,19.39-3.13,38.21,11.13,46.08,26.14,2.64,5.03,10.57,22.7,1.94,38.68-4,7.4-9.5,12.27-16.36,14.48-2.9,.93-6.36,1.56-9.87,1.56Zm-38.2-67.34c5.15,2.07,9.39,5.02,12.61,8.8,8.43,9.88,9.55,24.48,9.47,32.3v.35c-.02,1.39-.05,3.49,.46,6.27,.48,2.58,1.48,7.94,4.79,11.27,4.79,4.82,13.4,4.31,19.33,2.41,8.58-2.76,12.45-9.93,13.73-12.29,7.75-14.35-.28-31.15-1.96-34.37-7.12-13.59-24.01-26.53-41.28-23.74-3.61,.58-10.56,2.44-16.44,8.27-.24,.24-.48,.48-.71,.72Z"/><path class="aj" d="M542.49,598.39c-.06,0-.13,0-.19,0-1.26-.1-2.21-1.21-2.1-2.47,.94-11.52,4.92-19.92,11.52-24.3,.38-.25,.77-.49,1.18-.72,1.1-.63,2.5-.24,3.13,.86,.63,1.1,.24,2.5-.86,3.13-.31,.18-.62,.36-.91,.56-6.8,4.51-8.91,13.82-9.48,20.84-.1,1.2-1.1,2.11-2.29,2.11Z"/><path class="aj" d="M578.09,556.05c-1.08,0-2.04-.77-2.25-1.87-2.73-14.29-13.86-20.08-16.47-20.74-1.23-.31-1.97-1.56-1.66-2.79,.31-1.23,1.56-1.97,2.79-1.66,5.22,1.33,16.93,9.03,19.85,24.33,.24,1.25-.58,2.45-1.83,2.69-.15,.03-.29,.04-.43,.04Z"/></g><g><path class="j" d="M489.69,763.64c-4.11-19.1-19.01-37.96-21.74-40.67-36.58-36.34-35.33-100.42-35.14-109.78,.56-28.61,9.38-40.65,13.36-45.31,18.8-21.91,46.57-20.59,59.83-14.81,9.38,3.6,17.89,9.95,31.08,27.88,19.39,26.36,33.61,45.7,36.59,75.51,2.73,27.26-5.46,48.12-10.75,61.57-13.72,34.93-40.58,61.58-54.43,73.02"/><path class="j" d="M485.76,789.04c-4.11-19.1-15.07-63.36-17.8-66.07-36.58-36.34-35.33-100.42-35.14-109.78,.56-28.61,9.38-40.65,13.36-45.31,18.8-21.91,46.57-20.59,59.83-14.81,9.38,3.6,17.89,9.95,31.08,27.88,19.39,26.36,33.61,45.7,36.59,75.51,2.73,27.26-5.46,48.12-10.75,61.57-13.72,34.93-33.63,61.58-47.48,73.02"/><path class="ai" d="M440.72,581.29c-4.22,18.44-4.67,99.6,20.96,133.57,0,0-18.22-22.64-22.33-47.7-4.1-25.07-5.79-31.18-5.79-31.18v-31.56l4.88-20.67,6.68-13.82,1.13,1.43-5.54,9.94Z"/><path class="aj" d="M515.6,793.28c-.64,0-1.28-.28-1.72-.81-.78-.95-.65-2.36,.3-3.14,8.84-7.3,31.74-34.09,46.68-72.12,5.29-13.46,13.28-33.81,10.6-60.53-2.92-29.21-16.87-48.17-36.17-74.41-13.29-18.07-21.36-23.77-30.08-27.12l-.09-.04c-12.68-5.52-39.43-6.55-57.24,14.22-8.12,9.51-12.44,24.28-12.82,43.9-.43,21.79,2.08,75.96,34.48,108.16,2.23,2.21,11.83,45.01,16.18,65.27,.26,1.2-.51,2.39-1.71,2.65-1.2,.26-2.39-.51-2.65-1.71-4.07-18.92-12.97-61.05-14.97-63.04-33.63-33.41-36.24-89.04-35.8-111.41,.41-20.68,5.08-36.4,13.89-46.71,19.5-22.73,47.96-21.68,62.37-15.43,9.19,3.54,18.17,9.78,32.03,28.62,19.72,26.82,33.97,46.19,37.02,76.61,2.78,27.8-5.44,48.75-10.89,62.61-15.33,39.03-38.94,66.45-47.99,73.93-.42,.34-.92,.51-1.42,.51Z"/><path class="j" d="M512.07,587.3c7.3,26.9,23.6,41.25,37.44,42.66,9.71,.99,18.44,2.78,18.44,2.78,7.42,.06,9.07-1.21,13.36-.55,10.55,1.62,17.2,11.86,19.56,15.49,12.11,18.64,4.83,40.1,4.46,41.12-5.47,15.31-17.94,23.89-39.24,27.53-24.7,29.75-71.39-12.2-78.96-30.35-4.46-10.71-1.19-19.74,.54-23.14,24.46-1.73,35.97-39.87,24.39-75.54Z"/><path class="ak" d="M510.73,716.88s19.69-21.68,52.7-.45l-3.59,3.88c-16.86-9.17-33.23-10.24-49.12-3.43Z"/><path class="ai" d="M493.02,552.05c15.42,11.6,58.32,65.64,84.76,86.83,20.93,14.5,28.44,35.18,18.66,63.36,0,0,20.28-8.2,5.81-52.98,0,0-15.54-6.5-35.44-14.28-1.45-14.11-11.36-30.55-27.19-48.61-4.03-3.69-23.34-34.75-46.6-34.32Z"/><g><path class="j" d="M518.11,590.02c2.27-5.09,8.42-10.6,17.48-7.34,3.36,1.41,5.07,3.85,7.44,7.22,.75,1.06,3.23,4.74,4.87,10.44,1.43,4.96,2.54,8.83,1.06,13.32-.36,1.08-1.94,5.63-6.36,8-12.79,7.61-30.28-17.97-24.49-31.64Z"/><path class="aj" d="M537.63,625.07c-3.63,0-7.48-1.64-11.15-4.84-8.24-7.19-14.33-21.37-10.24-31v-.03c2.91-6.49,10.41-11.9,20.04-8.42l.1,.04c3.9,1.64,5.85,4.41,8.31,7.93,1.25,1.78,3.59,5.59,5.16,11.05,1.46,5.06,2.72,9.44,1.04,14.52-.78,2.36-2.77,6.69-7.29,9.13-1.86,1.1-3.88,1.64-5.97,1.64Zm-17.66-34.24c-3.33,7.89,2.16,20.21,9.18,26.34,2.58,2.25,7.61,5.6,12.41,2.75l.08-.04c3.31-1.77,4.8-5.05,5.39-6.84,1.29-3.89,.29-7.34-1.08-12.12-1.41-4.89-3.48-8.26-4.58-9.84-2.24-3.19-3.73-5.31-6.51-6.49-8.22-2.93-13.21,2.54-14.88,6.26Z"/></g><path d="M519.6,595.44c.77-1.71,2.53-4.38,5.67-5.86,.42-.2,4.58-2.07,9.06-.23,2.83,1.16,4.27,3.18,6.26,5.97,.63,.88,2.72,3.92,4.09,8.64,1.2,4.1,2.13,7.3,.88,11.02-.3,.9-1.64,4.66-5.36,6.62,0,0-2.26,1.19-4.76,1.18-8.68-.06-20.37-17.26-15.83-27.34Z"/><path class="j" d="M531.86,595.14c-.85,1.41-.78,2.89-.57,4.52,1.1,8.8,4.92,14.12,6.65,14.52,4.98,1.15,5.96-3.6,5.81-7.71,0-1.23-.11-7.01-4.22-11.41-2.83-3.47-5.88-2.65-7.67,.07Z"/><path class="aj" d="M536.11,624.45c-.23,.01-.46,.02-.69,.02-5.5-.04-10.84-5.31-14-10.24-3.45-5.37-6.15-13.32-3.36-19.49h0c.63-1.39,2.51-4.82,6.5-6.7,.86-.41,5.42-2.32,10.42-.26,3.28,1.35,4.92,3.64,6.99,6.55,1.06,1.48,3.03,4.64,4.34,9.15,1.23,4.2,2.28,7.82,.86,12.04-.66,1.96-2.35,5.56-6.18,7.58-.1,.05-2.28,1.19-4.88,1.35Zm-14.96-28.32c-2.22,4.94,.16,11.64,3.13,16.26,3.32,5.17,7.81,8.66,11.17,8.68,2.01,.01,3.94-.97,3.96-.98,2.79-1.47,4.05-4.18,4.55-5.67,1.09-3.21,.25-6.06-.9-10-1.18-4.03-2.92-6.82-3.85-8.13-1.9-2.65-3.15-4.41-5.52-5.38-3.77-1.55-7.3,.01-7.69,.2-2.96,1.39-4.38,3.97-4.85,5.02h0Z"/><path class="aj" d="M517.97,592.71c1.31,6.22,23.64,.14,22.37-7.03l-5.15-4.09-6.3-.67-8.51,4.72-2.42,7.06Z"/><path class="ak" d="M507.79,714.47s24.61-33.65,81.35-9.49c0,0,10.71-10.41-2.28-46.71-6.38-10.79,5.2,30.48,2.51,40.33-46.21-16.73-74.97-4.22-81.58,15.88Z"/><path id="f" class="ak" d="M510.75,586.85s9.91,41.38,44.09,48.14v7.79c-28.6-4.57-48.2-30.26-44.09-55.93Z"/><path class="aj" d="M559.49,724.12l-1.36-.67c-19.95-9.78-31.17-13.04-47.79-.74-.99,.73-2.39,.52-3.12-.47-.73-.99-.52-2.39,.47-3.12,18.74-13.87,32.55-9.32,51.08-.33,5.9-4.89,12.75-7.09,19.39-9.23,8.93-2.87,17.37-5.58,22.21-14.78,5.74-10.91,7.28-21.64,4.6-31.89-.06-.24-.13-.53-.22-.85-1.01-4.06-3.38-13.56-11.22-20.87-2.04-1.9-6.3-5.87-12.54-6.79-1.65-.25-5.45-.04-9.48,.18-7.96,.44-17.87,.99-24.27-.86-14.67-4.03-32.34-18.48-37.85-46.91-.23-1.21,.56-2.38,1.77-2.62,1.2-.23,2.38,.56,2.62,1.77,5.13,26.43,21.28,39.79,34.68,43.47,5.69,1.64,15.59,1.1,22.81,.7,4.64-.26,8.3-.46,10.39-.14,7.6,1.12,12.73,5.9,14.92,7.94,8.82,8.21,11.5,19,12.51,23.05,.08,.3,.14,.57,.2,.8,2.97,11.36,1.3,23.17-4.97,35.1-5.68,10.81-15.4,13.93-24.8,16.95-6.62,2.13-13.47,4.33-18.91,9.28l-1.12,1.02Z"/><path class="aj" d="M508.44,720.04c-.32,0-.65-.07-.96-.22-1.11-.53-1.58-1.86-1.05-2.98,5.46-11.42,16.15-18.99,30.93-21.88,19.99-3.91,41.79,1.85,51.88,9.69,2.85-3.08,4.2-9.99,3.54-18.72-1.3-17.34-10.12-38.16-24.44-44.39l-.26-.14c-4.83-2.92-10.46-4.96-16.72-6.06l-.31-.08-1.17-.38c-9.96-3.21-26.62-8.57-39.91-46.87-.4-1.16,.21-2.44,1.38-2.84,1.16-.41,2.44,.21,2.84,1.38,12.56,36.2,27.3,40.94,37.06,44.08l1.04,.34c6.69,1.19,12.74,3.39,17.98,6.53,15.86,7.01,25.58,29.47,26.98,48.09,.89,11.87-1.59,20.56-6.82,23.84l-2.69-.24c-8.53-7.77-30.45-13.58-49.51-9.86-9.3,1.82-21.66,6.66-27.76,19.42-.38,.8-1.18,1.27-2.02,1.27Z"/><path class="ak" d="M543.76,640.49s-3.62,5.35-3.05,18.46c.57,13.1,11.09,11.29,11.09,11.29,0,0,15.08-2.25,25.6,2.61,10.52,4.85,11.37-5.51,11.37-5.51"/><path d="M543.31,638.73c4.52-13.79,16.34-20.45,17.14-20.89,11.74-6.38,22.92-3.92,26.75-3.08,4.16,.91,9.27,2.11,13.67,6.58,1.42,1.45,5.1,5.61,5.94,11.95,.64,4.86-.72,8.42-2.51,13.1-2.42,6.34-5.47,9.92-10.84,16.22-3.8,4.47-6.1,6.31-8.88,6.35-1.87,.03-3.17-.77-4.35-1.4-9.39-4.95-22.86-4.62-26.78-4.53-2.51,.06-4.64,.28-6.77-1.09-.55-.35-2.98-2.02-4.29-7.64-1.55-6.62-.08-12.53,.92-15.59Z"/><path class="v" d="M450.82,597.49c9.16-17.17,31.6-24.92,45.24-13.86,3.31,2.53,5.3,5.74,9.14,12.05,3.15,5.17,5.65,9.33,7.99,15.47,1.93,5.06,3.05,8.09,3.08,12.44-.16,8.36-1.89,15.24-14.64,21.03-12.05,5.93-25.14,7.49-35.49,3.12-9.51-4.01-16.7-13.03-18.64-28.28-.49-3.79-1.52-12.75,3.31-21.98Z"/><path class="j" d="M479.36,635.58c-13.62-3.38-22.16-27.89-8.58-41.24,8.34-7.72,18.18-5.28,24.61,2.76,5.15,5.92,5.8,12.66,6.23,17.07,.57,5.88,1.09,11.26-2.43,15.57-3.56,4.37-9.4,5.36-11.96,5.79-1.71,.29-4.7,.8-7.87,.05Z"/><path class="aj" d="M482.89,638.2c-1.25,0-2.63-.12-4.04-.45h-.03c-7.21-1.8-13.5-8.9-16.01-18.12-2.78-10.16-.38-20.21,6.41-26.88,4.15-3.83,8.87-5.64,13.7-5.28,5.22,.39,10.26,3.31,14.19,8.21,5.6,6.45,6.31,13.86,6.74,18.28,.58,5.98,1.18,12.17-2.92,17.19-4.09,5.02-10.56,6.11-13.32,6.58-1.09,.19-2.76,.47-4.72,.47Zm-3-4.79c2.74,.64,5.39,.19,6.98-.08,2.46-.42,7.57-1.28,10.6-5,2.94-3.6,2.47-8.39,1.94-13.94-.4-4.16-1.01-10.44-5.69-15.82l-.06-.07c-3.15-3.94-7.09-6.28-11.07-6.58-3.56-.27-7.12,1.14-10.29,4.06-5.57,5.48-7.53,13.9-5.18,22.48,2.1,7.67,7.11,13.54,12.77,14.95Z"/><path d="M478.5,634.68c-10.6-2.63-17.25-21.71-6.67-32.09,.92-.83,4.09-3.68,8.65-3.66,5.46,.02,9.05,4.15,10.5,5.81,4.01,4.61,4.52,9.85,4.85,13.28,.44,4.58,.85,8.76-1.89,12.12-2.77,3.4-7.32,4.17-9.31,4.5-1.33,.23-3.66,.62-6.13,.04Z"/><path class="j" d="M484.38,603.53c-1.08,1.24-1.27,2.71-1.35,4.35-.45,8.86,2.39,14.76,4.03,15.46,4.71,2,6.49-2.51,7.06-6.58,.22-1.21,1.11-6.92-2.18-11.97-2.19-3.91-5.33-3.63-7.56-1.26Z"/><path class="aj" d="M482.31,636.69c-1.24,.08-2.69,.04-4.21-.31h-.02c-5.61-1.4-10.5-6.93-12.46-14.1-2.16-7.91-.3-15.73,4.99-20.92,3.1-2.79,6.41-4.17,9.87-4.16,6.24,.03,10.28,4.66,11.8,6.41,4.38,5.03,4.94,10.81,5.27,14.26,.45,4.66,.92,9.47-2.27,13.38-3.18,3.9-8.21,4.76-10.36,5.12-.65,.11-1.55,.26-2.61,.33Zm-3.4-3.69c2.13,.5,4.19,.15,5.43-.06,1.91-.32,5.89-1,8.25-3.89,2.28-2.8,1.92-6.53,1.51-10.85-.31-3.23-.78-8.12-4.43-12.31-1.36-1.56-4.53-5.2-9.2-5.22-2.58-.01-5.1,1.07-7.48,3.22-4.32,4.25-5.84,10.8-4.02,17.48,1.63,5.97,5.53,10.54,9.94,11.64Z"/><path class="aj" d="M466.52,598.9c11.96,5.98,22.05,5.01,30.24-3.08l-4.69-6.53-5.32-1.63-6.89,.19-7.26,1.78-4.53,1.9c-2.41,2.2-2.76,4.67-1.55,7.36Z"/><path class="v" d="M500.13,591.18s-16.98,11.12-37.64,5.89l2.96-7.53,15.27-6.29,19.4,7.93Z"/><path d="M542,575.92c-2.59,11.12-21.91,16.8-29.5,7.49-.25-.3-.08-.84,.35-.88,5.52-.45,23.91-4.41,28.36-7.17,.42-.15,.88,.16,.79,.55h0Z"/><path class="aj" d="M539.12,749.86c-.94,0-1.81-.59-2.12-1.53-.14-.39-3.13-8.3-17.7-5.21-1.2,.26-2.39-.51-2.65-1.72-.26-1.21,.51-2.39,1.72-2.65,18.74-3.97,22.71,7.7,22.87,8.2,.38,1.17-.27,2.43-1.44,2.81-.23,.07-.46,.11-.68,.11Z"/><path class="aj" d="M509.89,734.57c-.08,0-.16,0-.24-.01-1.23-.13-2.11-1.23-1.98-2.46,1.56-14.49-8.73-20.8-9.17-21.06-1.06-.63-1.41-2-.78-3.05,.63-1.06,1.98-1.41,3.04-.79,.54,.32,13.22,7.95,11.34,25.39-.12,1.14-1.09,1.99-2.22,1.99Z"/><path class="ak" d="M512.96,749.58s20.76-4.12,22.53,6.53c-4.55-3.9-12.61-5.76-22.53-6.53Z"/><path class="j" d="M564.87,630.2h27.34c3.02,0,2.66-3.64,0-5.58,0,0-3.43-3.31-12.69-3.53-9.35,0-13.15,2.14-14.66,3.23-2.77,2.06-3.48,5.89,0,5.89Z"/><path class="j" d="M577.7,634.52h-8.2c-.9,0-.67,1.08,0,1.67,0,0,1.03,1.06,3.81,1.06s4.4-.97,4.4-.97c.78-.58,1.04-1.77,0-1.77Z"/></g><g><path class="j" d="M447.77,579.67s-5.64-14.72-10.4-18.88c-4.76-4.16-5.88-5.66-15.15-8.2-9.27-2.54-16.63,1.37-16.63,1.37,0,0-9.29,4.14-17.32,13.22s-6.27,13.33-8.66,17.43-1.25,18-1.25,18c0,0,1.15,8.1,7.41,16.98,6.26,8.87,19.94,9.23,19.94,9.23,0,0,13.33-1.14,15.84-6.06s1.71-9.21,1.94-13.31c.23-4.1-3.3-20.8-3.3-20.8,13.67,5.41,17.2,13.73,17.2,13.73"/><path class="v" d="M377.48,586.59c1.69,2.97,4.14,5.53,7.27,7.26,1.88,1.38,1.68,5.03,2.71,6.79,1.18,2.02,3.34,3.54,5.67,3.74,1.66,.14,3.34-.43,4.99-.17,1.84,.29,3.35,1.55,5.08,2.23,5.48,2.24,11.73-2.16,11.47-8.07-.1-3.14-1.92-5.94-2.66-8.99-1.39-5.77,1.09-12.36-1.83-17.53-2.95-5.26-10.75-7.06-12.2-13.31-8.57,4.98-15.33,14.5-20.51,28.06Z"/><g class="al"><path class="ak" d="M388.02,569.5s-15.65,48.28,19.75,57.7c-.66,.39-1.6,.86-2.79,1.18-8.77,2.35-20.23-6.42-25.35-15.89-8.83-16.34,1.31-34.48,2.39-36.35,1.67-2.87,3.42-5.04,4.73-6.49l1.27-.14Z"/></g><path class="ai" d="M440.63,608.46s-9.74-17.03-19.52-19.73c-9.78-2.7-.01-.16-.01-.16l2.95-16.94c12.42,3.76,17.4,29.12,16.58,36.83Z"/><path class="ai" d="M421.49,571.35s-6.66,4.16-5.32,16.58c1.2,10.28,3.98,23.48,3.83,25.52-.3,4.03-.93,8.07-3.23,10.94-2.47,3.07,3.53-1.71,3.53-1.71l3.7-9.11-2.48-22.1-.03-20.11Z"/><path class="aj" d="M404.48,631.61c-.53,0-1.05-.01-1.56-.04-6.99-.36-13.38-3.56-18.98-9.51-12.1-12.86-9.06-31.43-7.84-36.81,3.64-16.06,17.75-34.16,36.74-36.06,4.07-.41,12.11-.4,20.17,4.24,12.77,7.34,16.2,20.79,16.95,24.73,.23,1.21-.57,2.38-1.78,2.61-1.21,.23-2.38-.57-2.61-1.78-.56-2.94-2.8-11.86-10.21-18.41-.07,.06-.14,.12-.22,.17-4.17,2.92-7.25,6.41-9.14,10.38-5,10.45-2.05,24.17-.55,29.58l.09,.32c.39,1.38,1.04,3.69,1.28,6.87,.23,2.98,.7,9.19-2.26,14.35-4,6.96-12.98,9.36-20.08,9.36Zm11.72-78.12c-1.12,0-2.11,.06-2.92,.14-16.91,1.69-29.54,18.06-32.83,32.61-.78,3.45-4.12,21.22,6.74,32.77,1.78,1.9,7.21,7.66,15.96,8.11,6.04,.31,14.26-1.36,17.55-7.09,2.28-3.96,1.88-9.24,1.68-11.78-.21-2.74-.76-4.7-1.12-6l-.09-.33c-2.03-7.33-4.62-21.31,.82-32.7,2.08-4.35,5.32-8.18,9.64-11.41-.28-.17-.56-.34-.84-.5-5.39-3.1-10.78-3.81-14.59-3.81Z"/><path class="aj" d="M438.85,611.67c-.92,0-1.78-.57-2.1-1.49-2.29-6.45-6.59-14.67-14.11-17.2-.32-.11-.65-.21-.99-.3-1.19-.31-1.9-1.53-1.59-2.73s1.53-1.9,2.73-1.59c.44,.12,.87,.24,1.29,.39,7.29,2.46,13.13,9.36,16.88,19.94,.41,1.16-.19,2.44-1.36,2.85-.25,.09-.5,.13-.75,.13Z"/><path class="aj" d="M394.83,580.81c-1.16,0-2.14-.9-2.22-2.07-1.08-15.1,8-25.26,12.56-27.81,1.08-.6,2.43-.22,3.04,.86,.6,1.08,.22,2.44-.86,3.04-2.29,1.28-11.3,9.49-10.29,23.59,.09,1.23-.84,2.3-2.07,2.39-.05,0-.11,0-.16,0Z"/></g></g><g><path class="l" d="M428.74,621.01s62.4-46.84,110.62-45.69c-43.22-62.12-121.09-24.68-110.62,45.69Z"/><path class="s" d="M428.74,614.36s55.91-45.63,107.26-43.01"/><path class="s" d="M428.74,605.66s48.24-35.68,88.16-34.02"/><path class="s" d="M485.72,575.97s33.44-12.36,45.43-10.85"/><path class="s" d="M428.9,595.2s46.78-28.06,81.31-27.61"/><path class="s" d="M433.57,579.56s43.32-18.4,83.4-13.45"/><path class="s" d="M441.74,566.46s40.29-11.26,81.33-1.19"/><path class="s" d="M454.92,553.49c.5,.44,39.81-2.87,73.42,9.32"/><path class="s" d="M467.72,546.98s19.16-1.39,46.15,4.37"/></g><path d="M495.78,587.9c-5.83,10.9-22.31,15.1-29.81,5.36-.28-.39-.06-1.05,.39-1.14,10.24-.48,18.83-2.1,28.95-5.28,.43-.14,.69,.62,.47,1.06Z"/><g><g><path class="m" d="M548.77,877.88c-10.22,5.33-47.96,9.53-47.96,9.53l2.16,73.43c18.4,9.06,39.97,10.38,39.97,10.38,28.95,1.94,31.06-29.38,2.1-31.32l3.73-62.01Z"/><path class="u" d="M562.97,949s-5.65,8.78-6.46,19.61"/><path class="u" d="M559.88,945.06s-9.89,13.92-7.92,25.13"/><path class="u" d="M555.95,943.27s-9.61,8.6-8.31,27.44"/><path class="u" d="M551.66,941.08s-11.57,14.06-7.62,29.68"/><path class="u" d="M546.75,940.38s-10.57,13.98-8.09,30.02"/><path class="u" d="M544.76,940.24s-14.65,8.54-11.46,29.5"/><path class="u" d="M544.27,939.7s-15.98,2.54-17.67,28.79"/><path class="u" d="M516.35,965.82s-3.98-29.6,28.48-26.61"/><path class="u" d="M510.9,964.24s-6.63-31,34.14-24.35c0,0-24.32,.2-23.71,27.16"/><path class="u" d="M503.31,956.98s4.7-.12,7.02,1.69"/><path class="u" d="M503,952.91s5.03-.68,7.81,1.33"/><path class="u" d="M502.94,949.32s4.7-1.29,8.8,1.2"/><path class="u" d="M502.75,944.33s5.88-.6,10.93,2.51"/><path class="u" d="M502.72,940.39s7.3-2.38,16.42,1.77"/><path class="u" d="M502.99,936.39s11.11-1.74,23.82,3.02"/><path class="u" d="M502.36,932.89s18.8-3.35,32.74,5.65"/><path class="u" d="M502.52,928.81s24.69-2.59,36.75,9.24"/><path class="u" d="M502.03,924.53s26.44-4.93,40.74,14.19"/><path class="u" d="M502.26,921.08s29.18-6.19,42.72,15.75"/><path class="u" d="M538.26,928.36s5.99,.49,7.13,2.52"/><path class="u" d="M533.61,925.44s4.86-3.27,12.07,.98"/><path class="u" d="M501.93,916.99s27.83-3.67,43.55,4.7"/><path class="u" d="M501.55,912.69s29.75-4.43,44.68,5.58"/><path class="u" d="M501.43,908.7s30.32-4.8,45.1,5.11"/><path class="u" d="M501.31,904.33s20.39-3.86,45.53,4.91"/><path class="u" d="M501.49,899.9s18.28-3.57,45.89,5.15"/><path class="u" d="M501.07,896.27s29.64-4,46.58,4.75"/><path class="u" d="M501.32,892.45s32.62-3.06,45.94,2.78"/><path class="u" d="M500.86,889.23s38.79,.17,47.21,1.62"/></g><path class="k" d="M517.91,885.12s21.6,4.11,30.17,1.95"/><path class="k" d="M531.77,882.26s8.93,2.96,16.3,1.21"/><g><g><path class="k" d="M464.19,878.92c9.62,6.19,46.07,8.86,46.07,8.86l-6.92,75.39c-18.53,8.05-39.65,7.91-39.65,7.91-28.36,0-28.36-32.37,0-32.37l.49-59.8Z"/><path class="s" d="M445.62,946.85s4.94,9.42,5.01,20.62"/><path class="s" d="M448.88,943.01s8.74,15,6.08,26.4"/><path class="s" d="M452.83,941.44s8.81,9.51,6.3,28.8"/><path class="s" d="M457.16,939.48s10.36,15.27,5.49,31.07"/><path class="s" d="M462,939.1s9.39,15.12,5.92,31.45"/><path class="s" d="M463.95,939.1s13.72,9.8,9.24,31.14"/><path class="s" d="M464.45,938.57s15.42,3.72,15.34,30.84"/><path class="s" d="M489.98,967.38s5.82-30.18-26.03-29.34"/><path class="s" d="M495.38,966.13s8.49-31.43-31.69-27.41c0,0,23.7,1.89,21.34,29.58"/><path class="s" d="M503.27,959.19s-4.58-.45-6.96,1.26"/><path class="s" d="M503.84,955.01s-4.86-1.04-7.7,.83"/><path class="s" d="M504.12,951.33s-4.5-1.65-8.66,.63"/><path class="s" d="M504.64,946.2s-5.7-1.03-10.82,1.82"/><path class="s" d="M504.93,942.16s-6.96-2.96-16.13,.69"/><path class="s" d="M504.93,938.02s-10.72-2.56-23.42,1.46"/><path class="s" d="M505.77,934.47s-18.11-4.74-32.29,3.55"/><path class="s" d="M505.88,930.25s-23.91-4.37-36.44,6.97"/><path class="s" d="M506.64,925.89s-25.46-6.9-40.66,11.78"/><path class="s" d="M506.64,922.32s-28.05-8.39-42.69,13.25"/><path class="s" d="M471.06,927.33s-5.87,.09-7.11,2.1"/><path class="s" d="M475.78,924.64s-4.52-3.7-11.84,.18"/><path class="s" d="M507.23,918.14s-26.9-5.7-42.77,1.82"/><path class="s" d="M507.88,913.74s-28.72-6.61-43.93,2.65"/><path class="s" d="M508.26,909.64s-29.24-7.04-44.31,2.14"/><path class="s" d="M508.67,905.16s-19.63-5.38-44.72,1.9"/><path class="s" d="M508.78,900.59s-17.59-4.93-45.08,2.13"/><path class="s" d="M509.43,896.88s-28.64-6.16-45.73,1.66"/><path class="s" d="M509.43,892.93s-31.6-5.41-44.97-.32"/><path class="s" d="M510.09,889.65s-37.84-2.51-46.14-1.59"/></g><path class="k" d="M464.14,884.57s9.24,.76,13.04-1.29"/></g></g><polygon class="ah" points="431.12 966.48 441.17 966.48 439.39 975.71 432.72 975.71 431.12 966.48"/><path class="x" d="M501.93,887.02l-4.13,70.6c-4.24,6.81-15.38,10.31-28.36,12.92,14.21-1.08,26.69-3.78,33.9-7.37,.73-.55-.36-1.51,.2-2.15,18.4,9.06,39.4,10.18,39.4,10.18,6.69,.45,13.18-1.51,16.95-3.84-16.91-.61-45.71-7.04-48.55-13.73-2.86-6.74,5.4-50.69,5.43-68.46-2.45,.33-7.68,1.57-12.4,1.8-4.4,.21-2.43,.03-2.43,.03Z"/><path class="x" d="M475.47,544.34c-29.27,5.76-52.78,35.45-46.72,76.16,0,0,1.68-1.26,4.7-3.36,2.11-14.64,10.52-52.92,42.02-72.8Z"/></g></g></g></svg>