<?xml version="1.0" encoding="UTF-8"?><svg xmlns="http://www.w3.org/2000/svg" width="1920" height="1080" viewBox="0 0 1920 1080"><defs><style>.g,.h,.i{fill:#e5ae13;}.j{fill:#fff;}.h,.k,.l,.m,.n,.o,.p{mix-blend-mode:multiply;}.q,.r{fill:#9c9c9c;}.s{fill:#b2b2b2;}.t{isolation:isolate;}.u{fill:#634428;}.i,.v,.w{mix-blend-mode:screen;}.x{fill:#281909;}.y{fill:#37230e;}.a`{fill:#3f2c25;}.aa{fill:#d4a241;}.k,.ab{fill:#d28c37;}.ac{fill:#5a5958;}.r{mix-blend-mode:overlay;}.ad,.l{opacity:.3;}.ae{fill:#8e8e8e;}.v,.af,.n{fill:#4d8a62;}.ag{fill:#929899;}.m{opacity:.39;}.ah{fill:#8e6131;}.ai{fill:none;}.aj{fill:#ccc;}.ak{fill:#ababab;}.al{fill:#facc59;}.am{fill:#7a7a7a;}.an{fill:#513f37;}.ao{fill:#937b70;}.o{fill:#d8d8d8;}.ap{fill:#eee;}.aq{mix-blend-mode:darken;}.ar{fill:#ffca91;}.as{fill:#e3e3e3;}</style></defs><g class="t"><g id="a"><path class="u" d="M1368.71,612.24c-94.7-121.8-103.8-229,0-316.8l-26-22.5c-82.9,0-144.7-50.6-110.3-144l-11.2-20.3s-213-34.4-255.9-41v-1.1c-.1,0-1.5,.2-3.7,.5-2.3-.3-3.6-.5-3.7-.5v1.1c-42.9,6.7-255.9,41-255.9,41l-11.2,20.4c34.4,93.4-27.4,144-110.3,144l-26,22.5c103.8,87.8,94.7,195,0,316.8-60.4,81.5-42.5,202.3,0,281,98,152.1,394.2,111.5,407,158.3v3.2c0-.8,.1-1.6,.2-2.4,.2,.8,.2,1.6,.2,2.4v-3.2c12.8-46.8,308.9-6.2,407-158.3,42.3-78.8,60.2-199.6-.2-281.1Z"/><g><path class="y" d="M1024.93,1006.49c26.8-4,60-7.6,95.3-13.3V113.79c-31.4-5.1-66.1-10.6-95.3-15.3V1006.49h0Z"/><path class="y" d="M1140.93,989.69c31.8-5.9,64.6-13.7,95.3-25.4V254.79c-24-23.2-32.7-59.3-15.1-107l-10.7-19.5s-30.1-4.9-69.4-11.2V989.69h-.1Z"/><path class="y" d="M783.43,989.69c34.1,6.3,67.1,10.2,95.3,14V101.79c-31.1,5-65.8,10.6-95.3,15.3V989.69Z"/><path class="y" d="M1351.43,609.99c-90.6-116.5-99.3-219,0-303l-24.9-21.5c-26.3,0-50.4-5.4-69.6-15.8V955.49c38.2-17.4,71.9-41.8,94.5-76.9,40.7-75.1,57.8-190.6,0-268.6Z"/><path class="y" d="M667.43,269.59V955.79c30,13.6,62.8,23,95.3,29.9V120.39c-28.9,4.7-49.1,7.9-49.1,7.9l-10.7,19.5c21.9,59.5,3,100.8-35.5,121.8Z"/><path class="y" d="M1004.23,95.19c-17.1-2.7-30.8-4.9-38.7-6.1v-1.1c-.1,0-1.4,.2-3.6,.5-2.2-.3-3.4-.5-3.6-.5v1.1c-10.7,1.7-32.6,5.1-59,9.4V1006.59c34.9,5.3,59,11.2,62.3,23.6v3.1c0-.8,.1-1.6,.2-2.3,.1,.7,.2,1.5,.2,2.3v-3.1c2.7-9.8,18.3-15.6,42-20.2V95.19h.2Z"/><path class="y" d="M646.73,278.39c-14.9,4.7-31.6,7.2-49.3,7.2l-24.9,21.5c99.3,84,90.6,186.5,0,303-57.8,77.9-40.6,193.5,0,268.7,18.5,28.7,44.4,50.2,74.2,66.7V278.39Z"/></g><g><path class="x" d="M593.81,656.64c-27.8,39.4-38.9,90.3-29.8,137.5,2.3,11.3,6.4,22.5,14.8,30.5,4,3.8,8.9,6.7,14,7.9,9.7,2.4,21.8-1.6,24.8-11.8,2.1-6.6-.2-14.7-7.1-17.3-6.9-2.7-15.2-.6-21.3,3.5-5.9,3.7-11.5-4.8-5.7-8.7,6.1-3.8,12.9-5.9,20.1-5.9,12-.1,22.6,7.9,23.7,20.2,.7,7.4-1.7,14.9-6.9,20.3-13.2,13.1-34.7,9.7-46.6-3.1-9.2-9.3-13.7-22-15.8-34.5-8-48.8,4.8-100.4,34.3-139.8,.3-.4,.9-.5,1.4-.2,.3,.3,.4,.9,.1,1.4h0Z"/><path class="x" d="M697.01,953.44c1.4-2.2,3.2-4.4,4.6-6.5,.8-1.2,3.6-5.3,4.4-6.6,1.7-2.8,4-6.3,5.6-9,55.5-94.2,28.5-207.9,9.5-308.9-13.9-71-29.5-143.2-23.9-216,3-43.6,13.8-88.1,37.5-125.1,.3-.5,1-.7,1.5-.3,.4,.3,.6,.8,.4,1.3-4.6,13.7-8.8,27.4-12.3,41.2-12.2,48.3-16.1,98.3-14,148,2.4,63.9,14.7,129.2,26.1,192.1,12.2,70.9,24.9,145.3,4.9,216.1-6.5,22.9-16,45.2-30,64.5-3,4.1-7.1,9-10.6,12.7-1.9,2.1-5.6-.5-3.7-3.5h0Z"/><path class="x" d="M829.41,144.14c14.1,56.8,23.9,119.5,28.2,177.9,2.2,30,1.8,60,2.4,90,.2,54.6-.9,110.8-9.1,164.9-1.9,15-4.8,29.8-10.3,44-.5,1.4-2.1,2.1-3.5,1.5-1.1-.4-1.7-1.5-1.7-2.6-.1-15.2,2.8-29.7,5.1-44.5,10.4-63.5,18.4-128.8,16-193.2-1.6-28.8-4.4-60.5-7.6-89.3-4.4-37.2-12.2-81.1-20.7-117.6,0,0-7.2-29-7.2-29.1-1.1-5.2,6.7-7.7,8.4-2h0Z"/><path class="x" d="M807.41,767.24c1.4,7.2,2.4,14.3,3.6,21.4,1.8,10.5,4,20.8,6.1,31.2,5,24.3,11,48.5,22.1,70.9,6.4,12.8,14.3,25.1,24.8,35,1.1,1,1.1,2.7,.1,3.7-1.1,1.2-3.1,1.1-4.1-.3-8.7-11.9-17.8-23.3-26-35.5-14.6-21.3-26.5-45.5-31.7-71-2-11.1-2.6-22.3-2.1-33.6,.6-7.5,1.5-14.9,3.4-22.1,.4-1.9,3.5-1.8,3.8,.3h0Z"/><path class="x" d="M926.41,996.34c14.1-12.7,26.8-27.2,35.8-43.9,9.1-16.7,14.6-34.9,18.5-53.5,4.6-20.9,7-42.5,6.5-64.1-.7-35.9-7.7-71.4-14.8-106.6-10.2-50.4-21.5-101.6-28.6-152.6-1.6-12.8-2.9-26.7-3.5-39.6-5.4-119.7,43.5-236.9,24.9-356.6-1.2-7-2.9-15.8-4.6-22.8-4.5-18.5-10.8-36.5-19.6-53.2-1.4-2.7-.4-6,2.3-7.4,2.8-1.5,6.4-.2,7.6,2.8,14.7,36.4,20.9,75.3,21.6,114.2,.8,38.6-3.4,77.1-9.1,115.2-11.6,76-28.5,152.4-19.8,229.4,7.1,76.8,37.5,149.1,44.8,226.5,2.3,21.6,3.2,43.5,2.4,65.2-1,24.2-3,48.6-9.6,72-6.5,22.3-17.9,43.3-34.1,60.1l-2.6,2.6-2.6,2.6-2.7,2.5c-3.5,3.4-7.4,6.3-11.1,9.4-.6,.5-1.4,.4-1.9-.2-.5-.7-.4-1.5,.2-2h0Z"/><path class="x" d="M1038.81,104.94c19.7,20.5,35.5,45,44,72.3,11.4,36.2,12.1,74.7,9.9,112.3-3.1,46.9-12.1,93.2-18.1,139.5-6.1,46.4-11.6,92.8-14.1,139.5-4.9,102.7,2.6,206.3,25.1,306.6,8.2,36.4,18.6,72.4,31,107.5,1,2.8-.5,5.9-3.3,6.9-2.9,1-6.1-.6-7-3.5-11.2-35.9-20.5-72.5-27.9-109.4-7.3-36.7-12.9-74.3-16.6-111.5-3.8-37.3-5.8-74.9-6.3-112.4-.4-75,2-150.3,11.4-224.8,12-104,55.3-236.9-31.9-319.4-1.1-1-1.1-2.7-.1-3.7,1.2-1,2.9-1,3.9,.1h0Z"/><path class="x" d="M1020.21,111.64c28.9,48.5,37.2,106.3,36.4,162-.3,27.9-2.9,55.7-5.8,83.4-7.2,64.1-13.6,128.7-15.7,193.2-3,110.7,7.1,221.8,28.6,330.4,7.3,36.2,15.9,72.1,25.8,107.7,.7,2.5-.8,5-3.2,5.7-2.5,.7-5-.8-5.7-3.2-4.5-18-8.8-36.1-12.8-54.3-28.2-126.7-40.8-256.7-39.4-386.4,.1-64.7,4.1-129.9,12.2-194.2,5.4-45.6,11.1-91.6,6.9-137.5-2.5-27.3-8.2-54.5-19.2-79.8-3.6-8.4-7.9-16.5-12.6-24.3-.8-1.2-.4-2.9,.9-3.6,1.3-.8,2.9-.3,3.6,.9h0Z"/><path class="x" d="M1197.11,129.54c2.6,18.8,2.2,40.4,1.4,59.5-.9,18.3-3.1,41-5.4,59.2-2.6,19.4-5.6,39.4-8.9,58.7-8.1,45.2-20.1,90.6-34.9,134-.5,1.4-2,2.1-3.3,1.7-1.4-.5-2.1-2-1.7-3.3,10-24.4,18.3-49.4,25.1-74.9,9.9-37.8,17-77.6,19.7-116.5,1.8-28.5,2.1-60,1.9-88.6,.2-9.9,.1-19.7,.9-29.6,.2-3.1,4.7-3.4,5.2-.2h0Z"/><path class="x" d="M1223.71,241.64c6.8,54.1-9,107.9-27.3,158.2-14.5,39.2-29.3,79.2-35,120.8-3.9,26.4-3.3,53.2-.8,79.6,6.8,60.6,19.4,120.7,27.8,181.2,4.4,28.9,16.3,107.9,20.8,136.2,2.4,15.1,4.8,30.2,7.5,45.3,.1,.8-.4,1.5-1.1,1.6-.8,.1-1.5-.4-1.6-1.2-2.4-15.1-5-30.2-7.6-45.3-4.9-27.9-19.2-106.5-24.5-135.6-10.2-60.5-23.1-120.4-27.4-181.8-1.7-26.9-.9-54,3.7-80.6,2.8-17,6.9-33.9,11.6-50.5,8.5-30.1,19-63.5,27.8-93.6,5.4-18.2,10.7-36.5,14.5-55.1,2.3-11,4.2-22.4,5.4-33.6,1.6-15,2.1-30.2,1.1-45.3-.1-1.5,1-2.7,2.5-2.8,1.2,.2,2.4,1.2,2.6,2.5h0Z"/><path class="x" d="M1358.71,656.34c-8.4,9.1-13.1,21.6-15.2,33.8-4.9,27.3,2.3,56.5,5.1,83.7,1.2,11.4,1.8,23,.6,34.5-.8,7.8-2.4,15.6-5,23.2-.9,2.8-3.9,4.3-6.6,3.3-3.1-1-4.5-4.7-2.9-7.5,3.4-6.2,5.8-13,7.3-20.1,1.9-8.8,2.3-18.3,2.1-27.5-.2-9-1.3-19-2.4-27.9-3.4-26.2-7.6-53.5-.9-79.7,1.9-7.7,5-15.2,9.2-22.3,4.4-6.7,13.8,.2,8.7,6.5h0Z"/><path class="x" d="M1306.21,599.04c-14.5,19.2-20.7,43.4-21.8,67.2-2,50.2,17.9,97.1,26.8,146,4.5,24.7,6.4,50.3,1.4,75.1-.1,.5-.6,.9-1.2,.8-.5-.1-.9-.6-.8-1.2,1-6.1,1.6-12.3,1.9-18.5,.5-12.4-.5-24.8-2.3-37.1-9.4-61.7-42.2-120.8-33.9-184.7,2.5-19.4,8.9-38.5,20.3-54.7,4.8-6.3,14.2,.5,9.6,7.1h0Z"/></g><rect class="ai" x="807.31" y="614.64" width="308.4" height="71"/><rect class="ai" x="760.41" y="778.14" width="402.3" height="71"/><g><path id="b" class="j" d="M1666.43,214.49c.3-.99,4.62-17.22,5.68-19.18-7.26-6.36-38.43-37.66-1.24-30.9,0,0,17.22-19.53,8.88-51.14,0,0,12.61,10.12,15.27,18.47,0,0,18.64,4,18.2,32.67,0,0,2.93-9.41,2.93-11.54v-7.72s3.11,.53,4.26-.53,4.08,.36,4.08,.36c0,0,1.42,1.6,3.37,1.51,1.95-.09,2.4,1.78,2.4,1.78,0,0,1.42,2.31,2.4,1.15,.98-1.15-1.33,10.3-13.58,16.16l-4.44,2.4s2.18,24.19-21.53,40.04c0,0-6.39,6.79-8.26,12.38,0,0,4.93,23.57-5.19,31.83,0,0-7.09,3.18-16.91,.8,0,0-9.85-2-9.85-13.72s9.99-18.11,9.99-18.11c0,0,2.4-2.92,3.55-6.7Z"/><path d="M1698.77,159.18c.34-18.51-16.37-48.16-19.02-45.9,8.35,31.61-8.88,51.14-8.88,51.14l27.9-5.24Z"/><path class="g" d="M1713.22,164.42s2.93-9.41,2.93-11.54v-7.72s3.11,.53,4.26-.53,4.08,.36,4.08,.36c0,0,1.42,1.6,3.37,1.51,1.95-.09,2.4,1.78,2.4,1.78,0,0,1.42,2.31,2.4,1.15,.98-1.15-1.33,10.3-13.58,16.16l-4.44,2.4"/><g class="l"/><path class="g" d="M1682.76,238.73l26,15.18s-.51-7.24-21.54-23.03"/><path class="i" d="M1704.92,247.05c-3.59-4.42-11.23-12.22-18.87-16.27l-.93,3.74c6.28,2.24,12.89,5.49,19.8,12.53Z"/><g><path class="g" d="M1685.61,224.32l25.48-5.39s-1.46,15.3-25.88,15.3"/><path class="h" d="M1685.2,231.34l.25-6.99,25.63-5.42c-9.27,6.62-22.33,11.16-25.88,12.42Z"/></g><path class="af" d="M1662.75,253.02s-9.85-2-9.85-13.72,9.99-18.11,9.99-18.11c0,0,2.4-2.92,3.55-6.7l18.42,5.9s4.93,23.57-5.19,31.83c-4.96,2.25-10.74,2.1-16.91,.8,0,0-9.85-2-9.85-13.72s9.99-18.11,9.99-18.11"/><path d="M1670.87,164.43c-7.28-8.47,3.29-29.81-1.06-53.25-.92,3.01-42.25,54.07,2.3,84.13-25.32-26.34-5.87-57.71-3.61-70.49,1.97,14.05-6.26,35.51,2.37,39.61Z"/><path d="M1686.88,216.19c.45-.74,.92-1.47,1.41-2.17,2.33-3.36,4.82-6.01,4.82-6.01-8.72-6.59-12.58-8.19-21-12.7-.51,.93-1.76,5.12-2.96,9.35"/><path class="j" d="M1661.53,243.7c0-4.01,3.91-7.25,8.72-7.25,11.57,.37,11.56,14.14,0,14.51-4.82,0-8.72-3.25-8.72-7.25Z"/><ellipse cx="1669.47" cy="243.7" rx="2.35" ry="3.35"/><path class="h" d="M1718.99,152.03c.04-.13,1.04-7.15,1.04-7.15l1.67-.65-2.71,7.8Z"/><path class="h" d="M1721.7,152.88l3.41-7.35s.68,.58,1.37,.75-4.78,6.6-4.78,6.6Z"/><path class="h" d="M1729.54,147.35s.41,.87,.68,.99-5.97,7.95-5.97,7.95l5.29-8.94Z"/><path class="j" d="M1672.11,195.31c-25.55-24.98-6.11-56.54-3.61-70.49,2.47,10.49-5.7,33.12,2.37,39.61"/><path class="m" d="M1698.77,159.18c-13.7,4.49-49.36,41.93-30.27-34.36,4.12,12.13-6.85,30.24,2.37,39.6,5.35-3.1,16.47-3.93,27.9-5.24Z"/><path d="M1678.79,245.01c-5.13,1.09-12.37,.59-17.26-1.31-1.06,7.67,14.74,11.57,17.26,1.31Z"/><path class="v" d="M1668.18,215.05l-3.54,7.67s-12.22,7.86-9.92,24.2c-1.08-1.91-1.83-4.4-1.83-7.62,0-11.72,9.99-18.11,9.99-18.11,0,0,2.4-2.92,3.55-6.7l1.75,.56Z"/><path class="n" d="M1681.83,219.42l3.03,.97s4.93,23.57-5.19,31.83l-.55,.24c6.53-12.56,3-31.65,2.72-33.03Z"/><path class="h" d="M1714.65,167.97l-.32-.8c10.93-5.65,14.73-14.3,16.02-18.79,.31,.46,1.48,2.02,2.32,1.03,.98-1.15-1.33,10.3-13.58,16.16l-4.44,2.4Z"/><path class="ad" d="M1703.14,198.98c4.85-12.7,12.44-37.47,3.69-50.01-15-17.11-14.5-19.29-15-23.28,1.37,1.94,2.49,3.93,3.1,5.83,0,0,18.64,4,18.2,32.67l1.42,3.55s1.49,16.55-11.41,31.24Z"/></g><g><path id="c" class="j" d="M1605.88,513.18c-.39-1.27-5.91-22.05-7.27-24.55,9.3-8.15,49.19-48.21,1.59-39.55,0,0-22.05-25-11.36-65.46,0,0-16.14,12.96-19.55,23.64,0,0-23.87,5.11-23.3,41.82,0,0-3.75-12.05-3.75-14.77v-9.89s-3.98,.68-5.45-.68c-1.48-1.36-5.23,.45-5.23,.45,0,0-1.82,2.05-4.32,1.93-2.5-.11-3.07,2.27-3.07,2.27,0,0-1.82,2.95-3.07,1.48-1.25-1.48,1.7,13.18,17.39,20.68l5.68,3.07s-2.78,30.97,27.56,51.25c0,0,8.18,8.69,10.57,15.85,0,0-6.31,30.17,6.65,40.74,0,0,9.07,4.07,21.65,1.02,0,0,12.61-2.56,12.61-17.56s-12.79-23.18-12.79-23.18c0,0-3.07-3.74-4.55-8.58Z"/><path d="M1564.48,442.37c-.44-23.69,20.96-61.65,24.35-58.75-10.68,40.46,11.36,65.46,11.36,65.46l-35.72-6.71Z"/><path class="g" d="M1545.99,449.08s-3.75-12.05-3.75-14.77v-9.89s-3.98,.68-5.45-.68c-1.48-1.36-5.23,.45-5.23,.45,0,0-1.82,2.05-4.32,1.93-2.5-.11-3.07,2.27-3.07,2.27,0,0-1.82,2.95-3.07,1.48-1.25-1.48,1.7,13.18,17.39,20.68l5.68,3.07"/><g class="l"/><path class="g" d="M1584.99,544.2l-33.28,19.43s.65-9.27,27.57-29.48"/><path class="i" d="M1556.61,554.86c4.59-5.66,14.38-15.64,24.16-20.82l1.19,4.79c-8.03,2.86-16.5,7.02-25.35,16.04Z"/><g><path class="g" d="M1581.34,525.75l-32.62-6.9s1.88,19.59,33.13,19.59"/><path class="h" d="M1581.86,534.75l-.32-8.95-32.81-6.94c11.87,8.47,28.58,14.28,33.13,15.89Z"/></g><path class="af" d="M1610.6,562.5s12.61-2.56,12.61-17.56-12.79-23.18-12.79-23.18c0,0-3.07-3.74-4.55-8.58l-23.58,7.56s-6.31,30.17,6.65,40.74c6.36,2.88,13.75,2.69,21.65,1.02,0,0,12.61-2.56,12.61-17.56s-12.79-23.18-12.79-23.18"/><path d="M1600.2,449.1c9.32-10.85-4.21-38.16,1.35-68.17,1.18,3.86,54.09,69.21-2.94,107.7,32.42-33.71,7.52-73.87,4.63-90.23-2.52,17.99,8.01,45.46-3.03,50.7Z"/><path d="M1579.71,515.35c-.57-.95-1.18-1.88-1.8-2.78-2.98-4.3-6.18-7.69-6.18-7.69,11.17-8.44,16.11-10.48,26.88-16.25,.65,1.19,2.25,6.55,3.78,11.97"/><path class="j" d="M1612.16,550.57c0-5.13-5-9.29-11.17-9.29-14.81,.48-14.8,18.1,0,18.57,6.17,0,11.17-4.16,11.17-9.29Z"/><ellipse cx="1601.99" cy="550.57" rx="3.01" ry="4.29"/><path class="h" d="M1538.6,433.23c-.06-.17-1.33-9.16-1.33-9.16l-2.14-.83,3.47,9.99Z"/><path class="h" d="M1535.14,434.3l-4.36-9.41s-.87,.74-1.76,.96,6.12,8.45,6.12,8.45Z"/><path class="h" d="M1525.1,427.23s-.53,1.11-.87,1.27,7.64,10.18,7.64,10.18l-6.77-11.44Z"/><path class="j" d="M1598.61,488.63c32.71-31.98,7.82-72.38,4.63-90.23-3.16,13.43,7.3,42.4-3.03,50.7"/><path class="m" d="M1564.48,442.37c17.54,5.74,63.18,53.67,38.75-43.98-5.27,15.52,8.77,38.71-3.03,50.69-6.85-3.97-21.09-5.03-35.72-6.71Z"/><path d="M1590.07,552.24c6.57,1.4,15.83,.76,22.1-1.67,1.36,9.82-18.87,14.81-22.1,1.67Z"/><path class="v" d="M1603.64,513.89l4.53,9.82s15.64,10.06,12.7,30.98c1.38-2.45,2.34-5.63,2.34-9.75,0-15-12.79-23.18-12.79-23.18,0,0-3.07-3.74-4.55-8.58l-2.24,.72Z"/><path class="n" d="M1586.18,519.49l-3.87,1.24s-6.31,30.17,6.65,40.74l.7,.3c-8.36-16.07-3.83-40.51-3.48-42.29Z"/><path class="h" d="M1544.16,453.62l.41-1.03c-13.99-7.23-18.86-18.3-20.51-24.05-.4,.59-1.89,2.59-2.97,1.32-1.25-1.48,1.7,13.18,17.38,20.69l5.68,3.07Z"/><path class="ad" d="M1558.89,493.32c-6.21-16.26-15.92-47.96-4.73-64.02,19.2-21.91,18.56-24.69,19.2-29.8-1.75,2.49-3.19,5.03-3.96,7.46,0,0-23.87,5.11-23.3,41.82l-1.82,4.55s-1.9,21.19,14.61,40Z"/></g><g><path id="d" class="j" d="M143.62,276.13c-.26-.85-3.96-14.79-4.88-16.47,6.24-5.47,33-32.34,1.07-26.53,0,0-14.79-16.77-7.62-43.92,0,0-10.83,8.69-13.11,15.86,0,0-16.01,3.43-15.63,28.06,0,0-2.52-8.08-2.52-9.91v-6.63s-2.67,.46-3.66-.46-3.51,.3-3.51,.3c0,0-1.22,1.37-2.9,1.3-1.68-.08-2.06,1.52-2.06,1.52,0,0-1.22,1.98-2.06,.99-.84-.99,1.14,8.84,11.66,13.88l3.81,2.06s-1.87,20.78,18.49,34.38c0,0,5.49,5.83,7.09,10.64,0,0-4.23,20.24,4.46,27.33,0,0,6.09,2.73,14.52,.69,0,0,8.46-1.72,8.46-11.78s-8.58-15.55-8.58-15.55c0,0-2.06-2.51-3.05-5.76Z"/><path d="M115.84,228.63c-.29-15.89,14.06-41.36,16.34-39.42-7.17,27.14,7.62,43.92,7.62,43.92l-23.96-4.5Z"/><path class="g" d="M103.44,233.13s-2.52-8.08-2.52-9.91v-6.63s-2.67,.46-3.66-.46-3.51,.3-3.51,.3c0,0-1.22,1.37-2.9,1.3-1.68-.08-2.06,1.52-2.06,1.52,0,0-1.22,1.98-2.06,.99-.84-.99,1.14,8.84,11.66,13.88l3.81,2.06"/><g class="l"/><path class="g" d="M129.6,296.94l-22.33,13.03s.44-6.22,18.49-19.78"/><path class="i" d="M110.56,304.09c3.08-3.8,9.65-10.49,16.21-13.97l.8,3.21c-5.39,1.92-11.07,4.71-17,10.76Z"/><g><path class="g" d="M127.15,284.56l-21.88-4.63s1.26,13.14,22.23,13.14"/><path class="h" d="M127.5,290.6l-.21-6.01-22.01-4.66c7.96,5.68,19.17,9.58,22.23,10.66Z"/></g><path class="af" d="M146.78,309.22s8.46-1.72,8.46-11.78-8.58-15.55-8.58-15.55c0,0-2.06-2.51-3.05-5.76l-15.82,5.07s-4.23,20.24,4.46,27.33c4.26,1.93,9.23,1.8,14.52,.69,0,0,8.46-1.72,8.46-11.78s-8.58-15.55-8.58-15.55"/><path d="M139.81,233.14c6.25-7.28-2.82-25.6,.91-45.73,.79,2.59,36.28,46.43-1.98,72.25,21.75-22.62,5.04-49.56,3.1-60.54-1.69,12.07,5.38,30.5-2.04,34.02Z"/><path d="M126.06,277.58c-.38-.64-.79-1.26-1.21-1.86-2-2.88-4.14-5.16-4.14-5.16,7.49-5.66,10.81-7.03,18.03-10.9,.44,.8,1.51,4.4,2.54,8.03"/><path class="j" d="M147.83,301.21c0-3.44-3.35-6.23-7.49-6.23-9.93,.32-9.93,12.14,0,12.46,4.14,0,7.49-2.79,7.49-6.23Z"/><ellipse cx="141.01" cy="301.21" rx="2.02" ry="2.88"/><path class="h" d="M98.48,222.49c-.04-.11-.89-6.14-.89-6.14l-1.43-.56,2.33,6.7Z"/><path class="h" d="M96.16,223.21l-2.93-6.32s-.59,.5-1.18,.64,4.1,5.67,4.1,5.67Z"/><path class="h" d="M89.43,218.47s-.35,.74-.58,.85,5.13,6.83,5.13,6.83l-4.54-7.68Z"/><path class="j" d="M138.74,259.66c21.94-21.45,5.24-48.55,3.1-60.54-2.12,9.01,4.9,28.44-2.04,34.02"/><path class="m" d="M115.84,228.63c11.76,3.85,42.39,36.01,26-29.51-3.54,10.42,5.88,25.97-2.04,34-4.6-2.67-14.15-3.37-23.96-4.5Z"/><path d="M133.01,302.33c4.41,.94,10.62,.51,14.82-1.12,.91,6.59-12.66,9.93-14.82,1.12Z"/><path class="v" d="M142.12,276.61l3.04,6.59s10.49,6.75,8.52,20.78c.93-1.64,1.57-3.77,1.57-6.54,0-10.06-8.58-15.55-8.58-15.55,0,0-2.06-2.51-3.05-5.76l-1.5,.48Z"/><path class="n" d="M130.4,280.36l-2.6,.83s-4.23,20.24,4.46,27.33l.47,.2c-5.61-10.78-2.57-27.18-2.33-28.37Z"/><path class="h" d="M102.21,236.18l.28-.69c-9.38-4.85-12.65-12.28-13.76-16.13-.27,.39-1.27,1.74-1.99,.89-.84-.99,1.14,8.84,11.66,13.88l3.81,2.06Z"/><path class="ad" d="M112.09,262.81c-4.16-10.91-10.68-32.18-3.17-42.95,12.88-14.7,12.45-16.57,12.88-19.99-1.18,1.67-2.14,3.38-2.66,5,0,0-16.01,3.43-15.63,28.06l-1.22,3.05s-1.28,14.22,9.8,26.83Z"/></g><g><path class="j" d="M1617.69,881.35c7.78-7.6,17.11-14.71,27.88-21.38l-4.07-9.6-3.72-5.56-14.53,8.13c-7.76,5.24-14.89-5.28-6.77-10.84,27.35-24.78,74.74-43.21,137.45-56.77l33.96-4.88c12.97-1.37,14.63,14.36,1.66,15.72l-26.05,2.06s1.15,14.59,.98,17.16h0l21.01-3.98c12.58-1.87,13.64,14.38,1.05,16.26l-25.25,3.04c-59.78,8.24-137.46,61.66-137.46,61.66-7.93,6.16-14.26-4.68-6.17-11.02Z"/><path class="aj" d="M1694.96,853.88c-1.33-.56-2.28-1.37-2.74-2.45-1.95-4.64,5.95-12.38,17.65-17.29,11.7-4.91,22.76-5.13,24.7-.49,.61,1.46,.25,3.22-.89,5.1-13.03,4.02-26.22,9.36-38.73,15.13Z"/><path class="o" d="M1617.72,893.97c62.23-61.26,161.43-70.35,176.76-71.4-1.31,2.46-3.93,4.5-7.92,5.1l-25.25,3.04c-59.78,8.24-137.46,61.66-137.46,61.66-2.28,1.77-4.42,2.13-6.13,1.6Z"/><path class="o" d="M1623.25,852.94c-2.71,1.83-5.34,1.73-7.28,.6,10.59-6.68,22.54-11.36,22.54-11.36l-4.07,4.49-11.2,6.27Z"/><path class="o" d="M1789.55,796.17l-24.31,1.92-3.64-1.49c11.87-3.47,27.15-4.17,35.48-4.27-1.41,1.94-3.89,3.45-7.53,3.84Z"/><path class="am" d="M1796.5,822.45s.03-.08,.05-.12c1.27-3.22,.8-6.81-1.23-9.36-1.28-1.61-4.28-4.17-10.08-3.31l-18.99,3.59c-.12-3.68-.59-10.18-.84-13.39l24.28-1.92c3.5-.37,6.32-1.69,8.22-3.81,1.75-1.97,2.57-4.46,2.3-7.03-.27-2.56-1.59-4.83-3.72-6.39-2.3-1.69-5.34-2.38-8.79-2.02l-34.15,4.91c-66.34,14.35-111.54,33.03-138.17,57.11-4.89,3.42-5.15,8.59-2.87,11.96,2.22,3.27,6.94,4.93,11.67,1.78l14.18-7.81,5.58,12.14c-10.4,6.54-20.01,14-27.42,21.23-5.05,4.02-5.34,9.9-2.69,13.29,2.19,2.81,6.46,4.04,11.07,.49,2.12-1.45,78.51-53.32,136.66-61.33l25.22-3.04c4.68-.7,8.2-3.23,9.73-6.98Zm-34.9-25.84l.14,1.77c.32,4.02,1.11,14.9,.98,16.9l-.15,2.28,23.26-4.4c2.92-.43,5.33,.28,6.71,2.02,1.24,1.57,1.52,3.81,.71,5.86-1.01,2.6-3.56,4.38-6.96,4.89l-25.2,3.03c-59.53,8.21-137.47,61.42-138.25,61.96l-.08,.06c-2.41,1.87-4.77,1.94-6.15,.17-1.57-2.01-1.35-5.64,2.16-8.39l.15-.13c7.55-7.37,16.83-14.49,27.58-21.14l1.29-.8-8.43-18.91-17.1,9.71c-2.97,2.01-5.57,1.05-6.82-.8-1.32-1.94-1.2-4.9,2.04-7.12l.19-.15c25.77-23.35,71.72-42.31,136.57-56.34l33.9-4.87c5.41-.57,8.23,2.33,8.54,5.27,.16,1.56-.34,3.08-1.42,4.3-1.3,1.46-3.34,2.37-5.9,2.64l-27.77,2.19Z"/><g><path class="j" d="M1643.82,857.62c-6.87,6.27-15.21-6.36-4.63-9.61"/><path class="aj" d="M1639.52,848.56c-8.65,3.11-2.74,8.76-2.74,8.76-3.56-5.24,3.29-7.59,3.29-7.59l-.56-1.17Z"/><path class="am" d="M1636.45,848.07c.71-.43,1.52-.79,2.43-1.06,.56-.17,1.15,.14,1.32,.7,.17,.56-.14,1.15-.7,1.32-2.61,.8-4.12,2.29-4.27,4.19-.14,1.83,1.02,3.79,2.77,4.64,1.68,.82,3.49,.46,5.11-1.02,.43-.39,1.1-.36,1.49,.07s.36,1.1-.07,1.49c-2.27,2.07-4.99,2.56-7.46,1.36-2.54-1.24-4.16-4-3.95-6.71,.16-2.05,1.34-3.79,3.33-4.99Z"/></g><g><path class="j" d="M1710.49,784.22c-.61-.83-1.54-1.98-2.87-3.14-1.75-1.52-3.46-2.43-7.19-4.03-5.9-2.53-5.81-2.05-8.39-3.4-2.94-1.54-4.86-3.11-7.17-5-3.58-2.93-5.55-4.53-7.42-7.35-1.71-2.57-3.98-5.97-3.37-10.3,.54-3.84,3.03-6.27,3.89-7.12,5.03-5.23,10.49-5.14,14.68,1.35,2.51,3.57,1.56,5.34,4.52,10.95,.97,1.83,1.74,3.28,3.24,4.92,1.31,1.43,2.34,2.09,7.43,5.2,5.39,3.29,6.07,3.67,7.58,4.68,2.84,1.92,4.99,3.67,6.31,4.79"/><path class="ap" d="M1716.21,772.33c-5.58-3.1-9.57-5.2-12.63-6.73-.75-.37-2.02-1.01-3.47-2.21-2.64-2.19-3.96-4.71-4.73-6.22-.34-.67-.27-.59-2.73-7.14-.99-2.63-1.5-3.97-2.49-5.07-.36-.4-1.97-2.21-4.32-2.76-3.19-.75-6.87,1.01-9.35,4.34l3.75-4.18,3.81-1.83,4.32,.13,3.45,3.41,2.22,3.82,1.5,4.43,1.46,3.58,4.01,6,15.04,9.85,.44,.41-.3,.19Z"/><path class="aj" d="M1706.6,778.89c-.2-.17,.33-1.17-1.94-2.85-.64-.33-2.3-1.45-5.27-2.5-3.38-1.2-6.36-2.67-7.27-3.14-5.28-2.72-8.08-6.92-9.22-8.18-1.79-1.99-3.96-5.05-4.28-8.78-.55-6.36,6.56-11.53,7.65-12.75l-4.65,.41-5.76,5.46-1.61,4.9,1.03,5.42,1.84,3.33,5.02,5.71,6.33,5.05,4.81,2.79,5.97,2.61,6.93,3.19,.43-.65Z"/><path class="am" d="M1710.28,784.38c-1.63-1.9-3.53-3.54-5.72-4.64-2.19-1.11-4.58-2-6.91-2.94-1.77-.72-3.66-1.21-5.39-2.05-2.93-1.39-5.55-3.38-8.04-5.42-1.96-1.6-4.01-3.17-5.79-5.15-.89-.97-1.67-2.11-2.36-3.16-1.46-2.2-2.76-4.69-3.03-7.4-.55-5.11,2.35-9.21,6.2-12.23,4.79-3.66,9.83-2.64,13.38,2.07,.18,.26,.67,.94,.85,1.22,1.16,1.58,1.9,3.7,2.34,5.5,.63,2.43,1.63,4.61,2.84,6.8,.59,1.09,1.22,2.1,1.99,3.02,.78,.95,1.6,1.69,2.63,2.39,2.03,1.4,4.24,2.71,6.36,4.08l3.21,2.05c3.23,2.04,6.28,4.43,9.04,7.08l-.32,.37c-2.02-1.52-4.09-2.95-6.23-4.3-3.19-1.97-6.59-3.8-9.81-5.77-1.65-1.02-3.37-1.96-4.86-3.27-2.5-2.26-3.99-5.22-5.39-8.23-1.08-2.25-1.45-4.95-2.52-7.1-2.81-5.11-6.94-8.33-12.27-4.29-4.46,3.53-7,8.16-4.52,13.75,.99,2.15,2.41,4.33,3.93,6.13,1.59,1.81,3.57,3.38,5.52,5,2.89,2.42,5.79,4.67,9.29,5.99,2.38,.83,4.79,1.84,7.08,2.92,1.16,.53,2.31,1.12,3.43,1.79,2.26,1.36,4.13,3.29,5.49,5.47l-.42,.31h0Z"/><path class="am" d="M1708.21,774.03c-9.66-3.87-18.41-10.16-25.19-18.2-1.22-1.42-1.05-3.56,.38-4.77,1.42-1.2,3.54-1.02,4.75,.4,2.63,4.23,5.59,8.3,9.21,11.88,3.45,3.47,7.37,6.53,11.63,9.13,.9,.56,.22,1.94-.78,1.56h0Z"/><path class="j" d="M1733.69,764.23c13.78,.72,20.68,10.3,20.73,21.44-.6,11.01-4.68,19.96-12.26,26.83-11.01,11.47-44.1-.42-41.97-21.65,1.09-9.82,6.57-27.69,33.5-26.62Z"/><path class="aj" d="M1750.31,773.44c-10.03-17.22-42.86-8.75-42.66,2.86,.9-1.05,23.15-19.41,42.45-2.66"/><path class="ap" d="M1753.16,786.28s-6.79,22.52-21.52,26.53c-14.73,4.02-30.53-16.23-30.53-16.23,0,0,1.42,17.83,27.4,19.3,25.98,1.46,24.65-29.6,24.65-29.6Z"/><path class="am" d="M1715.33,814.87c-8.68-4.01-17.54-12.45-16.36-24.16,1.2-10.82,7.32-28.81,34.77-27.71h.02c13.24,.69,21.83,9.59,21.89,22.66v.07c-.62,11.28-4.87,20.59-12.63,27.64-.14,.15-.29,.29-.44,.43-5.75,5.41-16.83,5.87-27.25,1.06Zm26-3.28c7.28-6.61,11.27-15.33,11.86-25.95-.07-11.64-7.74-19.56-19.56-20.18-25.45-1.01-31.11,15.56-32.22,25.51-1.05,10.41,7.04,18.02,14.95,21.67,9.62,4.44,20.09,4.03,24.91-.99l.03-.03,.03-.03Z"/><ellipse cx="1736.22" cy="772.14" rx="2.16" ry="2.27" transform="translate(-57.62 1398.88) rotate(-43.23)"/><ellipse cx="1734.89" cy="781.71" rx="2.27" ry="1.58" transform="translate(300.44 2032.02) rotate(-65.33)"/><ellipse cx="1722.82" cy="794.14" rx="2.59" ry="2.73" transform="translate(232.49 1967.89) rotate(-62.97)"/><path d="M1737.42,786.13s.08-.09,.1-.15c.59-1.49,.27-2.54-.19-3.21,.27-.02,.53-.09,.78-.21,.74-.35,1.3-1.09,1.72-2.27,.08-.21-.04-.45-.25-.52-.21-.08-.45,.03-.52,.25-.34,.96-.77,1.55-1.3,1.81-.42,.2-.91,.19-1.5-.02l-.32,.75c.07,.04,1.7,.91,.82,3.14-.08,.21,.02,.45,.23,.53,.15,.06,.32,.02,.43-.08Z"/><g id="e"><path class="j" d="M1706.16,789.31c-.36-.42-1.15-.82-2.84-1.59-2.22-1.01-4.21-1.42-8.45-1.91-6.71-.78-6.46-.32-9.47-.91-3.42-.67-5.83-1.68-8.73-2.89-4.48-1.88-6.95-2.91-9.68-5.18-2.5-2.08-5.79-4.83-6.48-9.38-.61-4.03,1.17-7.22,1.79-8.34,3.51-6.77,9.03-8.32,15.2-3.03,3.6,2.84,3.17,4.92,7.83,9.68,1.52,1.56,2.73,2.79,4.73,3.99,1.74,1.05,2.98,1.41,9.05,3.02,6.41,1.7,7.22,1.88,9.04,2.45,1.22,.38,3.85,1.3,4.86,1.71"/><path class="aj" d="M1706.44,789.23s.06-3.56-13.91-6.03c-7.35-.51-13.63-3.51-16.24-4.84-4.65-2.19-9.43-4.82-11.73-10.13-2.58-6.53,3.26-14.02,3.26-14.02l-2.66,1.25-3.85,7.56-.32,4.56,2.41,5.07,5.86,5.09,4.06,2.27,6.54,2.66,5.52,1.79,3.83,.46,3.98,.11,3.01,.73,3.23,.64,3.06,.84,3.94,1.98Z"/><path class="am" d="M1705.89,789.54c-.4-.38-1.03-.61-1.55-.85-1.73-.79-3.5-1.35-5.39-1.62-3.78-.54-7.63-.79-11.47-.94-3.98-.32-7.8-1.75-11.38-3.26-2.37-.99-4.81-1.93-7.14-3.33-4.46-2.92-9.16-6.95-9.67-12.63-.56-4.98,2.81-11.84,7.35-14.27,4.79-2.55,10.09,.65,13.39,4.16,1.32,1.47,2.26,3.36,3.36,4.87,2.18,2.87,4.78,5.79,7.97,7.53,2.14,1.05,4.76,1.62,7.11,2.32,1.85,.53,5.57,1.64,7.4,2.22,2.48,.76,4.87,1.86,7.23,2.92,.15,.07,.22,.25,.15,.4-.06,.13-.21,.2-.35,.17-2.51-.61-4.92-1.43-7.45-1.95-1.89-.41-5.65-1.28-7.53-1.74-2.55-.69-5.18-1.17-7.59-2.35-3.57-1.89-6.41-4.98-8.85-8.14-1.44-1.95-2.36-4.01-4.18-5.55-2.55-2.26-6.22-4.53-9.58-2.72-2.07,1.09-3.42,3.09-4.55,5.18-1.18,2.09-1.82,4.43-1.62,6.74,.26,3.68,2.77,6.55,5.53,8.82,2.82,2.58,6.21,3.98,9.77,5.48,3.5,1.52,7,2.89,10.75,3.29,2.51,.16,5.19,.41,7.71,.79,3.24,.42,6.53,1.11,9.38,2.79,.61,.35,1.2,.63,1.7,1.19,.12,.15,.1,.38-.05,.5-.15,.12-.36,.1-.49-.04h0Z"/></g><path class="am" d="M1699.38,781.05c-10.85-1.44-21.39-5.57-30.38-12-1.61-1.13-2-3.35-.85-4.96,1.13-1.59,3.34-1.96,4.94-.83,3.78,3.63,7.84,7.01,12.47,9.71,4.41,2.64,9.2,4.75,14.22,6.29,1.06,.34,.73,1.92-.39,1.79h0Z"/><ellipse class="j" cx="1736.54" cy="771.46" rx=".65" ry=".98" transform="translate(260.18 1967.74) rotate(-62.97)"/><ellipse class="j" cx="1723.28" cy="792.94" rx=".65" ry=".98" transform="translate(233.82 1967.65) rotate(-62.97)"/></g></g><g><path class="ar" d="M696.98,416.39h-10.04v-5.85h2.14v-12.74h-2.14v-5.85h11.58l8.89,12.78v-6.93h-1.99v-5.85h9.86v5.85h-2.13v18.91h-8.05l-10.3-14.78v8.61h2.16v5.85Z"/><path class="ar" d="M718.06,407.78c0-2.51,1.05-4.62,3.16-6.35s4.96-2.58,8.54-2.58,6.54,.83,8.81,2.5,3.39,3.83,3.39,6.5-1.08,4.73-3.23,6.45-5,2.58-8.54,2.58c-3.82,0-6.8-.86-8.93-2.58-2.13-1.71-3.2-3.88-3.2-6.52Zm8.95,.04c0,2.72,.97,4.08,2.92,4.08,2.06,0,3.09-1.37,3.09-4.11,0-1.25-.25-2.23-.76-2.92-.52-.69-1.24-1.04-2.18-1.04s-1.67,.34-2.23,1.02-.84,1.67-.84,2.97Z"/><path class="ar" d="M757.24,416.6h-7l-5.22-11.9h-1.83v-5.36h11.5v5.36h-1.71l2,5.68,4.2-11.04h6.56l3.83,11.04,2.18-5.68h-1.63v-5.36h8.31v5.36h-1.67l-4.96,11.9h-7.01l-3.9-8.74-3.66,8.74Z"/><path class="ar" d="M800.13,424.21h-7.45v-5.19h2.87l.86-1.74-6.54-12.59h-1.32v-5.36h11.62v5.36h-1.88l2.97,6.7,2.74-6.7h-1.65v-5.36h8.81v5.36h-1.71l-9.32,19.51Z"/><path class="ar" d="M812.63,407.78c0-2.51,1.05-4.62,3.16-6.35s4.96-2.58,8.54-2.58,6.54,.83,8.81,2.5,3.39,3.83,3.39,6.5-1.08,4.73-3.23,6.45-5,2.58-8.54,2.58c-3.82,0-6.8-.86-8.93-2.58-2.13-1.71-3.2-3.88-3.2-6.52Zm8.95,.04c0,2.72,.97,4.08,2.92,4.08,2.06,0,3.09-1.37,3.09-4.11,0-1.25-.25-2.23-.76-2.92-.52-.69-1.24-1.04-2.18-1.04s-1.67,.34-2.23,1.02-.84,1.67-.84,2.97Z"/><path class="ar" d="M840.96,404.7h-2.06v-5.36h10.9v8.12c0,1.37,.13,2.29,.39,2.76,.25,.48,.77,.72,1.58,.72,.98,0,1.9-.26,2.74-.79v-5.45h-2.34v-5.36h11.18v11.69h2.06v5.36h-10.9v-2.16c-2.33,1.65-4.72,2.48-7.15,2.48-1.75,0-3.25-.56-4.5-1.67-1.27-1.11-1.9-3.21-1.9-6.29v-4.04Z"/><path class="ar" d="M889.87,416.39h-13.46v-5.36h2.23v-13.73h-2.23v-5.36h11.07v9.46c2.36-1.58,4.67-2.37,6.94-2.37,2,0,3.59,.58,4.76,1.74,1.17,1.17,1.76,3.24,1.76,6.21v4.06h2v5.36h-10.85v-6.98c0-2.12-.12-3.45-.37-3.99-.26-.54-.8-.81-1.62-.81s-1.73,.3-2.64,.9v5.52h2.39v5.36Z"/><path class="ar" d="M912.45,404.1l-6.93-.7c.76-1.68,1.99-2.85,3.69-3.53,1.68-.68,4.15-1.02,7.42-1.02,1.21,0,2.29,.04,3.24,.11s1.81,.19,2.56,.34c1.56,.29,2.71,.74,3.46,1.35,.75,.62,1.27,1.29,1.56,2,.3,.74,.46,1.89,.46,3.45v4.92h2.18v5.36h-11.02v-1.16c-1.52,.98-3.56,1.48-6.12,1.48-2.4,0-4.21-.53-5.43-1.58-1.23-1.05-1.85-2.3-1.85-3.74,0-1.59,.76-2.9,2.27-3.92,1.5-1.02,3.46-1.53,5.87-1.53,2.2,0,3.96,.29,5.26,.86v-.51c0-1.05-.08-1.79-.23-2.21-.16-.45-.53-.83-1.09-1.14-.59-.3-1.27-.46-2.04-.46-1.42,0-2.51,.54-3.27,1.63Zm6.63,7.93v-3.11c-.79-.42-1.62-.63-2.5-.63-.77,0-1.39,.21-1.85,.63-.46,.43-.69,.98-.69,1.65s.23,1.25,.7,1.69c.48,.45,1.03,.67,1.65,.67,1.1,0,1.99-.3,2.67-.9Z"/><path class="ar" d="M945.85,416.6h-7.08l-6.38-11.9h-1.71v-5.36h12.02v5.36h-1.9l2.83,6.49,2.99-6.49h-1.71v-5.36h8.82v5.36h-1.65l-6.24,11.9Z"/><path class="ar" d="M969.53,410.99l7.29,.9c-.33,.76-.79,1.44-1.37,2.05s-1.3,1.13-2.14,1.57c-1.7,.91-3.73,1.37-6.1,1.37-3.97,0-6.96-.83-8.96-2.48-2-1.64-3.01-3.79-3.01-6.45s.99-4.77,2.97-6.5c1.96-1.73,4.61-2.6,7.96-2.6s5.85,.82,7.88,2.46c1.99,1.63,3.05,4.11,3.18,7.44h-13.43c.04,2.77,1.07,4.15,3.09,4.15,1.22,0,2.1-.63,2.64-1.9Zm-5.62-4.46h4.97c.02-.35,.04-.55,.04-.6,0-.93-.23-1.69-.7-2.3-.47-.6-1.09-.9-1.86-.9s-1.41,.33-1.83,.98c-.42,.67-.63,1.49-.63,2.46,0,.13,0,.25,.02,.35Z"/><path class="ar" d="M989.13,404.7v-5.36h10.9v1.14c1.88-.97,3.8-1.46,5.78-1.46,2.53,0,4.71,.82,6.52,2.46,1.8,1.65,2.71,3.81,2.71,6.49s-.88,4.82-2.65,6.38c-1.78,1.57-4.1,2.36-6.94,2.36-2.11,0-3.91-.47-5.41-1.41v3.55h2.25v5.36h-13.18v-5.36h2.09v-14.15h-2.06Zm10.85,3.23c0,1.23,.28,2.16,.84,2.78,.55,.63,1.25,.95,2.09,.95,2,0,3.01-1.28,3.01-3.83s-.96-3.74-2.88-3.74c-.88,0-1.61,.3-2.18,.91-.59,.62-.88,1.6-.88,2.94Z"/><path class="ar" d="M1031.58,416.39h-13.75v-5.36h2.32v-6.33h-2.32v-5.36h10.58v4.27c.4-1.07,1.01-1.99,1.85-2.76,.8-.76,1.61-1.26,2.43-1.49,.79-.22,1.94-.33,3.46-.33v7.51c-.2-.01-.45-.02-.74-.02-1.8,0-3.15,.18-4.03,.54-.91,.38-1.54,.87-1.86,1.48-.34,.63-.52,1.46-.53,2.5h2.58v5.36Z"/><path class="ar" d="M1037.73,407.78c0-2.51,1.05-4.62,3.16-6.35s4.96-2.58,8.54-2.58,6.54,.83,8.81,2.5,3.39,3.83,3.39,6.5-1.08,4.73-3.23,6.45-5,2.58-8.54,2.58c-3.82,0-6.8-.86-8.93-2.58-2.13-1.71-3.2-3.88-3.2-6.52Zm8.95,.04c0,2.72,.97,4.08,2.92,4.08,2.06,0,3.09-1.37,3.09-4.11,0-1.25-.25-2.23-.76-2.92-.52-.69-1.24-1.04-2.18-1.04s-1.67,.34-2.23,1.02-.84,1.67-.84,2.97Z"/><path class="ar" d="M1077.93,416.6h-7.08l-6.38-11.9h-1.71v-5.36h12.02v5.36h-1.9l2.83,6.49,2.99-6.49h-1.71v-5.36h8.82v5.36h-1.65l-6.24,11.9Z"/><path class="ar" d="M1101.61,410.99l7.29,.9c-.33,.76-.79,1.44-1.37,2.05s-1.3,1.13-2.14,1.57c-1.7,.91-3.73,1.37-6.1,1.37-3.97,0-6.96-.83-8.96-2.48-2-1.64-3.01-3.79-3.01-6.45s.99-4.77,2.97-6.5c1.96-1.73,4.61-2.6,7.96-2.6s5.85,.82,7.88,2.46c1.99,1.63,3.05,4.11,3.18,7.44h-13.43c.04,2.77,1.07,4.15,3.09,4.15,1.22,0,2.1-.63,2.64-1.9Zm-5.62-4.46h4.97c.02-.35,.04-.55,.04-.6,0-.93-.23-1.69-.7-2.3-.47-.6-1.09-.9-1.86-.9s-1.41,.33-1.83,.98c-.42,.67-.63,1.49-.63,2.46,0,.13,0,.25,.02,.35Z"/><path class="ar" d="M1125.62,416.39h-13.5v-5.36h2.2v-6.33h-2.2v-5.36h11.04v2.16c2.17-1.65,4.49-2.48,6.98-2.48,2.18,0,3.82,.6,4.92,1.81,1.09,1.21,1.63,3.15,1.63,5.82v4.38h2.02v5.36h-10.86v-7.58c0-1.65-.14-2.74-.42-3.27-.3-.52-.88-.77-1.74-.77-.79,0-1.63,.3-2.53,.9v5.36h2.46v5.36Z"/><path class="ar" d="M1163.91,410.17v5.24c-.57,.39-1.41,.73-2.5,1.02-1.15,.3-2.25,.46-3.3,.46-1.32,0-2.46-.22-3.41-.65-.97-.45-1.71-1.04-2.2-1.79-.27-.43-.47-.83-.6-1.19s-.22-.76-.28-1.2c-.08-.77-.12-2.27-.12-4.48v-2.87h-2.18v-5.36h2.18v-2.62l8.84-4.2v6.82h3.57v5.36h-3.57v3.3c0,1.08,.1,1.8,.3,2.16,.19,.36,.59,.54,1.2,.54,.57,0,1.27-.18,2.07-.54Z"/><path class="ar" d="M1179.52,416.39h-13.46v-5.36h2.23v-13.73h-2.23v-5.36h11.07v9.46c2.36-1.58,4.67-2.37,6.94-2.37,2,0,3.59,.58,4.76,1.74,1.17,1.17,1.76,3.24,1.76,6.21v4.06h2v5.36h-10.85v-6.98c0-2.12-.12-3.45-.37-3.99-.26-.54-.8-.81-1.62-.81s-1.73,.3-2.64,.9v5.52h2.39v5.36Z"/><path class="ar" d="M1202.11,404.1l-6.93-.7c.76-1.68,1.99-2.85,3.69-3.53,1.68-.68,4.15-1.02,7.42-1.02,1.21,0,2.29,.04,3.24,.11s1.81,.19,2.56,.34c1.56,.29,2.71,.74,3.46,1.35,.75,.62,1.27,1.29,1.56,2,.3,.74,.46,1.89,.46,3.45v4.92h2.18v5.36h-11.02v-1.16c-1.52,.98-3.56,1.48-6.12,1.48-2.4,0-4.21-.53-5.43-1.58-1.23-1.05-1.85-2.3-1.85-3.74,0-1.59,.76-2.9,2.27-3.92,1.5-1.02,3.46-1.53,5.87-1.53,2.2,0,3.96,.29,5.26,.86v-.51c0-1.05-.08-1.79-.23-2.21-.16-.45-.53-.83-1.09-1.14-.59-.3-1.27-.46-2.04-.46-1.42,0-2.51,.54-3.27,1.63Zm6.63,7.93v-3.11c-.79-.42-1.62-.63-2.5-.63-.77,0-1.39,.21-1.85,.63-.46,.43-.69,.98-.69,1.65s.23,1.25,.7,1.69c.48,.45,1.03,.67,1.65,.67,1.1,0,1.99-.3,2.67-.9Z"/><path class="ar" d="M1235.91,410.17v5.24c-.57,.39-1.41,.73-2.5,1.02-1.15,.3-2.25,.46-3.3,.46-1.32,0-2.46-.22-3.41-.65-.97-.45-1.71-1.04-2.2-1.79-.27-.43-.47-.83-.6-1.19s-.22-.76-.28-1.2c-.08-.77-.12-2.27-.12-4.48v-2.87h-2.18v-5.36h2.18v-2.62l8.84-4.2v6.82h3.57v5.36h-3.57v3.3c0,1.08,.1,1.8,.3,2.16,.19,.36,.59,.54,1.2,.54,.57,0,1.27-.18,2.07-.54Z"/><path class="ar" d="M740.73,467.41h-7.45v-5.19h2.87l.86-1.74-6.54-12.59h-1.32v-5.36h11.62v5.36h-1.88l2.97,6.7,2.74-6.7h-1.65v-5.36h8.81v5.36h-1.71l-9.32,19.51Z"/><path class="ar" d="M753.23,450.98c0-2.51,1.05-4.62,3.16-6.35s4.96-2.58,8.54-2.58,6.54,.83,8.81,2.5,3.39,3.83,3.39,6.5-1.08,4.73-3.23,6.45-5,2.58-8.54,2.58c-3.82,0-6.8-.86-8.93-2.58-2.13-1.71-3.2-3.88-3.2-6.52Zm8.95,.04c0,2.72,.97,4.08,2.92,4.08,2.06,0,3.09-1.37,3.09-4.11,0-1.25-.25-2.23-.76-2.92-.52-.69-1.24-1.04-2.18-1.04s-1.67,.34-2.23,1.02-.84,1.67-.84,2.97Z"/><path class="ar" d="M781.57,447.9h-2.06v-5.36h10.9v8.12c0,1.37,.13,2.29,.39,2.76,.25,.48,.77,.72,1.58,.72,.98,0,1.9-.26,2.74-.79v-5.45h-2.34v-5.36h11.18v11.69h2.06v5.36h-10.9v-2.16c-2.33,1.65-4.72,2.48-7.15,2.48-1.75,0-3.25-.56-4.5-1.67-1.27-1.11-1.9-3.21-1.9-6.29v-4.04Z"/><path class="ar" d="M824.54,447.3l-6.93-.7c.76-1.68,1.99-2.85,3.69-3.53,1.68-.68,4.15-1.02,7.42-1.02,1.21,0,2.29,.04,3.24,.11s1.81,.19,2.56,.34c1.56,.29,2.71,.74,3.46,1.35,.75,.62,1.27,1.29,1.56,2,.3,.74,.46,1.89,.46,3.45v4.92h2.18v5.36h-11.02v-1.16c-1.52,.98-3.56,1.48-6.12,1.48-2.4,0-4.21-.53-5.43-1.58-1.23-1.05-1.85-2.3-1.85-3.74,0-1.59,.76-2.9,2.27-3.92,1.5-1.02,3.46-1.53,5.87-1.53,2.2,0,3.96,.29,5.26,.86v-.51c0-1.05-.08-1.79-.23-2.21-.16-.45-.53-.83-1.09-1.14-.59-.3-1.27-.46-2.04-.46-1.42,0-2.51,.54-3.27,1.63Zm6.63,7.93v-3.11c-.79-.42-1.62-.63-2.5-.63-.77,0-1.39,.21-1.85,.63-.46,.43-.69,.98-.69,1.65s.23,1.25,.7,1.69c.48,.45,1.03,.67,1.65,.67,1.1,0,1.99-.3,2.67-.9Z"/><path class="ar" d="M858.1,459.59h-13.75v-5.36h2.32v-6.33h-2.32v-5.36h10.58v4.27c.4-1.07,1.01-1.99,1.85-2.76,.8-.76,1.61-1.26,2.43-1.49,.79-.22,1.94-.33,3.46-.33v7.51c-.2-.01-.45-.02-.74-.02-1.8,0-3.15,.18-4.03,.54-.91,.38-1.54,.87-1.86,1.48-.34,.63-.52,1.46-.53,2.5h2.58v5.36Z"/><path class="ar" d="M878.56,454.19l7.29,.9c-.33,.76-.79,1.44-1.37,2.05s-1.3,1.13-2.14,1.57c-1.7,.91-3.73,1.37-6.1,1.37-3.97,0-6.96-.83-8.96-2.48-2-1.64-3.01-3.79-3.01-6.45s.99-4.77,2.97-6.5c1.96-1.73,4.61-2.6,7.96-2.6s5.85,.82,7.88,2.46c1.99,1.63,3.05,4.11,3.18,7.44h-13.43c.04,2.77,1.07,4.15,3.09,4.15,1.22,0,2.1-.63,2.64-1.9Zm-5.62-4.46h4.97c.02-.35,.04-.55,.04-.6,0-.93-.23-1.69-.7-2.3-.47-.6-1.09-.9-1.86-.9s-1.41,.33-1.83,.98c-.42,.67-.63,1.49-.63,2.46,0,.13,0,.25,.02,.35Z"/><path class="ar" d="M905.19,447.3l-6.93-.7c.76-1.68,1.99-2.85,3.69-3.53,1.68-.68,4.15-1.02,7.42-1.02,1.21,0,2.29,.04,3.24,.11s1.81,.19,2.56,.34c1.56,.29,2.71,.74,3.46,1.35,.75,.62,1.27,1.29,1.56,2,.3,.74,.46,1.89,.46,3.45v4.92h2.18v5.36h-11.02v-1.16c-1.52,.98-3.56,1.48-6.12,1.48-2.4,0-4.21-.53-5.43-1.58-1.23-1.05-1.85-2.3-1.85-3.74,0-1.59,.76-2.9,2.27-3.92,1.5-1.02,3.46-1.53,5.87-1.53,2.2,0,3.96,.29,5.26,.86v-.51c0-1.05-.08-1.79-.23-2.21-.16-.45-.53-.83-1.09-1.14-.59-.3-1.27-.46-2.04-.46-1.42,0-2.51,.54-3.27,1.63Zm6.63,7.93v-3.11c-.79-.42-1.62-.63-2.5-.63-.77,0-1.39,.21-1.85,.63-.46,.43-.69,.98-.69,1.65s.23,1.25,.7,1.69c.48,.45,1.03,.67,1.65,.67,1.1,0,1.99-.3,2.67-.9Z"/><path class="ar" d="M948,453.37v5.24c-.57,.39-1.41,.73-2.5,1.02-1.15,.3-2.25,.46-3.3,.46-1.32,0-2.46-.22-3.41-.65-.97-.45-1.71-1.04-2.2-1.79-.27-.43-.47-.83-.6-1.19s-.22-.76-.28-1.2c-.08-.77-.12-2.27-.12-4.48v-2.87h-2.18v-5.36h2.18v-2.62l8.84-4.2v6.82h3.57v5.36h-3.57v3.3c0,1.08,.1,1.8,.3,2.16,.19,.36,.59,.54,1.2,.54,.57,0,1.27-.18,2.07-.54Z"/><path class="ar" d="M964.24,459.59h-13.75v-5.36h2.32v-6.33h-2.32v-5.36h10.58v4.27c.4-1.07,1.01-1.99,1.85-2.76,.8-.76,1.61-1.26,2.43-1.49,.79-.22,1.94-.33,3.46-.33v7.51c-.2-.01-.45-.02-.74-.02-1.8,0-3.15,.18-4.03,.54-.91,.38-1.54,.87-1.86,1.48-.34,.63-.52,1.46-.53,2.5h2.58v5.36Z"/><path class="ar" d="M973.17,447.9h-2.06v-5.36h10.9v8.12c0,1.37,.13,2.29,.39,2.76,.25,.48,.77,.72,1.58,.72,.98,0,1.9-.26,2.74-.79v-5.45h-2.34v-5.36h11.18v11.69h2.06v5.36h-10.9v-2.16c-2.33,1.65-4.72,2.48-7.15,2.48-1.75,0-3.25-.56-4.5-1.67-1.27-1.11-1.9-3.21-1.9-6.29v-4.04Z"/><path class="ar" d="M1014.65,454.19l7.29,.9c-.33,.76-.79,1.44-1.37,2.05s-1.3,1.13-2.14,1.57c-1.7,.91-3.73,1.37-6.1,1.37-3.97,0-6.96-.83-8.96-2.48-2-1.64-3.01-3.79-3.01-6.45s.99-4.77,2.97-6.5c1.96-1.73,4.61-2.6,7.96-2.6s5.85,.82,7.88,2.46c1.99,1.63,3.05,4.11,3.18,7.44h-13.43c.04,2.77,1.07,4.15,3.09,4.15,1.22,0,2.1-.63,2.64-1.9Zm-5.62-4.46h4.97c.02-.35,.04-.55,.04-.6,0-.93-.23-1.69-.7-2.3-.47-.6-1.09-.9-1.86-.9s-1.41,.33-1.83,.98c-.42,.67-.63,1.49-.63,2.46,0,.13,0,.25,.02,.35Z"/><path class="ar" d="M1047.21,459.59h-13.46v-5.36h2.23v-13.73h-2.23v-5.36h11.07v9.46c2.36-1.58,4.67-2.37,6.94-2.37,2,0,3.59,.58,4.76,1.74,1.17,1.17,1.76,3.24,1.76,6.21v4.06h2v5.36h-10.85v-6.98c0-2.12-.12-3.45-.37-3.99-.26-.54-.8-.81-1.62-.81s-1.73,.3-2.64,.9v5.52h2.39v5.36Z"/><path class="ar" d="M1064.33,447.9h-2.06v-5.36h10.9v8.12c0,1.37,.13,2.29,.39,2.76,.25,.48,.77,.72,1.58,.72,.98,0,1.9-.26,2.74-.79v-5.45h-2.34v-5.36h11.18v11.69h2.06v5.36h-10.9v-2.16c-2.33,1.65-4.72,2.48-7.15,2.48-1.75,0-3.25-.56-4.5-1.67-1.27-1.11-1.9-3.21-1.9-6.29v-4.04Z"/><path class="ar" d="M1104.69,459.59h-13.5v-5.36h2.2v-6.33h-2.2v-5.36h11.04v2.16c2.17-1.65,4.49-2.48,6.98-2.48,2.18,0,3.82,.6,4.92,1.81,1.09,1.21,1.63,3.15,1.63,5.82v4.38h2.02v5.36h-10.86v-7.58c0-1.65-.14-2.74-.42-3.27-.3-.52-.88-.77-1.74-.77-.79,0-1.63,.3-2.53,.9v5.36h2.46v5.36Z"/><path class="ar" d="M1133.97,453.37v5.24c-.57,.39-1.41,.73-2.5,1.02-1.15,.3-2.25,.46-3.3,.46-1.32,0-2.46-.22-3.41-.65-.97-.45-1.71-1.04-2.2-1.79-.27-.43-.47-.83-.6-1.19s-.22-.76-.28-1.2c-.08-.77-.12-2.27-.12-4.48v-2.87h-2.18v-5.36h2.18v-2.62l8.84-4.2v6.82h3.57v5.36h-3.57v3.3c0,1.08,.1,1.8,.3,2.16,.19,.36,.59,.54,1.2,.54,.57,0,1.27-.18,2.07-.54Z"/><path class="ar" d="M1151.16,454.19l7.29,.9c-.33,.76-.79,1.44-1.37,2.05s-1.3,1.13-2.14,1.57c-1.7,.91-3.73,1.37-6.1,1.37-3.97,0-6.96-.83-8.96-2.48-2-1.64-3.01-3.79-3.01-6.45s.99-4.77,2.97-6.5c1.96-1.73,4.61-2.6,7.96-2.6s5.85,.82,7.88,2.46c1.99,1.63,3.05,4.11,3.18,7.44h-13.43c.04,2.77,1.07,4.15,3.09,4.15,1.22,0,2.1-.63,2.64-1.9Zm-5.62-4.46h4.97c.02-.35,.04-.55,.04-.6,0-.93-.23-1.69-.7-2.3-.47-.6-1.09-.9-1.86-.9s-1.41,.33-1.83,.98c-.42,.67-.63,1.49-.63,2.46,0,.13,0,.25,.02,.35Z"/><path class="ar" d="M1175.35,459.59h-13.75v-5.36h2.32v-6.33h-2.32v-5.36h10.58v4.27c.4-1.07,1.01-1.99,1.85-2.76,.8-.76,1.61-1.26,2.43-1.49,.79-.22,1.94-.33,3.46-.33v7.51c-.2-.01-.45-.02-.74-.02-1.8,0-3.15,.18-4.03,.54-.91,.38-1.54,.87-1.86,1.48-.34,.63-.52,1.46-.53,2.5h2.58v5.36Z"/><path class="ar" d="M1191.47,459.59h-8.77v-6.4h8.77v6.4Zm-1.41-9.83h-5.99l-1.23-7.61v-7.01h8.49v6.87l-1.27,7.75Z"/><path class="ar" d="M692.4,553.21v-5.99c.38,.09,.72,.14,1.04,.14,.75,0,1.23-.26,1.44-.77,.2-.53,.3-1.79,.3-3.78v-15.42h-2.25v-5.85h13.8v5.85h-2.09v14.33c0,2.66-.07,4.54-.21,5.62-.14,1.1-.54,2.15-1.21,3.15-.69,1.01-1.58,1.76-2.67,2.27s-2.6,.76-4.54,.76c-1.11,0-2.31-.1-3.6-.3Z"/><path class="ar" d="M707.92,537.37c0-2.51,1.05-4.62,3.16-6.35s4.96-2.58,8.54-2.58,6.54,.83,8.81,2.5,3.39,3.83,3.39,6.5-1.08,4.73-3.23,6.45-5,2.58-8.54,2.58c-3.82,0-6.8-.86-8.93-2.58-2.13-1.71-3.2-3.88-3.2-6.52Zm8.95,.04c0,2.72,.97,4.08,2.92,4.08,2.06,0,3.09-1.37,3.09-4.11,0-1.25-.25-2.23-.76-2.92-.52-.69-1.24-1.04-2.18-1.04s-1.67,.34-2.23,1.02-.84,1.67-.84,2.97Z"/><path class="ar" d="M746.72,545.99h-12.08v-5.36h1.76v-6.33h-1.76v-5.36h10.6v11.69h1.48v5.36Zm-11.06-21.87c0-.93,.47-1.67,1.42-2.23,.94-.56,2.1-.84,3.48-.84s2.56,.29,3.43,.88c.86,.6,1.28,1.32,1.28,2.18,0,.93-.45,1.66-1.34,2.2-.9,.55-2.04,.83-3.41,.83s-2.55-.25-3.48-.76c-.93-.49-1.39-1.24-1.39-2.25Z"/><path class="ar" d="M762.71,545.99h-13.5v-5.36h2.2v-6.33h-2.2v-5.36h11.04v2.16c2.17-1.65,4.49-2.48,6.98-2.48,2.18,0,3.82,.6,4.92,1.81,1.09,1.21,1.63,3.15,1.63,5.82v4.38h2.02v5.36h-10.86v-7.58c0-1.65-.14-2.74-.42-3.27-.3-.52-.88-.77-1.74-.77-.79,0-1.63,.3-2.53,.9v5.36h2.46v5.36Z"/><path class="ar" d="M801,539.77v5.24c-.57,.39-1.41,.73-2.5,1.02-1.15,.3-2.25,.46-3.3,.46-1.32,0-2.46-.22-3.41-.65-.97-.45-1.71-1.04-2.2-1.79-.27-.43-.47-.83-.6-1.19s-.22-.76-.28-1.2c-.08-.77-.12-2.27-.12-4.48v-2.87h-2.18v-5.36h2.18v-2.62l8.84-4.2v6.82h3.57v5.36h-3.57v3.3c0,1.08,.1,1.8,.3,2.16,.19,.36,.59,.54,1.2,.54,.57,0,1.27-.18,2.07-.54Z"/><path class="ar" d="M816.61,545.99h-13.46v-5.36h2.23v-13.73h-2.23v-5.36h11.07v9.46c2.36-1.58,4.67-2.37,6.94-2.37,2,0,3.59,.58,4.76,1.74,1.17,1.17,1.76,3.24,1.76,6.21v4.06h2v5.36h-10.85v-6.98c0-2.12-.12-3.45-.37-3.99-.26-.54-.8-.81-1.62-.81s-1.73,.3-2.64,.9v5.52h2.39v5.36Z"/><path class="ar" d="M846.7,540.59l7.29,.9c-.33,.76-.79,1.44-1.37,2.05s-1.3,1.13-2.14,1.57c-1.7,.91-3.73,1.37-6.1,1.37-3.97,0-6.96-.83-8.96-2.48-2-1.64-3.01-3.79-3.01-6.45s.99-4.77,2.97-6.5c1.96-1.73,4.61-2.6,7.96-2.6s5.85,.82,7.88,2.46c1.99,1.63,3.05,4.11,3.18,7.44h-13.43c.04,2.77,1.07,4.15,3.09,4.15,1.22,0,2.1-.63,2.64-1.9Zm-5.62-4.46h4.97c.02-.35,.04-.55,.04-.6,0-.93-.23-1.69-.7-2.3-.47-.6-1.09-.9-1.86-.9s-1.41,.33-1.83,.98c-.42,.67-.63,1.49-.63,2.46,0,.13,0,.25,.02,.35Z"/><path class="ar" d="M889.94,545.99h-23.33v-5.85h1.9v-12.74h-1.93v-5.85h23.36v7.82h-6.42v-1.97h-5.55v3.76h4.83v4.97h-4.83v4.01h5.55v-1.97h6.42v7.82Z"/><path class="ar" d="M905.4,545.99h-12.22v-5.36h1.81v-13.73h-1.81v-5.36h10.65v19.09h1.56v5.36Z"/><path class="ar" d="M919.93,545.99h-12.08v-5.36h1.76v-6.33h-1.76v-5.36h10.6v11.69h1.48v5.36Zm-11.06-21.87c0-.93,.47-1.67,1.42-2.23,.94-.56,2.1-.84,3.48-.84s2.56,.29,3.43,.88c.86,.6,1.28,1.32,1.28,2.18,0,.93-.45,1.66-1.34,2.2-.9,.55-2.04,.83-3.41,.83s-2.55-.25-3.48-.76c-.93-.49-1.39-1.24-1.39-2.25Z"/><path class="ar" d="M936.35,539.77v5.24c-.57,.39-1.41,.73-2.5,1.02-1.15,.3-2.25,.46-3.3,.46-1.32,0-2.46-.22-3.41-.65-.97-.45-1.71-1.04-2.2-1.79-.27-.43-.47-.83-.6-1.19s-.22-.76-.28-1.2c-.08-.77-.12-2.27-.12-4.48v-2.87h-2.18v-5.36h2.18v-2.62l8.84-4.2v6.82h3.57v5.36h-3.57v3.3c0,1.08,.1,1.8,.3,2.16,.19,.36,.59,.54,1.2,.54,.57,0,1.27-.18,2.07-.54Z"/><path class="ar" d="M953.54,540.59l7.29,.9c-.33,.76-.79,1.44-1.37,2.05s-1.3,1.13-2.14,1.57c-1.7,.91-3.73,1.37-6.1,1.37-3.97,0-6.96-.83-8.96-2.48-2-1.64-3.01-3.79-3.01-6.45s.99-4.77,2.97-6.5c1.96-1.73,4.61-2.6,7.96-2.6s5.85,.82,7.88,2.46c1.99,1.63,3.05,4.11,3.18,7.44h-13.43c.04,2.77,1.07,4.15,3.09,4.15,1.22,0,2.1-.63,2.64-1.9Zm-5.62-4.46h4.97c.02-.35,.04-.55,.04-.6,0-.93-.23-1.69-.7-2.3-.47-.6-1.09-.9-1.86-.9s-1.41,.33-1.83,.98c-.42,.67-.63,1.49-.63,2.46,0,.13,0,.25,.02,.35Z"/><path class="ar" d="M986.31,545.99h-12.87v-5.85h1.85v-12.74h-1.88v-5.85h12.9v5.85h-1.56v3.73h5.66v-3.73h-1.58v-5.85h12.88v5.85h-1.85v12.74h1.85v5.85h-12.88v-5.85h1.58v-4.01h-5.66v4.01h1.56v5.85Z"/><path class="ar" d="M1006.21,534.3h-2.06v-5.36h10.9v8.12c0,1.37,.13,2.29,.39,2.76,.25,.48,.77,.72,1.58,.72,.98,0,1.9-.26,2.74-.79v-5.45h-2.34v-5.36h11.18v11.69h2.06v5.36h-10.9v-2.16c-2.33,1.65-4.72,2.48-7.15,2.48-1.75,0-3.25-.56-4.5-1.67-1.27-1.11-1.9-3.21-1.9-6.29v-4.04Z"/><path class="ar" d="M1046.57,545.99h-13.5v-5.36h2.2v-6.33h-2.2v-5.36h11.04v2.16c2.17-1.65,4.49-2.48,6.98-2.48,2.18,0,3.82,.6,4.92,1.81,1.09,1.21,1.63,3.15,1.63,5.82v4.38h2.02v5.36h-10.86v-7.58c0-1.65-.14-2.74-.42-3.27-.3-.52-.88-.77-1.74-.77-.79,0-1.63,.3-2.53,.9v5.36h2.46v5.36Z"/><path class="ar" d="M1075.85,539.77v5.24c-.57,.39-1.41,.73-2.5,1.02-1.15,.3-2.25,.46-3.3,.46-1.32,0-2.46-.22-3.41-.65-.97-.45-1.71-1.04-2.2-1.79-.27-.43-.47-.83-.6-1.19s-.22-.76-.28-1.2c-.08-.77-.12-2.27-.12-4.48v-2.87h-2.18v-5.36h2.18v-2.62l8.84-4.2v6.82h3.57v5.36h-3.57v3.3c0,1.08,.1,1.8,.3,2.16,.19,.36,.59,.54,1.2,.54,.57,0,1.27-.18,2.07-.54Z"/><path class="ar" d="M1093.04,540.59l7.29,.9c-.33,.76-.79,1.44-1.37,2.05s-1.3,1.13-2.14,1.57c-1.7,.91-3.73,1.37-6.1,1.37-3.97,0-6.96-.83-8.96-2.48-2-1.64-3.01-3.79-3.01-6.45s.99-4.77,2.97-6.5c1.96-1.73,4.61-2.6,7.96-2.6s5.85,.82,7.88,2.46c1.99,1.63,3.05,4.11,3.18,7.44h-13.43c.04,2.77,1.07,4.15,3.09,4.15,1.22,0,2.1-.63,2.64-1.9Zm-5.62-4.46h4.97c.02-.35,.04-.55,.04-.6,0-.93-.23-1.69-.7-2.3-.47-.6-1.09-.9-1.86-.9s-1.41,.33-1.83,.98c-.42,.67-.63,1.49-.63,2.46,0,.13,0,.25,.02,.35Z"/><path class="ar" d="M1117.23,545.99h-13.75v-5.36h2.32v-6.33h-2.32v-5.36h10.58v4.27c.4-1.07,1.01-1.99,1.85-2.76,.8-.76,1.61-1.26,2.43-1.49,.79-.22,1.94-.33,3.46-.33v7.51c-.2-.01-.45-.02-.74-.02-1.8,0-3.15,.18-4.03,.54-.91,.38-1.54,.87-1.86,1.48-.34,.63-.52,1.46-.53,2.5h2.58v5.36Z"/><path class="ar" d="M1151.84,535.21l6.35,2.23c-.54,2.61-1.78,4.75-3.71,6.42-1.96,1.68-4.65,2.51-8.09,2.51-4.69,0-8.16-1.22-10.41-3.67-2.26-2.44-3.39-5.41-3.39-8.93s1.11-6.54,3.32-9.02,5.09-3.71,8.63-3.71c2.87,0,5.21,.71,7.01,2.13v-1.63h5.87v8.93h-6.1c-.32-1.11-.85-1.99-1.6-2.64-.75-.63-1.61-.95-2.57-.95-2.65,0-3.97,2.28-3.97,6.84s1.37,6.86,4.11,6.86c2.4,0,3.91-1.79,4.54-5.36Z"/><path class="ar" d="M1173.11,545.99h-12.22v-5.36h1.81v-13.73h-1.81v-5.36h10.65v19.09h1.56v5.36Z"/><path class="ar" d="M1177.19,534.3h-2.06v-5.36h10.9v8.12c0,1.37,.13,2.29,.39,2.76,.25,.48,.77,.72,1.58,.72,.98,0,1.9-.26,2.74-.79v-5.45h-2.34v-5.36h11.18v11.69h2.06v5.36h-10.9v-2.16c-2.33,1.65-4.72,2.48-7.15,2.48-1.75,0-3.25-.56-4.5-1.67-1.27-1.11-1.9-3.21-1.9-6.29v-4.04Z"/><path class="ar" d="M1214.84,545.99h-11.07v-5.36h2.23v-13.73h-2.27v-5.36h11.11v8.49c1.5-.94,3.32-1.41,5.47-1.41,2.71,0,4.95,.77,6.71,2.32s2.65,3.65,2.65,6.31c0,1.31-.21,2.5-.64,3.57s-1.07,2.03-1.92,2.88c-1.7,1.73-3.83,2.6-6.4,2.6-2.27,0-4.23-.49-5.87-1.46v1.14Zm-.07-8.6c0,2.57,1.02,3.85,3.06,3.85,1.93,0,2.9-1.28,2.9-3.83,0-1.22-.27-2.15-.81-2.79-.54-.63-1.26-.95-2.16-.95-.96,0-1.7,.35-2.21,1.04-.52,.71-.77,1.61-.77,2.69Z"/></g><g><path class="ar" d="M433.6,389.6l-78.34,13.39-5.87-34.33,11.55-1.97-3.89-22.78-45.07-45.77-9.79,1.67-5.87-34.33,74.94-12.81,5.87,34.33-8.56,1.46,20.26,26.67,13.45-32.43-8.76,1.5-5.87-34.33,55.15-9.43,5.87,34.33-8.97,1.53-27.2,58.12,3.89,22.78,11.34-1.94,5.87,34.33Z"/><path class="ar" d="M458.7,311.15c-2.04-11.96-1.1-24.04,2.82-36.24,3.87-12.12,11.23-23.03,22.09-32.74,3.87-3.42,7.96-6.31,12.26-8.67,4.3-2.36,9.06-4.43,14.27-6.21,5.21-1.77,10.77-3.17,16.69-4.18,25.7-4.39,46.88-.27,63.55,12.37,8.28,6.22,14.94,13.36,20,21.41,5.05,8.05,8.41,16.92,10.07,26.61,3.42,20-.89,38.63-12.94,55.9-12.04,17.27-30.47,28.02-55.28,32.26-23.99,4.1-44.62,.49-61.91-10.85-17.34-11.25-27.88-27.81-31.62-49.66Zm62.26-10.65c2.73,15.94,6.11,26.43,10.16,31.47,3.92,5.13,9.04,7.15,15.36,6.07,6.25-1.07,10.46-4.58,12.63-10.54,2.15-6.03,1.84-17.15-.93-33.37-2.69-15.74-6.04-26.2-10.03-31.39-3.92-5.13-9.11-7.14-15.57-6.04-6.19,1.06-10.36,4.57-12.52,10.52-2.16,5.96-1.86,17.05,.91,33.26Z"/><path class="ar" d="M641.74,241.76l-11.03,1.89-5.87-34.33,73.4-12.55,5.87,34.33-6.8,1.16,8.27,48.35c1.97,11.55,4.42,19.23,7.33,23.04,2.9,3.75,7.21,5.13,12.91,4.16,4.74-.81,7.88-3.15,9.41-7.02,1.54-3.8,1.4-11.03-.42-21.68l-8.85-51.75-7.22,1.23-5.87-34.33,53.91-9.22,5.87,34.33-11.34,1.94,8.88,51.95c2.27,13.26,2.2,24.45-.2,33.56-2.42,9.04-7.69,16.7-15.81,22.97-8.12,6.27-18.71,10.52-31.77,12.75-10.51,1.8-20.05,2.12-28.59,.96-8.67-1.06-15.85-3.73-21.52-7.99-5.67-4.19-10.25-9.67-13.74-16.43-3.52-6.54-6.51-16.99-8.97-31.36l-7.86-45.98Z"/><path class="ar" d="M937.06,303.52l-77.93,13.32-5.87-34.33,11.65-1.99-12.78-74.74-11.65,1.99-5.87-34.33,77.93-13.32c7.01-1.2,13.52-2.19,19.54-2.97,6.02-.78,11.2-1.31,15.54-1.6,4.34-.28,8.36-.35,12.06-.21,10.4,.42,19.33,3.66,26.81,9.74,7.57,6.2,12.2,14.25,13.89,24.15,1.27,7.42,.5,14.49-2.32,21.19-2.83,6.64-7.13,11.9-12.9,15.79l25.4,29.4,10.31-1.76,5.87,34.33-51.65,8.83-41.25-53.21-17.63,3.01,4.14,24.23,10.82-1.85,5.87,34.33Zm-29.96-110.1l4.67,27.32,6.19-1.06c8.11-1.39,13.57-2.57,16.37-3.54,3.01-1.01,5.39-2.83,7.13-5.46,1.77-2.49,2.33-5.6,1.7-9.31-.63-3.71-2.21-6.48-4.71-8.32-2.52-1.9-5.47-2.81-8.85-2.73-3.24,.06-9.06,.81-17.44,2.24l-5.05,.86Z"/><path class="ar" d="M1025.15,214.3c-2.04-11.96-1.1-24.04,2.82-36.24,3.87-12.12,11.23-23.03,22.09-32.74,3.87-3.42,7.96-6.31,12.26-8.67,4.3-2.36,9.06-4.43,14.27-6.21,5.21-1.77,10.77-3.17,16.69-4.18,25.7-4.39,46.88-.27,63.55,12.37,8.28,6.22,14.95,13.36,20,21.41,5.05,8.05,8.41,16.92,10.07,26.61,3.42,20-.89,38.63-12.94,55.9-12.04,17.27-30.47,28.02-55.28,32.26-23.98,4.1-44.62,.49-61.91-10.85-17.34-11.25-27.88-27.81-31.62-49.66Zm62.26-10.65c2.73,15.94,6.11,26.43,10.16,31.47,3.92,5.13,9.04,7.15,15.36,6.07,6.25-1.07,10.46-4.58,12.63-10.54,2.15-6.03,1.84-17.15-.93-33.37-2.69-15.74-6.04-26.2-10.03-31.39-3.92-5.13-9.11-7.14-15.57-6.04s-10.36,4.57-12.52,10.52c-2.16,5.96-1.86,17.05,.91,33.26Z"/><path class="ar" d="M1322,172.67l39.45,6.73c-.54,15.87-5.65,29.65-15.32,41.34-9.8,11.79-24.76,19.41-44.9,22.85-27.49,4.7-49.06,1-64.71-11.11-15.71-12.03-25.32-28.35-28.85-48.97-3.55-20.75-.07-39.49,10.44-56.21,10.51-16.72,26.14-26.86,46.9-30.4,16.84-2.88,31.26-1.06,43.26,5.44l-1.64-9.59,34.43-5.89,8.95,52.37-35.77,6.12c-2.97-6.21-6.98-10.83-12.02-13.86-5.03-2.96-10.37-3.96-16-2.99-15.53,2.66-21.01,17.35-16.44,44.08,4.58,26.8,14.91,38.83,31,36.08,14.09-2.41,21.16-14.4,21.22-35.99Z"/><path class="ar" d="M1466.3,213.04l-77.73,13.29-5.87-34.33,10.93-1.87-12.78-74.74-11.24,1.92-5.87-34.33,78.04-13.34,5.87,34.33-11.34,1.94,12.78,74.74,11.34-1.94,5.87,34.33Zm89.17-15.25l-74.22,12.69-5.87-34.33,6.91-1.18-38.42-35.45,30.69-40.15-11.65,1.99-5.87-34.33,70.61-12.07,5.87,34.33-11.13,1.9-24.62,32.22,44.72,41.27,7.11-1.22,5.87,34.33Z"/><path class="ar" d="M1626.7,185.62l-51.44,8.79-6.42-37.52,51.44-8.79,6.42,37.52Zm-18.1-56.21l-35.15,6.01-14.85-43.4-7.03-41.13,49.79-8.51,6.89,40.31,.35,46.73Z"/></g><g><g><path class="q" d="M567.98,778.58l-7.16,16.88c-.65,1.54,.12,3.34,1.73,4.03l14.16,6.01c1.61,.68,3.45-.01,4.1-1.55l7.16-16.88-19.99-8.48Z"/><path d="M576.55,805.88l-14.16-6.01c-1.82-.77-2.69-2.82-1.95-4.57l7.32-17.26,20.75,8.8-7.32,17.26c-.74,1.75-2.82,2.54-4.64,1.77Zm-8.35-26.75l-7,16.5c-.56,1.33,.12,2.89,1.51,3.49l14.16,6.01c1.4,.59,2.99,0,3.56-1.34l7-16.5-19.23-8.16Z"/><path class="q" d="M590.42,788.1l7.4,3.14c1.57,.67,3.4-.1,4.09-1.71l6.01-14.16c.68-1.61-.04-3.46-1.61-4.12l-7.4-3.14-2.17-.92-1.24,2.92-6.01,14.16-1.24,2.92,2.17,.92Z"/><path d="M597.66,791.62l-9.95-4.22,8.8-20.75,9.95,4.22c1.78,.76,2.6,2.85,1.83,4.67l-6.01,14.16c-.77,1.82-2.85,2.68-4.63,1.93Zm-8.87-4.66l9.19,3.9c1.36,.58,2.95-.09,3.54-1.49l6.01-14.16c.59-1.4-.03-3-1.39-3.58l-9.19-3.9-8.16,19.23Z"/><g><rect class="q" x="574.55" y="772.39" width="11.3" height="10.48" transform="translate(-362.25 1008.15) rotate(-67.02)"/><path d="M583.04,785.42l-10.41-4.42,4.73-11.16,10.41,4.42-4.73,11.16Zm-9.33-4.85l8.89,3.77,4.09-9.64-8.89-3.77-4.09,9.64Z"/></g><g><circle class="q" cx="571.15" cy="775.51" r="3.81"/><path d="M569.5,779.4c-2.14-.91-3.15-3.39-2.24-5.53,.91-2.14,3.39-3.15,5.53-2.24s3.15,3.39,2.24,5.53c-.91,2.14-3.39,3.15-5.53,2.24Zm2.97-7.01c-1.72-.73-3.72,.08-4.45,1.8-.73,1.72,.08,3.72,1.8,4.45,1.72,.73,3.72-.08,4.45-1.8,.73-1.72-.08-3.72-1.8-4.45Z"/></g><g class="p"><circle class="q" cx="571.15" cy="775.51" r="2.28"/><path d="M570.1,777.99c-1.37-.58-2.01-2.16-1.43-3.53,.58-1.37,2.16-2.01,3.53-1.43,1.37,.58,2.01,2.16,1.43,3.53-.58,1.37-2.16,2.01-3.53,1.43Zm1.78-4.2c-.95-.4-2.05,.04-2.45,.99-.4,.95,.04,2.05,.99,2.45s2.05-.04,2.45-.99-.04-2.05-.99-2.45Z"/></g><g><path class="q" d="M584.18,785.02l3.83,1.63,.99-2.34c-.13-2.99-3.49-2.42-4.83,.72Z"/><path d="M588.23,787.19l-4.59-1.95,.16-.38c.81-1.91,2.51-3.16,3.94-2.9,1,.18,1.62,1.05,1.68,2.33v.09l-1.19,2.81Zm-3.5-2.38l3.06,1.3,.79-1.87c-.06-.83-.41-1.35-.99-1.46-.85-.15-2.1,.57-2.86,2.03Z"/></g><g><path class="q" d="M575.85,773.83l-2.26,5.33-2.34-.99c-1.79-2.69,1.46-5.67,4.6-4.33Z"/><path d="M573.81,779.7l-2.84-1.2-.07-.1c-.83-1.25-.76-2.72,.18-3.86,1.15-1.38,3.17-1.83,4.92-1.08l.38,.16-2.58,6.09Zm-2.28-1.87l1.84,.78,1.93-4.55c-1.51-.46-2.89,.16-3.58,.99-.68,.82-.75,1.85-.2,2.77Z"/></g><circle cx="579.89" cy="773.91" r=".88"/><circle cx="582.92" cy="775.2" r=".88"/><circle cx="580.24" cy="777.48" r=".88"/><circle cx="583.31" cy="778.78" r=".88"/><circle cx="577.04" cy="776.13" r=".88"/><circle cx="577.41" cy="779.74" r=".88"/><circle cx="580.45" cy="781.03" r=".88"/><path class="ab" d="M582.45,772.27c-9.67-4.1-.12-9.69-.98-11.99,2.12,.84,1.64,2.84-.02,4.85,.67,.29,1.07-.57,1.67-1.69,1.11,.8,.31,2.64,.21,3.37,1.27-1.41,.05-3.83,.54-5.4,.67-2.16,1.98-1.29,2.34-3.52,1.43,1-.6,4.02-.43,4.9,.44-.87,.79-2.73,1.56-3.45,1.12-1.42,1.1-3.12,.8-3.87,1.34,.08,2.41,1.95,.69,4.6-.81,1.1,.17,3.04-.85,4.9,.95-.03,.18-3.96,2.63-3.56-1.41,1.43,.83,5.29-2.21,6.53,1.07-1.4,2.46-2.03,3.01-1.44-1.46,2.46-1.01,9.15-8.97,5.78Z"/><path d="M582.29,772.65c-2.58-1.09-4.04-2.37-4.48-3.92-.59-2.08,.86-4.13,2.02-5.77,.71-1,1.44-2.03,1.25-2.53l-.32-.87,.86,.34c.86,.34,1.42,.89,1.6,1.62,.11,.43,.09,.92-.06,1.44l.2,.14h0c-.06-.63-.07-1.27,.1-1.83,.36-1.17,.93-1.58,1.39-1.9,.45-.33,.78-.57,.95-1.56l.11-.65,.54,.38c.48,.34,.67,.83,.68,1.38,.95-1.32,.84-2.78,.63-3.31l-.24-.61,.65,.04c.71,.04,1.33,.47,1.68,1.15,.55,1.09,.31,2.58-.67,4.08-.25,.34-.29,.81-.29,1.35,.36-.48,.91-.79,1.79-.64l.79,.13-.56,.57c-.45,.46-.42,1.36-.39,2.32,.02,.6,.04,1.26-.07,1.9,.11-.03,.22-.04,.32-.05,.38-.02,.71,.1,.94,.35l.21,.23-.16,.27c-.29,.5-.52,1.22-.75,1.98-.54,1.74-1.15,3.71-2.94,4.55-1.42,.66-3.31,.47-5.8-.58Zm-.39-11.68c-.16,.73-.74,1.55-1.39,2.46-1.12,1.58-2.39,3.37-1.9,5.07,.36,1.27,1.71,2.41,4.01,3.38s3.93,1.15,5.12,.6c1.47-.68,2.02-2.47,2.5-4.04,.2-.63,.38-1.24,.62-1.75h-.04c-.18,0-.41,.09-.68,.23-.28,.57-.77,1.07-1.58,1.4l-1.41,.58,.93-1.21c.43-.57,.92-1.03,1.41-1.34,.25-.66,.23-1.47,.2-2.3-.02-.75-.05-1.52,.17-2.16-.45,.22-.65,.84-.86,1.9-.16,.81-.31,1.58-1,1.6l-.72,.02,.35-.63c.49-.88,.47-1.79,.45-2.67-.02-.84-.04-1.64,.43-2.27,1.14-1.76,.81-2.85,.61-3.24-.1-.2-.24-.37-.4-.49,.1,.95-.1,2.31-1.04,3.5l-.04,.05c-.42,.4-.73,1.3-1,2.1-.16,.46-.31,.9-.47,1.23l-.54,1.06-.24-1.16c-.08-.42,.12-.99,.39-1.72,.26-.71,.55-1.53,.54-2.15-.27,.55-.63,.81-.97,1.06-.41,.3-.8,.58-1.08,1.48-.17,.56-.1,1.28-.02,2.04,.13,1.19,.27,2.54-.61,3.52l-.89,.99,.17-1.32c.02-.16,.07-.37,.13-.62,.19-.75,.33-1.46,.14-1.95-.51,.93-1.03,1.7-1.9,1.33h0l-.51-.22,.35-.43c1.04-1.26,1.5-2.37,1.3-3.14-.08-.3-.25-.55-.53-.75Z"/><path class="r" d="M570.12,779.49l-2.14-.91-7.16,16.88c-.65,1.54,.12,3.34,1.73,4.03l3.25,1.38c-1.12-.99-2.24-2.11-2.56-2.86-.69-1.65,.65-3.86,.65-3.86l6.22-14.66Z"/><path class="r" d="M606.3,771.25l-7.4-3.14-2.17-.92-.68,1.61,8.9,3.78c1.65,.7,1.88,1.96,1.97,4.82l.84-1.66c.77-1.81,.11-3.82-1.46-4.49Z"/><path class="k" d="M579.2,767.64c.11-2.22,1.76-3.68,2.11-4.2,0,0,1.09-1.45,.5-3.01-.1-.05-.21-.11-.33-.15,.85,2.3-8.7,7.89,.98,11.99h.01c-1.34-.83-3.34-2.44-3.27-4.63Z"/><path class="k" d="M588.11,771.75c.57-.69,1.57-2.58,1.68-3.1s.06-.74,1.12-2.04c.1,.03,.03,0,.13,.06-.77,.62-.27,8.69-7.91,5.45h-.01c1.4,.39,3.71,.79,4.98-.36Z"/><g class="p"><path class="ab" d="M585.56,760.39c.63-.66,.89-1.45,.98-2.14-.08-.14-.18-.26-.32-.36-.06,.39-.16,.69-.27,.92l-.38,1.58Z"/><path class="ab" d="M584.33,765.39l-.23,.95c.12-.12,.19-.47,.23-.95Z"/><path class="ab" d="M584.33,765.39c-.25-2-.98-5.16,1.44-5.88,.17-.02-.26,.59-.03,.67-.16,.17-.53,.55-.75,.7-.57,.61-.52,3.1-.65,4.51Z"/></g><path class="k" d="M585.67,763.94c-.29-.28,1.2-3.99,1.54-3.96l1.27-2.19,.24-1.68s1.27,1.36-1.04,4.7l-2.02,3.14Z"/><path class="k" d="M589.97,761.72s-.87,1.09-.65,2.54-1.37,3.72-1.37,3.72l1.97-1.43,.5-4.82h-.45Z"/></g><path class="j" d="M463.51,906.62c-2.69,25.24-5.37,50.48-8.05,75.73,.69,.97,1.26,1.94,2.04,2.89,4.84,1.04,11.25,1.95,15.74,3.08,4.5,1.13,8.58,3.2,12.26,4.23,3.68,1.03,5.87,1.73,9.06,2.33,3.19,.6,5.71,.3,8.81,.71,1.97-.9,4.01-1.72,6.02-2.59,1.36-1.7,2.72-3.41,4.07-5.11-.15-1.78-.3-3.57-.44-5.35-1.43-1.95-2.85-3.91-4.28-5.86-2.51-1.69-5.02-3.39-7.52-5.08-3.22-.57-6.49-.89-9.68-1.66,1.31-9.48,3.31-22.04,4.45-30.86,1.14-8.82,2.04-16.78,2.78-24.09,.74-7.31,.58-10.97,1.15-17.64-11.8,5.26-23.71,7.61-36.41,9.29Z"/><path class="ap" d="M496.21,901.84c-2.52,21.9-5.04,43.8-7.56,65.7,1.15-.19,2.31-.38,3.46-.57,2.61-22.57,5.19-45.15,7.79-67.73-1.23,.87-2.46,1.73-3.69,2.6Z"/><path class="ap" d="M483.54,972.57c6.73-1.1,17.58,2.76,21.7,6.49s3.11,7.16,3.79,10.03c.68,2.87-.39,.53,.06,2.42,1.15-.39,2.42-.25,3.62-.4-.1-4.21-.21-8.42-.31-12.64-3.46-2.46-6.92-4.9-10.38-7.37-6.19,.21-12.5,.22-18.48,1.48Z"/><path class="ap" d="M463.66,905.98c-2.53,25.45-5.04,50.87-7.57,76.3,.94,.85,1.58,1.7,2.72,2.54,6.41,1.85,17.56,4.72,22.85,6.36,5.29,1.65,4.48,2.22,8.61,3.66,2.02-.46,4.44-.94,6.64-1.1-7.51-5.57-16.51-4.53-24.43-9.31-7.92-4.78-7.57,10.9-12.23-5.93-4.66-16.83,4.55-51.78,5.4-71.72-.66-1.53-1.12-.4-2-.8Z"/><path class="am" d="M502.2,999.08c-.24,0-.5-.04-.76-.11-6.78-.35-13.38-.97-19.58-4.28-4.54-2.42-13.27-3.95-19.04-4.96-1.45-.25-2.76-.48-3.83-.69-3.1-.61-4.71-1.26-5.52-3.31-.01-.04-.03-.08-.05-.12,0,0-.18-.16-.72-.44l-1.52-.8,.2-1.71c1.78-15.02,3.31-30.34,4.79-45.15,1.02-10.25,2.08-20.84,3.21-31.25,.15-1.37,1.38-2.37,2.76-2.22,1.37,.15,2.36,1.38,2.22,2.76-1.13,10.39-2.19,20.98-3.21,31.21-1.43,14.33-2.91,29.13-4.61,43.7,.76,.62,1.19,1.25,1.49,1.94,.28,.1,.84,.27,1.93,.48,1.05,.21,2.32,.43,3.73,.67,6.46,1.13,15.3,2.68,20.54,5.47,5.4,2.88,11.52,3.4,17.83,3.71h0c3.79,.21,7.13-2.16,9.99-6.97,1.6-2.7-2.04-7.18-3.21-8.21-7.76-6.8-13.51-6.71-23.06-6.54l-1.01,.02c-1.38,.03-2.52-1.08-2.54-2.46-.02-1.38,1.08-2.52,2.46-2.54l1.01-.02c10-.17,17.23-.3,26.44,7.78,2.19,1.92,7.66,8.71,4.22,14.52-3.6,6.06-8.26,9.3-13.54,9.43-.19,.05-.4,.08-.6,.08Z"/><path class="j" d="M456.93,906.57c-1.94,26.98-3.89,53.96-5.83,80.95-.78,.88-1.46,1.79-2.33,2.65-4.92,.5-11.39,.71-15.97,1.34-4.59,.63-8.86,2.25-12.62,2.88-3.76,.62-6.02,1.08-9.25,1.34-3.23,.26-5.7-.31-8.82-.23-1.86-1.1-3.81-2.14-5.7-3.21-1.17-1.84-2.34-3.67-3.51-5.51,.33-1.76,.67-3.52,1-5.28,1.62-1.79,3.24-3.58,4.86-5.37,2.66-1.42,5.33-2.85,7.99-4.26,3.26-.23,6.54-.18,9.79-.62-.32-9.48-.95-22.35-1.23-31.09s-.58-16.03-.62-23.24c-.04-7.21,.57-11.05,.66-17.68,13.48,6.2,26.97,6.89,41.56,7.35Z"/><path class="am" d="M493.21,970.59c-.12,0-.23,0-.35-.02-1.37-.19-2.32-1.46-2.13-2.82l.39-2.8c3.05-21.63,6.2-44.01,6.95-66.21,.05-1.38,1.18-2.47,2.58-2.41,1.38,.05,2.46,1.2,2.41,2.58-.76,22.47-3.93,44.97-7,66.74l-.39,2.8c-.18,1.25-1.25,2.15-2.47,2.15Z"/><path class="ap" d="M456.8,905.67c-2.09,27.23-4.19,54.43-6.27,81.65-1.05,.71-1.8,1.45-3.05,2.12-6.61,.9-18.04,2.14-23.5,3.02-5.46,.88-4.74,1.56-9.03,2.39-1.85-.07-4.06-.34-6.1-.13,8.07-5.41,16.39-3.72,25.23-7.65s5.11,12.76,13.08-4.24c7.97-17,6.08-55.2,8.42-76.29,.64-1.58,.55-.39,1.22-.88Z"/><path class="am" d="M499.17,998.06c-1.22,0-2.29-.89-2.47-2.13-.41-2.8-1.31-5.21-2.82-7.61-.74-1.17-.39-2.71,.78-3.45,1.17-.74,2.71-.39,3.45,.78,1.9,3,3.02,6.04,3.54,9.54,.2,1.37-.74,2.64-2.11,2.84-.12,.02-.25,.03-.37,.03Z"/><path class="am" d="M508.3,996.06c-1.24,0-2.31-.92-2.48-2.17-.34-2.61-1.21-4.65-2.88-6.8-.85-1.09-.65-2.66,.44-3.51,1.09-.85,2.66-.65,3.51,.44,2.2,2.83,3.44,5.76,3.89,9.22,.18,1.37-.78,2.62-2.15,2.81-.11,.01-.22,.02-.33,.02Z"/><path class="ap" d="M418.64,905.34c.12,21.26,.25,42.52,.34,63.78-1.12-.31-2.25-.61-3.37-.92-.09-21.92-.23-43.85-.36-65.77,1.13,.97,2.26,1.94,3.39,2.92Z"/><path class="ap" d="M423.25,974.06c-6.6-1.73-17.73,1.14-22.16,4.49-4.42,3.35-3.72,6.85-4.65,9.65-.93,2.8,.34,.56-.27,2.41-1.11-.49-2.38-.46-3.56-.72,.47-4.18,.95-8.37,1.43-12.55,3.66-2.14,7.3-4.27,10.96-6.42,6.06,1.06,12.35,1.88,18.26,3.16Z"/><path class="am" d="M409.55,999.14c-1.95,0-3.91-.08-5.88-.19-.49,.08-.95,.04-1.36-.11-5.23-.69-9.52-4.4-12.45-10.81-2.81-6.13,3.34-12.31,5.71-13.99,10-7.07,17.15-6.16,27.04-4.91l1.04,.13c1.37,.17,2.34,1.42,2.17,2.79-.17,1.37-1.42,2.34-2.79,2.17l-1.04-.13c-9.43-1.19-15.12-1.91-23.53,4.04-1.27,.9-5.35,4.97-4.05,7.82,2.33,5.09,5.42,7.78,9.19,7.99h.06c6.29,.36,12.4,.48,18.05-1.78,5.52-2.22,14.48-2.79,21.02-3.21,1.42-.09,2.69-.17,3.74-.26,1.09-.09,1.67-.2,1.96-.27,.39-.68,.9-1.29,1.79-1.84,1.07-15.96,2.42-32.14,3.72-47.8,.89-10.63,1.81-21.62,2.62-32.43,.1-1.38,1.29-2.41,2.68-2.3,1.38,.1,2.41,1.3,2.3,2.68-.82,10.83-1.74,21.83-2.63,32.47-1.35,16.11-2.74,32.77-3.81,49.15l-.1,1.58-1.47,.58c-.61,.24-.79,.4-.79,.4,.03-.02,0,.02-.02,.06-1.02,1.96-2.7,2.44-5.84,2.7-1.08,.09-2.39,.17-3.84,.27-5.86,.37-14.71,.94-19.48,2.86-4.61,1.85-9.27,2.35-14.01,2.35Z"/><path class="am" d="M415.08,971.63c-1.33,0-2.44-1.05-2.5-2.4l-.19-4.45c-.88-21.09-1.79-42.9-.33-64.45,.09-1.38,1.29-2.41,2.66-2.32,1.38,.09,2.42,1.29,2.32,2.66-1.44,21.28-.54,42.94,.34,63.9l.19,4.46c.06,1.38-1.02,2.54-2.4,2.6-.04,0-.07,0-.1,0Z"/><path class="am" d="M406.29,998.3c-.21,0-.42-.03-.62-.08-1.34-.34-2.14-1.71-1.8-3.04,.88-3.44,2.32-6.33,4.52-9.12,.86-1.08,2.43-1.27,3.51-.41,1.08,.86,1.27,2.43,.41,3.51-1.75,2.22-2.9,4.53-3.6,7.26-.29,1.13-1.31,1.88-2.42,1.88Z"/><path class="am" d="M397.43,995.34c-.19,0-.39-.02-.59-.07-1.34-.32-2.17-1.67-1.85-3.02,.82-3.39,2.35-6.18,4.84-8.76,.96-1,2.54-1.03,3.53-.07,1,.96,1.03,2.54,.07,3.53-1.89,1.97-2.96,3.9-3.58,6.46-.28,1.15-1.3,1.92-2.43,1.92Z"/><path class="j" d="M432.29,791.19c-26.48,5.1-62.46,22.51-70.99,50.77-2.28,7.54-6.82,21.23,2.14,26.91-4.19,9.43-2.73,18.59,5.64,24.36,8.36,5.76,16.11,7.2,25.3,4.05,9.19-3.15,7.82-12.47,8.03-20.37,5.66,1.43,8.82,.61,7.28-5.84-4.14-4.95-8.29-9.91-12.44-14.86,.32-2.07,.65-4.14,.97-6.2,7.02-3.51,14.04-6.99,21.05-10.51,.93,.13,1.89-.06,2.78,.31-.98,6.04-2.54,15.85-3.39,20.98-.84,5.13-1.6,4.3-2.16,8.87-.55,4.57-.95,12.67-1.05,17.16-.1,4.5,.7,6.39,.8,10.38,.76,1.31,1.76,2.79,2.2,4.23,3.45,.82,1.89,1.57,6.29,2.4,4.4,.83,5.74,1.9,13.53,2.65s26.29,1.67,36.04,2.38c7.89-2.63,14.97-5.49,22.53-8.24,3.5-4.45,7.01-8.87,10.58-13.3,.41-5.31,2.01-10.91,1.66-16.19-.35-5.28-2.97-10.7-3.63-15.54-.66-4.84-.35-8.32-.45-12.93,4.17,3.79,8.2,7.6,12.28,11.43,4.6,1.29,9.15,2.14,13.86,2.91,6.85-3.34,13.87-6.02,20.35-10.11,6.48-4.1,12.14-9.43,18.23-14.08,1.19-.1,2.4-.11,3.6-.19,4.61-3.33,9.2-6.67,13.8-10.01,.97-6.97,1.81-13.96,2.59-20.96-1.89-3.83-3.79-7.66-5.56-11.55-3.57-.68-7.14-1.36-10.7-2.08-3.17,1.66-6.35,3.27-9.6,4.77-.82-6.98-.4-13.96-.63-20.97-2.06-1.83-4.13-3.64-6.23-5.44-1.31,1.45-2.64,2.92-3.98,4.32-.77,3.67-1.4,6.92-2.36,10.65-.96,3.74-2.04,7.95-2.39,11.91-6.94,7.81-14.15,15.36-21.79,22.45-17.07-12.41-33.24-22.77-54.09-26.57-14.07-2.56-26.42,.19-40.1,2.03Z"/><path class="ap" d="M423.46,833.22c1.33,7.98,2.33,16.53,1.03,24.41-1.3,7.87-3.71,15.81-4.73,23.2-1.02,7.4,.14,11.68,3.36,17.97,3.22,6.3,18.95,.19,20.93-.48,14.4-4.87,22.66-3.09,36-1.85,12.2-.5,20.23-5.64,28.39-14.68-1.12,3.62,.57,5.09-3.02,8.15-3.59,3.06-5.77,5.94-11.66,8.44-5.89,2.5-14.86,5.98-22.86,5.24-8.01-.74-18.68-.83-26.86-1.16-8.18-.33-15.11,4.79-22.7-.31-7.58-5.1-6.86-10.04-5.4-21.46,1.46-11.42,4.81-32.84,6.73-46.07,.26-.84,.48-.92,.79-1.41Z"/><path class="am" d="M459.88,907.26c-5.26,0-10.71-.42-16.5-1.24-1.37-.2-2.32-1.46-2.12-2.83,.19-1.37,1.45-2.32,2.83-2.12,13.01,1.86,24.22,1.55,35.3-.98,1.35-.31,2.69,.53,2.99,1.88,.31,1.35-.53,2.69-1.88,2.99-6.73,1.54-13.49,2.3-20.62,2.3Z"/><path class="ap" d="M429.32,792.53c-13.22,5.24-43.09,23.58-50.14,31.12-16.47,17.63-12.86,22.87-14.55,41.87-.77-.28-2.16,.97-3.21,.83-2.96-7.11-1.62-19.3,.36-25.4,1.97-6.1,4.67-6.66,5.24-11.97,4.51-3.2,2.57-4.4,8.44-8.35s15.19-9.7,23.43-14.33c8.23-4.63,20.54-10.47,29.51-15.26,.6,.6,2.15-.32,.93,1.48Z"/><path class="ap" d="M365.95,869.15c-1.35,9.89-1.27,18.06,6.99,24.68,0,1.1-.02,2.2-.02,3.29-9.78-5.72-10.61-14.04-9.69-24.59,.1-1.2,0-2.22,.07-3.39,.88,.01,1.77,0,2.65,.01Z"/><path class="aj" d="M505.09,831.62c7.33,14.97,17.66,20.66,33.87,22.31-7.25,5.28-16.77,2.7-23.34-1.27-6.57-3.97-11.93-7.74-10.72-15.25,.26-1.9,.1-3.86,.2-5.79Z"/><path class="aj" d="M419.11,834.25c-5.98,3.46-11.96,6.93-17.95,10.39,.12,.95,.24,1.9,.37,2.85,6.01-2.75,12.01-5.5,18.02-8.26-.14-1.66-.29-3.32-.43-4.98Z"/><path class="ap" d="M478.64,794.03c14.22,4.6,33.7,18.85,44.19,25.3,10.49,6.45,5.35,.11,11.6-2.64,6.25-2.75,13.12-13.63,15.76-18.1,4.53-7.68,1.68-12.39,2.19-19.74-2.72,5.49-4.16,10.78-5.38,16.7-2.88,2.97-7.31,7-10.08,9.55-2.77,2.55-5.36,5.39-7.49,7.09s-2.14,.7-3.93,1.9c-14.31-9.34-28.42-17.99-44.13-24.88-.86,1.68-2.46,2.75-2.73,4.83Z"/><path class="ap" d="M442.69,852.66c17.25-1.21,34.22-2.36,51.45-.35-16.64-10.07-34.64-8.7-51.45,.35Z"/><g><path class="aj" d="M419.28,862.33c2.04,.36,3.16,1.72,5.37,1.73,4.81,.02,7.12-5.31,11.72-6.2,8.61-1.68,10.72,5.84,6.79,12.66-1.09,1.89-3.82,3.18-4.92,5.33-1.4,2.75-1.2,5.98-1.32,9.02-.12,3.04-.78,6.56-3.73,7.78-3.75,1.56-6.31-2.4-10.02-1.74-3.71,.66-5.99,4.36-9.18,6.17,1.7-11.56,3.52-23.19,5.29-34.75Z"/><path class="ag" d="M418.97,860.75c2.04,.36,3.16,1.72,5.37,1.73,4.81,.02,7.12-5.31,11.72-6.2,8.62-1.68,10.72,5.84,6.78,12.66-1.09,1.89-3.82,3.18-4.92,5.33-1.41,2.75-1.2,5.98-1.32,9.02-.12,3.04-.78,6.55-3.73,7.78-3.75,1.56-6.31-2.4-10.02-1.74-3.71,.66-5.99,4.36-9.18,6.17,1.69-11.56,3.53-23.19,5.3-34.75Z"/></g><path class="am" d="M420.7,906.87c-.48,0-.97-.14-1.4-.43-.33-.22-.62-.41-.89-.58-.95-.6-1.85-1.18-3.05-2.45-1.34-1.42-2.61-4-3.26-5.93-1.3-3.82-.55-11.26-.54-11.34,.28-2.66,.35-4.95,.42-7.17,.09-3.08,.18-5.99,.79-9.54,.53-3.11,1.28-5.58,2.08-8.19,.59-1.95,1.21-3.97,1.78-6.43,1.22-5.23,2.29-13.93,1.96-20.45-.07-1.38,.99-2.55,2.37-2.62,1.4-.08,2.55,.99,2.62,2.37,.32,6.26-.54,15.24-2.09,21.84-.61,2.62-1.25,4.72-1.87,6.74-.78,2.56-1.45,4.78-1.93,7.58-.55,3.21-.63,5.95-.72,8.85-.07,2.31-.14,4.69-.44,7.54-.27,2.57-.36,7.28,.3,9.21,.54,1.6,1.49,3.4,2.17,4.11,.77,.82,1.27,1.14,2.1,1.66,.31,.2,.64,.41,1.01,.66,1.14,.77,1.44,2.33,.67,3.47-.48,.71-1.27,1.1-2.07,1.1Z"/><g><path class="aj" d="M508.77,889.38c-3.34,1-6.71,2.33-9.95,.47-2.42-1.38-3.06-3.94-3.9-6.39-1.48-4.3-3.1-8.48-4.58-12.78-.99-2.88-2.42-5.55-1.6-8.73,1.24-4.79,4.4-7.09,9.26-8.57,1.47-.45,4.48-.44,6.21-.42,1.62,12.18,3.63,24.14,4.56,36.42Z"/><path class="ag" d="M507.93,886.65c-3.13,.95-6.28,2.18-9.32,.43-2.26-1.3-2.9-3.69-3.71-5.97-1.43-4.03-3.02-7.93-4.41-11.97-.93-2.7-2.29-5.22-1.49-8.22,1.22-4.52,4.12-6.68,8.77-8.07,1.5-.45,4.58-.42,6.35-.4,4.59,12,7.2,21.49,3.81,34.21Z"/></g><path class="am" d="M494.77,901.49c-.94,0-1.84-.53-2.27-1.44-.58-1.25-.04-2.74,1.21-3.32,5.3-2.47,8.68-4.56,11.39-8.52,2.8-4.1,2.91-10.82,2.75-15.52-.15-4.63-2.04-10.78-3.06-14.08l-.71-2.31c-1.22-3.93-2.03-6.53-2.51-10.27-.5-3.89-.51-6.93-.52-10.14,0-1.12,0-2.28-.03-3.53-.03-1.38,1.07-2.52,2.45-2.55,1.38-.02,2.52,1.07,2.55,2.45,.02,1.28,.03,2.47,.03,3.61,0,3.19,.02,5.94,.48,9.52,.42,3.31,1.14,5.61,2.32,9.42l.72,2.33c1.16,3.77,3.1,10.08,3.27,15.38,.2,5.86-.04,13.25-3.62,18.5-3.68,5.4-8.44,7.92-13.4,10.24-.34,.16-.7,.23-1.05,.23Z"/><path class="am" d="M399.86,852.51c-.95,0-1.85-.54-2.27-1.46-.57-1.26-.02-2.74,1.23-3.31l7.49-3.42c4.14-1.89,8.28-3.78,12.42-5.68,1.26-.58,2.74-.02,3.31,1.23,.57,1.26,.02,2.74-1.23,3.31-4.14,1.9-8.28,3.79-12.42,5.68l-7.49,3.42c-.34,.15-.69,.23-1.04,.23Z"/><path class="am" d="M528.35,860.56c-3.92,0-8.43-.8-12.1-3.08-4.89-3.04-10.31-8.19-13.8-13.13-.8-1.13-.53-2.69,.6-3.48,1.13-.8,2.69-.53,3.48,.6,3.13,4.43,7.98,9.05,12.35,11.77,3.89,2.42,9.57,2.73,13.47,1.97,2.99-.58,4.03-1.15,5.93-2.19,.51-.28,1.07-.59,1.72-.92,8.21-4.23,15.03-10.1,21.62-15.77,.63-.55,1.24-1.62,1.82-2.65,.77-1.38,1.58-2.8,2.82-3.87,1.07-.92,2.27-.82,3.03-.42,.44,.23,.75,.53,.95,.86,.51,.07,1.02,.23,1.52,.39,.86,.26,4.34-.78,6.17-2.55,.68-.66,1.74-1.31,2.96-2.06,.96-.59,2.75-1.68,3.11-2.18,2.44-3.88,3.35-6.72,3.7-11.66,.07-.92,.15-1.78,.22-2.61,.37-3.93,.63-6.77-1.12-11.21-.9-2.27-2.99-6.29-6.94-7.7-2.74-.98-7.02-1.55-7.8-.83-.55,.78-1.4,1.4-2.3,2.06-.59,.43-2.15,1.58-2.17,2.03-.06,1.49-.96,2.69-2.28,3.05-1.07,.29-2.58,.11-3.65-2.4-1.65-2.51-1.7-7.91-1.59-8.73,.24-1.83,.74-3.72,1.18-5.39,.39-1.49,.76-2.9,.84-3.83,.23-2.95-.55-4.68-1.88-6.52q-.67-.93-1.41-1.18c-.4-.14-.93-.32-1.62-.62-.42-.04-1.17,.02-1.48,.15-.58,.65-1.25,1.84-1.46,2.98-.25,1.36-.52,2.71-.79,4.06-.85,4.31-1.65,8.37-2.04,12.71-.11,1.3-.62,4-1.05,5.31-.46,1.39-1.77,3.54-2.3,4.18-6.07,7.17-11.19,12.43-17.1,17.59-.06,.05-.14,.13-.23,.22-.99,.96-2.08,1.92-3.46,2.09-1.16,.15-2.67-.34-3.08-.53-1-.46-1.52-.86-1.97-1.2l-.32-.24c-4-2.94-4.99-3.56-7.64-5.25-1.31-.83-3.01-1.91-5.64-3.63-10.99-7.17-26.21-15.21-35.97-16.3-1.37-.15-2.36-1.39-2.21-2.76,.15-1.37,1.38-2.36,2.76-2.21,13.38,1.49,32.58,13.45,38.14,17.08,2.61,1.7,4.29,2.77,5.59,3.59,2.75,1.75,3.78,2.4,7.92,5.44,.15,.11,.29,.22,.42,.31,.34,.26,.5,.39,.94,.6,.08,.02,.2,.05,.31,.08,.25-.2,.56-.51,.72-.66,.17-.16,.31-.3,.42-.4,5.71-4.99,10.67-10.09,16.57-17.06,.25-.33,1.15-1.83,1.37-2.5,.27-.84,.73-3.15,.82-4.19,.41-4.6,1.27-8.99,2.11-13.23,.26-1.33,.53-2.66,.77-4,.37-2,1.49-4.2,2.86-5.62,1.9-1.98,5.71-1.76,6.85-1.24,.58,.26,.99,.41,1.39,.54,1.52,.52,2.39,.98,3.84,2.97,1.6,2.21,3.19,5.11,2.81,9.85-.11,1.38-.54,3-.99,4.71-.42,1.6-.86,3.25-1.06,4.77-.04,.46,.02,1.54,.16,2.62,.55-.47,1.12-.89,1.63-1.26,.41-.3,1.04-.76,1.19-.95,3.1-4.39,11.82-1.56,13.53-.95,5.81,2.07,8.71,7.51,9.91,10.57,2.19,5.55,1.85,9.24,1.45,13.51-.07,.8-.15,1.62-.21,2.5-.41,5.74-1.58,9.4-4.48,13.98-.82,1.31-2.4,2.33-4.72,3.75-.77,.47-1.81,1.11-2.1,1.39-2.65,2.57-7.88,4.67-11.05,3.76-.52,.3-1.24,.49-2.2,.41-.06,0-.13-.01-.19-.02-.06,.1-.12,.2-.17,.31-.76,1.35-1.62,2.87-2.92,3.99-6.81,5.86-13.86,11.92-22.59,16.42-.6,.31-1.13,.6-1.61,.86-2.03,1.11-3.63,1.98-7.37,2.71-1.43,.28-3.13,.45-4.96,.45Zm41.19-25.38-43.2-22.47h0Zm30.98-44.39h0Zm-.35-.12h0Z"/><path d="M413.92,791.32l19.56-7.59s9.76,16.01,18.95,14.49c-2.66,32.92,1.13,71.53,8.16,112.99-4.73,2.17-8.88,2.89-12.26,3.01-5.7,.2-7.09-1.4-14.3-1.53-6.14-.11-7.11,1.02-12.63,.95-4.07-.06-8.84-.74-14.18-2.72,1.23,.82,8.07-42.81,9.13-79.94,.44-15.37-.07-30.82-2.44-39.65Z"/><path d="M505.07,795.29l-19.99-7.84s-8.02,9.69-16.66,10.77c2.66,32.92,7.97,69.48,.93,110.94,4.73,2.17,8.88,2.89,12.26,3.01,5.7,.2,7.09-1.4,14.3-1.53,6.14-.11,6.01-.26,11.53-.33,4.51-.85,5.7-6.21,10.98-8.51-3.26-14.13-6.77-28.02-6.96-53.34-3.4-8.62-12.01-38.9-6.39-53.16Z"/><circle class="j" cx="446.04" cy="842.32" r="1.95"/><circle class="j" cx="446.69" cy="858.57" r="1.95"/><circle class="j" cx="447.36" cy="874.35" r="1.95"/><g><path class="ah" d="M517.37,890.4c-.61,7.14-5.87,11.29-13.23,11.47-27.74-.1-54.7-3.51-80.61-11.34,.12,2.76-.82,6.74-2.1,11.13-.89,3.27-4.41,6.03-6.48,6.55-3.33,.42-7.81-.36-13.06-1.95-1.41-.68-2.14-2.48-1.83-3.86,.39-1.71,.91-3.3,1.62-4.7-.93,.06-1.97-.2-3.06-.62l-21.21,12.57c-2.2,1.55-8.07,1.79-10.6,.16-3.65-9.85-3.35-20.82-1.42-32.25,.27-1.34,1.63-2.8,4.12-2.5l42.19,6.13c6.98-6.74,8.99-4.62,17.01-3.56l67.42,3.26c2.05,2.43,3.63,4.87,4.4,7.29l16.85,2.23Z"/><g class="p"><path class="ah" d="M374.8,907.95c6.72-1.9,23.74-13.05,23.74-13.05,1.9,1.67,4.99,1.81,4.99,1.81-2.46,5.59-2.19,7.2-.88,8.06,0,0,8.38,4.4,13.31,.54,4.93-3.86,6.23-17.82,6.23-17.82,17.98,6.4,66.74,9.77,79.45,10.68,9,.65,11.54-4.92,12.26-8.22l3.47,.46c-.61,7.14-5.87,11.29-13.23,11.47-27.74-.1-54.7-3.51-80.61-11.34,.12,2.76-.82,6.74-2.1,11.13-.89,3.27-4.41,6.03-6.48,6.55-3.33,.42-7.81-.36-13.06-1.95-1.41-.68-2.14-2.48-1.83-3.86,.39-1.71,.91-3.3,1.62-4.7-.93,.06-1.97-.2-3.06-.62l-21.21,12.57c-2.2,1.55-8.07,1.79-10.6,.16-.13-.36-.25-.73-.38-1.1,1.47,.28,4.2,.43,8.38-.75Z"/></g><path class="ac" d="M509.39,884.99l43.93,9.97c10.39,1.06,9.87-20.2,.7-20.81l-115.48,2.01"/><path class="ac" d="M499.41,888.2l43.4,5.32c10.39,1.06,9.87-20.2,.7-20.81l-115.48,2.01s-3.96-5.03-2.88-8.84c-2.11-1.18-4.33-1.47-6.67-.87-.62,3.7,.25,7.53,2.61,11.46"/><g><path class="ac" d="M456.98,898.11l-3.93,9.52c-.86,2.07-2.14,3.83-4.15,3.56l-14.35-3.01c-2.21-.56-3.08-3.88-3.32-5.44l-1.25-10.35,5.16,1.28,1.1,8.97c.16,1.22,.86,2.65,1.88,2.98l6.34,2.22c1.03,.32,2.64,.09,3.13-1.03l3.57-9.53,5.81,.84Z"/><g class="w"><path class="ac" d="M449.66,909.92l5.43-12.08,1.88,.27-3.93,9.52c-.86,2.07-2.14,3.83-4.15,3.56l-1.53-.32c1.59-.11,2.11-.64,2.3-.94Z"/></g></g><path class="ac" d="M438.02,894.43c-.99,6.81,3.2,10.05,3.2,10.05,0,0,5.2,2.61,2.2-1.16-3-3.77-1.51-8.01-1.51-8.01l-3.89-.87Z"/><g class="p"><path class="ac" d="M543.97,873.78c8.25,.54,8.72,19.66-.63,18.71-7.23-.24-6.61-18.95,.63-18.71Z"/></g><g class="p"><path class="ac" d="M555.07,875.52c6.05,.46,6.82,18.68-.6,17.82-5.82-.28-5.09-18.11,.6-17.82Z"/></g><path class="ac" d="M537.34,872.82l3.47-3.74c3.5-.81,7.11-.91,10.91,.29-1.23,2.28-.66,5.25-.66,5.25-3.48,.51-6.82-1.77-13.73-1.8Z"/><g class="p"><path class="ac" d="M425.14,865.88c-1.08,3.81,2.88,8.84,2.88,8.84l109.32-1.9h0l3.47-3.74c3.5-.81,7.11-.91,10.91,.29-.07,.12-.12,.25-.17,.38-2.05-.27-7.93-.92-9.56,.03-1.99,1.17-3.95,4.49-3.95,4.49l-110.11,1.02s-5.19-5.33-3.25-9.08c0,0-3.27-1.43-6.25-.91,.01-.1,.02-.2,.03-.29,2.34-.61,4.56-.31,6.67,.87Z"/></g><g class="w"><path class="ah" d="M369.51,875.06l42.19,6.13c3.63-3.29,6.37-5.71,11.17-4.4-5.1,1.48-8.39,2.8-10.25,6.84l-42.08-6.04c-2.77-.44-4.95,.45-5.45,1.89,.1-.64,.2-1.27,.31-1.91,.27-1.34,1.63-2.8,4.12-2.5Z"/></g></g><path class="am" d="M375.26,899.63c-1.26,0-2.34-.95-2.48-2.23l-1.6-14.53c-.15-1.37,.84-2.61,2.21-2.76,1.38-.15,2.61,.84,2.76,2.21l1.6,14.53c.15,1.37-.84,2.61-2.21,2.76-.09,.01-.19,.02-.28,.02Z"/><path class="am" d="M390.94,901.42c-1.22,0-2.29-.9-2.47-2.14l-2.36-16.25c-.2-1.37,.75-2.63,2.11-2.83,1.38-.2,2.64,.75,2.83,2.11l2.36,16.25c.2,1.37-.75,2.63-2.12,2.83-.12,.02-.24,.03-.36,.03Z"/><path class="am" d="M363.28,870.44c-1.02,0-1.97-.63-2.35-1.64-.48-1.3,.19-2.73,1.48-3.21l10.5-3.87c1.3-.48,2.73,.19,3.21,1.48,.48,1.3-.19,2.73-1.48,3.21l-10.5,3.87c-.28,.1-.58,.15-.86,.15Z"/><path class="am" d="M556.29,810.88c-.8,0-1.59-.39-2.07-1.1-.77-1.14-.47-2.7,.67-3.47,2.65-1.79,5.01-5.18,6.03-8.65,.44-1.48,.26-2.4,0-3.77-.17-.86-.35-1.85-.4-3.06-.06-1.38,1.01-2.55,2.39-2.61,1.38-.06,2.55,1.01,2.61,2.39,.04,.85,.17,1.57,.32,2.34,.31,1.63,.66,3.48-.12,6.12-1.35,4.58-4.42,8.94-8.03,11.37-.43,.29-.92,.43-1.4,.43Z"/><path class="am" d="M577.54,831.62c-1.13,0-2.24-.13-3.28-.35-4.58-.98-7.83-3.7-8.27-6.91-.37-2.65-.82-5.17-1.26-7.6-1.34-7.41-2.61-14.4-.53-22.03h0c1.21-4.45,4.07-7.44,8.07-8.43,5.03-1.25,11.06,.92,15.36,5.52,3.1,3.31,5.22,10.32,4.94,16.29l-.02,.4c-.26,5.64-.66,14.11-5.91,18.78-2.18,3.18-5.72,4.31-9.09,4.31Zm-8.52-35.57h0c-1.78,6.53-.66,12.69,.63,19.82,.45,2.48,.92,5.05,1.29,7.81,.11,.76,1.68,2.13,4.37,2.71,2.44,.52,5.82,.3,7.3-2.07l.21-.34,.31-.26c3.84-3.2,4.18-10.56,4.41-15.43l.02-.41c.24-5.01-1.67-10.58-3.6-12.64-3.03-3.25-7.25-4.89-10.5-4.08-2.22,.55-3.71,2.19-4.44,4.89Z"/><path class="am" d="M589.16,805.68c-.1,0-.19,0-.29-.02-7.52-.88-15.29-1.79-23.04-3.11-1.36-.23-2.28-1.52-2.04-2.88s1.52-2.28,2.88-2.04c7.62,1.3,15.33,2.2,22.78,3.07,1.37,.16,2.35,1.4,2.19,2.77-.15,1.27-1.23,2.21-2.48,2.21Z"/><path class="am" d="M588.38,819.16c-.09,0-.19,0-.29-.02l-4.35-.49c-5.14-.58-10.45-1.18-15.68-1.85-1.37-.18-2.34-1.43-2.16-2.8,.18-1.37,1.42-2.34,2.8-2.16,5.19,.67,10.48,1.26,15.6,1.84l4.36,.49c1.37,.16,2.36,1.4,2.2,2.77-.15,1.28-1.23,2.22-2.48,2.22Z"/><path class="j" d="M432.29,791.19c-26.48,5.1-62.46,22.51-70.99,50.77-2.28,7.54-6.82,21.23,2.14,26.91-4.19,9.43-2.73,18.59,5.64,24.36,8.36,5.76,16.11,7.2,25.3,4.05,9.19-3.15,7.82-12.47,8.03-20.37,5.66,1.43,8.82,.61,7.28-5.84-4.14-4.95-8.29-9.91-12.44-14.86,.32-2.07,.65-4.14,.97-6.2,7.02-3.51,14.04-6.99,21.05-10.51,.93,.13,1.89-.06,2.78,.31"/><path class="am" d="M386.98,902.82c-5.7,0-11.79-1.51-16.71-4.23l-.16-.09c-1.54-.85-3.45-1.91-5.41-3.94-5.41-5.61-6.26-13.13-6.02-18.45,.03-.56,.24-4.66,1.12-6.94-3.3-2.2-5.26-11.35-2.86-23.67,1.31-6.71,2.66-13.64,7.92-20.9,2.29-3.17,6.29-7.6,16.94-13.8,.79-.46,1.87-1.1,3.18-1.88,10.92-6.48,36.51-21.67,49.76-25.11,1.33-.35,2.7,.46,3.05,1.79,.35,1.34-.46,2.7-1.79,3.05-12.57,3.26-38.65,18.74-48.46,24.57-1.33,.79-2.41,1.43-3.21,1.9-9.83,5.73-13.4,9.65-15.41,12.41-4.61,6.37-5.8,12.47-7.06,18.92-2.24,11.49-.11,17.29,.65,18.46,.95,.4,1.73,1.29,2.17,2.49,.49,1.35,.38,2.68-.27,3.65-.73,2.48-2.43,13.48,3.89,20.04,1.44,1.49,2.86,2.28,4.23,3.04l.16,.09c8.43,4.66,22.17,5.13,26.19-.98,1.72-2.6,2.42-7.27,1.64-10.86-.1-.45-.25-1.04-.41-1.66-.85-3.33-1.42-5.53,.96-6.39,.72-.26,2.1-.43,3.31,1.34l.07,.1c.17,.22,.98,.72,2.09,.84,.57,.06,1.65,.06,2.45-.62,1.37-1.17,.88-3.6,.43-4.6-.36-.79-.91-1.27-1.1-1.42-2.75-2.36-6.66-6.57-11.95-12.88l-1.04-1.23,.7-1.45c1.9-3.97,1.07-16.34,.1-23.21-.19-1.37,.76-2.63,2.13-2.83,1.37-.19,2.63,.76,2.83,2.13,.26,1.83,2.31,17.03,.06,24.49,4.58,5.41,8.08,9.17,10.42,11.17,1.05,.9,1.86,1.96,2.41,3.16,1.41,3.12,1.47,7.73-1.74,10.47-1.67,1.42-3.9,2.05-6.29,1.78-.16-.02-.33-.04-.49-.07,1,4.88,.03,10.81-2.39,14.49-3.11,4.71-9.32,6.83-16.08,6.83Zm-23.13-31.14h0Zm-3.29-3.76c-.18,.16-.31,.33-.4,.5,.12-.21,.26-.38,.4-.5Zm0,0h0Z"/><g><g><path class="j" d="M497.83,573.72s1.47-10.33,15.1-20.4c0,0,1.01,19.65,2.48,24.16,1.47,4.5,1.85,9.52,6.1,14.26,4.25,4.74,19.44,2.06,19.44,2.06,0,0,15.14-4.45,19.48-16.19,4.35-11.74,3.22-21.11,3.22-21.11,0,0-2.85-15.83-6.73-19.69s-3.17-9.12-14.82-16.86c-11.64-7.74-23.21-9.59-23.21-9.59,0,0-9.36-2.18-18.94,3.41-9.58,5.58-10.39,7.58-14.45,13.63-4.07,6.05-5.99,24.12-5.99,24.12"/><path class="aj" d="M554.26,586.33c-3.07,6.68-15.38,8.49-25.53,8.9-10.15,.42-13.79-13.77-13.79-13.77l-.38-15.98s-1.02-15.19-5.87-25.53c-4.85-10.34-13.91-14-13.91-14,0,0,13.02-2.72,19.53,17.57,0,0,6.96,16.91,7.35,30.82,.61,8.53,3.42,11.59,5.93,12.92,2.51,1.33,18.14,6.76,32.18-8.05l-5.5,7.12Z"/><path class="aj" d="M490.69,559.61c-6.43-8.45,.74-30.56,3.38-31.4,9.92,6.04,14.7,15.18,16.15,26.3l-10.47,12.7-7.4-4.28-1.66-3.32Z"/><path class="am" d="M533.81,597.79c-5.77,0-11.66-1.52-15.82-5.72-4.83-4.86-6.14-11.92-6.78-15.31-.67-3.62-.64-6.39-.61-8.04v-.37c.07-6.48-.71-22.64-9.37-32.8-3.29-3.86-7.75-6.83-13.26-8.85-.1-.04-.2-.08-.29-.13-6.31,9.49-6.17,20.09-5.92,23.53,.1,1.42-.96,2.65-2.38,2.75-1.42,.1-2.65-.96-2.75-2.38-.34-4.62-.5-20.63,11.56-32.59,7.61-7.55,16.56-9.94,21.22-10.7,21.72-3.51,42.81,12.47,51.63,29.29,2.95,5.64,11.84,25.43,2.17,43.34-4.48,8.29-10.65,13.75-18.33,16.22-3.25,1.04-7.13,1.75-11.06,1.75Zm-42.8-75.45c5.77,2.32,10.52,5.63,14.13,9.86,9.44,11.07,10.7,27.43,10.61,36.2v.39c-.03,1.56-.06,3.91,.52,7.03,.54,2.89,1.66,8.89,5.37,12.63,5.37,5.41,15.02,4.83,21.65,2.7,9.61-3.09,13.95-11.13,15.38-13.77,8.68-16.08-.31-34.9-2.2-38.51-7.98-15.23-26.9-29.73-46.25-26.6-4.05,.66-11.83,2.73-18.42,9.27-.27,.27-.53,.54-.79,.81Z"/><path class="am" d="M498.28,584.61c-.07,0-.14,0-.21,0-1.42-.12-2.47-1.36-2.36-2.77,1.05-12.9,5.51-22.32,12.9-27.22,.43-.28,.86-.55,1.32-.81,1.23-.7,2.81-.27,3.51,.97,.7,1.24,.27,2.81-.97,3.51-.35,.2-.69,.41-1.02,.63-7.62,5.06-9.98,15.49-10.62,23.35-.11,1.35-1.24,2.36-2.56,2.36Z"/><path class="am" d="M538.17,537.17c-1.21,0-2.29-.86-2.52-2.09-3.06-16.02-15.53-22.49-18.46-23.24-1.38-.35-2.21-1.75-1.86-3.13,.35-1.38,1.75-2.21,3.13-1.86,5.84,1.49,18.97,10.11,22.24,27.26,.27,1.4-.65,2.74-2.05,3.01-.16,.03-.33,.05-.48,.05Z"/></g><g id="f"><path class="j" d="M430.79,791.32c-4.6-21.4-15.13-58.78-18.18-61.82-40.99-40.72-36.63-117.72-36.42-128.21,.63-32.05,10.51-45.55,14.97-50.76,21.06-24.55,52.18-23.07,67.04-16.6,10.51,4.04,20.04,11.15,34.82,31.24,21.72,29.53,37.66,51.2,41,84.61,3.06,30.55-6.12,53.91-12.04,68.99-15.37,39.13-28.89,59.51-44.41,72.33"/></g><path class="aj" d="M382.73,597.4c-.53,7.54,.52,19.3,.52,29.06,.81,27.2,6.39,58.7,31.77,102.3-9.31-6.68-24.43-25.02-30.8-57.02-5.84-29.37-8.02-37.99-6.76-38.5l-.34-41.04,5.61,5.19Z"/><path class="aj" d="M443.09,531.52c17.28,12.99,65.34,73.55,94.97,97.29,23.45,16.25,31.86,39.42,20.9,71,0,0,22.72-9.19,6.51-59.36,0,0-17.41-7.28-39.7-16-1.62-15.81-12.72-34.23-30.47-54.46-4.51-4.14-26.16-38.94-52.21-38.46Z"/><path class="am" d="M477.56,793.6c-.61,0-1.21-.22-1.69-.65-1.14-1.04-.95-2.91,.24-3.9,10.08-8.35,26.87-28.79,43.53-71.2,5.92-15.08,14.88-37.88,11.88-67.82-3.27-32.72-18.9-53.97-40.53-83.37-14.89-20.24-23.93-26.64-33.7-30.39l-.1-.04c-14.2-6.19-44.18-7.33-64.14,15.93-9.1,10.65-13.94,27.2-14.37,49.19-.48,24.42-.63,90.31,35.68,126.39,2.49,2.48,15.89,44.71,20.8,67.39,.21,.99-.13,2.07-.97,2.64-1.59,1.07-3.55,.16-3.9-1.51-4.56-21.2-17.21-62.74-19.45-64.96-37.68-37.44-37.65-104.97-37.16-130.04,.45-23.17,5.69-40.78,15.57-52.34,21.85-25.46,53.74-24.29,69.88-17.29,10.3,3.97,20.35,10.95,35.89,32.07,22.1,30.05,38.07,51.75,41.48,85.84,3.12,31.15-6.1,54.62-12.2,70.15-17.17,43.73-35.01,64.97-45.14,73.35-.47,.39-1.03,.57-1.59,.57Z"/><path class="j" d="M464.98,572.28c8.18,30.14,26.45,46.22,41.95,47.8,10.88,1.11,20.67,3.11,20.67,3.11,8.32,.07,10.17-1.36,14.97-.62,11.82,1.82,19.28,13.29,21.92,17.36,13.57,20.88,5.41,44.93,5,46.07-6.13,17.16-20.25,25.11-22.45,27.7-33.06,39.15-110.37-8.39-111.99-28.31-1.05-12.96,.67-24.67,2.61-28.48,27.41-1.94,40.3-44.68,27.33-84.64Z"/><path class="j" d="M465.61,572.16c8.18,30.14,26.45,46.22,41.95,47.8,10.88,1.11,20.67,3.11,20.67,3.11,8.32,.07,10.17-1.36,14.97-.62,11.82,1.82,19.28,13.29,21.92,17.36,13.57,20.88,5.41,44.93,5,46.07-6.13,17.16-20.25,25.11-22.45,27.7-33.06,39.15-107.96-7.51-109.58-27.43-1.05-12.96-1.75-25.54,.19-29.35,27.41-1.94,40.3-44.68,27.33-84.64Z"/><path class="aj" d="M565.48,640.72c17,42.89-8.79,63.15-8.79,63.15,10.96-31.58,4.82-58.54-18.63-74.78l27.42,11.63Z"/><path class="ap" d="M515.2,726.97s-84.51,6.26-79.05-68.77l3.49-2.67c-3.33,65.06,68.39,73.93,75.55,71.44Z"/><path class="ap" d="M501.7,629.61s-4.07,6.03-3.43,20.78,12.48,12.71,12.48,12.71c0,0,16.98-2.53,28.82,2.93,11.84,5.46,12.8-6.2,12.8-6.2"/><path class="ap" d="M442.14,653.23s17.64,27.49,33.41,39.06c15.78,11.57,27.63,20.6,27.63,20.6,0,0,7.34,5.5,16.46,4.96,13.04,0,26.32-18.04,26.32-18.04l-.6,4.91c-.36,.81-.91,1.98-1.7,3.32-4.16,7.05-11.37,12.98-18.47,14.89-7.54,2.03-14.87-.49-23.32-5.02-11.78-6.32-37.73-17.69-53.36-47.06-3.59-6.75-5.71-12.64-6.89-16.34l.51-1.28Z"/><path class="am" d="M520.23,727.33c-14.81,0-31.98-13.6-42.82-22.19l-1.93-1.53c-16.02-12.6-28.75-29.07-37.83-48.95-.57-1.26-.02-2.74,1.23-3.31,1.25-.57,2.74-.02,3.31,1.23,8.75,19.15,20.99,35,36.37,47.1l1.94,1.54c10.98,8.69,31.41,24.87,44.86,20.3,7.33-2.49,12.66-8.98,14.94-11.75,5.81-7.06,6.06-16.49,6.18-21.03,.02-.92,.04-1.59,.1-2.13-1.2-11.64-3.09-18.8-6.85-30.32-2.65-8.14-5.39-16.55-12.5-23.77-4.72-4.79-9.11-6.26-10.99-6.89-.3-.1-.54-.18-.73-.25-5.29-2.01-7.72-2.7-8.41-2.81-9.8,1.51-28.38-3.05-44.5-49.48-.45-1.3,.24-2.73,1.54-3.18,1.3-.45,2.73,.24,3.18,1.54,15.59,44.94,32.59,47.25,39.18,46.15,.73-.12,1.82-.3,10.78,3.1,.14,.05,.32,.11,.53,.18,2.21,.74,7.4,2.47,12.96,8.12,7.93,8.05,10.86,17.04,13.69,25.73,3.9,11.98,5.85,19.39,7.1,31.65l.03,.33-.05,.33c-.04,.25-.06,1.09-.08,1.82-.13,4.69-.42,15.69-7.3,24.05-2.35,2.85-8.54,10.37-17.21,13.32-2.17,.74-4.43,1.07-6.75,1.07Zm-13.22-104.76h0Z"/><path class="am" d="M428.41,661.56c-1.18,0-2.23-.84-2.45-2.04-.25-1.36,.64-2.66,2-2.92,11.56-2.16,13.81-11.2,13.9-11.58,.32-1.34,1.65-2.18,2.99-1.87,1.34,.31,2.18,1.63,1.88,2.97-.11,.51-2.97,12.61-17.86,15.4-.16,.03-.31,.04-.46,.04Z"/><path class="s" d="M396.36,583.7c10.26-19.24,35.4-27.92,50.69-15.53,3.71,2.83,5.94,6.43,10.25,13.5,3.53,5.79,6.33,10.45,8.96,17.34,2.16,5.67,3.42,9.06,3.45,13.94-.18,9.37-2.12,17.08-16.4,23.56-25.92,12.75-56.13,7.47-60.65-28.18-.55-4.25-1.7-14.28,3.71-24.63Z"/><g><path class="j" d="M428.34,626.38c-15.27-3.79-24.83-31.25-9.61-46.2,9.35-8.65,20.37-5.92,27.57,3.1,5.78,6.63,6.5,14.18,6.98,19.12,.64,6.59,1.22,12.61-2.72,17.44-3.99,4.89-10.54,6-13.4,6.49-1.92,.33-5.27,.89-8.82,.05Z"/><path class="am" d="M432.29,629.32c-1.41,0-2.94-.13-4.53-.5h-.03c-8.08-2.01-15.12-9.98-17.94-20.3-3.11-11.39-.43-22.65,7.18-30.12,4.64-4.3,9.93-6.33,15.35-5.92,5.85,.44,11.49,3.7,15.9,9.2,6.27,7.23,7.07,15.52,7.55,20.48,.65,6.71,1.32,13.64-3.27,19.27-4.58,5.62-11.83,6.85-14.92,7.37-1.23,.21-3.1,.53-5.29,.53Zm-3.36-5.37c3.06,.72,6.04,.21,7.82-.09,2.75-.47,8.48-1.44,11.88-5.6,3.29-4.03,2.77-9.4,2.17-15.62-.45-4.66-1.13-11.7-6.38-17.72l-.07-.08c-3.53-4.42-7.94-7.04-12.4-7.37-3.99-.31-7.98,1.27-11.52,4.55-6.24,6.13-8.44,15.57-5.81,25.18,2.35,8.6,7.96,15.17,14.31,16.75Z"/></g><g><path class="j" d="M471.75,573.43c2.72-5.99,10.09-12.48,20.93-8.66,4.02,1.65,6.07,4.53,8.89,8.48,.89,1.25,3.86,5.57,5.82,12.27,1.7,5.83,3.03,10.38,1.25,15.67-.43,1.27-2.33,6.62-7.62,9.41-15.32,8.97-36.23-21.09-29.27-37.18Z"/><path class="am" d="M495.06,614.66c-4.46,0-9.19-2.04-13.69-6.02-9.59-8.49-16.63-25.05-11.83-36.16l.02-.04c3.46-7.63,12.43-13.99,23.93-9.93l.11,.04c4.66,1.92,6.99,5.18,9.94,9.31,1.5,2.1,4.3,6.59,6.17,13,1.74,5.96,3.25,11.11,1.22,17.11-.94,2.78-3.33,7.88-8.74,10.75-2.23,1.3-4.64,1.94-7.14,1.94Zm-21.1-40.25c-3.9,9.06,2.46,23.4,10.61,30.61,3.16,2.79,9.33,6.97,15.24,3.51l.09-.05c3.96-2.09,5.75-5.94,6.46-8.05,1.54-4.56,.36-8.61-1.28-14.22-1.67-5.73-4.15-9.7-5.47-11.55-2.68-3.75-4.45-6.24-7.79-7.63-9.87-3.45-15.87,3-17.87,7.38Z"/></g><path d="M427.37,625.37c-11.88-2.95-19.32-24.32-7.48-35.96,1.03-.93,4.58-4.13,9.69-4.1,6.12,.03,10.14,4.64,11.77,6.51,4.49,5.16,5.06,11.04,5.43,14.88,.5,5.13,.95,9.82-2.12,13.57-3.11,3.81-8.2,4.67-10.43,5.05-1.49,.25-4.1,.69-6.87,.04Z"/><path class="am" d="M510.17,732c-9.39,0-17.23-2.36-25.44-4.83-14.13-4.25-30.14-9.06-41.13-24.16-12.66-17.39-10.76-38.42-9.36-46.65l4.93,.84c-1.3,7.61-3.07,27.01,8.47,42.86,10,13.73,25.16,18.29,38.53,22.31,10,3.01,18.63,5.6,30.14,4.25,19.94-2.34,38.61-15.62,47.58-33.85,5.78-11.75,7.56-24.17,5.16-35.93-2.57-12.55-8.37-20.09-12.79-24.2-2.29-2.13-7.06-6.58-14.05-7.61-1.84-.28-6.11-.05-10.63,.2-8.92,.49-20.02,1.11-27.19-.96-16.44-4.51-36.23-20.7-42.41-52.56l4.91-.95c5.75,29.62,23.84,44.58,38.86,48.7,6.38,1.84,17.46,1.23,25.56,.78,5.2-.29,9.3-.51,11.65-.16,8.52,1.26,14.26,6.61,16.72,8.89,4.95,4.61,11.44,13.02,14.28,26.86,2.63,12.85,.71,26.38-5.57,39.14-9.7,19.71-29.9,34.09-51.48,36.61-2.33,.27-4.56,.4-6.71,.4Z"/><path class="j" d="M425.16,590.64c-.07,1.84,.82,3.25,1.9,4.74,5.87,8.02,12.51,11.14,14.43,10.59,5.51-1.59,3.87-6.77,1.49-10.71-.67-1.21-3.93-6.81-10.35-8.87-4.66-1.85-7.2,.61-7.47,4.25Z"/><path class="am" d="M431.64,627.62c-1.39,.09-3.02,.05-4.72-.35h-.02c-6.29-1.57-11.77-7.76-13.96-15.8-2.42-8.86-.33-17.62,5.59-23.44,3.47-3.13,7.18-4.67,11.06-4.66,6.99,.03,11.52,5.22,13.22,7.18,4.91,5.64,5.53,12.11,5.9,15.98,.5,5.22,1.03,10.61-2.55,14.99-3.57,4.37-9.2,5.33-11.61,5.74-.72,.12-1.73,.29-2.92,.37Zm-3.81-4.14c2.38,.56,4.7,.17,6.08-.07,2.14-.36,6.6-1.12,9.25-4.36,2.56-3.14,2.16-7.32,1.69-12.16-.35-3.62-.88-9.1-4.96-13.79-1.52-1.74-5.07-5.82-10.31-5.85-2.89-.01-5.71,1.2-8.38,3.6-4.84,4.76-6.55,12.1-4.5,19.58,1.83,6.69,6.2,11.81,11.14,13.04Z"/><path d="M473.42,581.41c.86-1.91,2.83-4.91,6.36-6.56,.47-.22,5.13-2.32,10.15-.26,3.17,1.3,4.78,3.57,7.01,6.69,.7,.98,3.04,4.39,4.59,9.68,1.34,4.59,2.39,8.18,.98,12.35-.34,1-1.83,5.22-6.01,7.42,0,0-2.54,1.34-5.34,1.32-9.72-.06-22.82-19.34-17.74-30.63Z"/><path d="M499.99,629.91c5.07-15.46,18.31-22.91,19.21-23.4,13.15-7.15,25.68-4.4,29.97-3.45,4.67,1.03,10.39,2.36,15.31,7.38,1.6,1.62,5.72,6.29,6.66,13.39,.72,5.44-.81,9.43-2.81,14.68-2.72,7.1-6.13,11.11-12.14,18.17-4.26,5.01-6.84,7.07-9.95,7.12-2.1,.03-3.55-.87-4.88-1.56-10.52-5.54-25.61-5.18-30-5.07-2.81,.07-5.19,.31-7.58-1.22-.61-.39-3.34-2.26-4.81-8.56-1.73-7.42-.09-14.03,1.03-17.46Z"/><path class="j" d="M480.29,579.23c-.07,1.84,.82,3.25,1.9,4.74,5.87,8.02,12.51,11.14,14.43,10.59,5.51-1.59,3.87-6.77,1.49-10.71-.67-1.21-3.93-6.81-10.35-8.87-4.66-1.85-7.2,.61-7.47,4.25Z"/><path class="am" d="M491.92,613.91c-.25,.02-.51,.02-.77,.02-6.16-.04-12.15-5.95-15.69-11.47-3.87-6.02-6.89-14.92-3.77-21.84h0c.7-1.56,2.81-5.4,7.28-7.5,.97-.45,6.07-2.6,11.68-.3,3.67,1.51,5.51,4.08,7.83,7.34,1.19,1.66,3.39,5.2,4.87,10.25,1.37,4.7,2.56,8.76,.96,13.49-.74,2.2-2.63,6.23-6.92,8.49-.11,.06-2.55,1.33-5.47,1.52Zm-16.76-31.73c-2.49,5.53,.18,13.04,3.5,18.22,3.72,5.79,8.75,9.7,12.52,9.73,2.25,.01,4.42-1.09,4.44-1.1,3.13-1.65,4.53-4.68,5.1-6.35,1.22-3.6,.28-6.79-1.01-11.2-1.32-4.52-3.27-7.65-4.31-9.11-2.12-2.97-3.53-4.94-6.19-6.03-4.22-1.74-8.18,.02-8.62,.22-3.32,1.56-4.9,4.45-5.43,5.63h0Z"/><path class="j" d="M433.07,607.06c-1.43,.17-3.39-1.45-3.65-3.09-.07-.44,0-.8-.28-1.01-.44-.32-1.44,0-1.92,.59-.93,1.15-.08,3.56,1.13,4.96,.27,.32,1.63,1.82,3.75,1.93,.5,.03,1.9,.1,2.84-.86,.17-.17,1-1.07,.72-2.05-.02-.06-.23-.77-.83-.97-.64-.21-.96,.4-1.76,.5Z"/><path class="j" d="M488.21,595.65c-1.43,.17-3.39-1.45-3.65-3.09-.07-.44,0-.8-.28-1.01-.44-.32-1.44,0-1.92,.59-.93,1.15-.08,3.56,1.13,4.96,.27,.32,1.63,1.82,3.75,1.93,.5,.03,1.9,.1,2.84-.86,.17-.17,1-1.07,.72-2.05-.02-.06-.23-.77-.83-.97-.64-.21-.96,.4-1.76,.5Z"/><path d="M407,569.39c3.49-9.84,18.21-16.08,27.02-9.49,.34,.27,.24,.84-.16,.99-9,3.87-16.29,8.44-26.23,9.28-.42,.05-.76-.38-.63-.78Z"/><path d="M462.09,557.07c3.93-11.65,22.95-14.49,28.9-3.05,.19,.37-.04,.82-.45,.89-4.77,1.05-9.25,1.16-13.89,1.47-4.7,.24-8.77,.91-13.88,1.43-.42,.09-.81-.32-.68-.73h0Z"/><path class="ap" d="M498.92,743.97c-1.47,9.75-23.43,10.71-22.98-1.04,6.74,3.85,14.27,4.69,22.98,1.04Z"/><path class="am" d="M486.08,747.84c-7.48,0-10.46-4.31-10.63-4.57-.62-.94-.37-2.21,.57-2.83,.93-.62,2.19-.37,2.82,.55,.22,.31,4.66,6.12,18.08-.04,1.03-.47,2.24-.02,2.71,1.01,.47,1.03,.02,2.24-1.01,2.71-5.14,2.36-9.27,3.18-12.54,3.18Z"/><path class="j" d="M392.15,563.63s-6.32-16.49-11.65-21.15-6.59-6.34-16.98-9.19c-10.39-2.85-18.64,1.53-18.64,1.53,0,0-10.41,4.63-19.4,14.81-9,10.18-7.02,14.94-9.7,19.53-2.68,4.6-1.4,20.17-1.4,20.17,0,0,1.28,9.08,8.3,19.02,7.01,9.94,22.34,10.34,22.34,10.34,0,0,14.94-1.28,17.74-6.79,2.81-5.51,1.91-10.32,2.17-14.92,.26-4.6-3.7-23.3-3.7-23.3,15.32,6.06,19.28,15.39,19.28,15.39"/><path class="s" d="M313.4,571.38c1.89,3.33,4.64,6.19,8.15,8.13,2.1,1.54,1.89,5.63,3.04,7.61,1.32,2.27,3.74,3.96,6.35,4.19,1.86,.16,3.74-.48,5.59-.19,2.06,.32,3.76,1.74,5.69,2.5,6.14,2.52,13.14-2.42,12.86-9.04-.11-3.51-2.15-6.66-2.98-10.08-1.56-6.47,1.22-13.85-2.05-19.65-3.31-5.89-12.05-7.91-13.66-14.92-9.6,5.57-17.18,16.25-22.98,31.44Z"/><g class="aq"><path class="ap" d="M325.2,552.24s-17.53,54.1,22.13,64.65c-.73,.43-1.79,.96-3.13,1.32-9.83,2.64-22.67-7.19-28.4-17.81-9.9-18.3,1.47-38.63,2.68-40.72,1.87-3.22,3.84-5.65,5.3-7.28l1.43-.16Z"/></g><path class="aj" d="M384.16,595.89s-10.91-19.08-21.87-22.11c-10.96-3.03-.01-.18-.01-.18l3.31-18.98c13.91,4.21,19.5,32.63,18.57,41.26Z"/><path class="aj" d="M362.71,554.31s-7.46,4.66-5.96,18.57c1.34,11.52,4.46,26.31,4.29,28.6-.34,4.52-1.04,9.04-3.62,12.26-2.76,3.44,3.96-1.91,3.96-1.91l4.15-10.21-2.78-24.77-.03-22.53Z"/><path class="am" d="M343.65,621.83c-.6,0-1.18-.02-1.75-.04-7.84-.4-14.99-3.99-21.27-10.66-13.56-14.41-10.15-35.21-8.79-41.24,4.08-18,19.89-38.28,41.17-40.4,4.56-.46,13.57-.44,22.6,4.75,14.31,8.22,18.15,23.29,18.99,27.71,.26,1.36-.63,2.66-1.99,2.92-1.36,.25-2.67-.63-2.92-1.99-.62-3.29-3.14-13.29-11.44-20.62-.08,.07-.16,.13-.24,.19-4.67,3.27-8.12,7.18-10.24,11.63-5.6,11.71-2.29,27.08-.61,33.15l.1,.35c.43,1.55,1.16,4.14,1.43,7.7,.25,3.34,.78,10.3-2.54,16.07-4.48,7.79-14.54,10.49-22.5,10.49Zm13.13-87.53c-1.26,0-2.36,.07-3.27,.16-18.95,1.89-33.1,20.24-36.79,36.53-.87,3.86-4.62,23.78,7.55,36.71,2,2.12,8.08,8.59,17.88,9.09,6.77,.34,15.97-1.53,19.66-7.94,2.55-4.44,2.1-10.36,1.89-13.2-.23-3.06-.85-5.27-1.26-6.73l-.1-.37c-2.27-8.21-5.18-23.88,.92-36.64,2.33-4.87,5.96-9.17,10.81-12.78-.31-.19-.62-.38-.94-.57-6.04-3.47-12.08-4.27-16.34-4.27Z"/><path class="am" d="M382.16,599.49c-1.03,0-1.99-.64-2.36-1.66-2.56-7.22-7.39-16.43-15.81-19.28-.36-.12-.73-.23-1.11-.33-1.34-.35-2.13-1.72-1.78-3.05s1.72-2.13,3.05-1.78c.49,.13,.97,.27,1.44,.43,8.17,2.76,14.71,10.49,18.92,22.34,.46,1.3-.22,2.73-1.52,3.19-.28,.1-.56,.14-.84,.14Z"/><path class="am" d="M332.84,564.9c-1.3,0-2.4-1-2.49-2.32-1.21-16.92,8.96-28.3,14.08-31.16,1.21-.67,2.73-.24,3.4,.96,.67,1.21,.24,2.73-.96,3.4-2.56,1.43-12.66,10.63-11.53,26.43,.1,1.38-.94,2.57-2.31,2.67-.06,0-.12,0-.18,0Z"/><path class="j" d="M522.3,619.74h30.64c3.38,.01,2.98-4.08,0-6.26,0,0-3.84-3.71-14.22-3.96-10.48,0-14.74,2.39-16.42,3.62-3.1,2.3-3.9,6.6,0,6.6Z"/><path class="j" d="M536.67,624.59h-9.19c-1,0-.75,1.21,0,1.88,0,0,1.15,1.19,4.26,1.19s4.93-1.09,4.93-1.09c.88-.65,1.17-1.98,0-1.98Z"/></g><g><path class="an" d="M510.97,723.04c-2.05,.34-3.1,6.21-1.84,6.88,19.98,11.17,41.68,15.1,72.6,18.69,2.15-4.67,3.13-14.11,3.57-17.11-25.15-9.22-45.16-12.2-74.33-8.46Z"/><path class="a`" d="M508.75,729.41c.09,.24,.21,.43,.38,.51,19.98,11.17,41.68,15.1,72.6,18.69,.7-1.52,1.27-3.54,1.74-5.68-33.27,3.98-67.45-10.27-74.72-13.53Z"/><g><path class="ao" d="M590.58,742.6c.03-.3-.05-.64,.03-1.28,.06-.49,.19-.79,.3-1.11,.14-.39,.57-1.73,.49-3.16-.05-.79-.24-1.37-.4-1.86-.26-.78-.56-1.66-1.34-2.46-.52-.54-1.39-.84-1.84-.98-2.19-.69-3.28-1.07-6.18-1.55,.09,.34-.22,1.49-.35,2.09-.25,1.17-1.03,1.3-1.42,2.41-.41,1.18,.31,1.49-.08,2.81-.36,1.19-.98,1.07-1.24,2.15-.31,1.29,.5,1.82,.08,2.91-.3,.76-.8,.8-1.28,1.47-.47,.65-.83,1.8-.23,3.97,1.31,.47,2.86,.24,3.79,.49,.83,.22,1.35,.2,2.15,.34,.34,.06,1.09,.88,1.97,.48,.59-.27,.59-.46,1.5-.98,1.04-.59,1.3-.49,1.61-.91,.37-.49,.08-.73,.4-1.67,.16-.49,.39-.96,1.07-1.84,.67-.86,.93-.88,.97-1.32Z"/><path class="ae" d="M592.36,742.91c.03-.3-.05-.64,.03-1.28,.06-.49,.19-.79,.3-1.11,.14-.39,.57-1.73,.49-3.16-.05-.79-.24-1.37-.4-1.86-.26-.78-.56-1.66-1.34-2.46-.52-.54-1.19-.95-1.63-1.09-2.19-.69-3.48-.96-6.38-1.44,.09,.34-.22,1.49-.35,2.09-.25,1.17-1.03,1.3-1.42,2.41-.41,1.18,.31,1.49-.08,2.81-.36,1.19-.98,1.07-1.24,2.15-.31,1.29,.5,1.82,.08,2.91-.3,.76-.8,.8-1.28,1.47-.47,.65-.83,1.8-.23,3.97,1.31,.47,2.45,.89,3.38,1.13,.83,.22,1.59,.37,2.39,.51,.34,.06,1.25,.06,2.13-.34,.59-.27,.59-.46,1.5-.98,1.04-.59,1.3-.49,1.61-.91,.37-.49,.08-.73,.4-1.67,.16-.49,.39-.96,1.07-1.84,.67-.86,.93-.88,.97-1.32Z"/><path class="ak" d="M592.55,742.94c.1-.44-.05-.61,.04-1.28,.06-.49,.19-.79,.3-1.11,.13-.39,.57-1.73,.5-3.15-.04-.79-.23-1.36-.38-1.85-.25-.78-.53-1.66-1.29-2.45-.51-.53-1.15-.94-1.59-1.08-2.14-.67-6.36,2.99-7.66,7.54-1.35,4.76,.62,10.12,2.52,10.45,.33,.06,1.22,.06,2.09-.35,.58-.27,.58-.46,1.48-.98,1.02-.6,1.28-.5,1.58-.92,.36-.49,.09-.73,.4-1.67,.27-.81,.73-1.42,1.06-1.84,.58-.76,.84-.82,.96-1.32Z"/><path class="ae" d="M586.63,736.18h-.02c-.06,0-.11-.07-.1-.13,.11-.85,.36-1.33,.75-1.47,.25-.1,.5-.02,.74,.05,.26,.08,.5,.15,.77,.04,.19-.08,.34-.23,.47-.45,.03-.06,.1-.08,.16-.04,.06,.03,.08,.1,.04,.16-.15,.27-.35,.45-.58,.55-.34,.14-.65,.05-.93-.03-.22-.07-.42-.12-.59-.06-.3,.11-.5,.54-.6,1.28,0,.06-.06,.1-.12,.1Z"/><path class="ae" d="M590.59,738.44c-.06,0-.12-.05-.12-.11,0-.29,.05-.55,.18-.78,.15-.27,.34-.4,.52-.52,.13-.09,.24-.16,.33-.29,.2-.29,.19-.74-.03-1.36-.02-.06,0-.13,.07-.15,.06-.02,.13,0,.15,.07,.25,.69,.25,1.22,0,1.57-.11,.16-.25,.25-.39,.34-.17,.11-.32,.22-.44,.44-.1,.19-.15,.41-.15,.66,0,.06-.05,.12-.11,.12h0Z"/><path class="ae" d="M587.99,740.51s-.06-.01-.09-.04c-.04-.05-.04-.12,0-.17,.28-.26,.41-.49,.38-.68-.03-.15-.15-.25-.3-.36-.14-.11-.31-.23-.39-.43-.17-.41,.07-.96,.73-1.69,.04-.05,.12-.05,.17,0,.05,.04,.05,.12,0,.17-.58,.63-.82,1.13-.69,1.44,.06,.14,.18,.23,.31,.33,.16,.12,.35,.26,.39,.51,.04,.28-.11,.58-.45,.89-.02,.02-.05,.03-.08,.03Z"/><path class="ae" d="M585.3,741.77s-.08-.02-.1-.06c-.03-.06-.02-.13,.04-.16,.14-.08,.23-.18,.27-.3,.08-.23-.06-.49-.22-.76-.05-.09-.1-.17-.14-.26-.27-.55-.28-1.25-.02-2.07,.02-.06,.09-.1,.15-.08,.06,.02,.1,.08,.08,.15-.23,.77-.23,1.41,.01,1.9,.04,.08,.09,.16,.13,.24,.17,.29,.35,.62,.23,.95-.06,.17-.19,.31-.37,.42-.02,.01-.04,.02-.06,.02Z"/><path class="ae" d="M584.85,744.94c-.27,0-.78-.06-1.19-.49-.62-.65-.4-1.5-.39-1.54,.02-.06,.08-.1,.14-.08,.06,.02,.1,.08,.08,.14,0,0-.2,.76,.33,1.31,.44,.46,1.04,.42,1.16,.41,.06,0,.12,.04,.13,.1,0,.06-.04,.12-.1,.13-.03,0-.08,0-.16,0Z"/><path class="ae" d="M585,748.61s-.03,0-.04,0c-.06-.02-.09-.09-.07-.15,.09-.27,.11-.5,.03-.71-.07-.21-.22-.33-.38-.46-.14-.11-.3-.24-.43-.44-.22-.33-.29-.76-.23-1.28,0-.06,.06-.12,.13-.1,.06,0,.11,.07,.1,.13-.06,.46,0,.84,.19,1.12,.11,.17,.25,.28,.38,.39,.18,.14,.36,.29,.46,.57,.09,.26,.08,.55-.03,.86-.02,.05-.06,.08-.11,.08Z"/><path class="ae" d="M586.85,747.38s-.08-.02-.1-.06c-.03-.06-.02-.13,.04-.16,.75-.46,1.17-.72,1.47-.9,.66-.41,.93-.57,1.09-.92,.12-.25,.15-.53,.11-.85,0-.06,.04-.12,.1-.13,.07,0,.12,.04,.13,.1,.05,.36,0,.69-.13,.98-.19,.41-.5,.6-1.17,1.01-.31,.19-.73,.45-1.48,.91-.02,.01-.04,.02-.06,.02Z"/><path class="ae" d="M587.08,745.07s-.04,0-.06-.01c-.06-.03-.08-.1-.04-.16,.42-.75,.83-1.11,1.26-1.11h.02c.16,0,.27,.06,.38,.11,.09,.04,.17,.08,.28,.1,.37,.05,.79-.16,1.27-.66,.05-.05,.12-.05,.17,0,.05,.04,.05,.12,0,.17-.53,.55-1.03,.79-1.47,.73-.15-.02-.26-.08-.35-.12-.1-.05-.17-.08-.28-.09-.33-.01-.69,.33-1.06,.99-.02,.04-.06,.06-.1,.06Z"/><path class="ae" d="M590.1,741.84c-.06,0-.11-.05-.12-.11,0-.06,.05-.12,.11-.12,.44-.02,.8-.24,.93-.56,.09-.23,.1-.55-.04-.69-.09-.08-.22-.08-.35-.08-.13,0-.27,0-.34-.12-.1-.18,.08-.45,.62-.93,.05-.04,.12-.04,.17,.01,.04,.05,.04,.12-.01,.17-.56,.5-.57,.64-.57,.65,0-.01,.11,0,.18-.01,.14,0,.32,.01,.46,.14,.26,.24,.2,.7,.1,.95-.17,.41-.61,.68-1.14,.71h0Z"/></g><path class="al" d="M552.02,744.38c-1.27-5.91-1.02-10.78,.59-14.71l6.04,1.19c-1,4.76-.89,9.82,.38,14.7-1.84-.28-4.34-.71-7.01-1.19Z"/><path class="al" d="M569.7,728.79c-.46,2.38-6.2,3.26-12.83,1.97s-11.62-4.26-11.15-6.63c.25-1.27,1.73-1.39,4.32-1.7,4.58,.59,12.68,2.13,15.72,2.96,2.39,1.28,4.19,2.1,3.94,3.4Z"/><path class="aa" d="M560.85,724.89c1.57,.3,7.64,1.41,6.77,3.71-.24,.38-.63,.57-.99,.73-3.06,.99-6.31,.53-9.43,.19-1.57-.18-3.12-.56-4.63-1.03-1.78-.65-4.02-1.34-4.9-3.21-.67-3.21,5.26-2.33,6.96-1.61-1.87-.33-5.05-1.26-6.63,.5-.43,.63-.01,1.44,.54,1.93,2.38,2,5.7,2.58,8.7,3.08,3.05,.37,6.32,.85,9.3-.08,.35-.14,.71-.32,.89-.62,.19-.3,.08-.68-.16-.96-1.65-1.65-4.35-2.04-6.42-2.64h0Z"/><path class="aa" d="M553.59,730.61c-1.46,4.15-1,8.71-.34,12.93-.02,0-.04,0-.05-.03-1.07-4.13-1.53-9.06,.39-12.9h0Z"/><path class="aa" d="M558,731.13c-1.46,4.15-1,8.71-.34,12.93-.02,0-.04,0-.05-.03-1.07-4.13-1.53-9.06,.39-12.9h0Z"/><path class="as" d="M585.49,722.97c3.07-7.12,2.85-15.72-1.97-22.01-1.46-2.12-3.18-4.11-4.48-6.45-3.9-7.06-3.68-15.52-1.88-23.14,.57-2.53,1.37-5.15,2.3-7.49-2.4,9.82-4.59,20.85,.37,30.19,2.57,4.43,6.58,8.34,7.67,13.59,1.27,5.04,.35,11.1-2,15.31h0Z"/><path class="as" d="M592.86,718.06c3.64-4.97,5.26-11.6,1.75-16.96-1.02-1.73-2.32-3.36-3.36-5.26-2.05-3.76-2.8-8.1-2.69-12.33,.12-4.21,.99-8.39,2.34-12.3-.73,4.07-1.32,8.21-1.23,12.3,.09,4.07,.88,8.14,2.79,11.68,.92,1.77,2.24,3.4,3.27,5.27,3.56,5.65,1.57,13.19-2.86,17.59h0Z"/></g><g><circle cx="436.5" cy="604.26" r="28.34"/><ellipse cx="493.9" cy="587.38" rx="24.56" ry="25.84" transform="translate(-179.97 220.16) rotate(-21.35)"/><path d="M462.26,592.97l-3-.08c.07-2.85,1.6-5.27,4.09-6.46,2.66-1.28,5.81-.84,8.44,1.15l-1.82,2.39c-1.71-1.3-3.71-1.62-5.33-.84-1.45,.7-2.34,2.13-2.39,3.84Z"/><rect x="374.68" y="605.32" width="34.69" height="3" transform="translate(-85.38 64.61) rotate(-8.5)"/><path class="j" d="M425.59,588.26c-2.31,2.57-4.39,4.86-5.76,7.9-1.41,3.04-1.83,6.28-2.39,9.72-.11,1.06-1.66,1.27-2.07,.31-2.64-5.64-1.28-13.14,3.58-17.21,1.21-1.06,6.25-4.44,6.96-1.88,.1,.43-.03,.86-.31,1.17h0Z"/><path class="j" d="M486.31,571.2c-1.97,2.84-3.75,5.37-4.74,8.56-1.03,3.19-1.04,6.46-1.17,9.94,.02,1.06-1.49,1.47-2.02,.56-3.32-5.26-2.9-12.88,1.42-17.52,1.07-1.2,5.65-5.19,6.67-2.73,.16,.42,.08,.86-.16,1.19h0Z"/><ellipse class="j" cx="425.61" cy="602.53" rx="5.34" ry="3.15" transform="translate(-255.23 886.49) rotate(-77.4)"/><ellipse class="j" cx="487.08" cy="586.24" rx="5.17" ry="3.15" transform="translate(-191.28 933.75) rotate(-77.4)"/></g><path class="ap" d="M366.28,867.71c-1.35,9.89-1.27,18.06,6.99,24.68,0,1.1-.02,2.2-.02,3.29-9.78-5.72-10.61-14.04-9.69-24.59,.1-1.2,0-2.22,.07-3.39,.88,.01,1.77,0,2.65,.01Z"/><path class="am" d="M375.58,898.2c-1.26,0-2.34-.95-2.48-2.23l-1.6-14.53c-.15-1.37,.84-2.61,2.21-2.76,1.38-.15,2.61,.84,2.76,2.21l1.6,14.53c.15,1.37-.84,2.61-2.21,2.76-.09,.01-.19,.02-.28,.02Z"/><path class="am" d="M391.27,899.99c-1.22,0-2.29-.9-2.47-2.14l-2.36-16.25c-.2-1.37,.75-2.63,2.11-2.83,1.38-.2,2.64,.75,2.83,2.11l2.36,16.25c.2,1.37-.75,2.63-2.12,2.83-.12,.02-.24,.03-.36,.03Z"/><path class="am" d="M363.61,869.01c-1.02,0-1.97-.63-2.35-1.64-.48-1.3,.19-2.73,1.48-3.21l10.5-3.87c1.3-.48,2.73,.19,3.21,1.48,.48,1.3-.19,2.73-1.48,3.21l-10.5,3.87c-.28,.1-.58,.15-.86,.15Z"/><path d="M415.45,848.39c7.17-21.46,6.58-49.65-1.75-57.35l18.81-8.36s10.74,17.05,19.92,15.52c-12.74,21.82-24.01,43.54-36.98,50.18Z"/><path d="M427.73,785.42l-3.59-12.29s34.59,14.28,34.87,14.31c0,0-8.97,11.45-9.14,16.73"/><path d="M468.93,799.24c-1.83-1.65,2.68-5.31,2-13.4,0,0,19.9-2.98,22.03-7.64,0,0-3.79,7.51-6.35,9.84-1.15,4.04-7.97,8.96-7.97,8.96l-9.7,2.24Z"/><path class="am" d="M398.62,853.33v-5.28l.19-.31c3.43-1.57,5.54-2.28,7.58-2.96,2.01-.67,3.91-1.31,7.11-2.78l4.2-1.72-2.12,6.27c-3.44,1.58-5.56,2.29-7.6,2.97-2.01,.67-3.9,1.31-7.09,2.77l-2.27,1.04Z"/></g></g></g></svg>