<?xml version="1.0" encoding="UTF-8"?><svg xmlns="http://www.w3.org/2000/svg" width="1920" height="1080" viewBox="0 0 1920 1080"><defs><style>.k,.l,.m{fill:#e5ae13;}.n{fill:#fff;}.l,.o,.p,.q,.r{mix-blend-mode:multiply;}.s{fill:#b2b2b2;}.t{isolation:isolate;}.u{fill:#634428;}.m,.v{mix-blend-mode:screen;}.w{fill:#281909;}.x{fill:#37230e;}.y{fill:#ca9911;}.a`,.o{opacity:.3;}.v,.aa,.q{fill:#4d8a62;}.p{opacity:.39;}.ab{fill:#aaa;}.ac{fill:none;}.ad{fill:#ccc;}.ae{fill:#7a7a7a;}.r{fill:#d8d8d8;}.af{fill:#eee;}.ag{fill:#ffca91;}</style></defs><g class="t"><g id="a"><path class="u" d="M1386.83,612.75c-94.7-121.8-103.8-229,0-316.8l-26-22.5c-82.9,0-144.7-50.6-110.3-144l-11.2-20.3s-213-34.4-255.9-41v-1.1c-.1,0-1.5,.2-3.7,.5-2.3-.3-3.6-.5-3.7-.5v1.1c-42.9,6.7-255.9,41-255.9,41l-11.2,20.4c34.4,93.4-27.4,144-110.3,144l-26,22.5c103.8,87.8,94.7,195,0,316.8-60.4,81.5-42.5,202.3,0,281,98,152.1,394.2,111.5,407,158.3v3.2c0-.8,.1-1.6,.2-2.4,.2,.8,.2,1.6,.2,2.4v-3.2c12.8-46.8,308.9-6.2,407-158.3,42.3-78.8,60.2-199.6-.2-281.1Z"/><g><path class="x" d="M1043.06,1007c26.8-4,60-7.6,95.3-13.3V114.3c-31.4-5.1-66.1-10.6-95.3-15.3V1007h0Z"/><path class="x" d="M1159.06,990.2c31.8-5.9,64.6-13.7,95.3-25.4V255.3c-24-23.2-32.7-59.3-15.1-107l-10.7-19.5s-30.1-4.9-69.4-11.2V990.2h-.1Z"/><path class="x" d="M801.56,990.2c34.1,6.3,67.1,10.2,95.3,14V102.3c-31.1,5-65.8,10.6-95.3,15.3V990.2Z"/><path class="x" d="M1369.56,610.5c-90.6-116.5-99.3-219,0-303l-24.9-21.5c-26.3,0-50.4-5.4-69.6-15.8V956c38.2-17.4,71.9-41.8,94.5-76.9,40.7-75.1,57.8-190.6,0-268.6Z"/><path class="x" d="M685.56,270.1V956.3c30,13.6,62.8,23,95.3,29.9V120.9c-28.9,4.7-49.1,7.9-49.1,7.9l-10.7,19.5c21.9,59.5,3,100.8-35.5,121.8Z"/><path class="x" d="M1022.36,95.7c-17.1-2.7-30.8-4.9-38.7-6.1v-1.1c-.1,0-1.4,.2-3.6,.5-2.2-.3-3.4-.5-3.6-.5v1.1c-10.7,1.7-32.6,5.1-59,9.4V1007.1c34.9,5.3,59,11.2,62.3,23.6v3.1c0-.8,.1-1.6,.2-2.3,.1,.7,.2,1.5,.2,2.3v-3.1c2.7-9.8,18.3-15.6,42-20.2V95.7h.2Z"/><path class="x" d="M664.86,278.9c-14.9,4.7-31.6,7.2-49.3,7.2l-24.9,21.5c99.3,84,90.6,186.5,0,303-57.8,77.9-40.6,193.5,0,268.7,18.5,28.7,44.4,50.2,74.2,66.7V278.9Z"/></g><g><path class="w" d="M611.93,657.15c-27.8,39.4-38.9,90.3-29.8,137.5,2.3,11.3,6.4,22.5,14.8,30.5,4,3.8,8.9,6.7,14,7.9,9.7,2.4,21.8-1.6,24.8-11.8,2.1-6.6-.2-14.7-7.1-17.3-6.9-2.7-15.2-.6-21.3,3.5-5.9,3.7-11.5-4.8-5.7-8.7,6.1-3.8,12.9-5.9,20.1-5.9,12-.1,22.6,7.9,23.7,20.2,.7,7.4-1.7,14.9-6.9,20.3-13.2,13.1-34.7,9.7-46.6-3.1-9.2-9.3-13.7-22-15.8-34.5-8-48.8,4.8-100.4,34.3-139.8,.3-.4,.9-.5,1.4-.2,.3,.3,.4,.9,.1,1.4h0Z"/><path class="w" d="M715.13,953.95c1.4-2.2,3.2-4.4,4.6-6.5,.8-1.2,3.6-5.3,4.4-6.6,1.7-2.8,4-6.3,5.6-9,55.5-94.2,28.5-207.9,9.5-308.9-13.9-71-29.5-143.2-23.9-216,3-43.6,13.8-88.1,37.5-125.1,.3-.5,1-.7,1.5-.3,.4,.3,.6,.8,.4,1.3-4.6,13.7-8.8,27.4-12.3,41.2-12.2,48.3-16.1,98.3-14,148,2.4,63.9,14.7,129.2,26.1,192.1,12.2,70.9,24.9,145.3,4.9,216.1-6.5,22.9-16,45.2-30,64.5-3,4.1-7.1,9-10.6,12.7-1.9,2.1-5.6-.5-3.7-3.5h0Z"/><path class="w" d="M847.53,144.65c14.1,56.8,23.9,119.5,28.2,177.9,2.2,30,1.8,60,2.4,90,.2,54.6-.9,110.8-9.1,164.9-1.9,15-4.8,29.8-10.3,44-.5,1.4-2.1,2.1-3.5,1.5-1.1-.4-1.7-1.5-1.7-2.6-.1-15.2,2.8-29.7,5.1-44.5,10.4-63.5,18.4-128.8,16-193.2-1.6-28.8-4.4-60.5-7.6-89.3-4.4-37.2-12.2-81.1-20.7-117.6,0,0-7.2-29-7.2-29.1-1.1-5.2,6.7-7.7,8.4-2h0Z"/><path class="w" d="M825.53,767.75c1.4,7.2,2.4,14.3,3.6,21.4,1.8,10.5,4,20.8,6.1,31.2,5,24.3,11,48.5,22.1,70.9,6.4,12.8,14.3,25.1,24.8,35,1.1,1,1.1,2.7,.1,3.7-1.1,1.2-3.1,1.1-4.1-.3-8.7-11.9-17.8-23.3-26-35.5-14.6-21.3-26.5-45.5-31.7-71-2-11.1-2.6-22.3-2.1-33.6,.6-7.5,1.5-14.9,3.4-22.1,.4-1.9,3.5-1.8,3.8,.3h0Z"/><path class="w" d="M944.53,996.85c14.1-12.7,26.8-27.2,35.8-43.9,9.1-16.7,14.6-34.9,18.5-53.5,4.6-20.9,7-42.5,6.5-64.1-.7-35.9-7.7-71.4-14.8-106.6-10.2-50.4-21.5-101.6-28.6-152.6-1.6-12.8-2.9-26.7-3.5-39.6-5.4-119.7,43.5-236.9,24.9-356.6-1.2-7-2.9-15.8-4.6-22.8-4.5-18.5-10.8-36.5-19.6-53.2-1.4-2.7-.4-6,2.3-7.4,2.8-1.5,6.4-.2,7.6,2.8,14.7,36.4,20.9,75.3,21.6,114.2,.8,38.6-3.4,77.1-9.1,115.2-11.6,76-28.5,152.4-19.8,229.4,7.1,76.8,37.5,149.1,44.8,226.5,2.3,21.6,3.2,43.5,2.4,65.2-1,24.2-3,48.6-9.6,72-6.5,22.3-17.9,43.3-34.1,60.1l-2.6,2.6-2.6,2.6-2.7,2.5c-3.5,3.4-7.4,6.3-11.1,9.4-.6,.5-1.4,.4-1.9-.2-.5-.7-.4-1.5,.2-2h0Z"/><path class="w" d="M1056.93,105.45c19.7,20.5,35.5,45,44,72.3,11.4,36.2,12.1,74.7,9.9,112.3-3.1,46.9-12.1,93.2-18.1,139.5-6.1,46.4-11.6,92.8-14.1,139.5-4.9,102.7,2.6,206.3,25.1,306.6,8.2,36.4,18.6,72.4,31,107.5,1,2.8-.5,5.9-3.3,6.9-2.9,1-6.1-.6-7-3.5-11.2-35.9-20.5-72.5-27.9-109.4-7.3-36.7-12.9-74.3-16.6-111.5-3.8-37.3-5.8-74.9-6.3-112.4-.4-75,2-150.3,11.4-224.8,12-104,55.3-236.9-31.9-319.4-1.1-1-1.1-2.7-.1-3.7,1.2-1,2.9-1,3.9,.1h0Z"/><path class="w" d="M1038.33,112.15c28.9,48.5,37.2,106.3,36.4,162-.3,27.9-2.9,55.7-5.8,83.4-7.2,64.1-13.6,128.7-15.7,193.2-3,110.7,7.1,221.8,28.6,330.4,7.3,36.2,15.9,72.1,25.8,107.7,.7,2.5-.8,5-3.2,5.7-2.5,.7-5-.8-5.7-3.2-4.5-18-8.8-36.1-12.8-54.3-28.2-126.7-40.8-256.7-39.4-386.4,.1-64.7,4.1-129.9,12.2-194.2,5.4-45.6,11.1-91.6,6.9-137.5-2.5-27.3-8.2-54.5-19.2-79.8-3.6-8.4-7.9-16.5-12.6-24.3-.8-1.2-.4-2.9,.9-3.6,1.3-.8,2.9-.3,3.6,.9h0Z"/><path class="w" d="M1215.23,130.05c2.6,18.8,2.2,40.4,1.4,59.5-.9,18.3-3.1,41-5.4,59.2-2.6,19.4-5.6,39.4-8.9,58.7-8.1,45.2-20.1,90.6-34.9,134-.5,1.4-2,2.1-3.3,1.7-1.4-.5-2.1-2-1.7-3.3,10-24.4,18.3-49.4,25.1-74.9,9.9-37.8,17-77.6,19.7-116.5,1.8-28.5,2.1-60,1.9-88.6,.2-9.9,.1-19.7,.9-29.6,.2-3.1,4.7-3.4,5.2-.2h0Z"/><path class="w" d="M1241.83,242.15c6.8,54.1-9,107.9-27.3,158.2-14.5,39.2-29.3,79.2-35,120.8-3.9,26.4-3.3,53.2-.8,79.6,6.8,60.6,19.4,120.7,27.8,181.2,4.4,28.9,16.3,107.9,20.8,136.2,2.4,15.1,4.8,30.2,7.5,45.3,.1,.8-.4,1.5-1.1,1.6-.8,.1-1.5-.4-1.6-1.2-2.4-15.1-5-30.2-7.6-45.3-4.9-27.9-19.2-106.5-24.5-135.6-10.2-60.5-23.1-120.4-27.4-181.8-1.7-26.9-.9-54,3.7-80.6,2.8-17,6.9-33.9,11.6-50.5,8.5-30.1,19-63.5,27.8-93.6,5.4-18.2,10.7-36.5,14.5-55.1,2.3-11,4.2-22.4,5.4-33.6,1.6-15,2.1-30.2,1.1-45.3-.1-1.5,1-2.7,2.5-2.8,1.2,.2,2.4,1.2,2.6,2.5h0Z"/><path class="w" d="M1376.83,656.85c-8.4,9.1-13.1,21.6-15.2,33.8-4.9,27.3,2.3,56.5,5.1,83.7,1.2,11.4,1.8,23,.6,34.5-.8,7.8-2.4,15.6-5,23.2-.9,2.8-3.9,4.3-6.6,3.3-3.1-1-4.5-4.7-2.9-7.5,3.4-6.2,5.8-13,7.3-20.1,1.9-8.8,2.3-18.3,2.1-27.5-.2-9-1.3-19-2.4-27.9-3.4-26.2-7.6-53.5-.9-79.7,1.9-7.7,5-15.2,9.2-22.3,4.4-6.7,13.8,.2,8.7,6.5h0Z"/><path class="w" d="M1324.33,599.55c-14.5,19.2-20.7,43.4-21.8,67.2-2,50.2,17.9,97.1,26.8,146,4.5,24.7,6.4,50.3,1.4,75.1-.1,.5-.6,.9-1.2,.8-.5-.1-.9-.6-.8-1.2,1-6.1,1.6-12.3,1.9-18.5,.5-12.4-.5-24.8-2.3-37.1-9.4-61.7-42.2-120.8-33.9-184.7,2.5-19.4,8.9-38.5,20.3-54.7,4.8-6.3,14.2,.5,9.6,7.1h0Z"/></g><rect class="ac" x="825.43" y="615.15" width="308.4" height="71"/><rect class="ac" x="778.53" y="778.65" width="402.3" height="71"/><g><path class="ag" d="M831.37,387.28l6.35,2.23c-.54,2.61-1.78,4.75-3.71,6.42-1.96,1.68-4.65,2.51-8.09,2.51-4.69,0-8.16-1.22-10.41-3.67-2.26-2.44-3.39-5.41-3.39-8.93s1.11-6.54,3.32-9.02,5.09-3.71,8.63-3.71c2.87,0,5.21,.71,7.01,2.13v-1.63h5.87v8.93h-6.1c-.32-1.11-.85-1.99-1.6-2.64-.75-.63-1.61-.95-2.57-.95-2.65,0-3.97,2.28-3.97,6.84s1.37,6.86,4.11,6.86c2.4,0,3.91-1.79,4.54-5.36Z"/><path class="ag" d="M840.78,389.44c0-2.51,1.05-4.62,3.16-6.35s4.96-2.58,8.54-2.58,6.54,.83,8.81,2.5,3.39,3.83,3.39,6.5-1.08,4.73-3.23,6.45-5,2.58-8.54,2.58c-3.82,0-6.8-.86-8.93-2.58-2.13-1.71-3.2-3.88-3.2-6.52Zm8.95,.04c0,2.72,.97,4.08,2.92,4.08,2.06,0,3.09-1.37,3.09-4.11,0-1.25-.25-2.23-.76-2.92-.52-.69-1.24-1.04-2.18-1.04s-1.67,.34-2.23,1.02-.84,1.67-.84,2.97Z"/><path class="ag" d="M881.17,398.05h-13.36v-5.36h2.11v-6.33h-2.14v-5.36h11v2.34c.84-.71,1.95-1.34,3.32-1.86,1.36-.53,2.66-.79,3.9-.79,2.89,0,4.83,1.11,5.82,3.34,2.61-2.23,5.28-3.34,8-3.34,1.49,0,2.71,.32,3.67,.95,.98,.64,1.68,1.5,2.07,2.57,.41,1.1,.62,2.65,.62,4.64v3.85h2.25v5.36h-11.09v-7.33c0-1.91-.15-3.1-.44-3.57s-.82-.7-1.58-.7c-.96,0-1.93,.36-2.9,1.09v5.15h2.41v5.36h-11.25v-7.29c0-1.88-.13-3.06-.39-3.57-.26-.49-.78-.74-1.56-.74-.9,0-1.85,.36-2.85,1.09v5.15h2.39v5.36Z"/><path class="ag" d="M925.22,392.65l7.29,.9c-.33,.76-.79,1.44-1.37,2.05s-1.3,1.13-2.14,1.57c-1.7,.91-3.73,1.37-6.1,1.37-3.97,0-6.96-.83-8.96-2.48-2-1.64-3.01-3.79-3.01-6.45s.99-4.77,2.97-6.5c1.96-1.73,4.61-2.6,7.96-2.6s5.85,.82,7.88,2.46c1.99,1.63,3.05,4.11,3.18,7.44h-13.43c.04,2.77,1.07,4.15,3.09,4.15,1.22,0,2.1-.63,2.64-1.9Zm-5.62-4.46h4.97c.02-.35,.04-.55,.04-.6,0-.93-.23-1.69-.7-2.3-.47-.6-1.09-.9-1.86-.9s-1.41,.33-1.83,.98c-.42,.67-.63,1.49-.63,2.46,0,.13,0,.25,.02,.35Z"/><path class="ag" d="M945.05,389.44c0-2.51,1.05-4.62,3.16-6.35s4.96-2.58,8.54-2.58,6.54,.83,8.81,2.5,3.39,3.83,3.39,6.5-1.08,4.73-3.23,6.45-5,2.58-8.54,2.58c-3.82,0-6.8-.86-8.93-2.58-2.13-1.71-3.2-3.88-3.2-6.52Zm8.95,.04c0,2.72,.97,4.08,2.92,4.08,2.06,0,3.09-1.37,3.09-4.11,0-1.25-.25-2.23-.76-2.92-.52-.69-1.24-1.04-2.18-1.04s-1.67,.34-2.23,1.02-.84,1.67-.84,2.97Z"/><path class="ag" d="M985.24,398.05h-13.5v-5.36h2.2v-6.33h-2.2v-5.36h11.04v2.16c2.17-1.65,4.49-2.48,6.98-2.48,2.18,0,3.82,.6,4.92,1.81,1.09,1.21,1.63,3.15,1.63,5.82v4.38h2.02v5.36h-10.86v-7.58c0-1.65-.14-2.74-.42-3.27-.3-.52-.88-.77-1.74-.77-.79,0-1.63,.3-2.53,.9v5.36h2.46v5.36Z"/><path class="ag" d="M1035.97,392.69v5.36h-11.06v-1.14c-1.64,.97-3.54,1.46-5.7,1.46-2.4,0-4.53-.73-6.38-2.2s-2.78-3.56-2.78-6.29c0-2.94,.86-5.21,2.57-6.82,1.71-1.58,4-2.37,6.87-2.37,2.11,0,3.91,.47,5.42,1.41v-3.13h-2.18v-5.36h11.02v19.09h2.21Zm-11-3.23c0-1.07-.25-1.96-.74-2.67-.49-.7-1.22-1.05-2.2-1.05-2,0-3.01,1.29-3.01,3.88,0,1.07,.25,1.95,.74,2.64,.48,.7,1.21,1.05,2.2,1.05,.89,0,1.62-.31,2.18-.93,.55-.62,.83-1.59,.83-2.92Z"/><path class="ag" d="M1045.58,385.76l-6.93-.7c.76-1.68,1.99-2.85,3.69-3.53,1.68-.68,4.15-1.02,7.42-1.02,1.21,0,2.29,.04,3.24,.11s1.81,.19,2.56,.34c1.56,.29,2.71,.74,3.46,1.35,.75,.62,1.27,1.29,1.56,2,.3,.74,.46,1.89,.46,3.45v4.92h2.18v5.36h-11.02v-1.16c-1.52,.98-3.56,1.48-6.12,1.48-2.4,0-4.21-.53-5.43-1.58-1.23-1.05-1.85-2.3-1.85-3.74,0-1.59,.76-2.9,2.27-3.92,1.5-1.02,3.46-1.53,5.87-1.53,2.2,0,3.96,.29,5.26,.86v-.51c0-1.05-.08-1.79-.23-2.21-.16-.45-.53-.83-1.09-1.14-.59-.3-1.27-.46-2.04-.46-1.42,0-2.51,.54-3.27,1.63Zm6.63,7.93v-3.11c-.79-.42-1.62-.63-2.5-.63-.77,0-1.39,.21-1.85,.63-.46,.43-.69,.98-.69,1.65s.23,1.25,.7,1.69c.48,.45,1.03,.67,1.65,.67,1.1,0,1.99-.3,2.67-.9Z"/><path class="ag" d="M1078.14,398.26h-7l-5.22-11.9h-1.83v-5.36h11.5v5.36h-1.71l2,5.68,4.2-11.04h6.56l3.83,11.04,2.18-5.68h-1.63v-5.36h8.31v5.36h-1.67l-4.96,11.9h-7.01l-3.9-8.74-3.66,8.74Z"/><path class="ag" d="M1103.12,404.36l2.43-4.32c1.37,.57,3.21,.86,5.52,.86,1.52,0,2.71-.22,3.57-.65,.87-.42,1.42-.92,1.67-1.49,.23-.57,.35-1.39,.35-2.44-1.77,.89-3.74,1.34-5.92,1.34-2.54,0-4.69-.73-6.43-2.18-1.77-1.44-2.65-3.44-2.65-5.99,0-2.7,.92-4.83,2.76-6.42,1.83-1.58,4.04-2.37,6.64-2.37,2.13,0,4,.47,5.61,1.41v-1.09h10.93v5.36h-2.13v9.35c0,2.09-.19,3.69-.56,4.82-.39,1.12-1.08,2.09-2.07,2.88-1,.83-2.24,1.43-3.74,1.79-1.49,.39-3.46,.58-5.92,.58-1.1,0-2.08-.04-2.94-.11s-1.85-.19-2.96-.35c-1.9-.3-3.28-.63-4.13-.97Zm7.47-14.73c0,1.04,.26,1.91,.79,2.6,.53,.7,1.28,1.05,2.25,1.05,1.03,0,1.8-.36,2.3-1.07,.5-.69,.76-1.56,.76-2.62,0-1.15-.27-2.08-.81-2.79-.55-.73-1.29-1.09-2.21-1.09-1,0-1.76,.38-2.29,1.14-.53,.75-.79,1.68-.79,2.78Z"/><path class="ag" d="M1140.12,398.05h-8.77v-6.4h8.77v6.4Zm-1.41-9.83h-5.99l-1.23-7.61v-7.01h8.49v6.87l-1.27,7.75Z"/><path class="ag" d="M739.41,484.45h-5.5v-7.84h5.5c.66,2.13,1.89,3.2,3.71,3.2,1.31,0,1.97-.53,1.97-1.58,0-.55-.23-1.01-.69-1.37-.49-.4-1.53-.95-3.11-1.65-1.99-.9-3.46-1.68-4.39-2.34-.88-.6-1.63-1.42-2.25-2.48-.62-1.04-.93-2.2-.93-3.46,0-2.27,.74-4.05,2.21-5.33,1.46-1.28,3.27-1.92,5.41-1.92s3.96,.61,5.45,1.83v-1.51h5.54v6.96h-5.47c-.67-1.92-1.85-2.88-3.55-2.88-1.2,0-1.79,.51-1.79,1.53,0,.49,.17,.86,.51,1.11,.33,.26,1.39,.83,3.18,1.71,2.4,1.2,4.01,2.07,4.82,2.62,.41,.27,.83,.65,1.26,1.13s.78,.99,1.06,1.5c.64,1.15,.97,2.39,.97,3.73,0,2.05-.76,3.79-2.29,5.2-1.52,1.44-3.45,2.16-5.77,2.16-2.16,0-4.11-.64-5.85-1.92v1.6Z"/><path class="ag" d="M769.04,484.45h-13.46v-5.36h2.23v-13.73h-2.23v-5.36h11.07v9.46c2.36-1.58,4.67-2.37,6.94-2.37,2,0,3.59,.58,4.76,1.74,1.17,1.17,1.76,3.24,1.76,6.21v4.06h2v5.36h-10.85v-6.98c0-2.12-.12-3.45-.37-3.99-.26-.54-.8-.81-1.62-.81s-1.73,.3-2.64,.9v5.52h2.39v5.36Z"/><path class="ag" d="M784.83,475.84c0-2.51,1.05-4.62,3.16-6.35s4.96-2.58,8.54-2.58,6.54,.83,8.81,2.5,3.39,3.83,3.39,6.5-1.08,4.73-3.23,6.45-5,2.58-8.54,2.58c-3.82,0-6.8-.86-8.93-2.58-2.13-1.71-3.2-3.88-3.2-6.52Zm8.95,.04c0,2.72,.97,4.08,2.92,4.08,2.06,0,3.09-1.37,3.09-4.11,0-1.25-.25-2.23-.76-2.92-.52-.69-1.24-1.04-2.18-1.04s-1.67,.34-2.23,1.02-.84,1.67-.84,2.97Z"/><path class="ag" d="M811.83,475.84c0-2.51,1.05-4.62,3.16-6.35s4.96-2.58,8.54-2.58,6.54,.83,8.81,2.5,3.39,3.83,3.39,6.5-1.08,4.73-3.23,6.45-5,2.58-8.54,2.58c-3.82,0-6.8-.86-8.93-2.58-2.13-1.71-3.2-3.88-3.2-6.52Zm8.95,.04c0,2.72,.97,4.08,2.92,4.08,2.06,0,3.09-1.37,3.09-4.11,0-1.25-.25-2.23-.76-2.92-.52-.69-1.24-1.04-2.18-1.04s-1.67,.34-2.23,1.02-.84,1.67-.84,2.97Z"/><path class="ag" d="M852.43,478.23v5.24c-.57,.39-1.41,.73-2.5,1.02-1.15,.3-2.25,.46-3.3,.46-1.32,0-2.46-.22-3.41-.65-.97-.45-1.71-1.04-2.2-1.79-.27-.43-.47-.83-.6-1.19s-.22-.76-.28-1.2c-.08-.77-.12-2.27-.12-4.48v-2.87h-2.18v-5.36h2.18v-2.62l8.84-4.2v6.82h3.57v5.36h-3.57v3.3c0,1.08,.1,1.8,.3,2.16,.19,.36,.59,.54,1.2,.54,.57,0,1.27-.18,2.07-.54Z"/><path class="ag" d="M877.92,478.23v5.24c-.57,.39-1.41,.73-2.5,1.02-1.15,.3-2.25,.46-3.3,.46-1.32,0-2.46-.22-3.41-.65-.97-.45-1.71-1.04-2.2-1.79-.27-.43-.47-.83-.6-1.19s-.22-.76-.28-1.2c-.08-.77-.12-2.27-.12-4.48v-2.87h-2.18v-5.36h2.18v-2.62l8.84-4.2v6.82h3.57v5.36h-3.57v3.3c0,1.08,.1,1.8,.3,2.16,.19,.36,.59,.54,1.2,.54,.57,0,1.27-.18,2.07-.54Z"/><path class="ag" d="M893.53,484.45h-13.46v-5.36h2.23v-13.73h-2.23v-5.36h11.07v9.46c2.36-1.58,4.67-2.37,6.94-2.37,2,0,3.59,.58,4.76,1.74,1.17,1.17,1.76,3.24,1.76,6.21v4.06h2v5.36h-10.85v-6.98c0-2.12-.12-3.45-.37-3.99-.26-.54-.8-.81-1.62-.81s-1.73,.3-2.64,.9v5.52h2.39v5.36Z"/><path class="ag" d="M921.11,484.45h-12.08v-5.36h1.76v-6.33h-1.76v-5.36h10.6v11.69h1.48v5.36Zm-11.06-21.87c0-.93,.47-1.67,1.42-2.23,.94-.56,2.1-.84,3.48-.84s2.56,.29,3.43,.88c.86,.6,1.28,1.32,1.28,2.18,0,.93-.45,1.66-1.34,2.2-.9,.55-2.04,.83-3.41,.83s-2.55-.25-3.48-.76c-.93-.49-1.39-1.24-1.39-2.25Z"/><path class="ag" d="M929.97,484.66h-5.47v-5.41h5.12c1.31,1.38,2.75,2.07,4.31,2.07s2.36-.32,2.36-.97c0-.33-.17-.58-.51-.76-.35-.19-1.28-.46-2.79-.83-1.22-.33-2.57-.71-4.04-1.14-1.28-.36-2.29-.82-3.02-1.37-.76-.55-1.27-1.09-1.53-1.62-.28-.53-.42-1.22-.42-2.07,0-1.89,.67-3.28,2-4.17,1.32-.88,3.01-1.32,5.04-1.32s3.88,.4,5.31,1.2v-.88h5.4v4.96h-4.99c-1.24-1.18-2.72-1.78-4.43-1.78-1.35,0-2.02,.36-2.02,1.07,0,.34,.2,.56,.6,.67,.34,.11,1.46,.36,3.38,.76,2.17,.46,3.86,.91,5.08,1.37,1.21,.46,2.12,1.06,2.72,1.81,.6,.75,.9,1.67,.9,2.76,0,1.97-.73,3.42-2.2,4.36-1.45,.93-3.25,1.39-5.38,1.39s-3.92-.39-5.4-1.16v1.05Z"/><path class="ag" d="M968.26,484.45h-13.5v-5.36h2.2v-6.33h-2.2v-5.36h11.04v2.16c2.17-1.65,4.49-2.48,6.98-2.48,2.18,0,3.82,.6,4.92,1.81,1.09,1.21,1.63,3.15,1.63,5.82v4.38h2.02v5.36h-10.86v-7.58c0-1.65-.14-2.74-.42-3.27-.3-.52-.88-.77-1.74-.77-.79,0-1.63,.3-2.53,.9v5.36h2.46v5.36Z"/><path class="ag" d="M990.74,472.16l-6.93-.7c.76-1.68,1.99-2.85,3.69-3.53,1.68-.68,4.15-1.02,7.42-1.02,1.21,0,2.29,.04,3.24,.11s1.81,.19,2.56,.34c1.56,.29,2.71,.74,3.46,1.35,.75,.62,1.27,1.29,1.56,2,.3,.74,.46,1.89,.46,3.45v4.92h2.18v5.36h-11.02v-1.16c-1.52,.98-3.56,1.48-6.12,1.48-2.4,0-4.21-.53-5.43-1.58-1.23-1.05-1.85-2.3-1.85-3.74,0-1.59,.76-2.9,2.27-3.92,1.5-1.02,3.46-1.53,5.87-1.53,2.2,0,3.96,.29,5.26,.86v-.51c0-1.05-.08-1.79-.23-2.21-.16-.45-.53-.83-1.09-1.14-.59-.3-1.27-.46-2.04-.46-1.42,0-2.51,.54-3.27,1.63Zm6.63,7.93v-3.11c-.79-.42-1.62-.63-2.5-.63-.77,0-1.39,.21-1.85,.63-.46,.43-.69,.98-.69,1.65s.23,1.25,.7,1.69c.48,.45,1.03,.67,1.65,.67,1.1,0,1.99-.3,2.67-.9Z"/><path class="ag" d="M1016.98,484.66h-5.47v-5.41h5.12c1.31,1.38,2.75,2.07,4.31,2.07s2.36-.32,2.36-.97c0-.33-.17-.58-.51-.76-.35-.19-1.28-.46-2.79-.83-1.22-.33-2.57-.71-4.04-1.14-1.28-.36-2.29-.82-3.02-1.37-.76-.55-1.27-1.09-1.53-1.62-.28-.53-.42-1.22-.42-2.07,0-1.89,.67-3.28,2-4.17,1.32-.88,3.01-1.32,5.04-1.32s3.88,.4,5.31,1.2v-.88h5.4v4.96h-4.99c-1.24-1.18-2.72-1.78-4.43-1.78-1.35,0-2.02,.36-2.02,1.07,0,.34,.2,.56,.6,.67,.34,.11,1.46,.36,3.38,.76,2.17,.46,3.86,.91,5.08,1.37,1.21,.46,2.12,1.06,2.72,1.81,.6,.75,.9,1.67,.9,2.76,0,1.97-.73,3.42-2.2,4.36-1.45,.93-3.25,1.39-5.38,1.39s-3.92-.39-5.4-1.16v1.05Z"/><path class="ag" d="M1046.69,478.23v5.24c-.57,.39-1.41,.73-2.5,1.02-1.15,.3-2.25,.46-3.3,.46-1.32,0-2.46-.22-3.41-.65-.97-.45-1.71-1.04-2.2-1.79-.27-.43-.47-.83-.6-1.19s-.22-.76-.28-1.2c-.08-.77-.12-2.27-.12-4.48v-2.87h-2.18v-5.36h2.18v-2.62l8.84-4.2v6.82h3.57v5.36h-3.57v3.3c0,1.08,.1,1.8,.3,2.16,.19,.36,.59,.54,1.2,.54,.57,0,1.27-.18,2.07-.54Z"/><path class="ag" d="M1059.96,492.27h-7.45v-5.19h2.87l.86-1.74-6.54-12.59h-1.32v-5.36h11.62v5.36h-1.88l2.97,6.7,2.74-6.7h-1.65v-5.36h8.81v5.36h-1.71l-9.32,19.51Z"/><path class="ag" d="M1108.23,479.09v5.36h-11.06v-1.14c-1.64,.97-3.54,1.46-5.7,1.46-2.4,0-4.53-.73-6.38-2.2s-2.78-3.56-2.78-6.29c0-2.94,.86-5.21,2.57-6.82,1.71-1.58,4-2.37,6.87-2.37,2.11,0,3.91,.47,5.41,1.41v-3.13h-2.18v-5.36h11.02v19.09h2.21Zm-11-3.23c0-1.07-.25-1.96-.74-2.67-.49-.7-1.22-1.05-2.2-1.05-2,0-3.01,1.29-3.01,3.88,0,1.07,.25,1.95,.74,2.64,.48,.7,1.21,1.05,2.2,1.05,.89,0,1.62-.31,2.18-.93,.55-.62,.83-1.59,.83-2.92Z"/><path class="ag" d="M1112.38,472.76h-2.06v-5.36h10.9v8.12c0,1.37,.13,2.29,.39,2.76,.25,.48,.77,.72,1.58,.72,.98,0,1.9-.26,2.74-.79v-5.45h-2.34v-5.36h11.18v11.69h2.06v5.36h-10.9v-2.16c-2.33,1.65-4.72,2.48-7.15,2.48-1.75,0-3.25-.56-4.5-1.67-1.27-1.11-1.9-3.21-1.9-6.29v-4.04Z"/><path class="ag" d="M1154.95,477.45l6.59,1.48c-.55,1.9-1.73,3.38-3.55,4.43-1.84,1.05-4.11,1.58-6.82,1.58-3.59,0-6.41-.81-8.47-2.43s-3.09-3.79-3.09-6.5,.96-4.76,2.88-6.43c1.91-1.66,4.31-2.5,7.19-2.5,2.44,0,4.32,.49,5.64,1.46v-1.14h5.4v7.28h-5.4c-.67-1.95-1.8-2.92-3.39-2.92-1.08,0-1.91,.42-2.5,1.25-.59,.86-.88,1.89-.88,3.11,0,1.32,.32,2.37,.95,3.13,.62,.76,1.43,1.14,2.43,1.14,1.64,0,2.65-.98,3.02-2.94Z"/><path class="ag" d="M1174.68,484.45h-11.02v-5.36h2.18v-13.73h-2.21v-5.36h11.06v17.03l5.55-5.43h-3.11v-4.2h10.9v4.62h-1.99l-3.2,3.13,3.85,3.94h1.39v5.36h-6.35l-7.05-7.42v7.42Z"/><path class="ag" d="M1197.02,484.66h-5.47v-5.41h5.12c1.31,1.38,2.75,2.07,4.31,2.07s2.36-.32,2.36-.97c0-.33-.17-.58-.51-.76-.35-.19-1.28-.46-2.79-.83-1.22-.33-2.57-.71-4.04-1.14-1.28-.36-2.29-.82-3.02-1.37-.76-.55-1.27-1.09-1.53-1.62-.28-.53-.42-1.22-.42-2.07,0-1.89,.67-3.28,2-4.17,1.32-.88,3.01-1.32,5.04-1.32s3.88,.4,5.31,1.2v-.88h5.4v4.96h-4.99c-1.24-1.18-2.72-1.78-4.43-1.78-1.35,0-2.02,.36-2.02,1.07,0,.34,.2,.56,.6,.67,.34,.11,1.46,.36,3.38,.76,2.17,.46,3.86,.91,5.08,1.37,1.21,.46,2.12,1.06,2.72,1.81,.6,.75,.9,1.67,.9,2.76,0,1.97-.73,3.42-2.2,4.36-1.45,.93-3.25,1.39-5.38,1.39s-3.92-.39-5.4-1.16v1.05Z"/><path class="ag" d="M1213.59,491.53v-3.43c.94,0,1.65-.14,2.14-.42,.49-.29,.8-.63,.91-1,.13-.39,.2-1.13,.21-2.23h-3.27v-6.4h8.77v5.47c0,1.97-.07,3.31-.21,4.03-.14,.74-.55,1.45-1.23,2.14-.67,.7-1.49,1.19-2.48,1.46-.95,.26-2.57,.39-4.85,.39Z"/><path class="ag" d="M815.24,522.29v5.36h-11.06v-1.14c-1.64,.97-3.54,1.46-5.7,1.46-2.4,0-4.53-.73-6.38-2.2s-2.78-3.56-2.78-6.29c0-2.94,.86-5.21,2.57-6.82,1.71-1.58,4-2.37,6.87-2.37,2.11,0,3.91,.47,5.41,1.41v-3.13h-2.18v-5.36h11.02v19.09h2.21Zm-11-3.23c0-1.07-.25-1.96-.74-2.67-.49-.7-1.22-1.05-2.2-1.05-2,0-3.01,1.29-3.01,3.88,0,1.07,.25,1.95,.74,2.64,.48,.7,1.21,1.05,2.2,1.05,.89,0,1.62-.31,2.18-.93,.55-.62,.83-1.59,.83-2.92Z"/><path class="ag" d="M818.05,519.04c0-2.51,1.05-4.62,3.16-6.35s4.96-2.58,8.54-2.58,6.54,.83,8.81,2.5,3.39,3.83,3.39,6.5-1.08,4.73-3.23,6.45-5,2.58-8.54,2.58c-3.82,0-6.8-.86-8.93-2.58-2.13-1.71-3.2-3.88-3.2-6.52Zm8.95,.04c0,2.72,.97,4.08,2.92,4.08,2.06,0,3.09-1.37,3.09-4.11,0-1.25-.25-2.23-.76-2.92-.52-.69-1.24-1.04-2.18-1.04s-1.67,.34-2.23,1.02-.84,1.67-.84,2.97Z"/><path class="ag" d="M858.23,527.65h-13.5v-5.36h2.2v-6.33h-2.2v-5.36h11.04v2.16c2.17-1.65,4.49-2.48,6.98-2.48,2.18,0,3.82,.6,4.92,1.81,1.09,1.21,1.63,3.15,1.63,5.82v4.38h2.02v5.36h-10.86v-7.58c0-1.65-.14-2.74-.42-3.27-.3-.52-.88-.77-1.74-.77-.79,0-1.63,.3-2.53,.9v5.36h2.46v5.36Z"/><path class="ag" d="M887.52,521.43v5.24c-.57,.39-1.41,.73-2.5,1.02-1.15,.3-2.25,.46-3.3,.46-1.32,0-2.46-.22-3.41-.65-.97-.45-1.71-1.04-2.2-1.79-.27-.43-.47-.83-.6-1.19s-.22-.76-.28-1.2c-.08-.77-.12-2.27-.12-4.48v-2.87h-2.18v-5.36h2.18v-2.62l8.84-4.2v6.82h3.57v5.36h-3.57v3.3c0,1.08,.1,1.8,.3,2.16,.19,.36,.59,.54,1.2,.54,.57,0,1.27-.18,2.07-.54Z"/><path class="ag" d="M911.27,527.65h-12.22v-5.36h1.81v-13.73h-1.81v-5.36h10.65v19.09h1.56v5.36Z"/><path class="ag" d="M928.32,522.25l7.29,.9c-.33,.76-.79,1.44-1.37,2.05s-1.3,1.13-2.14,1.57c-1.7,.91-3.73,1.37-6.1,1.37-3.97,0-6.96-.83-8.96-2.48-2-1.64-3.01-3.79-3.01-6.45s.99-4.77,2.97-6.5c1.96-1.73,4.61-2.6,7.96-2.6s5.85,.82,7.88,2.46c1.99,1.63,3.05,4.11,3.18,7.44h-13.43c.04,2.77,1.07,4.15,3.09,4.15,1.22,0,2.1-.63,2.64-1.9Zm-5.62-4.46h4.97c.02-.35,.04-.55,.04-.6,0-.93-.23-1.69-.7-2.3-.47-.6-1.09-.9-1.86-.9s-1.41,.33-1.83,.98c-.42,.67-.63,1.49-.63,2.46,0,.13,0,.25,.02,.35Z"/><path class="ag" d="M952.75,521.43v5.24c-.57,.39-1.41,.73-2.5,1.02-1.15,.3-2.25,.46-3.3,.46-1.32,0-2.46-.22-3.41-.65-.97-.45-1.71-1.04-2.2-1.79-.27-.43-.47-.83-.6-1.19s-.22-.76-.28-1.2c-.08-.77-.12-2.27-.12-4.48v-2.87h-2.18v-5.36h2.18v-2.62l8.84-4.2v6.82h3.57v5.36h-3.57v3.3c0,1.08,.1,1.8,.3,2.16,.19,.36,.59,.54,1.2,.54,.57,0,1.27-.18,2.07-.54Z"/><path class="ag" d="M978.24,521.43v5.24c-.57,.39-1.41,.73-2.5,1.02-1.15,.3-2.25,.46-3.3,.46-1.32,0-2.46-.22-3.41-.65-.97-.45-1.71-1.04-2.2-1.79-.27-.43-.47-.83-.6-1.19s-.22-.76-.28-1.2c-.08-.77-.12-2.27-.12-4.48v-2.87h-2.18v-5.36h2.18v-2.62l8.84-4.2v6.82h3.57v5.36h-3.57v3.3c0,1.08,.1,1.8,.3,2.16,.19,.36,.59,.54,1.2,.54,.57,0,1.27-.18,2.07-.54Z"/><path class="ag" d="M993.85,527.65h-13.46v-5.36h2.23v-13.73h-2.23v-5.36h11.07v9.46c2.36-1.58,4.67-2.37,6.94-2.37,2,0,3.59,.58,4.76,1.74,1.17,1.17,1.76,3.24,1.76,6.21v4.06h2v5.36h-10.85v-6.98c0-2.12-.12-3.45-.37-3.99-.26-.54-.8-.81-1.62-.81s-1.73,.3-2.64,.9v5.52h2.39v5.36Z"/><path class="ag" d="M1023.94,522.25l7.3,.9c-.33,.76-.79,1.44-1.37,2.05s-1.3,1.13-2.14,1.57c-1.7,.91-3.73,1.37-6.1,1.37-3.97,0-6.96-.83-8.96-2.48-2-1.64-3.01-3.79-3.01-6.45s.99-4.77,2.97-6.5c1.96-1.73,4.61-2.6,7.96-2.6s5.85,.82,7.88,2.46c1.99,1.63,3.05,4.11,3.18,7.44h-13.43c.04,2.77,1.07,4.15,3.09,4.15,1.22,0,2.1-.63,2.64-1.9Zm-5.62-4.46h4.97c.02-.35,.04-.55,.04-.6,0-.93-.23-1.69-.7-2.3-.47-.6-1.09-.9-1.86-.9s-1.41,.33-1.83,.98c-.42,.67-.63,1.49-.63,2.46,0,.13,0,.25,.02,.35Z"/><path class="ag" d="M1048.17,527.65h-13.36v-5.36h2.11v-6.33h-2.14v-5.36h11v2.34c.84-.71,1.95-1.34,3.32-1.86,1.36-.53,2.66-.79,3.9-.79,2.89,0,4.83,1.11,5.82,3.34,2.61-2.23,5.28-3.34,8-3.34,1.49,0,2.71,.32,3.67,.95,.98,.64,1.68,1.5,2.07,2.57,.41,1.1,.62,2.65,.62,4.64v3.85h2.25v5.36h-11.09v-7.33c0-1.91-.15-3.1-.44-3.57s-.82-.7-1.58-.7c-.96,0-1.93,.36-2.9,1.09v5.15h2.41v5.36h-11.25v-7.29c0-1.88-.13-3.06-.39-3.57-.26-.49-.78-.74-1.56-.74-.9,0-1.85,.36-2.85,1.09v5.15h2.39v5.36Z"/><path class="ag" d="M1100.16,527.86h-7l-5.22-11.9h-1.83v-5.36h11.5v5.36h-1.71l2,5.68,4.2-11.04h6.56l3.83,11.04,2.18-5.68h-1.63v-5.36h8.31v5.36h-1.67l-4.96,11.9h-7.01l-3.9-8.74-3.66,8.74Z"/><path class="ag" d="M1135.46,527.65h-12.08v-5.36h1.76v-6.33h-1.76v-5.36h10.6v11.69h1.48v5.36Zm-11.06-21.87c0-.93,.47-1.67,1.42-2.23,.94-.56,2.1-.84,3.48-.84s2.56,.29,3.43,.88c.86,.6,1.28,1.32,1.28,2.18,0,.93-.45,1.66-1.34,2.2-.9,.55-2.04,.83-3.41,.83s-2.55-.25-3.48-.76c-.93-.49-1.39-1.24-1.39-2.25Z"/><path class="ag" d="M1151.46,527.65h-13.5v-5.36h2.2v-6.33h-2.2v-5.36h11.04v2.16c2.17-1.65,4.49-2.48,6.98-2.48,2.18,0,3.82,.6,4.92,1.81,1.09,1.21,1.63,3.15,1.63,5.82v4.38h2.02v5.36h-10.86v-7.58c0-1.65-.14-2.74-.42-3.27-.3-.52-.88-.77-1.74-.77-.79,0-1.63,.3-2.53,.9v5.36h2.46v5.36Z"/></g><g><path class="ag" d="M505.51,375.73l-78.34,13.39-5.87-34.33,11.55-1.97-3.89-22.78-45.07-45.77-9.79,1.67-5.87-34.33,74.94-12.81,5.87,34.33-8.56,1.46,20.26,26.67,13.45-32.43-8.76,1.5-5.87-34.33,55.15-9.43,5.87,34.33-8.97,1.53-27.2,58.12,3.89,22.78,11.34-1.94,5.87,34.33Z"/><path class="ag" d="M530.61,297.28c-2.04-11.96-1.1-24.04,2.82-36.24,3.87-12.12,11.23-23.03,22.09-32.74,3.87-3.42,7.96-6.31,12.26-8.67,4.3-2.36,9.06-4.43,14.27-6.21,5.21-1.77,10.77-3.17,16.69-4.18,25.7-4.39,46.88-.27,63.55,12.37,8.28,6.22,14.94,13.36,20,21.41,5.05,8.05,8.41,16.92,10.07,26.61,3.42,20-.89,38.63-12.94,55.9-12.04,17.27-30.47,28.02-55.28,32.26-23.99,4.1-44.62,.49-61.91-10.85-17.34-11.25-27.88-27.81-31.62-49.66Zm62.26-10.65c2.73,15.94,6.11,26.43,10.16,31.47,3.92,5.13,9.04,7.15,15.36,6.07s10.46-4.58,12.63-10.54c2.15-6.03,1.84-17.15-.93-33.37-2.69-15.74-6.04-26.2-10.03-31.39-3.92-5.13-9.11-7.14-15.57-6.04s-10.36,4.57-12.52,10.52c-2.16,5.96-1.86,17.05,.91,33.26Z"/><path class="ag" d="M713.65,227.9l-11.03,1.89-5.87-34.33,73.4-12.55,5.87,34.33-6.8,1.16,8.27,48.35c1.97,11.55,4.42,19.23,7.33,23.04,2.9,3.75,7.21,5.13,12.91,4.16,4.74-.81,7.88-3.15,9.41-7.02,1.54-3.8,1.4-11.03-.42-21.68l-8.85-51.75-7.22,1.23-5.87-34.33,53.91-9.22,5.87,34.33-11.34,1.94,8.88,51.95c2.27,13.26,2.2,24.45-.2,33.56-2.42,9.04-7.69,16.7-15.81,22.97-8.12,6.27-18.71,10.52-31.77,12.75-10.51,1.8-20.05,2.12-28.59,.96-8.67-1.06-15.85-3.73-21.52-7.99-5.67-4.19-10.25-9.67-13.74-16.43-3.52-6.54-6.51-16.99-8.97-31.36l-7.86-45.98Z"/><path class="ag" d="M1065.78,279.94l-136.48,23.33-5.87-34.33,12.89-2.2-12.78-74.74-12.89,2.2-5.87-34.33,81.95-14.01,5.87,34.33-13.61,2.33,12.78,74.74,33.92-5.8-3.93-22.99,34.22-5.85,9.8,57.32Z"/><path class="ag" d="M1067.37,205.51c-2.04-11.96-1.1-24.04,2.82-36.24,3.87-12.12,11.23-23.03,22.09-32.74,3.87-3.42,7.96-6.31,12.26-8.67,4.3-2.36,9.06-4.43,14.27-6.21,5.21-1.77,10.77-3.17,16.69-4.18,25.7-4.39,46.88-.27,63.55,12.37,8.28,6.22,14.95,13.36,20,21.41,5.05,8.05,8.41,16.92,10.07,26.61,3.42,20-.89,38.63-12.94,55.9-12.04,17.27-30.47,28.02-55.28,32.26-23.98,4.1-44.62,.49-61.91-10.85-17.34-11.25-27.88-27.81-31.62-49.66Zm62.26-10.65c2.73,15.94,6.11,26.43,10.16,31.47,3.92,5.13,9.04,7.15,15.36,6.07,6.25-1.07,10.46-4.58,12.63-10.54,2.15-6.03,1.84-17.15-.93-33.37-2.69-15.74-6.04-26.2-10.03-31.39-3.92-5.13-9.11-7.14-15.57-6.04-6.19,1.06-10.36,4.57-12.52,10.52-2.16,5.96-1.86,17.05,.91,33.26Z"/><path class="ag" d="M1293.7,240.98l-32.27,5.52-7.86-45.98,32.27-5.52c5.99,11.85,14.31,16.86,24.96,15.04,7.7-1.32,11.02-5.07,9.96-11.25-.55-3.23-2.35-5.68-5.4-7.35-3.29-1.84-9.92-4.03-19.9-6.57-12.59-3.29-21.96-6.39-28.12-9.3-5.75-2.62-10.98-6.72-15.68-12.28-4.69-5.49-7.67-11.95-8.94-19.37-2.28-13.33,.27-24.48,7.65-33.46,7.31-8.96,17.25-14.51,29.83-16.66,12.58-2.15,23.84-.4,33.79,5.26l-1.52-8.87,32.47-5.55,6.98,40.82-32.06,5.48c-5.84-10.6-13.75-15.05-23.71-13.35-7.01,1.2-10,4.79-8.98,10.77,.49,2.89,1.86,4.88,4.1,5.98,2.18,1.18,8.97,3.45,20.37,6.81,15.29,4.6,25.58,8.11,30.87,10.53,2.68,1.17,5.51,2.97,8.51,5.39,3,2.42,5.58,5.01,7.74,7.75,4.93,6.09,8.07,13.05,9.41,20.88,2.06,12.03-.67,22.96-8.18,32.8-7.49,9.98-18.04,16.13-31.64,18.46-12.65,2.16-24.73,.37-36.25-5.37l1.6,9.38Z"/><path class="ag" d="M1503.37,205.13l-80.51,13.76-5.87-34.33,12.37-2.11-12.78-74.74-16.49,2.82,4.46,26.08-26.91,4.6-10.33-60.41,142.15-24.3,10.33,60.41-26.91,4.6-4.46-26.08-16.39,2.8,12.78,74.74,12.68-2.17,5.87,34.33Z"/></g><g><g><g><path class="n" d="M398.03,895.63l-48.32,32.87c8.1,5.96,10.7,15.37,7.37,21.59-2.01,3.76-6.36,6.65-10.92,6.68-6.98,.05-11.68-6.89-13.16-11.54-.53-1.67-.63-2.99-.66-3.4-.4-4.91-2.51-13.13-9.69-27.77l54.81-34.47"/><path class="ad" d="M333.09,944.5l-9.19-30.47,53.59-33.29,2.28,3.06-49.73,32.71s6.98,15.68,6.66,27.21c.02,.75,1.36,6.42,9.69,9.66,9.33,2.2,3.45,2.19,3.45,2.19l-7.45,.33c-3.52-2.57-6.97-5.34-9.3-11.4Z"/><polygon class="ab" points="375.83 903.85 375.14 910.01 346 928.42 375.83 903.85"/><path class="ae" d="M344.86,958.86c-7.93-.75-12.54-8.67-13.91-12.98-.59-1.86-.71-3.35-.75-3.84-.5-6.13-3.69-15.22-9.49-27.04l-.85-1.73,56.44-35.5,2.28,3.63-53.18,33.45c5.58,11.61,8.54,20.4,9.06,26.81,.04,.44,.13,1.53,.57,2.92,1.29,4.06,5.32,10.08,11.1,10.04,3.59-.02,7.31-2.31,9.05-5.55,2.62-4.9,.81-13.29-6.75-18.85l-2.44-1.8,50.82-34.57,2.41,3.55-45.96,31.26c6.88,6.38,9.35,15.6,5.69,22.44-2.48,4.64-7.63,7.78-12.8,7.82-.45,0-.88-.02-1.31-.06Z"/></g><g><path class="n" d="M498.11,910.31l3.03,73.33c16.26,1.23,24.42,3.57,28.86,5.72,.37,.18,1.55,.76,3.26,1.15,4.75,1.08,13.12,.55,16.61-5.5,2.28-3.95,1.99-9.17-.23-12.8-3.68-6.03-20.87-7.14-30.11-3.17l-.71-60.09"/><path class="ad" d="M501.63,965.61v17.3s21.65,1.78,27.74,5.54c6.1,3.77,15.7,0,15.7,0,0,0-9.82-.03-13.03-3.53s-25.84-5.33-25.84-5.33l-.66-9.67-3.91-4.31Z"/><path class="ae" d="M537.52,993.09c-1.82,0-3.47-.21-4.73-.49-1.91-.43-3.26-1.09-3.7-1.3-5.53-2.67-14.98-4.53-28.11-5.52l-1.9-.14-3.11-75.23,4.29-.18,2.95,71.43c12.85,1.08,21.93,2.97,27.73,5.77,.36,.17,1.37,.66,2.81,.99,4.16,.94,11.39,.53,14.28-4.48,1.8-3.11,1.72-7.47-.2-10.61-2.86-4.69-18.76-6.04-27.44-2.32l-2.95,1.26-.75-63.3,4.29-.05,.67,57.1c10.35-2.99,25.89-1.39,29.83,5.07,2.74,4.49,2.84,10.52,.25,14.99-3.19,5.51-9.32,7.01-14.21,7.01Z"/></g><g><path class="n" d="M584.89,819.64c-5.83,4.42-14.77,9.79-26.28,11.17-16.69,2-29.98-5.45-34.82-7.88-34.17-17.14-99.2-10.79-130.81,15.08-1.86,1.52-3.6,3.11-5.22,4.76l-73.98-16.68c-10.87-2.6-13.62,6.18-2.44,8.44l69.43,17.16c-2.12,3.47-15.76,26.92-6.72,45.85,1.11,2.33,2.34,4.1,3.21,5.26l-7.48,73.01c15.92,3.54,23.66,7.03,27.74,9.78,.34,.23,1.43,.98,3.07,1.61,4.55,1.75,12.9,2.42,17.23-3.07,2.82-3.58,3.28-8.79,1.61-12.7-2.78-6.49-11.75-10.34-21.46-7.74l4.53-58.26c6.21,4.81,16.22,11.53,29.74,16.28,57.84,20.32,112.97-18.9,119.15-23.44,29.27-21.5,43.31-49.26,49.72-65.27"/><path class="ad" d="M384.12,850.31s-7.9,23.07-6.85,34.4,4.71,14.89,4.71,14.89l-6.14,69.83s21.51,8.1,25.09,12.92c3.58,4.82,16.35,0,16.35,0l-2.01,4.09-11.28,.84-12.74-4.89-20.81-7.34,6.9-73.08s-6.72-8.83-6.28-19.27c.44-10.44,8.69-28.98,8.69-28.98l4.37-3.41Z"/><path class="af" d="M402.91,906.26c2.01,2.6,22.17,11.92,22.17,11.92l20.51,6.51,15.4,2.7,24.82-1.68,13.43-3.36c17.92-5.73,21.71-7.33,21.61-7.67-.02-.06-.19-.2-.39-.26-.55-.17-1.13,.32-1.18,.36-.76,.56-26.95,9.54-59.98,4.36-23.5-3.68-40.95-13.05-50.96-19.49l-9.49-5.37c-.29-.08,1.92,9.24,4.04,11.98Z"/><path class="ad" d="M496.04,883.29l12.59,28.11s1.71,3.43,0,4.38l-8.35,4.56-1.92,1,8.05-1.61,7.58-3.12,.22-4.36-11.92-20.1-6.24-8.87Z"/><path class="ad" d="M306.31,827.58c4.23,4.51,45.18,12.92,72.21,20.7,1.22,.42,2.81,1.17,5.1,2.17l-76.07-17.9-3.21-2.41,1.97-2.56Z"/><path class="ae" d="M407.7,990.6c-3.1,0-5.98-.68-7.88-1.41-1.82-.7-3.06-1.53-3.47-1.81-5.1-3.44-14.19-6.63-27.04-9.49l-1.86-.41,7.59-74.08c-1.13-1.57-2.11-3.22-2.93-4.94-8.2-17.17,1.09-37.54,5.37-45.37l-66.62-16.46c-4.84-.99-7.94-2.9-8.74-5.39-.45-1.38,.12-4.76,1.13-5.84,1.91-2.06,6.03-2.58,11.03-1.39l72.78,16.43c1.42-1.4,2.96-2.78,4.57-4.1,31.4-25.69,97.34-33.29,133.13-15.34l.97,.49c5.27,2.69,17.6,8.98,32.63,7.18,8.71-1.04,17.2-4.66,25.24-10.75l2.59,3.42c-8.66,6.55-17.85,10.45-27.32,11.59-16.33,1.95-29.48-4.75-35.1-7.62l-.95-.48c-16.13-8.09-39.88-11.14-65.17-8.37-25.66,2.81-48.74,11.26-63.32,23.2-1.81,1.48-3.5,3.03-5.04,4.6l-.81,.83-75.12-16.9c-3.9-.93-6.49-.98-6.77-.04-.56,1.87,1.61,3.55,5.17,4.27l.09,.02,72.27,17.86-1.52,2.5c-2.58,4.23-15.01,26.22-6.61,43.81,.82,1.71,1.82,3.35,2.98,4.88l.51,.67-7.37,71.96c12.56,2.9,21.28,6.07,26.62,9.68,.37,.25,1.27,.86,2.64,1.38,3.97,1.53,11.19,2.15,14.78-2.39,2.22-2.82,2.77-7.15,1.32-10.53-2.19-5.11-9.87-8.94-18.94-6.51l-2.93,.78,5.07-65.24,3.14,2.43c8.97,6.94,18.77,12.31,29.14,15.95,23.78,8.36,49.86,7.55,77.51-2.39,20.74-7.45,35.6-17.77,39.66-20.75,27.21-19.99,41.66-46.02,49-64.34l3.98,1.59c-7.54,18.84-22.42,45.61-50.44,66.2-4.18,3.07-19.46,13.68-40.74,21.33-28.61,10.28-55.65,11.09-80.38,2.4-9.6-3.37-18.73-8.16-27.2-14.26l-4,51.53c9.29-1.39,18.03,2.45,21.08,9.57,2.07,4.84,1.31,10.81-1.89,14.88-3.1,3.93-7.65,5.14-11.81,5.14Z"/></g><g id="b"><path class="n" d="M498.13,882.65l16.85,28.63s2.02,5.04-1.71,7.37c-3.73,2.33-29.92,19.83-29.92,19.83,3.44,5.87,19.04,25.45,20.53,27.52,1.62,2.26,1.51,3.6,2.38,5.06,2.02,3.37,9.05,6.98,13.99,5.1,5.75-2.19,7.17-9.01,6.52-13.34-.99-6.56-7.08-17.32-15.65-18.55l32.63-21.81s3.55-3.2,.34-7.84c-3.21-4.64-16.85-29.04-16.85-29.04"/><path class="ad" d="M500.1,881.84c5.78,6.98,11.42,16.62,18.59,27.35,0,0,4.98,7.65-.89,11.52-4.6,3.07-27.03,19.37-27.03,19.37l16.97,23.05c.89,1.04,.89,2.82,2.33,5.97,1.31,3.2,5.82,5.21,5.65,5.02l-.8,.66-7.85-3.87-3.83-8.65-17.63-23.36,20.63-16.23,9.23-7.5-.24-3.12-16.3-29.62,1.18-.57Z"/><path class="ae" d="M517.25,979.07c-5.4,0-11.07-3.48-13.05-6.79-.48-.8-.73-1.55-.96-2.22-.29-.86-.54-1.61-1.31-2.67-.34-.48-1.63-2.13-3.25-4.22-5.51-7.08-14.73-18.94-17.4-23.49l-1.14-1.95,1.88-1.26c1.07-.72,26.26-17.54,29.98-19.87,1.74-1.09,1.02-3.65,.8-4.3l-16.74-28.44c-.67-1.14-.29-2.62,.85-3.29,1.14-.67,2.62-.29,3.29,.85l16.95,28.79,.07,.17c.96,2.39,1.63,7.61-2.67,10.3-3.06,1.91-21.75,14.38-27.9,18.48,3.54,5.27,11.37,15.33,15.83,21.06,1.79,2.3,2.97,3.81,3.36,4.36,1.18,1.65,1.61,2.92,1.96,3.94,.18,.54,.31,.93,.53,1.29,1.52,2.55,7.45,5.47,11.07,4.09,4.56-1.74,5.48-7.51,5-10.73-.94-6.22-6.57-15.52-13.62-16.53l-6.21-.89,37.66-25.16c.49-.53,1.59-2.14-.11-4.6-3.24-4.68-16.42-28.23-16.97-29.23-.65-1.16-.23-2.62,.92-3.27,1.16-.65,2.62-.23,3.27,.92,.14,.24,13.62,24.35,16.73,28.84,3.49,5.04,1.07,9.4-.7,10.99l-.28,.21-28.61,19.12c7,3.77,11.72,12.57,12.67,18.88,.74,4.89-.79,13.18-8.03,15.94-1.23,.47-2.54,.68-3.86,.68Z"/></g><g><path class="ad" d="M438.78,833.93c3.46,.79,6.65,4.01,6.08,7.52-.8,4.86-7.51,6.48-9.35,11.06-1.07,2.67-.22,5.76-1.07,8.51-1.28,4.14-5.83,6.16-9.89,7.67-2.95,1.1-6.41,2.16-9.08,.49-1.99-1.24-2.87-3.63-3.63-5.85l-4-11.71c-.89-2.61-1.79-5.36-1.3-8.07,.74-4.09,4.58-7.05,8.61-8.05s20.17-2.36,23.63-1.57Z"/><path class="s" d="M437.13,833.54c3.26,.74,6.25,3.77,5.71,7.07-.75,4.57-7.06,6.1-8.79,10.39-1,2.51-.21,5.42-1.01,8-1.2,3.89-5.48,5.79-9.3,7.21-2.77,1.04-6.03,2.03-8.54,.46-1.87-1.17-2.7-3.41-3.42-5.5l-3.76-11.01c-.84-2.45-1.69-5.04-1.23-7.59,.7-3.85,4.3-6.63,8.1-7.57s18.96-2.22,22.22-1.48Z"/></g><g><path class="ad" d="M456.95,877.2c2.89-1.49,4.97-2.05,7.27-2.03,3.73,.03,7.82,1.85,8.83,5.44,.57,2.01,.12,4.23,.87,6.18,1.64,4.26,7.56,4.67,10.93,7.74,6.15,6,.94,15.9-7.5,14.21-2.32-.55-4.39-2.1-6.77-2.2-3.05-.14-5.61,2.06-8.18,3.71-2.56,1.65-6.22,2.72-8.45,.64-2.83-2.65-.68-7.74-2.72-11.04-1.98-3.2-6.77-3.13-9.61-5.59-3.38-2.92-2.95-8.18-2.24-12.59,.35-2.19,.73-4.43,1.8-6.37,2.98-5.32,9.26-4.58,11.21,.64,.79,1.98,2.46,2.47,4.56,1.25Z"/><path class="s" d="M458.12,876.03c2.89-1.49,4.97-2.05,7.27-2.03,3.73,.03,7.82,1.85,8.83,5.44,.57,2.01,.12,4.23,.87,6.18,1.64,4.26,7.56,4.67,10.93,7.74,6.15,6,.94,15.9-7.5,14.21-2.32-.55-4.39-2.1-6.77-2.2-3.05-.14-5.61,2.06-8.18,3.71-2.56,1.65-6.22,2.72-8.45,.64-2.83-2.65-.68-7.74-2.72-11.04-1.98-3.2-6.77-3.13-9.61-5.59-3.38-2.92-2.95-8.18-2.24-12.59,.35-2.19,.73-4.43,1.8-6.37,2.98-5.32,9.26-4.58,11.21,.64,.79,1.98,2.46,2.47,4.56,1.25Z"/></g><path class="ad" d="M515.86,838.15c8.88-7.63,23.62-5.16,29.15,5.26,2.16,4.85,3.4,10.08,5.15,15.09,.34,1.06,.67,2.26,.15,3.24-1.44,2.3-4.48,.93-6.58,.56-6.22-.81-10.53,5.73-16.35,6.65-5.73,.91-10.93-3.6-16.69-4.29-3.05-.36-6.24,.35-9.15-.62-5.5-1.78-7.41-9-3.49-13.26,1.21-1.35,2.89-2.31,3.78-3.9,.8-1.42,.85-3.15,1.54-4.63,.97-2.07,3.1-3.53,5.35-3.93,1.97-.34,5.24,1.08,7.14-.17Z"/><path class="s" d="M517.5,837.21c8.73-7.5,23.22-5.08,28.66,5.18,2.12,4.77,3.34,9.91,5.07,14.84,.34,1.04,.66,2.22,.14,3.18-1.42,2.26-4.41,.91-6.47,.55-6.12-.79-10.35,5.63-16.08,6.53-5.64,.9-10.74-3.54-16.41-4.22-3-.36-6.13,.35-8.99-.61-5.41-1.75-7.29-8.85-3.43-13.04,1.19-1.33,2.84-2.27,3.71-3.83,.78-1.4,.84-3.1,1.52-4.55,.96-2.04,3.05-3.47,5.26-3.86,1.93-.34,5.16,1.06,7.02-.17Z"/><path class="ae" d="M410.68,987.79c-.72,0-1.38-.5-1.55-1.23-.89-3.85-3.56-5.78-3.59-5.8-.72-.5-.9-1.49-.4-2.22,.5-.72,1.49-.9,2.22-.4,.15,.1,3.69,2.61,4.88,7.7,.2,.86-.33,1.71-1.19,1.91-.12,.03-.24,.04-.36,.04Z"/><path class="ae" d="M416.63,985.11c-.75,0-1.43-.51-1.6-1.28-.92-3.98-3.68-5.98-3.71-6-.75-.52-.93-1.54-.42-2.29,.52-.75,1.54-.93,2.29-.42,.16,.11,3.82,2.69,5.04,7.96,.21,.89-.35,1.77-1.23,1.98-.13,.03-.25,.04-.37,.04Z"/><path class="ae" d="M338.69,952.8c-.42-.59-.4-1.41,.1-1.98,2.61-2.97,2.63-6.26,2.63-6.3-.01-.88,.69-1.61,1.57-1.62,.88-.01,1.6,.69,1.62,1.57,0,.18,.04,4.52-3.42,8.45-.58,.66-1.59,.73-2.25,.15-.09-.08-.18-.17-.24-.27Z"/><path class="ae" d="M344.33,956.08c-.44-.61-.41-1.46,.1-2.05,2.69-3.07,2.72-6.48,2.71-6.51-.02-.91,.71-1.66,1.62-1.67,.91-.01,1.66,.71,1.67,1.62,0,.19,.04,4.67-3.53,8.74-.6,.68-1.64,.75-2.32,.15-.1-.08-.18-.18-.25-.28Z"/><path class="ae" d="M510.52,974c-.5-.52-.6-1.34-.19-1.97,2.14-3.32,1.68-6.58,1.67-6.61-.14-.87,.44-1.69,1.31-1.83,.87-.14,1.69,.44,1.83,1.31,.03,.18,.7,4.47-2.14,8.86-.48,.74-1.46,.95-2.2,.48-.1-.07-.2-.14-.28-.23Z"/><path class="ae" d="M516.58,976.42c-.52-.54-.62-1.38-.2-2.04,2.21-3.43,1.73-6.8,1.73-6.84-.15-.9,.46-1.75,1.36-1.89,.9-.15,1.75,.46,1.89,1.36,.03,.19,.72,4.62-2.21,9.16-.49,.76-1.51,.98-2.28,.49-.11-.07-.21-.15-.29-.24Z"/><path class="ae" d="M541.3,990.13c-.72,0-1.38-.5-1.55-1.23-.89-3.85-3.56-5.78-3.59-5.8-.72-.5-.9-1.49-.4-2.22,.5-.72,1.49-.9,2.22-.4,.15,.1,3.69,2.61,4.88,7.7,.2,.86-.33,1.71-1.19,1.91-.12,.03-.24,.04-.36,.04Z"/><path class="ae" d="M547.25,987.45c-.75,0-1.43-.51-1.6-1.28-.92-3.98-3.68-5.98-3.71-6-.75-.52-.93-1.54-.42-2.29,.52-.75,1.54-.93,2.29-.42,.16,.11,3.82,2.69,5.04,7.96,.21,.89-.35,1.77-1.23,1.98-.13,.03-.25,.04-.37,.04Z"/></g><g><path class="n" d="M548.49,645.57c.38-1.9,.77-4.67,.66-7.99-.13-4.38-1.06-7.9-3.63-15.11-4.06-11.41-4.6-10.66-6.04-15.97-1.64-6.04-1.92-10.72-2.27-16.34-.54-8.71-.83-13.49,.67-19.69,1.37-5.67,3.18-13.16,9.95-17.86,6-4.17,12.55-3.84,14.84-3.73,13.68,.27,20.55,7.94,16.94,22.06-1.72,8.05-5.4,9-9.37,20.28-1.3,3.69-2.32,6.61-2.67,10.79-.31,3.64,.1,5.92,2.31,16.96,2.35,11.68,2.7,13.11,3.22,16.49,.98,6.39,1.32,11.62,1.45,14.87"/><path class="af" d="M572.28,638.26c-2.86-11.7-5.06-19.92-6.85-26.11-.44-1.52-1.2-4.09-1.39-7.63-.35-6.46,1.45-11.51,2.55-14.52,.49-1.33,.48-1.13,6.4-12.93,2.38-4.74,3.57-7.16,3.84-9.94,.1-1.01,.54-5.55-1.71-9.52-3.04-5.38-10.2-8.22-17.99-7.38l10.6-.15,7.42,2.94,5.35,6.14-.3,9.14-2.43,7.97-4.21,7.76-3.09,6.61-3.16,13.24,5.62,33.44v1.13l-.64-.18Z"/><path class="ad" d="M550.89,633.35c-.02-.49,2.03-1.04,1.47-6.34-.36-1.32-.94-5.04-3.29-10.51-2.67-6.22-4.45-12.23-4.96-14.09-3-10.8-.78-20.06-.48-23.26,.46-5.02,1.92-11.95,6.68-17.18,8.11-8.91,24.37-5.68,27.45-5.74l-6.51-5.91-14.94-.99-8.85,4.05-6.18,8.36-2.26,6.81-1.47,14.27,1.11,15.24,2.3,10.23,4.03,11.61,4.45,13.68,1.45-.25Z"/><path class="ae" d="M548.01,645.48c.54-4.7,.37-9.43-.9-13.86-1.28-4.45-3.1-8.92-4.79-13.33-1.26-3.37-3.01-6.61-4.07-10.09-1.82-5.84-2.44-12.02-2.79-18.07-.29-4.77-.75-9.6-.29-14.62,.21-2.48,.77-5.02,1.36-7.32,1.18-4.84,2.95-9.83,6.37-13.68,6.38-7.31,15.76-8.54,24.88-7.08,11.2,1.94,16.25,10.22,14.27,21.18-.13,.57-.45,2.14-.59,2.74-.69,3.63-2.69,7.37-4.62,10.29-2.55,3.99-4.29,8.16-5.78,12.65-.76,2.21-1.34,4.38-1.63,6.63-.32,2.29-.3,4.38,.05,6.7,.66,4.61,1.68,9.34,2.49,14.04l1.27,7.06c1.31,7.09,1.92,14.37,1.78,21.59l-.92,.04c-.48-4.74-1.15-9.45-2.02-14.13-1.36-6.95-3.18-13.98-4.58-20.98-.7-3.59-1.6-7.18-1.71-10.92-.07-6.35,2.13-12.21,4.48-18.01,1.72-4.38,5-8.34,6.61-12.59,3.47-10.44,2.64-20.27-9.78-22.49-10.6-1.65-20.26,.76-24.83,11.36-1.71,4.11-2.91,8.87-3.45,13.29-.47,4.52-.1,9.27,.14,14.04,.36,7.1,.95,13.99,3.6,20.54,1.9,4.37,3.58,8.99,5.03,13.55,.75,2.29,1.42,4.63,1.92,7.05,1.02,4.88,.73,9.94-.54,14.62l-.97-.19h0Z"/><path class="ae" d="M559.68,629.36c-7.02-18.34-9.52-38.51-7.07-58.18,.4-3.5,3.58-6.02,7.08-5.59,3.48,.43,5.96,3.6,5.53,7.08-2.5,9.06-4.34,18.37-4.65,27.97-.38,9.21,.39,18.57,2.25,27.81,.37,1.95-2.41,2.79-3.15,.91h0Z"/></g><path class="n" d="M563.34,841.99c-3.95-18.36-18.27-36.48-20.89-39.09-35.16-34.93-33.95-96.52-33.78-105.52,.54-27.5,9.02-39.07,12.84-43.55,18.07-21.06,44.76-19.79,57.51-14.24,9.01,3.46,17.19,9.56,29.87,26.8,18.63,25.33,32.31,43.92,35.17,72.58,2.62,26.2-5.25,46.25-10.33,59.18-13.18,33.57-39.01,59.19-52.32,70.19"/><path class="n" d="M563.35,841.99c-3.95-18.36-18.27-36.48-20.89-39.09-35.16-34.93-33.95-96.52-33.78-105.52,.54-27.5,9.02-39.07,12.84-43.55,18.07-21.06,44.76-19.79,57.51-14.24,9.01,3.46,17.19,9.56,29.87,26.8,18.63,25.33,32.31,43.92,35.17,72.58,2.62,26.2-5.25,46.25-10.33,59.18-13.18,33.57-39.01,59.19-52.32,70.19"/><path class="ad" d="M539.35,645.09s-22.5,12.76-22.5,69.85c.58,21.59,1.3,45.56,19.56,80.16,0,0-17.52-21.76-21.46-45.85-3.94-24.09-5.56-29.97-5.56-29.97v-30.33l4.69-19.86,6.42-13.28,10.51-10.51,8.34-.2Z"/><path class="ae" d="M581.41,870.48c-.62,0-1.23-.27-1.65-.78-.75-.91-.63-2.26,.29-3.02,8.5-7.02,37.33-32.76,51.69-69.32,5.08-12.94,12.76-32.49,10.19-58.18-2.81-28.07-16.21-46.3-34.76-71.52-12.77-17.37-20.53-22.85-28.91-26.07l-.09-.04c-12.18-5.31-37.9-6.29-55.02,13.67-7.81,9.14-11.96,23.33-12.32,42.19-.41,20.95,1.99,73.01,33.14,103.96,2.14,2.13,17.29,20.68,21.48,40.16,.25,1.16-.49,2.3-1.65,2.55-1.15,.25-2.3-.49-2.55-1.65-3.91-18.18-18.38-36.11-20.31-38.02-32.32-32.12-34.83-85.58-34.41-107.08,.39-19.88,4.88-34.98,13.36-44.9,18.74-21.84,46.1-20.84,59.95-14.83,8.84,3.4,17.46,9.4,30.78,27.51,18.96,25.78,32.65,44.4,35.58,73.64,2.67,26.72-5.23,46.85-10.47,60.18-14.73,37.51-44.25,63.87-52.95,71.05-.4,.33-.88,.49-1.37,.49Z"/><path class="n" d="M584.84,672.49c7.02,25.85,22.69,39.65,35.98,41,9.33,.95,17.73,2.67,17.73,2.67,7.14,.06,8.72-1.16,12.84-.53,10.14,1.56,16.54,11.4,18.8,14.89,11.64,17.91,4.64,38.54,4.29,39.52-5.26,14.72-17.24,22.96-37.72,26.46-23.74,28.59-68.62-11.73-75.89-29.17-4.29-10.29-1.14-18.97,.52-22.24,23.51-1.66,34.57-38.33,23.44-72.61Z"/><path class="af" d="M583.55,797.05s18.93-20.84,50.66-.43l-3.45,3.73c-16.21-8.81-31.94-9.85-47.21-3.3Z"/><path class="ad" d="M566.53,638.62c14.82,11.15,56.05,63.09,81.47,83.46,20.12,13.94,27.33,33.81,17.93,60.9,0,0,19.49-7.88,5.59-50.92,0,0-14.93-6.24-34.06-13.73-1.39-13.57-10.92-29.36-26.14-46.72-3.87-3.55-22.44-33.4-44.79-32.99Z"/><g id="c"><g><path class="n" d="M590.65,675.12c2.18-4.89,8.09-10.19,16.8-7.05,3.23,1.35,4.88,3.7,7.15,6.94,.72,1.02,3.1,4.55,4.68,10.04,1.37,4.76,2.45,8.49,1.02,12.8-.34,1.04-1.86,5.41-6.11,7.69-12.29,7.31-29.11-17.27-23.54-30.41Z"/><path class="ae" d="M609.41,708.81c-3.49,0-7.19-1.57-10.72-4.65-7.92-6.92-13.77-20.54-9.84-29.8v-.03c2.79-6.24,10-11.43,19.26-8.1l.09,.04c3.75,1.57,5.62,4.24,7.99,7.62,1.2,1.71,3.45,5.37,4.96,10.62,1.4,4.87,2.61,9.07,1,13.96-.75,2.27-2.66,6.43-7.01,8.77-1.79,1.06-3.73,1.58-5.73,1.58Zm-16.97-32.91c-3.2,7.59,2.08,19.43,8.82,25.31,2.48,2.16,7.32,5.38,11.92,2.64l.08-.04c3.18-1.7,4.61-4.85,5.18-6.58,1.24-3.74,.28-7.06-1.04-11.65-1.35-4.7-3.34-7.94-4.41-9.46-2.15-3.07-3.58-5.1-6.26-6.24-7.9-2.82-12.7,2.44-14.3,6.01Z"/></g><path d="M592.08,680.32c.74-1.64,2.43-4.21,5.45-5.63,.4-.19,4.4-1.99,8.7-.22,2.72,1.12,4.1,3.06,6.01,5.74,.6,.84,2.61,3.76,3.94,8.3,1.15,3.94,2.05,7.02,.84,10.59-.29,.86-1.57,4.48-5.16,6.37,0,0-2.18,1.15-4.58,1.13-8.34-.05-19.58-16.59-15.22-26.27Z"/><path class="n" d="M603.87,680.03c-.82,1.35-.75,2.78-.55,4.35,1.05,8.46,4.73,13.57,6.4,13.96,4.79,1.11,5.73-3.46,5.59-7.41,0-1.18-.1-6.74-4.06-10.97-2.72-3.33-5.65-2.55-7.37,.07Z"/><path class="ae" d="M607.95,708.21c-.22,.01-.44,.02-.66,.02-5.29-.03-10.42-5.11-13.46-9.84-3.32-5.17-5.91-12.8-3.23-18.73h0c.6-1.34,2.41-4.64,6.25-6.44,.83-.39,5.21-2.23,10.02-.25,3.15,1.3,4.72,3.5,6.72,6.29,1.02,1.43,2.91,4.46,4.18,8.79,1.18,4.03,2.2,7.51,.82,11.57-.64,1.89-2.26,5.34-5.94,7.29-.1,.05-2.19,1.14-4.69,1.3Zm-14.38-27.22c-2.14,4.74,.15,11.19,3.01,15.63,3.19,4.97,7.5,8.32,10.74,8.34,1.93,.01,3.79-.93,3.81-.94,2.68-1.41,3.89-4.02,4.37-5.45,1.04-3.09,.24-5.82-.86-9.61-1.13-3.87-2.8-6.56-3.7-7.81-1.82-2.55-3.03-4.24-5.31-5.17-3.62-1.49-7.02,.01-7.39,.19-2.85,1.34-4.21,3.82-4.66,4.83h0Z"/></g><path class="ae" d="M590.52,677.7c1.25,5.98,22.72,.13,21.5-6.76l-4.95-3.93-6.05-.64-8.18,4.54-2.32,6.79Z"/><path class="af" d="M580.73,794.73s23.65-32.34,78.19-9.13c0,0,10.29-10-2.19-44.9-6.13-10.37,5,29.29,2.41,38.77-44.42-16.08-72.06-4.05-78.41,15.26Z"/><path id="d" class="af" d="M583.58,672.06s9.53,39.77,42.38,46.27v7.48c-27.49-4.39-46.33-29.09-42.38-53.75Z"/><path class="ae" d="M630.42,804.01l-1.31-.64c-19.18-9.4-29.96-12.54-45.93-.71-.95,.7-2.3,.5-3-.45-.7-.95-.5-2.29,.45-3,18.01-13.33,31.29-8.96,49.09-.32,5.67-4.7,12.26-6.82,18.64-8.87,8.59-2.76,16.7-5.36,21.35-14.21,5.51-10.49,7-20.8,4.42-30.66-.06-.23-.13-.51-.21-.82-.97-3.9-3.25-13.03-10.79-20.06-1.96-1.83-6.05-5.64-12.05-6.53-1.58-.24-5.24-.04-9.12,.17-7.65,.42-17.18,.95-23.32-.82-14.1-3.87-31.08-17.76-36.38-45.09-.23-1.16,.53-2.29,1.7-2.51,1.16-.22,2.29,.53,2.51,1.7,4.93,25.41,20.45,38.24,33.34,41.78,5.47,1.58,14.98,1.05,21.93,.67,4.46-.25,7.98-.44,9.99-.13,7.31,1.08,12.24,5.67,14.34,7.63,8.47,7.9,11.06,18.26,12.03,22.16,.07,.29,.14,.55,.19,.77,2.86,10.92,1.25,22.27-4.78,33.74-5.46,10.39-14.8,13.39-23.83,16.29-6.37,2.04-12.95,4.16-18.17,8.92l-1.08,.98Z"/><path class="ae" d="M581.35,800.08c-.31,0-.62-.07-.92-.21-1.07-.51-1.52-1.79-1.01-2.86,5.24-10.98,15.52-18.25,29.73-21.03,19.21-3.76,40.17,1.77,49.86,9.31,2.74-2.96,4.03-9.61,3.4-17.99-1.25-16.67-9.73-36.67-23.49-42.67l-.25-.13c-4.64-2.81-10.05-4.77-16.07-5.83l-.3-.07-1.13-.36c-9.57-3.08-25.58-8.24-38.36-45.05-.39-1.12,.2-2.34,1.32-2.73,1.12-.39,2.34,.2,2.73,1.32,12.07,34.79,26.24,39.35,35.62,42.37l1,.32c6.43,1.15,12.24,3.26,17.28,6.28,15.25,6.74,24.58,28.32,25.93,46.22,.86,11.41-1.53,19.76-6.56,22.91l-2.58-.23c-8.19-7.47-29.27-13.06-47.58-9.47-8.94,1.75-20.82,6.41-26.68,18.67-.37,.77-1.14,1.22-1.94,1.22Z"/><path class="af" d="M615.31,723.62s-3.48,5.15-2.93,17.74c.55,12.59,10.66,10.86,10.66,10.86,0,0,14.5-2.16,24.61,2.5,10.11,4.67,10.93-5.29,10.93-5.29"/><path d="M614.87,721.93c4.35-13.26,15.7-19.65,16.48-20.08,11.28-6.13,22.03-3.77,25.71-2.96,4,.88,8.91,2.03,13.13,6.33,1.37,1.39,4.9,5.4,5.71,11.49,.62,4.67-.69,8.09-2.41,12.59-2.33,6.09-5.26,9.53-10.41,15.59-3.65,4.3-5.86,6.07-8.53,6.11-1.8,.03-3.05-.74-4.18-1.34-9.02-4.75-21.97-4.44-25.74-4.35-2.41,.06-4.46,.27-6.5-1.05-.53-.34-2.87-1.94-4.13-7.34-1.49-6.37-.08-12.04,.88-14.98Z"/><path class="s" d="M525.97,682.29c8.8-16.51,30.37-23.95,43.48-13.32,3.18,2.43,5.09,5.51,8.79,11.58,3.02,4.97,5.43,8.96,7.68,14.87,1.85,4.87,2.93,7.78,2.96,11.95-.15,8.04-1.82,14.65-14.07,20.21-11.58,5.7-24.17,7.2-34.11,3-9.14-3.86-16.06-12.53-17.91-27.18-.47-3.65-1.46-12.25,3.18-21.13Z"/><g><path class="n" d="M553.41,718.9c-13.1-3.25-21.3-26.81-8.24-39.64,8.02-7.42,17.47-5.08,23.65,2.66,4.95,5.69,5.58,12.17,5.99,16.41,.55,5.65,1.04,10.82-2.33,14.96-3.42,4.2-9.04,5.15-11.5,5.56-1.65,.28-4.52,.77-7.57,.05Z"/><path class="ae" d="M556.8,721.42c-1.21,0-2.52-.11-3.88-.43h-.02c-6.93-1.73-12.97-8.56-15.39-17.41-2.67-9.77-.37-19.43,6.16-25.84,3.98-3.69,8.53-5.42,13.17-5.08,5.02,.38,9.86,3.18,13.64,7.89,5.38,6.2,6.07,13.32,6.48,17.57,.56,5.75,1.13,11.7-2.81,16.53-3.93,4.82-10.15,5.87-12.8,6.32-1.05,.18-2.66,.45-4.54,.45Zm-2.89-4.6c2.63,.62,5.18,.18,6.71-.08,2.36-.4,7.28-1.23,10.19-4.81,2.82-3.46,2.38-8.07,1.86-13.4-.39-3.99-.97-10.03-5.47-15.2l-.06-.07c-3.03-3.79-6.81-6.04-10.64-6.32-3.42-.26-6.85,1.09-9.89,3.9-5.36,5.26-7.24,13.36-4.98,21.6,2.01,7.38,6.83,13.01,12.28,14.37Z"/></g><path d="M552.58,718.04c-10.19-2.53-16.58-20.86-6.42-30.84,.89-.8,3.93-3.54,8.31-3.52,5.25,.02,8.7,3.98,10.09,5.59,3.86,4.43,4.34,9.47,4.66,12.77,.42,4.4,.81,8.42-1.82,11.64-2.66,3.27-7.03,4.01-8.95,4.33-1.28,.22-3.51,.6-5.89,.04Z"/><path class="n" d="M558.23,688.1c-1.04,1.19-1.22,2.61-1.3,4.18-.43,8.52,2.3,14.18,3.87,14.86,4.52,1.92,6.24-2.42,6.79-6.33,.21-1.16,1.07-6.65-2.09-11.5-2.1-3.75-5.13-3.49-7.27-1.21Z"/><path class="ae" d="M556.24,719.97c-1.19,.08-2.59,.04-4.05-.3h-.02c-5.39-1.34-10.1-6.66-11.98-13.55-2.08-7.6-.28-15.12,4.8-20.11,2.98-2.68,6.16-4.01,9.49-4,6,.02,9.88,4.48,11.34,6.16,4.21,4.84,4.74,10.39,5.06,13.71,.43,4.47,.88,9.1-2.18,12.86-3.06,3.75-7.9,4.57-9.96,4.92-.62,.1-1.49,.25-2.5,.32Zm-3.27-3.55c2.04,.48,4.03,.14,5.22-.06,1.84-.31,5.66-.96,7.93-3.74,2.2-2.69,1.85-6.28,1.45-10.43-.3-3.11-.75-7.81-4.26-11.83-1.3-1.5-4.35-5-8.84-5.01-2.48-.01-4.9,1.03-7.19,3.09-4.15,4.08-5.62,10.38-3.86,16.8,1.57,5.74,5.32,10.13,9.55,11.18Z"/><path class="ae" d="M541.07,683.64c11.49,5.74,21.2,4.82,29.07-2.96l-4.51-6.27-5.11-1.56-6.62,.19-6.98,1.71-4.36,1.83c-2.32,2.11-2.65,4.49-1.49,7.07Z"/><path class="s" d="M573.37,676.23s-16.32,10.69-36.18,5.66l2.85-7.24,14.68-6.04,18.64,7.62Z"/><path d="M567.82,669.01c-5.6,10.48-21.45,14.51-28.65,5.15-.27-.38-.06-1.01,.37-1.09,9.84-.46,18.09-2.02,27.83-5.08,.42-.13,.67,.59,.45,1.02Z"/><path d="M613.62,661.55c-2.49,10.69-21.06,16.15-28.36,7.2-.24-.29-.08-.81,.34-.84,5.3-.43,22.98-4.24,27.25-6.89,.41-.14,.84,.15,.76,.53h0Z"/><path class="ae" d="M610.84,828.75c-.9,0-1.74-.57-2.03-1.47-.13-.37-3-7.98-17.01-5.01-1.16,.25-2.3-.49-2.54-1.65-.25-1.16,.49-2.3,1.65-2.54,18.01-3.82,21.83,7.4,21.98,7.88,.36,1.13-.26,2.34-1.39,2.7-.22,.07-.44,.1-.66,.1Z"/><path class="ae" d="M582.75,814.05c-.08,0-.15,0-.23-.01-1.18-.13-2.03-1.18-1.9-2.36,1.5-13.92-8.39-19.99-8.81-20.24-1.01-.6-1.35-1.92-.75-2.93,.6-1.02,1.91-1.36,2.93-.76,.52,.3,12.71,7.64,10.9,24.4-.12,1.1-1.05,1.91-2.13,1.91Z"/><path class="af" d="M585.7,828.47s19.96-3.96,21.65,6.28c-4.37-3.75-12.12-5.53-21.65-6.28Z"/><g><path class="n" d="M635.6,713.73h26.28c2.9,0,2.56-3.5,0-5.37,0,0-3.29-3.18-12.19-3.39-8.99,0-12.64,2.05-14.09,3.1-2.66,1.98-3.34,5.66,0,5.66Z"/><path class="n" d="M647.92,717.89h-7.88c-.86,0-.65,1.04,0,1.61,0,0,.99,1.02,3.66,1.02s4.23-.93,4.23-.93c.75-.56,1-1.7,0-1.7Z"/></g><g><g id="e"><path class="n" d="M534.85,648c.12-1.05-.35-2.7-1.47-6.11-1.48-4.48-3.52-7.83-8.37-14.48-7.69-10.53-8.02-9.59-11.13-14.63-3.54-5.73-5.27-10.47-7.35-16.17-3.22-8.82-4.99-13.67-5.35-20.52-.33-6.27-.76-14.55,4.8-21.49,4.91-6.14,11.78-7.81,14.17-8.39,14.2-3.91,23.64,1.9,24.24,17.57,.69,8.83-2.82,10.95-3.45,23.8-.21,4.2-.37,7.53,.55,11.95,.8,3.85,1.91,6.08,7.58,16.79,6,11.33,6.8,12.71,8.38,16.03,1.05,2.23,3.2,7.17,3.94,9.13"/><path class="ad" d="M535.34,648.29c1.18-.32,4.58-6.29-9.7-27.63-8.92-11.09-12.9-23.94-14.44-29.38-3-9.47-5.54-19.7-1.02-29.92,5.88-12.22,24.15-13.77,24.15-13.77l-5.26-2.13-15.78,4.47-6.88,5.53-4.02,10.07,.48,14.99,2.1,8.73,4.81,12.77,4.71,10.18,4.37,6.04,5.07,5.79,2.9,5.22,3.34,5.42,2.82,5.44,2.35,8.19Z"/><path class="ae" d="M534.17,647.92c0-1.06-.49-2.26-.83-3.32-1.15-3.48-2.67-6.74-4.77-9.77-4.19-6.07-8.88-11.86-13.7-17.5-4.77-6.06-7.75-13.35-10.3-20.41-1.7-4.67-3.58-9.35-4.65-14.48-1.71-10.16-2.17-22.11,5.23-30.28,6.33-7.32,20.47-11.55,29.88-8.3,9.9,3.45,12.31,15.16,11.66,24.45-.35,3.81-1.8,7.61-2.5,11.16-1.21,6.85-1.94,14.37-.21,21.18,1.32,4.42,3.96,8.87,6.02,13.13,1.67,3.31,4.98,10.06,6.57,13.41,2.18,4.52,3.76,9.34,5.35,14.09,.1,.3-.06,.63-.37,.73-.27,.09-.56-.03-.69-.27-2.42-4.36-4.43-8.86-7.01-13.12-1.89-3.22-5.6-9.7-7.41-12.96-2.37-4.52-5.14-8.88-6.63-13.84-2-7.54-1.34-15.62-.06-23.24,.88-4.6,2.58-8.6,2.39-13.2-.13-6.58-1.73-14.75-8.71-17.15-4.26-1.51-8.87-.8-13.32,.35-4.51,1.07-8.66,3.24-11.68,6.54-4.87,5.2-5.65,12.52-5.25,19.42,.04,7.39,2.51,14.03,5.04,21.05,2.43,6.96,5.09,13.72,9.43,19.56,3.07,3.77,6.23,7.9,9,11.97,3.66,5.14,7,10.72,8.35,16.97,.31,1.32,.69,2.53,.53,3.98-.05,.38-.4,.64-.77,.59-.37-.05-.62-.38-.59-.74h0Z"/></g><path class="ae" d="M537.68,627.55c-12.19-17.27-20.17-37.65-22.84-58.83-.52-3.76,2.14-7.23,5.91-7.71,3.75-.48,7.17,2.17,7.65,5.91-.2,10.12,.35,20.32,2.58,30.42,2.05,9.72,5.34,19.27,9.74,28.41,.91,1.94-1.77,3.55-3.05,1.79h0Z"/></g></g><g><path id="f" class="n" d="M281.71,131.25c-.85-.86-14.06-15.36-16.21-16.81,0,0,34.33-16.68,67.18-9.68,0,0-18.22-44.04-82.53-23,0,0-28.36-10.96-36.74-48.2,0,0-7.61,17.28-5.88,27.36,0,0-17.17,14.18-1.26,43.65,0,0-8.1-8.17-9.25-10.38l-4.16-8s-2.93,2.23-4.7,1.74c-1.77-.48-4.04,2.57-4.04,2.57,0,0-.61,2.42-2.68,3.38-2.07,.96-1.53,3.13-1.53,3.13,0,0-.23,3.16-1.86,2.49-1.63-.67,6.93,9.95,22.78,9.43l5.89,.09s10.78,26.24,43.87,29.89c0,0,10.28,3.59,15.22,8.39,0,0,7.59,27.08,22.52,30.18l16.97,30.79s12.42-10.66,.99-39.07c0,0,9.13-7.38,2.82-19.52-6.31-12.14-20.1-13.39-20.1-13.39,0,0-4.06-1.73-7.29-5.03Z"/><path class="p" d="M218.41,91.36s67.75-18.37,104.26,3.31c0,0-16.22-19.43-40.03-16.76-12.35,.93-23.76,2.08-32.5,3.85-7.22-.33-19.19,4.8-31.73,9.6Z"/><path d="M218.41,91.36c-10.32-18.99-8.98-58.72-5.01-57.8,8.37,37.24,36.74,48.2,36.74,48.2l-31.73,9.6Z"/><path class="k" d="M206.26,104.57s-8.1-8.17-9.25-10.38l-4.16-8s-2.93,2.23-4.7,1.74c-1.77-.48-4.04,2.57-4.04,2.57,0,0-.61,2.42-2.68,3.38-2.07,.96-1.53,3.13-1.53,3.13,0,0-.23,3.16-1.86,2.49-1.63-.67,6.93,9.95,22.78,9.43l5.89,.09"/><path class="aa" d="M306.27,169.19s9.13-7.38,2.82-19.52c-6.31-12.14-20.1-13.39-20.1-13.39,0,0-4.06-1.73-7.29-5.03l-15.91,16.04s7.59,27.08,22.52,30.18l17.95-8.28s9.13-7.38,2.82-19.52c-6.31-12.14-20.1-13.39-20.1-13.39"/><path class="k" d="M288.32,177.47l16.97,30.79s12.42-10.66,.99-39.07"/><path d="M265.49,114.44s34.33-16.68,67.18-9.68c0,0-18.07-44.05-82.53-23,13.66-1.88,57.04-9.01,70.42,14.1-24.07-2.87-40.52,6.34-55.07,18.58Z"/><path d="M261.44,144.02c-.86-.53-1.75-1.03-2.63-1.49-4.22-2.22-8.23-3.63-8.23-3.63,5.49-11.53,8.63-15.26,14.92-24.46,1.03,.69,4.58,4.36,8.1,8.09"/><path class="n" d="M291.23,147.74c-5.92,3.08-8.62,9.62-6.03,14.61,6.78,11.7,27.13,1.11,21.46-11.15-2.59-4.99-9.5-6.54-15.43-3.46Z"/><ellipse cx="302.18" cy="158.38" rx="3.92" ry="2.74" transform="translate(-38.99 157.21) rotate(-27.46)"/><path class="l" d="M193.61,94.85c-.12-.11-4.93-6.85-4.93-6.85l-2.08,.23,7.01,6.63Z"/><path class="l" d="M191.26,97.18l-7.49-5.79s-.4,.97-1.02,1.52c-.62,.55,8.51,4.27,8.51,4.27Z"/><path class="l" d="M180.16,95.67s.04,1.12-.17,1.39,10.46,5.02,10.46,5.02l-10.3-6.41Z"/><path class="m" d="M310.63,196.82c1.55-8.1-.53-18.12-4.36-27.63l-2.45,1.13c3.59,6.9,6.5,14.99,6.81,26.5Z"/><path class="l" d="M296.98,173.48l-8.66,3.99,16.87,30.61c-.84-13.27-6.73-30.46-8.21-34.6Z"/><path class="a`" d="M235.36,135.24c-11.87-10.55-33.06-32.12-30.76-49.83,6.32-25.81,4.63-27.79,3-32.2-.37,2.75-.46,5.41-.07,7.71,0,0-17.17,14.18-1.26,43.65l.44,4.44s7.37,17.95,28.65,26.23Z"/><path class="v" d="M280.2,132.78l7.8,6.04s16.89,1.56,23.31,19.73c.09-2.56-.47-5.54-2.21-8.88-6.31-12.14-20.1-13.39-20.1-13.39,0,0-4.06-1.73-7.29-5.03l-1.51,1.52Z"/><path class="q" d="M268.41,144.66l-2.61,2.64s7.59,27.08,22.52,30.18l.46-.21c-13.53-9.49-19.92-31.01-20.37-32.6Z"/><path class="l" d="M206.7,109.01l-.14-1.12c-14.36,.15-22.93-6.82-26.71-10.75-.07,.64-.4,2.84-1.83,2.33-1.59-.57,7.42,10.12,22.84,9.44l5.83,.09Z"/></g><g><path id="g" class="n" d="M214.15,443.53c-1.16-.35-19.71-6.7-22.3-6.94,0,0,22.08-31.13,54.24-40.79,0,0-37.16-29.85-83.42,19.53,0,0-30.14,4.03-55.39-24.59,0,0,1.64,18.81,8.01,26.81,0,0-8.23,20.69,19.89,38.88,0,0-11.04-3.27-13.1-4.65l-7.5-5.02s-1.5,3.36-3.28,3.79-2.31,4.19-2.31,4.19c0,0,.63,2.42-.73,4.25s.17,3.48,.17,3.48c0,0,1.32,2.88-.44,3.08s10.86,5.4,24.5-2.69l5.21-2.75s22.07,17.82,52.84,5.11c0,0,10.74-1.79,17.38,.03,0,0,19.68,20.09,34.26,15.63l29.68,18.83s5.76-15.32-17.93-34.73c0,0,4.46-10.86-6.91-18.47s-24.06-2.07-24.06-2.07c0,0-4.39,.43-8.81-.91Z"/><path class="p" d="M139.47,439s50.56-48.69,93-47.24c0,0-23.57-9.23-43.15,4.56-10.38,6.76-19.83,13.25-26.64,19-6.49,3.18-14.51,13.44-23.2,23.68Z"/><path d="M139.47,439c-18.18-11.69-36.11-47.16-32.19-48.27,25.25,28.62,55.39,24.59,55.39,24.59l-23.2,23.68Z"/><path class="k" d="M135.17,456.42s-11.04-3.27-13.1-4.65l-7.5-5.02s-1.5,3.36-3.28,3.79-2.31,4.19-2.31,4.19c0,0,.63,2.42-.73,4.25s.17,3.48,.17,3.48c0,0,1.32,2.88-.44,3.08s10.86,5.4,24.5-2.69l5.21-2.75"/><path class="aa" d="M253.94,464.98s4.46-10.86-6.91-18.47-24.06-2.07-24.06-2.07c0,0-4.39,.43-8.81-.91l-6.23,21.71s19.68,20.09,34.26,15.63l11.76-15.89s4.46-10.86-6.91-18.47-24.06-2.07-24.06-2.07"/><path class="k" d="M242.18,480.87l29.68,18.83s5.76-15.32-17.93-34.73"/><path d="M191.85,436.59s22.08-31.13,54.24-40.79c0,0-37.03-29.93-83.42,19.53,11.07-8.22,45.68-35.33,68.53-21.51-22.48,9.06-32.48,25.05-39.35,42.78Z"/><path d="M202.52,464.47c-1.01-.05-2.03-.06-3.02-.04-4.77,.08-8.96,.78-8.96,.78-.73-12.75,.22-17.53,1.31-28.62,1.24,.11,6.11,1.62,10.99,3.2"/><path class="n" d="M230.43,453.41c-3.71,5.55-2.93,12.58,1.74,15.71,11.57,7,24.33-12.08,13.45-20.1-4.68-3.13-11.48-1.17-15.19,4.38Z"/><ellipse cx="245.14" cy="457.47" rx="3.92" ry="2.74" transform="translate(-271.39 406.8) rotate(-56.21)"/><path class="l" d="M119.41,453.98c-.16-.04-7.62-3.64-7.62-3.64l-1.72,1.2,9.33,2.44Z"/><path class="l" d="M118.47,457.15l-9.35-1.47s.12,1.04-.16,1.82,9.51-.35,9.51-.35Z"/><path class="l" d="M108.01,461.17s.57,.96,.52,1.3,11.59-.63,11.59-.63l-12.11-.67Z"/><path class="m" d="M271.05,487.11c-2.54-7.85-9.18-15.63-17.11-22.13l-1.6,2.17c6.47,4.33,12.9,10.02,18.71,19.96Z"/><path class="l" d="M247.85,473.21l-5.67,7.66,29.51,18.73c-7.12-11.23-20.55-23.46-23.84-26.39Z"/><path class="a`" d="M175.43,469.32c-15.48-3.54-44.44-12.26-50.94-28.89-6.87-25.67-9.31-26.59-12.86-29.67,1,2.59,2.2,4.97,3.64,6.79,0,0-8.23,20.69,19.89,38.88l2.52,3.68s15.1,12.19,37.74,9.21Z"/><path class="v" d="M213.56,445.59l9.74,1.54s15.56-6.75,29.93,6.09c-1.15-2.29-3.08-4.63-6.21-6.72-11.37-7.61-24.06-2.07-24.06-2.07,0,0-4.39,.43-8.81-.91l-.59,2.06Z"/><path class="q" d="M208.94,461.67l-1.02,3.57s19.68,20.09,34.26,15.63l.3-.41c-16.43-1.82-32.38-17.61-33.54-18.79Z"/><path class="l" d="M137.7,460.11l-.66-.92c-12.52,7.04-23.38,5.05-28.59,3.43,.25,.6,1.02,2.68-.48,2.92-1.67,.27,11.37,5.31,24.57-2.71l5.16-2.72Z"/></g><g><path id="h" class="n" d="M1665.61,145.34c1.13-.42,19.24-7.97,21.81-8.37,0,0-24.05-29.64-56.77-37.2,0,0,35.15-32.19,84.51,14.09,0,0,30.34,2.07,53.69-28.12,0,0-.42,18.87-6.25,27.27,0,0,9.55,20.11-17.33,40.08,0,0,10.8-3.97,12.78-5.49l7.16-5.49s1.72,3.26,3.52,3.57,2.57,4.04,2.57,4.04c0,0-.47,2.45,1,4.2,1.47,1.75,.06,3.48,.06,3.48,0,0-1.13,2.96,.63,3.04,1.76,.08-10.49,6.09-24.62-1.1l-5.38-2.41s-20.87,19.21-52.4,8.51c0,0-10.84-1.09-17.34,1.15,0,0-18.34,21.32-33.18,17.81l-28.4,20.71s-6.74-14.92,15.64-35.82c0,0-5.15-10.55,5.7-18.88,10.86-8.33,23.88-3.62,23.88-3.62,0,0,4.41,.14,8.73-1.47Z"/><path class="p" d="M1739.85,135.98s-53.6-45.32-95.86-41.12c0,0,22.92-10.74,43.36,1.76,10.8,6.07,20.64,11.94,27.82,17.24,6.68,2.75,15.35,12.47,24.69,22.13Z"/><path d="M1739.85,135.98c17.39-12.84,32.98-49.4,29-50.25-23.35,30.2-53.69,28.12-53.69,28.12l24.69,22.13Z"/><path class="k" d="M1745.26,153.09s10.8-3.97,12.78-5.49l7.16-5.49s1.72,3.26,3.52,3.57,2.57,4.04,2.57,4.04c0,0-.47,2.45,1,4.2,1.47,1.75,.06,3.48,.06,3.48,0,0-1.13,2.96,.63,3.04,1.76,.08-10.49,6.09-24.62-1.1l-5.38-2.41"/><path class="aa" d="M1627.3,169.31s-5.15-10.55,5.7-18.88c10.86-8.33,23.88-3.62,23.88-3.62,0,0,4.41,.14,8.73-1.47l7.62,21.26s-18.34,21.32-33.18,17.81l-12.76-15.1s-5.15-10.55,5.7-18.88c10.86-8.33,23.88-3.62,23.88-3.62"/><path class="k" d="M1640.06,184.41l-28.4,20.71s-6.74-14.92,15.64-35.82"/><path d="M1687.42,136.97s-24.05-29.64-56.77-37.2c0,0,35.01-32.26,84.51,14.09-11.58-7.49-47.87-32.31-69.77-17.03,23.02,7.58,34.03,22.89,42.03,40.14Z"/><path d="M1678.57,165.49c1-.11,2.02-.19,3.01-.24,4.76-.23,9,.2,9,.2-.09-12.77-1.36-17.48-3.16-28.48-1.23,.19-5.99,2.01-10.76,3.9"/><path class="n" d="M1650.01,156.25c4.06,5.3,3.74,12.37-.72,15.79-11.09,7.73-25.06-10.48-14.72-19.19,4.46-3.42,11.38-1.91,15.44,3.39Z"/><ellipse cx="1635.59" cy="161.25" rx="2.74" ry="3.92" transform="translate(239.77 1028.92) rotate(-37.5)"/><path class="l" d="M1760.84,149.63c.15-.05,7.37-4.12,7.37-4.12l1.79,1.09-9.16,3.04Z"/><path class="l" d="M1761.98,152.74l9.24-2.07s-.05,1.04,.28,1.8-9.52,.27-9.52,.27Z"/><path class="l" d="M1772.67,156.08s-.51,1-.44,1.33-11.61,.12-11.61,.12l12.04-1.45Z"/><path class="m" d="M1611.66,192.5c2.02-8,8.15-16.2,15.64-23.19l1.74,2.06c-6.17,4.74-12.23,10.83-17.38,21.13Z"/><path class="l" d="M1633.91,177.13l6.15,7.28-28.24,20.6c6.38-11.67,18.99-24.74,22.09-27.88Z"/><path class="a`" d="M1705.92,168.57c15.22-4.54,43.55-15.11,48.96-32.13,5.2-26.06,7.57-27.14,10.91-30.44-.83,2.65-1.87,5.1-3.2,7.01,0,0,9.55,20.11-17.33,40.08l-2.28,3.84s-14.28,13.14-37.06,11.63Z"/><path class="v" d="M1666.34,147.36l-9.62,2.17s-15.96-5.73-29.47,8.01c1-2.36,2.77-4.82,5.76-7.11,10.86-8.33,23.88-3.62,23.88-3.62,0,0,4.41,.14,8.73-1.47l.72,2.02Z"/><path class="q" d="M1671.99,163.11l1.25,3.49s-18.34,21.32-33.18,17.81l-.33-.39c16.27-2.88,31.17-19.67,32.26-20.92Z"/><path class="l" d="M1742.98,156.93l.6-.96c12.95,6.22,23.66,3.53,28.75,1.57-.21,.61-.84,2.74,.67,2.89,1.68,.16-11,6.03-24.69-1.12l-5.32-2.38Z"/></g><g><path class="y" d="M1379.44,277.23s-6.78,3.45-8.4,3.72l-5.87,1s.81,2.29,.15,3.31,.8,3.06,.8,3.06c0,0,1.4,.87,1.58,2.37s1.66,1.59,1.66,1.59c0,0,1.94,.78,1.19,1.67s7.66-2.35,10.53-12.42l1.25-3.69"/><path class="n" d="M1380.29,229.16l5.5,18.25s2.42,21.77,19.79,40.04c0,0-12.28-2.16-17.18-6.82-12.72,5-48.47-9.81-27.02-52.27,0,0,1.8-6.96,.98-11.44l15.45,.86c.16,.78,2.47,9.65,2.47,11.37"/><path d="M1405.58,287.45c-15.2-21.81-17.49-41.94-25.45-58.92l-12.07,.34c-8.86,27.39,21.94,53.68,37.52,58.58Z"/><g class="o"/><path class="k" d="M1362.65,214.07l-23.34,4.72s.07-11.09,19.75-17.63"/><path class="aa" d="M1379.63,213.4s-1.42,2.45-1.73,5.27l-15.36-.8s-7.57-15.42-.95-22.94c4.79-6.12,21.59-6.72,23,4.16,1.07,8.25-4.97,14.31-4.97,14.31"/><path d="M1362.56,220.52c-.03,.67-.08,1.34-.15,1.99-.33,3.13-1.03,5.85-1.03,5.85,8.34,1.22,11.55,.87,18.91,.79,0-.82-.71-4.11-1.47-7.42"/><path class="n" d="M1369.45,193.67c4.52-.08,8.24,2.95,8.31,6.76-.26,9.16-15.8,9.42-16.38,.28-.07-3.81,3.55-6.96,8.07-7.04Z"/><ellipse cx="1365.97" cy="199.34" rx="2.62" ry="1.8" transform="translate(1058.66 1545.15) rotate(-85.44)"/><path class="l" d="M1370.81,283.14c-.1,.05-5.33,1.64-5.33,1.64l-.3,1.35,5.63-2.99Z"/><path class="o" d="M1359.61,232.1c-16.58,37.37,12.78,51.75,26.51,49.17-32.86-3.14-28.76-37.83-26.51-49.17Z"/><path class="l" d="M1371.76,285.18l-5.15,3.54s.53,.44,.75,.95,4.4-4.49,4.4-4.49Z"/><path class="l" d="M1368.57,291.85s.71,.2,.84,.39,5.27-5.57,5.27-5.57l-6.11,5.18Z"/><path class="k" d="M1383.86,279.18s-6,4.66-7.54,5.24l-5.58,2.09s1.23,2.1,.77,3.22,1.36,2.85,1.36,2.85c0,0,1.54,.59,2,2.03,.46,1.43,1.93,1.25,1.93,1.25,0,0,2.05,.4,1.48,1.42s7.08-3.75,7.99-14.18l.53-3.85"/><path class="l" d="M1376.51,286.69c-.09,.07-4.93,2.61-4.93,2.61l-.04,1.38,4.96-3.99Z"/><path class="l" d="M1377.82,288.43l-4.39,4.45s.6,.34,.91,.79c.31,.45,3.48-5.24,3.48-5.24Z"/><path class="l" d="M1375.95,295.59s.74,.06,.9,.22,4.13-6.46,4.13-6.46l-5.02,6.24Z"/><path class="v" d="M1376.61,218.61l1.32-6.04s7.54-7.68,3.1-19.6c1.33,.95,2.83,2.57,3.36,4.99,1.95,8.83-4.77,15.45-4.77,15.45,0,0-1.48,2.23-1.73,5.27l-1.3-.07Z"/><path class="m" d="M1343.19,210.66c4.19-4.61,9.34-7.2,15.78-9.49l-.08,1.76c-4.47,1.14-9.85,3.15-15.69,7.73Z"/><path class="l" d="M1359.41,208.36c.37,1.93,.96,3.95,1.7,6.05l-21.81,4.39c7.09-5.19,17.37-9.43,20.1-10.43Z"/><path class="q" d="M1359.09,200.62c-1.22,7.73,3.46,17.25,3.46,17.25l2.97,.15c-4.81-2.55-6.09-12.11-6.43-17.41Z"/><path class="l" d="M1386.81,279.25h-.67c-1.12,9.41-6.33,14.5-9.23,16.65,.41,.1,1.86,.52,1.37,1.39-.57,1.02,7.08-3.75,7.99-14.18l.53-3.85Z"/><path class="y" d="M1379.08,276.4s-6.78,3.45-8.4,3.72l-5.87,1s.81,2.29,.15,3.31c-.66,1.02,.8,3.06,.8,3.06,0,0,1.4,.87,1.58,2.37s1.66,1.59,1.66,1.59c0,0,1.94,.78,1.19,1.67s7.66-2.35,10.53-12.42l1.25-3.69"/><path class="n" d="M1379.93,228.32l5.5,18.25s2.42,21.77,19.79,40.04c0,0-12.28-2.16-17.18-6.82-12.72,5-48.47-9.81-27.02-52.27,0,0,1.8-6.96,.98-11.44l15.45,.86c.16,.78,2.47,9.65,2.47,11.37"/><path d="M1405.22,286.62c-15.2-21.81-17.49-41.94-25.45-58.92l-12.07,.34c-8.86,27.39,21.94,53.68,37.52,58.58Z"/><g class="o"/><path class="k" d="M1362.29,213.24l-23.34,4.72s.07-11.09,19.75-17.63"/><path class="aa" d="M1379.27,212.57s-1.42,2.45-1.73,5.27l-15.36-.8s-7.57-15.42-.95-22.94c4.79-6.12,21.59-6.72,23,4.16,1.07,8.25-4.97,14.31-4.97,14.31"/><path d="M1362.2,219.69c-.03,.67-.08,1.34-.15,1.99-.33,3.13-1.03,5.85-1.03,5.85,8.34,1.22,11.55,.87,18.91,.79,0-.82-.71-4.11-1.47-7.42"/><path class="n" d="M1369.09,192.84c4.52-.08,8.24,2.95,8.31,6.76-.26,9.16-15.8,9.42-16.38,.28-.07-3.81,3.55-6.96,8.07-7.04Z"/><ellipse cx="1365.61" cy="198.51" rx="2.62" ry="1.8" transform="translate(1059.16 1544.02) rotate(-85.44)"/><path class="l" d="M1370.45,282.31c-.1,.05-5.33,1.64-5.33,1.64l-.3,1.35,5.63-2.99Z"/><path class="o" d="M1359.25,231.26c-16.58,37.37,12.78,51.75,26.51,49.17-32.86-3.14-28.76-37.83-26.51-49.17Z"/><path class="l" d="M1371.4,284.34l-5.15,3.54s.53,.44,.75,.95,4.4-4.49,4.4-4.49Z"/><path class="l" d="M1368.21,291.02s.71,.2,.84,.39,5.27-5.57,5.27-5.57l-6.11,5.18Z"/><path class="k" d="M1383.5,278.35s-6,4.66-7.54,5.24l-5.58,2.09s1.23,2.1,.77,3.22,1.36,2.85,1.36,2.85c0,0,1.54,.59,2,2.03s1.93,1.25,1.93,1.25c0,0,2.05,.4,1.48,1.42s7.08-3.75,7.99-14.18l.53-3.85"/><path class="l" d="M1376.15,285.86c-.09,.07-4.93,2.61-4.93,2.61l-.04,1.38,4.96-3.99Z"/><path class="l" d="M1377.46,287.6l-4.39,4.45s.6,.34,.91,.79,3.48-5.24,3.48-5.24Z"/><path class="l" d="M1375.59,294.76s.74,.06,.9,.22,4.13-6.46,4.13-6.46l-5.02,6.24Z"/><path class="v" d="M1376.25,217.77l1.32-6.04s7.54-7.68,3.1-19.6c1.33,.95,2.83,2.57,3.36,4.99,1.95,8.83-4.77,15.45-4.77,15.45,0,0-1.48,2.23-1.73,5.27l-1.3-.07Z"/><path class="m" d="M1342.83,209.82c4.19-4.61,9.34-7.2,15.78-9.49l-.08,1.76c-4.47,1.14-9.85,3.15-15.69,7.73Z"/><path class="l" d="M1359.05,207.53c.37,1.93,.96,3.95,1.7,6.05l-21.81,4.39c7.09-5.19,17.37-9.43,20.1-10.43Z"/><path class="q" d="M1358.73,199.79c-1.22,7.73,3.46,17.25,3.46,17.25l2.97,.15c-4.81-2.55-6.09-12.11-6.43-17.41Z"/><path class="l" d="M1386.45,278.41h-.67c-1.12,9.41-6.33,14.5-9.23,16.65,.41,.1,1.86,.52,1.37,1.39-.57,1.02,7.08-3.75,7.99-14.18l.53-3.85Z"/></g><g><path class="n" d="M81.78,848.88c9.14-8.97,20.13-17.39,32.81-25.28l-4.82-11.31-4.4-6.54-17.1,9.62c-9.14,6.19-17.57-6.19-8.01-12.76,32.17-29.29,87.98-51.13,161.85-67.29l40.02-5.84c15.28-1.65,17.28,16.88,2,18.53l-30.7,2.49s1.39,17.19,1.2,20.22h0l24.76-4.75c14.83-2.24,16.11,16.92,1.29,19.16l-29.75,3.65c-70.44,9.88-161.85,73.05-161.85,73.05-9.33,7.28-16.82-5.47-7.3-12.97Z"/><path class="ad" d="M172.8,816.29c-1.57-.65-2.69-1.61-3.23-2.88-2.31-5.47,6.98-14.61,20.76-20.43,13.77-5.82,26.81-6.1,29.12-.64,.72,1.71,.31,3.79-1.03,6.01-15.35,4.78-30.88,11.1-45.61,17.93Z"/><path class="r" d="M81.86,863.75c73.18-72.38,190.09-83.36,208.15-84.64-1.54,2.9-4.62,5.32-9.33,6.03l-29.75,3.65c-70.44,9.88-161.85,73.05-161.85,73.05-2.68,2.09-5.2,2.52-7.22,1.91Z"/><path class="r" d="M88.27,815.38c-3.19,2.16-6.29,2.06-8.57,.73,12.46-7.9,26.54-13.45,26.54-13.45l-4.78,5.31-13.18,7.42Z"/><path class="r" d="M284.13,748.01l-28.65,2.33-4.3-1.74c13.98-4.12,31.99-4.98,41.81-5.13-1.66,2.3-4.58,4.08-8.86,4.54Z"/><path class="ae" d="M292.39,778.96s.04-.09,.06-.14c1.49-3.8,.92-8.03-1.48-11.03-1.51-1.89-5.06-4.9-11.89-3.87l-22.38,4.29c-.15-4.34-.73-12-1.02-15.78l28.62-2.33c4.12-.44,7.45-2,9.68-4.52,2.06-2.33,3.02-5.27,2.69-8.29-.33-3.02-1.89-5.69-4.4-7.52-2.71-1.98-6.3-2.8-10.36-2.36l-40.24,5.88c-78.16,17.09-131.39,39.23-162.71,67.69-5.76,4.04-6.05,10.14-3.34,14.11,2.63,3.85,8.19,5.79,13.76,2.07l16.69-9.24,6.61,14.3c-12.24,7.74-23.54,16.56-32.27,25.1-5.94,4.75-6.27,11.68-3.14,15.68,2.59,3.3,7.62,4.75,13.05,.54,2.49-1.71,92.4-63.06,160.91-72.67l29.71-3.65c5.51-.83,9.66-3.83,11.45-8.25Zm-41.2-30.36l.17,2.08c.38,4.74,1.35,17.56,1.2,19.92l-.17,2.69,27.41-5.25c3.44-.52,6.29,.31,7.92,2.36,1.47,1.84,1.8,4.49,.85,6.9-1.18,3.07-4.19,5.18-8.19,5.78l-29.69,3.65c-70.15,9.84-161.87,72.77-162.79,73.41l-.1,.07c-2.84,2.22-5.62,2.3-7.25,.21-1.86-2.37-1.6-6.64,2.53-9.89l.17-.15c8.88-8.71,19.79-17.12,32.45-25l1.52-.95-9.99-22.27-20.13,11.49c-3.5,2.37-6.56,1.25-8.04-.92-1.56-2.29-1.43-5.77,2.38-8.4l.22-.18c30.32-27.6,84.42-50.07,160.82-66.78l39.95-5.83c6.37-.69,9.71,2.72,10.09,6.19,.2,1.83-.39,3.64-1.67,5.07-1.53,1.72-3.93,2.81-6.95,3.13l-32.72,2.66Z"/><g><path class="n" d="M112.53,820.84c-8.08,7.41-17.94-7.46-5.48-11.31"/><path class="ad" d="M107.43,810.17c-10.18,3.69-3.2,10.33-3.2,10.33-4.21-6.17,3.86-8.95,3.86-8.95l-.66-1.38Z"/><path class="ae" d="M103.81,809.6c.84-.51,1.79-.93,2.86-1.26,.66-.2,1.36,.16,1.56,.82,.2,.66-.17,1.36-.82,1.56-3.07,.95-4.85,2.71-5.03,4.96-.16,2.16,1.21,4.46,3.28,5.46,1.98,.96,4.12,.53,6.02-1.21,.51-.47,1.3-.43,1.76,.08s.43,1.3-.08,1.76c-2.67,2.45-5.87,3.04-8.79,1.62-2.99-1.46-4.92-4.7-4.67-7.9,.18-2.42,1.57-4.47,3.91-5.89Z"/></g><g><path class="n" d="M190.91,734.14c-.72-.98-1.82-2.33-3.39-3.69-2.07-1.79-4.08-2.86-8.48-4.73-6.96-2.96-6.85-2.4-9.9-3.98-3.47-1.8-5.74-3.65-8.47-5.87-4.23-3.44-6.55-5.33-8.77-8.64-2.03-3.03-4.7-7.03-4-12.14,.62-4.52,3.55-7.4,4.57-8.4,5.92-6.17,12.35-6.08,17.31,1.55,2.97,4.2,1.85,6.29,5.36,12.89,1.15,2.16,2.06,3.86,3.83,5.79,1.54,1.68,2.76,2.46,8.77,6.11,6.36,3.86,7.17,4.31,8.94,5.5,3.36,2.25,5.9,4.31,7.45,5.63"/><path class="af" d="M197.62,720.11c-6.59-3.64-11.3-6.11-14.9-7.9-.88-.44-2.39-1.18-4.09-2.59-3.11-2.57-4.68-5.54-5.6-7.32-.41-.79-.32-.7-3.23-8.41-1.17-3.1-1.78-4.67-2.94-5.97-.42-.47-2.33-2.6-5.1-3.24-3.76-.88-8.1,1.21-11.01,5.15l4.41-4.94,4.49-2.17,5.09,.14,4.08,4.01,2.63,4.49,1.78,5.22,1.73,4.22,4.75,7.06,17.75,11.57,.52,.48-.36,.22Z"/><path class="ad" d="M186.31,727.87c-.23-.2,.38-1.38-2.29-3.36-.76-.39-2.71-1.7-6.22-2.94-3.99-1.41-7.51-3.13-8.58-3.68-6.24-3.19-9.55-8.13-10.9-9.62-2.11-2.34-4.68-5.94-5.07-10.34-.66-7.5,7.7-13.6,8.98-15.05l-5.48,.49-6.78,6.45-1.89,5.78,1.23,6.38,2.18,3.92,5.94,6.72,7.47,5.94,5.68,3.27,7.04,3.06,8.17,3.75,.5-.77Z"/><path class="ae" d="M190.66,734.32c-1.93-2.24-4.18-4.16-6.75-5.45-2.59-1.3-5.41-2.35-8.16-3.44-2.08-.85-4.31-1.41-6.36-2.4-3.46-1.63-6.56-3.96-9.49-6.37-2.31-1.89-4.73-3.72-6.84-6.06-1.05-1.15-1.98-2.48-2.79-3.72-1.73-2.59-3.27-5.52-3.6-8.72-.66-6.03,2.74-10.86,7.28-14.43,5.63-4.33,11.58-3.14,15.77,2.41,.21,.3,.79,1.11,1.01,1.43,1.38,1.86,2.25,4.35,2.78,6.48,.75,2.86,1.94,5.42,3.37,8.01,.7,1.28,1.45,2.47,2.36,3.55,.92,1.11,1.89,1.99,3.1,2.81,2.4,1.65,5,3.18,7.51,4.8l3.78,2.41c3.81,2.4,7.42,5.2,10.68,8.32l-.37,.44c-2.38-1.78-4.83-3.47-7.35-5.05-3.77-2.32-7.77-4.46-11.58-6.78-1.95-1.2-3.98-2.31-5.74-3.84-2.95-2.66-4.72-6.15-6.38-9.68-1.28-2.64-1.72-5.83-2.99-8.37-3.33-6.01-8.2-9.8-14.48-5.03-5.24,4.18-8.23,9.64-5.29,16.22,1.17,2.53,2.85,5.09,4.65,7.21,1.88,2.13,4.22,3.97,6.52,5.88,3.42,2.84,6.83,5.49,10.97,7.04,2.81,.98,5.65,2.16,8.36,3.42,1.37,.63,2.73,1.31,4.05,2.1,2.67,1.6,4.88,3.87,6.49,6.44l-.5,.37h0Z"/><path class="ae" d="M188.2,722.14c-11.4-4.54-21.73-11.92-29.74-21.38-1.44-1.67-1.25-4.19,.43-5.62,1.67-1.42,4.17-1.22,5.59,.45,3.11,4.98,6.61,9.77,10.89,13.98,4.07,4.08,8.7,7.68,13.74,10.73,1.06,.66,.26,2.29-.91,1.84h0Z"/><path class="n" d="M218.2,710.51c16.24,.81,24.4,12.08,24.49,25.21-.68,12.98-5.47,23.54-14.38,31.66-12.95,13.56-51.98-.38-49.53-25.4,1.26-11.58,7.67-32.66,39.41-31.47Z"/><path class="ad" d="M237.82,721.33c-11.87-20.27-50.55-10.2-50.28,3.49,1.06-1.24,27.23-22.95,50.02-3.25"/><path class="af" d="M241.21,736.45s-7.95,26.56-25.3,31.33c-17.35,4.77-36.03-19.05-36.03-19.05,0,0,1.72,21.02,32.34,22.67,30.63,1.65,28.98-34.96,28.98-34.96Z"/><path class="ae" d="M196.7,770.25c-10.24-4.7-20.7-14.63-19.35-28.43,1.39-12.76,8.55-33.97,40.91-32.76h.02c15.61,.78,25.76,11.24,25.87,26.65v.09c-.7,13.3-5.69,24.28-14.82,32.62-.17,.17-.34,.34-.51,.51-6.77,6.39-19.82,6.97-32.11,1.33Zm30.64-3.94c8.56-7.81,13.24-18.11,13.91-30.62-.11-13.72-9.18-23.03-23.11-23.73-30-1.12-36.63,18.42-37.91,30.16-1.2,12.27,8.34,21.22,17.68,25.5,11.35,5.21,23.7,4.7,29.36-1.24l.03-.04,.04-.03Z"/><ellipse cx="221.21" cy="719.83" rx="2.54" ry="2.68" transform="translate(-433.89 348.43) rotate(-43.37)"/><ellipse cx="219.67" cy="731.12" rx="2.68" ry="1.86" transform="translate(-536.65 627.34) rotate(-65.46)"/><ellipse cx="205.47" cy="745.8" rx="3.05" ry="3.22" transform="translate(-552.6 591.65) rotate(-63.1)"/><path d="M222.66,736.31c.05-.05,.09-.11,.12-.17,.69-1.76,.31-3-.23-3.79,.32-.03,.63-.11,.92-.25,.87-.41,1.53-1.29,2.03-2.68,.09-.25-.04-.53-.29-.62-.25-.09-.53,.04-.62,.29-.4,1.14-.9,1.83-1.53,2.13-.49,.23-1.07,.23-1.77-.02l-.38,.89c.08,.04,2,1.07,.98,3.69-.1,.25,.03,.53,.27,.63,.18,.07,.38,.03,.51-.1Z"/><g id="i"><path class="n" d="M185.82,740.15c-.42-.49-1.36-.96-3.35-1.86-2.62-1.19-4.97-1.66-9.96-2.23-7.91-.9-7.62-.36-11.17-1.05-4.03-.78-6.88-1.96-10.29-3.38-5.29-2.2-8.2-3.41-11.42-6.08-2.95-2.45-6.84-5.68-7.66-11.03-.73-4.74,1.36-8.52,2.09-9.83,4.12-7.99,10.62-9.83,17.91-3.62,4.25,3.34,3.75,5.79,9.26,11.39,1.8,1.83,3.23,3.28,5.59,4.69,2.06,1.23,3.52,1.65,10.67,3.54,7.57,1.99,8.51,2.2,10.66,2.87,1.43,.45,4.54,1.53,5.73,2.01"/><path class="ad" d="M186.15,740.05s.06-4.19-16.41-7.07c-8.66-.58-16.08-4.1-19.16-5.66-5.49-2.57-11.13-5.66-13.85-11.91-3.05-7.69,3.8-16.53,3.8-16.53l-3.13,1.48-4.51,8.93-.36,5.38,2.86,5.97,6.92,5.98,4.79,2.67,7.72,3.12,6.52,2.1,4.52,.53,4.7,.12,3.54,.86,3.81,.74,3.61,.98,4.65,2.33Z"/><path class="ae" d="M185.51,740.42c-.48-.44-1.22-.71-1.83-1-2.04-.92-4.13-1.59-6.35-1.9-4.46-.62-9-.92-13.52-1.08-4.69-.37-9.2-2.04-13.42-3.81-2.8-1.16-5.68-2.26-8.42-3.9-5.27-3.43-10.82-8.16-11.43-14.86-.67-5.86,3.28-13.96,8.63-16.84,5.64-3.02,11.89,.74,15.8,4.87,1.56,1.73,2.67,3.95,3.98,5.73,2.58,3.37,5.65,6.81,9.42,8.85,2.53,1.23,5.62,1.89,8.38,2.72,2.18,.62,6.57,1.92,8.73,2.59,2.93,.89,5.75,2.17,8.53,3.42,.18,.08,.26,.29,.18,.47-.07,.16-.24,.24-.41,.2-2.96-.72-5.81-1.67-8.79-2.27-2.23-.48-6.67-1.49-8.88-2.03-3.01-.8-6.11-1.36-8.95-2.75-4.21-2.22-7.57-5.85-10.46-9.58-1.7-2.3-2.79-4.72-4.94-6.53-3.01-2.66-7.34-5.32-11.3-3.18-2.44,1.29-4.03,3.65-5.35,6.12-1.39,2.47-2.13,5.23-1.89,7.95,.32,4.34,3.28,7.71,6.54,10.38,3.34,3.04,7.33,4.67,11.53,6.44,4.13,1.78,8.26,3.38,12.68,3.85,2.96,.18,6.12,.47,9.09,.91,3.82,.48,7.7,1.29,11.07,3.26,.72,.41,1.42,.74,2.01,1.4,.15,.18,.12,.44-.06,.59-.17,.14-.43,.12-.58-.04h0Z"/></g><path class="ae" d="M177.81,730.43c-12.79-1.67-25.23-6.51-35.84-14.06-1.9-1.32-2.36-3.95-1.02-5.84,1.33-1.88,3.94-2.32,5.82-.99,4.46,4.27,9.27,8.24,14.72,11.41,5.21,3.1,10.86,5.57,16.78,7.37,1.25,.39,.86,2.26-.45,2.11h0Z"/><ellipse class="n" cx="221.58" cy="719.02" rx=".76" ry="1.16" transform="translate(-519.9 591.36) rotate(-63.1)"/><ellipse class="n" cx="206.01" cy="744.38" rx=".76" ry="1.16" transform="translate(-551.04 591.36) rotate(-63.1)"/></g></g><g><path class="n" d="M1515.66,912.99l65.79-26.36s12.06,4.6,20.13,13.38,7.76,19.1,7.76,22.78c0,3.68-.51,12.36-3.37,23.5-2.86,11.14-18.49,15.63-18.49,15.63,0,0-6.23,.61-15.53,1.43-9.3,.82-8.58-5.72-8.58-5.72,0,0-8.79,2.66-15.43,2.66-6.64,0-10.32-4.09-10.32-4.09,0,0,.2,1.63-9.71,.92s-3.78-11.65-3.78-11.65c-9.09-8.17-8.48-32.49-8.48-32.49"/><path class="af" d="M1517.41,915.77s2.04,21.47,8.78,27.55c.88,.68,.91,2.14,0,4.44,0,0-1.83,3.8-.92,5.06,.34,.58,1.13,1.65,1.8,1.65,0,0,8.74-.05,9.91-.62,0,0-.29,2.22-.37,2.24s-10.5-.27-10.5-.27c0,0-2.52-1.75-2.59-1.8s-.07-5.98-.07-5.98l.35-3.02-4.41-7.9-2.42-9.85-.19-11.83,.64,.34Z"/><path class="af" d="M1540.25,949.05l-.33,5.5c4,4.13,11.93,3.69,22.26,.48v1.6s-19.62,6.99-23.74-1.4l.43-6.71,1.38,.53Z"/><path class="af" d="M1575.9,927.94c-12.07,9.49-4.64,17.57,.05,21.41,1.32,1,1.42,2.88,0,4.29-.8,.85-7.68-.89-9.2,1.55-1.59,2.56,.67,4.54,.67,4.54,.83,1.03,23.04,3.7,37.46-14.26,0,0-3.18,15.16-23.83,16.36,0,0-19.92,3.99-16.66-5.05,3.26-9.04,8.71-4.98,8.71-4.98-8.38-10.85-8.52-19.17,2.79-23.84Z"/><path class="ae" d="M1572.11,965.15c9.2-.81,15.48-1.43,15.55-1.43,.11-.01,.22-.03,.32-.06,.68-.2,16.66-4.92,19.74-16.91,3.18-12.38,3.43-21.46,3.43-23.95v-.39c.01-3.99,.04-14.6-8.24-23.61-8.26-9-20.3-13.65-20.81-13.85-.42-.16-.89-.16-1.31,.01l-65.79,26.36c-.67,.27-1.11,.91-1.13,1.63-.02,.99-.49,23.55,8.09,32.89-.95,2.1-2.41,6.33-.68,9.54,1.14,2.12,3.33,3.31,6.52,3.54,5.58,.4,8.28,.11,9.7-.41,1.74,1.39,5.3,3.58,10.45,3.58,4.91,0,10.82-1.36,13.89-2.16,.26,.92,.75,1.96,1.67,2.89,1.56,1.6,3.88,2.4,6.92,2.4,.54,0,1.11-.03,1.7-.08Zm-9.26-9.24c-.09,.03-8.62,2.58-14.91,2.58-5.7,0-8.86-3.36-8.98-3.49-.53-.58-1.37-.76-2.09-.43-.29,.13-.53,.34-.71,.59-.55,.18-2.49,.58-8.11,.18-1.88-.14-3.09-.69-3.61-1.65-1.13-2.08,.58-6.09,1.27-7.32,.41-.73,.26-1.66-.37-2.22-7.28-6.54-7.86-25.07-7.89-29.93l63.99-25.64c2.55,1.07,12.16,5.43,18.81,12.66,7.32,7.97,7.3,17.22,7.29,21.17v.39c0,2.38-.24,11.08-3.32,23.05-2.43,9.45-15.57,13.83-17.1,14.3-1.08,.11-7.01,.68-15.33,1.41-2.68,.24-4.65-.19-5.7-1.23-1.05-1.04-.94-2.47-.94-2.5,.07-.6-.17-1.19-.64-1.58-.33-.27-.74-.42-1.15-.42-.17,0-.35,.03-.52,.08Zm-27.01,.52h0Zm0,0h0Zm0,0h0Zm0,0h0Zm0,0h0Zm0,0h0Z"/><path class="n" d="M1553.57,860.98c-.19-1.5-.34-3.66-.08-6.23,.34-3.39,1.25-6.07,3.63-11.52,3.77-8.63,4.15-8.02,5.55-12.06,1.6-4.59,2.07-8.21,2.64-12.55,.89-6.72,1.37-10.42,.55-15.3-.75-4.47-1.75-10.37-6.75-14.39-4.43-3.56-9.53-3.66-11.31-3.69-10.62-.53-16.36,5.05-14.33,16.19,.9,6.33,3.7,7.27,6.17,16.23,.81,2.93,1.44,5.25,1.49,8.51,.04,2.84-.39,4.58-2.71,13.02-2.45,8.93-2.8,10.02-3.39,12.61-1.11,4.9-1.65,8.94-1.93,11.45"/><path class="af" d="M1535.52,854.03c2.85-8.92,5-15.17,6.73-19.88,.42-1.15,1.15-3.11,1.49-5.84,.62-4.99-.5-9-1.19-11.4-.31-1.06-.31-.9-4.26-10.37-1.59-3.8-2.38-5.75-2.44-7.92-.02-.79-.11-4.33,1.84-7.29,2.65-4.01,8.35-5.82,14.35-4.75l-8.21-.69-5.91,1.88-4.48,4.48-.26,7.1,1.46,6.31,2.84,6.24,2.04,5.29,1.74,10.44-6.17,25.63-.06,.88,.51-.11Z"/><path class="ad" d="M1552.38,851.38c.04-.38-1.52-.92-.8-4.99,.35-1,1-3.86,3.12-7.97,2.41-4.68,4.11-9.24,4.61-10.66,2.91-8.22,1.69-15.51,1.63-18.01-.09-3.92-.85-9.37-4.25-13.68-5.81-7.35-18.59-5.72-20.97-5.94l5.37-4.23,11.64,.04,6.64,3.62,4.34,6.82,1.38,5.41,.37,11.15-1.68,11.75-2.34,7.81-3.76,8.78-4.19,10.37-1.11-.27Z"/><path class="ae" d="M1553.95,860.94c-.17-3.67,.22-7.33,1.45-10.7,1.23-3.39,2.88-6.75,4.44-10.08,1.16-2.55,2.69-4.96,3.7-7.61,1.73-4.43,2.54-9.19,3.14-13.86,.48-3.68,1.1-7.41,1.01-11.32-.03-1.94-.33-3.93-.66-5.75-.65-3.82-1.76-7.78-4.2-10.96-4.55-6.01-11.76-7.48-18.91-6.83-8.79,.9-13.16,7.05-12.21,15.65,.07,.45,.23,1.68,.31,2.16,.34,2.85,1.68,5.86,3.03,8.23,1.76,3.23,2.88,6.56,3.8,10.12,.47,1.76,.8,3.47,.9,5.23,.12,1.79,0,3.42-.4,5.19-.76,3.54-1.81,7.15-2.69,10.75l-1.37,5.41c-1.4,5.43-2.27,11.04-2.55,16.64l.71,.08c.63-3.65,1.41-7.27,2.33-10.85,1.43-5.32,3.22-10.67,4.69-16.02,.74-2.74,1.63-5.48,1.92-8.37,.4-4.92-.99-9.59-2.5-14.2-1.1-3.49-3.42-6.74-4.45-10.12-2.12-8.29-.95-15.86,8.8-16.91,8.31-.7,15.67,1.69,18.64,10.15,1.1,3.28,1.78,7.04,1.96,10.49,.12,3.53-.42,7.19-.87,10.88-.66,5.49-1.49,10.8-3.9,15.73-1.71,3.29-3.26,6.77-4.64,10.23-.7,1.74-1.35,3.52-1.87,5.36-1.05,3.73-1.11,7.67-.37,11.37l.76-.1h0Z"/><path class="ae" d="M1545.77,847.81c6.43-13.84,9.47-29.35,8.63-44.74-.12-2.74-2.45-4.86-5.19-4.72-2.72,.14-4.81,2.47-4.67,5.19,1.44,7.16,2.37,14.48,2.09,21.94-.2,7.17-1.31,14.38-3.25,21.44-.4,1.5,1.72,2.29,2.4,.88h0Z"/><path class="n" d="M1508.71,862.93c-14,14.61-11.75,31.77-.61,43.73,11.7,11.16,25.05,16.62,40.05,16.35,23.29,1.2,46.69-44.75,23.09-65.28-11.03-9.4-34.84-22.99-62.52,5.21Z"/><path class="ad" d="M1500.21,889.46c-6.58-28.47,37-52.41,48.45-39.79-2.01-.22-44.23,2.51-48.02,39.79"/><path class="af" d="M1510.05,906.03s29.87,17.23,49.64,6.73c19.77-10.5,16.31-48,16.31-48,0,0,16.4,20.48-9.88,48.14-26.28,27.66-56.07-6.86-56.07-6.86Z"/><path class="ae" d="M1579.19,898.59c5.25-13,6.22-30.92-6.79-42.24-12.15-10.35-36.75-23.42-64.98,5.32l-.02,.02c-13.45,14.04-13.7,32.17-.63,46.2l.07,.08c11.99,11.44,25.88,17.1,41.26,16.84,.3,.01,.6,.02,.9,.02,11.58,0,23.87-10.63,30.18-26.23Zm-31.08,22.61c-14.42,.25-27.44-5.06-38.73-15.81-11.62-12.51-11.38-28.67,.62-41.21,26.17-26.65,48.87-14.63,60.05-5.11,11.57,10.07,10.58,26.31,5.8,38.16-5.82,14.41-17.42,24.49-27.61,23.96h-.12Z"/><ellipse cx="1513.95" cy="873.92" rx="3.16" ry="3.33"/><ellipse cx="1524.99" cy="882.81" rx="2.32" ry="3.33" transform="translate(133.35 1963.69) rotate(-67.9)"/><ellipse cx="1550.37" cy="883.96" rx="4" ry="3.79" transform="translate(194.79 2044.75) rotate(-70.26)"/><path d="M1526.72,890.06c-.09,0-.17-.02-.26-.06-2.13-1-2.84-2.45-3.02-3.63-.32,.25-.67,.44-1.04,.56-1.14,.37-2.49,.14-4.12-.7-.29-.15-.41-.51-.26-.81,.15-.3,.51-.41,.81-.26,1.33,.68,2.38,.89,3.21,.62,.64-.21,1.16-.71,1.58-1.53l1.1,.48c-.04,.11-.9,2.68,2.27,4.18,.3,.14,.43,.5,.29,.8-.1,.22-.32,.34-.54,.34Z"/><path class="ae" d="M1537.78,956.56s-.06,0-.08,0c-.65-.05-1.13-.61-1.09-1.25l.51-7.2c.05-.65,.61-1.13,1.25-1.09,.65,.05,1.13,.61,1.09,1.25l-.51,7.2c-.04,.62-.56,1.09-1.17,1.09Z"/><path class="ae" d="M1542.12,949.35c-5.63,0-9.91-1.5-12.97-4.51-.46-.45-.47-1.2-.01-1.66,.45-.46,1.2-.47,1.66-.01,4.13,4.06,11.12,4.89,21.37,2.53,.63-.14,1.26,.25,1.4,.88,.15,.63-.25,1.26-.88,1.4-3.94,.91-7.46,1.36-10.56,1.36Z"/><path class="ae" d="M1563.39,958.56c-.92,0-1.71-.7-1.79-1.64-.03-.3-.2-3,2.02-5.23,1.21-1.22,2.86-2.02,4.93-2.41-2.48-2.56-3.9-5.72-4.03-9.11-.2-5.52,3.03-10.89,8.87-14.75,.83-.55,1.95-.32,2.49,.51,.55,.83,.32,1.95-.51,2.49-4.77,3.15-7.41,7.38-7.26,11.62,.14,3.72,2.46,7.1,6.38,9.29,.74,.41,1.09,1.29,.84,2.1-.25,.81-1.03,1.34-1.87,1.27-3.48-.29-6,.24-7.3,1.54-1.05,1.06-.99,2.35-.99,2.37,.09,.99-.64,1.87-1.63,1.96-.06,0-.11,0-.16,0Z"/><path class="n" d="M1610.52,921.31c15.53-3.12,16.6,22.63-1.69,18.08"/><path class="ad" d="M1608.83,938.31c15.34,3.06,11.68-10.37,11.68-10.37,.6,10.77-11.47,8.18-11.47,8.18l-.22,2.19Z"/><path class="ae" d="M1612.88,941.72c-1.41,0-2.91-.19-4.48-.58-.97-.24-1.55-1.22-1.31-2.18,.24-.97,1.22-1.55,2.18-1.31,4.51,1.12,8.03,.28,9.92-2.37,1.82-2.55,1.84-6.42,.03-9.2-1.73-2.67-4.69-3.73-8.35-3-.98,.2-1.92-.44-2.12-1.41-.2-.97,.44-1.92,1.41-2.12,5.13-1.03,9.53,.64,12.08,4.57,2.61,4.04,2.56,9.49-.13,13.25-2.04,2.85-5.29,4.35-9.23,4.35Z"/><g id="j"><path class="n" d="M1563.31,862.07c-.04-.8,.41-2.03,1.44-4.55,1.36-3.31,3.08-5.74,7.11-10.52,6.38-7.57,6.58-6.84,9.2-10.49,2.98-4.15,4.55-7.65,6.42-11.85,2.91-6.51,4.5-10.09,5.13-15.26,.58-4.73,1.34-10.98-2.5-16.52-3.4-4.91-8.51-6.54-10.29-7.1-10.55-3.71-18,.19-19.29,12.03-.99,6.65,1.56,8.44,1.35,18.2-.07,3.19-.12,5.72-1.05,9.02-.81,2.87-1.77,4.5-6.63,12.31-5.14,8.26-5.82,9.26-7.19,11.7-.91,1.63-2.8,5.26-3.47,6.71"/><path class="ad" d="M1562.93,862.26s-3.63-3.74,8.8-20.41c7.34-7.92,11.04-17.45,12.49-21.48,2.77-7.01,5.23-14.62,2.35-22.61-3.81-9.56-17.56-11.7-17.56-11.7l4.1-1.34,11.71,4.22,4.92,4.55,2.51,7.84-1.15,11.32-2.05,6.5-4.31,9.41-4.1,7.46-3.63,4.34-4.15,4.12-2.47,3.8-2.81,3.93-2.42,3.97-2.21,6.07Z"/><path class="ae" d="M1563.83,862.05c.05-.81,.49-1.68,.81-2.47,1.06-2.58,2.38-4.96,4.12-7.14,3.5-4.37,7.35-8.51,11.3-12.52,3.93-4.34,6.57-9.7,8.88-14.91,1.54-3.44,3.2-6.89,4.29-10.72,1.83-7.6,2.81-16.63-2.36-23.2-4.4-5.88-14.89-9.83-22.18-7.86-7.68,2.09-10.12,10.83-10.12,17.9,.06,2.9,.96,5.86,1.3,8.58,.55,5.25,.71,10.98-.96,16.05-1.23,3.28-3.46,6.51-5.26,9.62-1.44,2.42-4.3,7.35-5.68,9.81-1.89,3.31-3.34,6.88-4.8,10.38-.09,.22,.02,.48,.24,.57,.2,.08,.42,0,.54-.17,2.06-3.18,3.82-6.47,6-9.56,1.6-2.33,4.75-7.05,6.29-9.42,2.04-3.3,4.36-6.45,5.75-10.13,1.92-5.6,1.84-11.76,1.28-17.59-.43-3.53-1.5-6.65-1.11-10.12,.45-4.98,2.09-11.08,7.5-12.53,3.31-.92,6.76-.14,10.06,.97,3.36,1.05,6.39,2.91,8.5,5.57,3.42,4.2,3.62,9.78,2.95,14.98-.42,5.6-2.64,10.49-4.93,15.68-2.21,5.14-4.58,10.12-8.17,14.31-2.53,2.69-5.14,5.65-7.44,8.59-3.04,3.7-5.87,7.75-7.22,12.41-.31,.98-.66,1.88-.61,2.98,.02,.29,.27,.5,.55,.49,.28-.02,.49-.26,.49-.53h0Z"/></g><path class="ae" d="M1562.26,846.43c10.15-12.43,17.26-27.44,20.4-43.34,.59-2.82-1.24-5.59-4.07-6.15-2.81-.56-5.54,1.26-6.11,4.07-.39,7.67-1.34,15.37-3.56,22.9-2.06,7.25-5.06,14.31-8.88,21-.79,1.42,1.15,2.78,2.21,1.52h0Z"/><ellipse class="ad" cx="1541.4" cy="936.06" rx="6.98" ry="13.59" transform="translate(493.21 2403.51) rotate(-85.73)"/><ellipse class="n" cx="1512.93" cy="873.51" rx="1.44" ry=".95" transform="translate(179.83 2002.59) rotate(-70.26)"/><ellipse class="n" cx="1548.66" cy="883.14" rx="1.44" ry=".95" transform="translate(194.43 2042.6) rotate(-70.26)"/></g></g></g></svg>