<?xml version="1.0" encoding="UTF-8"?><svg xmlns="http://www.w3.org/2000/svg" width="1920" height="1080" viewBox="0 0 1920 1080"><defs><style>.k,.l,.m{fill:#e5ae13;}.n{fill:#fff;}.l,.o,.p{mix-blend-mode:multiply;}.q{fill:#b2b2b2;}.r{isolation:isolate;}.s{fill:#634428;}.m,.t{mix-blend-mode:screen;}.u{fill:#281909;}.v{fill:#37230e;}.w{opacity:.3;}.x{fill:#eeeeef;}.t,.y,.p{fill:#4d8a62;}.o{opacity:.39;}.a`{fill:#aaa;}.aa{fill:none;}.ab{fill:#ccc;}.ac{fill:#7a7a7a;}.ad{fill:#eee;}.ae{fill:#ffca91;}</style></defs><g class="r"><g id="a"/><g id="b"><g id="c"><path class="s" d="M1367.2,591.6c-94.7-121.8-103.8-229,0-316.8l-26-22.5c-82.9,0-144.7-50.6-110.3-144l-11.2-20.3s-213-34.4-255.9-41v-1.1c-.1,0-1.5,.2-3.7,.5-2.3-.3-3.6-.5-3.7-.5v1.1c-42.9,6.7-255.9,41-255.9,41l-11.2,20.4c34.4,93.4-27.4,144-110.3,144l-26,22.5c103.8,87.8,94.7,195,0,316.8-60.4,81.5-42.5,202.3,0,281,98,152.1,394.2,111.5,407,158.3v3.2c0-.8,.1-1.6,.2-2.4,.2,.8,.2,1.6,.2,2.4v-3.2c12.8-46.8,308.9-6.2,407-158.3,42.3-78.8,60.2-199.6-.2-281.1Z"/><g><path class="v" d="M1023.43,985.85c26.8-4,60-7.6,95.3-13.3V93.15c-31.4-5.1-66.1-10.6-95.3-15.3V985.85h0Z"/><path class="v" d="M1139.43,969.05c31.8-5.9,64.6-13.7,95.3-25.4V234.15c-24-23.2-32.7-59.3-15.1-107l-10.7-19.5s-30.1-4.9-69.4-11.2V969.05h-.1Z"/><path class="v" d="M781.93,969.05c34.1,6.3,67.1,10.2,95.3,14V81.15c-31.1,5-65.8,10.6-95.3,15.3V969.05Z"/><path class="v" d="M1349.93,589.35c-90.6-116.5-99.3-219,0-303l-24.9-21.5c-26.3,0-50.4-5.4-69.6-15.8V934.85c38.2-17.4,71.9-41.8,94.5-76.9,40.7-75.1,57.8-190.6,0-268.6Z"/><path class="v" d="M665.93,248.95V935.15c30,13.6,62.8,23,95.3,29.9V99.75c-28.9,4.7-49.1,7.9-49.1,7.9l-10.7,19.5c21.9,59.5,3,100.8-35.5,121.8Z"/><path class="v" d="M1002.73,74.55c-17.1-2.7-30.8-4.9-38.7-6.1v-1.1c-.1,0-1.4,.2-3.6,.5-2.2-.3-3.4-.5-3.6-.5v1.1c-10.7,1.7-32.6,5.1-59,9.4V985.95c34.9,5.3,59,11.2,62.3,23.6v3.1c0-.8,.1-1.6,.2-2.3,.1,.7,.2,1.5,.2,2.3v-3.1c2.7-9.8,18.3-15.6,42-20.2V74.55h.2Z"/><path class="v" d="M645.23,257.75c-14.9,4.7-31.6,7.2-49.3,7.2l-24.9,21.5c99.3,84,90.6,186.5,0,303-57.8,77.9-40.6,193.5,0,268.7,18.5,28.7,44.4,50.2,74.2,66.7V257.75Z"/></g><g><path class="u" d="M592.3,636c-27.8,39.4-38.9,90.3-29.8,137.5,2.3,11.3,6.4,22.5,14.8,30.5,4,3.8,8.9,6.7,14,7.9,9.7,2.4,21.8-1.6,24.8-11.8,2.1-6.6-.2-14.7-7.1-17.3-6.9-2.7-15.2-.6-21.3,3.5-5.9,3.7-11.5-4.8-5.7-8.7,6.1-3.8,12.9-5.9,20.1-5.9,12-.1,22.6,7.9,23.7,20.2,.7,7.4-1.7,14.9-6.9,20.3-13.2,13.1-34.7,9.7-46.6-3.1-9.2-9.3-13.7-22-15.8-34.5-8-48.8,4.8-100.4,34.3-139.8,.3-.4,.9-.5,1.4-.2,.3,.3,.4,.9,.1,1.4h0Z"/><path class="u" d="M695.5,932.8c1.4-2.2,3.2-4.4,4.6-6.5,.8-1.2,3.6-5.3,4.4-6.6,1.7-2.8,4-6.3,5.6-9,55.5-94.2,28.5-207.9,9.5-308.9-13.9-71-29.5-143.2-23.9-216,3-43.6,13.8-88.1,37.5-125.1,.3-.5,1-.7,1.5-.3,.4,.3,.6,.8,.4,1.3-4.6,13.7-8.8,27.4-12.3,41.2-12.2,48.3-16.1,98.3-14,148,2.4,63.9,14.7,129.2,26.1,192.1,12.2,70.9,24.9,145.3,4.9,216.1-6.5,22.9-16,45.2-30,64.5-3,4.1-7.1,9-10.6,12.7-1.9,2.1-5.6-.5-3.7-3.5h0Z"/><path class="u" d="M827.9,123.5c14.1,56.8,23.9,119.5,28.2,177.9,2.2,30,1.8,60,2.4,90,.2,54.6-.9,110.8-9.1,164.9-1.9,15-4.8,29.8-10.3,44-.5,1.4-2.1,2.1-3.5,1.5-1.1-.4-1.7-1.5-1.7-2.6-.1-15.2,2.8-29.7,5.1-44.5,10.4-63.5,18.4-128.8,16-193.2-1.6-28.8-4.4-60.5-7.6-89.3-4.4-37.2-12.2-81.1-20.7-117.6,0,0-7.2-29-7.2-29.1-1.1-5.2,6.7-7.7,8.4-2h0Z"/><path class="u" d="M805.9,746.6c1.4,7.2,2.4,14.3,3.6,21.4,1.8,10.5,4,20.8,6.1,31.2,5,24.3,11,48.5,22.1,70.9,6.4,12.8,14.3,25.1,24.8,35,1.1,1,1.1,2.7,.1,3.7-1.1,1.2-3.1,1.1-4.1-.3-8.7-11.9-17.8-23.3-26-35.5-14.6-21.3-26.5-45.5-31.7-71-2-11.1-2.6-22.3-2.1-33.6,.6-7.5,1.5-14.9,3.4-22.1,.4-1.9,3.5-1.8,3.8,.3h0Z"/><path class="u" d="M924.9,975.7c14.1-12.7,26.8-27.2,35.8-43.9,9.1-16.7,14.6-34.9,18.5-53.5,4.6-20.9,7-42.5,6.5-64.1-.7-35.9-7.7-71.4-14.8-106.6-10.2-50.4-21.5-101.6-28.6-152.6-1.6-12.8-2.9-26.7-3.5-39.6-5.4-119.7,43.5-236.9,24.9-356.6-1.2-7-2.9-15.8-4.6-22.8-4.5-18.5-10.8-36.5-19.6-53.2-1.4-2.7-.4-6,2.3-7.4,2.8-1.5,6.4-.2,7.6,2.8,14.7,36.4,20.9,75.3,21.6,114.2,.8,38.6-3.4,77.1-9.1,115.2-11.6,76-28.5,152.4-19.8,229.4,7.1,76.8,37.5,149.1,44.8,226.5,2.3,21.6,3.2,43.5,2.4,65.2-1,24.2-3,48.6-9.6,72-6.5,22.3-17.9,43.3-34.1,60.1l-2.6,2.6-2.6,2.6-2.7,2.5c-3.5,3.4-7.4,6.3-11.1,9.4-.6,.5-1.4,.4-1.9-.2-.5-.7-.4-1.5,.2-2h0Z"/><path class="u" d="M1037.3,84.3c19.7,20.5,35.5,45,44,72.3,11.4,36.2,12.1,74.7,9.9,112.3-3.1,46.9-12.1,93.2-18.1,139.5-6.1,46.4-11.6,92.8-14.1,139.5-4.9,102.7,2.6,206.3,25.1,306.6,8.2,36.4,18.6,72.4,31,107.5,1,2.8-.5,5.9-3.3,6.9-2.9,1-6.1-.6-7-3.5-11.2-35.9-20.5-72.5-27.9-109.4-7.3-36.7-12.9-74.3-16.6-111.5-3.8-37.3-5.8-74.9-6.3-112.4-.4-75,2-150.3,11.4-224.8,12-104,55.3-236.9-31.9-319.4-1.1-1-1.1-2.7-.1-3.7,1.2-1,2.9-1,3.9,.1h0Z"/><path class="u" d="M1018.7,91c28.9,48.5,37.2,106.3,36.4,162-.3,27.9-2.9,55.7-5.8,83.4-7.2,64.1-13.6,128.7-15.7,193.2-3,110.7,7.1,221.8,28.6,330.4,7.3,36.2,15.9,72.1,25.8,107.7,.7,2.5-.8,5-3.2,5.7-2.5,.7-5-.8-5.7-3.2-4.5-18-8.8-36.1-12.8-54.3-28.2-126.7-40.8-256.7-39.4-386.4,.1-64.7,4.1-129.9,12.2-194.2,5.4-45.6,11.1-91.6,6.9-137.5-2.5-27.3-8.2-54.5-19.2-79.8-3.6-8.4-7.9-16.5-12.6-24.3-.8-1.2-.4-2.9,.9-3.6,1.3-.8,2.9-.3,3.6,.9h0Z"/><path class="u" d="M1195.6,108.9c2.6,18.8,2.2,40.4,1.4,59.5-.9,18.3-3.1,41-5.4,59.2-2.6,19.4-5.6,39.4-8.9,58.7-8.1,45.2-20.1,90.6-34.9,134-.5,1.4-2,2.1-3.3,1.7-1.4-.5-2.1-2-1.7-3.3,10-24.4,18.3-49.4,25.1-74.9,9.9-37.8,17-77.6,19.7-116.5,1.8-28.5,2.1-60,1.9-88.6,.2-9.9,.1-19.7,.9-29.6,.2-3.1,4.7-3.4,5.2-.2h0Z"/><path class="u" d="M1222.2,221c6.8,54.1-9,107.9-27.3,158.2-14.5,39.2-29.3,79.2-35,120.8-3.9,26.4-3.3,53.2-.8,79.6,6.8,60.6,19.4,120.7,27.8,181.2,4.4,28.9,16.3,107.9,20.8,136.2,2.4,15.1,4.8,30.2,7.5,45.3,.1,.8-.4,1.5-1.1,1.6-.8,.1-1.5-.4-1.6-1.2-2.4-15.1-5-30.2-7.6-45.3-4.9-27.9-19.2-106.5-24.5-135.6-10.2-60.5-23.1-120.4-27.4-181.8-1.7-26.9-.9-54,3.7-80.6,2.8-17,6.9-33.9,11.6-50.5,8.5-30.1,19-63.5,27.8-93.6,5.4-18.2,10.7-36.5,14.5-55.1,2.3-11,4.2-22.4,5.4-33.6,1.6-15,2.1-30.2,1.1-45.3-.1-1.5,1-2.7,2.5-2.8,1.2,.2,2.4,1.2,2.6,2.5h0Z"/><path class="u" d="M1357.2,635.7c-8.4,9.1-13.1,21.6-15.2,33.8-4.9,27.3,2.3,56.5,5.1,83.7,1.2,11.4,1.8,23,.6,34.5-.8,7.8-2.4,15.6-5,23.2-.9,2.8-3.9,4.3-6.6,3.3-3.1-1-4.5-4.7-2.9-7.5,3.4-6.2,5.8-13,7.3-20.1,1.9-8.8,2.3-18.3,2.1-27.5-.2-9-1.3-19-2.4-27.9-3.4-26.2-7.6-53.5-.9-79.7,1.9-7.7,5-15.2,9.2-22.3,4.4-6.7,13.8,.2,8.7,6.5h0Z"/><path class="u" d="M1304.7,578.4c-14.5,19.2-20.7,43.4-21.8,67.2-2,50.2,17.9,97.1,26.8,146,4.5,24.7,6.4,50.3,1.4,75.1-.1,.5-.6,.9-1.2,.8-.5-.1-.9-.6-.8-1.2,1-6.1,1.6-12.3,1.9-18.5,.5-12.4-.5-24.8-2.3-37.1-9.4-61.7-42.2-120.8-33.9-184.7,2.5-19.4,8.9-38.5,20.3-54.7,4.8-6.3,14.2,.5,9.6,7.1h0Z"/></g><g><path id="d" class="n" d="M1346.99,72.74c-.81,.58-14.2,9.42-15.64,10.98,0,0-9.14-29.87,.67-55.54,0,0-37.92,9.16-29.04,63.82,0,0-12.45,21.55-43.62,23.61,0,0,13.01,8.34,21.38,8.21,0,0,9.29,15.67,35.14,6.54,0,0-7.63,5.52-9.56,6.17l-7,2.35s1.43,2.65,.81,4.02,1.56,3.59,1.56,3.59c0,0,1.88,.8,2.39,2.6,.51,1.8,2.34,1.63,2.34,1.63,0,0,2.52,.58,1.78,1.82s8.92-4.34,10.5-17.22l.82-4.75s22.58-5.39,29.72-31.69c0,0,4.21-7.86,8.71-11.25,0,0,22.85-2.71,27.25-14.39l27.04-9.82s-7.05-11.39-31.47-5.74c0,0-4.81-8.32-15.43-4.75s-13.37,14.56-13.37,14.56c0,0-1.92,3.06-4.99,5.26Z"/><path class="o" d="M1306.73,118.87s-6.28-57.1,15.87-83.88c0,0-17.77,10.66-18.62,30.24-.81,10.1-1.32,19.47-1,26.76-1.18,5.79,1.45,16.12,3.75,26.87Z"/><path d="M1306.73,118.87c-16.66,5.94-48.61-.17-47.37-3.27,31.17-2.06,43.62-23.61,43.62-23.61l3.75,26.87Z"/><path class="k" d="M1315.87,130.36s-7.63,5.52-9.56,6.17l-7,2.35s1.43,2.65,.81,4.02,1.56,3.59,1.56,3.59c0,0,1.88,.8,2.39,2.6,.51,1.8,2.34,1.63,2.34,1.63,0,0,2.52,.58,1.78,1.82s8.92-4.34,10.5-17.22l.82-4.75"/><path class="y" d="M1380.78,57.68s-4.81-8.32-15.43-4.75-13.37,14.56-13.37,14.56c0,0-1.92,3.06-4.99,5.26l10.95,14.89s22.85-2.71,27.25-14.39l-4.42-15.56s-4.81-8.32-15.43-4.75-13.37,14.56-13.37,14.56"/><path class="k" d="M1385.2,73.24l27.04-9.82s-7.05-11.39-31.47-5.74"/><path d="M1331.35,83.72s-9.14-29.87,.67-55.54c0,0-37.9,9.04-29.04,63.82,.21-11.28-.07-47.26,20.32-55.16-5.37,19.1,0,33.57,8.05,46.88Z"/><path d="M1354.75,90.74c-.54,.63-1.05,1.28-1.54,1.94-2.33,3.13-3.97,6.2-3.97,6.2-8.63-5.9-11.25-8.91-17.89-15.16,.69-.74,4.1-3.15,7.57-5.52"/><path class="n" d="M1361.53,67.13c1.74,5.18,6.69,8.19,11.05,6.73,10.32-4,4.33-21.8-6.3-18.76-4.36,1.47-6.49,6.85-4.75,12.03Z"/><ellipse cx="1371.51" cy="59.62" rx="2.25" ry="3.21" transform="translate(52.42 439.87) rotate(-18.57)"/><path class="l" d="M1306.41,139.36c-.11,.08-6.17,3.12-6.17,3.12l-.08,1.71,6.25-4.83Z"/><path class="l" d="M1307.99,141.56l-5.63,5.33s.73,.44,1.1,1.01,4.53-6.34,4.53-6.34Z"/><path class="l" d="M1305.37,150.34s.91,.11,1.1,.31,5.38-7.83,5.38-7.83l-6.49,7.51Z"/><path class="m" d="M1403.67,57.65c-6.35-2.28-14.72-1.87-22.89,.03l.6,2.12c6.04-2.03,12.94-3.36,22.29-2.15Z"/><path class="l" d="M1383.07,65.74l2.13,7.5,26.89-9.77c-10.84-1-25.48,1.59-29.02,2.26Z"/><path class="w" d="M1344.35,110.72c-10.03,8.26-30.16,22.67-44.19,18.57-20.07-8.38-21.89-7.26-25.65-6.5,2.18,.65,4.32,1.06,6.22,1.03,0,0,9.29,15.67,35.14,6.54l3.65,.21s15.45-3.69,24.83-19.85Z"/><path class="t" d="M1348.03,74.15l5.87-5.54s3.4-13.46,18.9-16.35c-2.06-.4-4.54-.32-7.46,.66-10.62,3.57-13.37,14.56-13.37,14.56,0,0-1.92,3.06-4.99,5.26l1.04,1.41Z"/><path class="p" d="M1356.15,85.18l1.8,2.45s22.85-2.71,27.25-14.39l-.11-.4c-9.39,9.74-27.6,12.18-28.94,12.35Z"/><path class="l" d="M1319.52,130.57l-.92-.03c-1.69,11.63-8.41,17.68-12.07,20.24,.51,.14,2.25,.68,1.65,1.77-.66,1.21,9.12-4.72,10.52-17.28l.81-4.7Z"/></g><g><path id="e" class="n" d="M1713.92,124.08c-.87,.49-15.33,7.84-16.96,9.24,0,0-5.76-31.02,7.02-55.67,0,0-39.11,4.86-36.44,60.74,0,0-14.96,20.21-46.49,18.71,0,0,12.1,9.86,20.52,10.69,0,0,7.54,16.8,34.52,10.58,0,0-8.29,4.67-10.3,5.1l-7.29,1.56s1.13,2.83,.36,4.13,1.16,3.78,1.16,3.78c0,0,1.8,1.02,2.11,2.88s2.16,1.9,2.16,1.9c0,0,2.47,.87,1.57,2.03s9.45-3.34,12.51-16.09l1.37-4.68s23.28-2.83,33.45-28.41c0,0,5.12-7.41,10.03-10.3,0,0,23.25-.11,29-11.33l28.27-6.77s-5.77-12.24-30.93-9.36c0,0-3.88-8.9-14.94-6.53-11.06,2.37-15.08,13.09-15.08,13.09,0,0-2.27,2.85-5.61,4.71Z"/><path class="o" d="M1668.23,165.79s.22-58.04,25.52-82.38c0,0-19.05,8.67-22.14,28.23-1.97,10.05-3.55,19.39-4.06,26.75-1.85,5.68-.38,16.35,.69,27.4Z"/><path d="M1668.23,165.79c-17.4,4.06-48.78-5.73-47.18-8.69,31.53,1.5,46.49-18.71,46.49-18.71l.69,27.4Z"/><path class="k" d="M1676.09,178.37s-8.29,4.67-10.3,5.1l-7.29,1.56s1.13,2.83,.36,4.13,1.16,3.78,1.16,3.78c0,0,1.8,1.02,2.11,2.88s2.16,1.9,2.16,1.9c0,0,2.47,.87,1.57,2.03s9.45-3.34,12.51-16.09l1.37-4.68"/><path class="y" d="M1749.55,112.82s-3.88-8.9-14.94-6.53c-11.06,2.37-15.08,13.09-15.08,13.09,0,0-2.27,2.85-5.61,4.71l9.29,16.2s23.25-.11,29-11.33l-2.66-16.13s-3.88-8.9-14.94-6.53c-11.06,2.37-15.08,13.09-15.08,13.09"/><path class="k" d="M1752.21,128.95l28.27-6.77s-5.77-12.24-30.93-9.36"/><path d="M1696.96,133.32s-5.76-31.02,7.02-55.67c0,0-39.08,4.74-36.44,60.74,1.5-11.3,5.33-47.45,26.7-53.04-7.57,18.55-3.84,33.69,2.72,47.98Z"/><path d="M1719.65,143.04c-.61,.57-1.2,1.17-1.76,1.77-2.7,2.88-4.7,5.77-4.7,5.77-7.99-6.9-10.27-10.23-16.23-17.26,.78-.67,4.48-2.69,8.23-4.68"/><path class="n" d="M1729.15,120.11c1.15,5.4,5.78,8.99,10.33,8.01,10.81-2.84,6.84-21.39-4.18-19.55-4.55,.97-7.3,6.14-6.14,11.54Z"/><ellipse cx="1740.03" cy="113.72" rx="2.27" ry="3.24" transform="translate(14.71 366.5) rotate(-12.07)"/><path class="l" d="M1665.57,186.32c-.12,.07-6.55,2.42-6.55,2.42l-.28,1.71,6.82-4.13Z"/><path class="l" d="M1666.91,188.7l-6.26,4.7s.68,.53,.99,1.14,5.27-5.85,5.27-5.85Z"/><path class="l" d="M1663.28,197.22s.9,.21,1.07,.44,6.3-7.24,6.3-7.24l-7.37,6.8Z"/><path class="m" d="M1772.54,115.41c-6.12-3.02-14.56-3.56-22.98-2.59l.36,2.2c6.29-1.35,13.37-1.89,22.62,.39Z"/><path class="l" d="M1750.93,121.18l1.28,7.78,28.1-6.73c-10.77-2.24-25.75-1.32-29.39-1.05Z"/><path class="w" d="M1706.93,161.91c-11.01,7.14-32.86,19.31-46.47,13.59-19.19-10.7-21.14-9.79-25.01-9.46,2.11,.9,4.21,1.56,6.13,1.75,0,0,7.54,16.8,34.52,10.58l3.64,.62s15.93-1.94,27.19-17.09Z"/><path class="t" d="M1714.8,125.62l6.53-4.89s4.95-13.12,20.84-14.25c-2.02-.63-4.52-.84-7.56-.19-11.06,2.37-15.08,13.09-15.08,13.09,0,0-2.27,2.85-5.61,4.71l.88,1.54Z"/><path class="p" d="M1721.69,137.62l1.53,2.66s23.25-.11,29-11.33l-.07-.42c-10.54,8.7-29.09,9.07-30.46,9.09Z"/><path class="l" d="M1679.73,178.99l-.92-.14c-3.03,11.48-10.47,16.78-14.43,18.94,.5,.2,2.18,.94,1.46,1.97-.8,1.14,9.69-3.69,12.54-16.14l1.35-4.63Z"/></g><g><path id="f" class="n" d="M1586.71,416.82c-1.06,.59-18.54,9.48-20.51,11.17,0,0-6.97-37.52,8.5-67.34,0,0-47.3,5.88-44.08,73.46,0,0-18.1,24.44-56.22,22.63,0,0,14.64,11.92,24.82,12.93,0,0,9.12,20.31,41.75,12.8,0,0-10.03,5.64-12.46,6.16l-8.82,1.89s1.37,3.42,.43,5,1.4,4.58,1.4,4.58c0,0,2.17,1.23,2.55,3.48s2.61,2.3,2.61,2.3c0,0,2.98,1.06,1.9,2.46s11.43-4.04,15.13-19.46l1.65-5.65s28.16-3.43,40.46-34.36c0,0,6.19-8.96,12.13-12.45,0,0,28.12-.13,35.08-13.71l34.19-8.19s-6.98-14.81-37.41-11.32c0,0-4.69-10.76-18.07-7.9s-18.24,15.83-18.24,15.83c0,0-2.75,3.45-6.79,5.69Z"/><path class="o" d="M1531.45,467.26s.27-70.19,30.86-99.64c0,0-23.04,10.49-26.78,34.14-2.38,12.15-4.3,23.46-4.91,32.35-2.24,6.87-.46,19.77,.83,33.14Z"/><path d="M1531.45,467.26c-21.05,4.91-59-6.93-57.06-10.51,38.13,1.81,56.22-22.63,56.22-22.63l.83,33.14Z"/><path class="k" d="M1540.96,482.47s-10.03,5.64-12.46,6.16l-8.82,1.89s1.37,3.42,.43,5,1.4,4.58,1.4,4.58c0,0,2.17,1.23,2.55,3.48s2.61,2.3,2.61,2.3c0,0,2.98,1.06,1.9,2.46s11.43-4.04,15.13-19.46l1.65-5.65"/><path class="y" d="M1629.81,403.2s-4.69-10.76-18.07-7.9-18.24,15.83-18.24,15.83c0,0-2.75,3.45-6.79,5.69l11.24,19.59s28.12-.13,35.08-13.71l-3.22-19.51s-4.69-10.76-18.07-7.9-18.24,15.83-18.24,15.83"/><path class="k" d="M1633.03,422.7l34.19-8.19s-6.98-14.81-37.41-11.32"/><path d="M1566.2,427.99s-6.97-37.52,8.5-67.34c0,0-47.26,5.73-44.08,73.46,1.81-13.67,6.45-57.39,32.29-64.16-9.16,22.44-4.64,40.75,3.3,58.03Z"/><path d="M1593.64,439.75c-.74,.69-1.45,1.41-2.13,2.14-3.26,3.48-5.68,6.98-5.68,6.98-9.66-8.35-12.43-12.37-19.63-20.87,.94-.81,5.42-3.26,9.95-5.66"/><path class="n" d="M1605.14,412.01c1.4,6.53,6.99,10.87,12.49,9.69,13.08-3.43,8.27-25.87-5.06-23.65-5.5,1.18-8.83,7.42-7.43,13.95Z"/><ellipse cx="1618.29" cy="404.28" rx="2.74" ry="3.92" transform="translate(-48.77 347.47) rotate(-12.07)"/><path class="l" d="M1528.23,492.09c-.14,.08-7.92,2.93-7.92,2.93l-.33,2.07,8.25-5Z"/><path class="l" d="M1529.85,494.97l-7.57,5.69s.83,.64,1.19,1.38,6.37-7.07,6.37-7.07Z"/><path class="l" d="M1525.46,505.27s1.09,.26,1.3,.53,7.62-8.76,7.62-8.76l-8.92,8.22Z"/><path class="m" d="M1657.61,406.33c-7.4-3.65-17.61-4.3-27.8-3.13l.44,2.66c7.61-1.63,16.17-2.29,27.36,.47Z"/><path class="l" d="M1631.47,413.3l1.55,9.4,33.99-8.14c-13.02-2.71-31.15-1.59-35.54-1.26Z"/><path class="w" d="M1578.25,462.56c-13.32,8.64-39.75,23.35-56.21,16.43-23.2-12.94-25.57-11.84-30.25-11.44,2.55,1.09,5.1,1.88,7.41,2.11,0,0,9.12,20.31,41.75,12.8l4.4,.75s19.27-2.35,32.89-20.67Z"/><path class="t" d="M1587.78,418.68l7.89-5.92s5.99-15.87,25.21-17.24c-2.45-.77-5.47-1.01-9.14-.22-13.38,2.86-18.24,15.83-18.24,15.83,0,0-2.75,3.45-6.79,5.69l1.07,1.86Z"/><path class="p" d="M1596.1,433.19l1.85,3.22s28.12-.13,35.08-13.71l-.08-.5c-12.74,10.52-35.19,10.97-36.84,10.99Z"/><path class="l" d="M1545.36,483.23l-1.11-.17c-3.67,13.89-12.66,20.3-17.45,22.9,.6,.24,2.63,1.14,1.76,2.38-.97,1.38,11.72-4.46,15.16-19.52l1.64-5.6Z"/></g><g><path class="n" d="M334.92,854.93l-56.32,38.31c9.44,6.95,12.47,17.92,8.59,25.17-2.34,4.38-7.42,7.75-12.73,7.79-8.14,.06-13.62-8.04-15.34-13.45-.62-1.95-.73-3.48-.77-3.96-.46-5.72-2.93-15.31-11.3-32.38l63.89-40.18"/><path class="ab" d="M259.21,911.9l-10.72-35.52,62.47-38.81,2.66,3.57-57.97,38.13s8.14,18.28,7.76,31.72c.03,.87,1.59,7.48,11.3,11.27,10.88,2.56,4.02,2.55,4.02,2.55l-8.68,.38c-4.1-2.99-8.13-6.23-10.84-13.29Z"/><polygon class="a`" points="309.04 864.52 308.24 871.7 274.27 893.16 309.04 864.52"/><path class="ac" d="M272.94,928.64c-9.25-.87-14.62-10.11-16.21-15.13-.69-2.16-.83-3.9-.88-4.47-.58-7.15-4.3-17.74-11.06-31.52l-.99-2.02,65.8-41.38,2.66,4.23-62,38.99c6.5,13.54,9.96,23.78,10.57,31.25,.04,.52,.15,1.78,.66,3.4,1.51,4.73,6.2,11.75,12.94,11.71,4.19-.03,8.52-2.69,10.55-6.47,3.06-5.71,.95-15.49-7.87-21.98l-2.84-2.09,59.24-40.3,2.81,4.13-53.57,36.44c8.02,7.43,10.9,18.19,6.64,26.16-2.89,5.41-8.89,9.07-14.92,9.11-.52,0-1.03-.02-1.53-.07Z"/></g><g><path class="n" d="M451.59,872.04l3.53,85.48c18.95,1.43,28.47,4.17,33.64,6.67,.43,.21,1.81,.89,3.81,1.34,5.54,1.26,15.29,.64,19.37-6.41,2.66-4.6,2.32-10.69-.26-14.92-4.29-7.02-24.32-8.32-35.1-3.7l-.83-70.05"/><path class="ab" d="M455.69,936.51v20.17s25.23,2.07,32.34,6.46c7.11,4.39,18.3,0,18.3,0,0,0-11.45-.04-15.19-4.12-3.74-4.09-30.13-6.21-30.13-6.21l-.77-11.28-4.55-5.02Z"/><path class="ac" d="M497.53,968.54c-2.13,0-4.05-.24-5.52-.58-2.23-.51-3.8-1.27-4.31-1.52-6.45-3.12-17.46-5.28-32.76-6.44l-2.22-.17-3.63-87.7,5-.21,3.44,83.26c14.98,1.26,25.56,3.46,32.32,6.73,.42,.2,1.6,.77,3.27,1.15,4.85,1.1,13.27,.62,16.65-5.22,2.1-3.62,2-8.71-.23-12.37-3.34-5.47-21.87-7.04-31.98-2.7l-3.44,1.47-.87-73.79,5-.06,.79,66.56c12.07-3.49,30.18-1.62,34.78,5.91,3.19,5.24,3.31,12.26,.29,17.48-3.72,6.42-10.87,8.17-16.57,8.17Z"/></g><path class="n" d="M552.75,766.36c-6.8,5.15-17.22,11.41-30.64,13.02-19.45,2.33-34.94-6.36-40.6-9.19-39.83-19.98-115.64-12.57-152.49,17.58-2.17,1.77-4.2,3.62-6.08,5.55l-86.25-19.44c-12.67-3.03-15.88,7.2-2.85,9.84l80.94,20c-2.47,4.05-18.37,31.38-7.83,53.45,1.3,2.72,2.72,4.79,3.74,6.13l-8.72,85.1c18.55,4.13,27.58,8.19,32.34,11.4,.4,.27,1.67,1.14,3.57,1.87,5.3,2.04,15.04,2.82,20.09-3.57,3.29-4.17,3.83-10.24,1.87-14.81-3.24-7.56-13.7-12.05-25.02-9.02l5.28-67.91c7.24,5.61,18.91,13.44,34.67,18.98,67.42,23.69,131.7-22.03,138.89-27.32,34.12-25.07,50.49-57.43,57.96-76.09"/><path class="ab" d="M318.7,802.11s-9.2,26.89-7.99,40.1c1.21,13.21,5.49,17.36,5.49,17.36l-7.16,81.4s25.07,9.45,29.24,15.06,19.06,0,19.06,0l-2.34,4.77-13.15,.98-14.85-5.7-24.26-8.55,8.04-85.19s-7.83-10.3-7.32-22.47c.51-12.17,10.13-33.79,10.13-33.79l5.1-3.97Z"/><path class="x" d="M340.61,867.33c2.34,3.03,25.84,13.9,25.84,13.9l23.91,7.58,17.96,3.15,28.94-1.96,15.66-3.91c20.89-6.68,25.3-8.54,25.19-8.94-.02-.07-.22-.24-.46-.31-.64-.19-1.32,.38-1.37,.41-.88,.65-31.42,11.12-69.91,5.09-27.39-4.29-47.74-15.21-59.4-22.72l-11.06-6.26c-.34-.09,2.24,10.77,4.71,13.97Z"/><path class="ab" d="M449.18,840.55l14.67,32.77s1.99,4,0,5.11l-9.74,5.32-2.23,1.17,9.38-1.87,8.83-3.64,.25-5.09-13.89-23.43-7.28-10.34Z"/><path class="ab" d="M227.99,775.6c4.93,5.25,52.67,15.06,84.18,24.13,1.42,.49,3.28,1.36,5.95,2.53l-88.68-20.87-3.74-2.81,2.3-2.98Z"/><path class="ac" d="M346.19,965.64c-3.61,0-6.97-.79-9.18-1.64-2.12-.81-3.57-1.79-4.04-2.11-5.95-4.02-16.54-7.73-31.52-11.06l-2.17-.48,8.84-86.35c-1.31-1.83-2.46-3.76-3.41-5.76-9.56-20.02,1.27-43.76,6.26-52.89l-77.66-19.19c-5.64-1.15-9.25-3.38-10.19-6.28-.52-1.61,.14-5.55,1.31-6.81,2.22-2.4,7.03-3.01,12.85-1.62l84.84,19.16c1.66-1.64,3.45-3.24,5.33-4.78,36.6-29.95,113.47-38.81,155.19-17.88l1.13,.58c6.14,3.13,20.52,10.47,38.04,8.37,10.15-1.22,20.05-5.43,29.43-12.53l3.02,3.99c-10.09,7.64-20.81,12.19-31.85,13.51-19.04,2.28-34.37-5.54-40.91-8.88l-1.1-.56c-18.8-9.43-46.49-12.99-75.97-9.76-29.91,3.27-56.81,13.13-73.81,27.04-2.1,1.72-4.08,3.53-5.88,5.37l-.95,.97-87.57-19.7c-4.55-1.09-7.57-1.14-7.9-.04-.65,2.18,1.88,4.14,6.03,4.98l.1,.02,84.25,20.82-1.77,2.91c-3,4.93-17.5,30.56-7.71,51.07,.95,1.99,2.12,3.91,3.48,5.69l.6,.79-8.59,83.88c14.64,3.38,24.81,7.08,31.03,11.28,.43,.29,1.48,1,3.07,1.61,4.63,1.78,13.05,2.51,17.23-2.79,2.59-3.29,3.22-8.33,1.54-12.28-2.55-5.95-11.5-10.42-22.08-7.59l-3.41,.91,5.91-76.06,3.66,2.84c10.45,8.09,21.88,14.35,33.97,18.6,27.72,9.74,58.12,8.8,90.36-2.79,24.17-8.69,41.49-20.71,46.23-24.19,31.72-23.3,48.57-53.65,57.12-75l4.64,1.86c-8.79,21.96-26.13,53.17-58.8,77.17-4.87,3.58-22.69,15.95-47.5,24.86-33.35,11.99-64.87,12.93-93.71,2.8-11.19-3.93-21.84-9.51-31.7-16.62l-4.67,60.07c10.83-1.62,21.01,2.85,24.57,11.16,2.41,5.64,1.53,12.61-2.21,17.34-3.61,4.58-8.92,6-13.76,6Z"/><g id="g"><path class="n" d="M451.61,839.8l19.65,33.38s2.35,5.87-2,8.59c-4.35,2.72-34.87,23.11-34.87,23.11,4.01,6.84,22.2,29.66,23.93,32.08,1.89,2.63,1.75,4.2,2.77,5.9,2.35,3.93,10.55,8.14,16.31,5.94,6.7-2.56,8.36-10.5,7.6-15.55-1.15-7.65-8.26-20.19-18.25-21.62l38.04-25.42s4.13-3.73,.39-9.14c-3.74-5.41-19.65-33.85-19.65-33.85"/><path class="ab" d="M453.91,838.86c6.73,8.14,13.31,19.37,21.67,31.88,0,0,5.81,8.91-1.04,13.43-5.36,3.57-31.51,22.57-31.51,22.57l19.79,26.87c1.04,1.21,1.04,3.29,2.71,6.96,1.53,3.73,6.78,6.08,6.59,5.85l-.94,.77-9.15-4.51-4.47-10.09-20.55-27.23,24.05-18.91,10.76-8.74-.28-3.64-19-34.53,1.37-.67Z"/><path class="ac" d="M473.9,952.2c-6.3,0-12.91-4.05-15.22-7.91-.56-.93-.86-1.81-1.12-2.59-.34-1.01-.63-1.87-1.52-3.11-.4-.55-1.9-2.48-3.79-4.91-6.42-8.26-17.18-22.07-20.28-27.38l-1.33-2.28,2.19-1.47c1.25-.83,30.61-20.45,34.95-23.16,2.03-1.27,1.19-4.25,.94-5.01l-19.52-33.15c-.79-1.33-.34-3.05,.99-3.83,1.33-.78,3.05-.34,3.83,.99l19.76,33.56,.08,.2c1.11,2.78,1.9,8.87-3.12,12-3.57,2.23-25.36,16.76-32.52,21.54,4.13,6.15,13.25,17.87,18.45,24.55,2.08,2.68,3.46,4.44,3.92,5.08,1.38,1.92,1.88,3.4,2.28,4.59,.21,.63,.37,1.08,.62,1.5,1.77,2.97,8.69,6.37,12.91,4.76,5.31-2.03,6.39-8.75,5.83-12.51-1.09-7.25-7.66-18.09-15.88-19.27l-7.24-1.04,43.9-29.33c.58-.62,1.85-2.5-.13-5.37-3.77-5.46-19.14-32.91-19.79-34.08-.75-1.35-.27-3.06,1.08-3.81,1.35-.76,3.06-.27,3.81,1.08,.16,.28,15.88,28.39,19.51,33.62,4.07,5.88,1.24,10.95-.82,12.81l-.32,.25-33.35,22.29c8.16,4.39,13.66,14.65,14.77,22.01,.86,5.7-.92,15.36-9.37,18.58-1.43,.55-2.96,.79-4.5,.79Z"/></g><g><path class="ab" d="M382.42,783.01c4.04,.92,7.75,4.68,7.08,8.76-.93,5.67-8.76,7.56-10.9,12.89-1.25,3.11-.26,6.72-1.25,9.92-1.49,4.82-6.8,7.18-11.53,8.94-3.44,1.28-7.47,2.52-10.58,.57-2.32-1.45-3.35-4.23-4.23-6.82l-4.66-13.65c-1.04-3.04-2.09-6.25-1.52-9.41,.86-4.77,5.34-8.22,10.04-9.38,4.7-1.16,23.51-2.75,27.55-1.83Z"/><path class="q" d="M380.5,782.56c3.8,.86,7.29,4.4,6.66,8.24-.87,5.33-8.24,7.11-10.24,12.12-1.17,2.92-.24,6.32-1.17,9.32-1.4,4.53-6.39,6.75-10.84,8.41-3.23,1.21-7.03,2.37-9.95,.54-2.18-1.36-3.15-3.98-3.98-6.41l-4.38-12.83c-.98-2.86-1.97-5.87-1.43-8.84,.81-4.48,5.02-7.73,9.44-8.82s22.11-2.58,25.9-1.72Z"/></g><g><path class="ab" d="M403.6,833.44c3.37-1.74,5.8-2.39,8.47-2.37,4.35,.03,9.11,2.16,10.29,6.34,.66,2.34,.14,4.94,1.01,7.21,1.91,4.96,8.81,5.45,12.75,9.02,7.16,7,1.1,18.53-8.74,16.57-2.7-.64-5.12-2.44-7.89-2.57-3.55-.16-6.54,2.4-9.53,4.32-2.99,1.92-7.25,3.18-9.85,.74-3.29-3.09-.79-9.03-3.17-12.87-2.31-3.73-7.89-3.64-11.21-6.51-3.94-3.4-3.44-9.54-2.61-14.68,.41-2.55,.85-5.16,2.1-7.42,3.48-6.2,10.8-5.34,13.06,.75,.92,2.31,2.87,2.88,5.32,1.46Z"/><path class="q" d="M404.97,832.08c3.37-1.74,5.8-2.39,8.47-2.37,4.35,.03,9.11,2.16,10.29,6.34,.66,2.34,.14,4.94,1.01,7.21,1.91,4.96,8.81,5.45,12.75,9.02,7.16,7,1.1,18.53-8.74,16.57-2.7-.64-5.12-2.44-7.89-2.57-3.55-.16-6.54,2.4-9.53,4.32-2.99,1.92-7.25,3.18-9.85,.74-3.29-3.09-.79-9.03-3.17-12.87-2.31-3.73-7.89-3.64-11.21-6.51-3.94-3.4-3.44-9.54-2.61-14.68,.41-2.55,.85-5.16,2.1-7.42,3.48-6.2,10.8-5.34,13.06,.75,.92,2.31,2.87,2.88,5.32,1.46Z"/></g><path class="ab" d="M472.28,787.93c10.35-8.9,27.53-6.02,33.98,6.14,2.51,5.66,3.96,11.75,6.01,17.59,.4,1.23,.79,2.63,.17,3.78-1.68,2.68-5.23,1.08-7.68,.65-7.25-.94-12.27,6.68-19.06,7.75-6.68,1.07-12.74-4.2-19.46-5-3.55-.42-7.27,.41-10.66-.73-6.42-2.07-8.64-10.49-4.07-15.46,1.42-1.57,3.37-2.7,4.4-4.54,.93-1.66,.99-3.68,1.8-5.4,1.14-2.41,3.61-4.12,6.24-4.58,2.29-.4,6.11,1.26,8.33-.2Z"/><path class="q" d="M474.18,786.83c10.17-8.75,27.07-5.92,33.41,6.03,2.47,5.56,3.89,11.56,5.9,17.3,.39,1.21,.77,2.59,.17,3.71-1.65,2.63-5.14,1.07-7.55,.64-7.13-.93-12.07,6.56-18.74,7.62-6.57,1.05-12.52-4.13-19.13-4.91-3.49-.42-7.15,.4-10.48-.71-6.31-2.04-8.5-10.31-4-15.2,1.39-1.55,3.31-2.65,4.33-4.47,.92-1.63,.97-3.62,1.77-5.31,1.12-2.37,3.55-4.05,6.14-4.5,2.25-.39,6.01,1.23,8.19-.2Z"/><path class="ac" d="M349.66,962.36c-.84,0-1.61-.58-1.81-1.44-1.04-4.49-4.15-6.74-4.18-6.76-.84-.58-1.05-1.74-.47-2.58,.58-.84,1.74-1.05,2.58-.47,.18,.12,4.31,3.04,5.68,8.98,.23,1-.39,2-1.39,2.23-.14,.03-.28,.05-.42,.05Z"/><path class="ac" d="M356.6,959.25c-.87,0-1.66-.6-1.87-1.49-1.08-4.64-4.29-6.97-4.32-6.99-.87-.6-1.09-1.8-.49-2.67,.6-.87,1.8-1.09,2.67-.49,.18,.13,4.45,3.14,5.88,9.28,.24,1.03-.4,2.06-1.44,2.3-.15,.03-.29,.05-.44,.05Z"/><path class="ac" d="M265.75,921.58c-.49-.69-.47-1.65,.12-2.31,3.04-3.46,3.06-7.3,3.06-7.34-.02-1.03,.8-1.87,1.83-1.89,1.03-.02,1.87,.8,1.89,1.83,0,.21,.04,5.27-3.98,9.85-.68,.77-1.85,.85-2.62,.17-.11-.1-.2-.2-.29-.31Z"/><path class="ac" d="M272.32,925.4c-.51-.71-.48-1.7,.12-2.38,3.14-3.58,3.17-7.55,3.16-7.59-.02-1.06,.83-1.93,1.89-1.95,1.06-.02,1.93,.83,1.95,1.89,0,.22,.04,5.45-4.12,10.18-.7,.8-1.91,.88-2.71,.18-.11-.1-.21-.21-.29-.32Z"/><path class="ac" d="M466.05,946.3c-.59-.61-.7-1.56-.23-2.3,2.5-3.87,1.95-7.67,1.95-7.71-.17-1.01,.52-1.97,1.53-2.14,1.01-.17,1.97,.52,2.14,1.53,.04,.21,.82,5.21-2.49,10.33-.56,.86-1.71,1.11-2.57,.55-.12-.08-.23-.17-.33-.27Z"/><path class="ac" d="M473.12,949.11c-.61-.63-.73-1.61-.23-2.38,2.58-4,2.02-7.93,2.01-7.97-.17-1.05,.53-2.03,1.58-2.21,1.05-.17,2.04,.53,2.21,1.58,.04,.22,.84,5.38-2.58,10.68-.57,.89-1.76,1.15-2.65,.57-.13-.08-.24-.17-.34-.28Z"/><path class="ac" d="M501.93,965.09c-.84,0-1.61-.58-1.81-1.44-1.04-4.49-4.15-6.74-4.18-6.76-.84-.58-1.05-1.74-.47-2.58,.58-.84,1.74-1.05,2.58-.47,.18,.12,4.31,3.04,5.68,8.98,.23,1-.39,2-1.39,2.23-.14,.03-.28,.05-.42,.05Z"/><path class="ac" d="M508.87,961.97c-.87,0-1.66-.6-1.87-1.49-1.08-4.64-4.29-6.97-4.32-6.99-.87-.6-1.09-1.8-.49-2.67,.6-.87,1.8-1.09,2.67-.49,.18,.13,4.45,3.14,5.88,9.28,.24,1.03-.4,2.06-1.44,2.3-.15,.03-.29,.05-.44,.05Z"/><g><path class="n" d="M509.57,572.81c.44-2.22,.89-5.44,.77-9.32-.15-5.1-1.24-9.21-4.23-17.61-4.73-13.3-5.37-12.43-7.05-18.62-1.91-7.04-2.24-12.5-2.64-19.04-.62-10.15-.97-15.72,.78-22.95,1.6-6.61,3.7-15.34,11.6-20.83,6.99-4.86,14.63-4.48,17.3-4.34,15.95,.32,23.95,9.26,19.74,25.72-2,9.38-6.3,10.49-10.92,23.64-1.51,4.3-2.71,7.7-3.12,12.57-.36,4.24,.11,6.9,2.7,19.77,2.73,13.61,3.15,15.29,3.75,19.22,1.15,7.45,1.54,13.54,1.69,17.33"/><path class="ad" d="M537.3,564.29c-3.33-13.64-5.89-23.22-7.99-30.44-.51-1.77-1.4-4.77-1.62-8.89-.4-7.53,1.69-13.42,2.98-16.93,.57-1.55,.56-1.32,7.46-15.07,2.77-5.52,4.16-8.35,4.47-11.59,.11-1.17,.62-6.47-1.99-11.09-3.55-6.27-11.89-9.59-20.98-8.61l12.35-.18,8.65,3.42,6.23,7.16-.35,10.65-2.84,9.29-4.9,9.04-3.6,7.7-3.69,15.43,6.56,38.99v1.32l-.75-.21Z"/><path class="ab" d="M512.36,558.57c-.02-.57,2.37-1.22,1.72-7.39-.42-1.54-1.09-5.87-3.83-12.25-3.12-7.25-5.19-14.26-5.79-16.42-3.5-12.59-.91-23.38-.56-27.11,.54-5.85,2.24-13.93,7.79-20.02,9.45-10.39,28.41-6.62,32-6.69l-7.59-6.89-17.42-1.15-10.32,4.72-7.21,9.75-2.63,7.94-1.72,16.64,1.29,17.76,2.69,11.93,4.7,13.53,5.19,15.95,1.69-.29Z"/><path class="ac" d="M509,572.7c.63-5.47,.43-10.99-1.05-16.15-1.49-5.19-3.61-10.39-5.59-15.54-1.47-3.93-3.51-7.7-4.75-11.77-2.13-6.81-2.85-14.01-3.25-21.06-.33-5.56-.87-11.19-.33-17.05,.24-2.89,.9-5.85,1.58-8.53,1.37-5.65,3.44-11.45,7.42-15.95,7.44-8.52,18.37-9.96,29-8.25,13.06,2.27,18.95,11.92,16.63,24.69-.15,.67-.52,2.49-.69,3.2-.81,4.23-3.13,8.59-5.39,12-2.97,4.65-5,9.51-6.74,14.75-.88,2.58-1.57,5.11-1.89,7.72-.37,2.67-.35,5.11,.06,7.81,.77,5.38,1.96,10.89,2.91,16.36l1.48,8.23c1.53,8.26,2.24,16.75,2.07,25.16l-1.07,.04c-.56-5.53-1.34-11.02-2.36-16.47-1.58-8.1-3.7-16.3-5.34-24.46-.82-4.18-1.87-8.37-1.99-12.73-.08-7.41,2.48-14.24,5.22-20.99,2.01-5.1,5.82-9.72,7.71-14.67,4.04-12.17,3.08-23.63-11.4-26.22-12.36-1.92-23.62,.89-28.95,13.24-1.99,4.8-3.39,10.35-4.02,15.49-.55,5.27-.12,10.81,.17,16.37,.42,8.28,1.1,16.31,4.2,23.95,2.22,5.09,4.17,10.47,5.87,15.79,.87,2.67,1.65,5.4,2.24,8.22,1.18,5.69,.86,11.59-.63,17.04l-1.13-.22h0Z"/><path class="ac" d="M522.61,553.92c-8.18-21.38-11.1-44.89-8.24-67.83,.46-4.09,4.18-7.02,8.26-6.51,4.06,.5,6.95,4.19,6.45,8.25-2.91,10.57-5.06,21.42-5.42,32.61-.45,10.74,.45,21.65,2.63,32.42,.44,2.28-2.81,3.25-3.67,1.07h0Z"/></g><g id="h"><path class="n" d="M524.78,787.37c-4.6-21.4-21.37-36.38-24.43-39.42-40.99-40.72-35.89-115.16-35.68-125.66,.63-32.05,10.51-45.55,14.97-50.76,21.06-24.55,52.18-23.07,67.04-16.6,10.51,4.04,20.04,11.15,34.82,31.24,21.72,29.53,37.66,51.2,41,84.61,3.06,30.55-6.12,53.91-12.04,68.99-15.37,39.13-46.74,69.68-62.26,82.5"/></g><path class="ab" d="M499.3,563.96s-26.23,15.05-26.23,82.42c.68,25.47,1.52,53.75,22.8,94.59,0,0-20.42-25.67-25.02-54.1-4.6-28.43-6.48-35.36-6.48-35.36v-35.79l5.46-23.44,7.49-15.67,12.26-12.4,9.72-.24Z"/><path class="ab" d="M531.58,553.31c17.28,12.99,65.34,73.55,94.97,97.29,23.45,16.25,31.86,39.42,20.9,71,0,0,22.72-9.19,6.51-59.36,0,0-17.41-7.28-39.7-16-1.62-15.81-12.72-34.23-30.47-54.46-4.51-4.14-26.16-38.94-52.21-38.46Z"/><path class="ac" d="M548.21,825.55c-.61,0-1.21-.22-1.69-.65-1.14-1.04-.95-2.91,.24-3.9,10.08-8.35,44.72-38.96,61.37-81.37,5.92-15.08,14.88-37.88,11.88-67.82-3.27-32.72-18.9-53.97-40.53-83.37-14.89-20.24-23.93-26.64-33.7-30.39l-.1-.04c-14.2-6.19-44.18-7.33-64.14,15.93-9.1,10.65-13.94,27.2-14.37,49.19-.48,24.42-1.37,87.76,34.94,123.83,2.49,2.48,22.14,22.31,27.04,44.99,.21,.99-.13,2.07-.97,2.64-1.59,1.07-3.55,.16-3.9-1.51-4.56-21.2-23.45-40.33-25.69-42.56-37.68-37.44-36.91-102.42-36.42-127.48,.45-23.17,5.69-40.78,15.57-52.34,21.85-25.46,53.74-24.29,69.88-17.29,10.3,3.97,20.35,10.95,35.89,32.07,22.1,30.05,38.07,51.75,41.48,85.84,3.12,31.15-6.1,54.62-12.2,70.15-17.17,43.73-52.85,75.14-62.99,83.51-.47,.39-1.03,.57-1.59,.57Z"/><path class="n" d="M553.47,594.07c8.18,30.14,26.45,46.22,41.95,47.8,10.88,1.11,20.67,3.11,20.67,3.11,8.32,.07,10.17-1.36,14.97-.62,11.82,1.82,19.28,13.29,21.92,17.36,13.57,20.88,5.41,44.93,5,46.07-6.13,17.16-20.25,25.11-22.45,27.7-33.06,39.15-110.37-8.39-111.99-28.31-1.05-12.96,.67-24.67,2.61-28.48,27.41-1.94,40.3-44.68,27.33-84.64Z"/><path class="n" d="M554.1,593.95c8.18,30.14,26.45,46.22,41.95,47.8,10.88,1.11,20.67,3.11,20.67,3.11,8.32,.07,10.17-1.36,14.97-.62,11.82,1.82,19.28,13.29,21.92,17.36,13.57,20.88,5.41,44.93,5,46.07-6.13,17.16-20.25,25.11-22.45,27.7-33.06,39.15-107.96-7.51-109.58-27.43-1.05-12.96-1.75-25.54,.19-29.35,27.41-1.94,40.3-44.68,27.33-84.64Z"/><path class="ab" d="M653.97,662.51c17,42.89-8.79,63.15-8.79,63.15,10.96-31.58,4.82-58.54-18.63-74.78l27.42,11.63Z"/><path class="ad" d="M603.69,748.76s-84.51,6.26-79.05-68.77l3.49-2.67c-3.33,65.06,68.39,73.93,75.55,71.44Z"/><path class="ad" d="M590.19,651.4s-4.07,6.03-3.43,20.78c.64,14.75,12.48,12.71,12.48,12.71,0,0,16.98-2.53,28.82,2.93,11.84,5.46,12.8-6.2,12.8-6.2"/><path class="ad" d="M530.63,675.02s17.64,27.49,33.41,39.06c15.78,11.57,27.63,20.6,27.63,20.6,0,0,7.34,5.5,16.46,4.96,13.04,0,26.32-18.04,26.32-18.04l-.6,4.91c-.36,.81-.91,1.98-1.7,3.32-4.16,7.05-11.37,12.98-18.47,14.89-7.54,2.03-14.87-.49-23.32-5.02-11.78-6.32-37.73-17.69-53.36-47.06-3.59-6.75-5.71-12.64-6.89-16.34l.51-1.28Z"/><path class="ac" d="M608.72,749.12c-14.81,0-31.98-13.6-42.82-22.19l-1.93-1.53c-16.02-12.6-28.75-29.07-37.83-48.95-.57-1.26-.02-2.74,1.23-3.31,1.25-.57,2.74-.02,3.31,1.23,8.75,19.15,20.99,35,36.37,47.1l1.94,1.54c10.98,8.69,31.41,24.87,44.86,20.3,7.33-2.49,12.66-8.98,14.94-11.75,5.81-7.06,6.06-16.49,6.18-21.03,.02-.92,.04-1.59,.1-2.13-1.2-11.64-3.09-18.8-6.85-30.32-2.65-8.14-5.39-16.55-12.5-23.77-4.72-4.79-9.11-6.26-10.99-6.89-.3-.1-.54-.18-.73-.25-5.29-2.01-7.72-2.7-8.41-2.81-9.8,1.51-28.38-3.05-44.5-49.48-.45-1.3,.24-2.73,1.54-3.18,1.3-.45,2.73,.24,3.18,1.54,15.59,44.94,32.59,47.25,39.18,46.15,.73-.12,1.82-.3,10.78,3.1,.14,.05,.32,.11,.53,.18,2.21,.74,7.4,2.47,12.96,8.12,7.93,8.05,10.86,17.04,13.69,25.73,3.9,11.98,5.85,19.39,7.1,31.65l.03,.33-.05,.33c-.04,.25-.06,1.09-.08,1.82-.13,4.69-.42,15.69-7.3,24.05-2.35,2.85-8.54,10.37-17.21,13.32-2.17,.74-4.43,1.07-6.75,1.07Zm-13.22-104.76h0Z"/><path class="ac" d="M516.9,683.35c-1.18,0-2.23-.84-2.45-2.04-.25-1.36,.64-2.66,2-2.92,11.56-2.16,13.81-11.2,13.9-11.58,.32-1.34,1.65-2.18,2.99-1.87,1.34,.31,2.18,1.63,1.88,2.97-.11,.51-2.97,12.61-17.86,15.4-.16,.03-.31,.04-.46,.04Z"/><path class="q" d="M484.85,605.49c10.26-19.24,35.4-27.92,50.69-15.53,3.71,2.83,5.94,6.43,10.25,13.5,3.53,5.79,6.33,10.45,8.96,17.34,2.16,5.67,3.42,9.06,3.45,13.94-.18,9.37-2.12,17.08-16.4,23.56-25.92,12.75-56.13,7.47-60.65-28.18-.55-4.25-1.7-14.28,3.71-24.63Z"/><g><path class="n" d="M516.83,648.17c-15.27-3.79-24.83-31.25-9.61-46.2,9.35-8.65,20.37-5.92,27.57,3.1,5.78,6.63,6.5,14.18,6.98,19.12,.64,6.59,1.22,12.61-2.72,17.44-3.99,4.89-10.54,6-13.4,6.49-1.92,.33-5.27,.89-8.82,.05Z"/><path class="ac" d="M520.78,651.11c-1.41,0-2.94-.13-4.53-.5h-.03c-8.08-2.01-15.12-9.98-17.94-20.3-3.11-11.39-.43-22.65,7.18-30.12,4.64-4.3,9.93-6.33,15.35-5.92,5.85,.44,11.49,3.7,15.9,9.2,6.27,7.23,7.07,15.52,7.55,20.48,.65,6.71,1.32,13.64-3.27,19.27-4.58,5.62-11.83,6.85-14.92,7.37-1.23,.21-3.1,.53-5.29,.53Zm-3.36-5.37c3.06,.72,6.04,.21,7.82-.09,2.75-.47,8.48-1.44,11.88-5.6,3.29-4.03,2.77-9.4,2.17-15.62-.45-4.66-1.13-11.7-6.38-17.72l-.07-.08c-3.53-4.42-7.94-7.04-12.4-7.37-3.99-.31-7.98,1.27-11.52,4.55-6.24,6.13-8.44,15.57-5.81,25.18,2.35,8.6,7.96,15.17,14.31,16.75Z"/></g><g><path class="n" d="M560.24,595.22c2.72-5.99,10.09-12.48,20.93-8.66,4.02,1.65,6.07,4.53,8.89,8.48,.89,1.25,3.86,5.57,5.82,12.27,1.7,5.83,3.03,10.38,1.25,15.67-.43,1.27-2.33,6.62-7.62,9.41-15.32,8.97-36.23-21.09-29.27-37.18Z"/><path class="ac" d="M583.55,636.44c-4.46,0-9.19-2.04-13.69-6.02-9.59-8.49-16.63-25.05-11.83-36.16l.02-.04c3.46-7.63,12.43-13.99,23.93-9.93l.11,.04c4.66,1.92,6.99,5.18,9.94,9.31,1.5,2.1,4.3,6.59,6.17,13,1.74,5.96,3.25,11.11,1.22,17.11-.94,2.78-3.33,7.88-8.74,10.75-2.23,1.3-4.64,1.94-7.14,1.94Zm-21.1-40.25c-3.9,9.06,2.46,23.4,10.61,30.61,3.16,2.79,9.33,6.97,15.24,3.51l.09-.05c3.96-2.09,5.75-5.94,6.46-8.05,1.54-4.56,.36-8.61-1.28-14.22-1.67-5.73-4.15-9.7-5.47-11.55-2.68-3.75-4.45-6.24-7.79-7.63-9.87-3.45-15.87,3-17.87,7.38Z"/></g><path d="M515.86,647.16c-11.88-2.95-19.32-24.32-7.48-35.96,1.03-.93,4.58-4.13,9.69-4.1,6.12,.03,10.14,4.64,11.77,6.51,4.49,5.16,5.06,11.04,5.43,14.88,.5,5.13,.95,9.82-2.12,13.57-3.11,3.81-8.2,4.67-10.43,5.05-1.49,.25-4.1,.69-6.87,.04Z"/><path class="ac" d="M598.66,753.79c-9.39,0-17.23-2.36-25.44-4.83-14.13-4.25-30.14-9.06-41.13-24.16-12.66-17.39-10.76-38.42-9.36-46.65l4.93,.84c-1.3,7.61-3.07,27.01,8.47,42.86,10,13.73,25.16,18.29,38.53,22.31,10,3.01,18.63,5.6,30.14,4.25,19.94-2.34,38.61-15.62,47.58-33.85,5.78-11.75,7.56-24.17,5.16-35.93-2.57-12.55-8.37-20.09-12.79-24.2-2.29-2.13-7.06-6.58-14.05-7.61-1.84-.28-6.11-.05-10.63,.2-8.92,.49-20.02,1.11-27.19-.96-16.44-4.51-36.23-20.7-42.41-52.56l4.91-.95c5.75,29.62,23.84,44.58,38.86,48.7,6.38,1.84,17.46,1.23,25.56,.78,5.2-.29,9.3-.51,11.65-.16,8.52,1.26,14.26,6.61,16.72,8.89,4.95,4.61,11.44,13.02,14.28,26.86,2.63,12.85,.71,26.38-5.57,39.14-9.7,19.71-29.9,34.09-51.48,36.61-2.33,.27-4.56,.4-6.71,.4Z"/><path class="n" d="M513.65,612.43c-.07,1.84,.82,3.25,1.9,4.74,5.87,8.02,12.51,11.14,14.43,10.59,5.51-1.59,3.87-6.77,1.49-10.71-.67-1.21-3.93-6.81-10.35-8.87-4.66-1.85-7.2,.61-7.47,4.25Z"/><path class="ac" d="M520.13,649.41c-1.39,.09-3.02,.05-4.72-.35h-.02c-6.29-1.57-11.77-7.76-13.96-15.8-2.42-8.86-.33-17.62,5.59-23.44,3.47-3.13,7.18-4.67,11.06-4.66,6.99,.03,11.52,5.22,13.22,7.18,4.91,5.64,5.53,12.11,5.9,15.98,.5,5.22,1.03,10.61-2.55,14.99-3.57,4.37-9.2,5.33-11.61,5.74-.72,.12-1.73,.29-2.92,.37Zm-3.81-4.14c2.38,.56,4.7,.17,6.08-.07,2.14-.36,6.6-1.12,9.25-4.36,2.56-3.14,2.16-7.32,1.69-12.16-.35-3.62-.88-9.1-4.96-13.79-1.52-1.74-5.07-5.82-10.31-5.85-2.89-.01-5.71,1.2-8.38,3.6-4.84,4.76-6.55,12.1-4.5,19.58,1.83,6.69,6.2,11.81,11.14,13.04Z"/><path d="M561.91,603.2c.86-1.91,2.83-4.91,6.36-6.56,.47-.22,5.13-2.32,10.15-.26,3.17,1.3,4.78,3.57,7.01,6.69,.7,.98,3.04,4.39,4.59,9.68,1.34,4.59,2.39,8.18,.98,12.35-.34,1-1.83,5.22-6.01,7.42,0,0-2.54,1.34-5.34,1.32-9.72-.06-22.82-19.34-17.74-30.63Z"/><path d="M588.48,651.7c5.07-15.46,18.31-22.91,19.21-23.4,13.15-7.15,25.68-4.4,29.97-3.45,4.67,1.03,10.39,2.36,15.31,7.38,1.6,1.62,5.72,6.29,6.66,13.39,.72,5.44-.81,9.43-2.81,14.68-2.72,7.1-6.13,11.11-12.14,18.17-4.26,5.01-6.84,7.07-9.95,7.12-2.1,.03-3.55-.87-4.88-1.56-10.52-5.54-25.61-5.18-30-5.07-2.81,.07-5.19,.31-7.58-1.22-.61-.39-3.34-2.26-4.81-8.56-1.73-7.42-.09-14.03,1.03-17.46Z"/><path class="n" d="M568.78,601.01c-.07,1.84,.82,3.25,1.9,4.74,5.87,8.02,12.51,11.14,14.43,10.59,5.51-1.59,3.87-6.77,1.49-10.71-.67-1.21-3.93-6.81-10.35-8.87-4.66-1.85-7.2,.61-7.47,4.25Z"/><path class="ac" d="M580.41,635.7c-.25,.02-.51,.02-.77,.02-6.16-.04-12.15-5.95-15.69-11.47-3.87-6.02-6.89-14.92-3.77-21.84h0c.7-1.56,2.81-5.4,7.28-7.5,.97-.45,6.07-2.6,11.68-.3,3.67,1.51,5.51,4.08,7.83,7.34,1.19,1.66,3.39,5.2,4.87,10.25,1.37,4.7,2.56,8.76,.96,13.49-.74,2.2-2.63,6.23-6.92,8.49-.11,.06-2.55,1.33-5.47,1.52Zm-16.76-31.73c-2.49,5.53,.18,13.04,3.5,18.22,3.72,5.79,8.75,9.7,12.52,9.73,2.25,.01,4.42-1.09,4.44-1.1,3.13-1.65,4.53-4.68,5.1-6.35,1.22-3.6,.28-6.79-1.01-11.2-1.32-4.52-3.27-7.65-4.31-9.11-2.12-2.97-3.53-4.94-6.19-6.03-4.22-1.74-8.18,.02-8.62,.22-3.32,1.56-4.9,4.45-5.43,5.63h0Z"/><path class="n" d="M521.56,628.85c-1.43,.17-3.39-1.45-3.65-3.09-.07-.44,0-.8-.28-1.01-.44-.32-1.44,0-1.92,.59-.93,1.15-.08,3.56,1.13,4.96,.27,.32,1.63,1.82,3.75,1.93,.5,.03,1.9,.1,2.84-.86,.17-.17,1-1.07,.72-2.05-.02-.06-.23-.77-.83-.97-.64-.21-.96,.4-1.76,.5Z"/><path class="n" d="M576.7,617.44c-1.43,.17-3.39-1.45-3.65-3.09-.07-.44,0-.8-.28-1.01-.44-.32-1.44,0-1.92,.59-.93,1.15-.08,3.56,1.13,4.96,.27,.32,1.63,1.82,3.75,1.93,.5,.03,1.9,.1,2.84-.86,.17-.17,1-1.07,.72-2.05-.02-.06-.23-.77-.83-.97-.64-.21-.96,.4-1.76,.5Z"/><path d="M495.49,591.18c3.49-9.84,18.21-16.08,27.02-9.49,.34,.27,.24,.84-.16,.99-9,3.87-16.29,8.44-26.23,9.28-.42,.05-.76-.38-.63-.78Z"/><path d="M550.58,578.86c3.93-11.65,22.95-14.49,28.9-3.05,.19,.37-.04,.82-.45,.89-4.77,1.05-9.25,1.16-13.89,1.47-4.7,.24-8.77,.91-13.88,1.43-.42,.09-.81-.32-.68-.73h0Z"/><path class="ad" d="M587.41,765.76c-1.47,9.75-23.43,10.71-22.98-1.04,6.74,3.85,14.27,4.69,22.98,1.04Z"/><path class="ac" d="M574.57,769.63c-7.48,0-10.46-4.31-10.63-4.57-.62-.94-.37-2.21,.57-2.83,.93-.62,2.19-.37,2.82,.55,.22,.31,4.66,6.12,18.08-.04,1.03-.47,2.24-.02,2.71,1.01,.47,1.03,.02,2.24-1.01,2.71-5.14,2.36-9.27,3.18-12.54,3.18Z"/><path class="n" d="M610.79,641.53h30.64c3.38,.01,2.98-4.08,0-6.26,0,0-3.84-3.71-14.22-3.96-10.48,0-14.74,2.39-16.42,3.62-3.1,2.3-3.9,6.6,0,6.6Z"/><path class="n" d="M625.16,646.38h-9.19c-1,0-.75,1.21,0,1.88,0,0,1.15,1.19,4.26,1.19s4.93-1.09,4.93-1.09c.88-.65,1.17-1.98,0-1.98Z"/><g><g id="i"><path class="n" d="M495.55,577.59c.14-1.23-.4-3.15-1.71-7.12-1.72-5.22-4.1-9.13-9.76-16.88-8.96-12.28-9.35-11.18-12.98-17.06-4.13-6.68-6.14-12.21-8.57-18.84-3.75-10.28-5.82-15.93-6.23-23.92-.38-7.31-.88-16.96,5.59-25.05,5.73-7.16,13.73-9.11,16.52-9.78,16.56-4.56,27.56,2.21,28.26,20.49,.81,10.3-3.29,12.76-4.02,27.75-.24,4.9-.43,8.78,.64,13.93,.93,4.49,2.23,7.08,8.84,19.57,6.99,13.21,7.93,14.81,9.76,18.69,1.23,2.59,3.73,8.35,4.59,10.65"/><path class="ab" d="M496.12,577.92c1.37-.37,5.34-7.33-11.3-32.21-10.39-12.93-15.04-27.91-16.84-34.25-3.5-11.04-6.45-22.96-1.19-34.88,6.86-14.24,28.15-16.05,28.15-16.05l-6.14-2.48-18.39,5.21-8.02,6.45-4.68,11.74,.56,17.47,2.45,10.18,5.6,14.88,5.49,11.87,5.1,7.04,5.91,6.75,3.38,6.09,3.89,6.32,3.29,6.34,2.74,9.54Z"/><path class="ac" d="M494.76,577.5c0-1.24-.57-2.63-.97-3.87-1.35-4.06-3.11-7.86-5.55-11.39-4.89-7.07-10.36-13.83-15.97-20.4-5.56-7.07-9.03-15.56-12.01-23.79-1.98-5.44-4.17-10.9-5.42-16.88-2-11.84-2.53-25.77,6.09-35.29,7.38-8.53,23.86-13.46,34.83-9.67,11.54,4.02,14.35,17.67,13.6,28.51-.4,4.44-2.09,8.87-2.91,13.01-1.41,7.99-2.26,16.75-.25,24.69,1.54,5.15,4.61,10.34,7.02,15.3,1.95,3.86,5.8,11.72,7.66,15.63,2.55,5.27,4.38,10.89,6.24,16.42,.12,.35-.08,.73-.43,.85-.31,.1-.65-.04-.8-.32-2.82-5.09-5.17-10.33-8.18-15.29-2.21-3.75-6.53-11.3-8.64-15.1-2.77-5.27-5.99-10.35-7.73-16.14-2.33-8.79-1.57-18.21-.08-27.09,1.03-5.37,3.01-10.03,2.78-15.39-.15-7.67-2.02-17.2-10.16-19.99-4.97-1.76-10.34-.93-15.52,.41-5.26,1.25-10.1,3.77-13.62,7.63-5.68,6.07-6.59,14.59-6.12,22.64,.05,8.62,2.92,16.35,5.88,24.54,2.84,8.11,5.94,15.99,10.99,22.8,3.58,4.4,7.27,9.21,10.49,13.96,4.26,5.99,8.16,12.49,9.74,19.78,.36,1.54,.8,2.95,.62,4.63-.06,.44-.46,.74-.9,.68-.43-.06-.73-.44-.69-.87h0Z"/></g><path class="ac" d="M498.84,553.74c-14.21-20.13-23.51-43.89-26.62-68.58-.6-4.39,2.49-8.43,6.89-8.99,4.37-.56,8.36,2.53,8.92,6.89-.23,11.8,.41,23.69,3.01,35.46,2.39,11.33,6.23,22.47,11.36,33.12,1.06,2.26-2.06,4.14-3.55,2.09h0Z"/></g><g><path class="ae" d="M481.56,303.96l-53.57,9.45-71.02-122.41-11.74,2.07-7.18-40.73,88.18-15.55,7.18,40.73-12.72,2.24,32.98,69.72,12.52-77.75-12.6,2.22-7.18-40.73,74.12-13.07,7.18,40.73-12.6,2.22,38.72,68.71,7.38-76.84-12.23,2.16-7.18-40.73,68.61-12.1,7.18,40.73-11.74,2.07-25.36,139.41-52.84,9.32-34.55-61.5-11.56,69.63Z"/><path class="ae" d="M748.29,255.41l-96.99,17.1-7.18-40.73,15.66-2.76-15.64-88.67-15.66,2.76-7.18-40.73,96.99-17.1,7.18,40.73-15.53,2.74,15.64,88.67,15.53-2.74,7.18,40.73Z"/><path class="ae" d="M928.08,223.71l-161.93,28.55-7.18-40.73,15.29-2.7-15.64-88.67-15.29,2.7-7.18-40.73,97.23-17.14,7.18,40.73-16.14,2.85,15.64,88.67,40.24-7.1-4.81-27.27,40.61-7.16,11.99,68Z"/><path class="ae" d="M1024.09,206.78l-79.13,13.95-7.18-40.73,13.33-2.35-15.64-88.67-13.33,2.35-7.18-40.73,81.45-14.36c18.59-3.28,33.96-4.81,46.1-4.6,12.22,.2,24.18,2.92,35.87,8.18,11.62,5.35,21.48,13.61,29.59,24.8,3.97,5.35,7.32,11.24,10.05,17.65,2.73,6.41,4.74,13.29,6.03,20.63,2.6,14.76,1.84,28.77-2.3,42.02-4.07,13.16-10.31,23.8-18.71,31.93-8.16,8.08-17.61,14.08-28.35,17.99-10.66,3.9-27.53,7.88-50.61,11.95Zm-22.82-129.4l15.64,88.67,6.24-1.1c15.49-2.73,24.84-8.62,28.03-17.68,3.11-9.04,3.57-19.8,1.37-32.27-1.32-7.5-3.61-14.75-6.86-21.74-3.33-6.98-7.92-12.01-13.76-15.1-5.76-3.1-15.17-3.51-28.21-1.21l-2.45,.43Z"/></g><g><path class="ae" d="M938.88,396.97l-79.66,15.48-7.04-36.24,11.43-2.22-15.34-78.9-11.64,2.26-7.04-36.24,79.88-15.53,7.04,36.24-9.69,1.88,4.48,23.07,35.04-6.81-4.48-23.07-9.79,1.9-7.04-36.24,79.77-15.51,7.04,36.24-11.43,2.22,15.34,78.9,11.43-2.22,7.04,36.24-79.77,15.51-7.04-36.24,9.79-1.9-4.82-24.81-35.04,6.81,4.82,24.81,9.69-1.88,7.04,36.24Z"/><path class="ae" d="M1040.02,257.82l-11.64,2.26-7.04-36.24,77.49-15.06,7.04,36.24-7.18,1.4,9.92,51.04c2.37,12.19,5.15,20.27,8.33,24.24,3.17,3.9,7.76,5.27,13.78,4.1,5.01-.97,8.27-3.53,9.8-7.67,1.54-4.06,1.22-11.72-.96-22.97l-10.62-54.63-7.62,1.48-7.04-36.24,56.92-11.06,7.04,36.24-11.97,2.33,10.66,54.85c2.72,14,2.92,25.86,.59,35.57-2.34,9.64-7.74,17.88-16.2,24.72s-19.58,11.6-33.37,14.28c-11.1,2.16-21.19,2.73-30.28,1.71-9.21-.92-16.88-3.57-23-7.95-6.11-4.31-11.09-10-14.95-17.08-3.89-6.85-7.31-17.85-10.26-33.02l-9.43-48.54Z"/><path class="ae" d="M1276.14,331.41l-62.14,12.08-7.04-36.24,13.28-2.58-15.34-78.9-13.28,2.58-7.04-36.24,71.72-13.94,70.45,68.41-8.33-42.88-12.3,2.39-7.04-36.24,61.05-11.87,7.04,36.24-13.17,2.56,22.76,117.1-49.84,9.69-81.56-79.13,10.37,53.33,13.39-2.6,7.04,36.24Z"/><path class="ae" d="M1523.29,283.37l-84.99,16.52-7.04-36.24,13.06-2.54-15.34-78.9-17.41,3.38,5.35,27.53-28.4,5.52-12.4-63.77,150.07-29.17,12.4,63.77-28.4,5.52-5.35-27.53-17.3,3.36,15.34,78.9,13.39-2.6,7.04,36.24Z"/></g><g><path class="n" d="M1360.51,875.76l93.15-37.32s17.07,6.51,28.49,18.95c11.43,12.44,10.99,27.05,10.99,32.26,0,5.21-.72,17.5-4.77,33.27-4.05,15.77-26.18,22.13-26.18,22.13,0,0-8.82,.87-21.99,2.03-13.16,1.16-12.15-8.1-12.15-8.1,0,0-12.44,3.76-21.84,3.76-9.4,0-14.61-5.79-14.61-5.79,0,0,.29,2.31-13.74,1.3-14.03-1.01-5.35-16.49-5.35-16.49-12.87-11.57-12.01-46-12.01-46"/><path class="ad" d="M1363,879.7s2.89,30.39,12.43,39.01c1.25,.96,1.29,3.02,0,6.28,0,0-2.59,5.38-1.31,7.17,.48,.82,1.61,2.33,2.54,2.33,0,0,12.38-.07,14.04-.88,0,0-.41,3.14-.52,3.18s-14.86-.39-14.86-.39c0,0-3.57-2.47-3.67-2.54s-.11-8.47-.11-8.47l.49-4.27-6.25-11.19-3.42-13.94-.27-16.76,.91,.48Z"/><path class="ad" d="M1395.33,926.82l-.47,7.79c5.67,5.84,16.89,5.23,31.51,.68v2.26s-27.78,9.9-33.61-1.98l.61-9.51,1.95,.75Z"/><path class="ad" d="M1445.81,896.94c-17.08,13.44-6.57,24.87,.07,30.31,1.87,1.41,2.01,4.08,0,6.07-1.13,1.2-10.88-1.26-13.03,2.19-2.25,3.62,.95,6.42,.95,6.42,1.17,1.45,32.62,5.24,53.04-20.19,0,0-4.51,21.46-33.74,23.16,0,0-28.2,5.65-23.59-7.15,4.61-12.8,12.33-7.05,12.33-7.05-11.86-15.36-12.07-27.15,3.95-33.76Z"/><path class="ac" d="M1440.44,949.61c13.03-1.14,21.92-2.02,22.01-2.03,.15-.02,.31-.04,.46-.09,.96-.28,23.58-6.96,27.94-23.95,4.5-17.53,4.85-30.38,4.85-33.9v-.55c.02-5.65,.06-20.68-11.66-33.43-11.7-12.74-28.74-19.33-29.46-19.61-.6-.23-1.26-.22-1.86,.02l-93.15,37.32c-.95,.38-1.57,1.28-1.6,2.3-.04,1.4-.69,33.35,11.45,46.57-1.34,2.98-3.42,8.96-.97,13.51,1.61,3,4.72,4.68,9.24,5.01,7.9,.57,11.72,.16,13.74-.58,2.46,1.96,7.51,5.07,14.8,5.07,6.96,0,15.32-1.92,19.66-3.06,.37,1.3,1.06,2.77,2.36,4.1,2.21,2.26,5.5,3.4,9.79,3.4,.77,0,1.57-.04,2.4-.11Zm-13.11-13.08c-.12,.04-12.2,3.65-21.1,3.65-8.07,0-12.54-4.75-12.71-4.94-.75-.83-1.94-1.08-2.95-.61-.41,.19-.76,.48-1.01,.83-.78,.25-3.53,.82-11.49,.25-2.66-.19-4.38-.98-5.11-2.34-1.6-2.95,.83-8.62,1.8-10.36,.58-1.04,.37-2.35-.52-3.14-10.31-9.27-11.13-35.5-11.17-42.37l90.6-36.3c3.6,1.52,17.22,7.69,26.63,17.92,10.37,11.29,10.34,24.38,10.32,29.97v.56c0,3.37-.34,15.68-4.69,32.63-3.44,13.39-22.04,19.57-24.21,20.25-1.53,.15-9.92,.96-21.71,2-3.8,.33-6.59-.27-8.07-1.74-1.48-1.47-1.33-3.49-1.33-3.54,.09-.85-.25-1.69-.91-2.24-.46-.39-1.04-.59-1.63-.59-.25,0-.49,.04-.74,.11Zm-38.24,.73h0Zm0,0h0Zm0,0h0Zm0,0h0Zm0,0h0Zm0,0h0Z"/><path class="n" d="M1414.19,802.14c-.27-2.12-.48-5.18-.12-8.83,.48-4.8,1.77-8.59,5.14-16.31,5.33-12.22,5.87-11.35,7.86-17.07,2.26-6.5,2.93-11.62,3.74-17.76,1.25-9.52,1.94-14.75,.78-21.67-1.07-6.33-2.48-14.69-9.56-20.38-6.27-5.04-13.49-5.18-16.01-5.23-15.04-.75-23.17,7.14-20.29,22.92,1.27,8.97,5.24,10.3,8.73,22.98,1.14,4.15,2.04,7.43,2.11,12.05,.06,4.02-.56,6.49-3.84,18.44-3.47,12.64-3.97,14.19-4.8,17.86-1.57,6.94-2.34,12.65-2.73,16.21"/><path class="ad" d="M1388.63,792.29c4.04-12.63,7.08-21.48,9.53-28.14,.6-1.63,1.63-4.4,2.11-8.27,.88-7.06-.71-12.75-1.69-16.14-.43-1.5-.44-1.28-6.03-14.68-2.25-5.38-3.37-8.14-3.45-11.21-.03-1.11-.16-6.14,2.6-10.32,3.76-5.68,11.83-8.25,20.32-6.73l-11.62-.98-8.37,2.66-6.34,6.34-.37,10.06,2.06,8.94,4.02,8.84,2.89,7.49,2.46,14.78-8.74,36.29-.09,1.24,.72-.15Z"/><path class="ab" d="M1412.5,788.54c.06-.53-2.15-1.3-1.13-7.07,.5-1.42,1.42-5.46,4.41-11.29,3.41-6.63,5.82-13.09,6.53-15.09,4.12-11.63,2.39-21.96,2.31-25.5-.12-5.55-1.2-13.27-6.02-19.37-8.22-10.4-26.32-8.1-29.7-8.4l7.6-5.99,16.48,.06,9.41,5.12,6.15,9.65,1.95,7.65,.52,15.79-2.38,16.64-3.31,11.06-5.32,12.44-5.94,14.68-1.57-.38Z"/><path class="ac" d="M1414.73,802.07c-.24-5.2,.31-10.38,2.05-15.14,1.74-4.79,4.08-9.55,6.28-14.27,1.64-3.61,3.81-7.02,5.24-10.77,2.45-6.27,3.6-13.01,4.45-19.62,.68-5.21,1.56-10.49,1.43-16.03-.04-2.74-.46-5.57-.93-8.14-.92-5.41-2.49-11.01-5.94-15.51-6.44-8.52-16.65-10.58-26.77-9.68-12.45,1.28-18.63,9.98-17.29,22.16,.1,.64,.33,2.38,.44,3.06,.48,4.04,2.38,8.29,4.28,11.65,2.49,4.57,4.08,9.29,5.38,14.33,.66,2.49,1.14,4.91,1.28,7.4,.17,2.54,0,4.84-.57,7.35-1.08,5.01-2.56,10.12-3.81,15.22l-1.94,7.66c-1.98,7.68-3.21,15.63-3.61,23.56l1.01,.11c.89-5.17,1.99-10.29,3.3-15.36,2.02-7.53,4.56-15.11,6.63-22.69,1.05-3.89,2.31-7.76,2.71-11.86,.57-6.97-1.4-13.57-3.54-20.11-1.56-4.94-4.85-9.54-6.29-14.32-3.01-11.73-1.35-22.46,12.46-23.95,11.77-1,22.19,2.39,26.39,14.37,1.56,4.65,2.52,9.97,2.77,14.86,.17,5-.6,10.19-1.23,15.41-.94,7.77-2.11,15.29-5.53,22.28-2.42,4.65-4.62,9.59-6.56,14.49-.99,2.46-1.91,4.98-2.65,7.59-1.49,5.28-1.57,10.86-.52,16.09l1.08-.14h0Z"/><path class="ac" d="M1403.15,783.48c9.11-19.6,13.4-41.55,12.22-63.34-.17-3.88-3.47-6.88-7.35-6.68-3.86,.2-6.82,3.49-6.61,7.35,2.05,10.14,3.36,20.5,2.96,31.07-.28,10.15-1.85,20.36-4.61,30.36-.56,2.12,2.43,3.25,3.39,1.25h0Z"/><path class="n" d="M1350.68,804.89c-19.82,20.68-16.63,44.98-.87,61.91,16.57,15.8,35.46,23.52,56.7,23.14,32.98,1.69,66.1-63.35,32.69-92.43-15.62-13.31-49.32-32.54-88.52,7.38Z"/><path class="ab" d="M1338.64,842.46c-9.32-40.31,52.38-74.2,68.6-56.34-2.85-.31-62.62,3.55-67.99,56.34"/><path class="ad" d="M1352.58,865.92s42.3,24.4,70.28,9.53c27.99-14.87,23.09-67.96,23.09-67.96,0,0,23.22,28.99-13.99,68.15-37.21,39.16-79.38-9.71-79.38-9.71Z"/><path class="ac" d="M1450.46,855.37c7.43-18.41,8.81-43.78-9.61-59.81-17.21-14.66-52.04-33.16-91.99,7.53l-.02,.02c-19.04,19.88-19.39,45.55-.89,65.41l.11,.11c16.98,16.19,36.65,24.21,58.42,23.85,.42,.02,.84,.03,1.27,.03,16.4,0,33.8-15.05,42.72-37.14Zm-44,32.01c-20.42,.35-38.86-7.16-54.84-22.39-16.45-17.71-16.11-40.6,.88-58.34,37.06-37.73,69.19-20.71,85.02-7.23,16.38,14.25,14.98,37.26,8.21,54.03-8.23,20.4-24.66,34.68-39.09,33.93h-.18Z"/><ellipse cx="1358.1" cy="820.45" rx="4.47" ry="4.72"/><ellipse cx="1373.72" cy="833.04" rx="3.28" ry="4.72" transform="translate(85.1 1792.49) rotate(-67.9)"/><ellipse cx="1409.66" cy="834.67" rx="5.66" ry="5.37" transform="translate(147.99 1879.66) rotate(-70.26)"/><path d="M1376.17,843.31c-.12,0-.25-.03-.36-.08-3.01-1.42-4.02-3.46-4.28-5.13-.45,.35-.94,.62-1.48,.79-1.62,.52-3.53,.2-5.84-.99-.42-.21-.58-.73-.37-1.14,.21-.42,.73-.58,1.14-.37,1.89,.97,3.37,1.26,4.54,.88,.91-.29,1.64-1,2.24-2.17l1.56,.68c-.05,.15-1.27,3.8,3.22,5.91,.42,.2,.61,.71,.41,1.13-.15,.31-.45,.49-.77,.49Z"/><path class="ac" d="M1391.83,937.45s-.08,0-.12,0c-.91-.06-1.6-.86-1.54-1.77l.72-10.19c.06-.91,.86-1.61,1.77-1.54,.91,.06,1.6,.86,1.54,1.77l-.72,10.19c-.06,.87-.79,1.54-1.65,1.54Z"/><path class="ac" d="M1397.98,927.24c-7.97,0-14.04-2.12-18.37-6.38-.65-.64-.66-1.69-.02-2.35,.64-.65,1.69-.66,2.35-.02,5.85,5.75,15.74,6.92,30.25,3.58,.89-.21,1.78,.35,1.99,1.24,.21,.89-.35,1.78-1.24,1.99-5.58,1.29-10.56,1.93-14.95,1.93Z"/><path class="ac" d="M1428.09,940.29c-1.3,0-2.42-1-2.54-2.32-.04-.42-.28-4.24,2.86-7.4,1.71-1.72,4.05-2.86,6.98-3.41-3.51-3.62-5.52-8.1-5.7-12.9-.29-7.81,4.29-15.42,12.56-20.89,1.17-.78,2.76-.45,3.53,.72,.78,1.17,.45,2.76-.72,3.53-6.75,4.46-10.49,10.45-10.27,16.45,.19,5.26,3.48,10.06,9.03,13.16,1.05,.59,1.54,1.82,1.19,2.97-.35,1.15-1.46,1.89-2.65,1.79-4.92-.42-8.5,.34-10.33,2.18-1.49,1.5-1.4,3.33-1.4,3.35,.13,1.4-.91,2.64-2.31,2.77-.08,0-.16,.01-.23,.01Z"/><path class="n" d="M1494.81,887.55c21.99-4.41,23.5,32.04-2.39,25.6"/><path class="ab" d="M1492.43,911.62c21.72,4.33,16.54-14.68,16.54-14.68,.85,15.25-16.24,11.58-16.24,11.58l-.31,3.11Z"/><path class="ac" d="M1498.16,916.45c-2,0-4.13-.27-6.35-.82-1.37-.34-2.2-1.72-1.86-3.09,.34-1.37,1.72-2.2,3.09-1.86,6.38,1.59,11.36,.4,14.04-3.35,2.58-3.61,2.6-9.09,.05-13.03-2.44-3.78-6.64-5.29-11.82-4.25-1.38,.28-2.72-.62-3-2-.28-1.38,.62-2.72,2-3,7.26-1.46,13.49,.9,17.1,6.48,3.7,5.72,3.63,13.43-.18,18.76-2.88,4.04-7.48,6.16-13.07,6.16Z"/><g id="j"><path class="n" d="M1427.98,803.67c-.05-1.14,.57-2.87,2.03-6.44,1.92-4.69,4.36-8.13,10.06-14.9,9.03-10.72,9.31-9.68,13.03-14.85,4.22-5.88,6.44-10.84,9.09-16.78,4.11-9.22,6.37-14.28,7.27-21.6,.82-6.7,1.9-15.54-3.53-23.4-4.81-6.95-12.04-9.26-14.57-10.06-14.94-5.26-25.49,.26-27.31,17.03-1.4,9.42,2.2,11.95,1.92,25.77-.09,4.52-.17,8.1-1.48,12.77-1.15,4.06-2.5,6.37-9.39,17.43-7.28,11.7-8.24,13.11-10.18,16.56-1.29,2.31-3.96,7.44-4.91,9.5"/><path class="ab" d="M1427.44,803.95s-5.14-5.3,12.46-28.9c10.39-11.22,15.62-24.7,17.68-30.42,3.93-9.93,7.41-20.7,3.33-32.01-5.39-13.54-24.86-16.57-24.86-16.57l5.8-1.89,16.58,5.97,6.96,6.45,3.55,11.1-1.63,16.03-2.9,9.2-6.11,13.33-5.81,10.57-5.14,6.14-5.87,5.83-3.5,5.38-3.98,5.56-3.43,5.62-3.13,8.6Z"/><path class="ac" d="M1428.72,803.64c.07-1.14,.7-2.38,1.14-3.49,1.5-3.65,3.37-7.02,5.84-10.11,4.95-6.19,10.41-12.05,16-17.73,5.56-6.14,9.31-13.73,12.57-21.11,2.17-4.87,4.54-9.76,6.07-15.18,2.6-10.76,3.98-23.54-3.34-32.85-6.24-8.32-21.08-13.91-31.41-11.13-10.87,2.95-14.33,15.33-14.34,25.35,.09,4.11,1.36,8.29,1.84,12.15,.78,7.44,1,15.55-1.36,22.72-1.74,4.64-4.9,9.22-7.44,13.62-2.04,3.42-6.09,10.41-8.05,13.88-2.68,4.68-4.73,9.74-6.79,14.7-.13,.32,.02,.68,.34,.81,.28,.12,.6,0,.76-.24,2.92-4.5,5.41-9.17,8.5-13.54,2.27-3.31,6.73-9.98,8.91-13.34,2.88-4.67,6.18-9.14,8.15-14.35,2.71-7.93,2.61-16.65,1.81-24.91-.6-5-2.13-9.42-1.57-14.33,.63-7.05,2.96-15.69,10.62-17.73,4.68-1.3,9.57-.2,14.25,1.37,4.76,1.48,9.05,4.12,12.03,7.89,4.84,5.94,5.12,13.85,4.18,21.21-.6,7.92-3.74,14.85-6.98,22.19-3.13,7.27-6.49,14.32-11.57,20.26-3.58,3.81-7.27,8-10.54,12.16-4.3,5.23-8.3,10.97-10.22,17.57-.43,1.39-.93,2.66-.87,4.22,.03,.41,.38,.71,.79,.69,.4-.03,.7-.36,.69-.75h0Z"/></g><path class="ac" d="M1426.48,781.53c14.36-17.6,24.44-38.85,28.88-61.36,.84-3.99-1.75-7.91-5.76-8.71-3.98-.79-7.85,1.79-8.65,5.77-.55,10.86-1.9,21.76-5.05,32.42-2.92,10.26-7.17,20.26-12.57,29.73-1.12,2.01,1.63,3.94,3.13,2.15h0Z"/><ellipse class="ab" cx="1396.96" cy="908.42" rx="9.88" ry="19.24" transform="translate(387.07 2233.89) rotate(-85.73)"/><ellipse class="n" cx="1356.65" cy="819.87" rx="2.04" ry="1.34" transform="translate(126.81 1819.96) rotate(-70.26)"/><ellipse class="n" cx="1407.24" cy="833.51" rx="2.04" ry="1.34" transform="translate(147.48 1876.61) rotate(-70.26)"/></g><rect class="aa" width="1920" height="1080"/></g></g></g></svg>