<?xml version="1.0" encoding="UTF-8"?><svg xmlns="http://www.w3.org/2000/svg" width="1920" height="1080" viewBox="0 0 1920 1080"><defs><style>.i,.j,.k{fill:#e5ae13;}.l{fill:#fff;}.j,.m,.n,.o,.p,.q{mix-blend-mode:multiply;}.r{fill:#b2b2b2;}.s{isolation:isolate;}.t{fill:#634428;}.k,.u{mix-blend-mode:screen;}.v{fill:#281909;}.w{fill:#37230e;}.x,.m{opacity:.3;}.u,.y,.o{fill:#4d8a62;}.n{opacity:.39;}.a`{fill:none;}.aa{fill:#ccc;}.ab{fill:#7a7a7a;}.p{fill:#d8d8d8;}.ac{fill:#eee;}.ad{mix-blend-mode:darken;}.ae{fill:#ffca91;}</style></defs><g class="s"><g id="a"><path class="t" d="M1366.96,616.4c-94.7-121.8-103.8-229,0-316.8l-26-22.5c-82.9,0-144.7-50.6-110.3-144l-11.2-20.3s-213-34.4-255.9-41v-1.1c-.1,0-1.5,.2-3.7,.5-2.3-.3-3.6-.5-3.7-.5v1.1c-42.9,6.7-255.9,41-255.9,41l-11.2,20.4c34.4,93.4-27.4,144-110.3,144l-26,22.5c103.8,87.8,94.7,195,0,316.8-60.4,81.5-42.5,202.3,0,281,98,152.1,394.2,111.5,407,158.3v3.2c0-.8,.1-1.6,.2-2.4,.2,.8,.2,1.6,.2,2.4v-3.2c12.8-46.8,308.9-6.2,407-158.3,42.3-78.8,60.2-199.6-.2-281.1Z"/><g><path class="w" d="M1023.19,1010.65c26.8-4,60-7.6,95.3-13.3V117.95c-31.4-5.1-66.1-10.6-95.3-15.3V1010.65h0Z"/><path class="w" d="M1139.19,993.85c31.8-5.9,64.6-13.7,95.3-25.4V258.95c-24-23.2-32.7-59.3-15.1-107l-10.7-19.5s-30.1-4.9-69.4-11.2V993.85h-.1Z"/><path class="w" d="M781.69,993.85c34.1,6.3,67.1,10.2,95.3,14V105.95c-31.1,5-65.8,10.6-95.3,15.3V993.85Z"/><path class="w" d="M1349.69,614.15c-90.6-116.5-99.3-219,0-303l-24.9-21.5c-26.3,0-50.4-5.4-69.6-15.8V959.65c38.2-17.4,71.9-41.8,94.5-76.9,40.7-75.1,57.8-190.6,0-268.6Z"/><path class="w" d="M665.69,273.75V959.95c30,13.6,62.8,23,95.3,29.9V124.55c-28.9,4.7-49.1,7.9-49.1,7.9l-10.7,19.5c21.9,59.5,3,100.8-35.5,121.8Z"/><path class="w" d="M1002.49,99.35c-17.1-2.7-30.8-4.9-38.7-6.1v-1.1c-.1,0-1.4,.2-3.6,.5-2.2-.3-3.4-.5-3.6-.5v1.1c-10.7,1.7-32.6,5.1-59,9.4V1010.75c34.9,5.3,59,11.2,62.3,23.6v3.1c0-.8,.1-1.6,.2-2.3,.1,.7,.2,1.5,.2,2.3v-3.1c2.7-9.8,18.3-15.6,42-20.2V99.35h.2Z"/><path class="w" d="M644.99,282.55c-14.9,4.7-31.6,7.2-49.3,7.2l-24.9,21.5c99.3,84,90.6,186.5,0,303-57.8,77.9-40.6,193.5,0,268.7,18.5,28.7,44.4,50.2,74.2,66.7V282.55Z"/></g><g><path class="v" d="M592.06,660.8c-27.8,39.4-38.9,90.3-29.8,137.5,2.3,11.3,6.4,22.5,14.8,30.5,4,3.8,8.9,6.7,14,7.9,9.7,2.4,21.8-1.6,24.8-11.8,2.1-6.6-.2-14.7-7.1-17.3-6.9-2.7-15.2-.6-21.3,3.5-5.9,3.7-11.5-4.8-5.7-8.7,6.1-3.8,12.9-5.9,20.1-5.9,12-.1,22.6,7.9,23.7,20.2,.7,7.4-1.7,14.9-6.9,20.3-13.2,13.1-34.7,9.7-46.6-3.1-9.2-9.3-13.7-22-15.8-34.5-8-48.8,4.8-100.4,34.3-139.8,.3-.4,.9-.5,1.4-.2,.3,.3,.4,.9,.1,1.4h0Z"/><path class="v" d="M695.26,957.6c1.4-2.2,3.2-4.4,4.6-6.5,.8-1.2,3.6-5.3,4.4-6.6,1.7-2.8,4-6.3,5.6-9,55.5-94.2,28.5-207.9,9.5-308.9-13.9-71-29.5-143.2-23.9-216,3-43.6,13.8-88.1,37.5-125.1,.3-.5,1-.7,1.5-.3,.4,.3,.6,.8,.4,1.3-4.6,13.7-8.8,27.4-12.3,41.2-12.2,48.3-16.1,98.3-14,148,2.4,63.9,14.7,129.2,26.1,192.1,12.2,70.9,24.9,145.3,4.9,216.1-6.5,22.9-16,45.2-30,64.5-3,4.1-7.1,9-10.6,12.7-1.9,2.1-5.6-.5-3.7-3.5h0Z"/><path class="v" d="M827.66,148.3c14.1,56.8,23.9,119.5,28.2,177.9,2.2,30,1.8,60,2.4,90,.2,54.6-.9,110.8-9.1,164.9-1.9,15-4.8,29.8-10.3,44-.5,1.4-2.1,2.1-3.5,1.5-1.1-.4-1.7-1.5-1.7-2.6-.1-15.2,2.8-29.7,5.1-44.5,10.4-63.5,18.4-128.8,16-193.2-1.6-28.8-4.4-60.5-7.6-89.3-4.4-37.2-12.2-81.1-20.7-117.6,0,0-7.2-29-7.2-29.1-1.1-5.2,6.7-7.7,8.4-2h0Z"/><path class="v" d="M805.66,771.4c1.4,7.2,2.4,14.3,3.6,21.4,1.8,10.5,4,20.8,6.1,31.2,5,24.3,11,48.5,22.1,70.9,6.4,12.8,14.3,25.1,24.8,35,1.1,1,1.1,2.7,.1,3.7-1.1,1.2-3.1,1.1-4.1-.3-8.7-11.9-17.8-23.3-26-35.5-14.6-21.3-26.5-45.5-31.7-71-2-11.1-2.6-22.3-2.1-33.6,.6-7.5,1.5-14.9,3.4-22.1,.4-1.9,3.5-1.8,3.8,.3h0Z"/><path class="v" d="M924.66,1000.5c14.1-12.7,26.8-27.2,35.8-43.9,9.1-16.7,14.6-34.9,18.5-53.5,4.6-20.9,7-42.5,6.5-64.1-.7-35.9-7.7-71.4-14.8-106.6-10.2-50.4-21.5-101.6-28.6-152.6-1.6-12.8-2.9-26.7-3.5-39.6-5.4-119.7,43.5-236.9,24.9-356.6-1.2-7-2.9-15.8-4.6-22.8-4.5-18.5-10.8-36.5-19.6-53.2-1.4-2.7-.4-6,2.3-7.4,2.8-1.5,6.4-.2,7.6,2.8,14.7,36.4,20.9,75.3,21.6,114.2,.8,38.6-3.4,77.1-9.1,115.2-11.6,76-28.5,152.4-19.8,229.4,7.1,76.8,37.5,149.1,44.8,226.5,2.3,21.6,3.2,43.5,2.4,65.2-1,24.2-3,48.6-9.6,72-6.5,22.3-17.9,43.3-34.1,60.1l-2.6,2.6-2.6,2.6-2.7,2.5c-3.5,3.4-7.4,6.3-11.1,9.4-.6,.5-1.4,.4-1.9-.2-.5-.7-.4-1.5,.2-2h0Z"/><path class="v" d="M1037.06,109.1c19.7,20.5,35.5,45,44,72.3,11.4,36.2,12.1,74.7,9.9,112.3-3.1,46.9-12.1,93.2-18.1,139.5-6.1,46.4-11.6,92.8-14.1,139.5-4.9,102.7,2.6,206.3,25.1,306.6,8.2,36.4,18.6,72.4,31,107.5,1,2.8-.5,5.9-3.3,6.9-2.9,1-6.1-.6-7-3.5-11.2-35.9-20.5-72.5-27.9-109.4-7.3-36.7-12.9-74.3-16.6-111.5-3.8-37.3-5.8-74.9-6.3-112.4-.4-75,2-150.3,11.4-224.8,12-104,55.3-236.9-31.9-319.4-1.1-1-1.1-2.7-.1-3.7,1.2-1,2.9-1,3.9,.1h0Z"/><path class="v" d="M1018.46,115.8c28.9,48.5,37.2,106.3,36.4,162-.3,27.9-2.9,55.7-5.8,83.4-7.2,64.1-13.6,128.7-15.7,193.2-3,110.7,7.1,221.8,28.6,330.4,7.3,36.2,15.9,72.1,25.8,107.7,.7,2.5-.8,5-3.2,5.7-2.5,.7-5-.8-5.7-3.2-4.5-18-8.8-36.1-12.8-54.3-28.2-126.7-40.8-256.7-39.4-386.4,.1-64.7,4.1-129.9,12.2-194.2,5.4-45.6,11.1-91.6,6.9-137.5-2.5-27.3-8.2-54.5-19.2-79.8-3.6-8.4-7.9-16.5-12.6-24.3-.8-1.2-.4-2.9,.9-3.6,1.3-.8,2.9-.3,3.6,.9h0Z"/><path class="v" d="M1195.36,133.7c2.6,18.8,2.2,40.4,1.4,59.5-.9,18.3-3.1,41-5.4,59.2-2.6,19.4-5.6,39.4-8.9,58.7-8.1,45.2-20.1,90.6-34.9,134-.5,1.4-2,2.1-3.3,1.7-1.4-.5-2.1-2-1.7-3.3,10-24.4,18.3-49.4,25.1-74.9,9.9-37.8,17-77.6,19.7-116.5,1.8-28.5,2.1-60,1.9-88.6,.2-9.9,.1-19.7,.9-29.6,.2-3.1,4.7-3.4,5.2-.2h0Z"/><path class="v" d="M1221.96,245.8c6.8,54.1-9,107.9-27.3,158.2-14.5,39.2-29.3,79.2-35,120.8-3.9,26.4-3.3,53.2-.8,79.6,6.8,60.6,19.4,120.7,27.8,181.2,4.4,28.9,16.3,107.9,20.8,136.2,2.4,15.1,4.8,30.2,7.5,45.3,.1,.8-.4,1.5-1.1,1.6-.8,.1-1.5-.4-1.6-1.2-2.4-15.1-5-30.2-7.6-45.3-4.9-27.9-19.2-106.5-24.5-135.6-10.2-60.5-23.1-120.4-27.4-181.8-1.7-26.9-.9-54,3.7-80.6,2.8-17,6.9-33.9,11.6-50.5,8.5-30.1,19-63.5,27.8-93.6,5.4-18.2,10.7-36.5,14.5-55.1,2.3-11,4.2-22.4,5.4-33.6,1.6-15,2.1-30.2,1.1-45.3-.1-1.5,1-2.7,2.5-2.8,1.2,.2,2.4,1.2,2.6,2.5h0Z"/><path class="v" d="M1356.96,660.5c-8.4,9.1-13.1,21.6-15.2,33.8-4.9,27.3,2.3,56.5,5.1,83.7,1.2,11.4,1.8,23,.6,34.5-.8,7.8-2.4,15.6-5,23.2-.9,2.8-3.9,4.3-6.6,3.3-3.1-1-4.5-4.7-2.9-7.5,3.4-6.2,5.8-13,7.3-20.1,1.9-8.8,2.3-18.3,2.1-27.5-.2-9-1.3-19-2.4-27.9-3.4-26.2-7.6-53.5-.9-79.7,1.9-7.7,5-15.2,9.2-22.3,4.4-6.7,13.8,.2,8.7,6.5h0Z"/><path class="v" d="M1304.46,603.2c-14.5,19.2-20.7,43.4-21.8,67.2-2,50.2,17.9,97.1,26.8,146,4.5,24.7,6.4,50.3,1.4,75.1-.1,.5-.6,.9-1.2,.8-.5-.1-.9-.6-.8-1.2,1-6.1,1.6-12.3,1.9-18.5,.5-12.4-.5-24.8-2.3-37.1-9.4-61.7-42.2-120.8-33.9-184.7,2.5-19.4,8.9-38.5,20.3-54.7,4.8-6.3,14.2,.5,9.6,7.1h0Z"/></g><rect class="a`" x="1919.81" y="202.89" width="402.3" height="71"/><g><path id="b" class="l" d="M1664.69,218.65c.3-.99,4.62-17.22,5.68-19.18-7.26-6.36-38.43-37.66-1.24-30.9,0,0,17.22-19.53,8.88-51.14,0,0,12.61,10.12,15.27,18.47,0,0,18.64,4,18.2,32.67,0,0,2.93-9.41,2.93-11.54v-7.72s3.11,.53,4.26-.53,4.08,.36,4.08,.36c0,0,1.42,1.6,3.37,1.51,1.95-.09,2.4,1.78,2.4,1.78,0,0,1.42,2.31,2.4,1.15,.98-1.15-1.33,10.3-13.58,16.16l-4.44,2.4s2.18,24.19-21.53,40.04c0,0-6.39,6.79-8.26,12.38,0,0,4.93,23.57-5.19,31.83,0,0-7.09,3.18-16.91,.8,0,0-9.85-2-9.85-13.72s9.99-18.11,9.99-18.11c0,0,2.4-2.92,3.55-6.7Z"/><path d="M1697.03,163.34c.34-18.51-16.37-48.16-19.02-45.9,8.35,31.61-8.88,51.14-8.88,51.14l27.9-5.24Z"/><path class="i" d="M1711.48,168.58s2.93-9.41,2.93-11.54v-7.72s3.11,.53,4.26-.53,4.08,.36,4.08,.36c0,0,1.42,1.6,3.37,1.51,1.95-.09,2.4,1.78,2.4,1.78,0,0,1.42,2.31,2.4,1.15,.98-1.15-1.33,10.3-13.58,16.16l-4.44,2.4"/><g class="m"/><path class="i" d="M1681.01,242.89l26,15.18s-.51-7.24-21.54-23.03"/><path class="k" d="M1703.18,251.21c-3.59-4.42-11.23-12.22-18.87-16.27l-.93,3.74c6.28,2.24,12.89,5.49,19.8,12.53Z"/><g><path class="i" d="M1683.86,228.47l25.48-5.39s-1.46,15.3-25.88,15.3"/><path class="j" d="M1683.46,235.5l.25-6.99,25.63-5.42c-9.27,6.62-22.33,11.16-25.88,12.42Z"/></g><path class="y" d="M1661,257.18s-9.85-2-9.85-13.72,9.99-18.11,9.99-18.11c0,0,2.4-2.92,3.55-6.7l18.42,5.9s4.93,23.57-5.19,31.83c-4.96,2.25-10.74,2.1-16.91,.8,0,0-9.85-2-9.85-13.72s9.99-18.11,9.99-18.11"/><path d="M1669.13,168.59c-7.28-8.47,3.29-29.81-1.06-53.25-.92,3.01-42.25,54.07,2.3,84.13-25.32-26.34-5.87-57.71-3.61-70.49,1.97,14.05-6.26,35.51,2.37,39.61Z"/><path d="M1685.13,220.35c.45-.74,.92-1.47,1.41-2.17,2.33-3.36,4.82-6.01,4.82-6.01-8.72-6.59-12.58-8.19-21-12.7-.51,.93-1.76,5.12-2.96,9.35"/><path class="l" d="M1659.78,247.86c0-4.01,3.91-7.25,8.72-7.25,11.57,.37,11.56,14.14,0,14.51-4.82,0-8.72-3.25-8.72-7.25Z"/><ellipse cx="1667.73" cy="247.86" rx="2.35" ry="3.35"/><path class="j" d="M1717.25,156.19c.04-.13,1.04-7.15,1.04-7.15l1.67-.65-2.71,7.8Z"/><path class="j" d="M1719.95,157.04l3.41-7.35s.68,.58,1.37,.75-4.78,6.6-4.78,6.6Z"/><path class="j" d="M1727.79,151.51s.41,.87,.68,.99-5.97,7.95-5.97,7.95l5.29-8.94Z"/><path class="l" d="M1670.37,199.47c-25.55-24.98-6.11-56.54-3.61-70.49,2.47,10.49-5.7,33.12,2.37,39.61"/><path class="n" d="M1697.03,163.34c-13.7,4.49-49.36,41.93-30.27-34.36,4.12,12.13-6.85,30.24,2.37,39.6,5.35-3.1,16.47-3.93,27.9-5.24Z"/><path d="M1677.04,249.16c-5.13,1.09-12.37,.59-17.26-1.31-1.06,7.67,14.74,11.57,17.26,1.31Z"/><path class="u" d="M1666.44,219.21l-3.54,7.67s-12.22,7.86-9.92,24.2c-1.08-1.91-1.83-4.4-1.83-7.62,0-11.72,9.99-18.11,9.99-18.11,0,0,2.4-2.92,3.55-6.7l1.75,.56Z"/><path class="o" d="M1680.08,223.58l3.03,.97s4.93,23.57-5.19,31.83l-.55,.24c6.53-12.56,3-31.65,2.72-33.03Z"/><path class="j" d="M1712.9,172.13l-.32-.8c10.93-5.65,14.73-14.3,16.02-18.79,.31,.46,1.48,2.02,2.32,1.03,.98-1.15-1.33,10.3-13.58,16.16l-4.44,2.4Z"/><path class="x" d="M1701.4,203.14c4.85-12.7,12.44-37.47,3.69-50.01-15-17.11-14.5-19.29-15-23.28,1.37,1.94,2.49,3.93,3.1,5.83,0,0,18.64,4,18.2,32.67l1.42,3.55s1.49,16.55-11.41,31.24Z"/></g><g><path id="c" class="l" d="M1604.14,517.33c-.39-1.27-5.91-22.05-7.27-24.55,9.3-8.15,49.19-48.21,1.59-39.55,0,0-22.05-25-11.36-65.46,0,0-16.14,12.96-19.55,23.64,0,0-23.87,5.11-23.3,41.82,0,0-3.75-12.05-3.75-14.77v-9.89s-3.98,.68-5.45-.68c-1.48-1.36-5.23,.45-5.23,.45,0,0-1.82,2.05-4.32,1.93-2.5-.11-3.07,2.27-3.07,2.27,0,0-1.82,2.95-3.07,1.48-1.25-1.48,1.7,13.18,17.39,20.68l5.68,3.07s-2.78,30.97,27.56,51.25c0,0,8.18,8.69,10.57,15.85,0,0-6.31,30.17,6.65,40.74,0,0,9.07,4.07,21.65,1.02,0,0,12.61-2.56,12.61-17.56s-12.79-23.18-12.79-23.18c0,0-3.07-3.74-4.55-8.58Z"/><path d="M1562.74,446.53c-.44-23.69,20.96-61.65,24.35-58.75-10.68,40.46,11.36,65.46,11.36,65.46l-35.72-6.71Z"/><path class="i" d="M1544.25,453.24s-3.75-12.05-3.75-14.77v-9.89s-3.98,.68-5.45-.68c-1.48-1.36-5.23,.45-5.23,.45,0,0-1.82,2.05-4.32,1.93-2.5-.11-3.07,2.27-3.07,2.27,0,0-1.82,2.95-3.07,1.48-1.25-1.48,1.7,13.18,17.39,20.68l5.68,3.07"/><g class="m"/><path class="i" d="M1583.25,548.36l-33.28,19.43s.65-9.27,27.57-29.48"/><path class="k" d="M1554.87,559.02c4.59-5.66,14.38-15.64,24.16-20.82l1.19,4.79c-8.03,2.86-16.5,7.02-25.35,16.04Z"/><g><path class="i" d="M1579.6,529.91l-32.62-6.9s1.88,19.59,33.13,19.59"/><path class="j" d="M1580.11,538.91l-.32-8.95-32.81-6.94c11.87,8.47,28.58,14.28,33.13,15.89Z"/></g><path class="y" d="M1608.86,566.66s12.61-2.56,12.61-17.56-12.79-23.18-12.79-23.18c0,0-3.07-3.74-4.55-8.58l-23.58,7.56s-6.31,30.17,6.65,40.74c6.36,2.88,13.75,2.69,21.65,1.02,0,0,12.61-2.56,12.61-17.56s-12.79-23.18-12.79-23.18"/><path d="M1598.46,453.26c9.32-10.85-4.21-38.16,1.35-68.17,1.18,3.86,54.09,69.21-2.94,107.7,32.42-33.71,7.52-73.87,4.63-90.23-2.52,17.99,8.01,45.46-3.03,50.7Z"/><path d="M1577.97,519.51c-.57-.95-1.18-1.88-1.8-2.78-2.98-4.3-6.18-7.69-6.18-7.69,11.17-8.44,16.11-10.48,26.88-16.25,.65,1.19,2.25,6.55,3.78,11.97"/><path class="l" d="M1610.42,554.72c0-5.13-5-9.29-11.17-9.29-14.81,.48-14.8,18.1,0,18.57,6.17,0,11.17-4.16,11.17-9.29Z"/><ellipse cx="1600.25" cy="554.72" rx="3.01" ry="4.29"/><path class="j" d="M1536.86,437.38c-.06-.17-1.33-9.16-1.33-9.16l-2.14-.83,3.47,9.99Z"/><path class="j" d="M1533.39,438.46l-4.36-9.41s-.87,.74-1.76,.96,6.12,8.45,6.12,8.45Z"/><path class="j" d="M1523.36,431.39s-.53,1.11-.87,1.27,7.64,10.18,7.64,10.18l-6.77-11.44Z"/><path class="l" d="M1596.87,492.79c32.71-31.98,7.82-72.38,4.63-90.23-3.16,13.43,7.3,42.4-3.03,50.7"/><path class="n" d="M1562.74,446.53c17.54,5.74,63.18,53.67,38.75-43.98-5.27,15.52,8.77,38.71-3.03,50.69-6.85-3.97-21.09-5.03-35.72-6.71Z"/><path d="M1588.32,556.4c6.57,1.4,15.83,.76,22.1-1.67,1.36,9.82-18.87,14.81-22.1,1.67Z"/><path class="u" d="M1601.9,518.05l4.53,9.82s15.64,10.06,12.7,30.98c1.38-2.45,2.34-5.63,2.34-9.75,0-15-12.79-23.18-12.79-23.18,0,0-3.07-3.74-4.55-8.58l-2.24,.72Z"/><path class="o" d="M1584.43,523.65l-3.87,1.24s-6.31,30.17,6.65,40.74l.7,.3c-8.36-16.07-3.83-40.51-3.48-42.29Z"/><path class="j" d="M1542.42,457.78l.41-1.03c-13.99-7.23-18.86-18.3-20.51-24.05-.4,.59-1.89,2.59-2.97,1.32-1.25-1.48,1.7,13.18,17.38,20.69l5.68,3.07Z"/><path class="x" d="M1557.15,497.48c-6.21-16.26-15.92-47.96-4.73-64.02,19.2-21.91,18.56-24.69,19.2-29.8-1.75,2.49-3.19,5.03-3.96,7.46,0,0-23.87,5.11-23.3,41.82l-1.82,4.55s-1.9,21.19,14.61,40Z"/></g><g><path id="d" class="l" d="M141.87,280.29c-.26-.85-3.96-14.79-4.88-16.47,6.24-5.47,33-32.34,1.07-26.53,0,0-14.79-16.77-7.62-43.92,0,0-10.83,8.69-13.11,15.86,0,0-16.01,3.43-15.63,28.06,0,0-2.52-8.08-2.52-9.91v-6.63s-2.67,.46-3.66-.46-3.51,.3-3.51,.3c0,0-1.22,1.37-2.9,1.3-1.68-.08-2.06,1.52-2.06,1.52,0,0-1.22,1.98-2.06,.99-.84-.99,1.14,8.84,11.66,13.88l3.81,2.06s-1.87,20.78,18.49,34.38c0,0,5.49,5.83,7.09,10.64,0,0-4.23,20.24,4.46,27.33,0,0,6.09,2.73,14.52,.69,0,0,8.46-1.72,8.46-11.78s-8.58-15.55-8.58-15.55c0,0-2.06-2.51-3.05-5.76Z"/><path d="M114.1,232.79c-.29-15.89,14.06-41.36,16.34-39.42-7.17,27.14,7.62,43.92,7.62,43.92l-23.96-4.5Z"/><path class="i" d="M101.7,237.29s-2.52-8.08-2.52-9.91v-6.63s-2.67,.46-3.66-.46-3.51,.3-3.51,.3c0,0-1.22,1.37-2.9,1.3-1.68-.08-2.06,1.52-2.06,1.52,0,0-1.22,1.98-2.06,.99-.84-.99,1.14,8.84,11.66,13.88l3.81,2.06"/><g class="m"/><path class="i" d="M127.86,301.1l-22.33,13.03s.44-6.22,18.49-19.78"/><path class="k" d="M108.82,308.25c3.08-3.8,9.65-10.49,16.21-13.97l.8,3.21c-5.39,1.92-11.07,4.71-17,10.76Z"/><g><path class="i" d="M125.41,288.72l-21.88-4.63s1.26,13.14,22.23,13.14"/><path class="j" d="M125.76,294.76l-.21-6.01-22.01-4.66c7.96,5.68,19.17,9.58,22.23,10.66Z"/></g><path class="y" d="M145.04,313.37s8.46-1.72,8.46-11.78-8.58-15.55-8.58-15.55c0,0-2.06-2.51-3.05-5.76l-15.82,5.07s-4.23,20.24,4.46,27.33c4.26,1.93,9.23,1.8,14.52,.69,0,0,8.46-1.72,8.46-11.78s-8.58-15.55-8.58-15.55"/><path d="M138.06,237.3c6.25-7.28-2.82-25.6,.91-45.73,.79,2.59,36.28,46.43-1.98,72.25,21.75-22.62,5.04-49.56,3.1-60.54-1.69,12.07,5.38,30.5-2.04,34.02Z"/><path d="M124.32,281.74c-.38-.64-.79-1.26-1.21-1.86-2-2.88-4.14-5.16-4.14-5.16,7.49-5.66,10.81-7.03,18.03-10.9,.44,.8,1.51,4.4,2.54,8.03"/><path class="l" d="M146.09,305.37c0-3.44-3.35-6.23-7.49-6.23-9.93,.32-9.93,12.14,0,12.46,4.14,0,7.49-2.79,7.49-6.23Z"/><ellipse cx="139.26" cy="305.37" rx="2.02" ry="2.88"/><path class="j" d="M96.74,226.65c-.04-.11-.89-6.14-.89-6.14l-1.43-.56,2.33,6.7Z"/><path class="j" d="M94.41,227.37l-2.93-6.32s-.59,.5-1.18,.64,4.1,5.67,4.1,5.67Z"/><path class="j" d="M87.68,222.63s-.35,.74-.58,.85,5.13,6.83,5.13,6.83l-4.54-7.68Z"/><path class="l" d="M136.99,263.82c21.94-21.45,5.24-48.55,3.1-60.54-2.12,9.01,4.9,28.44-2.04,34.02"/><path class="n" d="M114.1,232.79c11.76,3.85,42.39,36.01,26-29.51-3.54,10.42,5.88,25.97-2.04,34-4.6-2.67-14.15-3.37-23.96-4.5Z"/><path d="M131.26,306.49c4.41,.94,10.62,.51,14.82-1.12,.91,6.59-12.66,9.93-14.82,1.12Z"/><path class="u" d="M140.37,280.77l3.04,6.59s10.49,6.75,8.52,20.78c.93-1.64,1.57-3.77,1.57-6.54,0-10.06-8.58-15.55-8.58-15.55,0,0-2.06-2.51-3.05-5.76l-1.5,.48Z"/><path class="o" d="M128.65,284.52l-2.6,.83s-4.23,20.24,4.46,27.33l.47,.2c-5.61-10.78-2.57-27.18-2.33-28.37Z"/><path class="j" d="M100.47,240.33l.28-.69c-9.38-4.85-12.65-12.28-13.76-16.13-.27,.39-1.27,1.74-1.99,.89-.84-.99,1.14,8.84,11.66,13.88l3.81,2.06Z"/><path class="x" d="M110.35,266.97c-4.16-10.91-10.68-32.18-3.17-42.95,12.88-14.7,12.45-16.57,12.88-19.99-1.18,1.67-2.14,3.38-2.66,5,0,0-16.01,3.43-15.63,28.06l-1.22,3.05s-1.28,14.22,9.8,26.83Z"/></g><g><path class="l" d="M1615.94,885.51c7.78-7.6,17.11-14.71,27.88-21.38l-4.07-9.6-3.72-5.56-14.53,8.13c-7.76,5.24-14.89-5.28-6.77-10.84,27.35-24.78,74.74-43.21,137.45-56.77l33.96-4.88c12.97-1.37,14.63,14.36,1.66,15.72l-26.05,2.06s1.15,14.59,.98,17.16h0l21.01-3.98c12.58-1.87,13.64,14.38,1.05,16.26l-25.25,3.04c-59.78,8.24-137.46,61.66-137.46,61.66-7.93,6.16-14.26-4.68-6.17-11.02Z"/><path class="aa" d="M1693.22,858.04c-1.33-.56-2.28-1.37-2.74-2.45-1.95-4.64,5.95-12.38,17.65-17.29,11.7-4.91,22.76-5.13,24.7-.49,.61,1.46,.25,3.22-.89,5.1-13.03,4.02-26.22,9.36-38.73,15.13Z"/><path class="p" d="M1615.98,898.13c62.23-61.26,161.43-70.35,176.76-71.4-1.31,2.46-3.93,4.5-7.92,5.1l-25.25,3.04c-59.78,8.24-137.46,61.66-137.46,61.66-2.28,1.77-4.42,2.13-6.13,1.6Z"/><path class="p" d="M1621.51,857.1c-2.71,1.83-5.34,1.73-7.28,.6,10.59-6.68,22.54-11.36,22.54-11.36l-4.07,4.49-11.2,6.27Z"/><path class="p" d="M1787.81,800.33l-24.31,1.92-3.64-1.49c11.87-3.47,27.15-4.17,35.48-4.27-1.41,1.94-3.89,3.45-7.53,3.84Z"/><path class="ab" d="M1794.75,826.6s.03-.08,.05-.12c1.27-3.22,.8-6.81-1.23-9.36-1.28-1.61-4.28-4.17-10.08-3.31l-18.99,3.59c-.12-3.68-.59-10.18-.84-13.39l24.28-1.92c3.5-.37,6.32-1.69,8.22-3.81,1.75-1.97,2.57-4.46,2.3-7.03-.27-2.56-1.59-4.83-3.72-6.39-2.3-1.69-5.34-2.38-8.79-2.02l-34.15,4.91c-66.34,14.35-111.54,33.03-138.17,57.11-4.89,3.42-5.15,8.59-2.87,11.96,2.22,3.27,6.94,4.93,11.67,1.78l14.18-7.81,5.58,12.14c-10.4,6.54-20.01,14-27.42,21.23-5.05,4.02-5.34,9.9-2.69,13.29,2.19,2.81,6.46,4.04,11.07,.49,2.12-1.45,78.51-53.32,136.66-61.33l25.22-3.04c4.68-.7,8.2-3.23,9.73-6.98Zm-34.9-25.84l.14,1.77c.32,4.02,1.11,14.9,.98,16.9l-.15,2.28,23.26-4.4c2.92-.43,5.33,.28,6.71,2.02,1.24,1.57,1.52,3.81,.71,5.86-1.01,2.6-3.56,4.38-6.96,4.89l-25.2,3.03c-59.53,8.21-137.47,61.42-138.25,61.96l-.08,.06c-2.41,1.87-4.77,1.94-6.15,.17-1.57-2.01-1.35-5.64,2.16-8.39l.15-.13c7.55-7.37,16.83-14.49,27.58-21.14l1.29-.8-8.43-18.91-17.1,9.71c-2.97,2.01-5.57,1.05-6.82-.8-1.32-1.94-1.2-4.9,2.04-7.12l.19-.15c25.77-23.35,71.72-42.31,136.57-56.34l33.9-4.87c5.41-.57,8.23,2.33,8.54,5.27,.16,1.56-.34,3.08-1.42,4.3-1.3,1.46-3.34,2.37-5.9,2.64l-27.77,2.19Z"/><g><path class="l" d="M1642.08,861.78c-6.87,6.27-15.21-6.36-4.63-9.61"/><path class="aa" d="M1637.78,852.72c-8.65,3.11-2.74,8.76-2.74,8.76-3.56-5.24,3.29-7.59,3.29-7.59l-.56-1.17Z"/><path class="ab" d="M1634.71,852.23c.71-.43,1.52-.79,2.43-1.06,.56-.17,1.15,.14,1.32,.7,.17,.56-.14,1.15-.7,1.32-2.61,.8-4.12,2.29-4.27,4.19-.14,1.83,1.02,3.79,2.77,4.64,1.68,.82,3.49,.46,5.11-1.02,.43-.39,1.1-.36,1.49,.07s.36,1.1-.07,1.49c-2.27,2.07-4.99,2.56-7.46,1.36-2.54-1.24-4.16-4-3.95-6.71,.16-2.05,1.34-3.79,3.33-4.99Z"/></g><g><path class="l" d="M1708.75,788.38c-.61-.83-1.54-1.98-2.87-3.14-1.75-1.52-3.46-2.43-7.19-4.03-5.9-2.53-5.81-2.05-8.39-3.4-2.94-1.54-4.86-3.11-7.17-5-3.58-2.93-5.55-4.53-7.42-7.35-1.71-2.57-3.98-5.97-3.37-10.3,.54-3.84,3.03-6.27,3.89-7.12,5.03-5.23,10.49-5.14,14.68,1.35,2.51,3.57,1.56,5.34,4.52,10.95,.97,1.83,1.74,3.28,3.24,4.92,1.31,1.43,2.34,2.09,7.43,5.2,5.39,3.29,6.07,3.67,7.58,4.68,2.84,1.92,4.99,3.67,6.31,4.79"/><path class="ac" d="M1714.47,776.49c-5.58-3.1-9.57-5.2-12.63-6.73-.75-.37-2.02-1.01-3.47-2.21-2.64-2.19-3.96-4.71-4.73-6.22-.34-.67-.27-.59-2.73-7.14-.99-2.63-1.5-3.97-2.49-5.07-.36-.4-1.97-2.21-4.32-2.76-3.19-.75-6.87,1.01-9.35,4.34l3.75-4.18,3.81-1.83,4.32,.13,3.45,3.41,2.22,3.82,1.5,4.43,1.46,3.58,4.01,6,15.04,9.85,.44,.41-.3,.19Z"/><path class="aa" d="M1704.86,783.05c-.2-.17,.33-1.17-1.94-2.85-.64-.33-2.3-1.45-5.27-2.5-3.38-1.2-6.36-2.67-7.27-3.14-5.28-2.72-8.08-6.92-9.22-8.18-1.79-1.99-3.96-5.05-4.28-8.78-.55-6.36,6.56-11.53,7.65-12.75l-4.65,.41-5.76,5.46-1.61,4.9,1.03,5.42,1.84,3.33,5.02,5.71,6.33,5.05,4.81,2.79,5.97,2.61,6.93,3.19,.43-.65Z"/><path class="ab" d="M1708.54,788.54c-1.63-1.9-3.53-3.54-5.72-4.64-2.19-1.11-4.58-2-6.91-2.94-1.77-.72-3.66-1.21-5.39-2.05-2.93-1.39-5.55-3.38-8.04-5.42-1.96-1.6-4.01-3.17-5.79-5.15-.89-.97-1.67-2.11-2.36-3.16-1.46-2.2-2.76-4.69-3.03-7.4-.55-5.11,2.35-9.21,6.2-12.23,4.79-3.66,9.83-2.64,13.38,2.07,.18,.26,.67,.94,.85,1.22,1.16,1.58,1.9,3.7,2.34,5.5,.63,2.43,1.63,4.61,2.84,6.8,.59,1.09,1.22,2.1,1.99,3.02,.78,.95,1.6,1.69,2.63,2.39,2.03,1.4,4.24,2.71,6.36,4.08l3.21,2.05c3.23,2.04,6.28,4.43,9.04,7.08l-.32,.37c-2.02-1.52-4.09-2.95-6.23-4.3-3.19-1.97-6.59-3.8-9.81-5.77-1.65-1.02-3.37-1.96-4.86-3.27-2.5-2.26-3.99-5.22-5.39-8.23-1.08-2.25-1.45-4.95-2.52-7.1-2.81-5.11-6.94-8.33-12.27-4.29-4.46,3.53-7,8.16-4.52,13.75,.99,2.15,2.41,4.33,3.93,6.13,1.59,1.81,3.57,3.38,5.52,5,2.89,2.42,5.79,4.67,9.29,5.99,2.38,.83,4.79,1.84,7.08,2.92,1.16,.53,2.31,1.12,3.43,1.79,2.26,1.36,4.13,3.29,5.49,5.47l-.42,.31h0Z"/><path class="ab" d="M1706.47,778.19c-9.66-3.87-18.41-10.16-25.19-18.2-1.22-1.42-1.05-3.56,.38-4.77,1.42-1.2,3.54-1.02,4.75,.4,2.63,4.23,5.59,8.3,9.21,11.88,3.45,3.47,7.37,6.53,11.63,9.13,.9,.56,.22,1.94-.78,1.56h0Z"/><path class="l" d="M1731.95,768.39c13.78,.72,20.68,10.3,20.73,21.44-.6,11.01-4.68,19.96-12.26,26.83-11.01,11.47-44.1-.42-41.97-21.65,1.09-9.82,6.57-27.69,33.5-26.62Z"/><path class="aa" d="M1748.57,777.6c-10.03-17.22-42.86-8.75-42.66,2.86,.9-1.05,23.15-19.41,42.45-2.66"/><path class="ac" d="M1751.42,790.44s-6.79,22.52-21.52,26.53c-14.73,4.02-30.53-16.23-30.53-16.23,0,0,1.42,17.83,27.4,19.3,25.98,1.46,24.65-29.6,24.65-29.6Z"/><path class="ab" d="M1713.59,819.03c-8.68-4.01-17.54-12.45-16.36-24.16,1.2-10.82,7.32-28.81,34.77-27.71h.02c13.24,.69,21.83,9.59,21.89,22.66v.07c-.62,11.28-4.87,20.59-12.63,27.64-.14,.15-.29,.29-.44,.43-5.75,5.41-16.83,5.87-27.25,1.06Zm26-3.28c7.28-6.61,11.27-15.33,11.86-25.95-.07-11.64-7.74-19.56-19.56-20.18-25.45-1.01-31.11,15.56-32.22,25.51-1.05,10.41,7.04,18.02,14.95,21.67,9.62,4.44,20.09,4.03,24.91-.99l.03-.03,.03-.03Z"/><ellipse cx="1734.48" cy="776.3" rx="2.16" ry="2.27" transform="translate(-60.94 1398.82) rotate(-43.23)"/><ellipse cx="1733.15" cy="785.87" rx="2.27" ry="1.58" transform="translate(295.64 2032.86) rotate(-65.33)"/><ellipse cx="1721.08" cy="798.3" rx="2.59" ry="2.73" transform="translate(227.84 1968.61) rotate(-62.97)"/><path d="M1735.68,790.28s.08-.09,.1-.15c.59-1.49,.27-2.54-.19-3.21,.27-.02,.53-.09,.78-.21,.74-.35,1.3-1.09,1.72-2.27,.08-.21-.04-.45-.25-.52-.21-.08-.45,.03-.52,.25-.34,.96-.77,1.55-1.3,1.81-.42,.2-.91,.19-1.5-.02l-.32,.75c.07,.04,1.7,.91,.82,3.14-.08,.21,.02,.45,.23,.53,.15,.06,.32,.02,.43-.08Z"/><g id="e"><path class="l" d="M1704.42,793.47c-.36-.42-1.15-.82-2.84-1.59-2.22-1.01-4.21-1.42-8.45-1.91-6.71-.78-6.46-.32-9.47-.91-3.42-.67-5.83-1.68-8.73-2.89-4.48-1.88-6.95-2.91-9.68-5.18-2.5-2.08-5.79-4.83-6.48-9.38-.61-4.03,1.17-7.22,1.79-8.34,3.51-6.77,9.03-8.32,15.2-3.03,3.6,2.84,3.17,4.92,7.83,9.68,1.52,1.56,2.73,2.79,4.73,3.99,1.74,1.05,2.98,1.41,9.05,3.02,6.41,1.7,7.22,1.88,9.04,2.45,1.22,.38,3.85,1.3,4.86,1.71"/><path class="aa" d="M1704.7,793.39s.06-3.56-13.91-6.03c-7.35-.51-13.63-3.51-16.24-4.84-4.65-2.19-9.43-4.82-11.73-10.13-2.58-6.53,3.26-14.02,3.26-14.02l-2.66,1.25-3.85,7.56-.32,4.56,2.41,5.07,5.86,5.09,4.06,2.27,6.54,2.66,5.52,1.79,3.83,.46,3.98,.11,3.01,.73,3.23,.64,3.06,.84,3.94,1.98Z"/><path class="ab" d="M1704.15,793.7c-.4-.38-1.03-.61-1.55-.85-1.73-.79-3.5-1.35-5.39-1.62-3.78-.54-7.63-.79-11.47-.94-3.98-.32-7.8-1.75-11.38-3.26-2.37-.99-4.81-1.93-7.14-3.33-4.46-2.92-9.16-6.95-9.67-12.63-.56-4.98,2.81-11.84,7.35-14.27,4.79-2.55,10.09,.65,13.39,4.16,1.32,1.47,2.26,3.36,3.36,4.87,2.18,2.87,4.78,5.79,7.97,7.53,2.14,1.05,4.76,1.62,7.11,2.32,1.85,.53,5.57,1.64,7.4,2.22,2.48,.76,4.87,1.86,7.23,2.92,.15,.07,.22,.25,.15,.4-.06,.13-.21,.2-.35,.17-2.51-.61-4.92-1.43-7.45-1.95-1.89-.41-5.65-1.28-7.53-1.74-2.55-.69-5.18-1.17-7.59-2.35-3.57-1.89-6.41-4.98-8.85-8.14-1.44-1.95-2.36-4.01-4.18-5.55-2.55-2.26-6.22-4.53-9.58-2.72-2.07,1.09-3.42,3.09-4.55,5.18-1.18,2.09-1.82,4.43-1.62,6.74,.26,3.68,2.77,6.55,5.53,8.82,2.82,2.58,6.21,3.98,9.77,5.48,3.5,1.52,7,2.89,10.75,3.29,2.51,.16,5.19,.41,7.71,.79,3.24,.42,6.53,1.11,9.38,2.79,.61,.35,1.2,.63,1.7,1.19,.12,.15,.1,.38-.05,.5-.15,.12-.36,.1-.49-.04h0Z"/></g><path class="ab" d="M1697.64,785.21c-10.85-1.44-21.39-5.57-30.38-12-1.61-1.13-2-3.35-.85-4.96,1.13-1.59,3.34-1.96,4.94-.83,3.78,3.63,7.84,7.01,12.47,9.71,4.41,2.64,9.2,4.75,14.22,6.29,1.06,.34,.73,1.92-.39,1.79h0Z"/><ellipse class="l" cx="1734.79" cy="775.62" rx=".65" ry=".98" transform="translate(255.53 1968.45) rotate(-62.97)"/><ellipse class="l" cx="1721.54" cy="797.1" rx=".65" ry=".98" transform="translate(229.16 1968.37) rotate(-62.97)"/></g></g><g><path class="ae" d="M756.15,401.11h-2.5v-4.64h10.93c0,2.67-.19,4.66-.56,5.96-.36,1.25-1.12,2.53-2.29,3.81-1.14,1.28-2.51,2.21-4.13,2.79s-3.35,.88-5.2,.88c-2.75,0-5.26-.46-7.51-1.37-2.26-.89-4.01-2.37-5.24-4.43-1.24-2.03-1.86-4.3-1.86-6.82,0-3.81,1.25-6.88,3.76-9.21,2.48-2.33,5.53-3.5,9.14-3.5,3.01,0,5.37,.73,7.08,2.2v-1.71h5.89v8.54h-5.89c-.52-1.05-1.19-1.85-2.01-2.39s-1.79-.81-2.89-.81c-1.55,0-2.68,.5-3.41,1.51-.71,1.01-1.07,2.86-1.07,5.55s.38,4.51,1.12,5.47c.76,.97,1.87,1.46,3.32,1.46,2.2,0,3.3-1.1,3.3-3.3Z"/><path class="ae" d="M767.98,400.92c0-2.51,1.05-4.62,3.16-6.35s4.96-2.58,8.54-2.58,6.54,.83,8.81,2.5,3.39,3.83,3.39,6.5-1.08,4.73-3.23,6.45-5,2.58-8.54,2.58c-3.82,0-6.8-.86-8.93-2.58-2.13-1.71-3.2-3.88-3.2-6.52Zm8.95,.04c0,2.72,.97,4.08,2.92,4.08,2.06,0,3.09-1.37,3.09-4.11,0-1.25-.25-2.23-.76-2.92-.52-.69-1.24-1.04-2.18-1.04s-1.67,.34-2.23,1.02-.84,1.67-.84,2.97Z"/><path class="ae" d="M794.98,400.92c0-2.51,1.05-4.62,3.16-6.35s4.96-2.58,8.54-2.58,6.54,.83,8.81,2.5,3.39,3.83,3.39,6.5-1.08,4.73-3.23,6.45-5,2.58-8.54,2.58c-3.82,0-6.8-.86-8.93-2.58-2.13-1.71-3.2-3.88-3.2-6.52Zm8.95,.04c0,2.72,.97,4.08,2.92,4.08,2.06,0,3.09-1.37,3.09-4.11,0-1.25-.25-2.23-.76-2.92-.52-.69-1.24-1.04-2.18-1.04s-1.67,.34-2.23,1.02-.84,1.67-.84,2.97Z"/><path class="ae" d="M848.03,404.17v5.36h-11.06v-1.14c-1.64,.97-3.54,1.46-5.7,1.46-2.4,0-4.53-.73-6.38-2.2s-2.78-3.56-2.78-6.29c0-2.94,.86-5.21,2.57-6.82,1.71-1.58,4-2.37,6.87-2.37,2.11,0,3.91,.47,5.41,1.41v-3.13h-2.18v-5.36h11.02v19.09h2.21Zm-11-3.23c0-1.07-.25-1.96-.74-2.67-.49-.7-1.22-1.05-2.2-1.05-2,0-3.01,1.29-3.01,3.88,0,1.07,.25,1.95,.74,2.64,.48,.7,1.21,1.05,2.2,1.05,.89,0,1.62-.31,2.18-.93,.55-.62,.83-1.59,.83-2.92Z"/><path class="ae" d="M858.12,416.79v-4.82c1.21,0,2.02-.11,2.43-.33,.42-.22,.69-.57,.79-1.05,.11-.47,.16-1.9,.16-4.31v-8.44h-1.74v-5.36h10.58v13.52c0,2.85-.14,4.86-.42,6.03-.28,1.2-.8,2.16-1.55,2.88-.75,.75-1.69,1.28-2.81,1.58s-2.62,.46-4.5,.46c-1.16,0-2.14-.05-2.94-.16Zm2.83-29.13c0-.93,.47-1.67,1.41-2.23s2.1-.84,3.48-.84,2.58,.29,3.45,.88c.86,.6,1.28,1.32,1.28,2.18,0,.91-.45,1.65-1.35,2.2s-2.04,.83-3.41,.83-2.54-.25-3.46-.76c-.93-.49-1.39-1.24-1.39-2.25Z"/><path class="ae" d="M874.45,400.92c0-2.51,1.05-4.62,3.16-6.35s4.96-2.58,8.54-2.58,6.54,.83,8.81,2.5,3.39,3.83,3.39,6.5-1.08,4.73-3.23,6.45-5,2.58-8.54,2.58c-3.82,0-6.8-.86-8.93-2.58-2.13-1.71-3.2-3.88-3.2-6.52Zm8.95,.04c0,2.72,.97,4.08,2.92,4.08,2.06,0,3.09-1.37,3.09-4.11,0-1.25-.25-2.23-.76-2.92-.52-.69-1.24-1.04-2.18-1.04s-1.67,.34-2.23,1.02-.84,1.67-.84,2.97Z"/><path class="ae" d="M911.92,409.53h-11.07v-5.36h2.23v-13.73h-2.27v-5.36h11.11v8.49c1.5-.94,3.32-1.41,5.47-1.41,2.71,0,4.95,.77,6.71,2.32s2.65,3.65,2.65,6.31c0,1.31-.21,2.5-.64,3.57s-1.07,2.03-1.92,2.88c-1.7,1.73-3.83,2.6-6.4,2.6-2.27,0-4.23-.49-5.87-1.46v1.14Zm-.07-8.6c0,2.57,1.02,3.85,3.06,3.85,1.93,0,2.9-1.28,2.9-3.83,0-1.22-.27-2.15-.81-2.79-.54-.63-1.26-.95-2.16-.95-.96,0-1.7,.35-2.21,1.04-.52,.71-.77,1.61-.77,2.69Z"/><path class="ae" d="M930.43,416.61v-3.43c.94,0,1.65-.14,2.14-.42,.49-.29,.8-.63,.91-1,.13-.39,.2-1.13,.21-2.23h-3.27v-6.4h8.77v5.47c0,1.97-.07,3.31-.21,4.03-.14,.74-.55,1.45-1.23,2.14-.67,.7-1.49,1.19-2.48,1.46-.95,.26-2.57,.39-4.85,.39Z"/><path class="ae" d="M958.73,417.35h-7.45v-5.19h2.87l.86-1.74-6.54-12.59h-1.32v-5.36h11.62v5.36h-1.88l2.97,6.7,2.74-6.7h-1.65v-5.36h8.81v5.36h-1.71l-9.32,19.51Z"/><path class="ae" d="M971.23,400.92c0-2.51,1.05-4.62,3.16-6.35s4.96-2.58,8.54-2.58,6.54,.83,8.81,2.5,3.39,3.83,3.39,6.5-1.08,4.73-3.23,6.45-5,2.58-8.54,2.58c-3.82,0-6.8-.86-8.93-2.58-2.13-1.71-3.2-3.88-3.2-6.52Zm8.95,.04c0,2.72,.97,4.08,2.92,4.08,2.06,0,3.09-1.37,3.09-4.11,0-1.25-.25-2.23-.76-2.92-.52-.69-1.24-1.04-2.18-1.04s-1.67,.34-2.23,1.02-.84,1.67-.84,2.97Z"/><path class="ae" d="M999.57,397.84h-2.06v-5.36h10.9v8.12c0,1.37,.13,2.29,.39,2.76,.25,.48,.77,.72,1.58,.72,.98,0,1.9-.26,2.74-.79v-5.45h-2.34v-5.36h11.18v11.69h2.06v5.36h-10.9v-2.16c-2.33,1.65-4.72,2.48-7.15,2.48-1.75,0-3.25-.56-4.5-1.67-1.27-1.11-1.9-3.21-1.9-6.29v-4.04Z"/><path class="ae" d="M1040.1,409.53h-13.75v-5.36h2.32v-6.33h-2.32v-5.36h10.58v4.27c.4-1.07,1.01-1.99,1.85-2.76,.8-.76,1.61-1.26,2.43-1.49,.79-.22,1.94-.33,3.46-.33v7.51c-.2-.01-.45-.02-.74-.02-1.8,0-3.15,.18-4.03,.54-.91,.38-1.54,.87-1.86,1.48-.34,.63-.52,1.46-.53,2.5h2.58v5.36Z"/><path class="ae" d="M1081.31,404.17v5.36h-11.06v-1.14c-1.64,.97-3.54,1.46-5.7,1.46-2.4,0-4.53-.73-6.38-2.2s-2.78-3.56-2.78-6.29c0-2.94,.86-5.21,2.57-6.82,1.71-1.58,4-2.37,6.87-2.37,2.11,0,3.91,.47,5.41,1.41v-3.13h-2.18v-5.36h11.02v19.09h2.21Zm-11-3.23c0-1.07-.25-1.96-.74-2.67-.49-.7-1.22-1.05-2.2-1.05-2,0-3.01,1.29-3.01,3.88,0,1.07,.25,1.95,.74,2.64,.48,.7,1.21,1.05,2.2,1.05,.89,0,1.62-.31,2.18-.93,.55-.62,.83-1.59,.83-2.92Z"/><path class="ae" d="M1084.12,400.92c0-2.51,1.05-4.62,3.16-6.35s4.96-2.58,8.54-2.58,6.54,.83,8.81,2.5,3.39,3.83,3.39,6.5-1.08,4.73-3.23,6.45-5,2.58-8.54,2.58c-3.82,0-6.8-.86-8.93-2.58-2.13-1.71-3.2-3.88-3.2-6.52Zm8.95,.04c0,2.72,.97,4.08,2.92,4.08,2.06,0,3.09-1.37,3.09-4.11,0-1.25-.25-2.23-.76-2.92-.52-.69-1.24-1.04-2.18-1.04s-1.67,.34-2.23,1.02-.84,1.67-.84,2.97Z"/><path class="ae" d="M1112.24,415.84l2.43-4.32c1.37,.57,3.21,.86,5.52,.86,1.52,0,2.71-.22,3.57-.65,.87-.42,1.42-.92,1.67-1.49,.23-.57,.35-1.39,.35-2.44-1.77,.89-3.74,1.34-5.92,1.34-2.54,0-4.69-.73-6.43-2.18-1.77-1.44-2.65-3.44-2.65-5.99,0-2.7,.92-4.83,2.76-6.42,1.83-1.58,4.04-2.37,6.64-2.37,2.13,0,4,.47,5.61,1.41v-1.09h10.93v5.36h-2.13v9.35c0,2.09-.19,3.69-.56,4.82-.39,1.12-1.08,2.09-2.07,2.88-1,.83-2.24,1.43-3.74,1.79-1.49,.39-3.46,.58-5.92,.58-1.1,0-2.08-.04-2.94-.11s-1.85-.19-2.96-.35c-1.9-.3-3.28-.63-4.13-.97Zm7.47-14.73c0,1.04,.26,1.91,.79,2.6,.53,.7,1.28,1.05,2.25,1.05,1.03,0,1.8-.36,2.3-1.07,.5-.69,.76-1.56,.76-2.62,0-1.15-.27-2.08-.81-2.79-.55-.73-1.29-1.09-2.21-1.09-1,0-1.76,.38-2.29,1.14-.53,.75-.79,1.68-.79,2.78Z"/><path class="ae" d="M1160.07,409.53h-12.08v-5.36h1.76v-6.33h-1.76v-5.36h10.6v11.69h1.48v5.36Zm-11.06-21.87c0-.93,.47-1.67,1.42-2.23,.94-.56,2.1-.84,3.48-.84s2.56,.29,3.43,.88c.86,.6,1.28,1.32,1.28,2.18,0,.93-.45,1.66-1.34,2.2-.9,.55-2.04,.83-3.41,.83s-2.55-.25-3.48-.76c-.93-.49-1.39-1.24-1.39-2.25Z"/><path class="ae" d="M1168.93,409.74h-5.47v-5.41h5.12c1.31,1.38,2.75,2.07,4.31,2.07s2.36-.32,2.36-.97c0-.33-.17-.58-.51-.76-.35-.19-1.28-.46-2.79-.83-1.22-.33-2.57-.71-4.04-1.14-1.28-.36-2.29-.82-3.02-1.37-.76-.55-1.27-1.09-1.53-1.62-.28-.53-.42-1.22-.42-2.07,0-1.89,.67-3.28,2-4.17,1.32-.88,3.01-1.32,5.04-1.32s3.88,.4,5.31,1.2v-.88h5.4v4.96h-4.99c-1.24-1.18-2.72-1.78-4.43-1.78-1.35,0-2.02,.36-2.02,1.07,0,.34,.2,.56,.6,.67,.34,.11,1.46,.36,3.38,.76,2.17,.46,3.86,.91,5.08,1.37,1.21,.46,2.12,1.06,2.72,1.81,.6,.75,.9,1.67,.9,2.76,0,1.97-.73,3.42-2.2,4.36-1.45,.93-3.25,1.39-5.38,1.39s-3.92-.39-5.4-1.16v1.05Z"/><path class="ae" d="M817.63,441.04v-5.36h10.9v1.14c1.88-.97,3.8-1.46,5.78-1.46,2.53,0,4.71,.82,6.52,2.46,1.8,1.65,2.71,3.81,2.71,6.49s-.88,4.82-2.65,6.38c-1.78,1.57-4.1,2.36-6.94,2.36-2.11,0-3.91-.47-5.41-1.41v3.55h2.25v5.36h-13.18v-5.36h2.09v-14.15h-2.06Zm10.85,3.23c0,1.23,.28,2.16,.84,2.78,.55,.63,1.25,.95,2.09,.95,2,0,3.01-1.28,3.01-3.83s-.96-3.74-2.88-3.74c-.88,0-1.61,.3-2.18,.91-.59,.62-.88,1.6-.88,2.94Z"/><path class="ae" d="M860.08,452.73h-13.75v-5.36h2.32v-6.33h-2.32v-5.36h10.58v4.27c.4-1.07,1.01-1.99,1.85-2.76,.8-.76,1.61-1.26,2.43-1.49,.79-.22,1.94-.33,3.46-.33v7.51c-.2-.01-.45-.02-.74-.02-1.8,0-3.15,.18-4.03,.54-.91,.38-1.54,.87-1.86,1.48-.34,.63-.52,1.46-.53,2.5h2.58v5.36Z"/><path class="ae" d="M866.24,444.12c0-2.51,1.05-4.62,3.16-6.35s4.96-2.58,8.54-2.58,6.54,.83,8.81,2.5,3.39,3.83,3.39,6.5-1.08,4.73-3.23,6.45-5,2.58-8.54,2.58c-3.82,0-6.8-.86-8.93-2.58-2.13-1.71-3.2-3.88-3.2-6.52Zm8.95,.04c0,2.72,.97,4.08,2.92,4.08,2.06,0,3.09-1.37,3.09-4.11,0-1.25-.25-2.23-.76-2.92-.52-.69-1.24-1.04-2.18-1.04s-1.67,.34-2.23,1.02-.84,1.67-.84,2.97Z"/><path class="ae" d="M894.57,441.04h-2.06v-5.36h10.9v8.12c0,1.37,.13,2.29,.39,2.76,.25,.48,.77,.72,1.58,.72,.98,0,1.9-.26,2.74-.79v-5.45h-2.34v-5.36h11.18v11.69h2.06v5.36h-10.9v-2.16c-2.33,1.65-4.72,2.48-7.15,2.48-1.75,0-3.25-.56-4.5-1.67-1.27-1.11-1.9-3.21-1.9-6.29v-4.04Z"/><path class="ae" d="M947.8,447.37v5.36h-11.06v-1.14c-1.64,.97-3.54,1.46-5.7,1.46-2.4,0-4.53-.73-6.38-2.2s-2.78-3.56-2.78-6.29c0-2.94,.86-5.21,2.57-6.82,1.71-1.58,4-2.37,6.87-2.37,2.11,0,3.91,.47,5.41,1.41v-3.13h-2.18v-5.36h11.02v19.09h2.21Zm-11-3.23c0-1.07-.25-1.96-.74-2.67-.49-.7-1.22-1.05-2.2-1.05-2,0-3.01,1.29-3.01,3.88,0,1.07,.25,1.95,.74,2.64,.48,.7,1.21,1.05,2.2,1.05,.89,0,1.62-.31,2.18-.93,.55-.62,.83-1.59,.83-2.92Z"/><path class="ae" d="M959.61,444.12c0-2.51,1.05-4.62,3.16-6.35s4.96-2.58,8.54-2.58,6.54,.83,8.81,2.5,3.39,3.83,3.39,6.5-1.08,4.73-3.23,6.45-5,2.58-8.54,2.58c-3.82,0-6.8-.86-8.93-2.58-2.13-1.71-3.2-3.88-3.2-6.52Zm8.95,.04c0,2.72,.97,4.08,2.92,4.08,2.06,0,3.09-1.37,3.09-4.11,0-1.25-.25-2.23-.76-2.92-.52-.69-1.24-1.04-2.18-1.04s-1.67,.34-2.23,1.02-.84,1.67-.84,2.97Z"/><path class="ae" d="M1000.15,452.73h-13.8v-5.36h2.16v-6.33h-2.16v-5.36h2.16v-.4c0-1.78,.38-3.21,1.14-4.29,.75-1.05,1.75-1.85,2.99-2.39,1.23-.54,3.26-.81,6.08-.81,1.27,0,2.51,.02,3.74,.07v4.76c-.83-.08-1.56-.12-2.2-.12-.81,0-1.44,.11-1.88,.32-.46,.22-.76,.52-.9,.9-.15,.35-.23,1.01-.23,1.97h3.27v5.36h-3.27v6.33h2.88v5.36Z"/><path class="ae" d="M1022.49,460.55h-7.45v-5.19h2.87l.86-1.74-6.54-12.59h-1.32v-5.36h11.62v5.36h-1.88l2.97,6.7,2.74-6.7h-1.65v-5.36h8.81v5.36h-1.71l-9.32,19.51Z"/><path class="ae" d="M1034.99,444.12c0-2.51,1.05-4.62,3.16-6.35s4.96-2.58,8.54-2.58,6.54,.83,8.81,2.5,3.39,3.83,3.39,6.5-1.08,4.73-3.23,6.45-5,2.58-8.54,2.58c-3.82,0-6.8-.86-8.93-2.58-2.13-1.71-3.2-3.88-3.2-6.52Zm8.95,.04c0,2.72,.97,4.08,2.92,4.08,2.06,0,3.09-1.37,3.09-4.11,0-1.25-.25-2.23-.76-2.92-.52-.69-1.24-1.04-2.18-1.04s-1.67,.34-2.23,1.02-.84,1.67-.84,2.97Z"/><path class="ae" d="M1063.32,441.04h-2.06v-5.36h10.9v8.12c0,1.37,.13,2.29,.39,2.76,.25,.48,.77,.72,1.58,.72,.98,0,1.9-.26,2.74-.79v-5.45h-2.34v-5.36h11.18v11.69h2.06v5.36h-10.9v-2.16c-2.33,1.65-4.72,2.48-7.15,2.48-1.75,0-3.25-.56-4.5-1.67-1.27-1.11-1.9-3.21-1.9-6.29v-4.04Z"/><path class="ae" d="M1100.47,452.73h-8.77v-6.4h8.77v6.4Zm-1.41-9.83h-5.99l-1.23-7.61v-7.01h8.49v6.87l-1.27,7.75Z"/><path class="ae" d="M689.22,539.13h-13.73v-5.85h2.11v-12.74h-2.81v4.45h-4.59v-10.3h24.24v10.3h-4.59v-4.45h-2.79v12.74h2.16v5.85Z"/><path class="ae" d="M710.73,539.13h-13.75v-5.36h2.32v-6.33h-2.32v-5.36h10.58v4.27c.4-1.07,1.01-1.99,1.85-2.76,.8-.76,1.61-1.26,2.43-1.49,.79-.22,1.94-.33,3.46-.33v7.51c-.2-.01-.45-.02-.74-.02-1.8,0-3.15,.18-4.03,.54-.91,.38-1.54,.87-1.86,1.48-.34,.63-.52,1.46-.53,2.5h2.58v5.36Z"/><path class="ae" d="M729.07,546.95h-7.45v-5.19h2.87l.86-1.74-6.54-12.59h-1.32v-5.36h11.62v5.36h-1.88l2.97,6.7,2.74-6.7h-1.65v-5.36h8.81v5.36h-1.71l-9.32,19.51Z"/><path class="ae" d="M751.28,530.52c0-2.51,1.05-4.62,3.16-6.35s4.96-2.58,8.54-2.58,6.54,.83,8.81,2.5,3.39,3.83,3.39,6.5-1.08,4.73-3.23,6.45-5,2.58-8.54,2.58c-3.82,0-6.8-.86-8.93-2.58-2.13-1.71-3.2-3.88-3.2-6.52Zm8.95,.04c0,2.72,.97,4.08,2.92,4.08,2.06,0,3.09-1.37,3.09-4.11,0-1.25-.25-2.23-.76-2.92-.52-.69-1.24-1.04-2.18-1.04s-1.67,.34-2.23,1.02-.84,1.67-.84,2.97Z"/><path class="ae" d="M791.47,539.13h-13.5v-5.36h2.2v-6.33h-2.2v-5.36h11.04v2.16c2.17-1.65,4.49-2.48,6.98-2.48,2.18,0,3.82,.6,4.92,1.81,1.09,1.21,1.63,3.15,1.63,5.82v4.38h2.02v5.36h-10.86v-7.58c0-1.65-.14-2.74-.42-3.27-.3-.52-.88-.77-1.74-.77-.79,0-1.63,.3-2.53,.9v5.36h2.46v5.36Z"/><path class="ae" d="M821.46,533.73l7.29,.9c-.33,.76-.79,1.44-1.37,2.05s-1.3,1.13-2.14,1.57c-1.7,.91-3.73,1.37-6.1,1.37-3.97,0-6.96-.83-8.96-2.48-2-1.64-3.01-3.79-3.01-6.45s.99-4.77,2.97-6.5c1.96-1.73,4.61-2.6,7.96-2.6s5.85,.82,7.88,2.46c1.99,1.63,3.05,4.11,3.18,7.44h-13.43c.04,2.77,1.07,4.15,3.09,4.15,1.22,0,2.1-.63,2.64-1.9Zm-5.62-4.46h4.97c.02-.35,.04-.55,.04-.6,0-.93-.23-1.69-.7-2.3-.47-.6-1.09-.9-1.86-.9s-1.41,.33-1.83,.98c-.42,.67-.63,1.49-.63,2.46,0,.13,0,.25,.02,.35Z"/><path class="ae" d="M854.68,539.13h-13.36v-5.36h2.11v-6.33h-2.14v-5.36h11v2.34c.84-.71,1.95-1.34,3.32-1.86,1.36-.53,2.66-.79,3.9-.79,2.89,0,4.83,1.11,5.82,3.34,2.61-2.23,5.28-3.34,8-3.34,1.49,0,2.71,.32,3.67,.95,.98,.64,1.68,1.5,2.07,2.57,.41,1.1,.62,2.65,.62,4.64v3.85h2.25v5.36h-11.09v-7.33c0-1.91-.15-3.1-.44-3.57s-.82-.7-1.58-.7c-.96,0-1.93,.36-2.9,1.09v5.15h2.41v5.36h-11.25v-7.29c0-1.88-.13-3.06-.39-3.57-.26-.49-.78-.74-1.56-.74-.9,0-1.85,.36-2.85,1.09v5.15h2.39v5.36Z"/><path class="ae" d="M884.42,530.52c0-2.51,1.05-4.62,3.16-6.35s4.96-2.58,8.54-2.58,6.54,.83,8.81,2.5,3.39,3.83,3.39,6.5-1.08,4.73-3.23,6.45-5,2.58-8.54,2.58c-3.82,0-6.8-.86-8.93-2.58-2.13-1.71-3.2-3.88-3.2-6.52Zm8.95,.04c0,2.72,.97,4.08,2.92,4.08,2.06,0,3.09-1.37,3.09-4.11,0-1.25-.25-2.23-.76-2.92-.52-.69-1.24-1.04-2.18-1.04s-1.67,.34-2.23,1.02-.84,1.67-.84,2.97Z"/><path class="ae" d="M924.78,539.13h-13.75v-5.36h2.32v-6.33h-2.32v-5.36h10.58v4.27c.4-1.07,1.01-1.99,1.85-2.76,.8-.76,1.61-1.26,2.43-1.49,.79-.22,1.94-.33,3.46-.33v7.51c-.2-.01-.45-.02-.74-.02-1.8,0-3.15,.18-4.03,.54-.91,.38-1.54,.87-1.86,1.48-.34,.63-.52,1.46-.53,2.5h2.58v5.36Z"/><path class="ae" d="M945.24,533.73l7.29,.9c-.33,.76-.79,1.44-1.37,2.05s-1.3,1.13-2.14,1.57c-1.7,.91-3.73,1.37-6.1,1.37-3.97,0-6.96-.83-8.96-2.48-2-1.64-3.01-3.79-3.01-6.45s.99-4.77,2.97-6.5c1.96-1.73,4.61-2.6,7.96-2.6s5.85,.82,7.88,2.46c1.99,1.63,3.05,4.11,3.18,7.44h-13.43c.04,2.77,1.07,4.15,3.09,4.15,1.22,0,2.1-.63,2.64-1.9Zm-5.62-4.46h4.97c.02-.35,.04-.55,.04-.6,0-.93-.23-1.69-.7-2.3-.47-.6-1.09-.9-1.86-.9s-1.41,.33-1.83,.98c-.42,.67-.63,1.49-.63,2.46,0,.13,0,.25,.02,.35Z"/><path class="ae" d="M978.68,532.91v5.24c-.57,.39-1.41,.73-2.5,1.02-1.15,.3-2.25,.46-3.3,.46-1.32,0-2.46-.22-3.41-.65-.97-.45-1.71-1.04-2.2-1.79-.27-.43-.47-.83-.6-1.19s-.22-.76-.28-1.2c-.08-.77-.12-2.27-.12-4.48v-2.87h-2.18v-5.36h2.18v-2.62l8.84-4.2v6.82h3.57v5.36h-3.57v3.3c0,1.08,.1,1.8,.3,2.16,.19,.36,.59,.54,1.2,.54,.57,0,1.27-.18,2.07-.54Z"/><path class="ae" d="M993.35,539.13h-12.08v-5.36h1.76v-6.33h-1.76v-5.36h10.6v11.69h1.48v5.36Zm-11.06-21.87c0-.93,.47-1.67,1.42-2.23,.94-.56,2.1-.84,3.48-.84s2.56,.29,3.43,.88c.86,.6,1.28,1.32,1.28,2.18,0,.93-.45,1.66-1.34,2.2-.9,.55-2.04,.83-3.41,.83s-2.55-.25-3.48-.76c-.93-.49-1.39-1.24-1.39-2.25Z"/><path class="ae" d="M1009.56,539.13h-13.36v-5.36h2.11v-6.33h-2.14v-5.36h11v2.34c.84-.71,1.95-1.34,3.32-1.86,1.36-.53,2.66-.79,3.9-.79,2.89,0,4.83,1.11,5.82,3.34,2.61-2.23,5.28-3.34,8-3.34,1.49,0,2.71,.32,3.67,.95,.98,.64,1.68,1.5,2.07,2.57,.41,1.1,.62,2.65,.62,4.64v3.85h2.25v5.36h-11.09v-7.33c0-1.91-.15-3.1-.44-3.57s-.82-.7-1.58-.7c-.96,0-1.93,.36-2.9,1.09v5.15h2.41v5.36h-11.25v-7.29c0-1.88-.13-3.06-.39-3.57-.26-.49-.78-.74-1.56-.74-.9,0-1.85,.36-2.85,1.09v5.15h2.39v5.36Z"/><path class="ae" d="M1053.61,533.73l7.29,.9c-.33,.76-.79,1.44-1.37,2.05s-1.3,1.13-2.14,1.57c-1.7,.91-3.73,1.37-6.1,1.37-3.97,0-6.96-.83-8.96-2.48-2-1.64-3.01-3.79-3.01-6.45s.99-4.77,2.97-6.5c1.96-1.73,4.61-2.6,7.96-2.6s5.85,.82,7.88,2.46c1.99,1.63,3.05,4.11,3.18,7.44h-13.43c.04,2.77,1.07,4.15,3.09,4.15,1.22,0,2.1-.63,2.64-1.9Zm-5.62-4.46h4.97c.02-.35,.04-.55,.04-.6,0-.93-.23-1.69-.7-2.3-.47-.6-1.09-.9-1.86-.9s-1.41,.33-1.83,.98c-.42,.67-.63,1.49-.63,2.46,0,.13,0,.25,.02,.35Z"/><path class="ae" d="M1080.24,526.84l-6.93-.7c.76-1.68,1.99-2.85,3.69-3.53,1.68-.68,4.15-1.02,7.42-1.02,1.21,0,2.29,.04,3.24,.11s1.81,.19,2.56,.34c1.56,.29,2.71,.74,3.46,1.35,.75,.62,1.27,1.29,1.56,2,.3,.74,.46,1.89,.46,3.45v4.92h2.18v5.36h-11.02v-1.16c-1.52,.98-3.56,1.48-6.12,1.48-2.4,0-4.21-.53-5.43-1.58-1.23-1.05-1.85-2.3-1.85-3.74,0-1.59,.76-2.9,2.27-3.92,1.5-1.02,3.46-1.53,5.87-1.53,2.2,0,3.96,.29,5.26,.86v-.51c0-1.05-.08-1.79-.23-2.21-.16-.45-.53-.83-1.09-1.14-.59-.3-1.27-.46-2.04-.46-1.42,0-2.51,.54-3.27,1.63Zm6.63,7.93v-3.11c-.79-.42-1.62-.63-2.5-.63-.77,0-1.39,.21-1.85,.63-.46,.43-.69,.98-.69,1.65s.23,1.25,.7,1.69c.48,.45,1.03,.67,1.65,.67,1.1,0,1.99-.3,2.67-.9Z"/><path class="ae" d="M1113.62,539.13h-13.5v-5.36h2.2v-6.33h-2.2v-5.36h11.04v2.16c2.17-1.65,4.49-2.48,6.98-2.48,2.18,0,3.82,.6,4.92,1.81,1.09,1.21,1.63,3.15,1.63,5.82v4.38h2.02v5.36h-10.86v-7.58c0-1.65-.14-2.74-.42-3.27-.3-.52-.88-.77-1.74-.77-.79,0-1.63,.3-2.53,.9v5.36h2.46v5.36Z"/><path class="ae" d="M1155.35,533.77v5.36h-11.06v-1.14c-1.64,.97-3.54,1.46-5.7,1.46-2.4,0-4.53-.73-6.38-2.2s-2.78-3.56-2.78-6.29c0-2.94,.86-5.21,2.57-6.82,1.71-1.58,4-2.37,6.87-2.37,2.11,0,3.91,.47,5.41,1.41v-3.13h-2.18v-5.36h11.02v19.09h2.21Zm-11-3.23c0-1.07-.25-1.96-.74-2.67-.49-.7-1.22-1.05-2.2-1.05-2,0-3.01,1.29-3.01,3.88,0,1.07,.25,1.95,.74,2.64,.48,.7,1.21,1.05,2.2,1.05,.89,0,1.62-.31,2.18-.93,.55-.62,.83-1.59,.83-2.92Z"/><path class="ae" d="M1165.44,546.39v-4.82c1.21,0,2.02-.11,2.43-.33,.42-.22,.69-.57,.79-1.05,.11-.47,.16-1.9,.16-4.31v-8.44h-1.74v-5.36h10.58v13.52c0,2.85-.14,4.86-.42,6.03-.28,1.2-.8,2.16-1.55,2.88-.75,.75-1.69,1.28-2.81,1.58s-2.62,.46-4.5,.46c-1.16,0-2.14-.05-2.94-.16Zm2.83-29.13c0-.93,.47-1.67,1.41-2.23s2.1-.84,3.48-.84,2.58,.29,3.45,.88c.86,.6,1.28,1.32,1.28,2.18,0,.91-.45,1.65-1.35,2.2s-2.04,.83-3.41,.83-2.54-.25-3.46-.76c-.93-.49-1.39-1.24-1.39-2.25Z"/><path class="ae" d="M1181.77,530.52c0-2.51,1.05-4.62,3.16-6.35s4.96-2.58,8.54-2.58,6.54,.83,8.81,2.5,3.39,3.83,3.39,6.5-1.08,4.73-3.23,6.45-5,2.58-8.54,2.58c-3.82,0-6.8-.86-8.93-2.58-2.13-1.71-3.2-3.88-3.2-6.52Zm8.95,.04c0,2.72,.97,4.08,2.92,4.08,2.06,0,3.09-1.37,3.09-4.11,0-1.25-.25-2.23-.76-2.92-.52-.69-1.24-1.04-2.18-1.04s-1.67,.34-2.23,1.02-.84,1.67-.84,2.97Z"/><path class="ae" d="M1220.57,539.13h-12.08v-5.36h1.76v-6.33h-1.76v-5.36h10.6v11.69h1.48v5.36Zm-11.06-21.87c0-.93,.47-1.67,1.42-2.23,.94-.56,2.1-.84,3.48-.84s2.56,.29,3.43,.88c.86,.6,1.28,1.32,1.28,2.18,0,.93-.45,1.66-1.34,2.2-.9,.55-2.04,.83-3.41,.83s-2.55-.25-3.48-.76c-.93-.49-1.39-1.24-1.39-2.25Z"/><path class="ae" d="M1236.56,539.13h-13.5v-5.36h2.2v-6.33h-2.2v-5.36h11.04v2.16c2.17-1.65,4.49-2.48,6.98-2.48,2.18,0,3.82,.6,4.92,1.81,1.09,1.21,1.63,3.15,1.63,5.82v4.38h2.02v5.36h-10.86v-7.58c0-1.65-.14-2.74-.42-3.27-.3-.52-.88-.77-1.74-.77-.79,0-1.63,.3-2.53,.9v5.36h2.46v5.36Z"/><path class="ae" d="M790.48,582.33h-23.33v-5.85h1.9v-12.74h-1.93v-5.85h23.36v7.82h-6.42v-1.97h-5.55v3.76h4.83v4.97h-4.83v4.01h5.55v-1.97h6.42v7.82Z"/><path class="ae" d="M805.93,582.33h-12.22v-5.36h1.81v-13.73h-1.81v-5.36h10.65v19.09h1.56v5.36Z"/><path class="ae" d="M820.46,582.33h-12.08v-5.36h1.76v-6.33h-1.76v-5.36h10.6v11.69h1.48v5.36Zm-11.06-21.87c0-.93,.47-1.67,1.42-2.23,.94-.56,2.1-.84,3.48-.84s2.56,.29,3.43,.88c.86,.6,1.28,1.32,1.28,2.18,0,.93-.45,1.66-1.34,2.2-.9,.55-2.04,.83-3.41,.83s-2.55-.25-3.48-.76c-.93-.49-1.39-1.24-1.39-2.25Z"/><path class="ae" d="M836.88,576.11v5.24c-.57,.39-1.41,.73-2.5,1.02-1.15,.3-2.25,.46-3.3,.46-1.32,0-2.46-.22-3.41-.65-.97-.45-1.71-1.04-2.2-1.79-.27-.43-.47-.83-.6-1.19s-.22-.76-.28-1.2c-.08-.77-.12-2.27-.12-4.48v-2.87h-2.18v-5.36h2.18v-2.62l8.84-4.2v6.82h3.57v5.36h-3.57v3.3c0,1.08,.1,1.8,.3,2.16,.19,.36,.59,.54,1.2,.54,.57,0,1.27-.18,2.07-.54Z"/><path class="ae" d="M854.07,576.93l7.29,.9c-.33,.76-.79,1.44-1.37,2.05s-1.3,1.13-2.14,1.57c-1.7,.91-3.73,1.37-6.1,1.37-3.97,0-6.96-.83-8.96-2.48-2-1.64-3.01-3.79-3.01-6.45s.99-4.77,2.97-6.5c1.96-1.73,4.61-2.6,7.96-2.6s5.85,.82,7.88,2.46c1.99,1.63,3.05,4.11,3.18,7.44h-13.43c.04,2.77,1.07,4.15,3.09,4.15,1.22,0,2.1-.63,2.64-1.9Zm-5.62-4.46h4.97c.02-.35,.04-.55,.04-.6,0-.93-.23-1.69-.7-2.3-.47-.6-1.09-.9-1.86-.9s-1.41,.33-1.83,.98c-.42,.67-.63,1.49-.63,2.46,0,.13,0,.25,.02,.35Z"/><path class="ae" d="M886.84,582.33h-12.87v-5.85h1.85v-12.74h-1.88v-5.85h12.9v5.85h-1.56v3.73h5.66v-3.73h-1.58v-5.85h12.88v5.85h-1.85v12.74h1.85v5.85h-12.88v-5.85h1.58v-4.01h-5.66v4.01h1.56v5.85Z"/><path class="ae" d="M906.74,570.64h-2.06v-5.36h10.9v8.12c0,1.37,.13,2.29,.39,2.76,.25,.48,.77,.72,1.58,.72,.98,0,1.9-.26,2.74-.79v-5.45h-2.34v-5.36h11.18v11.69h2.06v5.36h-10.9v-2.16c-2.33,1.65-4.72,2.48-7.15,2.48-1.75,0-3.25-.56-4.5-1.67-1.27-1.11-1.9-3.21-1.9-6.29v-4.04Z"/><path class="ae" d="M947.1,582.33h-13.5v-5.36h2.2v-6.33h-2.2v-5.36h11.04v2.16c2.17-1.65,4.49-2.48,6.98-2.48,2.18,0,3.82,.6,4.92,1.81,1.09,1.21,1.63,3.15,1.63,5.82v4.38h2.02v5.36h-10.86v-7.58c0-1.65-.14-2.74-.42-3.27-.3-.52-.88-.77-1.74-.77-.79,0-1.63,.3-2.53,.9v5.36h2.46v5.36Z"/><path class="ae" d="M976.38,576.11v5.24c-.57,.39-1.41,.73-2.5,1.02-1.15,.3-2.25,.46-3.3,.46-1.32,0-2.46-.22-3.41-.65-.97-.45-1.71-1.04-2.2-1.79-.27-.43-.47-.83-.6-1.19s-.22-.76-.28-1.2c-.08-.77-.12-2.27-.12-4.48v-2.87h-2.18v-5.36h2.18v-2.62l8.84-4.2v6.82h3.57v5.36h-3.57v3.3c0,1.08,.1,1.8,.3,2.16,.19,.36,.59,.54,1.2,.54,.57,0,1.27-.18,2.07-.54Z"/><path class="ae" d="M993.57,576.93l7.29,.9c-.33,.76-.79,1.44-1.37,2.05s-1.3,1.13-2.14,1.57c-1.7,.91-3.73,1.37-6.1,1.37-3.97,0-6.96-.83-8.96-2.48-2-1.64-3.01-3.79-3.01-6.45s.99-4.77,2.97-6.5c1.96-1.73,4.61-2.6,7.96-2.6s5.85,.82,7.88,2.46c1.99,1.63,3.05,4.11,3.18,7.44h-13.43c.04,2.77,1.07,4.15,3.09,4.15,1.22,0,2.1-.63,2.64-1.9Zm-5.62-4.46h4.97c.02-.35,.04-.55,.04-.6,0-.93-.23-1.69-.7-2.3-.47-.6-1.09-.9-1.86-.9s-1.41,.33-1.83,.98c-.42,.67-.63,1.49-.63,2.46,0,.13,0,.25,.02,.35Z"/><path class="ae" d="M1017.76,582.33h-13.75v-5.36h2.32v-6.33h-2.32v-5.36h10.58v4.27c.4-1.07,1.01-1.99,1.85-2.76,.8-.76,1.61-1.26,2.43-1.49,.79-.22,1.94-.33,3.46-.33v7.51c-.2-.01-.45-.02-.74-.02-1.8,0-3.15,.18-4.03,.54-.91,.38-1.54,.87-1.86,1.48-.34,.63-.52,1.46-.53,2.5h2.58v5.36Z"/><path class="ae" d="M1029.96,582.54h-5.47v-5.41h5.12c1.31,1.38,2.75,2.07,4.31,2.07s2.36-.32,2.36-.97c0-.33-.17-.58-.51-.76-.35-.19-1.28-.46-2.79-.83-1.22-.33-2.57-.71-4.04-1.14-1.28-.36-2.29-.82-3.02-1.37-.76-.55-1.27-1.09-1.53-1.62-.28-.53-.42-1.22-.42-2.07,0-1.89,.67-3.28,2-4.17,1.32-.88,3.01-1.32,5.04-1.32s3.88,.4,5.31,1.2v-.88h5.4v4.96h-4.99c-1.24-1.18-2.72-1.78-4.43-1.78-1.35,0-2.02,.36-2.02,1.07,0,.34,.2,.56,.6,.67,.34,.11,1.46,.36,3.38,.76,2.17,.46,3.86,.91,5.08,1.37,1.21,.46,2.12,1.06,2.72,1.81,.6,.75,.9,1.67,.9,2.76,0,1.97-.73,3.42-2.2,4.36-1.45,.93-3.25,1.39-5.38,1.39s-3.92-.39-5.4-1.16v1.05Z"/><path class="ae" d="M1074.52,571.55l6.35,2.23c-.54,2.61-1.78,4.75-3.71,6.42-1.96,1.68-4.65,2.51-8.09,2.51-4.69,0-8.16-1.22-10.41-3.67-2.26-2.44-3.39-5.41-3.39-8.93s1.11-6.54,3.32-9.02,5.09-3.71,8.63-3.71c2.87,0,5.21,.71,7.01,2.13v-1.63h5.87v8.93h-6.1c-.32-1.11-.85-1.99-1.6-2.64-.75-.63-1.61-.95-2.57-.95-2.65,0-3.97,2.28-3.97,6.84s1.37,6.86,4.11,6.86c2.4,0,3.91-1.79,4.54-5.36Z"/><path class="ae" d="M1095.79,582.33h-12.22v-5.36h1.81v-13.73h-1.81v-5.36h10.65v19.09h1.56v5.36Z"/><path class="ae" d="M1099.87,570.64h-2.06v-5.36h10.9v8.12c0,1.37,.13,2.29,.39,2.76,.25,.48,.77,.72,1.58,.72,.98,0,1.9-.26,2.74-.79v-5.45h-2.34v-5.36h11.18v11.69h2.06v5.36h-10.9v-2.16c-2.33,1.65-4.72,2.48-7.15,2.48-1.75,0-3.25-.56-4.5-1.67-1.27-1.11-1.9-3.21-1.9-6.29v-4.04Z"/><path class="ae" d="M1137.52,582.33h-11.07v-5.36h2.23v-13.73h-2.27v-5.36h11.11v8.49c1.5-.94,3.32-1.41,5.47-1.41,2.71,0,4.95,.77,6.71,2.32s2.65,3.65,2.65,6.31c0,1.31-.21,2.5-.64,3.57s-1.07,2.03-1.92,2.88c-1.7,1.73-3.83,2.6-6.4,2.6-2.27,0-4.23-.49-5.87-1.46v1.14Zm-.07-8.6c0,2.57,1.02,3.85,3.06,3.85,1.93,0,2.9-1.28,2.9-3.83,0-1.22-.27-2.15-.81-2.79-.54-.63-1.26-.95-2.16-.95-.96,0-1.7,.35-2.21,1.04-.52,.71-.77,1.61-.77,2.69Z"/></g><g><path class="ae" d="M431.85,393.76l-78.34,13.39-5.87-34.33,11.55-1.97-3.89-22.78-45.07-45.77-9.79,1.67-5.87-34.33,74.94-12.81,5.87,34.33-8.56,1.46,20.26,26.67,13.45-32.43-8.76,1.5-5.87-34.33,55.15-9.43,5.87,34.33-8.97,1.53-27.2,58.12,3.89,22.78,11.34-1.94,5.87,34.33Z"/><path class="ae" d="M456.95,315.31c-2.04-11.96-1.1-24.04,2.82-36.24,3.87-12.12,11.23-23.03,22.09-32.74,3.87-3.42,7.96-6.31,12.26-8.67,4.3-2.36,9.06-4.43,14.27-6.21,5.21-1.77,10.77-3.17,16.69-4.18,25.7-4.39,46.88-.27,63.55,12.37,8.28,6.22,14.94,13.36,20,21.41,5.05,8.05,8.41,16.92,10.07,26.61,3.42,20-.89,38.63-12.94,55.9-12.04,17.27-30.47,28.02-55.28,32.26-23.99,4.1-44.62,.49-61.91-10.85-17.34-11.25-27.88-27.81-31.62-49.66Zm62.26-10.65c2.73,15.94,6.11,26.43,10.16,31.47,3.92,5.13,9.04,7.15,15.36,6.07,6.25-1.07,10.46-4.58,12.63-10.54,2.15-6.03,1.84-17.15-.93-33.37-2.69-15.74-6.04-26.2-10.03-31.39-3.92-5.13-9.11-7.14-15.57-6.04-6.19,1.06-10.36,4.57-12.52,10.52-2.16,5.96-1.86,17.05,.91,33.26Z"/><path class="ae" d="M639.99,245.92l-11.03,1.89-5.87-34.33,73.4-12.55,5.87,34.33-6.8,1.16,8.27,48.35c1.97,11.55,4.42,19.23,7.33,23.04,2.9,3.75,7.21,5.13,12.91,4.16,4.74-.81,7.88-3.15,9.41-7.02,1.54-3.8,1.4-11.03-.42-21.68l-8.85-51.75-7.22,1.23-5.87-34.33,53.91-9.22,5.87,34.33-11.34,1.94,8.88,51.95c2.27,13.26,2.2,24.45-.2,33.56-2.42,9.04-7.69,16.7-15.81,22.97-8.12,6.27-18.71,10.52-31.77,12.75-10.51,1.8-20.05,2.12-28.59,.96-8.67-1.06-15.85-3.73-21.52-7.99-5.67-4.19-10.25-9.67-13.74-16.43-3.52-6.54-6.51-16.99-8.97-31.36l-7.86-45.98Z"/><path class="ae" d="M935.32,307.68l-77.93,13.32-5.87-34.33,11.65-1.99-12.78-74.74-11.65,1.99-5.87-34.33,77.93-13.32c7.01-1.2,13.52-2.19,19.54-2.97,6.02-.78,11.2-1.31,15.54-1.6,4.34-.28,8.36-.35,12.06-.21,10.4,.42,19.33,3.66,26.81,9.74,7.57,6.2,12.2,14.25,13.89,24.15,1.27,7.42,.5,14.49-2.32,21.19-2.83,6.64-7.13,11.9-12.9,15.79l25.4,29.4,10.31-1.76,5.87,34.33-51.65,8.83-41.25-53.21-17.63,3.01,4.14,24.23,10.82-1.85,5.87,34.33Zm-29.96-110.1l4.67,27.32,6.19-1.06c8.11-1.39,13.57-2.57,16.37-3.54,3.01-1.01,5.39-2.83,7.13-5.46,1.77-2.49,2.33-5.6,1.7-9.31-.63-3.71-2.21-6.48-4.71-8.32-2.52-1.9-5.47-2.81-8.85-2.73-3.24,.06-9.06,.81-17.44,2.24l-5.05,.86Z"/><path class="ae" d="M1023.41,218.46c-2.04-11.96-1.1-24.04,2.82-36.24,3.87-12.12,11.23-23.03,22.09-32.74,3.87-3.42,7.96-6.31,12.26-8.67,4.3-2.36,9.06-4.43,14.27-6.21,5.21-1.77,10.77-3.17,16.69-4.18,25.7-4.39,46.88-.27,63.55,12.37,8.28,6.22,14.95,13.36,20,21.41,5.05,8.05,8.41,16.92,10.07,26.61,3.42,20-.89,38.63-12.94,55.9-12.04,17.27-30.47,28.02-55.28,32.26-23.98,4.1-44.62,.49-61.91-10.85-17.34-11.25-27.88-27.81-31.62-49.66Zm62.26-10.65c2.73,15.94,6.11,26.43,10.16,31.47,3.92,5.13,9.04,7.15,15.36,6.07,6.25-1.07,10.46-4.58,12.63-10.54,2.15-6.03,1.84-17.15-.93-33.37-2.69-15.74-6.04-26.2-10.03-31.39-3.92-5.13-9.11-7.14-15.57-6.04s-10.36,4.57-12.52,10.52c-2.16,5.96-1.86,17.05,.91,33.26Z"/><path class="ae" d="M1320.26,176.83l39.45,6.73c-.54,15.87-5.65,29.65-15.32,41.34-9.8,11.79-24.76,19.41-44.9,22.85-27.49,4.7-49.06,1-64.71-11.11-15.71-12.03-25.32-28.35-28.85-48.97-3.55-20.75-.07-39.49,10.44-56.21,10.51-16.72,26.14-26.86,46.9-30.4,16.84-2.88,31.26-1.06,43.26,5.44l-1.64-9.59,34.43-5.89,8.95,52.37-35.77,6.12c-2.97-6.21-6.98-10.83-12.02-13.86-5.03-2.96-10.37-3.96-16-2.99-15.53,2.66-21.01,17.35-16.44,44.08,4.58,26.8,14.91,38.83,31,36.08,14.09-2.41,21.16-14.4,21.22-35.99Z"/><path class="ae" d="M1464.56,217.2l-77.73,13.29-5.87-34.33,10.93-1.87-12.78-74.74-11.24,1.92-5.87-34.33,78.04-13.34,5.87,34.33-11.34,1.94,12.78,74.74,11.34-1.94,5.87,34.33Zm89.17-15.25l-74.22,12.69-5.87-34.33,6.91-1.18-38.42-35.45,30.69-40.15-11.65,1.99-5.87-34.33,70.61-12.07,5.87,34.33-11.13,1.9-24.62,32.22,44.72,41.27,7.11-1.22,5.87,34.33Z"/><path class="ae" d="M1624.96,189.78l-51.44,8.79-6.42-37.52,51.44-8.79,6.42,37.52Zm-18.1-56.21l-35.15,6.01-14.85-43.4-7.03-41.13,49.79-8.51,6.89,40.31,.35,46.73Z"/></g><g><path class="l" d="M464.33,844.96l2.84,.13-3.49,22.49-2.07,7.37-1.12,18.48,.89,9.79,2.39,4.37,5.2,2.31,12.37,2.66,38.95,2.46,22.41-8.39,10.56-13.33,2.26-16.61-3.04-16.87-.65-13.19,15.08,7.58,15.25-.26,19.65-11.29,17.84-14.48,3.71-.09,14.13-9.65,3.1-21.37-5.43-12.07-10.6-2.07-8.88,5.52,8.55-12.87-8.14-7.35-3.55,7.93-7.92,6.12-6.53,6.86-24.04,24.22s-35.33-18.36-56.43-19.91c-6.14-1.38-22.86-1.38-40.44,2.54"/><path class="l" d="M478.61,793.5c-18.83,9.63-44.24,40.29-44.24,40.29l-31.64-11.3-9.14-2.88-6.18-4.63-9.71-4.88-3.1,7.71,11.74,9.24-10.32-1.63-8.96,6.03-.31,13.23,11.17,18.48,16.78,3.39,3.45-1.36,22.07,6.4,22.49,2.76,14.15-5.7,10.94-12.85s22.48-25.08,37.56-26.26"/><path class="l" d="M509.02,912.74l-8.36,76.61,1.98,2.93,16.37,3.1,12.41,4.48,8.88,2.33,8.79,.6,6.12-2.59,4.14-5.17-.43-5.43-4.31-5.95-7.58-5.17-9.82-1.55,4.74-32.06,2.84-24.39,1.03-17.06c-9.95,5.12-22.62,7.88-36.8,9.31Z"/><polygon class="ac" points="542.08 907.87 534.3 974.4 537.81 973.82 545.82 905.23 542.08 907.87"/><path class="ac" d="M528.95,979.33s19.36,.61,23.11,7.52c3.76,6.91,2.92,10.27,2.92,10.27l-.12,1.42,3.7-.23-.28-12.82-10.46-7.49c-7.41,.13-14.38,.38-18.89,1.32Z"/><path class="ac" d="M509.17,912.12l-7.87,77.17,2.54,2.53,24.62,6.81,7.21,3.37,7.05-1.21s-14.78-7.52-25.46-8.93c-10.68-1.41-11.71-2.7-11.71-2.7-2.07-2.09,6.12-66.78,5.65-77.09l-2.03,.04Z"/><path class="ac" d="M468.52,838.55s3.41,16.26,1.3,24.92c-2.11,8.66-4.97,23.66-4.97,23.66,0,0-1.86,11.37,3.1,17.81,4.96,6.44,22.19-.72,23.28-1.35,8.06-4.28,26.56-2.72,34.39-1.08,0,0,18.24,1.29,28.59-14.74,0,0,.61,4.76-2.33,7.89s-11.27,8.53-11.27,8.53c0,0-17.3,6.89-23.77,5.71-6.46-1.18-27.75-1.32-27.75-1.32,0,0-14.5,2.85-22.79,.78-8.28-2.07-5.53-20.51-5.53-20.51l7.04-49.23"/><path class="ab" d="M547.93,1006.37h-.15c-1.54-.05-15.18-.53-20.46-4.52-3.17-2.4-15.33-4.34-20.53-5.17-2.27-.36-3.49-.56-4.15-.74-3.32-.89-5.37-4.28-5.59-4.67l-.41-.71,8.19-78.16c.15-1.39,1.4-2.4,2.78-2.25,1.39,.15,2.4,1.39,2.25,2.78l-8,76.42c.52,.67,1.33,1.5,2.1,1.7,.43,.12,1.99,.36,3.63,.63,9,1.44,18.93,3.22,22.78,6.13,2.98,2.25,12.17,3.33,17.39,3.49,5.18-.53,9.41-3.39,10.3-6.99,1.02-4.14-2.66-8.07-4.05-9.55-7.48-7.99-20.59-5.94-23.14-5.45-1.37,.26-2.7-.63-2.97-2.01-.27-1.37,.63-2.7,2.01-2.97,3.01-.58,18.5-2.98,27.8,6.96,1.72,1.84,6.95,7.43,5.26,14.23-1.43,5.78-7.42,10.13-14.89,10.83h-.15Z"/><path class="l" d="M502.38,912.7l-6.16,81.89-2.3,2.69-16.62,1.26-12.83,3.07-9.08,1.33-8.8-.38-5.79-3.25-3.54-5.6,1.03-5.35,4.94-5.43,8.11-4.3,9.94-.45-1.15-32.39-.52-23.26,.87-17.07c9.32,6.2,27.83,6.97,41.9,7.22Z"/><path class="ab" d="M538.93,977.49c-.12,0-.24,0-.36-.03-1.38-.2-2.35-1.48-2.15-2.86,.08-.54,7.73-54.45,7.56-69.77-.02-1.4,1.11-2.54,2.5-2.56,1.42,.03,2.54,1.11,2.56,2.5,.17,15.7-7.29,68.3-7.61,70.54-.18,1.26-1.26,2.18-2.5,2.18Z"/><path class="ac" d="M502.25,911.82l-6.61,82.57-2.88,2.13-25.35,3.16-7.63,2.28-6.46-.3s15.38-7.21,26.16-7.05,11.98-.96,11.98-.96c2.35-1.77,7.78-71.7,9.74-81.83h1.06Z"/><path class="ab" d="M507.45,913.76c-9.75,0-18.23-1.51-18.81-1.61-1.38-.25-2.29-1.57-2.04-2.94,.25-1.38,1.57-2.29,2.94-2.04,.22,.04,22.35,3.96,35.17-.95,1.31-.5,2.77,.15,3.27,1.46,.5,1.31-.15,2.77-1.46,3.27-5.63,2.16-12.63,2.82-19.07,2.82Z"/><path class="ab" d="M544.87,1005.33c-1.37,0-2.5-1.1-2.53-2.48-.06-2.87-1.99-6.24-2.73-7.3-.8-1.14-.53-2.72,.62-3.52,1.14-.8,2.72-.53,3.52,.61,.14,.21,3.55,5.09,3.65,10.11,.03,1.4-1.08,2.55-2.48,2.58h-.05Z"/><g><path class="l" d="M543.46,575.65s1.49-10.46,15.29-20.66c0,0,1.03,19.9,2.51,24.46,1.49,4.56,1.88,9.64,6.18,14.44,4.3,4.8,19.69,2.08,19.69,2.08,0,0,15.33-4.51,19.73-16.4,4.4-11.89,3.26-21.38,3.26-21.38,0,0-2.89-16.03-6.82-19.94-3.93-3.91-3.22-9.23-15-17.07-11.79-7.84-23.51-9.72-23.51-9.72,0,0-9.48-2.2-19.18,3.45-9.7,5.65-10.52,7.68-14.64,13.8-4.12,6.12-6.07,24.42-6.07,24.42"/><path class="aa" d="M600.6,588.42c-3.11,6.76-15.57,8.59-25.85,9.02-10.28,.42-13.96-13.94-13.96-13.94l-.39-16.18s-1.03-15.38-5.95-25.85c-4.91-10.47-14.09-14.18-14.09-14.18,0,0,13.19-2.76,19.78,17.8,0,0,7.05,17.13,7.44,31.21,.61,8.64,3.46,11.73,6,13.08,2.54,1.35,18.36,6.84,32.58-8.15l-5.57,7.21Z"/><path class="aa" d="M536.23,561.36c-6.51-8.56,.75-30.94,3.43-31.8,10.05,6.12,14.88,15.37,16.35,26.63l-10.6,12.86-7.5-4.33-1.68-3.36Z"/><path class="ab" d="M579.9,600.03c-5.85,0-11.8-1.54-16.02-5.79-4.89-4.92-6.22-12.07-6.86-15.51-.68-3.66-.64-6.46-.62-8.14v-.38c.07-6.56-.71-22.92-9.49-33.22-3.33-3.9-7.85-6.92-13.43-8.97-.1-.04-.2-.08-.3-.13-6.39,9.61-6.25,20.35-5.99,23.83,.1,1.44-.97,2.68-2.41,2.79-1.42,.11-2.68-.97-2.79-2.41-.34-4.68-.5-20.89,11.7-33,7.71-7.65,16.77-10.07,21.49-10.83,22-3.56,43.36,12.63,52.28,29.66,2.99,5.71,11.99,25.75,2.2,43.89-4.53,8.4-10.78,13.93-18.56,16.43-3.29,1.06-7.22,1.77-11.2,1.77Zm-43.34-76.4c5.85,2.34,10.66,5.7,14.31,9.98,9.56,11.21,10.83,27.78,10.74,36.65v.4c-.03,1.58-.06,3.96,.53,7.11,.54,2.92,1.68,9.01,5.44,12.79,5.43,5.47,15.21,4.89,21.93,2.73,9.74-3.13,14.13-11.27,15.57-13.94,8.79-16.29-.31-35.34-2.23-39-8.08-15.42-27.24-30.11-46.83-26.94-4.1,.66-11.98,2.76-18.65,9.39-.27,.27-.54,.55-.8,.82Z"/><path class="ab" d="M543.92,586.67c-.07,0-.14,0-.21,0-1.43-.12-2.5-1.37-2.39-2.81,1.06-13.07,5.58-22.6,13.07-27.57,.43-.28,.87-.56,1.33-.82,1.25-.71,2.84-.28,3.55,.98,.71,1.25,.27,2.84-.98,3.55-.35,.2-.7,.41-1.03,.63-7.72,5.12-10.11,15.69-10.76,23.65-.11,1.36-1.25,2.39-2.59,2.39Z"/><path class="ab" d="M584.31,538.64c-1.23,0-2.32-.87-2.56-2.12-3.09-16.22-15.73-22.78-18.69-23.53-1.39-.36-2.24-1.77-1.88-3.17,.36-1.39,1.78-2.24,3.17-1.88,5.92,1.51,19.21,10.24,22.52,27.61,.27,1.41-.66,2.78-2.07,3.05-.16,.03-.33,.05-.49,.05Z"/></g><path class="ab" d="M554.11,1003.32s-.05,0-.08,0c-1.4-.04-2.5-1.21-2.45-2.61,.08-2.54-1.98-5.47-2.78-6.39-.92-1.05-.81-2.65,.24-3.57,1.05-.92,2.64-.82,3.56,.23,.43,.49,4.18,4.9,4.03,9.88-.04,1.37-1.17,2.45-2.53,2.45Z"/><line class="ac" x1="473.37" y1="795.77" x2="475.18" y2="796.51"/><polygon class="ac" points="463.75 911.52 463.75 975.9 460.34 974.96 460.34 908.58 463.75 911.52"/><path class="ac" d="M468.23,980.78s-19.33-1.23-23.72,5.3c-4.4,6.53-3.88,9.95-3.88,9.95l-.02,1.43-3.67-.58,1.49-12.73,11.12-6.46,18.68,3.1Z"/><path class="aa" d="M551.61,834.58s6.21,17.52,38.33,15.51c0,0-7.63,7.95-25.92,3.23-18.29-4.72-12.41-12.28-12.41-12.28v-6.46Z"/><line class="aa" x1="464.61" y1="844.68" x2="464.14" y2="839.64"/><path class="ac" d="M523.7,798.19s46.79,18.87,49.25,20.68c2.46,1.81,9.7-4.65,9.7-4.65,0,0,17.29-18.69,19-21.07,2.94-4.09,8.27-13.01,7.5-11.54l-12.41,9.73-11.76,10.6-8.27,8.02-3.66,1.85-46.19-18.23-3.14,4.61Z"/><path class="ab" d="M453.89,1006.37c-3.21,0-5.77-.2-6.38-.25l-.3-.04c-7.35-1.53-12.81-6.52-13.59-12.42-.92-6.95,4.9-11.92,6.81-13.56,10.34-8.84,25.47-4.74,28.4-3.83,1.34,.42,2.08,1.83,1.66,3.17-.42,1.34-1.84,2.08-3.17,1.66-2.48-.77-15.28-4.27-23.6,2.84-1.54,1.32-5.64,4.83-5.08,9.05,.49,3.68,4.36,6.99,9.46,8.1,5.2,.42,14.46,.37,17.67-1.54,4.15-2.47,14.22-3.13,23.32-3.56,1.67-.08,3.24-.15,3.68-.22,.81-.12,1.75-.91,2.35-1.53l6.93-81.79c.12-1.39,1.35-2.42,2.74-2.31,1.39,.12,2.43,1.34,2.31,2.74l-7.06,83.31-.43,.58c-.26,.36-2.67,3.5-6.07,4.02-.67,.1-1.9,.16-4.2,.27-5.25,.25-17.56,.83-20.97,2.86-3.41,2.03-9.66,2.47-14.46,2.47Z"/><path class="ab" d="M459.79,978.43c-1.35,0-2.48-1.07-2.53-2.43-.08-2.2-2.05-54.08-.13-69.67,.17-1.39,1.43-2.37,2.82-2.2,1.39,.17,2.37,1.43,2.2,2.82-1.87,15.19,.14,68.32,.16,68.86,.05,1.4-1.04,2.57-2.43,2.63-.03,0-.07,0-.1,0Z"/><path class="ab" d="M450.79,1005.44c-.11,0-.22,0-.33-.02-1.39-.18-2.36-1.46-2.18-2.84,.66-4.98,4.59-9.46,4.75-9.65,.93-1.05,2.53-1.14,3.57-.21,1.04,.93,1.14,2.53,.22,3.57-.85,.97-3.15,4.1-3.52,6.95-.17,1.27-1.26,2.2-2.51,2.2Z"/><path class="ab" d="M441.83,1002.42c-.07,0-.14,0-.21,0-1.39-.11-2.43-1.33-2.32-2.73,.4-4.97,4.63-8.94,5.11-9.37,1.04-.94,2.64-.86,3.58,.17,.94,1.03,.86,2.63-.17,3.57-.9,.82-3.26,3.51-3.47,6.04-.11,1.32-1.21,2.33-2.52,2.33Z"/><path class="ac" d="M488.14,858.18s43.24-3.31,52.46-.72c-5.48-8.72-44.75-8.65-52.46,.72Z"/><path class="aa" d="M464.5,868.05c1.87,.34,3.39,1.73,5.31,1.87,4.19,.32,7.56-5.01,11.7-6.82,7.88-3.12,12.98,6.02,7.32,13.15-1.63,1.92-3.9,3.18-5.21,5.35-1.67,2.78-1.26,6.12-1.28,9.22-.02,3.1-1.06,6.98-3.84,8.14-3.54,1.48-6.44-2.73-10.08-2.25-3.53,.46-5.93,4.94-9.33,6.53"/><path class="r" d="M464.18,866.46c1.87,.34,3.39,1.73,5.31,1.87,4.19,.32,7.56-5.01,11.7-6.82,7.88-3.12,12.98,6.02,7.32,13.15-1.63,1.92-3.9,3.18-5.21,5.35-1.67,2.78-1.26,6.12-1.28,9.22-.02,3.1-1.06,6.98-3.84,8.14-3.54,1.48-6.44-2.73-10.08-2.25-3.53,.46-5.93,4.94-9.33,6.53"/><path class="ab" d="M465.79,913.01c-.37,0-.75-.08-1.11-.26-1.55-.76-2.93-1.76-4.09-2.99-1.56-1.65-2.68-3.68-3.43-6.19-1.3-4.38-.86-8.13-.46-11.44l.07-.61c.56-4.76,.51-6.89,.46-8.76-.05-1.98-.08-3.69,.59-7.43,.73-4,1.58-6.76,2.41-9.43,.47-1.52,.96-3.08,1.42-4.89,1.72-6.71,2.39-13.94,1.99-21.47-.07-1.4,1-2.59,2.39-2.66,1.41-.09,2.59,1,2.66,2.39,.43,8.05-.29,15.79-2.14,23-.49,1.92-1,3.55-1.49,5.13-.82,2.64-1.59,5.13-2.26,8.83-.59,3.23-.55,4.56-.51,6.41,.04,1.94,.1,4.35-.5,9.46l-.07,.62c-.35,2.96-.72,6.02,.29,9.4,.69,2.31,1.62,3.48,2.26,4.15,.74,.78,1.63,1.43,2.63,1.92,1.26,.61,1.78,2.13,1.16,3.38-.44,.9-1.34,1.42-2.28,1.42Z"/><path class="aa" d="M554.71,895.34c-3.28,1.21-7.14,2.38-10.1,.51-2.2-1.39-3.18-4.05-4.02-6.52l-4.4-13.04c-.98-2.9-1.97-5.96-1.42-8.98,.84-4.54,5.12-7.82,9.61-8.92,1.36-.33,3.95-.69,7.02-1.02"/><path class="r" d="M553.83,892.6c-3.09,1.14-6.71,2.24-9.49,.48-2.07-1.31-2.99-3.81-3.78-6.13l-4.14-12.26c-.92-2.73-1.86-5.61-1.33-8.44,.79-4.27,4.81-7.36,9.03-8.38,1.36-.33,4.05-.7,7.18-1.01,5.85,13.92,6.57,25.78,2.53,35.74Z"/><path class="ab" d="M540.6,907.47c-1.06,0-2.05-.67-2.4-1.73-.44-1.33,.28-2.76,1.6-3.2,3.44-1.14,8.18-3.48,11.21-8.16,3.06-4.71,3.02-9.63,2.95-16.44-.06-6.9-1.51-12.65-2.38-16.08-.61-2.41-1.1-3.94-1.59-5.41-.58-1.79-1.13-3.48-1.67-6.22-.93-4.74-1.25-9.61-.95-14.48,.09-1.4,1.29-2.46,2.69-2.37,1.4,.09,2.46,1.29,2.37,2.69-.28,4.43,.01,8.87,.86,13.18,.48,2.44,.94,3.85,1.52,5.63,.48,1.49,1.03,3.17,1.68,5.75,.92,3.65,2.46,9.77,2.53,17.27,.07,7.11,.12,13.25-3.77,19.24-3.83,5.9-9.66,8.8-13.86,10.2-.27,.09-.53,.13-.8,.13Z"/><path class="ab" d="M573.85,858.75c-2.1,0-4.38-.19-6.79-.66-8.44-1.67-14.28-5.99-17.7-9.32-1-.98-1.02-2.58-.05-3.58,.98-1,2.58-1.02,3.58-.05,2.4,2.33,7.55,6.47,15.15,7.98,7.48,1.48,13.56-.3,15.83-1.13,1.61-.59,3.39-1.64,6.95-3.72,6.68-3.92,8.86-5.9,13.21-9.86,1.86-1.7,4.18-3.81,7.38-6.55,1.28-1.39,2.42-3.38,3.18-4.7,.72-1.26,1.09-1.9,1.68-2.36l1.23-.96,1.44,.65c.52,.25,.86,.59,1.09,.96,.66,.04,1.28,.29,1.78,.64,.1,.07,.21,.15,.31,.23l.04,.03c.38-.02,1.87-.29,6.09-2.85,3.65-2.21,5.84-3.54,6.55-4.35,2.26-2.59,2.75-5.46,3.54-11.2,.83-5.97,1.33-9.57-.2-13.79-.74-2.04-2.28-6.29-6.45-8.4-.22-.11-5.49-2.73-8.87-.48-1.71,1.14-3.25,3.54-3.32,4.29-.05,2.33-1.33,3.03-2.09,3.24-2.3,.63-3.46-1.65-3.95-2.62l-.76-1.5,1.08-1.28c2.26-2.68,3.48-5.08,3.5-5.11l.24-.39c.43-.57,.83-1.1,1.2-1.58,1.9-2.48,2.68-3.53,2.74-4.54l.03-.26c.35-2.03-.57-2.99-1.52-3.67-.77-.55-1.6-1.08-2.73-1.09-.75-.02-1.69,.17-2.21,.7-.59,.6-.63,1.77-.61,3.13,.04,4.32-5,10.11-16.35,18.79-.39,.3-.69,.52-.84,.65-8.15,8.78-12.68,13.65-18.32,18.35-.03,.04-.06,.08-.09,.12-.54,.7-1.68,2.15-3.66,2.64-1.37,.34-2.64,.04-3.12-.07-.78-.18-1.89-.55-3.03-1.33-1.3-.89-7.04-2.98-11.65-4.65-1.36-.49-3.41-1.46-6.01-2.69-8.09-3.81-21.63-10.2-34.02-11.81-1.39-.18-2.36-1.45-2.18-2.84,.18-1.39,1.44-2.36,2.84-2.18,13.18,1.71,27.17,8.31,35.53,12.25,2.48,1.17,4.44,2.09,5.56,2.5,6.83,2.48,11.09,4.07,12.79,5.23,.5,.34,.96,.5,1.27,.57,.43,.1,.69,.13,.82,.1,.28-.07,.65-.53,.88-.84,.21-.27,.43-.55,.73-.8,5.24-4.36,9.33-8.69,18.05-18.09,.22-.24,.44-.41,1.39-1.13,13.36-10.21,14.37-13.85,14.36-14.72-.02-1.71-.04-4.57,2.06-6.71,1.41-1.44,3.53-2.26,5.9-2.22,2.81,.04,4.76,1.43,5.59,2.03,3.85,2.76,3.93,6.48,3.6,8.53-.09,1.11-.41,2.07-.93,3.04,3.94-.17,7.47,1.47,8.39,1.93,5.96,3.02,8.04,8.75,8.92,11.19,1.96,5.4,1.33,9.94,.46,16.22-.81,5.8-1.39,10-4.75,13.84-1.22,1.4-3.27,2.64-7.74,5.35-5.47,3.31-8.44,4.23-10.79,3.14-.72,.38-1.45,.41-2.06,.31-.81,1.34-1.83,2.86-3.03,4.13l-.2,.19c-3.2,2.73-5.51,4.84-7.37,6.53-4.46,4.07-6.92,6.31-14.06,10.49-3.81,2.23-5.73,3.36-7.76,4.1-1.94,.71-6.23,2.01-11.77,2.01Z"/><g id="f"><path class="l" d="M475.58,796c-4.66-21.67-15.32-59.53-18.41-62.6-41.5-41.24-37.09-119.21-36.88-129.83,.64-32.46,10.64-46.12,15.16-51.41,21.33-24.86,52.83-23.36,67.88-16.81,10.64,4.09,20.29,11.29,35.26,31.63,22,29.9,38.13,51.85,41.52,85.68,3.1,30.93-6.2,54.59-12.19,69.86-15.56,39.63-29.26,60.26-44.97,73.25"/></g><path class="aa" d="M426.91,599.63c-.54,7.63,.53,19.54,.53,29.43,.82,27.54,6.47,59.44,32.17,103.59-9.43-6.77-24.74-25.33-31.19-57.74-5.91-29.74-8.12-38.47-6.84-38.98l-.35-41.55,5.68,5.26Z"/><path class="aa" d="M488.03,532.92c25.91,9.39,68.91,73.25,96.17,98.52,23.75,16.45,32.26,39.92,21.17,71.89,0,0,23.01-9.31,6.59-60.11,0,0-17.63-7.37-40.2-16.2-1.64-16.01-12.89-34.66-30.85-55.15-4.57-4.19-26.49-39.43-52.87-38.94Z"/><path class="ab" d="M522.94,798.3c-.62,0-1.23-.22-1.71-.66-1.16-1.06-.96-2.95,.24-3.95,10.21-8.46,27.21-29.16,44.08-72.1,6-15.27,15.06-38.36,12.03-68.68-3.31-33.14-19.14-54.65-41.04-84.42-15.08-20.5-24.24-26.97-34.13-30.77l-.1-.04c-14.38-6.26-44.74-7.43-64.95,16.13-9.22,10.79-14.11,27.55-14.55,49.81-.49,24.73-.63,91.45,36.13,127.99,2.52,2.51,16.1,45.28,21.06,68.24,.22,1-.13,2.1-.98,2.67-1.61,1.09-3.59,.16-3.95-1.53-4.62-21.46-17.42-63.53-19.69-65.78-38.16-37.91-38.13-106.3-37.63-131.68,.46-23.46,5.76-41.3,15.76-53,22.12-25.79,54.42-24.6,70.76-17.5,10.43,4.02,20.61,11.09,36.34,32.48,22.38,30.43,38.55,52.41,42,86.92,3.16,31.54-6.18,55.31-12.35,71.04-17.39,44.28-35.45,65.79-45.71,74.27-.47,.39-1.04,.58-1.61,.58Z"/><path class="l" d="M510.2,574.19c8.28,30.52,26.78,46.8,42.48,48.4,11.01,1.13,20.93,3.15,20.93,3.15,8.42,.07,10.29-1.37,15.16-.63,11.97,1.84,19.52,13.46,22.2,17.58,13.74,21.15,5.47,45.49,5.06,46.65-6.21,17.38-20.51,25.42-22.73,28.05-33.48,39.64-111.77-8.49-113.41-28.66-1.07-13.12,.68-24.98,2.64-28.84,27.75-1.96,40.81-45.24,27.67-85.71Z"/><path class="l" d="M510.84,574.07c8.28,30.52,26.78,46.8,42.48,48.4,11.01,1.13,20.93,3.15,20.93,3.15,8.42,.07,10.29-1.37,15.16-.63,11.97,1.84,19.52,13.46,22.2,17.58,13.74,21.15,5.47,45.49,5.06,46.65-6.21,17.38-20.51,25.42-22.73,28.05-33.48,39.64-109.32-7.61-110.96-27.78-1.07-13.12-1.77-25.87,.2-29.72,27.75-1.96,40.81-45.24,27.67-85.71Z"/><path class="aa" d="M611.96,643.49c17.21,43.44-8.9,63.95-8.9,63.95,11.1-31.98,4.89-59.28-18.86-75.73l27.76,11.78Z"/><path class="ac" d="M561.05,730.84s-85.58,6.33-80.04-69.64l3.53-2.7c-3.37,65.88,69.25,74.86,76.51,72.34Z"/><path class="ac" d="M547.38,632.25s-4.12,6.1-3.47,21.04c.65,14.93,12.64,12.87,12.64,12.87,0,0,17.19-2.56,29.18,2.97,11.99,5.53,12.96-6.28,12.96-6.28"/><path class="ac" d="M487.06,656.16s17.86,27.84,33.84,39.56c15.98,11.72,27.98,20.86,27.98,20.86,0,0,7.43,5.57,16.67,5.03,13.21,0,26.65-18.27,26.65-18.27l-.6,4.97c-.36,.82-.92,2-1.72,3.36-4.21,7.14-11.51,13.14-18.7,15.08-7.64,2.06-15.06-.49-23.61-5.08-11.93-6.4-38.21-17.91-54.04-47.66-3.64-6.83-5.78-12.79-6.98-16.55l.52-1.29Z"/><path class="ab" d="M566.14,731.2c-15,0-32.38-13.77-43.36-22.47l-1.96-1.55c-16.22-12.76-29.11-29.44-38.31-49.57-.58-1.27-.02-2.77,1.25-3.35,1.27-.58,2.77-.02,3.35,1.25,8.86,19.39,21.25,35.44,36.83,47.69l1.97,1.56c11.12,8.8,31.81,25.19,45.42,20.56,7.42-2.52,12.82-9.09,15.13-11.89,5.88-7.14,6.14-16.7,6.26-21.29,.03-.93,.04-1.61,.1-2.16-1.22-11.79-3.13-19.04-6.93-30.71-2.69-8.24-5.46-16.76-12.66-24.07-4.78-4.85-9.23-6.34-11.13-6.97-.3-.1-.55-.18-.73-.26-5.36-2.04-7.81-2.73-8.52-2.84-9.92,1.53-28.74-3.09-45.06-50.11-.46-1.32,.24-2.76,1.56-3.22,1.32-.46,2.76,.24,3.22,1.56,15.79,45.5,33.01,47.84,39.67,46.74,.73-.12,1.84-.31,10.92,3.14,.14,.05,.32,.11,.54,.19,2.24,.75,7.49,2.51,13.13,8.22,8.03,8.15,11,17.25,13.87,26.05,3.95,12.13,5.93,19.63,7.19,32.05l.03,.34-.06,.33c-.04,.26-.07,1.1-.09,1.84-.13,4.75-.43,15.89-7.4,24.35-2.38,2.89-8.64,10.5-17.43,13.49-2.2,.75-4.49,1.08-6.83,1.08Zm-13.39-106.08h0Z"/><path class="ab" d="M473.16,664.6c-1.19,0-2.26-.85-2.49-2.07-.26-1.37,.65-2.7,2.02-2.95,11.7-2.19,13.99-11.34,14.08-11.73,.32-1.35,1.67-2.2,3.03-1.89,1.36,.31,2.21,1.65,1.91,3.01-.12,.52-3.01,12.77-18.09,15.59-.16,.03-.31,.04-.47,.04Z"/><path class="r" d="M440.71,585.76c10.39-19.48,35.85-28.28,51.33-15.72,3.76,2.87,6.01,6.51,10.37,13.67,3.57,5.86,6.41,10.58,9.07,17.55,2.19,5.74,3.46,9.18,3.49,14.11-.18,9.49-2.15,17.29-16.61,23.86-26.25,12.91-56.84,7.56-61.41-28.54-.56-4.31-1.73-14.46,3.76-24.94Z"/><g><path class="l" d="M473.09,628.98c-15.46-3.84-25.14-31.65-9.73-46.79,9.47-8.76,20.62-5.99,27.92,3.13,5.85,6.72,6.59,14.36,7.07,19.37,.64,6.67,1.23,12.77-2.76,17.66-4.04,4.95-10.67,6.08-13.57,6.57-1.94,.33-5.33,.9-8.93,.05Z"/><path class="ab" d="M477.09,631.95c-1.42,0-2.98-.13-4.58-.51h-.03c-8.18-2.04-15.31-10.1-18.17-20.56-3.15-11.53-.43-22.93,7.27-30.5,4.7-4.35,10.06-6.41,15.54-5.99,5.92,.44,11.64,3.75,16.1,9.31,6.35,7.32,7.16,15.72,7.64,20.74,.66,6.79,1.33,13.81-3.31,19.51-4.64,5.69-11.98,6.93-15.11,7.46-1.24,.21-3.14,.53-5.36,.53Zm-3.41-5.43c3.1,.73,6.11,.22,7.92-.09,2.79-.47,8.59-1.46,12.03-5.67,3.33-4.08,2.8-9.52,2.2-15.82-.46-4.72-1.14-11.84-6.46-17.95l-.07-.08c-3.58-4.47-8.04-7.13-12.56-7.47-4.05-.3-8.08,1.29-11.67,4.61-6.32,6.21-8.54,15.77-5.88,25.5,2.38,8.71,8.06,15.36,14.49,16.97Z"/></g><g><path class="l" d="M517.06,575.36c2.75-6.06,10.22-12.64,21.2-8.76,4.07,1.67,6.14,4.58,9,8.59,.9,1.26,3.91,5.64,5.89,12.43,1.72,5.9,3.07,10.51,1.26,15.86-.44,1.29-2.36,6.7-7.72,9.53-15.51,9.08-36.69-21.36-29.64-37.65Z"/><path class="ab" d="M540.65,617.1c-4.51,0-9.31-2.07-13.86-6.1-9.71-8.6-16.84-25.36-11.97-36.61l.02-.04c3.51-7.73,12.59-14.17,24.23-10.06l.12,.04c4.72,1.94,7.08,5.24,10.06,9.43,1.52,2.13,4.35,6.67,6.25,13.16,1.76,6.04,3.29,11.25,1.23,17.33-.95,2.82-3.37,7.97-8.85,10.89-2.26,1.31-4.7,1.96-7.23,1.96Zm-21.36-40.75c-3.95,9.17,2.49,23.69,10.74,31,3.2,2.83,9.45,7.05,15.44,3.55l.09-.05c4.01-2.12,5.82-6.02,6.55-8.16,1.56-4.62,.36-8.72-1.3-14.4-1.69-5.8-4.2-9.82-5.54-11.69-2.71-3.8-4.51-6.32-7.89-7.73-10-3.5-16.07,3.04-18.09,7.47Z"/></g><path d="M472.11,627.96c-12.03-2.98-19.57-24.63-7.57-36.41,1.05-.94,4.64-4.18,9.81-4.16,6.19,.03,10.27,4.7,11.91,6.6,4.55,5.23,5.13,11.18,5.5,15.07,.5,5.19,.96,9.94-2.14,13.75-3.14,3.86-8.3,4.73-10.56,5.11-1.51,.26-4.15,.7-6.95,.04Z"/><path class="ab" d="M555.96,735.93c-9.51,0-17.45-2.39-25.77-4.89-14.31-4.3-30.52-9.18-41.65-24.46-12.83-17.61-10.9-38.9-9.47-47.24l4.99,.85c-1.32,7.7-3.12,27.35,8.58,43.41,10.13,13.91,25.47,18.52,39.02,22.59,10.12,3.04,18.86,5.67,30.52,4.31,20.19-2.37,39.1-15.82,48.18-34.28,5.85-11.9,7.66-24.48,5.22-36.38-2.6-12.71-8.48-20.34-12.95-24.51-2.32-2.16-7.15-6.66-14.23-7.7-1.87-.28-6.19-.05-10.76,.21-9.03,.5-20.28,1.12-27.53-.97-16.64-4.57-36.69-20.96-42.95-53.23l4.97-.96c5.82,29.99,24.14,45.14,39.35,49.32,6.46,1.86,17.69,1.24,25.88,.79,5.26-.29,9.42-.52,11.79-.16,8.63,1.27,14.44,6.69,16.93,9,5.01,4.67,11.59,13.18,14.46,27.2,2.66,13.01,.71,26.72-5.64,39.63-9.82,19.96-30.28,34.52-52.13,37.08-2.36,.28-4.62,.4-6.8,.4Z"/><path class="l" d="M469.87,592.79c-.07,1.87,.83,3.3,1.93,4.8,5.95,8.12,12.67,11.28,14.61,10.72,5.58-1.61,3.92-6.86,1.51-10.85-.67-1.22-3.97-6.89-10.48-8.98-4.72-1.87-7.29,.62-7.56,4.31Z"/><path class="ab" d="M476.44,630.23c-1.41,.09-3.06,.05-4.78-.36h-.02c-6.37-1.59-11.92-7.86-14.14-16-2.45-8.97-.34-17.85,5.66-23.74,3.52-3.17,7.27-4.73,11.2-4.72,7.08,.03,11.66,5.29,13.39,7.27,4.97,5.71,5.6,12.26,5.98,16.18,.51,5.28,1.04,10.74-2.58,15.18-3.61,4.43-9.32,5.4-11.76,5.81-.73,.12-1.75,.3-2.96,.37Zm-3.86-4.19c2.41,.57,4.76,.17,6.16-.07,2.17-.37,6.69-1.13,9.36-4.41,2.59-3.18,2.18-7.41,1.71-12.31-.35-3.67-.89-9.21-5.03-13.97-1.54-1.77-5.14-5.9-10.44-5.92-2.93-.01-5.78,1.22-8.49,3.65-4.9,4.82-6.63,12.25-4.56,19.83,1.85,6.78,6.28,11.96,11.28,13.2Z"/><path d="M518.75,583.44c.87-1.94,2.87-4.97,6.44-6.65,.48-.22,5.19-2.35,10.28-.26,3.21,1.32,4.84,3.61,7.1,6.77,.71,1,3.08,4.44,4.65,9.8,1.36,4.65,2.42,8.29,1,12.51-.34,1.02-1.86,5.29-6.09,7.52,0,0-2.57,1.35-5.4,1.34-9.84-.06-23.11-19.58-17.96-31.02Z"/><path d="M545.64,632.55c5.13-15.65,18.54-23.2,19.45-23.7,13.31-7.24,26-4.45,30.35-3.5,4.72,1.04,10.52,2.39,15.5,7.47,1.62,1.65,5.79,6.37,6.74,13.56,.73,5.51-.82,9.55-2.85,14.86-2.75,7.19-6.21,11.25-12.29,18.4-4.31,5.07-6.92,7.16-10.07,7.21-2.12,.03-3.6-.88-4.94-1.58-10.65-5.61-25.93-5.24-30.38-5.14-2.84,.07-5.26,.32-7.68-1.24-.62-.4-3.38-2.29-4.87-8.67-1.75-7.52-.1-14.21,1.04-17.68Z"/><path class="l" d="M525.7,581.23c-.07,1.87,.83,3.3,1.93,4.8,5.95,8.12,12.67,11.28,14.61,10.72,5.58-1.61,3.92-6.86,1.51-10.85-.67-1.22-3.97-6.89-10.48-8.98-4.72-1.87-7.29,.62-7.56,4.31Z"/><path class="ab" d="M537.48,616.35c-.26,.02-.52,.02-.78,.02-6.24-.04-12.3-6.03-15.89-11.62-3.91-6.1-6.97-15.11-3.82-22.11h0c.71-1.58,2.85-5.47,7.37-7.6,.98-.46,6.15-2.64,11.83-.3,3.72,1.53,5.58,4.13,7.93,7.43,1.2,1.68,3.43,5.27,4.93,10.38,1.39,4.76,2.59,8.87,.97,13.66-.75,2.23-2.66,6.31-7.01,8.6-.11,.06-2.59,1.35-5.54,1.53Zm-16.98-32.13c-2.52,5.6,.18,13.2,3.55,18.45,3.77,5.87,8.86,9.82,12.67,9.85,2.28,.01,4.47-1.1,4.49-1.11,3.17-1.67,4.59-4.74,5.16-6.43,1.23-3.64,.29-6.87-1.02-11.35-1.34-4.57-3.31-7.74-4.37-9.22-2.15-3.01-3.57-5-6.26-6.11-4.27-1.76-8.28,.02-8.72,.22-3.36,1.58-4.97,4.51-5.5,5.7h0Z"/><path class="l" d="M477.89,609.41c-1.44,.17-3.43-1.47-3.7-3.13-.07-.45,0-.81-.28-1.02-.44-.33-1.46,0-1.95,.6-.95,1.16-.08,3.6,1.14,5.02,.27,.32,1.65,1.85,3.8,1.96,.51,.03,1.92,.1,2.88-.88,.17-.17,1.02-1.08,.73-2.08-.02-.06-.24-.78-.84-.98-.64-.22-.97,.41-1.78,.5Z"/><path class="l" d="M533.72,597.85c-1.44,.17-3.43-1.47-3.7-3.13-.07-.45,0-.81-.28-1.02-.44-.33-1.46,0-1.95,.6-.95,1.16-.08,3.6,1.14,5.02,.27,.32,1.65,1.85,3.8,1.96,.51,.03,1.92,.1,2.88-.88,.17-.17,1.02-1.08,.73-2.08-.02-.06-.24-.78-.84-.98-.64-.22-.97,.41-1.78,.5Z"/><path d="M451.49,571.27c3.54-9.96,18.44-16.28,27.36-9.61,.34,.27,.25,.85-.16,1-9.11,3.92-16.5,8.55-26.56,9.39-.42,.05-.77-.38-.64-.79Z"/><path d="M507.27,558.79c3.97-11.8,23.24-14.68,29.26-3.09,.19,.37-.05,.83-.45,.9-4.83,1.06-9.36,1.18-14.07,1.49-4.76,.24-8.88,.92-14.06,1.44-.42,.09-.82-.33-.69-.74h0Z"/><path class="ac" d="M544.57,748.05c-1.49,9.87-23.72,10.84-23.27-1.05,6.82,3.9,14.45,4.75,23.27,1.05Z"/><path class="ab" d="M531.56,751.97c-7.57,0-10.59-4.37-10.77-4.63-.63-.95-.37-2.24,.58-2.87,.94-.63,2.22-.38,2.85,.56,.22,.31,4.71,6.2,18.31-.04,1.04-.48,2.27-.02,2.74,1.02,.48,1.04,.02,2.27-1.02,2.74-5.2,2.39-9.39,3.22-12.7,3.22Z"/><path class="l" d="M436.45,565.43s-6.4-16.7-11.8-21.42c-5.4-4.72-6.67-6.42-17.19-9.31-10.52-2.89-18.87,1.55-18.87,1.55,0,0-10.54,4.69-19.65,15-9.11,10.3-7.11,15.12-9.82,19.78-2.71,4.65-1.42,20.42-1.42,20.42,0,0,1.3,9.19,8.4,19.26,7.1,10.07,22.62,10.47,22.62,10.47,0,0,15.12-1.29,17.97-6.87,2.84-5.58,1.94-10.45,2.2-15.1,.26-4.65-3.75-23.6-3.75-23.6,15.51,6.13,19.52,15.58,19.52,15.58"/><path class="r" d="M356.7,573.28c1.91,3.37,4.7,6.27,8.25,8.24,2.13,1.56,1.91,5.7,3.08,7.7,1.34,2.3,3.79,4.01,6.44,4.24,1.89,.16,3.79-.49,5.66-.19,2.08,.33,3.8,1.76,5.76,2.53,6.22,2.55,13.31-2.45,13.02-9.15-.11-3.56-2.18-6.74-3.02-10.2-1.58-6.55,1.23-14.02-2.08-19.89-3.35-5.96-12.2-8.01-13.84-15.11-9.72,5.64-17.4,16.46-23.27,31.83Z"/><g class="ad"><path class="ac" d="M368.65,553.9s-17.75,54.78,22.41,65.47c-.74,.44-1.81,.97-3.17,1.34-9.96,2.67-22.95-7.29-28.76-18.03-10.02-18.53,1.49-39.12,2.71-41.24,1.89-3.26,3.88-5.72,5.36-7.37l1.44-.16Z"/></g><path class="aa" d="M428.35,598.11s-11.05-19.32-22.15-22.38c-.41-.11-.01-.18-.01-.18l3.35-19.22c14.09,4.27,19.74,33.04,18.81,41.78Z"/><path class="aa" d="M406.64,556s-7.55,4.72-6.04,18.81c1.36,11.67,4.52,26.64,4.34,28.96-.34,4.58-1.06,9.16-3.67,12.41-2.8,3.49,4.01-1.94,4.01-1.94l4.2-10.34-2.81-25.08-.03-22.82Z"/><path class="ab" d="M387.34,624.36c-.6,0-1.2-.02-1.77-.04-7.93-.41-15.18-4.04-21.54-10.79-13.73-14.59-10.28-35.66-8.9-41.77,4.13-18.23,20.14-38.76,41.69-40.91,4.62-.46,13.74-.45,22.89,4.81,14.48,8.32,18.38,23.58,19.23,28.06,.26,1.37-.64,2.7-2.02,2.96-1.37,.26-2.7-.64-2.96-2.02-.63-3.34-3.18-13.46-11.58-20.88-.08,.07-.16,.13-.25,.2-4.73,3.31-8.22,7.27-10.37,11.77-5.67,11.86-2.32,27.42-.62,33.57l.1,.36c.44,1.57,1.18,4.19,1.45,7.8,.26,3.39,.79,10.43-2.57,16.28-4.54,7.89-14.72,10.62-22.79,10.62Zm13.29-88.64c-1.28,0-2.39,.07-3.31,.16-19.19,1.92-33.52,20.49-37.25,36.99-.89,3.91-4.68,24.08,7.65,37.18,2.02,2.15,8.18,8.7,18.11,9.2,6.85,.34,16.18-1.54,19.91-8.04,2.58-4.49,2.13-10.49,1.91-13.37-.24-3.11-.86-5.34-1.28-6.81l-.1-.37c-2.3-8.31-5.25-24.18,.93-37.1,2.36-4.93,6.04-9.28,10.94-12.95-.31-.19-.63-.39-.96-.57-6.12-3.51-12.23-4.32-16.55-4.32Z"/><path class="ab" d="M426.33,601.74c-1.04,0-2.02-.65-2.39-1.69-2.6-7.31-7.48-16.64-16.01-19.52-.37-.12-.74-.24-1.13-.34-1.35-.36-2.16-1.74-1.81-3.09,.36-1.35,1.74-2.16,3.09-1.81,.5,.13,.98,.28,1.46,.44,8.27,2.8,14.89,10.62,19.16,22.62,.47,1.32-.22,2.76-1.54,3.23-.28,.1-.57,.15-.85,.15Z"/><path class="ab" d="M376.38,566.72c-1.32,0-2.43-1.02-2.52-2.35-1.23-17.14,9.07-28.66,14.26-31.55,1.22-.68,2.76-.24,3.44,.98,.68,1.22,.25,2.76-.98,3.44-2.59,1.45-12.82,10.76-11.67,26.77,.1,1.39-.95,2.61-2.34,2.71-.06,0-.12,0-.18,0Z"/><path class="l" d="M568.24,622.25h31.02c3.43,.01,3.02-4.13,0-6.33,0,0-3.89-3.76-14.39-4.01-10.61,0-14.92,2.42-16.63,3.66-3.14,2.33-3.95,6.68,0,6.68Z"/><path class="l" d="M582.79,627.16h-9.31c-1.02,0-.76,1.23,0,1.9,0,0,1.16,1.2,4.32,1.2s4.99-1.1,4.99-1.1c.89-.66,1.18-2,0-2Z"/><path class="ab" d="M607.3,806.91c-1.1,0-2.12-.72-2.43-1.84-.38-1.34,.39-2.75,1.74-3.13,.24-.07,6.19-1.91,6.84-7.8,.37-3.32-.01-3.81-.38-4.29-.43-.55-1.08-1.39-1.38-2.93-.26-1.37,.64-2.7,2.01-2.96,1.37-.26,2.7,.64,2.96,2.01,.07,.34,.12,.41,.4,.78,1.33,1.71,1.92,3.41,1.41,7.95-1.03,9.31-10.1,12-10.48,12.11-.23,.07-.47,.1-.7,.1Z"/><path class="aa" d="M463.65,839.29s-2.53,23.71-31.14,34.77c0,0,9.63,4.22,23.69-7.45,14.06-11.67,6.81-12.51,6.81-12.51,.87-2.98,1-7.54,.64-14.82Z"/><path class="ac" d="M474.28,797.28s-37.45,38.73-38.89,41.37c-1.44,2.64-10.17-.37-10.17-.37,0,0-22.09-10.18-24.48-11.67-4.1-2.56-12.11-8.59-10.88-7.56l14.45,3.93,14.22,4.99,10.22,4.02,3.88,.22,40.5-39.61,1.15,4.68Z"/><path class="ab" d="M437.7,878.38c-1.76,0-3.79-.25-7.22-.68-7.8-.97-10.79-2.03-16.21-3.97-2.25-.8-5.06-1.81-8.86-3.02l-.26-.1c-1.5-.67-2.93-1.63-4.13-2.51-.46,.29-1.08,.55-1.83,.51-1.64,1.93-4.6,2.28-10.64,1.44-4.93-.69-7.18-1-8.79-1.8-4.38-2.18-6.48-5.78-9.38-10.77-3.13-5.38-5.4-9.27-5.75-14.96-.16-2.58-.53-8.61,3.46-13.73,.63-.81,3.13-3.79,6.69-5.2-.89-.72-1.58-1.5-2.1-2.53-1.26-2.06-2.26-5.28-.13-9.07,.5-.9,1.66-2.95,4.1-4.12,2.06-.99,4.28-1.11,6.1-.33,2.65,1.13,3.71,3.75,4.34,5.31,.32,.8,2.58,3.73,18.01,7.71,1.1,.28,1.37,.35,1.66,.49,11.13,5.1,16.31,7.43,22.5,9.32,.37,.11,.68,.29,.97,.45,.27,.15,.76,.44,.97,.4,.1-.02,.3-.15,.57-.36,.28-.22,.63-.55,.92-1.05,1.04-1.77,4.13-4.93,9.1-9.94,.82-.83,2.17-2.46,3.88-4.53,5.75-6.97,15.37-18.62,26.15-25.49,1.15-.73,2.67-.39,3.4,.75,.73,1.15,.39,2.67-.75,3.4-10.12,6.45-19.43,17.73-25,24.47-1.79,2.17-3.2,3.88-4.18,4.86-3.37,3.39-7.55,7.61-8.34,8.95-.69,1.18-1.51,1.96-2.09,2.41-.41,.33-1.42,1.12-2.77,1.37-1.97,.36-3.54-.53-4.29-.96-.04-.02-.08-.05-.11-.07-6.68-2.04-12.46-4.69-22.85-9.45-.19-.05-.52-.14-.96-.25-13.16-3.4-19.75-6.68-21.35-10.64-.49-1.21-.99-2.32-1.71-2.63-.59-.26-1.44-.04-2.04,.25-1.04,.5-1.6,1.49-1.93,2.08-.56,1-1.06,2.36,.07,4.17l.12,.21c.44,.89,1.4,1.48,4.1,3.06,.5,.29,1.05,.61,1.64,.96l.37,.27s1.98,1.72,4.95,3.26l1.41,.73-.08,1.59c-.06,1.07-.19,3.58-2.47,3.93-.78,.12-2.22,0-3.15-2.13-.33-.66-2.55-2.24-4.46-2.59-3.68-.69-7.23,3.79-7.38,3.98-2.84,3.65-2.56,8.2-2.43,10.39,.28,4.53,2.09,7.63,5.09,12.79,2.88,4.94,4.39,7.38,7.32,8.84,.9,.45,3.3,.78,7.27,1.34,4.51,.63,5.91,.31,6.25,.18l.03-.05c.06-.12,.12-.23,.18-.33,.36-.6,.8-1.05,1.32-1.32,.05-.45,.22-.92,.62-1.37l1.01-1.12,1.49,.39c.72,.19,1.28,.63,2.4,1.51,1.16,.9,2.89,2.26,4.52,3.01,3.81,1.22,6.62,2.22,8.88,3.03,5.26,1.88,7.9,2.82,15.16,3.72,3.86,.48,5.8,.72,7.4,.61,2.27-.15,8.18-.95,14.07-5.29,6.02-4.43,8.92-10.31,10.11-13.42,.49-1.27,1.91-1.9,3.18-1.42,1.27,.49,1.9,1.91,1.42,3.18-1.69,4.41-5.11,10.7-11.79,15.62-6.94,5.11-13.97,6.07-16.68,6.24-.36,.02-.72,.03-1.1,.03Zm-9.88-43.31h0Z"/><path class="ab" d="M398.88,841.7c-2.84,0-8.85-.79-12.24-6.99-2.34-4.28-2.2-5.96-1.78-7.72,.11-.45,.14-.58,.05-.96-.29-1.33,.56-2.64,1.89-2.93,1.33-.28,2.64,.56,2.93,1.89,.32,1.48,.08,2.48-.08,3.15-.15,.62-.3,1.25,1.32,4.21,2.83,5.17,8.72,4.39,8.78,4.38,1.35-.2,2.59,.74,2.79,2.09,.19,1.35-.74,2.59-2.09,2.79-.09,.01-.67,.09-1.56,.09Z"/><path class="ab" d="M386.67,869.23c-1.36,0-2.88-.13-4.57-.41l-.23-.05c-4.54-1.22-9.96-7.76-13.49-16.27-3.91-9.42-2.51-16.96-2.45-17.28,1.22-6.5,6.85-9.95,11.89-10.48,4.7-.49,8.71,1.53,10.21,5.14l10.41,25.1c.85,2.06,1.17,6.64-1.63,10.15-1.59,2-4.59,4.1-10.14,4.1Zm-3.61-5.25c3.4,.56,7.83,.67,9.9-1.93,1.53-1.92,1.21-4.51,.93-5.19l-10.41-25.1c-.78-1.88-3.17-2.33-5.14-2.13-3.22,.34-6.81,2.48-7.56,6.5-.01,.07-1.15,6.5,2.16,14.47,3.34,8.06,7.97,12.69,10.13,13.37Z"/><path class="ab" d="M369.6,849.52c-.82,0-1.63-.41-2.09-1.16-.72-1.15-.37-2.67,.79-3.39l17.62-10.98c1.16-.72,2.67-.37,3.39,.79,.72,1.15,.37,2.67-.79,3.39l-17.62,10.98c-.41,.25-.86,.37-1.3,.37Z"/><path class="ab" d="M375.92,861.75c-.81,0-1.61-.4-2.08-1.14-.73-1.15-.4-2.67,.75-3.4l16.05-10.26c1.15-.73,2.67-.4,3.4,.75,.73,1.15,.4,2.67-.75,3.4l-16.05,10.26c-.41,.26-.87,.39-1.32,.39Z"/><g id="g"><path class="l" d="M409.44,852.88c-.4,1.32-6.16,23-7.59,25.61,9.7,8.5,51.31,50.29,1.66,41.25,0,0-23,26.08-11.85,68.28,0,0-16.83-13.51-20.39-24.66,0,0-24.89-5.33-24.3-43.63,0,0-3.91,12.57-3.91,15.41v10.31s-4.15-.71-5.69,.71c-1.54,1.42-5.45-.47-5.45-.47,0,0-1.9-2.13-4.5-2.02-2.61,.12-3.2-2.37-3.2-2.37,0,0-1.9-3.08-3.2-1.54-1.3,1.54,1.78-13.75,18.14-21.58l5.93-3.2s-2.9-32.3,28.75-53.46c0,0,8.54-9.07,11.02-16.54,0,0-6.58-31.47,6.93-42.5,0,0,9.46-4.25,22.58-1.07,0,0,13.16,2.67,13.16,18.32,0,15.65-13.34,24.18-13.34,24.18,0,0-3.2,3.9-4.74,8.95Z"/></g><path d="M366.25,926.73c-.46,24.71,21.86,64.31,25.4,61.29-11.14-42.2,11.85-68.28,11.85-68.28l-37.26,6.99Z"/><path class="i" d="M346.96,919.74s-3.91,12.57-3.91,15.41v10.31s-4.15-.71-5.69,.71c-1.54,1.42-5.45-.47-5.45-.47,0,0-1.9-2.13-4.5-2.02-2.61,.12-3.2-2.37-3.2-2.37,0,0-1.9-3.08-3.2-1.54-1.3,1.54,1.78-13.75,18.14-21.58l5.93-3.2"/><g class="m"/><g><path class="i" d="M389.32,804.85l1.3-53.57s24.3,5.69,28.8,52.15"/><path class="k" d="M405.89,762.99c7.8,9.87,12.03,24.88,13.53,40.44l-4.11,.19c0-11.86-1.75-24.84-9.43-40.63Z"/><path class="j" d="M403.84,804.16l-14.51,.69,1.3-53.26c8.19,18.54,12.31,45.92,13.22,52.58Z"/></g><path class="y" d="M416.49,802.06s14.74,3.93,13.67,21.74c-1.07,17.81-16.77,26.62-16.77,26.62,0,0-3.89,4.22-5.99,9.86l-27.35-10.64s-5.31-36.27,10.76-47.89l25.68,.32s14.74,3.93,13.67,21.74c-1.07,17.81-16.77,26.62-16.77,26.62"/><path class="l" d="M404.51,827.87c-7.05-.42-12.47-5.6-12.11-11.56,1.51-14.27,25.73-12.81,25.52,1.53-.36,5.96-6.36,10.45-13.41,10.03Z"/><ellipse cx="405.89" cy="816.43" rx="3.58" ry="5.09" transform="translate(-433.37 1172.72) rotate(-86.57)"/><path class="u" d="M404.8,859.27l6.06-11.33s19.21-10.83,17.22-35.87c1.46,3,2.36,6.85,2.07,11.74-1.07,17.81-16.77,26.62-16.77,26.62,0,0-3.89,4.22-5.99,9.86l-2.6-1.01Z"/><path class="o" d="M384.54,851.38l-4.49-1.75s-5.31-36.27,10.76-47.89h.66c-11.03,18.5-7.23,47.51-6.93,49.64Z"/><path d="M403.51,919.72c9.72,11.32-4.39,39.8,1.41,71.11,1.23-4.02,56.42-72.19-3.07-112.35,33.82,35.17,7.84,77.06,4.82,94.13-2.63-18.77,8.36-47.42-3.17-52.89Z"/><path d="M382.14,850.61c-.6,.99-1.23,1.96-1.88,2.9-3.11,4.48-6.44,8.02-6.44,8.02,11.65,8.8,16.8,10.94,28.04,16.95,.68-1.24,4.05-12.92,5.65-18.57"/><g class="q"><path class="i" d="M339.26,936.27c-.06,.18-1.39,9.55-1.39,9.55l-2.23,.87,3.62-10.42Z"/></g><g class="q"><path class="i" d="M335.64,935.15l-4.55,9.82s-.91-.77-1.83-1,6.38-8.82,6.38-8.82Z"/></g><g class="q"><path class="i" d="M325.18,942.53s-.55-1.16-.91-1.32,7.97-10.61,7.97-10.61l-7.06,11.94Z"/></g><path class="l" d="M401.85,878.48c34.12,33.36,8.15,75.5,4.82,94.13-3.3-14.01,7.62-44.22-3.17-52.89"/><g class="n"><path d="M366.25,926.73c18.29-5.99,65.91-55.98,40.42,45.88-5.5-16.19,9.14-40.38-3.17-52.87-7.15,4.14-22,5.25-37.26,6.99Z"/></g><path d="M406.96,806.49c2.58,6.15,2.99,15.11,.8,21.41,12.32,.16,15.85-19.84-.8-21.41Z"/><g><g id="h"><path class="l" d="M601.39,822.29c.36,1.18,5.52,20.58,6.79,22.92-8.68,7.61-45.92,45-1.49,36.92,0,0,20.58,23.34,10.61,61.11,0,0,15.06-12.09,18.25-22.07,0,0,22.28-4.77,21.75-39.04,0,0,3.5,11.25,3.5,13.79v9.23s3.71-.64,5.09,.64c1.38,1.27,4.88-.42,4.88-.42,0,0,1.7-1.91,4.03-1.8s2.86-2.12,2.86-2.12c0,0,1.7-2.76,2.86-1.38,1.17,1.38-1.59-12.31-16.23-19.31l-5.3-2.86s2.6-28.91-25.73-47.85c0,0-7.64-8.12-9.87-14.8,0,0,5.89-28.17-6.21-38.03,0,0-8.47-3.8-20.21-.95,0,0-11.78,2.39-11.78,16.39,0,14,11.94,21.64,11.94,21.64,0,0,2.86,3.49,4.24,8.01Z"/></g><path d="M640.04,888.38c.41,22.11-19.56,57.55-22.73,54.85,9.97-37.77-10.61-61.11-10.61-61.11l33.34,6.26Z"/><path class="i" d="M657.3,882.12s3.5,11.25,3.5,13.79v9.23s3.71-.64,5.09,.64c1.38,1.27,4.88-.42,4.88-.42,0,0,1.7-1.91,4.03-1.8s2.86-2.12,2.86-2.12c0,0,1.7-2.76,2.86-1.38,1.17,1.38-1.59-12.31-16.23-19.31l-5.3-2.86"/><g class="m"/><g><path class="i" d="M619.4,779.31l-1.17-47.94s-21.74,5.09-25.77,46.67"/><path class="k" d="M604.57,741.84c-6.98,8.83-10.76,22.27-12.11,36.19l3.68,.17c0-10.61,1.57-22.23,8.44-36.36Z"/><path class="j" d="M606.41,778.69l12.99,.61-1.16-47.67c-7.33,16.6-11.01,41.1-11.83,47.05Z"/></g><path class="y" d="M595.08,776.81s-13.19,3.52-12.23,19.45c.96,15.94,15.01,23.82,15.01,23.82,0,0,3.49,3.78,5.36,8.83l24.48-9.53s4.75-32.46-9.63-42.86l-22.98,.29s-13.19,3.52-12.23,19.45c.96,15.94,15.01,23.82,15.01,23.82"/><path class="l" d="M605.8,799.91c6.31-.38,11.16-5.01,10.84-10.34-1.35-12.77-23.03-11.47-22.84,1.37,.32,5.33,5.69,9.35,12,8.97Z"/><ellipse cx="604.57" cy="789.67" rx="4.55" ry="3.2" transform="translate(-46.19 37.61) rotate(-3.43)"/><path class="u" d="M605.54,828.01l-5.42-10.14s-17.2-9.69-15.42-32.11c-1.31,2.69-2.12,6.13-1.85,10.51,.96,15.94,15.01,23.82,15.01,23.82,0,0,3.49,3.78,5.36,8.83l2.32-.9Z"/><path class="o" d="M623.68,820.95l4.02-1.57s4.75-32.46-9.63-42.86h-.59c9.87,16.55,6.47,42.52,6.2,44.43Z"/><path d="M606.7,882.11c-8.7,10.13,3.93,35.62-1.26,63.64-1.1-3.6-50.49-64.61,2.75-100.54-30.26,31.47-7.02,68.96-4.32,84.24,2.36-16.79-7.48-42.44,2.83-47.33Z"/><path d="M625.83,820.26c.53,.89,1.1,1.76,1.68,2.59,2.78,4.01,5.77,7.18,5.77,7.18-10.42,7.88-15.04,9.79-25.09,15.17-.61-1.11-3.62-11.56-5.06-16.62"/><g class="q"><path class="i" d="M664.2,896.92c.05,.16,1.24,8.55,1.24,8.55l2,.78-3.24-9.33Z"/></g><g class="q"><path class="i" d="M667.44,895.91l4.07,8.79s.82-.69,1.64-.9-5.71-7.89-5.71-7.89Z"/></g><g class="q"><path class="i" d="M676.8,902.52s.49-1.04,.81-1.18-7.13-9.5-7.13-9.5l6.32,10.68Z"/></g><path class="l" d="M608.18,845.2c-30.54,29.85-7.3,67.56-4.32,84.24,2.95-12.54-6.82-39.58,2.83-47.33"/><g class="n"><path d="M640.04,888.38c-16.37-5.36-58.98-50.1-36.17,41.06,4.92-14.49-8.18-36.14,2.83-47.32,6.4,3.71,19.69,4.7,33.34,6.26Z"/></g><path d="M603.61,780.78c-2.31,5.5-2.68,13.52-.72,19.16-11.02,.14-14.19-17.75,.72-19.16Z"/><path class="x" d="M644.63,839.72c5.97,15.63,15.59,45.87,4.82,61.31-18.46,21.06-17.84,23.74-18.46,28.65,1.68-2.39,3.82-6.19,4.56-8.52,0,0,22.2-3.57,21.65-38.86l1.75-4.37s1.55-20.13-14.33-38.21Z"/><path class="j" d="M659.93,878.47l-.37,.92c12.53,6.55,16.87,16.51,18.32,21.68,.36-.52,1.71-2.32,2.67-1.17,1.12,1.33-1.48-11.85-15.53-18.65l-5.09-2.78Z"/></g><g><g><path class="l" d="M617.83,790.65v27.41c0,3.02,4.31,12.24,17.41,3.79,2.76-2.15,5.52-9.31,5.52-18.62s-4.14-15.51-4.14-15.51c-5.34-7.67-18.79-4.05-18.79,2.93Z"/><path class="ab" d="M625.69,827.85c-2.11,0-3.77-.54-5.02-1.23-3.91-2.13-5.37-6.38-5.37-8.56v-27.41c0-3.99,3.09-7.54,7.86-9.04,5.02-1.57,11.77-.74,15.53,4.66,.18,.25,4.59,6.62,4.59,16.96,0,9.15-2.67,17.63-6.49,20.61l-.19,.13c-4.5,2.9-8.11,3.87-10.92,3.87Zm2.16-41.89c-1.1,0-2.18,.17-3.17,.49-1.99,.63-4.32,2.1-4.32,4.21v27.41c0,.67,.67,3,2.73,4.12,2.45,1.34,6.14,.51,10.67-2.38,1.88-1.58,4.47-7.66,4.47-16.56s-3.64-14.01-3.68-14.06c-1.6-2.3-4.18-3.21-6.69-3.21Z"/></g><path class="ab" d="M639.99,801.2c-.1,0-.2,0-.31-.02l-21.46-2.59c-1.39-.17-2.38-1.43-2.21-2.82,.17-1.39,1.42-2.38,2.82-2.21l21.46,2.59c1.39,.17,2.38,1.43,2.21,2.82-.15,1.29-1.25,2.23-2.51,2.23Z"/><path class="ab" d="M638.78,815.07c-.11,0-.22,0-.33-.02l-19.65-2.59c-1.39-.18-2.36-1.45-2.18-2.84,.18-1.39,1.45-2.36,2.84-2.18l19.65,2.59c1.39,.18,2.36,1.45,2.18,2.84-.17,1.27-1.26,2.2-2.51,2.2Z"/></g><g><g><path class="l" d="M386.77,830.4l9.84,25.58c1.08,2.82,.37,12.97-14.88,9.79-3.35-1.02-8.49-6.71-11.83-15.39-3.47-9.01-1.71-15.96-1.71-15.96,2.23-9.08,16.08-10.53,18.59-4.01Z"/><path class="ab" d="M387.03,868.9c-1.69,0-3.62-.2-5.82-.66l-.22-.06c-4.64-1.41-10.17-8.36-13.46-16.9-3.71-9.65-1.88-17.18-1.8-17.49,1.57-6.38,7.57-9.58,12.82-9.92,5-.31,9.15,1.89,10.59,5.61l9.84,25.58c.78,2.03,.95,6.53-1.93,9.92-1.64,1.93-4.64,3.91-10.01,3.91Zm-4.66-5.59c5.27,1.07,9,.52,10.81-1.61,1.52-1.78,1.31-4.19,1.07-4.82l-9.84-25.58c-.76-1.97-3.46-2.51-5.54-2.38-3.4,.22-7.26,2.18-8.22,6.09-.02,.07-1.49,6.38,1.61,14.45,3.2,8.3,7.79,13.05,10.12,13.85Z"/></g><path class="ab" d="M368.98,848.37c-.91,0-1.78-.49-2.24-1.35-.65-1.24-.18-2.77,1.05-3.42l19.1-10.12c1.23-.65,2.77-.18,3.42,1.05,.65,1.24,.18,2.77-1.05,3.42l-19.1,10.12c-.38,.2-.78,.3-1.18,.3Z"/><path class="ab" d="M375.09,860.88c-.9,0-1.77-.48-2.23-1.32-.67-1.23-.21-2.77,1.01-3.43l17.41-9.47c1.23-.67,2.76-.21,3.43,1.01,.67,1.23,.21,2.77-1.01,3.43l-17.41,9.47c-.38,.21-.8,.31-1.21,.31Z"/></g><path class="x" d="M361.13,872.36c-6.67,17.47-17.42,51.25-5.39,68.51,20.63,23.54,19.94,26.53,20.62,32.02-1.88-2.67-4.27-6.91-5.1-9.52,0,0-24.8-3.99-24.19-43.42l-1.95-4.88s-1.73-22.49,16.01-42.7Z"/><path class="j" d="M344.03,915.65l.42,1.03c-14.01,7.32-18.85,18.45-20.48,24.23-.4-.59-1.91-2.59-2.98-1.31-1.25,1.49,1.65-13.24,17.35-20.84l5.69-3.11Z"/></g></g></g></svg>