<?xml version="1.0" encoding="UTF-8"?><svg xmlns="http://www.w3.org/2000/svg" xmlns:xlink="http://www.w3.org/1999/xlink" viewBox="0 0 150.95 150.82"><defs><style>.f,.g{fill:none;}.f,.g,.h,.i,.j,.k{stroke-miterlimit:10;}.f,.g,.i,.j,.k{stroke:#000;}.f,.i,.j,.k{stroke-width:1.5px;}.l{fill:#45311a;}.m{mix-blend-mode:multiply;}.m,.n,.i,.o{fill:#e8cb5b;}.p{isolation:isolate;}.q{fill:#d39636;}.r,.j{fill:#7c5a3e;}.h{fill:#634428;stroke:#634428;}.s{clip-path:url(#e);}.t{clip-path:url(#d);}.k{fill:#281909;}.u{fill:#a58a5e;}.o{mix-blend-mode:screen;}</style><clipPath id="d"><path class="i" d="M69.02,98.9c-12.56,0-22.78-10.22-22.78-22.78s10.22-22.78,22.78-22.78,22.78,10.22,22.78,22.78-10.22,22.78-22.78,22.78Zm0-38.23c-8.52,0-15.45,6.93-15.45,15.45s6.93,15.45,15.45,15.45,15.45-6.93,15.45-15.45-6.93-15.45-15.45-15.45Z"/></clipPath><clipPath id="e"><path class="n" d="M69.02,98.9c-12.56,0-22.78-10.22-22.78-22.78s10.22-22.78,22.78-22.78,22.78,10.22,22.78,22.78-10.22,22.78-22.78,22.78Zm0-38.23c-8.52,0-15.45,6.93-15.45,15.45s6.93,15.45,15.45,15.45,15.45-6.93,15.45-15.45-6.93-15.45-15.45-15.45Z"/></clipPath></defs><g class="p"><g id="a"/><g id="b"><g id="c"><circle class="h" cx="75.5" cy="75.41" r="66.38"/><g><g><path class="n" d="M69.02,98.9c-12.56,0-22.78-10.22-22.78-22.78s10.22-22.78,22.78-22.78,22.78,10.22,22.78,22.78-10.22,22.78-22.78,22.78Zm0-38.23c-8.52,0-15.45,6.93-15.45,15.45s6.93,15.45,15.45,15.45,15.45-6.93,15.45-15.45-6.93-15.45-15.45-15.45Z"/><g class="t"><rect class="j" x="67.25" y="87.28" width="3.53" height="14.02"/><rect class="k" x="69.96" y="87.16" width="3.53" height="14.02" transform="translate(-12.41 10.9) rotate(-8)"/><rect class="j" x="72.63" y="86.66" width="3.53" height="14.02" transform="translate(-22.94 24.13) rotate(-16)"/><rect class="k" x="75.2" y="85.79" width="3.53" height="14.02" transform="translate(-31.09 39.33) rotate(-24)"/><rect class="j" x="77.62" y="84.58" width="3.53" height="14.02" transform="translate(-36.47 55.99) rotate(-32)"/><rect class="k" x="79.86" y="83.03" width="3.53" height="14.02" transform="translate(-38.78 73.53) rotate(-40)"/><rect class="j" x="81.85" y="81.2" width="3.53" height="14.02" transform="translate(-37.89 91.33) rotate(-48)"/><rect class="k" x="83.58" y="79.1" width="3.53" height="14.02" transform="translate(-33.77 108.71) rotate(-56)"/><rect class="j" x="84.99" y="76.78" width="3.53" height="14.02" transform="translate(-26.59 125.04) rotate(-64)"/><rect class="k" x="86.07" y="74.29" width="3.53" height="14.02" transform="translate(-16.64 139.72) rotate(-72)"/><rect class="j" x="86.79" y="71.68" width="3.53" height="14.02" transform="translate(-4.32 152.23) rotate(-80)"/><rect class="k" x="87.14" y="68.99" width="3.53" height="14.02" transform="translate(9.85 162.2) rotate(-88)"/><rect class="j" x="81.86" y="71.52" width="14.02" height="3.53" transform="translate(-7.17 9.69) rotate(-6)"/><rect class="k" x="81.46" y="68.84" width="14.02" height="3.53" transform="translate(-14.45 23.5) rotate(-14)"/><rect class="j" x="80.68" y="66.24" width="14.02" height="3.53" transform="translate(-19.09 37.8) rotate(-22)"/><rect class="k" x="79.55" y="63.77" width="14.02" height="3.53" transform="translate(-21.17 52.06) rotate(-30)"/><rect class="j" x="78.09" y="61.48" width="14.02" height="3.53" transform="translate(-20.9 65.8) rotate(-38)"/><rect class="k" x="76.32" y="59.42" width="14.02" height="3.53" transform="translate(-18.57 78.63) rotate(-46)"/><rect class="j" x="74.29" y="57.63" width="14.02" height="3.53" transform="translate(-14.54 90.26) rotate(-54)"/><rect class="k" x="72.02" y="56.14" width="14.02" height="3.53" transform="translate(-9.2 100.5) rotate(-62)"/><rect class="j" x="69.57" y="54.97" width="14.02" height="3.53" transform="translate(-2.93 109.3) rotate(-70)"/><rect class="k" x="66.98" y="54.16" width="14.02" height="3.53" transform="translate(3.9 116.68) rotate(-78)"/><rect class="j" x="64.3" y="53.72" width="14.02" height="3.53" transform="translate(10.99 122.76) rotate(-86)"/><rect class="k" x="66.84" y="48.41" width="3.53" height="14.02" transform="translate(-3.7 4.92) rotate(-4)"/><rect class="j" x="64.14" y="48.72" width="3.53" height="14.02" transform="translate(-10.15 14.92) rotate(-12)"/><rect class="k" x="61.52" y="49.4" width="3.53" height="14.02" transform="translate(-15.48 25.05) rotate(-20)"/><rect class="j" x="59.01" y="50.45" width="3.53" height="14.02" transform="translate(-19.86 35.26) rotate(-28)"/><rect class="k" x="56.68" y="51.83" width="3.53" height="14.02" transform="translate(-23.42 45.59) rotate(-36)"/><rect class="j" x="54.55" y="53.52" width="3.53" height="14.02" transform="translate(-26.24 56.11) rotate(-44)"/><rect class="k" x="52.69" y="55.49" width="3.53" height="14.02" transform="translate(-28.33 66.94) rotate(-52)"/><rect class="j" x="51.12" y="57.71" width="3.53" height="14.02" transform="translate(-29.6 78.16) rotate(-60)"/><rect class="k" x="49.87" y="60.12" width="3.53" height="14.02" transform="translate(-29.95 89.86) rotate(-68)"/><rect class="j" x="48.97" y="62.67" width="3.53" height="14.02" transform="translate(-29.15 102.06) rotate(-76)"/><rect class="k" x="48.43" y="65.33" width="3.53" height="14.02" transform="translate(-27 114.71) rotate(-84)"/><rect class="j" x="43.03" y="73.29" width="14.02" height="3.53" transform="translate(-2.59 1.79) rotate(-2)"/><rect class="k" x="43.25" y="75.99" width="14.02" height="3.53" transform="translate(-12.74 9.91) rotate(-10)"/><rect class="j" x="43.84" y="78.64" width="14.02" height="3.53" transform="translate(-22.36 19.65) rotate(-18)"/><rect class="k" x="44.79" y="81.18" width="14.02" height="3.53" transform="translate(-31.12 31.1) rotate(-26)"/><rect class="j" x="46.09" y="83.56" width="14.02" height="3.53" transform="translate(-38.64 44.28) rotate(-34)"/><rect class="k" x="47.71" y="85.74" width="14.02" height="3.53" transform="translate(-44.5 59.09) rotate(-42)"/><rect class="j" x="49.62" y="87.67" width="14.02" height="3.53" transform="translate(-48.29 75.33) rotate(-50)"/><rect class="k" x="51.77" y="89.32" width="14.02" height="3.53" transform="translate(-49.61 92.67) rotate(-58)"/><rect class="j" x="54.14" y="90.65" width="14.02" height="3.53" transform="translate(-48.15 110.69) rotate(-66)"/><rect class="k" x="56.66" y="91.64" width="14.02" height="3.53" transform="translate(-43.67 128.87) rotate(-74)"/><rect class="j" x="59.3" y="92.27" width="14.02" height="3.53" transform="translate(-36.04 146.62) rotate(-82)"/></g><path class="f" d="M69.02,98.9c-12.56,0-22.78-10.22-22.78-22.78s10.22-22.78,22.78-22.78,22.78,10.22,22.78,22.78-10.22,22.78-22.78,22.78Zm0-38.23c-8.52,0-15.45,6.93-15.45,15.45s6.93,15.45,15.45,15.45,15.45-6.93,15.45-15.45-6.93-15.45-15.45-15.45Z"/></g><g><path class="n" d="M69.02,98.9c-12.56,0-22.78-10.22-22.78-22.78s10.22-22.78,22.78-22.78,22.78,10.22,22.78,22.78-10.22,22.78-22.78,22.78Zm0-38.23c-8.52,0-15.45,6.93-15.45,15.45s6.93,15.45,15.45,15.45,15.45-6.93,15.45-15.45-6.93-15.45-15.45-15.45Z"/><g class="s"><rect class="r" x="67.25" y="87.28" width="3.53" height="14.02"/><rect class="u" x="69.96" y="87.16" width="3.53" height="14.02" transform="translate(-12.41 10.9) rotate(-8)"/><rect class="r" x="72.63" y="86.66" width="3.53" height="14.02" transform="translate(-22.94 24.13) rotate(-16)"/><rect class="u" x="75.2" y="85.79" width="3.53" height="14.02" transform="translate(-31.09 39.33) rotate(-24)"/><rect class="r" x="77.62" y="84.58" width="3.53" height="14.02" transform="translate(-36.47 55.99) rotate(-32)"/><rect class="u" x="79.86" y="83.03" width="3.53" height="14.02" transform="translate(-38.78 73.53) rotate(-40)"/><rect class="r" x="81.85" y="81.2" width="3.53" height="14.02" transform="translate(-37.89 91.33) rotate(-48)"/><rect class="u" x="83.58" y="79.1" width="3.53" height="14.02" transform="translate(-33.77 108.71) rotate(-56)"/><rect class="r" x="84.99" y="76.78" width="3.53" height="14.02" transform="translate(-26.59 125.04) rotate(-64)"/><rect class="u" x="86.07" y="74.29" width="3.53" height="14.02" transform="translate(-16.64 139.72) rotate(-72)"/><rect class="r" x="86.79" y="71.68" width="3.53" height="14.02" transform="translate(-4.32 152.23) rotate(-80)"/><rect class="u" x="87.14" y="68.99" width="3.53" height="14.02" transform="translate(9.85 162.2) rotate(-88)"/><rect class="r" x="81.86" y="71.52" width="14.02" height="3.53" transform="translate(-7.17 9.69) rotate(-6)"/><rect class="u" x="81.46" y="68.84" width="14.02" height="3.53" transform="translate(-14.45 23.5) rotate(-14)"/><rect class="r" x="80.68" y="66.24" width="14.02" height="3.53" transform="translate(-19.09 37.8) rotate(-22)"/><rect class="u" x="79.55" y="63.77" width="14.02" height="3.53" transform="translate(-21.17 52.06) rotate(-30)"/><rect class="r" x="78.09" y="61.48" width="14.02" height="3.53" transform="translate(-20.9 65.8) rotate(-38)"/><rect class="u" x="76.32" y="59.42" width="14.02" height="3.53" transform="translate(-18.57 78.63) rotate(-46)"/><rect class="r" x="74.29" y="57.63" width="14.02" height="3.53" transform="translate(-14.54 90.26) rotate(-54)"/><rect class="u" x="72.02" y="56.14" width="14.02" height="3.53" transform="translate(-9.2 100.5) rotate(-62)"/><rect class="r" x="69.57" y="54.97" width="14.02" height="3.53" transform="translate(-2.93 109.3) rotate(-70)"/><rect class="u" x="66.98" y="54.16" width="14.02" height="3.53" transform="translate(3.9 116.68) rotate(-78)"/><rect class="r" x="64.3" y="53.72" width="14.02" height="3.53" transform="translate(10.99 122.76) rotate(-86)"/><rect class="u" x="66.84" y="48.41" width="3.53" height="14.02" transform="translate(-3.7 4.92) rotate(-4)"/><rect class="r" x="64.14" y="48.72" width="3.53" height="14.02" transform="translate(-10.15 14.92) rotate(-12)"/><rect class="u" x="61.52" y="49.4" width="3.53" height="14.02" transform="translate(-15.48 25.05) rotate(-20)"/><rect class="r" x="59.01" y="50.45" width="3.53" height="14.02" transform="translate(-19.86 35.26) rotate(-28)"/><rect class="u" x="56.68" y="51.83" width="3.53" height="14.02" transform="translate(-23.42 45.59) rotate(-36)"/><rect class="r" x="54.55" y="53.52" width="3.53" height="14.02" transform="translate(-26.24 56.11) rotate(-44)"/><rect class="u" x="52.69" y="55.49" width="3.53" height="14.02" transform="translate(-28.33 66.94) rotate(-52)"/><rect class="r" x="51.12" y="57.71" width="3.53" height="14.02" transform="translate(-29.6 78.16) rotate(-60)"/><rect class="u" x="49.87" y="60.12" width="3.53" height="14.02" transform="translate(-29.95 89.86) rotate(-68)"/><rect class="r" x="48.97" y="62.67" width="3.53" height="14.02" transform="translate(-29.15 102.06) rotate(-76)"/><rect class="u" x="48.43" y="65.33" width="3.53" height="14.02" transform="translate(-27 114.71) rotate(-84)"/><rect class="r" x="43.03" y="73.29" width="14.02" height="3.53" transform="translate(-2.59 1.79) rotate(-2)"/><rect class="u" x="43.25" y="75.99" width="14.02" height="3.53" transform="translate(-12.74 9.91) rotate(-10)"/><rect class="r" x="43.84" y="78.64" width="14.02" height="3.53" transform="translate(-22.36 19.65) rotate(-18)"/><rect class="u" x="44.79" y="81.18" width="14.02" height="3.53" transform="translate(-31.12 31.1) rotate(-26)"/><rect class="r" x="46.09" y="83.56" width="14.02" height="3.53" transform="translate(-38.64 44.28) rotate(-34)"/><rect class="u" x="47.71" y="85.74" width="14.02" height="3.53" transform="translate(-44.5 59.09) rotate(-42)"/><rect class="r" x="49.62" y="87.67" width="14.02" height="3.53" transform="translate(-48.29 75.33) rotate(-50)"/><rect class="u" x="51.77" y="89.32" width="14.02" height="3.53" transform="translate(-49.61 92.67) rotate(-58)"/><rect class="r" x="54.14" y="90.65" width="14.02" height="3.53" transform="translate(-48.15 110.69) rotate(-66)"/><rect class="u" x="56.66" y="91.64" width="14.02" height="3.53" transform="translate(-43.67 128.87) rotate(-74)"/><rect class="r" x="59.3" y="92.27" width="14.02" height="3.53" transform="translate(-36.04 146.62) rotate(-82)"/></g></g><path d="M56.93,98.81c-8.5,0-16.71-4.97-25.41-10.23-1.11-.67-2.23-1.35-3.34-2.01-.38,.22-.99,.37-1.8,.45-1.91,.17-5.71-.11-7.9-2.3l-.15-.15v-.21c0-.2,0-.47,7.06-10.62l.28-.4,.41,.26c3.08,2.01,5.16,6.52,4.9,8.47,3.19,2.43,30.6,17.4,47.84,5.31l.57,.82c-18.22,12.77-47.42-3.79-49.31-5.58l-.24-.23,.12-.31c.42-1.15-1.34-5.34-4.03-7.37-2.32,3.35-5.71,8.28-6.48,9.54,2.63,2.27,7.71,1.99,8.29,1.41l.27-.38,.39,.25c1.22,.72,2.43,1.46,3.65,2.19,8.57,5.19,16.67,10.08,24.89,10.08,11.66,0,20.55-2.23,26.41-6.63l.6,.8c-6.04,4.54-15.13,6.84-27.01,6.84Z"/><path class="n" d="M83.64,91.58c-5.12,3.84-13.38,6.74-26.71,6.74-9.56,0-19.07-6.58-28.79-12.34-.57,.83-6.52,1.18-9.31-1.61,0-.31,6.97-10.34,6.97-10.34,3.08,2.01,5.16,6.79,4.62,8.24,2.1,1.98,30.74,18.11,48.68,5.53"/><path class="m" d="M77.58,88.81c-9.33,5.54-22.35,3.75-30.5,1.17,15.19,8.92,28.72,3.24,30.5-1.17Z"/><path d="M71.22,100.4c-2.31,0-4.67-.34-7.04-1.13-5.25-1.75-11.26-5.8-13.87-8.92l2.39,1.07c2.82,2.25,6.93,4.75,11.95,6.43,15.89,5.3,32.12-11.57,32.28-11.74,12.46-12.29,26.21-13.08,31.43-12.87l-27.31-26.19c1.66,18.22-7.69,32.65-12.14,35.8-14.56,13.48-25.39,8.7-32.27,3.94l.85-1.23c7.01,4.86,16.79,8.81,30.43-3.84l.08-.07c4.38-3.04,13.84-17.86,11.32-36.47l-.29-2.13,33.63,32.25-2.39-.4c-.17-.03-17.17-2.65-32.28,12.26-.58,.61-12.72,13.24-26.79,13.24Z"/><path class="n" d="M57.07,86.17c5.97,4.14,16.6,9.79,31.37-3.9,4.51-3.14,14.19-18.35,11.63-37.19l30.33,29.09s-17.35-2.91-32.93,12.47c0,0-16.52,17.45-33.06,11.93-4.76-1.59-8.61-4.18-11.95-6.85"/><path class="q" d="M100.07,45.07c.75,5.51,.44,10.7-.47,15.38l17.12,14.88c7.89-2.14,13.68-1.18,13.68-1.18l-30.33-29.09Z"/><path class="q" d="M32.94,84.49c-1.23-.69-2.06-1.24-2.4-1.54-.51,.77-1.23,1.84-1.95,2.9,.86,.48,1.72,.96,2.58,1.44l1.77-2.8Z"/><path class="o" d="M88.44,82.26c-14.77,13.69-25.4,8.04-31.37,3.9l-.55,.66c2.77,2.67,18.46,13.32,35.36-8.17-1.27,1.7-2.48,2.94-3.45,3.61Z"/><path class="m" d="M53.42,90.56l-.96,1.15c3.34,2.67,7.19,5.26,11.95,6.85,5.05,1.68,10.09,1.22,14.67-.22-13.07,1.85-22.7-5.24-25.66-7.78Z"/></g><g><g><g><path class="l" d="M4.39,83.97c-3.38-1.52-4.08-4.89-3.78-7.68,.03-.34,.07-.71,.13-1.01,.06-.29,.13-.58,.21-.85,.15-.54,.32-1.03,.48-1.44,.32-.82,.59-1.33,.59-1.33,0,0,.97,.38,2.85,1.1,1.89,.71,4.65,1.83,8.3,3.16,1.6,.82,2.5,1.85,3.04,2.95,.58,1.1,.63,2.29,.64,3.4-.09,2.22-.81,4.24-.81,4.24l-.89-.14-2.44-.43c-2.1-.39-4.96-1.03-8.32-1.97Z"/><path class="g" d="M4.39,83.97c-3.38-1.52-4.08-4.89-3.78-7.68,.03-.34,.07-.71,.13-1.01,.06-.29,.13-.58,.21-.85,.15-.54,.32-1.03,.48-1.44,.32-.82,.59-1.33,.59-1.33,0,0,.97,.38,2.85,1.1,1.89,.71,4.65,1.83,8.3,3.16,1.6,.82,2.5,1.85,3.04,2.95,.58,1.1,.63,2.29,.64,3.4-.09,2.22-.81,4.24-.81,4.24l-.89-.14-2.44-.43c-2.1-.39-4.96-1.03-8.32-1.97Z"/></g><g><path class="l" d="M11.1,106.79c-1.84-.17-3.18-1-4.2-2.11-.97-1.13-1.58-2.55-1.9-3.92-.29-1.38-.38-2.69-.34-3.66,.05-.97,.17-1.59,.17-1.59,0,0,1.05,.15,3.06,.35,1.99,.2,5.05,.42,8.87,.45,1.73,.26,3,.91,3.83,1.78,.86,.87,1.4,1.92,1.71,3,.36,1.05,.5,2.12,.56,2.93,.09,.79,.08,1.34,.08,1.34l-.89,.16c-.58,.09-1.41,.23-2.45,.4-2.08,.31-5.01,.66-8.5,.87Z"/><path class="g" d="M11.1,106.79c-1.84-.17-3.18-1-4.2-2.11-.97-1.13-1.58-2.55-1.9-3.92-.29-1.38-.38-2.69-.34-3.66,.05-.97,.17-1.59,.17-1.59,0,0,1.05,.15,3.06,.35,1.99,.2,5.05,.42,8.87,.45,1.73,.26,3,.91,3.83,1.78,.86,.87,1.4,1.92,1.71,3,.36,1.05,.5,2.12,.56,2.93,.09,.79,.08,1.34,.08,1.34l-.89,.16c-.58,.09-1.41,.23-2.45,.4-2.08,.31-5.01,.66-8.5,.87Z"/></g><g><path class="l" d="M6.79,95.67c-3.56-.94-4.87-4.14-5-6.96-.04-.7-.03-1.38,.01-2,.07-.62,.17-1.19,.27-1.66,.2-.95,.41-1.54,.41-1.54,0,0,1.02,.32,2.98,.85,1.96,.53,4.85,1.26,8.67,1.93,1.69,.55,2.75,1.41,3.48,2.4,.36,.5,.6,1.03,.79,1.58,.2,.54,.33,1.1,.4,1.66,.12,1.11,.13,2.17,.06,2.98-.06,.8-.17,1.34-.17,1.34h-.9l-2.46-.02c-2.09-.05-5.12-.17-8.53-.55Z"/><path class="g" d="M6.79,95.67c-3.56-.94-4.87-4.14-5-6.96-.04-.7-.03-1.38,.01-2,.07-.62,.17-1.19,.27-1.66,.2-.95,.41-1.54,.41-1.54,0,0,1.02,.32,2.98,.85,1.96,.53,4.85,1.26,8.67,1.93,1.69,.55,2.75,1.41,3.48,2.4,.36,.5,.6,1.03,.79,1.58,.2,.54,.33,1.1,.4,1.66,.12,1.11,.13,2.17,.06,2.98-.06,.8-.17,1.34-.17,1.34h-.9l-2.46-.02c-2.09-.05-5.12-.17-8.53-.55Z"/></g></g><g><g><path class="l" d="M11.01,106.62c-1.82-.18-3.17-1.01-4.19-2.12-.95-1.14-1.58-2.55-1.88-3.93-.29-1.39-.39-2.69-.33-3.66,.05-.97,.17-1.59,.17-1.59,0,0,1.05,.15,3.07,.36,1.99,.21,5.04,.44,8.87,.48,3.5,.53,4.88,2.65,5.53,4.8,.35,1.05,.5,2.12,.55,2.93,.08,.8,.08,1.34,.08,1.34l-.89,.16-2.46,.39c-2.07,.29-5.01,.64-8.5,.85Z"/><path class="g" d="M11.01,106.62c-1.82-.18-3.17-1.01-4.19-2.12-.95-1.14-1.58-2.55-1.88-3.93-.29-1.39-.39-2.69-.33-3.66,.05-.97,.17-1.59,.17-1.59,0,0,1.05,.15,3.07,.36,1.99,.21,5.04,.44,8.87,.48,3.5,.53,4.88,2.65,5.53,4.8,.35,1.05,.5,2.12,.55,2.93,.08,.8,.08,1.34,.08,1.34l-.89,.16-2.46,.39c-2.07,.29-5.01,.64-8.5,.85Z"/></g><g><path class="l" d="M24.78,125.99c-1.77,.42-3.34,.1-4.65-.63-1.26-.77-2.34-1.87-3.06-3.09-.74-1.2-1.25-2.41-1.51-3.35-.27-.93-.37-1.55-.37-1.55,0,0,1.05-.21,3.02-.68,1.95-.46,4.88-1.23,8.53-2.46,3.47-.64,5.48,.91,6.8,2.73,.66,.89,1.16,1.84,1.48,2.59,.33,.74,.51,1.24,.51,1.24l-.8,.44c-.51,.28-1.26,.69-2.19,1.17-1.86,.95-4.54,2.25-7.76,3.58Z"/><path class="g" d="M24.78,125.99c-1.77,.42-3.34,.1-4.65-.63-1.26-.77-2.34-1.87-3.06-3.09-.74-1.2-1.25-2.41-1.51-3.35-.27-.93-.37-1.55-.37-1.55,0,0,1.05-.21,3.02-.68,1.95-.46,4.88-1.23,8.53-2.46,3.47-.64,5.48,.91,6.8,2.73,.66,.89,1.16,1.84,1.48,2.59,.33,.74,.51,1.24,.51,1.24l-.8,.44c-.51,.28-1.26,.69-2.19,1.17-1.86,.95-4.54,2.25-7.76,3.58Z"/></g><g><path class="l" d="M17.11,116.88c-.92,.07-1.75-.04-2.51-.28-.74-.25-1.39-.64-1.97-1.11-1.18-.93-1.97-2.25-2.52-3.55-.57-1.28-.79-2.61-.93-3.56-.14-.95-.12-1.59-.12-1.59,0,0,1.04-.02,3.09-.17,2.05-.15,5.01-.39,8.82-1.01,3.56-.08,5.23,1.82,6.27,3.8,.25,.5,.45,1,.61,1.49,.18,.47,.32,.92,.42,1.31,.21,.78,.28,1.32,.28,1.32l-.85,.3c-.55,.18-1.35,.45-2.34,.78-2.02,.65-4.88,1.5-8.25,2.25Z"/><path class="g" d="M17.11,116.88c-.92,.07-1.75-.04-2.51-.28-.74-.25-1.39-.64-1.97-1.11-1.18-.93-1.97-2.25-2.52-3.55-.57-1.28-.79-2.61-.93-3.56-.14-.95-.12-1.59-.12-1.59,0,0,1.04-.02,3.09-.17,2.05-.15,5.01-.39,8.82-1.01,3.56-.08,5.23,1.82,6.27,3.8,.25,.5,.45,1,.61,1.49,.18,.47,.32,.92,.42,1.31,.21,.78,.28,1.32,.28,1.32l-.85,.3c-.55,.18-1.35,.45-2.34,.78-2.02,.65-4.88,1.5-8.25,2.25Z"/></g></g><g><g><path class="l" d="M24.64,125.85c-1.77,.41-3.35,.1-4.64-.64-1.27-.77-2.34-1.88-3.06-3.09-.74-1.2-1.24-2.41-1.5-3.35-.27-.93-.37-1.55-.37-1.55,0,0,1.05-.21,3.02-.67,.99-.23,2.2-.53,3.62-.93,1.44-.4,3.09-.9,4.91-1.51,3.47-.63,5.48,.93,6.79,2.75,.65,.91,1.16,1.84,1.47,2.59,.15,.37,.28,.68,.37,.9,.08,.22,.13,.35,.13,.35l-.8,.44c-.51,.28-1.26,.68-2.19,1.16-1.86,.95-4.55,2.25-7.77,3.56Z"/><path class="g" d="M24.64,125.85c-1.77,.41-3.35,.1-4.64-.64-1.27-.77-2.34-1.88-3.06-3.09-.74-1.2-1.24-2.41-1.5-3.35-.27-.93-.37-1.55-.37-1.55,0,0,1.05-.21,3.02-.67,.99-.23,2.2-.53,3.62-.93,1.44-.4,3.09-.9,4.91-1.51,3.47-.63,5.48,.93,6.79,2.75,.65,.91,1.16,1.84,1.47,2.59,.15,.37,.28,.68,.37,.9,.08,.22,.13,.35,.13,.35l-.8,.44c-.51,.28-1.26,.68-2.19,1.16-1.86,.95-4.55,2.25-7.77,3.56Z"/></g><g><path class="l" d="M43.94,139.73c-3.1,1.97-6.34,.78-8.5-1.02-1.1-.88-1.96-1.88-2.51-2.68-.56-.79-.86-1.34-.86-1.34,0,0,.92-.54,2.64-1.62,1.71-1.08,4.21-2.72,7.28-5.08,.77-.44,1.5-.71,2.18-.84,.69-.16,1.34-.18,1.95-.1,1.2,.18,2.28,.67,3.19,1.32,.9,.66,1.7,1.35,2.24,1.97,.54,.61,.88,1.02,.88,1.02,0,0-.22,.24-.61,.68-.39,.44-.96,1.04-1.69,1.8-1.45,1.5-3.57,3.63-6.18,5.91Z"/><path class="g" d="M43.94,139.73c-3.1,1.97-6.34,.78-8.5-1.02-1.1-.88-1.96-1.88-2.51-2.68-.56-.79-.86-1.34-.86-1.34,0,0,.92-.54,2.64-1.62,1.71-1.08,4.21-2.72,7.28-5.08,.77-.44,1.5-.71,2.18-.84,.69-.16,1.34-.18,1.95-.1,1.2,.18,2.28,.67,3.19,1.32,.9,.66,1.7,1.35,2.24,1.97,.54,.61,.88,1.02,.88,1.02,0,0-.22,.24-.61,.68-.39,.44-.96,1.04-1.69,1.8-1.45,1.5-3.57,3.63-6.18,5.91Z"/></g><g><path class="l" d="M33.73,133.59c-3.41,1.47-6.36-.3-8.22-2.4-.94-1.05-1.59-2.21-2.03-3.06-.22-.42-.37-.8-.47-1.06l-.15-.41s.99-.36,2.86-1.15c1.88-.8,4.63-2.02,8.02-3.81,1.69-.63,3.06-.6,4.23-.25,1.2,.32,2.11,1.07,2.94,1.82,.8,.77,1.42,1.66,1.88,2.31,.45,.67,.7,1.15,.7,1.15l-.71,.56c-.46,.35-1.13,.86-1.97,1.5-1.71,1.28-4.12,2.98-7.08,4.8Z"/><path class="g" d="M33.73,133.59c-3.41,1.47-6.36-.3-8.22-2.4-.94-1.05-1.59-2.21-2.03-3.06-.22-.42-.37-.8-.47-1.06l-.15-.41s.99-.36,2.86-1.15c1.88-.8,4.63-2.02,8.02-3.81,1.69-.63,3.06-.6,4.23-.25,1.2,.32,2.11,1.07,2.94,1.82,.8,.77,1.42,1.66,1.88,2.31,.45,.67,.7,1.15,.7,1.15l-.71,.56c-.46,.35-1.13,.86-1.97,1.5-1.71,1.28-4.12,2.98-7.08,4.8Z"/></g></g><g><g><path class="l" d="M43.77,139.64c-3.1,1.97-6.34,.76-8.5-1.04-.55-.45-1.04-.92-1.46-1.37-.41-.47-.76-.93-1.04-1.32-.56-.79-.85-1.34-.85-1.34,0,0,.93-.53,2.65-1.62,1.72-1.08,4.22-2.71,7.29-5.06,1.54-.87,2.9-1.07,4.13-.93,1.2,.18,2.28,.68,3.19,1.33,.9,.67,1.69,1.36,2.23,1.97,.54,.61,.87,1.03,.87,1.03,0,0-.22,.24-.61,.68-.4,.42-.97,1.03-1.69,1.79-1.45,1.5-3.59,3.63-6.2,5.89Z"/><path class="g" d="M43.77,139.64c-3.1,1.97-6.34,.76-8.5-1.04-.55-.45-1.04-.92-1.46-1.37-.41-.47-.76-.93-1.04-1.32-.56-.79-.85-1.34-.85-1.34,0,0,.93-.53,2.65-1.62,1.72-1.08,4.22-2.71,7.29-5.06,1.54-.87,2.9-1.07,4.13-.93,1.2,.18,2.28,.68,3.19,1.33,.9,.67,1.69,1.36,2.23,1.97,.54,.61,.87,1.03,.87,1.03,0,0-.22,.24-.61,.68-.4,.42-.97,1.03-1.69,1.79-1.45,1.5-3.59,3.63-6.2,5.89Z"/></g><g><path class="l" d="M66.55,146.47c-1.14,1.44-2.58,2.17-4.05,2.36-.74,.1-1.49,.1-2.22,0-.73-.12-1.43-.31-2.1-.55-1.33-.45-2.46-1.17-3.25-1.72-.79-.56-1.25-.98-1.25-.98,0,0,.7-.81,1.97-2.4,1.27-1.61,3.09-3.92,5.22-7.18,2.35-2.67,4.87-2.61,7.04-2.04,.54,.15,1.05,.35,1.51,.56,.47,.18,.89,.39,1.25,.57,.71,.37,1.16,.69,1.16,.69,0,0-.13,.3-.36,.83-.24,.53-.58,1.29-1.01,2.25-.88,1.93-2.2,4.61-3.91,7.6Z"/><path class="g" d="M66.55,146.47c-1.14,1.44-2.58,2.17-4.05,2.36-.74,.1-1.49,.1-2.22,0-.73-.12-1.43-.31-2.1-.55-1.33-.45-2.46-1.17-3.25-1.72-.79-.56-1.25-.98-1.25-.98,0,0,.7-.81,1.97-2.4,1.27-1.61,3.09-3.92,5.22-7.18,2.35-2.67,4.87-2.61,7.04-2.04,.54,.15,1.05,.35,1.51,.56,.47,.18,.89,.39,1.25,.57,.71,.37,1.16,.69,1.16,.69,0,0-.13,.3-.36,.83-.24,.53-.58,1.29-1.01,2.25-.88,1.93-2.2,4.61-3.91,7.6Z"/></g><g><path class="l" d="M54.88,144.02c-1.38,1.26-2.89,1.66-4.39,1.65-1.5-.02-2.93-.59-4.17-1.25-1.22-.72-2.22-1.57-2.92-2.24-.68-.7-1.05-1.2-1.05-1.2,0,0,.82-.67,2.33-2.01,1.51-1.35,3.73-3.42,6.35-6.21,1.38-1.12,2.7-1.59,3.91-1.61,1.23-.07,2.36,.29,3.37,.77,1.02,.45,1.89,1.09,2.53,1.57,.64,.47,1.04,.85,1.04,.85,0,0-.18,.28-.49,.76-.32,.49-.79,1.19-1.37,2.07-1.19,1.76-2.92,4.13-5.12,6.84Z"/><path class="g" d="M54.88,144.02c-1.38,1.26-2.89,1.66-4.39,1.65-1.5-.02-2.93-.59-4.17-1.25-1.22-.72-2.22-1.57-2.92-2.24-.68-.7-1.05-1.2-1.05-1.2,0,0,.82-.67,2.33-2.01,1.51-1.35,3.73-3.42,6.35-6.21,1.38-1.12,2.7-1.59,3.91-1.61,1.23-.07,2.36,.29,3.37,.77,1.02,.45,1.89,1.09,2.53,1.57,.64,.47,1.04,.85,1.04,.85,0,0-.18,.28-.49,.76-.32,.49-.79,1.19-1.37,2.07-1.19,1.76-2.92,4.13-5.12,6.84Z"/></g></g><g><g><path class="l" d="M66.36,146.45c-.57,.72-1.22,1.26-1.91,1.65-.69,.38-1.41,.59-2.15,.7-1.48,.24-2.99-.07-4.32-.55-1.33-.45-2.45-1.19-3.25-1.73-.79-.55-1.25-.98-1.25-.98,0,0,.7-.8,1.98-2.39,1.28-1.61,3.1-3.92,5.24-7.16,2.36-2.66,4.88-2.6,7.04-2.02,1.07,.31,2.04,.78,2.76,1.14,.71,.37,1.16,.69,1.16,.69,0,0-.13,.3-.36,.83-.24,.53-.58,1.29-1.01,2.25-.44,.96-1,2.11-1.65,3.4-.65,1.27-1.42,2.68-2.28,4.19Z"/><path class="g" d="M66.36,146.45c-.57,.72-1.22,1.26-1.91,1.65-.69,.38-1.41,.59-2.15,.7-1.48,.24-2.99-.07-4.32-.55-1.33-.45-2.45-1.19-3.25-1.73-.79-.55-1.25-.98-1.25-.98,0,0,.7-.8,1.98-2.39,1.28-1.61,3.1-3.92,5.24-7.16,2.36-2.66,4.88-2.6,7.04-2.02,1.07,.31,2.04,.78,2.76,1.14,.71,.37,1.16,.69,1.16,.69,0,0-.13,.3-.36,.83-.24,.53-.58,1.29-1.01,2.25-.44,.96-1,2.11-1.65,3.4-.65,1.27-1.42,2.68-2.28,4.19Z"/></g><g><path class="l" d="M90.1,145.55c-.62,1.72-1.75,2.83-3.08,3.54-1.33,.65-2.86,.9-4.26,.87-1.41-.06-2.7-.31-3.63-.57-.93-.29-1.5-.56-1.5-.56,0,0,.4-.98,1.09-2.88,.68-1.89,1.65-4.79,2.62-8.49,.68-1.61,1.62-2.69,2.68-3.28,1.05-.61,2.21-.89,3.33-.91,1.11-.09,2.17,.03,2.97,.18,.79,.12,1.31,.25,1.31,.25,0,0-.02,.33-.07,.91-.05,.58-.13,1.42-.22,2.48-.22,2.08-.6,5.02-1.25,8.46Z"/><path class="g" d="M90.1,145.55c-.62,1.72-1.75,2.83-3.08,3.54-1.33,.65-2.86,.9-4.26,.87-1.41-.06-2.7-.31-3.63-.57-.93-.29-1.5-.56-1.5-.56,0,0,.4-.98,1.09-2.88,.68-1.89,1.65-4.79,2.62-8.49,.68-1.61,1.62-2.69,2.68-3.28,1.05-.61,2.21-.89,3.33-.91,1.11-.09,2.17,.03,2.97,.18,.79,.12,1.31,.25,1.31,.25,0,0-.02,.33-.07,.91-.05,.58-.13,1.42-.22,2.48-.22,2.08-.6,5.02-1.25,8.46Z"/></g><g><path class="l" d="M78.27,146.98c-1.79,3.22-5.19,3.69-7.95,3.15-1.38-.27-2.62-.71-3.48-1.16-.87-.43-1.39-.78-1.39-.78,0,0,.56-.91,1.55-2.68,.49-.89,1.09-1.98,1.77-3.3,.68-1.34,1.42-2.89,2.21-4.64,.47-.75,.98-1.33,1.51-1.78,.54-.47,1.09-.8,1.67-1.02,1.14-.41,2.33-.49,3.44-.36,1.11,.16,2.14,.39,2.91,.67,.76,.26,1.26,.5,1.26,.5,0,0-.08,.32-.22,.87-.15,.56-.36,1.37-.63,2.38-.56,2.01-1.42,4.92-2.64,8.14Z"/><path class="g" d="M78.27,146.98c-1.79,3.22-5.19,3.69-7.95,3.15-1.38-.27-2.62-.71-3.48-1.16-.87-.43-1.39-.78-1.39-.78,0,0,.56-.91,1.55-2.68,.49-.89,1.09-1.98,1.77-3.3,.68-1.34,1.42-2.89,2.21-4.64,.47-.75,.98-1.33,1.51-1.78,.54-.47,1.09-.8,1.67-1.02,1.14-.41,2.33-.49,3.44-.36,1.11,.16,2.14,.39,2.91,.67,.76,.26,1.26,.5,1.26,.5,0,0-.08,.32-.22,.87-.15,.56-.36,1.37-.63,2.38-.56,2.01-1.42,4.92-2.64,8.14Z"/></g></g><g><g><path class="l" d="M89.91,145.6c-.63,1.71-1.76,2.83-3.09,3.53-1.34,.63-2.86,.9-4.27,.86-1.41-.06-2.7-.3-3.63-.58-.93-.29-1.5-.56-1.5-.56,0,0,.4-.98,1.1-2.88,.69-1.88,1.66-4.78,2.65-8.48,1.37-3.26,3.78-4.07,6.02-4.17,1.11-.07,2.17,.04,2.97,.19,.8,.14,1.31,.26,1.31,.26,0,0-.02,.33-.07,.91-.05,.57-.11,1.43-.23,2.47-.23,2.08-.61,5.02-1.27,8.46Z"/><path class="g" d="M89.91,145.6c-.63,1.71-1.76,2.83-3.09,3.53-1.34,.63-2.86,.9-4.27,.86-1.41-.06-2.7-.3-3.63-.58-.93-.29-1.5-.56-1.5-.56,0,0,.4-.98,1.1-2.88,.69-1.88,1.66-4.78,2.65-8.48,1.37-3.26,3.78-4.07,6.02-4.17,1.11-.07,2.17,.04,2.97,.19,.8,.14,1.31,.26,1.31,.26,0,0-.02,.33-.07,.91-.05,.57-.11,1.43-.23,2.47-.23,2.08-.61,5.02-1.27,8.46Z"/></g><g><path class="l" d="M112.09,137c-.04,3.67-2.8,5.74-5.5,6.57-.67,.22-1.33,.37-1.95,.48-.62,.1-1.19,.13-1.68,.16-.97,.04-1.59-.01-1.59-.01,0,0,.06-1.07,.08-3.1,.03-2.02,.02-5.01-.29-8.87,.05-.89,.22-1.64,.48-2.28,.25-.66,.58-1.22,.98-1.69,.8-.91,1.81-1.54,2.85-1.95,1.05-.39,2.06-.68,2.87-.8,.8-.12,1.34-.17,1.34-.17,0,0,.08,.32,.23,.88,.15,.57,.35,1.37,.59,2.39,.47,2.03,1.09,4.98,1.58,8.4Z"/><path class="g" d="M112.09,137c-.04,3.67-2.8,5.74-5.5,6.57-.67,.22-1.33,.37-1.95,.48-.62,.1-1.19,.13-1.68,.16-.97,.04-1.59-.01-1.59-.01,0,0,.06-1.07,.08-3.1,.03-2.02,.02-5.01-.29-8.87,.05-.89,.22-1.64,.48-2.28,.25-.66,.58-1.22,.98-1.69,.8-.91,1.81-1.54,2.85-1.95,1.05-.39,2.06-.68,2.87-.8,.8-.12,1.34-.17,1.34-.17,0,0,.08,.32,.23,.88,.15,.57,.35,1.37,.59,2.39,.47,2.03,1.09,4.98,1.58,8.4Z"/></g><g><path class="l" d="M101.37,142.21c-.63,3.66-3.73,5.16-6.51,5.57-1.39,.22-2.72,.12-3.68,.02-.96-.09-1.57-.29-1.57-.29l.16-.76c.11-.5,.26-1.26,.44-2.27,.36-2.02,.85-4.96,1.2-8.8,.4-1.76,1.17-2.88,2.1-3.67,.92-.83,2.05-1.18,3.13-1.46,1.08-.26,2.17-.28,2.96-.31,.8-.01,1.34,.05,1.34,.05,0,0,.03,.33,.08,.9,.04,.58,.11,1.42,.19,2.47,.14,2.13,.24,5.07,.16,8.55Z"/><path class="g" d="M101.37,142.21c-.63,3.66-3.73,5.16-6.51,5.57-1.39,.22-2.72,.12-3.68,.02-.96-.09-1.57-.29-1.57-.29l.16-.76c.11-.5,.26-1.26,.44-2.27,.36-2.02,.85-4.96,1.2-8.8,.4-1.76,1.17-2.88,2.1-3.67,.92-.83,2.05-1.18,3.13-1.46,1.08-.26,2.17-.28,2.96-.31,.8-.01,1.34,.05,1.34,.05,0,0,.03,.33,.08,.9,.04,.58,.11,1.42,.19,2.47,.14,2.13,.24,5.07,.16,8.55Z"/></g></g><g><g><path class="l" d="M111.92,137.09c-.04,3.67-2.82,5.73-5.51,6.56-.67,.21-1.33,.37-1.95,.48-.62,.09-1.19,.13-1.68,.15-.97,.04-1.59-.01-1.59-.01,0,0,.06-1.07,.09-3.1,.03-2.03,.04-5.01-.26-8.87,.11-1.77,.69-3.02,1.47-3.97,.8-.91,1.82-1.53,2.85-1.95,1.05-.39,2.07-.67,2.87-.79,.8-.13,1.34-.17,1.34-.17,0,0,.08,.32,.23,.88,.14,.56,.33,1.37,.58,2.39,.46,2.03,1.09,5,1.55,8.41Z"/><path class="g" d="M111.92,137.09c-.04,3.67-2.82,5.73-5.51,6.56-.67,.21-1.33,.37-1.95,.48-.62,.09-1.19,.13-1.68,.15-.97,.04-1.59-.01-1.59-.01,0,0,.06-1.07,.09-3.1,.03-2.03,.04-5.01-.26-8.87,.11-1.77,.69-3.02,1.47-3.97,.8-.91,1.82-1.53,2.85-1.95,1.05-.39,2.07-.67,2.87-.79,.8-.13,1.34-.17,1.34-.17,0,0,.08,.32,.23,.88,.14,.56,.33,1.37,.58,2.39,.46,2.03,1.09,5,1.55,8.41Z"/></g><g><path class="l" d="M130.09,121.78c1.16,3.49-.79,6.34-3.07,7.99-1.11,.86-2.32,1.42-3.21,1.78-.9,.36-1.5,.51-1.5,.51,0,0-.3-1.03-.93-2.96-.65-1.94-1.6-4.74-3.15-8.3-.48-1.72-.33-3.07,.09-4.23,.22-.57,.53-1.07,.89-1.53,.34-.47,.74-.88,1.17-1.25,.87-.71,1.74-1.3,2.46-1.69,.71-.39,1.22-.59,1.22-.59,0,0,.18,.27,.5,.75,.31,.49,.76,1.19,1.33,2.07,1.1,1.78,2.66,4.37,4.21,7.44Z"/><path class="g" d="M130.09,121.78c1.16,3.49-.79,6.34-3.07,7.99-1.11,.86-2.32,1.42-3.21,1.78-.9,.36-1.5,.51-1.5,.51,0,0-.3-1.03-.93-2.96-.65-1.94-1.6-4.74-3.15-8.3-.48-1.72-.33-3.07,.09-4.23,.22-.57,.53-1.07,.89-1.53,.34-.47,.74-.88,1.17-1.25,.87-.71,1.74-1.3,2.46-1.69,.71-.39,1.22-.59,1.22-.59,0,0,.18,.27,.5,.75,.31,.49,.76,1.19,1.33,2.07,1.1,1.78,2.66,4.37,4.21,7.44Z"/></g><g><path class="l" d="M121.65,130.19c.31,1.84-.19,3.32-1.01,4.58-.84,1.24-2.09,2.13-3.32,2.81-1.27,.62-2.53,1.01-3.47,1.22-.96,.19-1.58,.23-1.58,.23,0,0-.12-1.06-.41-3.05-.31-2-.83-4.99-1.74-8.71-.18-1.76,.15-3.13,.79-4.15,.61-1.07,1.54-1.81,2.49-2.4,.93-.61,1.96-.97,2.7-1.26,.75-.28,1.28-.4,1.28-.4,0,0,.13,.3,.37,.83,.23,.53,.56,1.31,.98,2.28,.83,1.97,1.86,4.7,2.92,8.03Z"/><path class="g" d="M121.65,130.19c.31,1.84-.19,3.32-1.01,4.58-.84,1.24-2.09,2.13-3.32,2.81-1.27,.62-2.53,1.01-3.47,1.22-.96,.19-1.58,.23-1.58,.23,0,0-.12-1.06-.41-3.05-.31-2-.83-4.99-1.74-8.71-.18-1.76,.15-3.13,.79-4.15,.61-1.07,1.54-1.81,2.49-2.4,.93-.61,1.96-.97,2.7-1.26,.75-.28,1.28-.4,1.28-.4,0,0,.13,.3,.37,.83,.23,.53,.56,1.31,.98,2.28,.83,1.97,1.86,4.7,2.92,8.03Z"/></g></g><g><g><path class="l" d="M129.96,121.92c.57,1.74,.4,3.35-.26,4.68-.32,.67-.74,1.3-1.22,1.86-.5,.54-1.05,1.02-1.61,1.45-1.11,.87-2.33,1.41-3.22,1.77-.9,.36-1.5,.51-1.5,.51,0,0-.29-1.03-.92-2.96-.65-1.95-1.59-4.74-3.13-8.31-.48-1.73-.32-3.07,.1-4.23,.22-.57,.53-1.08,.9-1.53,.35-.46,.74-.88,1.17-1.24,.86-.71,1.75-1.29,2.46-1.68,.71-.39,1.22-.59,1.22-.59,0,0,.18,.27,.49,.75,.31,.49,.76,1.19,1.32,2.08,1.1,1.78,2.64,4.38,4.19,7.45Z"/><path class="g" d="M129.96,121.92c.57,1.74,.4,3.35-.26,4.68-.32,.67-.74,1.3-1.22,1.86-.5,.54-1.05,1.02-1.61,1.45-1.11,.87-2.33,1.41-3.22,1.77-.9,.36-1.5,.51-1.5,.51,0,0-.29-1.03-.92-2.96-.65-1.95-1.59-4.74-3.13-8.31-.48-1.73-.32-3.07,.1-4.23,.22-.57,.53-1.08,.9-1.53,.35-.46,.74-.88,1.17-1.24,.86-.71,1.75-1.29,2.46-1.68,.71-.39,1.22-.59,1.22-.59,0,0,.18,.27,.49,.75,.31,.49,.76,1.19,1.32,2.08,1.1,1.78,2.64,4.38,4.19,7.45Z"/></g><g><path class="l" d="M142.2,101.55c1.12,1.47,1.46,3.04,1.29,4.51-.14,1.5-.8,2.89-1.59,4.05-.76,1.18-1.75,2.09-2.47,2.72-.72,.64-1.26,.97-1.26,.97,0,0-.6-.87-1.83-2.5-1.25-1.63-3.05-3.97-5.67-6.83-2.01-2.94-1.33-5.37-.24-7.32,.28-.48,.6-.93,.91-1.33,.29-.41,.59-.77,.86-1.07,.54-.6,.95-.96,.95-.96,0,0,.26,.2,.71,.55,.45,.36,1.11,.88,1.94,1.53,1.65,1.33,3.93,3.26,6.4,5.67Z"/><path class="g" d="M142.2,101.55c1.12,1.47,1.46,3.04,1.29,4.51-.14,1.5-.8,2.89-1.59,4.05-.76,1.18-1.75,2.09-2.47,2.72-.72,.64-1.26,.97-1.26,.97,0,0-.6-.87-1.83-2.5-1.25-1.63-3.05-3.97-5.67-6.83-2.01-2.94-1.33-5.37-.24-7.32,.28-.48,.6-.93,.91-1.33,.29-.41,.59-.77,.86-1.07,.54-.6,.95-.96,.95-.96,0,0,.26,.2,.71,.55,.45,.36,1.11,.88,1.94,1.53,1.65,1.33,3.93,3.26,6.4,5.67Z"/></g><g><path class="l" d="M136.94,112.24c.86,1.63,.89,3.21,.52,4.66-.42,1.43-1.27,2.71-2.25,3.73-1,1-2.04,1.79-2.88,2.28-.84,.49-1.42,.73-1.42,.73,0,0-.45-.96-1.39-2.76-.92-1.78-2.4-4.45-4.46-7.68-.72-1.59-.88-3.01-.59-4.19,.26-1.19,.85-2.23,1.59-3.07,.68-.87,1.51-1.57,2.15-2.06,.62-.51,1.08-.8,1.08-.8,0,0,.22,.24,.62,.66,.39,.43,.96,1.06,1.67,1.84,1.39,1.58,3.28,3.85,5.36,6.65Z"/><path class="g" d="M136.94,112.24c.86,1.63,.89,3.21,.52,4.66-.42,1.43-1.27,2.71-2.25,3.73-1,1-2.04,1.79-2.88,2.28-.84,.49-1.42,.73-1.42,.73,0,0-.45-.96-1.39-2.76-.92-1.78-2.4-4.45-4.46-7.68-.72-1.59-.88-3.01-.59-4.19,.26-1.19,.85-2.23,1.59-3.07,.68-.87,1.51-1.57,2.15-2.06,.62-.51,1.08-.8,1.08-.8,0,0,.22,.24,.62,.66,.39,.43,.96,1.06,1.67,1.84,1.39,1.58,3.28,3.85,5.36,6.65Z"/></g></g><g><g><path class="l" d="M142.12,101.73c.55,.73,.92,1.49,1.13,2.26,.19,.76,.22,1.51,.14,2.26-.14,1.5-.82,2.88-1.6,4.05-.77,1.18-1.76,2.08-2.48,2.72-.72,.64-1.27,.96-1.27,.96,0,0-.59-.86-1.82-2.5-1.24-1.63-3.06-3.98-5.65-6.85-2.01-2.94-1.32-5.38-.22-7.32,.57-.96,1.26-1.78,1.78-2.39,.54-.6,.95-.95,.95-.95,0,0,.26,.2,.71,.55,.45,.36,1.11,.88,1.93,1.54,.82,.67,1.8,1.48,2.89,2.44,1.07,.95,2.25,2.03,3.49,3.24Z"/><path class="g" d="M142.12,101.73c.55,.73,.92,1.49,1.13,2.26,.19,.76,.22,1.51,.14,2.26-.14,1.5-.82,2.88-1.6,4.05-.77,1.18-1.76,2.08-2.48,2.72-.72,.64-1.27,.96-1.27,.96,0,0-.59-.86-1.82-2.5-1.24-1.63-3.06-3.98-5.65-6.85-2.01-2.94-1.32-5.38-.22-7.32,.57-.96,1.26-1.78,1.78-2.39,.54-.6,.95-.95,.95-.95,0,0,.26,.2,.71,.55,.45,.36,1.11,.88,1.93,1.54,.82,.67,1.8,1.48,2.89,2.44,1.07,.95,2.25,2.03,3.49,3.24Z"/></g><g><path class="l" d="M147.06,78.47c1.56,1.02,2.32,2.39,2.69,3.84,.36,1.46,.15,2.98-.17,4.35-.39,1.36-.98,2.54-1.45,3.38-.49,.84-.9,1.32-.9,1.32,0,0-.85-.63-2.52-1.76-1.7-1.13-4.24-2.77-7.59-4.61-1.44-1.06-2.21-2.22-2.53-3.39-.38-1.17-.31-2.36-.09-3.46,.18-1.1,.58-2.1,.91-2.85,.3-.74,.56-1.22,.56-1.22l.86,.29c.55,.19,1.35,.47,2.35,.82,1.98,.72,4.72,1.81,7.89,3.28Z"/><path class="g" d="M147.06,78.47c1.56,1.02,2.32,2.39,2.69,3.84,.36,1.46,.15,2.98-.17,4.35-.39,1.36-.98,2.54-1.45,3.38-.49,.84-.9,1.32-.9,1.32,0,0-.85-.63-2.52-1.76-1.7-1.13-4.24-2.77-7.59-4.61-1.44-1.06-2.21-2.22-2.53-3.39-.38-1.17-.31-2.36-.09-3.46,.18-1.1,.58-2.1,.91-2.85,.3-.74,.56-1.22,.56-1.22l.86,.29c.55,.19,1.35,.47,2.35,.82,1.98,.72,4.72,1.81,7.89,3.28Z"/></g><g><path class="l" d="M145.58,90.29c1.31,1.25,1.93,2.75,2.01,4.24,.05,1.48-.28,2.99-.91,4.26-.6,1.28-1.34,2.37-1.99,3.09-.63,.74-1.1,1.16-1.1,1.16,0,0-.74-.76-2.21-2.16-1.45-1.39-3.69-3.42-6.71-5.81-2.43-2.55-2.22-5.08-1.43-7.18,.41-1.04,.9-1.98,1.36-2.65,.46-.67,.78-1.1,.78-1.1l.81,.42c.52,.27,1.24,.67,2.16,1.19,1.81,1.04,4.39,2.57,7.25,4.54Z"/><path class="g" d="M145.58,90.29c1.31,1.25,1.93,2.75,2.01,4.24,.05,1.48-.28,2.99-.91,4.26-.6,1.28-1.34,2.37-1.99,3.09-.63,.74-1.1,1.16-1.1,1.16,0,0-.74-.76-2.21-2.16-1.45-1.39-3.69-3.42-6.71-5.81-2.43-2.55-2.22-5.08-1.43-7.18,.41-1.04,.9-1.98,1.36-2.65,.46-.67,.78-1.1,.78-1.1l.81,.42c.52,.27,1.24,.67,2.16,1.19,1.81,1.04,4.39,2.57,7.25,4.54Z"/></g></g><g><g><path class="l" d="M147.05,78.66c1.54,1.02,2.31,2.39,2.68,3.85,.34,1.46,.15,2.99-.19,4.35-.4,1.36-.98,2.54-1.45,3.38-.51,.83-.91,1.32-.91,1.32,0,0-.85-.63-2.52-1.77-1.69-1.13-4.24-2.78-7.58-4.63-1.42-1.06-2.21-2.23-2.52-3.4-.36-1.17-.31-2.36-.07-3.46,.19-1.1,.57-2.1,.91-2.84,.3-.74,.57-1.21,.57-1.21,0,0,.31,.1,.86,.29,.55,.19,1.35,.48,2.35,.83,1.96,.73,4.71,1.82,7.88,3.3Z"/><path class="g" d="M147.05,78.66c1.54,1.02,2.31,2.39,2.68,3.85,.34,1.46,.15,2.99-.19,4.35-.4,1.36-.98,2.54-1.45,3.38-.51,.83-.91,1.32-.91,1.32,0,0-.85-.63-2.52-1.77-1.69-1.13-4.24-2.78-7.58-4.63-1.42-1.06-2.21-2.23-2.52-3.4-.36-1.17-.31-2.36-.07-3.46,.19-1.1,.57-2.1,.91-2.84,.3-.74,.57-1.21,.57-1.21,0,0,.31,.1,.86,.29,.55,.19,1.35,.48,2.35,.83,1.96,.73,4.71,1.82,7.88,3.3Z"/></g><g><path class="l" d="M144.19,55.07c3.56,.94,4.87,4.14,5.01,6.95,.04,.7,.03,1.38-.01,2-.07,.62-.17,1.19-.27,1.66-.2,.95-.41,1.54-.41,1.54,0,0-1.02-.32-2.98-.85-1.96-.52-4.85-1.26-8.67-1.92-1.69-.54-2.75-1.4-3.49-2.39-.36-.5-.6-1.03-.79-1.58-.2-.54-.33-1.1-.4-1.66-.12-1.11-.14-2.17-.07-2.98,.06-.8,.17-1.34,.17-1.34h.9c.58,0,1.41,0,2.46,.01,2.09,.05,5.12,.16,8.53,.54Z"/><path class="g" d="M144.19,55.07c3.56,.94,4.87,4.14,5.01,6.95,.04,.7,.03,1.38-.01,2-.07,.62-.17,1.19-.27,1.66-.2,.95-.41,1.54-.41,1.54,0,0-1.02-.32-2.98-.85-1.96-.52-4.85-1.26-8.67-1.92-1.69-.54-2.75-1.4-3.49-2.39-.36-.5-.6-1.03-.79-1.58-.2-.54-.33-1.1-.4-1.66-.12-1.11-.14-2.17-.07-2.98,.06-.8,.17-1.34,.17-1.34h.9c.58,0,1.41,0,2.46,.01,2.09,.05,5.12,.16,8.53,.54Z"/></g><g><path class="l" d="M146.59,66.74c1.7,.76,2.71,1.98,3.27,3.36,.6,1.38,.65,2.92,.52,4.31-.1,1.4-.56,2.66-.88,3.56-.34,.9-.65,1.45-.65,1.45,0,0-.94-.48-2.81-1.32-1.87-.84-4.58-2.03-8.23-3.31-3.16-1.63-3.73-4.1-3.69-6.34,.02-1.11,.27-2.17,.43-2.95,.18-.78,.37-1.29,.37-1.29l.89,.14c.57,.1,1.4,.25,2.44,.43,2.1,.39,4.97,1.02,8.32,1.96Z"/><path class="g" d="M146.59,66.74c1.7,.76,2.71,1.98,3.27,3.36,.6,1.38,.65,2.92,.52,4.31-.1,1.4-.56,2.66-.88,3.56-.34,.9-.65,1.45-.65,1.45,0,0-.94-.48-2.81-1.32-1.87-.84-4.58-2.03-8.23-3.31-3.16-1.63-3.73-4.1-3.69-6.34,.02-1.11,.27-2.17,.43-2.95,.18-.78,.37-1.29,.37-1.29l.89,.14c.57,.1,1.4,.25,2.44,.43,2.1,.39,4.97,1.02,8.32,1.96Z"/></g></g><g><g><path class="l" d="M144.24,55.26c3.56,.95,4.87,4.15,4.99,6.96,.04,.7,.04,1.38-.02,2-.07,.62-.17,1.19-.27,1.66-.2,.95-.41,1.54-.41,1.54,0,0-1.02-.32-2.98-.85-1.96-.53-4.84-1.27-8.66-1.94-1.69-.55-2.75-1.41-3.48-2.4-.36-.5-.61-1.03-.78-1.58-.2-.54-.33-1.1-.4-1.66-.12-1.11-.12-2.17-.06-2.98,.06-.8,.18-1.34,.18-1.34h.9l2.46,.02c2.09,.05,5.11,.18,8.53,.57Z"/><path class="g" d="M144.24,55.26c3.56,.95,4.87,4.15,4.99,6.96,.04,.7,.04,1.38-.02,2-.07,.62-.17,1.19-.27,1.66-.2,.95-.41,1.54-.41,1.54,0,0-1.02-.32-2.98-.85-1.96-.53-4.84-1.27-8.66-1.94-1.69-.55-2.75-1.41-3.48-2.4-.36-.5-.61-1.03-.78-1.58-.2-.54-.33-1.1-.4-1.66-.12-1.11-.12-2.17-.06-2.98,.06-.8,.18-1.34,.18-1.34h.9l2.46,.02c2.09,.05,5.11,.18,8.53,.57Z"/></g><g><path class="l" d="M133.84,33.87c1.84-.14,3.34,.43,4.48,1.38,1.18,.93,1.98,2.25,2.53,3.54,.58,1.28,.79,2.61,.94,3.56,.14,.95,.12,1.59,.12,1.59,0,0-1.05,.02-3.09,.17-2.05,.16-5,.4-8.82,1.02-3.56,.08-5.23-1.82-6.27-3.8-.25-.5-.45-1.01-.61-1.49-.18-.47-.32-.92-.42-1.31-.21-.78-.28-1.32-.28-1.32,0,0,.31-.11,.85-.3,.55-.18,1.34-.45,2.34-.78,2.01-.65,4.88-1.5,8.24-2.26Z"/><path class="g" d="M133.84,33.87c1.84-.14,3.34,.43,4.48,1.38,1.18,.93,1.98,2.25,2.53,3.54,.58,1.28,.79,2.61,.94,3.56,.14,.95,.12,1.59,.12,1.59,0,0-1.05,.02-3.09,.17-2.05,.16-5,.4-8.82,1.02-3.56,.08-5.23-1.82-6.27-3.8-.25-.5-.45-1.01-.61-1.49-.18-.47-.32-.92-.42-1.31-.21-.78-.28-1.32-.28-1.32,0,0,.31-.11,.85-.3,.55-.18,1.34-.45,2.34-.78,2.01-.65,4.88-1.5,8.24-2.26Z"/></g><g><path class="l" d="M139.94,44.11c1.83,.17,3.18,1,4.19,2.11,.96,1.13,1.58,2.55,1.89,3.92,.29,1.38,.38,2.69,.33,3.66-.05,.97-.17,1.59-.17,1.59,0,0-1.05-.15-3.07-.35-1.99-.21-5.05-.43-8.87-.46-1.72-.27-3-.91-3.83-1.79-.85-.87-1.41-1.92-1.7-3-.36-1.05-.5-2.12-.56-2.93-.09-.79-.08-1.33-.08-1.33l.89-.16,2.45-.4c2.08-.3,5.01-.65,8.5-.86Z"/><path class="g" d="M139.94,44.11c1.83,.17,3.18,1,4.19,2.11,.96,1.13,1.58,2.55,1.89,3.92,.29,1.38,.38,2.69,.33,3.66-.05,.97-.17,1.59-.17,1.59,0,0-1.05-.15-3.07-.35-1.99-.21-5.05-.43-8.87-.46-1.72-.27-3-.91-3.83-1.79-.85-.87-1.41-1.92-1.7-3-.36-1.05-.5-2.12-.56-2.93-.09-.79-.08-1.33-.08-1.33l.89-.16,2.45-.4c2.08-.3,5.01-.65,8.5-.86Z"/></g></g><g><g><path class="l" d="M133.96,34.03c.92-.06,1.75,.04,2.51,.28,.73,.25,1.39,.64,1.97,1.11,1.18,.93,1.96,2.26,2.52,3.55,.57,1.29,.78,2.61,.93,3.56,.14,.95,.11,1.59,.11,1.59,0,0-1.04,.02-3.09,.16-2.05,.15-5.01,.39-8.82,1-3.56,.08-5.23-1.83-6.26-3.81-.5-1-.81-2.03-1.03-2.8-.21-.78-.28-1.32-.28-1.32l.85-.3c.55-.18,1.35-.45,2.34-.78,1.01-.32,2.23-.69,3.62-1.09,1.38-.38,2.93-.77,4.63-1.16Z"/><path class="g" d="M133.96,34.03c.92-.06,1.75,.04,2.51,.28,.73,.25,1.39,.64,1.97,1.11,1.18,.93,1.96,2.26,2.52,3.55,.57,1.29,.78,2.61,.93,3.56,.14,.95,.11,1.59,.11,1.59,0,0-1.04,.02-3.09,.16-2.05,.15-5.01,.39-8.82,1-3.56,.08-5.23-1.83-6.26-3.81-.5-1-.81-2.03-1.03-2.8-.21-.78-.28-1.32-.28-1.32l.85-.3c.55-.18,1.35-.45,2.34-.78,1.01-.32,2.23-.69,3.62-1.09,1.38-.38,2.93-.77,4.63-1.16Z"/></g><g><path class="l" d="M117.2,17.18c3.41-1.47,6.36,.3,8.23,2.39,.94,1.05,1.59,2.21,2.04,3.06,.22,.42,.37,.79,.47,1.06l.15,.41s-.98,.36-2.86,1.16c-1.88,.81-4.62,2.02-8.01,3.82-1.69,.63-3.05,.6-4.23,.26-1.19-.32-2.12-1.07-2.94-1.82-.8-.77-1.42-1.66-1.88-2.31-.45-.67-.7-1.15-.7-1.15,0,0,.26-.2,.71-.56,.46-.35,1.13-.86,1.96-1.5,1.7-1.28,4.12-2.99,7.07-4.81Z"/><path class="g" d="M117.2,17.18c3.41-1.47,6.36,.3,8.23,2.39,.94,1.05,1.59,2.21,2.04,3.06,.22,.42,.37,.79,.47,1.06l.15,.41s-.98,.36-2.86,1.16c-1.88,.81-4.62,2.02-8.01,3.82-1.69,.63-3.05,.6-4.23,.26-1.19-.32-2.12-1.07-2.94-1.82-.8-.77-1.42-1.66-1.88-2.31-.45-.67-.7-1.15-.7-1.15,0,0,.26-.2,.71-.56,.46-.35,1.13-.86,1.96-1.5,1.7-1.28,4.12-2.99,7.07-4.81Z"/></g><g><path class="l" d="M126.28,24.89c1.77-.41,3.34-.1,4.64,.64,1.26,.77,2.34,1.87,3.06,3.09,.74,1.2,1.25,2.41,1.5,3.35,.27,.93,.37,1.55,.37,1.55,0,0-1.05,.21-3.02,.67-1.96,.46-4.88,1.22-8.53,2.45-3.47,.64-5.48-.92-6.8-2.74-.66-.9-1.16-1.84-1.48-2.59-.32-.75-.5-1.25-.5-1.25l.8-.44c.51-.28,1.26-.69,2.19-1.16,1.86-.95,4.54-2.25,7.77-3.58Z"/><path class="g" d="M126.28,24.89c1.77-.41,3.34-.1,4.64,.64,1.26,.77,2.34,1.87,3.06,3.09,.74,1.2,1.25,2.41,1.5,3.35,.27,.93,.37,1.55,.37,1.55,0,0-1.05,.21-3.02,.67-1.96,.46-4.88,1.22-8.53,2.45-3.47,.64-5.48-.92-6.8-2.74-.66-.9-1.16-1.84-1.48-2.59-.32-.75-.5-1.25-.5-1.25l.8-.44c.51-.28,1.26-.69,2.19-1.16,1.86-.95,4.54-2.25,7.77-3.58Z"/></g></g><g><g><path class="l" d="M117.36,17.3c3.41-1.46,6.35,.31,8.22,2.41,.93,1.06,1.59,2.21,2.03,3.06,.43,.86,.61,1.47,.61,1.47,0,0-.99,.37-2.86,1.14-1.88,.8-4.64,2.02-8.03,3.8-1.69,.63-3.06,.61-4.23,.24-1.2-.32-2.11-1.08-2.94-1.82-.81-.77-1.41-1.67-1.88-2.32-.45-.67-.69-1.15-.69-1.15,0,0,.26-.2,.71-.56,.46-.35,1.13-.86,1.97-1.5,1.71-1.28,4.12-2.96,7.08-4.79Z"/><path class="g" d="M117.36,17.3c3.41-1.46,6.35,.31,8.22,2.41,.93,1.06,1.59,2.21,2.03,3.06,.43,.86,.61,1.47,.61,1.47,0,0-.99,.37-2.86,1.14-1.88,.8-4.64,2.02-8.03,3.8-1.69,.63-3.06,.61-4.23,.24-1.2-.32-2.11-1.08-2.94-1.82-.81-.77-1.41-1.67-1.88-2.32-.45-.67-.69-1.15-.69-1.15,0,0,.26-.2,.71-.56,.46-.35,1.13-.86,1.97-1.5,1.71-1.28,4.12-2.96,7.08-4.79Z"/></g><g><path class="l" d="M96.04,6.78c2.74-2.49,6.11-1.78,8.57-.42,1.22,.72,2.23,1.57,2.92,2.24,.68,.69,1.06,1.2,1.06,1.2,0,0-.82,.67-2.33,2.01-1.51,1.36-3.73,3.43-6.34,6.21-1.38,1.13-2.7,1.59-3.91,1.61-1.23,.08-2.36-.29-3.37-.76-1.02-.44-1.89-1.1-2.53-1.57-.64-.47-1.04-.85-1.04-.85,0,0,.18-.28,.49-.76,.32-.49,.79-1.19,1.37-2.07,1.19-1.77,2.91-4.13,5.12-6.85Z"/><path class="g" d="M96.04,6.78c2.74-2.49,6.11-1.78,8.57-.42,1.22,.72,2.23,1.57,2.92,2.24,.68,.69,1.06,1.2,1.06,1.2,0,0-.82,.67-2.33,2.01-1.51,1.36-3.73,3.43-6.34,6.21-1.38,1.13-2.7,1.59-3.91,1.61-1.23,.08-2.36-.29-3.37-.76-1.02-.44-1.89-1.1-2.53-1.57-.64-.47-1.04-.85-1.04-.85,0,0,.18-.28,.49-.76,.32-.49,.79-1.19,1.37-2.07,1.19-1.77,2.91-4.13,5.12-6.85Z"/></g><g><path class="l" d="M107.13,11.14c3.1-1.97,6.34-.77,8.5,1.03,.55,.45,1.04,.92,1.46,1.37,.42,.47,.76,.93,1.04,1.32,.56,.79,.86,1.34,.86,1.34,0,0-.92,.54-2.64,1.62-1.71,1.08-4.21,2.72-7.29,5.07-.77,.44-1.5,.71-2.18,.84-.69,.15-1.34,.18-1.95,.1-1.2-.18-2.28-.67-3.19-1.32-.9-.67-1.69-1.36-2.23-1.97-.54-.61-.87-1.03-.87-1.03,0,0,.22-.24,.61-.68,.39-.43,.96-1.04,1.69-1.79,1.45-1.5,3.58-3.63,6.19-5.9Z"/><path class="g" d="M107.13,11.14c3.1-1.97,6.34-.77,8.5,1.03,.55,.45,1.04,.92,1.46,1.37,.42,.47,.76,.93,1.04,1.32,.56,.79,.86,1.34,.86,1.34,0,0-.92,.54-2.64,1.62-1.71,1.08-4.21,2.72-7.29,5.07-.77,.44-1.5,.71-2.18,.84-.69,.15-1.34,.18-1.95,.1-1.2-.18-2.28-.67-3.19-1.32-.9-.67-1.69-1.36-2.23-1.97-.54-.61-.87-1.03-.87-1.03,0,0,.22-.24,.61-.68,.39-.43,.96-1.04,1.69-1.79,1.45-1.5,3.58-3.63,6.19-5.9Z"/></g></g><g><g><path class="l" d="M96.22,6.83c1.38-1.25,2.89-1.65,4.4-1.65,1.5,.03,2.93,.59,4.17,1.26,1.21,.72,2.23,1.57,2.92,2.24,.68,.7,1.05,1.2,1.05,1.2,0,0-.82,.67-2.34,2.01-1.51,1.34-3.74,3.42-6.36,6.2-1.38,1.11-2.71,1.59-3.91,1.6-1.22,.06-2.36-.29-3.36-.78-1.01-.45-1.89-1.09-2.53-1.58-.64-.47-1.04-.85-1.04-.85,0,0,.18-.28,.49-.76,.32-.49,.79-1.19,1.37-2.07,1.19-1.75,2.92-4.12,5.13-6.83Z"/><path class="g" d="M96.22,6.83c1.38-1.25,2.89-1.65,4.4-1.65,1.5,.03,2.93,.59,4.17,1.26,1.21,.72,2.23,1.57,2.92,2.24,.68,.7,1.05,1.2,1.05,1.2,0,0-.82,.67-2.34,2.01-1.51,1.34-3.74,3.42-6.36,6.2-1.38,1.11-2.71,1.59-3.91,1.6-1.22,.06-2.36-.29-3.36-.78-1.01-.45-1.89-1.09-2.53-1.58-.64-.47-1.04-.85-1.04-.85,0,0,.18-.28,.49-.76,.32-.49,.79-1.19,1.37-2.07,1.19-1.75,2.92-4.12,5.13-6.83Z"/></g><g><path class="l" d="M72.64,3.85c1.78-3.22,5.19-3.7,7.95-3.16,1.38,.27,2.62,.7,3.49,1.16,.87,.43,1.39,.78,1.39,.78,0,0-.56,.91-1.55,2.68-.98,1.75-2.4,4.42-3.97,7.94-.94,1.48-2.03,2.35-3.18,2.8-1.14,.41-2.33,.5-3.44,.36-1.11-.16-2.14-.39-2.91-.67-.77-.26-1.26-.5-1.26-.5,0,0,.08-.32,.22-.88,.15-.56,.36-1.37,.63-2.38,.56-2.01,1.42-4.92,2.63-8.14Z"/><path class="g" d="M72.64,3.85c1.78-3.22,5.19-3.7,7.95-3.16,1.38,.27,2.62,.7,3.49,1.16,.87,.43,1.39,.78,1.39,.78,0,0-.56,.91-1.55,2.68-.98,1.75-2.4,4.42-3.97,7.94-.94,1.48-2.03,2.35-3.18,2.8-1.14,.41-2.33,.5-3.44,.36-1.11-.16-2.14-.39-2.91-.67-.77-.26-1.26-.5-1.26-.5,0,0,.08-.32,.22-.88,.15-.56,.36-1.37,.63-2.38,.56-2.01,1.42-4.92,2.63-8.14Z"/></g><g><path class="l" d="M84.54,4.36c1.14-1.45,2.58-2.17,4.06-2.36,.74-.1,1.49-.11,2.22,0,.73,.12,1.43,.31,2.1,.55,1.33,.45,2.46,1.18,3.25,1.72,.79,.56,1.25,.98,1.25,.98,0,0-.7,.81-1.98,2.4-1.27,1.61-3.09,3.92-5.23,7.17-2.35,2.67-4.88,2.61-7.04,2.03-.54-.15-1.05-.35-1.51-.56-.47-.19-.89-.39-1.25-.58-.71-.37-1.16-.69-1.16-.69l.36-.83c.24-.53,.58-1.29,1.01-2.25,.44-.96,.99-2.11,1.65-3.4,.65-1.28,1.41-2.68,2.27-4.19Z"/><path class="g" d="M84.54,4.36c1.14-1.45,2.58-2.17,4.06-2.36,.74-.1,1.49-.11,2.22,0,.73,.12,1.43,.31,2.1,.55,1.33,.45,2.46,1.18,3.25,1.72,.79,.56,1.25,.98,1.25,.98,0,0-.7,.81-1.98,2.4-1.27,1.61-3.09,3.92-5.23,7.17-2.35,2.67-4.88,2.61-7.04,2.03-.54-.15-1.05-.35-1.51-.56-.47-.19-.89-.39-1.25-.58-.71-.37-1.16-.69-1.16-.69l.36-.83c.24-.53,.58-1.29,1.01-2.25,.44-.96,.99-2.11,1.65-3.4,.65-1.28,1.41-2.68,2.27-4.19Z"/></g></g><g><g><path class="l" d="M72.84,3.84c1.79-3.22,5.2-3.69,7.96-3.14,1.39,.26,2.62,.72,3.48,1.17,.87,.43,1.39,.78,1.39,.78,0,0-.56,.91-1.55,2.68-.5,.88-1.1,1.98-1.77,3.29-.68,1.34-1.43,2.88-2.22,4.64-.47,.75-.98,1.33-1.52,1.77-.54,.47-1.1,.8-1.67,1.02-1.14,.41-2.33,.48-3.44,.35-1.11-.16-2.14-.4-2.91-.67-.76-.26-1.26-.5-1.26-.5,0,0,.08-.32,.22-.87,.15-.56,.36-1.37,.64-2.38,.57-2.01,1.43-4.92,2.65-8.13Z"/><path class="g" d="M72.84,3.84c1.79-3.22,5.2-3.69,7.96-3.14,1.39,.26,2.62,.72,3.48,1.17,.87,.43,1.39,.78,1.39,.78,0,0-.56,.91-1.55,2.68-.5,.88-1.1,1.98-1.77,3.29-.68,1.34-1.43,2.88-2.22,4.64-.47,.75-.98,1.33-1.52,1.77-.54,.47-1.1,.8-1.67,1.02-1.14,.41-2.33,.48-3.44,.35-1.11-.16-2.14-.4-2.91-.67-.76-.26-1.26-.5-1.26-.5,0,0,.08-.32,.22-.87,.15-.56,.36-1.37,.64-2.38,.57-2.01,1.43-4.92,2.65-8.13Z"/></g><g><path class="l" d="M49.55,8.64c.63-3.66,3.73-5.17,6.51-5.58,1.39-.23,2.72-.12,3.68-.03,.96,.09,1.57,.28,1.57,.28,0,0-.24,1.01-.6,3.03-.36,2.02-.85,4.96-1.19,8.8-.39,1.76-1.16,2.88-2.09,3.67-.92,.82-2.05,1.18-3.13,1.47-1.08,.25-2.17,.28-2.96,.31-.8,.01-1.35-.05-1.35-.05,0,0-.03-.33-.08-.9-.04-.58-.11-1.42-.19-2.47-.14-2.13-.25-5.08-.17-8.55Z"/><path class="g" d="M49.55,8.64c.63-3.66,3.73-5.17,6.51-5.58,1.39-.23,2.72-.12,3.68-.03,.96,.09,1.57,.28,1.57,.28,0,0-.24,1.01-.6,3.03-.36,2.02-.85,4.96-1.19,8.8-.39,1.76-1.16,2.88-2.09,3.67-.92,.82-2.05,1.18-3.13,1.47-1.08,.25-2.17,.28-2.96,.31-.8,.01-1.35-.05-1.35-.05,0,0-.03-.33-.08-.9-.04-.58-.11-1.42-.19-2.47-.14-2.13-.25-5.08-.17-8.55Z"/></g><g><path class="l" d="M60.98,5.25c.62-1.72,1.76-2.83,3.08-3.54,1.34-.64,2.86-.9,4.26-.87,1.41,.06,2.7,.3,3.63,.58,.93,.29,1.5,.56,1.5,.56,0,0-.4,.98-1.09,2.88-.69,1.89-1.65,4.79-2.63,8.48-1.37,3.27-3.77,4.08-6.01,4.18-1.11,.08-2.17-.03-2.97-.18-.8-.13-1.31-.26-1.31-.26,0,0,.02-.33,.07-.91,.05-.58,.11-1.43,.22-2.47,.22-2.08,.61-5.02,1.26-8.46Z"/><path class="g" d="M60.98,5.25c.62-1.72,1.76-2.83,3.08-3.54,1.34-.64,2.86-.9,4.26-.87,1.41,.06,2.7,.3,3.63,.58,.93,.29,1.5,.56,1.5,.56,0,0-.4,.98-1.09,2.88-.69,1.89-1.65,4.79-2.63,8.48-1.37,3.27-3.77,4.08-6.01,4.18-1.11,.08-2.17-.03-2.97-.18-.8-.13-1.31-.26-1.31-.26,0,0,.02-.33,.07-.91,.05-.58,.11-1.43,.22-2.47,.22-2.08,.61-5.02,1.26-8.46Z"/></g></g><g><g><path class="l" d="M49.73,8.57c.64-3.65,3.74-5.16,6.52-5.57,1.39-.21,2.72-.11,3.68-.02,.48,.05,.87,.12,1.14,.19l.42,.1s-.24,1.01-.61,3.03c-.36,2.02-.86,4.97-1.21,8.79-.4,1.76-1.17,2.89-2.1,3.67-.92,.83-2.05,1.18-3.13,1.46-1.08,.26-2.17,.27-2.96,.31-.8,.01-1.34-.05-1.34-.05,0,0-.03-.33-.08-.9-.04-.58-.1-1.42-.18-2.47-.14-2.13-.23-5.07-.14-8.55Z"/><path class="g" d="M49.73,8.57c.64-3.65,3.74-5.16,6.52-5.57,1.39-.21,2.72-.11,3.68-.02,.48,.05,.87,.12,1.14,.19l.42,.1s-.24,1.01-.61,3.03c-.36,2.02-.86,4.97-1.21,8.79-.4,1.76-1.17,2.89-2.1,3.67-.92,.83-2.05,1.18-3.13,1.46-1.08,.26-2.17,.27-2.96,.31-.8,.01-1.34-.05-1.34-.05,0,0-.03-.33-.08-.9-.04-.58-.1-1.42-.18-2.47-.14-2.13-.23-5.07-.14-8.55Z"/></g><g><path class="l" d="M29.29,20.7c-.59-3.65,1.84-6.09,4.33-7.4,1.27-.63,2.53-1.01,3.47-1.23,.96-.19,1.58-.23,1.58-.23,0,0,.12,1.06,.42,3.05,.31,2,.84,4.99,1.75,8.71,.19,1.77-.14,3.13-.79,4.16-.6,1.08-1.54,1.81-2.48,2.41-.93,.61-1.96,.97-2.7,1.26-.75,.28-1.28,.4-1.28,.4,0,0-.13-.3-.37-.83-.23-.53-.56-1.31-.98-2.28-.83-1.97-1.87-4.7-2.93-8.03Z"/><path class="g" d="M29.29,20.7c-.59-3.65,1.84-6.09,4.33-7.4,1.27-.63,2.53-1.01,3.47-1.23,.96-.19,1.58-.23,1.58-.23,0,0,.12,1.06,.42,3.05,.31,2,.84,4.99,1.75,8.71,.19,1.77-.14,3.13-.79,4.16-.6,1.08-1.54,1.81-2.48,2.41-.93,.61-1.96,.97-2.7,1.26-.75,.28-1.28,.4-1.28,.4,0,0-.13-.3-.37-.83-.23-.53-.56-1.31-.98-2.28-.83-1.97-1.87-4.7-2.93-8.03Z"/></g><g><path class="l" d="M38.99,13.78c.04-3.67,2.81-5.74,5.5-6.56,.67-.22,1.33-.37,1.94-.48,.62-.09,1.19-.13,1.68-.15,.97-.04,1.59,.01,1.59,.01,0,0-.06,1.07-.09,3.1-.03,2.03-.03,5.01,.28,8.87-.05,.89-.22,1.64-.48,2.29-.25,.65-.58,1.22-.98,1.68-.8,.91-1.81,1.54-2.85,1.95-1.05,.39-2.06,.68-2.87,.8-.8,.12-1.34,.17-1.34,.17,0,0-.08-.32-.23-.88-.15-.56-.34-1.37-.58-2.39-.46-2.03-1.09-4.99-1.57-8.41Z"/><path class="g" d="M38.99,13.78c.04-3.67,2.81-5.74,5.5-6.56,.67-.22,1.33-.37,1.94-.48,.62-.09,1.19-.13,1.68-.15,.97-.04,1.59,.01,1.59,.01,0,0-.06,1.07-.09,3.1-.03,2.03-.03,5.01,.28,8.87-.05,.89-.22,1.64-.48,2.29-.25,.65-.58,1.22-.98,1.68-.8,.91-1.81,1.54-2.85,1.95-1.05,.39-2.06,.68-2.87,.8-.8,.12-1.34,.17-1.34,.17,0,0-.08-.32-.23-.88-.15-.56-.34-1.37-.58-2.39-.46-2.03-1.09-4.99-1.57-8.41Z"/></g></g><g><g><path class="l" d="M29.43,20.57c-.3-1.84,.2-3.32,1.02-4.58,.84-1.23,2.09-2.14,3.33-2.8,1.27-.62,2.52-1.01,3.47-1.22,.96-.19,1.58-.23,1.58-.23,0,0,.12,1.06,.41,3.05,.3,1.99,.83,5,1.72,8.71,.17,1.76-.15,3.13-.8,4.15-.62,1.06-1.54,1.82-2.49,2.4-.93,.61-1.95,.98-2.71,1.26-.75,.28-1.28,.4-1.28,.4,0,0-.13-.3-.37-.83-.23-.53-.56-1.31-.98-2.28-.82-1.97-1.85-4.7-2.91-8.04Z"/><path class="g" d="M29.43,20.57c-.3-1.84,.2-3.32,1.02-4.58,.84-1.23,2.09-2.14,3.33-2.8,1.27-.62,2.52-1.01,3.47-1.22,.96-.19,1.58-.23,1.58-.23,0,0,.12,1.06,.41,3.05,.3,1.99,.83,5,1.72,8.71,.17,1.76-.15,3.13-.8,4.15-.62,1.06-1.54,1.82-2.49,2.4-.93,.61-1.95,.98-2.71,1.26-.75,.28-1.28,.4-1.28,.4,0,0-.13-.3-.37-.83-.23-.53-.56-1.31-.98-2.28-.82-1.97-1.85-4.7-2.91-8.04Z"/></g><g><path class="l" d="M14.02,38.65c-.87-1.63-.9-3.21-.53-4.66,.41-1.43,1.27-2.71,2.24-3.73,1-1,2.04-1.79,2.88-2.28,.84-.49,1.42-.73,1.42-.73,0,0,.46,.96,1.39,2.76,.92,1.78,2.41,4.45,4.47,7.67,.73,1.6,.88,3.01,.6,4.19-.25,1.19-.85,2.22-1.58,3.07-.68,.88-1.51,1.57-2.15,2.07-.62,.51-1.08,.8-1.08,.8,0,0-.22-.24-.62-.66-.39-.43-.96-1.06-1.67-1.84-1.4-1.58-3.28-3.84-5.37-6.65Z"/><path class="g" d="M14.02,38.65c-.87-1.63-.9-3.21-.53-4.66,.41-1.43,1.27-2.71,2.24-3.73,1-1,2.04-1.79,2.88-2.28,.84-.49,1.42-.73,1.42-.73,0,0,.46,.96,1.39,2.76,.92,1.78,2.41,4.45,4.47,7.67,.73,1.6,.88,3.01,.6,4.19-.25,1.19-.85,2.22-1.58,3.07-.68,.88-1.51,1.57-2.15,2.07-.62,.51-1.08,.8-1.08,.8,0,0-.22-.24-.62-.66-.39-.43-.96-1.06-1.67-1.84-1.4-1.58-3.28-3.84-5.37-6.65Z"/></g><g><path class="l" d="M20.97,28.98c-.56-1.73-.4-3.35,.25-4.68,.32-.67,.74-1.29,1.21-1.86,.49-.55,1.05-1.03,1.61-1.45,1.11-.87,2.32-1.42,3.22-1.77,.9-.36,1.5-.51,1.5-.51,0,0,.3,1.03,.93,2.97,.65,1.94,1.59,4.74,3.14,8.3,.48,1.72,.33,3.07-.1,4.23-.22,.57-.53,1.08-.9,1.53-.34,.47-.74,.88-1.17,1.25-.86,.71-1.75,1.3-2.46,1.68-.71,.39-1.22,.59-1.22,.59l-.5-.75c-.31-.49-.76-1.19-1.32-2.08-1.1-1.78-2.65-4.37-4.2-7.45Z"/><path class="g" d="M20.97,28.98c-.56-1.73-.4-3.35,.25-4.68,.32-.67,.74-1.29,1.21-1.86,.49-.55,1.05-1.03,1.61-1.45,1.11-.87,2.32-1.42,3.22-1.77,.9-.36,1.5-.51,1.5-.51,0,0,.3,1.03,.93,2.97,.65,1.94,1.59,4.74,3.14,8.3,.48,1.72,.33,3.07-.1,4.23-.22,.57-.53,1.08-.9,1.53-.34,.47-.74,.88-1.17,1.25-.86,.71-1.75,1.3-2.46,1.68-.71,.39-1.22,.59-1.22,.59l-.5-.75c-.31-.49-.76-1.19-1.32-2.08-1.1-1.78-2.65-4.37-4.2-7.45Z"/></g></g><g><g><path class="l" d="M14.11,38.49c-.85-1.63-.89-3.21-.51-4.66,.43-1.42,1.27-2.71,2.25-3.72,1-1,2.04-1.79,2.89-2.27,.84-.49,1.42-.73,1.42-.73,0,0,.45,.96,1.38,2.76,.92,1.78,2.39,4.45,4.45,7.69,1.47,3.22,.44,5.54-1.01,7.25-.69,.87-1.5,1.57-2.15,2.06-.62,.51-1.07,.8-1.07,.8l-.62-.66c-.39-.43-.96-1.06-1.67-1.84-1.38-1.58-3.27-3.85-5.35-6.66Z"/><path class="g" d="M14.11,38.49c-.85-1.63-.89-3.21-.51-4.66,.43-1.42,1.27-2.71,2.25-3.72,1-1,2.04-1.79,2.89-2.27,.84-.49,1.42-.73,1.42-.73,0,0,.45,.96,1.38,2.76,.92,1.78,2.39,4.45,4.45,7.69,1.47,3.22,.44,5.54-1.01,7.25-.69,.87-1.5,1.57-2.15,2.06-.62,.51-1.07,.8-1.07,.8l-.62-.66c-.39-.43-.96-1.06-1.67-1.84-1.38-1.58-3.27-3.85-5.35-6.66Z"/></g><g><path class="l" d="M5.41,60.62c-1.32-1.25-1.92-2.75-2.02-4.24-.05-1.48,.28-2.99,.91-4.26,.61-1.28,1.33-2.37,1.98-3.1,.63-.74,1.1-1.16,1.1-1.16,0,0,.74,.76,2.21,2.16,1.45,1.38,3.69,3.42,6.72,5.8,2.43,2.55,2.23,5.08,1.44,7.18-.4,1.04-.89,1.98-1.35,2.65-.46,.67-.77,1.1-.77,1.1,0,0-.29-.15-.81-.42-.52-.27-1.25-.67-2.16-1.19-1.82-1.03-4.39-2.56-7.26-4.53Z"/><path class="g" d="M5.41,60.62c-1.32-1.25-1.92-2.75-2.02-4.24-.05-1.48,.28-2.99,.91-4.26,.61-1.28,1.33-2.37,1.98-3.1,.63-.74,1.1-1.16,1.1-1.16,0,0,.74,.76,2.21,2.16,1.45,1.38,3.69,3.42,6.72,5.8,2.43,2.55,2.23,5.08,1.44,7.18-.4,1.04-.89,1.98-1.35,2.65-.46,.67-.77,1.1-.77,1.1,0,0-.29-.15-.81-.42-.52-.27-1.25-.67-2.16-1.19-1.82-1.03-4.39-2.56-7.26-4.53Z"/></g><g><path class="l" d="M8.84,49.2c-.56-.73-.92-1.49-1.13-2.26-.2-.76-.22-1.51-.15-2.26,.14-1.5,.81-2.88,1.6-4.05,.76-1.18,1.76-2.08,2.47-2.72,.72-.64,1.26-.96,1.26-.96,0,0,.59,.87,1.83,2.5,1.25,1.63,3.05,3.98,5.66,6.84,2.01,2.94,1.32,5.37,.23,7.32-.28,.48-.59,.93-.91,1.33-.3,.41-.59,.77-.86,1.06-.54,.6-.95,.95-.95,.95,0,0-.26-.2-.71-.55-.45-.36-1.11-.88-1.93-1.53-1.65-1.33-3.92-3.27-6.39-5.68Z"/><path class="g" d="M8.84,49.2c-.56-.73-.92-1.49-1.13-2.26-.2-.76-.22-1.51-.15-2.26,.14-1.5,.81-2.88,1.6-4.05,.76-1.18,1.76-2.08,2.47-2.72,.72-.64,1.26-.96,1.26-.96,0,0,.59,.87,1.83,2.5,1.25,1.63,3.05,3.98,5.66,6.84,2.01,2.94,1.32,5.37,.23,7.32-.28,.48-.59,.93-.91,1.33-.3,.41-.59,.77-.86,1.06-.54,.6-.95,.95-.95,.95,0,0-.26-.2-.71-.55-.45-.36-1.11-.88-1.93-1.53-1.65-1.33-3.92-3.27-6.39-5.68Z"/></g></g><g><g><path class="l" d="M5.45,60.43c-2.67-2.52-2.3-5.96-1.08-8.5,.6-1.28,1.34-2.36,1.99-3.09,.63-.74,1.1-1.16,1.1-1.16,0,0,.74,.77,2.21,2.17,.74,.7,1.65,1.55,2.76,2.53,1.13,.99,2.44,2.1,3.95,3.29,1.21,1.28,1.77,2.55,1.92,3.77,.11,1.2-.09,2.38-.5,3.42-.42,1.04-.9,1.98-1.36,2.65-.46,.67-.78,1.1-.78,1.1l-.81-.43c-.52-.27-1.24-.67-2.15-1.19-1.81-1.04-4.4-2.58-7.24-4.55Z"/><path class="g" d="M5.45,60.43c-2.67-2.52-2.3-5.96-1.08-8.5,.6-1.28,1.34-2.36,1.99-3.09,.63-.74,1.1-1.16,1.1-1.16,0,0,.74,.77,2.21,2.17,.74,.7,1.65,1.55,2.76,2.53,1.13,.99,2.44,2.1,3.95,3.29,1.21,1.28,1.77,2.55,1.92,3.77,.11,1.2-.09,2.38-.5,3.42-.42,1.04-.9,1.98-1.36,2.65-.46,.67-.78,1.1-.78,1.1l-.81-.43c-.52-.27-1.24-.67-2.15-1.19-1.81-1.04-4.4-2.58-7.24-4.55Z"/></g><g><path class="l" d="M3.87,83.55c-3.14-1.77-3.6-4.7-3.28-7.18,.04-.31,.09-.61,.15-.91,.07-.32,.15-.64,.23-.94,.16-.6,.35-1.14,.52-1.59,.34-.9,.64-1.45,.64-1.45,0,0,.95,.48,2.81,1.32,1.87,.86,4.6,1.98,8.22,3.35,6.29,3.53,1.85,11.69,1.85,11.69-.04-.01-4.73-1.82-11.14-4.3Z"/><path class="g" d="M3.87,83.55c-3.14-1.77-3.6-4.7-3.28-7.18,.04-.31,.09-.61,.15-.91,.07-.32,.15-.64,.23-.94,.16-.6,.35-1.14,.52-1.59,.34-.9,.64-1.45,.64-1.45,0,0,.95,.48,2.81,1.32,1.87,.86,4.6,1.98,8.22,3.35,6.29,3.53,1.85,11.69,1.85,11.69-.04-.01-4.73-1.82-11.14-4.3Z"/></g><g><path class="l" d="M3.95,72.27c-1.55-1.02-2.32-2.39-2.68-3.85-.35-1.46-.15-2.98,.18-4.35,.4-1.36,.98-2.54,1.45-3.38,.5-.83,.9-1.32,.9-1.32,0,0,.85,.63,2.52,1.76,1.7,1.13,4.24,2.77,7.59,4.62,1.43,1.06,2.21,2.23,2.52,3.39,.37,1.17,.31,2.36,.08,3.46-.19,1.1-.57,2.1-.91,2.85-.32,.82-.6,1.33-.6,1.33-.02,0-1.2-.46-3.18-1.23-1.97-.74-4.71-1.82-7.88-3.3Z"/><path class="g" d="M3.95,72.27c-1.55-1.02-2.32-2.39-2.68-3.85-.35-1.46-.15-2.98,.18-4.35,.4-1.36,.98-2.54,1.45-3.38,.5-.83,.9-1.32,.9-1.32,0,0,.85,.63,2.52,1.76,1.7,1.13,4.24,2.77,7.59,4.62,1.43,1.06,2.21,2.23,2.52,3.39,.37,1.17,.31,2.36,.08,3.46-.19,1.1-.57,2.1-.91,2.85-.32,.82-.6,1.33-.6,1.33-.02,0-1.2-.46-3.18-1.23-1.97-.74-4.71-1.82-7.88-3.3Z"/></g></g></g></g></g></g></svg>