<?xml version="1.0" encoding="UTF-8"?><svg xmlns="http://www.w3.org/2000/svg" width="32" height="32" xmlns:xlink="http://www.w3.org/1999/xlink" viewBox="0 0 32 32"><defs><style>.d{mix-blend-mode:multiply;}.d,.e,.f,.g{fill:#e8cb5b;}.h,.f,.i,.j,.k{stroke-miterlimit:10;}.h,.f,.j,.k{stroke:#000;stroke-width:.5px;}.h,.l{fill:#7c5a3e;}.m{isolation:isolate;}.n{fill:#d39636;}.o{fill:#634428;}.i{fill:#452e16;stroke:#301e0a;stroke-width:.16px;}.p{clip-path:url(#b);}.q{clip-path:url(#c);}.j{fill:#281909;}.r{fill:#a58a5e;}.g{mix-blend-mode:screen;}.k{fill:none;}</style><clipPath id="b"><path class="f" d="M14.9,21.36c-2.7,0-4.89-2.19-4.89-4.89s2.19-4.89,4.89-4.89,4.89,2.19,4.89,4.89-2.19,4.89-4.89,4.89Zm0-8.21c-1.83,0-3.32,1.49-3.32,3.32s1.49,3.32,3.32,3.32,3.32-1.49,3.32-3.32-1.49-3.32-3.32-3.32Z"/></clipPath><clipPath id="c"><path class="e" d="M14.9,21.36c-2.7,0-4.89-2.19-4.89-4.89s2.19-4.89,4.89-4.89,4.89,2.19,4.89,4.89-2.19,4.89-4.89,4.89Zm0-8.21c-1.83,0-3.32,1.49-3.32,3.32s1.49,3.32,3.32,3.32,3.32-1.49,3.32-3.32-1.49-3.32-3.32-3.32Z"/></clipPath></defs><g class="m"><g id="a"><g><circle class="o" cx="16.29" cy="16.32" r="14.25"/><g><g><path class="i" d="M1.27,17.69c-.52-.26-.62-.79-.59-1.23,.04-.43,.22-.75,.22-.75l1.79,.7c.52,.27,.61,.69,.58,1.07-.03,.19-.05,.36-.08,.49-.03,.13-.06,.21-.06,.21,0,0-.81-.16-1.86-.49Z"/><path class="i" d="M2.1,21.41c-.59-.12-.83-.6-.88-1.05-.06-.44,.02-.83,.02-.83,0,0,.68,.15,1.91,.28,.55,.14,.73,.53,.82,.89,.08,.36,.02,.72,.02,.72,0,0-.79,.04-1.9-.01Z"/><path class="i" d="M1.56,19.58c-1.12-.4-.63-2-.59-1.97,0,0,.62,.23,1.85,.52,.55,.2,.66,.62,.7,.99,.04,.37-.05,.72-.05,.72,0,0-.8-.06-1.9-.25Z"/></g><g><path class="i" d="M2.09,21.38c-.59-.12-.83-.6-.87-1.05-.06-.44,.02-.83,.02-.83,0,0,.68,.15,1.91,.28,.55,.14,.73,.53,.82,.89,.08,.36,.02,.72,.02,.72,0,0-.79,.04-1.9-.02Z"/><path class="i" d="M3.8,24.79c-.58,.03-.92-.4-1.1-.8-.1-.2-.13-.41-.15-.56-.02-.15-.02-.25-.02-.25l.49-.03c.32-.03,.79-.07,1.41-.17,.58-.01,.87,.31,1.01,.66,.18,.32,.22,.68,.22,.68,0,0-.76,.24-1.87,.48Z"/><path class="i" d="M2.84,23.14c-.57-.05-.9-.49-1.01-.93-.11-.44-.06-.83-.06-.83,0,0,.69,.06,1.91,.04,1.13,.11,1.01,1.48,1.05,1.49,0,0-.81,.16-1.9,.23Z"/></g><g><path class="i" d="M3.78,24.76c-.58,.02-.92-.4-1.1-.8-.1-.2-.13-.41-.15-.56-.02-.15-.02-.25-.02-.25l.49-.03c.33-.03,.78-.06,1.41-.16,.58-.01,.87,.31,1.02,.66,.18,.33,.22,.68,.22,.68,0,0-.76,.24-1.87,.47Z"/><path class="i" d="M6.31,27.61c-.55,.16-1.03-.12-1.27-.49-.26-.36-.37-.75-.37-.75,0,0,.66-.2,1.8-.67,.54-.13,.92,.09,1.15,.38,.12,.14,.21,.3,.27,.43,.07,.11,.1,.19,.1,.19l-.47,.28c-.29,.17-.71,.39-1.2,.63Z"/><path class="i" d="M4.96,26.26c-.6,.12-.98-.26-1.2-.65-.23-.39-.28-.78-.28-.78,0,0,.68-.11,1.88-.45,.57-.08,.87,.23,1.09,.53,.21,.31,.29,.66,.29,.66,0,0-.72,.33-1.78,.69Z"/></g><g><path class="i" d="M6.28,27.59c-.55,.16-1.03-.12-1.27-.49-.26-.36-.37-.75-.37-.75,0,0,.66-.2,1.8-.67,.54-.13,.91,.09,1.15,.38,.12,.14,.21,.3,.27,.43l.1,.2-.47,.28c-.29,.16-.71,.39-1.2,.63Z"/><path class="i" d="M9.43,29.75c-.51,.33-1,.11-1.35-.17-.18-.14-.32-.29-.41-.41-.09-.12-.14-.22-.14-.22l.41-.26c.27-.18,.67-.46,1.17-.84,.51-.3,.89-.1,1.21,.09,.31,.21,.52,.5,.52,.5,0,0-.55,.57-1.4,1.3Z"/><path class="i" d="M7.78,28.78c-.53,.23-1-.03-1.32-.33-.31-.32-.45-.7-.45-.7,0,0,.62-.27,1.69-.88,.54-.23,.92-.03,1.19,.24,.28,.25,.45,.56,.45,.56,0,0-.63,.51-1.56,1.13Z"/></g><g><path class="i" d="M9.4,29.73c-.51,.33-1,.1-1.35-.17-.18-.14-.32-.29-.41-.41-.09-.13-.13-.22-.13-.22,0,0,.58-.34,1.58-1.1,.51-.29,.89-.1,1.21,.09,.31,.21,.52,.5,.52,.5,0,0-.55,.57-1.4,1.3Z"/><path class="i" d="M12.98,31.03c-.41,.41-.95,.35-1.36,.19-.4-.2-.68-.49-.68-.49,0,0,.49-.49,1.25-1.44,.81-.81,1.79,.15,1.82,.13l-.28,.47c-.18,.3-.43,.7-.75,1.14Z"/><path class="i" d="M11.15,30.49c-.46,.36-1,.27-1.37,0-.38-.24-.62-.55-.62-.55,0,0,.55-.43,1.43-1.29,.45-.32,.88-.24,1.21-.07,.33,.17,.57,.45,.57,.45l-.33,.42c-.21,.26-.51,.62-.89,1.03Z"/></g><g><path class="i" d="M12.95,31.03c-.41,.41-.95,.36-1.36,.19-.4-.2-.68-.49-.68-.49,0,0,.49-.49,1.25-1.44,.81-.81,1.78,.16,1.82,.13l-.28,.47c-.18,.3-.44,.7-.75,1.14Z"/><path class="i" d="M16.75,31.39c-.29,.53-.83,.59-1.26,.51-.44-.07-.78-.27-.78-.27,0,0,.35-.6,.85-1.74,.3-.5,.73-.52,1.1-.51,.37,.03,.7,.19,.7,.19,0,0-.21,.77-.6,1.81Z"/><path class="i" d="M14.84,31.33c-.73,.93-2.09-.02-2.06-.05l.29-.4c.18-.26,.45-.66,.77-1.2,.36-.46,.79-.46,1.16-.36,.36,.07,.67,.26,.67,.26,0,0-.3,.74-.82,1.74Z"/></g><g><path class="i" d="M16.72,31.39c-.29,.54-.83,.58-1.27,.5-.44-.08-.78-.28-.78-.28,0,0,.35-.6,.85-1.73,.3-.5,.73-.52,1.1-.5,.37,.03,.69,.19,.69,.19,0,0-.21,.77-.6,1.81Z"/><path class="i" d="M20.48,30.81c-.16,.56-.66,.77-1.1,.82-.45,.02-.83-.1-.83-.1,0,0,.19-.66,.4-1.86,.32-1.1,1.64-.72,1.66-.76l-.02,.55c-.01,.35-.04,.82-.11,1.36Z"/><path class="i" d="M18.62,31.21c-.23,.54-.74,.71-1.19,.67-.45-.03-.81-.19-.81-.19,0,0,.27-.64,.63-1.82,.24-.5,.65-.63,1.03-.64,.37,0,.72,.12,.72,.12,0,0-.11,.78-.37,1.86Z"/></g><g><path class="i" d="M20.45,30.81c-.16,.56-.66,.77-1.1,.81-.45,.02-.83-.1-.83-.1,0,0,.19-.66,.4-1.86,.32-1.1,1.64-.72,1.66-.76,0,0,0,.83-.13,1.91Z"/><path class="i" d="M23.95,29.3c0,.6-.44,.92-.86,1.06-.42,.15-.82,.14-.82,.14,0,0,.02-.7-.09-1.93,.03-.57,.38-.81,.72-.98,.34-.15,.71-.16,.71-.16,0,0,.19,.77,.35,1.87Z"/><path class="i" d="M22.26,30.18c-.19,1.17-1.84,.99-1.83,.95l.06-.49c.04-.32,.08-.79,.1-1.42,.1-.57,.47-.78,.84-.87,.35-.11,.71-.09,.71-.09,0,0,.1,.79,.12,1.92Z"/></g><g><path class="i" d="M23.92,29.32c0,.61-.44,.92-.87,1.05-.42,.15-.82,.13-.82,.13,0,0,.02-.7-.09-1.93,.03-.57,.39-.81,.72-.97,.34-.15,.71-.16,.71-.16,0,0,.19,.77,.34,1.88Z"/><path class="i" d="M26.95,27c.13,.56-.22,.98-.58,1.23-.37,.26-.77,.32-.77,.32,0,0-.14-.66-.55-1.83-.12-.57,.14-.91,.46-1.12,.29-.23,.63-.34,.63-.34,0,0,.38,.71,.82,1.75Z"/><path class="i" d="M25.51,28.25c.06,.57-.31,.98-.72,1.16-.41,.19-.8,.22-.8,.22,0,0-.07-.69-.32-1.89-.1-1.12,1.26-1.27,1.27-1.31l.19,.52c.11,.32,.25,.77,.39,1.3Z"/></g><g><path class="i" d="M26.93,27.02c.13,.56-.22,.98-.58,1.23-.37,.25-.77,.31-.77,.31,0,0-.14-.66-.55-1.83-.12-.57,.14-.91,.46-1.12,.3-.23,.63-.34,.63-.34,0,0,.38,.71,.81,1.75Z"/><path class="i" d="M29.26,24.01c.26,.51,.08,1.03-.25,1.34-.31,.33-.66,.5-.66,.5,0,0-.32-.62-1-1.64-.23-.5-.08-.91,.16-1.2,.12-.15,.26-.26,.37-.34l.18-.13,.36,.41c.21,.25,.51,.62,.84,1.06Z"/><path class="i" d="M28.19,25.58c.23,.56-.08,1.01-.42,1.3-.17,.15-.35,.26-.48,.33-.13,.07-.24,.1-.24,.1l-.18-.45c-.13-.3-.33-.75-.61-1.3-.19-.55,.06-.89,.31-1.17,.26-.26,.59-.41,.59-.41,0,0,.46,.65,1.01,1.62Z"/></g><g><path class="i" d="M29.24,24.03c.27,.51,.08,1.03-.25,1.34-.31,.33-.66,.5-.66,.5,0,0-.32-.62-.99-1.64-.23-.5-.08-.91,.16-1.2,.24-.29,.55-.48,.55-.48l.36,.41c.21,.26,.51,.62,.84,1.07Z"/><path class="i" d="M30.77,20.54c.79,.89-.4,2.06-.42,2.02,0,0-.44-.51-1.38-1.34-.38-.44-.28-.86-.14-1.2,.14-.34,.39-.6,.39-.6,0,0,.67,.43,1.55,1.13Z"/><path class="i" d="M30.12,22.34c.33,.48,.16,.99-.08,1.37-.26,.36-.61,.58-.61,.58,0,0-.38-.57-1.18-1.5-.32-.49-.21-.9,0-1.22,.21-.31,.46-.55,.46-.55,0,0,.63,.52,1.4,1.32Z"/></g><g><path class="i" d="M30.76,20.57c.79,.89-.41,2.05-.43,2.01,0,0-.43-.51-1.37-1.34-.38-.44-.28-.86-.14-1.2,.14-.34,.39-.6,.39-.6,0,0,.67,.43,1.55,1.14Z"/><path class="i" d="M31.36,16.81c.48,.32,.55,.86,.44,1.29-.12,.43-.35,.76-.35,.76,0,0-.57-.39-1.66-.95-.94-.64-.17-1.79-.21-1.81l.52,.19c.32,.12,.75,.3,1.25,.53Z"/><path class="i" d="M31.17,18.7c.46,.38,.44,.93,.27,1.34-.16,.42-.42,.72-.42,.72,0,0-.52-.46-1.54-1.16-.8-.74,0-1.8,.04-1.82,0,0,.71,.34,1.66,.93Z"/></g><g><path class="i" d="M31.36,16.84c.48,.32,.55,.86,.44,1.3-.12,.43-.35,.76-.35,.76,0,0-.57-.39-1.66-.96-.44-.33-.53-.76-.45-1.13,.04-.18,.1-.35,.16-.48,.05-.12,.09-.2,.09-.2l.52,.19c.31,.12,.75,.3,1.25,.53Z"/><path class="i" d="M31.01,13.04c1.12,.4,.63,2,.6,1.97,0,0-.63-.23-1.85-.51-.55-.2-.66-.62-.7-.99-.04-.37,.05-.72,.05-.72,0,0,.8,.06,1.9,.25Z"/><path class="i" d="M31.31,14.93c.52,.26,.62,.79,.59,1.23-.04,.44-.25,.8-.25,.8,0,0-.6-.31-1.76-.74-.52-.27-.61-.69-.58-1.07,.03-.37,.14-.7,.14-.7,0,0,.8,.15,1.86,.49Z"/></g><g><path class="i" d="M31.02,13.07c1.12,.41,.63,2,.59,1.97,0,0-.62-.24-1.85-.52-.55-.2-.66-.62-.7-.99-.04-.37,.05-.72,.05-.72,0,0,.8,.06,1.9,.25Z"/><path class="i" d="M29.73,9.48c.57,.05,.9,.49,1.01,.93,.11,.44,.06,.83,.06,.83,0,0-.69-.06-1.91-.04-1.13-.11-1.02-1.48-1.06-1.49,0,0,.81-.16,1.9-.23Z"/><path class="i" d="M30.49,11.24c.59,.12,.83,.6,.88,1.05,.06,.44-.02,.83-.02,.83,0,0-.68-.15-1.91-.28-.55-.14-.73-.53-.82-.89-.08-.36-.02-.72-.02-.72,0,0,.79-.04,1.9,.01Z"/></g><g><path class="i" d="M29.75,9.51c.57,.05,.9,.49,1,.93,.11,.44,.06,.83,.06,.83,0,0-.69-.06-1.91-.04-1.13-.11-1.01-1.48-1.05-1.49,0,0,.81-.16,1.9-.23Z"/><path class="i" d="M27.61,6.36c.59-.12,.98,.26,1.2,.65,.22,.39,.28,.78,.28,.78,0,0-.68,.11-1.88,.45-.57,.08-.87-.23-1.09-.52-.21-.31-.29-.66-.29-.66,0,0,.72-.33,1.78-.69Z"/><path class="i" d="M28.79,7.86c.58-.02,.92,.4,1.1,.8,.1,.2,.13,.41,.15,.56,.02,.15,.02,.25,.02,.25l-.49,.03c-.32,.03-.78,.06-1.41,.17-.58,.01-.87-.31-1.01-.66-.18-.33-.22-.68-.22-.68,0,0,.76-.24,1.87-.48Z"/></g><g><path class="i" d="M27.63,6.38c.6-.12,.98,.26,1.2,.65,.23,.39,.28,.78,.28,.78,0,0-.68,.11-1.88,.45-.58,.08-.87-.23-1.09-.53-.21-.31-.29-.66-.29-.66,0,0,.72-.33,1.78-.69Z"/><path class="i" d="M24.78,3.85c.53-.23,1,.03,1.32,.33,.31,.32,.45,.7,.45,.7,0,0-.62,.27-1.69,.88-.54,.23-.92,.03-1.19-.24-.28-.25-.45-.55-.45-.55,0,0,.63-.51,1.56-1.13Z"/><path class="i" d="M26.28,5.03c.55-.16,1.03,.12,1.27,.49,.26,.36,.37,.75,.37,.75,0,0-.66,.2-1.8,.67-.54,.13-.91-.09-1.15-.38-.12-.14-.21-.3-.27-.43-.07-.12-.1-.2-.1-.2l.47-.28c.29-.16,.71-.39,1.2-.63Z"/></g><g><path class="i" d="M24.81,3.86c.53-.23,1,.03,1.32,.34,.31,.32,.45,.7,.45,.7,0,0-.63,.27-1.69,.88-.54,.23-.92,.03-1.19-.24-.27-.25-.45-.56-.45-.56,0,0,.63-.52,1.56-1.12Z"/><path class="i" d="M21.41,2.14c.46-.36,1-.27,1.37-.01,.38,.24,.62,.55,.62,.55,0,0-.55,.43-1.43,1.29-.45,.32-.88,.24-1.21,.07-.17-.09-.31-.2-.41-.29l-.16-.16,.33-.43c.21-.26,.51-.62,.89-1.03Z"/><path class="i" d="M23.16,2.89c.51-.33,1-.1,1.35,.17,.18,.14,.32,.29,.41,.41,.09,.13,.14,.22,.14,.22l-.41,.26c-.27,.18-.68,.46-1.17,.84-.51,.3-.89,.1-1.21-.09-.31-.21-.52-.5-.52-.5,0,0,.55-.57,1.4-1.3Z"/></g><g><path class="i" d="M21.44,2.15c.46-.37,1-.26,1.37,0,.38,.24,.62,.55,.62,.55,0,0-.55,.43-1.43,1.29-.45,.32-.88,.24-1.21,.07-.33-.17-.57-.45-.57-.45l.33-.42c.21-.26,.51-.62,.89-1.03Z"/><path class="i" d="M17.72,1.3c.73-.93,2.09,.01,2.06,.04l-.29,.4c-.18,.26-.45,.66-.77,1.2-.36,.46-.79,.46-1.16,.36-.37-.07-.67-.26-.67-.26,0,0,.3-.74,.82-1.74Z"/><path class="i" d="M19.61,1.6c.41-.41,.95-.36,1.36-.19,.4,.2,.68,.49,.68,.49,0,0-.49,.49-1.25,1.44-.81,.81-1.78-.15-1.82-.13l.28-.47c.18-.3,.44-.7,.75-1.14Z"/></g><g><path class="i" d="M17.76,1.3c.73-.93,2.09,.02,2.06,.05l-.29,.4c-.18,.26-.45,.65-.77,1.2-.36,.46-.79,.46-1.16,.36-.36-.07-.67-.26-.67-.26,0,0,.3-.74,.83-1.74Z"/><path class="i" d="M13.95,1.42c.23-.54,.74-.72,1.19-.67,.45,.03,.81,.19,.81,.19,0,0-.27,.64-.63,1.82-.24,.5-.65,.63-1.03,.65-.37,0-.72-.12-.72-.12l.09-.53c.06-.33,.15-.79,.28-1.33Z"/><path class="i" d="M15.85,1.25c.29-.53,.83-.59,1.26-.51,.44,.08,.78,.27,.78,.27,0,0-.35,.6-.85,1.74-.3,.5-.73,.52-1.1,.51-.37-.03-.69-.19-.69-.19,0,0,.21-.77,.6-1.81Z"/></g><g><path class="i" d="M13.98,1.42c.23-.54,.75-.71,1.19-.66,.45,.03,.81,.19,.81,.19,0,0-.27,.64-.63,1.82-.24,.5-.66,.63-1.03,.64-.37,0-.72-.12-.72-.12,0,0,.11-.78,.38-1.86Z"/><path class="i" d="M10.31,2.46c.19-1.17,1.84-.99,1.83-.95l-.06,.49c-.04,.31-.08,.79-.1,1.42-.1,.58-.47,.78-.84,.87-.35,.11-.71,.09-.71,.09,0,0-.1-.79-.12-1.92Z"/><path class="i" d="M12.11,1.82c.16-.56,.66-.77,1.1-.82,.45-.02,.83,.1,.83,.1,0,0-.19,.66-.4,1.86-.32,1.1-1.64,.72-1.66,.76,0,0,0-.83,.13-1.91Z"/></g><g><path class="i" d="M10.34,2.45c.19-1.17,1.85-.99,1.83-.94l-.06,.49c-.04,.32-.08,.79-.1,1.42-.1,.57-.47,.78-.84,.87-.35,.11-.71,.09-.71,.09,0,0-.09-.79-.11-1.92Z"/><path class="i" d="M7.06,4.39c-.06-.57,.31-.98,.72-1.16,.41-.19,.81-.22,.81-.22,0,0,.07,.69,.32,1.89,.1,1.12-1.26,1.27-1.27,1.31,0,0-.3-.76-.58-1.82Z"/><path class="i" d="M8.64,3.32c0-.6,.44-.92,.86-1.06,.42-.15,.82-.14,.82-.14,0,0-.02,.7,.09,1.93-.03,.57-.38,.81-.72,.98-.34,.15-.71,.16-.71,.16,0,0-.19-.77-.35-1.87Z"/></g><g><path class="i" d="M7.09,4.37c-.06-.57,.31-.98,.72-1.16,.41-.19,.8-.22,.8-.22,0,0,.07,.69,.32,1.89,.03,.55-.26,.89-.59,1.06-.16,.09-.34,.15-.47,.18-.12,.04-.21,.06-.21,.06l-.19-.52c-.11-.32-.25-.77-.39-1.3Z"/><path class="i" d="M4.39,7.06c-.23-.56,.08-1.01,.42-1.3,.33-.3,.71-.42,.71-.42l.18,.46c.13,.3,.33,.75,.61,1.3,.19,.55-.06,.89-.31,1.17-.26,.26-.59,.41-.59,.41,0,0-.46-.65-1.01-1.62Z"/><path class="i" d="M5.64,5.63c-.13-.56,.22-.98,.58-1.23,.37-.25,.77-.32,.77-.32,0,0,.14,.66,.55,1.83,.12,.57-.14,.91-.46,1.12-.29,.23-.63,.34-.63,.34,0,0-.38-.71-.82-1.75Z"/></g><g><path class="i" d="M4.4,7.04c-.23-.57,.08-1.01,.42-1.3,.17-.15,.35-.26,.48-.33,.14-.07,.24-.09,.24-.09l.18,.45c.13,.3,.33,.75,.6,1.3,.19,.55-.07,.89-.31,1.17-.26,.26-.59,.41-.59,.41,0,0-.46-.65-1.01-1.62Z"/><path class="i" d="M2.45,10.31c-.33-.48-.16-.99,.08-1.36,.26-.36,.61-.58,.61-.58,0,0,.38,.57,1.18,1.5,.32,.49,.21,.9,0,1.22-.2,.31-.46,.55-.46,.55,0,0-.63-.52-1.4-1.32Z"/><path class="i" d="M3.33,8.62c-.27-.51-.08-1.03,.25-1.34,.31-.33,.66-.5,.66-.5,0,0,.32,.62,1,1.64,.23,.5,.08,.91-.16,1.2-.12,.15-.26,.26-.37,.34l-.18,.13-.36-.41c-.21-.26-.51-.62-.84-1.07Z"/></g><g><path class="i" d="M2.46,10.28c-.33-.48-.16-.99,.08-1.37,.27-.36,.61-.57,.61-.57,0,0,.38,.57,1.18,1.5,.32,.49,.21,.9,0,1.22-.11,.15-.21,.29-.31,.39-.09,.1-.16,.16-.16,.16,0,0-.63-.52-1.39-1.32Z"/><path class="i" d="M1.4,13.94c-.46-.38-.44-.93-.27-1.34,.16-.42,.42-.72,.42-.72,0,0,.52,.46,1.54,1.16,.41,.38,.39,.81,.3,1.18-.11,.36-.33,.64-.33,.64,0,0-.71-.34-1.66-.93Z"/><path class="i" d="M1.81,12.08c-.79-.89,.41-2.06,.43-2.01,0,0,.43,.51,1.37,1.34,.38,.44,.28,.86,.14,1.2-.14,.34-.39,.6-.39,.6,0,0-.67-.43-1.55-1.13Z"/></g><g><path class="i" d="M1.41,13.91c-.46-.38-.44-.93-.26-1.34,.16-.42,.42-.72,.42-.72,0,0,.52,.46,1.54,1.16,.41,.39,.38,.81,.29,1.18-.11,.36-.33,.64-.33,.64,0,0-.71-.34-1.66-.93Z"/><path class="i" d="M1.2,17.64c-.5-.29-.58-.77-.52-1.17,.06-.42,.26-.78,.26-.78,0,0,.6,.3,1.75,.75,1.01,.58,.3,1.91,.3,1.91l-1.78-.7Z"/><path class="i" d="M1.22,15.81c-.48-.32-.55-.86-.44-1.3,.12-.43,.35-.76,.35-.76,0,0,.57,.39,1.66,.96,.94,.64,.18,1.77,.19,1.83l-.51-.2c-.31-.12-.75-.3-1.25-.53Z"/></g></g></g><g><path class="e" d="M14.9,21.36c-2.7,0-4.89-2.19-4.89-4.89s2.19-4.89,4.89-4.89,4.89,2.19,4.89,4.89-2.19,4.89-4.89,4.89Zm0-8.21c-1.83,0-3.32,1.49-3.32,3.32s1.49,3.32,3.32,3.32,3.32-1.49,3.32-3.32-1.49-3.32-3.32-3.32Z"/><g class="p"><rect class="h" x="14.52" y="18.86" width=".76" height="3.01"/><rect class="j" x="15.1" y="18.84" width=".76" height="3.01" transform="translate(-2.68 2.35) rotate(-8)"/><rect class="h" x="15.67" y="18.73" width=".76" height="3.01" transform="translate(-4.96 5.21) rotate(-16)"/><rect class="j" x="16.22" y="18.54" width=".76" height="3.01" transform="translate(-6.72 8.49) rotate(-24)"/><rect class="h" x="16.75" y="18.28" width=".76" height="3.01" transform="translate(-7.88 12.08) rotate(-32)"/><rect class="j" x="17.22" y="17.95" width=".76" height="3.01" transform="translate(-8.39 15.87) rotate(-40)"/><rect class="h" x="17.65" y="17.56" width=".76" height="3.01" transform="translate(-8.2 19.71) rotate(-48)"/><rect class="j" x="18.02" y="17.11" width=".76" height="3.01" transform="translate(-7.32 23.46) rotate(-56)"/><rect class="h" x="18.33" y="16.61" width=".76" height="3.01" transform="translate(-5.78 26.99) rotate(-64)"/><rect class="j" x="18.56" y="16.08" width=".76" height="3.01" transform="translate(-3.64 30.16) rotate(-72)"/><rect class="h" x="18.71" y="15.51" width=".76" height="3.01" transform="translate(-.99 32.87) rotate(-80)"/><rect class="j" x="18.79" y="14.94" width=".76" height="3.01" transform="translate(2.07 35.02) rotate(-88)"/><rect class="h" x="17.66" y="15.48" width="3.01" height=".76" transform="translate(-1.55 2.09) rotate(-6)"/><rect class="j" x="17.57" y="14.91" width="3.01" height=".76" transform="translate(-3.13 5.07) rotate(-14)"/><rect class="h" x="17.4" y="14.35" width="3.01" height=".76" transform="translate(-4.14 8.15) rotate(-22)"/><rect class="j" x="17.16" y="13.82" width="3.01" height=".76" transform="translate(-4.6 11.23) rotate(-30)"/><rect class="h" x="16.84" y="13.33" width="3.01" height=".76" transform="translate(-4.55 14.2) rotate(-38)"/><rect class="j" x="16.47" y="12.88" width="3.01" height=".76" transform="translate(-4.05 16.98) rotate(-46)"/><rect class="h" x="16.03" y="12.5" width="3.01" height=".76" transform="translate(-3.19 19.49) rotate(-54)"/><rect class="j" x="15.54" y="12.18" width="3.01" height=".76" transform="translate(-2.04 21.71) rotate(-62)"/><rect class="h" x="15.02" y="11.93" width="3.01" height=".76" transform="translate(-.69 23.62) rotate(-70)"/><rect class="j" x="14.46" y="11.75" width="3.01" height=".76" transform="translate(.78 25.23) rotate(-78)"/><rect class="h" x="13.89" y="11.66" width="3.01" height=".76" transform="translate(2.31 26.55) rotate(-86)"/><rect class="j" x="14.43" y="10.52" width=".76" height="3.01" transform="translate(-.8 1.06) rotate(-4)"/><rect class="h" x="13.85" y="10.59" width=".76" height="3.01" transform="translate(-2.2 3.22) rotate(-12)"/><rect class="j" x="13.29" y="10.73" width=".76" height="3.01" transform="translate(-3.36 5.41) rotate(-20)"/><rect class="h" x="12.75" y="10.96" width=".76" height="3.01" transform="translate(-4.31 7.62) rotate(-28)"/><rect class="j" x="12.25" y="11.25" width=".76" height="3.01" transform="translate(-5.09 9.86) rotate(-36)"/><rect class="h" x="11.79" y="11.62" width=".76" height="3.01" transform="translate(-5.7 12.14) rotate(-44)"/><rect class="j" x="11.39" y="12.04" width=".76" height="3.01" transform="translate(-6.15 14.48) rotate(-52)"/><rect class="h" x="11.06" y="12.52" width=".76" height="3.01" transform="translate(-6.42 16.91) rotate(-60)"/><rect class="j" x="10.79" y="13.03" width=".76" height="3.01" transform="translate(-6.5 19.45) rotate(-68)"/><rect class="h" x="10.59" y="13.58" width=".76" height="3.01" transform="translate(-6.32 22.08) rotate(-76)"/><rect class="j" x="10.48" y="14.15" width=".76" height="3.01" transform="translate(-5.85 24.82) rotate(-84)"/><rect class="h" x="9.32" y="15.86" width="3.01" height=".76" transform="translate(-.56 .39) rotate(-2)"/><rect class="j" x="9.37" y="16.44" width="3.01" height=".76" transform="translate(-2.76 2.14) rotate(-10)"/><rect class="h" x="9.49" y="17.01" width="3.01" height=".76" transform="translate(-4.84 4.25) rotate(-18)"/><rect class="j" x="9.7" y="17.56" width="3.01" height=".76" transform="translate(-6.73 6.73) rotate(-26)"/><rect class="h" x="9.98" y="18.07" width="3.01" height=".76" transform="translate(-8.35 9.57) rotate(-34)"/><rect class="j" x="10.32" y="18.53" width="3.01" height=".76" transform="translate(-9.62 12.77) rotate(-42)"/><rect class="h" x="10.73" y="18.95" width="3.01" height=".76" transform="translate(-10.43 16.28) rotate(-50)"/><rect class="j" x="11.2" y="19.3" width="3.01" height=".76" transform="translate(-10.72 20.02) rotate(-58)"/><rect class="h" x="11.7" y="19.59" width="3.01" height=".76" transform="translate(-10.41 23.91) rotate(-66)"/><rect class="j" x="12.25" y="19.8" width="3.01" height=".76" transform="translate(-9.44 27.84) rotate(-74)"/><rect class="h" x="12.81" y="19.94" width="3.01" height=".76" transform="translate(-7.79 31.67) rotate(-82)"/></g><path class="k" d="M14.9,21.36c-2.7,0-4.89-2.19-4.89-4.89s2.19-4.89,4.89-4.89,4.89,2.19,4.89,4.89-2.19,4.89-4.89,4.89Zm0-8.21c-1.83,0-3.32,1.49-3.32,3.32s1.49,3.32,3.32,3.32,3.32-1.49,3.32-3.32-1.49-3.32-3.32-3.32Z"/></g><g><path class="e" d="M14.9,21.36c-2.7,0-4.89-2.19-4.89-4.89s2.19-4.89,4.89-4.89,4.89,2.19,4.89,4.89-2.19,4.89-4.89,4.89Zm0-8.21c-1.83,0-3.32,1.49-3.32,3.32s1.49,3.32,3.32,3.32,3.32-1.49,3.32-3.32-1.49-3.32-3.32-3.32Z"/><g class="q"><rect class="l" x="14.52" y="18.86" width=".76" height="3.01"/><rect class="r" x="15.1" y="18.84" width=".76" height="3.01" transform="translate(-2.68 2.35) rotate(-8)"/><rect class="l" x="15.67" y="18.73" width=".76" height="3.01" transform="translate(-4.96 5.21) rotate(-16)"/><rect class="r" x="16.22" y="18.54" width=".76" height="3.01" transform="translate(-6.72 8.49) rotate(-24)"/><rect class="l" x="16.75" y="18.28" width=".76" height="3.01" transform="translate(-7.88 12.08) rotate(-32)"/><rect class="r" x="17.22" y="17.95" width=".76" height="3.01" transform="translate(-8.39 15.87) rotate(-40)"/><rect class="l" x="17.65" y="17.56" width=".76" height="3.01" transform="translate(-8.2 19.71) rotate(-48)"/><rect class="r" x="18.02" y="17.11" width=".76" height="3.01" transform="translate(-7.32 23.46) rotate(-56)"/><rect class="l" x="18.33" y="16.61" width=".76" height="3.01" transform="translate(-5.78 26.99) rotate(-64)"/><rect class="r" x="18.56" y="16.08" width=".76" height="3.01" transform="translate(-3.64 30.16) rotate(-72)"/><rect class="l" x="18.71" y="15.51" width=".76" height="3.01" transform="translate(-.99 32.87) rotate(-80)"/><rect class="r" x="18.79" y="14.94" width=".76" height="3.01" transform="translate(2.07 35.02) rotate(-88)"/><rect class="l" x="17.66" y="15.48" width="3.01" height=".76" transform="translate(-1.55 2.09) rotate(-6)"/><rect class="r" x="17.57" y="14.91" width="3.01" height=".76" transform="translate(-3.13 5.07) rotate(-14)"/><rect class="l" x="17.4" y="14.35" width="3.01" height=".76" transform="translate(-4.14 8.15) rotate(-22)"/><rect class="r" x="17.16" y="13.82" width="3.01" height=".76" transform="translate(-4.6 11.23) rotate(-30)"/><rect class="l" x="16.84" y="13.33" width="3.01" height=".76" transform="translate(-4.55 14.2) rotate(-38)"/><rect class="r" x="16.47" y="12.88" width="3.01" height=".76" transform="translate(-4.05 16.98) rotate(-46)"/><rect class="l" x="16.03" y="12.5" width="3.01" height=".76" transform="translate(-3.19 19.49) rotate(-54)"/><rect class="r" x="15.54" y="12.18" width="3.01" height=".76" transform="translate(-2.04 21.71) rotate(-62)"/><rect class="l" x="15.02" y="11.93" width="3.01" height=".76" transform="translate(-.69 23.62) rotate(-70)"/><rect class="r" x="14.46" y="11.75" width="3.01" height=".76" transform="translate(.78 25.23) rotate(-78)"/><rect class="l" x="13.89" y="11.66" width="3.01" height=".76" transform="translate(2.31 26.55) rotate(-86)"/><rect class="r" x="14.43" y="10.52" width=".76" height="3.01" transform="translate(-.8 1.06) rotate(-4)"/><rect class="l" x="13.85" y="10.59" width=".76" height="3.01" transform="translate(-2.2 3.22) rotate(-12)"/><rect class="r" x="13.29" y="10.73" width=".76" height="3.01" transform="translate(-3.36 5.41) rotate(-20)"/><rect class="l" x="12.75" y="10.96" width=".76" height="3.01" transform="translate(-4.31 7.62) rotate(-28)"/><rect class="r" x="12.25" y="11.25" width=".76" height="3.01" transform="translate(-5.09 9.86) rotate(-36)"/><rect class="l" x="11.79" y="11.62" width=".76" height="3.01" transform="translate(-5.7 12.14) rotate(-44)"/><rect class="r" x="11.39" y="12.04" width=".76" height="3.01" transform="translate(-6.15 14.48) rotate(-52)"/><rect class="l" x="11.06" y="12.52" width=".76" height="3.01" transform="translate(-6.42 16.91) rotate(-60)"/><rect class="r" x="10.79" y="13.03" width=".76" height="3.01" transform="translate(-6.5 19.45) rotate(-68)"/><rect class="l" x="10.59" y="13.58" width=".76" height="3.01" transform="translate(-6.32 22.08) rotate(-76)"/><rect class="r" x="10.48" y="14.15" width=".76" height="3.01" transform="translate(-5.85 24.82) rotate(-84)"/><rect class="l" x="9.32" y="15.86" width="3.01" height=".76" transform="translate(-.56 .39) rotate(-2)"/><rect class="r" x="9.37" y="16.44" width="3.01" height=".76" transform="translate(-2.76 2.14) rotate(-10)"/><rect class="l" x="9.49" y="17.01" width="3.01" height=".76" transform="translate(-4.84 4.25) rotate(-18)"/><rect class="r" x="9.7" y="17.56" width="3.01" height=".76" transform="translate(-6.73 6.73) rotate(-26)"/><rect class="l" x="9.98" y="18.07" width="3.01" height=".76" transform="translate(-8.35 9.57) rotate(-34)"/><rect class="r" x="10.32" y="18.53" width="3.01" height=".76" transform="translate(-9.62 12.77) rotate(-42)"/><rect class="l" x="10.73" y="18.95" width="3.01" height=".76" transform="translate(-10.43 16.28) rotate(-50)"/><rect class="r" x="11.2" y="19.3" width="3.01" height=".76" transform="translate(-10.72 20.02) rotate(-58)"/><rect class="l" x="11.7" y="19.59" width="3.01" height=".76" transform="translate(-10.41 23.91) rotate(-66)"/><rect class="r" x="12.25" y="19.8" width="3.01" height=".76" transform="translate(-9.44 27.84) rotate(-74)"/><rect class="l" x="12.81" y="19.94" width="3.01" height=".76" transform="translate(-7.79 31.67) rotate(-82)"/></g></g><path d="M12.3,21.34c-1.82,0-3.59-1.07-5.45-2.2-.24-.14-.48-.29-.72-.43-.08,.05-.21,.08-.39,.1-.41,.04-1.23-.02-1.7-.49l-.03-.03v-.04s0-.1,1.52-2.28l.06-.09,.09,.06c.66,.43,1.11,1.4,1.05,1.82,.69,.52,6.57,3.73,10.27,1.14l.12,.18c-3.91,2.74-10.18-.81-10.59-1.2l-.05-.05,.02-.07c.09-.25-.29-1.15-.87-1.58-.5,.72-1.23,1.78-1.39,2.05,.56,.49,1.65,.43,1.78,.3l.06-.08,.08,.05c.26,.15,.52,.31,.78,.47,1.84,1.11,3.58,2.16,5.34,2.16,2.5,0,4.41-.48,5.67-1.42l.13,.17c-1.3,.97-3.25,1.47-5.8,1.47Z"/><path class="e" d="M18.04,19.79c-1.1,.83-2.87,1.45-5.73,1.45-2.05,0-4.09-1.41-6.18-2.65-.12,.18-1.4,.25-2-.35,0-.07,1.5-2.22,1.5-2.22,.66,.43,1.11,1.46,.99,1.77,.45,.42,6.6,3.89,10.45,1.19"/><path class="d" d="M16.74,19.19c-2,1.19-4.8,.81-6.55,.25,3.26,1.91,6.17,.7,6.55-.25Z"/><path d="M15.37,21.68c-.5,0-1-.07-1.51-.24-1.13-.38-2.42-1.25-2.98-1.91l.51,.23c.61,.48,1.49,1.02,2.57,1.38,3.41,1.14,6.9-2.48,6.93-2.52,2.68-2.64,5.63-2.81,6.75-2.76l-5.86-5.62c.36,3.91-1.65,7.01-2.61,7.68-3.13,2.89-5.45,1.87-6.93,.84l.18-.26c1.5,1.04,3.61,1.89,6.53-.82h.02c.94-.67,2.97-3.85,2.43-7.84l-.06-.46,7.22,6.92-.51-.09s-3.69-.57-6.93,2.63c-.12,.13-2.73,2.84-5.75,2.84Z"/><path class="e" d="M12.33,18.63c1.28,.89,3.56,2.1,6.73-.84,.97-.67,3.05-3.94,2.5-7.98l6.51,6.24s-3.72-.62-7.07,2.68c0,0-3.55,3.75-7.1,2.56-1.02-.34-1.85-.9-2.57-1.47"/><path class="n" d="M21.56,9.8c.16,1.18,.1,2.3-.1,3.3l3.68,3.19c1.69-.46,2.94-.25,2.94-.25l-6.51-6.24Z"/><path class="n" d="M7.15,18.27c-.26-.15-.44-.27-.52-.33-.11,.16-.26,.39-.42,.62,.19,.1,.37,.21,.55,.31l.38-.6Z"/><path class="g" d="M19.07,17.79c-3.17,2.94-5.45,1.73-6.73,.84l-.12,.14c.6,.57,3.96,2.86,7.59-1.75-.27,.37-.53,.63-.74,.77Z"/><path class="d" d="M11.55,19.57l-.21,.25c.72,.57,1.54,1.13,2.57,1.47,1.08,.36,2.17,.26,3.15-.05-2.81,.4-4.87-1.13-5.51-1.67Z"/></g></g></svg>